<?xml version="1.0" standalone="no"?>
<!DOCTYPE svg PUBLIC "-//W3C//DTD SVG 1.1//EN" "http://www.w3.org/Graphics/SVG/1.1/DTD/svg11.dtd" >
<svg xmlns="http://www.w3.org/2000/svg" xmlns:xlink="http://www.w3.org/1999/xlink" version="1.1">
<metadata>
Created by FontForge 20201107 at Thu Dec 18 19:34:33 2025
 By 
Copyright 2022 The Geom Project Authors (https://github.com/ThanosPoulakidas/Geom)
</metadata>
<defs>
<font id="Geom-BlackItalic" horiz-adv-x="0" >
  <font-face 
    font-family="Geom Black"
    font-weight="900"
    font-style="italic"
    font-stretch="normal"
    units-per-em="2048"
    panose-1="0 0 0 0 0 0 0 0 0 0"
    ascent="1638"
    descent="-410"
    x-height="1108"
    cap-height="1434"
    bbox="-563 -610 5286 2163"
    underline-thickness="102"
    underline-position="-255"
    slope="-10"
    unicode-range="U+000D-FB02"
  />
<missing-glyph horiz-adv-x="1228" 
d="M238 1475l-261 -1475h1084l260 1475h-1083zM1090 1358l-418 -496l-246 496h664zM965 262l-236 475l404 477zM870 117h-663l422 497zM168 262l168 955l231 -480z" />
    <glyph glyph-name="fi" unicode="fi" horiz-adv-x="1497" 
d="M999 1479q-98 30 -231 30q-192 0 -312.5 -94t-154.5 -289l-6 -30l-221 -299h170l-142 -797h387l142 797h248l51 299h-316l7 26q8 50 62.5 77.5t115.5 27.5q79 0 153 -23zM1257 0l195 1108h-389l-195 -1108h389zM1343 1597q-22 0 -47 -4t-59 -16.5t-62 -33t-52 -57.5
t-33 -85q-19 -95 33 -147t149 -52q96 0 168 52t90 147q17 94 -36.5 145t-150.5 51z" />
    <glyph glyph-name="fl" unicode="fl" horiz-adv-x="1472" 
d="M999 1479q-98 30 -231 30q-192 0 -312.5 -94t-154.5 -289l-6 -30l-221 -299h170l-142 -797h387l142 797h248l51 299h-316l7 26q8 50 62.5 77.5t115.5 27.5q79 0 153 -23zM1260 0l264 1495h-389l-265 -1495h390z" />
    <glyph glyph-name="f_f_i" unicode="ffi" horiz-adv-x="2342" 
d="M2103 0l195 1108h-389l-195 -1108h389zM2189 1597q-22 0 -47 -4t-59.5 -16.5t-62.5 -33t-52 -57.5t-33 -85q-19 -95 33.5 -147t149.5 -52q96 0 168 52t90 147q17 94 -36.5 145t-150.5 51zM1845 1479q-98 30 -231 30q-192 0 -312.5 -94t-154.5 -289l-6 -30l-221 -299h170
l-142 -797h387l142 797h247l52 299h-316l6 26q8 50 63 77.5t116 27.5q79 0 153 -23zM999 1479q-98 30 -231 30q-192 0 -312.5 -94t-154.5 -289l-6 -30l-221 -299h170l-142 -797h387l142 797h248l51 299h-316l7 26q8 50 62.5 77.5t115.5 27.5q79 0 153 -23z" />
    <glyph glyph-name="f_f_l" unicode="ffl" horiz-adv-x="2226" 
d="M999 1479q-98 30 -231 30q-192 0 -312.5 -94t-154.5 -289l-6 -30l-221 -299h170l-142 -797h387l142 797h248l51 299h-316l7 26q8 50 62.5 77.5t115.5 27.5q79 0 153 -23zM1763 1479q-98 30 -231 30q-192 0 -312.5 -94t-154.5 -289l-6 -30l-221 -299h170l-142 -797h387
l142 797h247l52 299h-316l6 26q8 50 63 77.5t116 27.5q79 0 153 -23zM2023 0l265 1495h-390l-264 -1495h389z" />
    <glyph glyph-name="f_f" unicode="ff" horiz-adv-x="1585" 
d="M1755 1479q-98 30 -231 30q-192 0 -312.5 -94t-154.5 -289l-6 -30l-222 -299h170l-141 -797h387l141 797h248l52 299h-316l6 26q8 50 62.5 77.5t115.5 27.5q80 0 154 -23zM999 1479q-98 30 -231 30q-192 0 -312.5 -94t-154.5 -289l-6 -30l-221 -299h170l-142 -797h387
l142 797h248l51 299h-316l7 26q8 50 62.5 77.5t115.5 27.5q79 0 153 -23z" />
    <glyph glyph-name=".notdef" horiz-adv-x="1228" 
d="M238 1475l-261 -1475h1084l260 1475h-1083zM1090 1358l-418 -496l-246 496h664zM965 262l-236 475l404 477zM870 117h-663l422 497zM168 262l168 955l231 -480z" />
    <glyph glyph-name=".null" 
 />
    <glyph glyph-name="nonmarkingreturn" horiz-adv-x="682" 
 />
    <glyph glyph-name="CR" unicode="&#xd;" 
 />
    <glyph glyph-name="space" unicode=" " horiz-adv-x="573" 
 />
    <glyph glyph-name="exclam" unicode="!" horiz-adv-x="698" 
d="M727 1434h-442l-31 -174l-21 -793h205l258 793zM317 369q-38 0 -76 -10.5t-75 -32.5t-64.5 -61.5t-38.5 -92.5q-19 -94 34.5 -146.5t150.5 -52.5q96 0 167.5 52t88.5 147t-36.5 146t-150.5 51z" />
    <glyph glyph-name="quotedbl" unicode="&#x22;" horiz-adv-x="1351" 
d="M223 698h203l389 729v5v2h-418zM924 1434l-176 -736h204l389 729v5v2h-417z" />
    <glyph glyph-name="numbersign" unicode="#" horiz-adv-x="1458" 
d="M182 276l-96 -276h297l96 276h260l-98 -276h297l98 276h244l57 330h-188l80 230h217l57 329h-160l93 269h-297l-92 -269h-261l95 269h-297l-92 -269h-246l-58 -329h189l-80 -230h-217l-57 -330h159zM670 844h272l-86 -246h-274z" />
    <glyph glyph-name="dollar" unicode="$" horiz-adv-x="1323" 
d="M442 -201h213l35 201q225 21 376 135t183 299q33 183 -67 285.5t-342 161.5l45 256q139 -26 209 -131l237 221q-61 83 -161 136.5t-224 66.5l23 122h-213l-21 -116q-234 -17 -384 -133.5t-183 -298.5q-31 -184 71.5 -286t348.5 -161l-45 -260q-85 11 -162.5 60
t-124.5 122l-270 -243q95 -114 223 -173t268 -59zM774 524q62 -20 93.5 -46.5t23.5 -69.5q-8 -44 -47 -73t-109 -36zM653 915q-49 12 -87 44.5t-31 74.5q6 41 45 69t112 34z" />
    <glyph glyph-name="percent" unicode="%" horiz-adv-x="1851" 
d="M471 682q94 0 173 32.5t132 88.5t86.5 124t46.5 144q26 160 -57 271.5t-244 111.5q-164 0 -287 -111.5t-151 -273.5t55.5 -274.5t245.5 -112.5zM567 1229q51 0 77 -47.5t15 -112.5q-11 -69 -52.5 -115.5t-94.5 -46.5q-51 0 -77.5 47.5t-14.5 116.5t53 113.5t94 44.5z
M1307 -20q92 0 171 34t133 90t88.5 124t45.5 141q25 164 -57 273.5t-244 109.5q-164 0 -287 -111.5t-151 -273.5q-29 -161 54.5 -274t246.5 -113zM1401 526q54 0 80.5 -44t13.5 -115q-14 -70 -54 -116t-93 -46q-51 0 -78 48t-15 116q12 70 51.5 113.5t94.5 43.5zM416 0
l1358 1434h-277l-1358 -1434h277z" />
    <glyph glyph-name="ampersand" unicode="&#x26;" horiz-adv-x="1531" 
d="M782 330q-97 -62 -180 -62q-74 0 -113.5 39.5t-29.5 102.5q19 99 131 159zM1217 788q-80 -116 -177 -227l-129 166q303 133 346 373q28 163 -69.5 268t-290.5 105q-204 0 -347.5 -114t-172.5 -276q-25 -149 43 -288q-314 -131 -361 -402q-34 -194 90 -306t349 -112
q229 0 450 146l101 -131l372 80l-207 284q85 96 263 344zM711 1069q8 48 41.5 89.5t95.5 41.5q50 0 75 -31t15 -84q-18 -106 -182 -180q-58 93 -45 164z" />
    <glyph glyph-name="quotesingle" unicode="'" horiz-adv-x="835" 
d="M479 1434l-174 -736h211l389 729v5v2h-426z" />
    <glyph glyph-name="parenleft" unicode="(" horiz-adv-x="970" 
d="M797 -47q-130 104 -197 206t-78 205t8 224q33 199 149.5 348t340.5 287l-156 223q-146 -75 -259 -157t-208 -185.5t-157.5 -233t-89.5 -282.5q-36 -204 3 -367t138.5 -278.5t263.5 -208.5z" />
    <glyph glyph-name="parenright" unicode=")" horiz-adv-x="970" 
d="M186 1223q194 -153 249.5 -297t19.5 -338q-37 -200 -152.5 -349t-339.5 -286l164 -219q304 143 479.5 347t229.5 507q24 156 11.5 281t-70 231.5t-144.5 189.5t-213 156z" />
    <glyph glyph-name="asterisk" unicode="*" horiz-adv-x="854" 
d="M279 1358l120 -223l-274 -91l22 -153l275 88l-49 -283h168l49 279l239 -84l78 153l-237 86l194 228l-119 96l-196 -221l-119 221z" />
    <glyph glyph-name="plus" unicode="+" horiz-adv-x="1380" 
d="M930 893l61 352h-356l-62 -352h-346l-61 -344h346l-61 -352h356l61 352h346l62 344h-346z" />
    <glyph glyph-name="comma" unicode="," horiz-adv-x="573" 
d="M150 -336l342 739h-351l-258 -739h267z" />
    <glyph glyph-name="hyphen" unicode="-" horiz-adv-x="759" 
d="M688 387l62 342h-672l-62 -342h672z" />
    <glyph glyph-name="period" unicode="." horiz-adv-x="716" 
d="M336 422q-106 0 -177.5 -60t-90.5 -163q-20 -107 34 -166.5t156 -59.5t176 59.5t94 166.5q20 106 -35 164.5t-157 58.5z" />
    <glyph glyph-name="slash" unicode="/" horiz-adv-x="1218" 
d="M168 -262l1243 1896h-315l-1243 -1896h315z" />
    <glyph glyph-name="zero" unicode="0" horiz-adv-x="1480" 
d="M506 721q31 171 118.5 280t213.5 109q117 0 171.5 -110.5t24.5 -282.5q-31 -173 -122.5 -283t-209.5 -110t-172.5 112t-23.5 285zM1434 721q63 351 -75.5 546t-455.5 195q-149 0 -286 -59.5t-239.5 -161t-173.5 -237t-98 -287.5q-20 -102 -14 -196.5t28.5 -177.5
t70 -151.5t110.5 -117.5t149 -76t187 -27q150 0 287 60.5t239 163.5t173 239t98 287z" />
    <glyph glyph-name="one" unicode="1" horiz-adv-x="890" 
d="M641 0l254 1444h-709l-65 -371h317l-188 -1073h391z" />
    <glyph glyph-name="two" unicode="2" horiz-adv-x="1218" 
d="M1214 1001q18 101 -1 181t-63 130.5t-111 84.5t-139 47.5t-152 13.5q-113 0 -220.5 -35t-197.5 -100t-154 -167t-86 -228h363q16 91 81 137.5t142 46.5q71 0 108 -39t25 -106q-20 -122 -199 -295l-692 -672h1135l57 324h-385l160 172q163 175 236 281t93 224z" />
    <glyph glyph-name="three" unicode="3" horiz-adv-x="1314" 
d="M1309 1149l49 285h-1036l-56 -322h549l-383 -297l21 -207h168q112 0 166 -39t42 -108q-12 -67 -72 -108.5t-149 -41.5q-163 0 -280 138l-318 -224q88 -121 229 -187.5t332 -66.5q253 0 429 132.5t214 349.5q16 89 0 159.5t-60 118t-103 78t-136 47.5z" />
    <glyph glyph-name="four" unicode="4" horiz-adv-x="1423" 
d="M1350 1444h-402l-899 -883l17 -282h694l-49 -279h385l49 279h182l53 296h-182zM885 985l-72 -410h-342z" />
    <glyph glyph-name="five" unicode="5" horiz-adv-x="1300" 
d="M406 575q130 72 241 72q95 0 144 -44.5t36 -121.5q-14 -79 -78 -125.5t-161 -46.5q-88 0 -165.5 39.5t-156.5 116.5l-274 -266q100 -111 230 -169.5t313 -58.5q175 0 319 61.5t239.5 178.5t123.5 274q20 113 -5 202t-85 143t-142 82t-180 28q-123 0 -238 -51l49 217h646
l57 328h-959l-167 -727z" />
    <glyph glyph-name="six" unicode="6" horiz-adv-x="1329" 
d="M1171 1446h-415l-330 -391q-197 -233 -275 -359t-98 -241q-37 -215 105.5 -349.5t423.5 -134.5q164 0 305.5 62.5t238 182t123.5 276.5q38 213 -51 329.5t-280 116.5q-85 0 -149 -22.5t-132 -67.5zM627 281q-100 0 -142.5 50t-25.5 140q14 79 76 130.5t153 51.5
q92 0 138 -52t32 -132q-14 -82 -76.5 -135t-154.5 -53z" />
    <glyph glyph-name="seven" unicode="7" horiz-adv-x="1142" 
d="M434 0l834 1135l51 299h-1104l-57 -334h663l-825 -1100h438z" />
    <glyph glyph-name="eight" unicode="8" horiz-adv-x="1347" 
d="M1053 743q95 45 163 128t89 186q35 173 -97 287t-372 114q-239 0 -410.5 -114t-202.5 -287q-36 -206 142 -314q-266 -104 -308 -344q-32 -188 112.5 -306t403.5 -118q171 0 314.5 52.5t236.5 150t115 223.5q20 114 -30.5 201.5t-155.5 140.5zM727 852q-83 0 -122.5 43
t-24.5 117q12 64 67.5 106.5t134.5 42.5t120 -43.5t30 -107.5t-69.5 -111t-135.5 -47zM625 272q-93 0 -141.5 46t-34.5 120q14 69 78.5 112.5t154.5 43.5q91 0 141.5 -43.5t38.5 -112.5q-13 -68 -77.5 -117t-159.5 -49z" />
    <glyph glyph-name="nine" unicode="9" horiz-adv-x="1329" 
d="M219 0h416l465 567q119 147 170.5 243t66.5 181q39 216 -103.5 350t-430.5 134q-157 0 -297 -61.5t-238 -181t-125 -274.5q-38 -213 51.5 -331.5t280.5 -118.5q146 0 279 90zM764 1165q95 0 139.5 -54t30.5 -132q-14 -80 -77.5 -133t-154.5 -53t-136.5 54.5t-33.5 133.5
q14 80 77 132t155 52z" />
    <glyph glyph-name="colon" unicode=":" horiz-adv-x="716" 
d="M336 422q-106 0 -177.5 -60t-90.5 -163q-20 -107 34 -166.5t156 -59.5t176 59.5t94 166.5q20 106 -35 164.5t-157 58.5zM461 1130q-106 0 -177.5 -60t-90.5 -163q-20 -107 34 -166t156 -59t176 59t94 166q20 106 -35 164.5t-157 58.5z" />
    <glyph glyph-name="semicolon" unicode=";" horiz-adv-x="608" 
d="M401 1130q-106 0 -177.5 -60t-90.5 -163q-20 -107 34.5 -166t156.5 -59t176 59t94 166q20 106 -35 164.5t-158 58.5zM131 -336l342 739h-350l-258 -739h266z" />
    <glyph glyph-name="less" unicode="&#x3c;" horiz-adv-x="1363" 
d="M1262 944l63 363l-1087 -406l-66 -362l946 -406l66 365l-631 223z" />
    <glyph glyph-name="equal" unicode="=" horiz-adv-x="1337" 
d="M1282 1167h-1006l-61 -342h1006zM1184 616h-1006l-59 -342h1005z" />
    <glyph glyph-name="greater" unicode="&#x3e;" horiz-adv-x="1366" 
d="M307 1307l-63 -365l630 -223l-708 -223l-66 -363l1090 406l65 362z" />
    <glyph glyph-name="question" unicode="?" horiz-adv-x="1073" 
d="M143 932q236 188 400 188q66 0 110.5 -27.5t34.5 -80.5q-12 -71 -135 -158q-45 -31 -75.5 -56.5t-67 -65t-60 -89t-33.5 -108.5l-16 -89h356l13 64q10 57 32.5 86t83.5 70q56 38 87.5 61.5t72 60t63.5 69.5t43.5 79t30.5 100q23 129 -29 225.5t-151.5 143.5t-228.5 47
q-287 0 -473 -197zM481 369q-40 0 -76.5 -9t-74 -29t-65 -61t-38.5 -98q-18 -95 35 -147t150 -52q96 0 167.5 52t88.5 147t-36.5 146t-150.5 51z" />
    <glyph glyph-name="at" unicode="@" horiz-adv-x="1941" 
d="M768 557q17 103 85.5 167t152.5 64q67 0 100 -42t20 -113q-17 -98 -86 -167t-151 -69q-68 0 -101 42t-20 118zM1374 -113q-122 -65 -244 -90.5t-278 -25.5q-239 0 -405.5 102.5t-234.5 282.5t-28 407q30 168 115 316t208.5 255.5t284.5 169.5t336 62q228 0 390 -93
t229.5 -252t32.5 -355q-35 -200 -113 -308t-180 -108q-54 0 -81 31.5t-25 78.5t18 101l186 528l-309 49l-45 -125q-74 152 -248 152q-120 0 -237.5 -71.5t-201 -194.5t-108.5 -267q-33 -185 53 -298t248 -113q170 0 328 151q65 -155 289 -155q85 0 168 34.5t156.5 100
t128.5 173t79 241.5q29 161 -12 307t-138 254t-251 171.5t-340 63.5q-190 0 -371.5 -71.5t-323 -192.5t-240.5 -286.5t-132 -348.5q-24 -125 -10.5 -239.5t51 -214t107 -181t158.5 -139.5t204.5 -89.5t245.5 -31.5q289 0 571 154z" />
    <glyph glyph-name="A" unicode="A" horiz-adv-x="1570" 
d="M453 256h553l59 -256h426l-356 1444h-383l-865 -1444h418zM625 565l233 408l88 -408h-321z" />
    <glyph glyph-name="B" unicode="B" horiz-adv-x="1470" 
d="M274 1434l-251 -1434h735q258 0 421 106.5t195 292.5q48 267 -221 351q237 94 277 323q31 169 -83 265t-341 96h-732zM561 862l45 252h256q87 0 127 -31.5t29 -91.5q-10 -63 -64 -96t-145 -33h-248zM467 319l45 265h301q96 0 140.5 -34.5t33.5 -94.5q-11 -64 -67.5 -100
t-147.5 -36h-305z" />
    <glyph glyph-name="C" unicode="C" horiz-adv-x="1361" 
d="M1266 508q-219 -174 -437 -174q-178 0 -261.5 109t-53.5 278q29 162 152 270.5t299 108.5q117 0 211.5 -46t152.5 -122l72 403q-159 127 -410 127q-213 0 -404 -98.5t-318.5 -269t-164.5 -377.5q-37 -210 32 -381.5t221.5 -268t355.5 -96.5q255 0 483 140z" />
    <glyph glyph-name="D" unicode="D" horiz-adv-x="1558" 
d="M274 1434l-251 -1434h544q190 0 354.5 55t284.5 152t199 230t106 288q37 209 -29 368t-234.5 250t-420.5 91h-553zM481 352l129 729h162q180 0 271 -96.5t61 -265.5q-30 -171 -155 -269t-306 -98h-162z" />
    <glyph glyph-name="E" unicode="E" horiz-adv-x="1382" 
d="M475 338l41 227h688l56 314h-689l37 217h760l59 338h-1153l-251 -1434h1163l59 338h-770z" />
    <glyph glyph-name="F" unicode="F" horiz-adv-x="1349" 
d="M420 0l90 512h678l57 330h-678l43 243h750l61 349h-1147l-251 -1434h397z" />
    <glyph glyph-name="G" unicode="G" horiz-adv-x="1554" 
d="M1100 547q-11 -61 -45 -108.5t-79 -73.5t-92 -39t-91 -13q-147 0 -230 114t-51 288q28 166 157.5 279.5t297.5 113.5q206 0 344 -135l73 420q-69 32 -170 50.5t-206 18.5q-164 0 -318 -58t-273 -157.5t-202.5 -237t-110.5 -292.5q-29 -159 5.5 -299t117.5 -237.5
t209 -153.5t277 -56q101 0 195 22t192 78t176 142t141.5 225.5t95.5 317.5l15 82h-660l-51 -291h283z" />
    <glyph glyph-name="H" unicode="H" horiz-adv-x="1544" 
d="M274 1434l-251 -1434h397l96 545h510l-96 -545h397l252 1434h-397l-95 -537h-509l94 537h-398z" />
    <glyph glyph-name="I" unicode="I" horiz-adv-x="636" 
d="M422 0l252 1434h-400l-251 -1434h399z" />
    <glyph glyph-name="J" unicode="J" horiz-adv-x="972" 
d="M-82 84q142 -109 311 -109q263 0 425 147.5t206 401.5l160 910h-395l-160 -908q-17 -96 -77.5 -148t-141.5 -52q-42 0 -78.5 12t-70.5 38.5t-55 47t-54 57.5z" />
    <glyph glyph-name="K" unicode="K" horiz-adv-x="1482" 
d="M569 852l103 582h-398l-251 -1434h397l133 754l373 -754h477l-418 817l651 617h-471z" />
    <glyph glyph-name="L" unicode="L" horiz-adv-x="1243" 
d="M481 348l191 1086h-398l-251 -1434h1091l62 348h-695z" />
    <glyph glyph-name="M" unicode="M" horiz-adv-x="1597" 
d="M475 819l270 -557l469 561l-145 -823h395l252 1434h-420l-438 -555l-246 555h-419l-252 -1434h389z" />
    <glyph glyph-name="N" unicode="N" horiz-adv-x="1593" 
d="M1102 676l-457 758h-371l-251 -1434h393l139 786l473 -786h348l252 1434h-393z" />
    <glyph glyph-name="O" unicode="O" horiz-adv-x="1695" 
d="M743 -29q148 0 280 39t233.5 107t181.5 160.5t131.5 199t75.5 223.5q24 130 10 244.5t-69 209.5t-137.5 163.5t-196 106.5t-244.5 38q-217 0 -412.5 -100t-325.5 -270.5t-166 -374.5q-27 -152 7.5 -290t118 -238t217 -159t296.5 -59zM942 1104q91 0 158 -33t99.5 -87
t45 -123.5t-3.5 -143.5q-27 -158 -150.5 -272.5t-283.5 -114.5q-104 0 -179 54.5t-104.5 144t-11.5 192.5q28 159 149.5 271t280.5 112z" />
    <glyph glyph-name="P" unicode="P" horiz-adv-x="1376" 
d="M274 1434l-251 -1434h397l72 410h196q180 0 328.5 58.5t250 177.5t130.5 284q42 237 -95.5 370.5t-412.5 133.5h-615zM547 721l67 379h187q111 0 161 -48.5t33 -140.5q-14 -86 -84.5 -138t-175.5 -52h-188z" />
    <glyph glyph-name="Q" unicode="Q" horiz-adv-x="1810" 
d="M1583 -303l72 409l-185 228q74 87 115.5 176t63.5 207q27 154 -7.5 291.5t-119 237t-218 158t-296.5 58.5q-217 0 -412.5 -100t-325.5 -270.5t-166 -374.5q-20 -104 -9 -199.5t43.5 -178.5t91.5 -151t134.5 -116t172.5 -74.5t206 -26.5q131 0 265 39t215 103zM942 1104
q74 0 132 -22.5t92.5 -60.5t56.5 -87.5t24 -104.5t-6 -112q-28 -162 -150.5 -274.5t-283.5 -112.5q-104 0 -179 54t-104.5 142.5t-11.5 190.5q28 162 149.5 274.5t280.5 112.5z" />
    <glyph glyph-name="R" unicode="R" horiz-adv-x="1423" 
d="M23 0h399l76 434h174l211 -434h458l-254 500q151 59 247.5 170.5t125.5 273.5q41 227 -87.5 358.5t-420.5 131.5h-678zM553 745l61 345h258q102 0 151 -42.5t34 -127.5q-14 -79 -79 -127t-165 -48h-260z" />
    <glyph glyph-name="S" unicode="S" horiz-adv-x="1345" 
d="M862 403q-18 -98 -203 -98q-166 0 -334.5 74.5t-283.5 189.5l-64 -356q110 -119 276.5 -178.5t354.5 -59.5q241 0 414 105t231 291q29 113 15.5 196.5t-57.5 136.5t-108 90.5t-136 58t-141.5 39t-124.5 34.5t-85.5 43.5t-23.5 66.5q7 41 59.5 72t143.5 31
q134 0 276.5 -67.5t241.5 -166.5l63 363q-202 190 -555 190q-111 0 -214.5 -28.5t-191.5 -83.5t-149.5 -144.5t-81.5 -202.5q-15 -84 0 -151.5t52.5 -111.5t90.5 -77.5t114 -54t123 -37.5t118 -31.5t98.5 -31t65 -42t16.5 -59.5z" />
    <glyph glyph-name="T" unicode="T" horiz-adv-x="1304" 
d="M754 0l190 1085h430l62 349h-1258l-61 -349h430l-191 -1085h398z" />
    <glyph glyph-name="U" unicode="U" horiz-adv-x="1552" 
d="M121 629q-21 -106 -18.5 -192.5t19 -154.5t53.5 -119.5t84.5 -87.5t112.5 -58.5t138 -33t160 -10.5q336 0 531.5 161.5t256.5 504.5l139 795h-403l-141 -807q-53 -295 -316 -295q-146 0 -193 72.5t-18 232.5l140 797h-404z" />
    <glyph glyph-name="V" unicode="V" horiz-adv-x="1501" 
d="M584 1434h-445l328 -1444h369l835 1444h-436l-485 -908z" />
    <glyph glyph-name="W" unicode="W" horiz-adv-x="2213" 
d="M674 604l-105 830h-419l225 -1444h346l432 825l143 -825h346l734 1444h-412l-395 -830l-129 834h-342z" />
    <glyph glyph-name="X" unicode="X" horiz-adv-x="1454" 
d="M633 1434h-457l348 -705l-620 -729h446l352 432l199 -432h457l-363 733l594 701h-446l-326 -404z" />
    <glyph glyph-name="Y" unicode="Y" horiz-adv-x="1460" 
d="M834 0l96 543l700 891h-444l-389 -523l-203 523h-453l387 -897l-94 -537h400z" />
    <glyph glyph-name="Z" unicode="Z" horiz-adv-x="1277" 
d="M504 336l862 809l49 289h-1243l-59 -336h694l-860 -809l-51 -289h1267l60 336h-719z" />
    <glyph glyph-name="bracketleft" unicode="[" horiz-adv-x="940" 
d="M952 1169l45 265h-708l-299 -1700h708l47 264h-360l207 1171h360z" />
    <glyph glyph-name="backslash" unicode="\" horiz-adv-x="1171" 
d="M182 1589l557 -1851l301 51l-557 1845z" />
    <glyph glyph-name="bracketright" unicode="]" horiz-adv-x="942" 
d="M6 -2l-47 -264h709l299 1700h-709l-45 -265h360l-206 -1171h-361z" />
    <glyph glyph-name="asciicircum" unicode="^" horiz-adv-x="940" 
d="M496 1432l-369 -422h268l191 198l121 -198h272l-221 422h-262z" />
    <glyph glyph-name="underscore" unicode="_" horiz-adv-x="1236" 
d="M-113 -90l-41 -238h1237l41 238h-1237z" />
    <glyph glyph-name="grave" unicode="`" horiz-adv-x="550" 
d="M137 1524l256 -262h275l-148 378z" />
    <glyph glyph-name="a" unicode="a" horiz-adv-x="1251" 
d="M717 285q-93 -66 -191 -66q-61 0 -98 36.5t-27 92.5q9 57 64 95t139 38q83 0 141 -28zM1157 637q42 243 -69 365t-394 122q-126 0 -231 -21.5t-223 -64.5l-47 -274q176 63 346 63q139 0 200.5 -44.5t40.5 -137.5l-4 -18q-110 43 -262 43q-198 0 -333 -90.5t-163 -257.5
q-14 -81 3 -147t60.5 -109.5t108.5 -67t146 -23.5q198 0 348 140l356 -140z" />
    <glyph glyph-name="b" unicode="b" horiz-adv-x="1382" 
d="M424 135q37 -60 94.5 -98t108.5 -50t106 -12q204 0 375 159.5t217 420.5q24 134 3 241t-75.5 182t-136.5 115t-180 40q-114 0 -200 -45.5t-167 -126.5l95 534h-390l-268 -1520zM758 807q114 0 158.5 -71.5t25.5 -178.5q-20 -114 -97.5 -185t-174.5 -71q-95 0 -146.5 71.5
t-31.5 180.5q19 111 95 182.5t171 71.5z" />
    <glyph glyph-name="c" unicode="c" horiz-adv-x="968" 
d="M981 1100q-77 30 -225 30q-171 0 -322 -79.5t-249 -211t-124 -286.5q-21 -117 5.5 -224t91 -185t166.5 -124.5t225 -46.5q138 0 250 39l63 363q-102 -74 -215 -74q-106 0 -166.5 73.5t-40.5 178.5q19 106 100.5 178t188.5 72q104 0 186 -76z" />
    <glyph glyph-name="d" unicode="d" horiz-adv-x="1382" 
d="M1174 -25l268 1520h-389l-92 -522q-33 47 -70 79.5t-100 56.5t-142 24q-98 0 -194 -40.5t-175.5 -114t-138.5 -184t-82 -241.5q-24 -134 -2.5 -241t76 -182t136.5 -115t180 -40q113 0 199 45.5t167 126.5zM623 301q-112 0 -157.5 73.5t-23.5 178.5q23 112 100 183t169 71
q95 0 148 -71t34 -179q-20 -113 -97 -184.5t-173 -71.5z" />
    <glyph glyph-name="e" unicode="e" horiz-adv-x="1247" 
d="M1051 389q-93 -72 -224 -106.5t-235 -34.5q-116 0 -174 55l760 189q17 82 13 161t-20.5 149t-54 129t-89 101t-125 66t-161.5 24q-166 0 -311 -74t-242.5 -204.5t-126.5 -292.5q-22 -125 1.5 -233.5t85.5 -186t162.5 -122t226.5 -44.5q105 0 228 29t232 92zM432 563
q0 99 68 185t168 86q72 0 113 -47.5t44 -133.5l-393 -96v6z" />
    <glyph glyph-name="f" unicode="f" horiz-adv-x="817" 
d="M983 1479q-98 30 -231 30q-192 0 -312.5 -94t-154.5 -289l-6 -30l-222 -299h170l-141 -797h387l141 797h248l51 299h-315l6 26q8 50 62.5 77.5t115.5 27.5q80 0 154 -23z" />
    <glyph glyph-name="g" unicode="g" horiz-adv-x="1392" 
d="M655 401q-107 0 -155.5 61t-32.5 150q14 94 88 155.5t174 61.5q98 0 152 -60t37 -151q-17 -94 -91 -155.5t-172 -61.5zM848 223q-49 -274 -367 -274q-122 0 -245 46t-211 107l-56 -307q119 -67 222 -97t243 -30q153 0 286 37.5t240 110.5t180 188.5t99 263.5l147 840
l-411 -131q-58 75 -129.5 115.5t-179.5 40.5q-207 0 -373.5 -142t-208.5 -375q-40 -233 75 -375.5t322 -142.5q115 0 203.5 44.5t171.5 123.5z" />
    <glyph glyph-name="h" unicode="h" horiz-adv-x="1300" 
d="M1233 725q36 200 -48 304t-257 104q-194 0 -363 -177l97 539h-390l-264 -1495h389l107 600q14 87 70 136.5t126 49.5q68 0 103 -48.5t20 -137.5l-106 -600h389z" />
    <glyph glyph-name="i" unicode="i" horiz-adv-x="595" 
d="M395 0l195 1108h-389l-195 -1108h389zM481 1597q-22 0 -47 -4t-59.5 -16.5t-62.5 -33t-52 -57.5t-33 -85q-19 -95 33.5 -147t149.5 -52q96 0 168 52t90 147q17 94 -36.5 145t-150.5 51z" />
    <glyph glyph-name="j" unicode="j" horiz-adv-x="735" 
d="M-76 -319q88 -15 158 -15q197 0 312 89.5t151 293.5l186 1059h-389l-182 -1042q-24 -129 -111 -129q-30 0 -76 16zM623 1597q-22 0 -47 -4t-59.5 -16.5t-62.5 -33t-52 -57.5t-33 -85q-19 -95 33 -147t149 -52q96 0 168 52t90 147q17 95 -36 145.5t-150 50.5z" />
    <glyph glyph-name="k" unicode="k" horiz-adv-x="1245" 
d="M526 737l136 758h-390l-264 -1495h389l103 580l221 -580h428l-279 664l463 444h-440z" />
    <glyph glyph-name="l" unicode="l" horiz-adv-x="600" 
d="M397 0l265 1495h-390l-264 -1495h389z" />
    <glyph glyph-name="m" unicode="m" horiz-adv-x="1988" 
d="M1407 0h389l129 727q19 111 -9 202.5t-105 147.5t-191 56q-119 0 -216.5 -45.5t-189.5 -135.5q-27 89 -103 135t-179 46q-190 0 -367 -177l-362 152l-195 -1108h389l107 602q14 87 67.5 135.5t122.5 48.5q68 0 101 -47.5t18 -136.5l-106 -602h389l106 602q13 76 65.5 130
t127.5 54q68 0 100.5 -47t17.5 -137z" />
    <glyph glyph-name="n" unicode="n" horiz-adv-x="1300" 
d="M1233 725q35 196 -46.5 302t-258.5 106q-190 0 -363 -181l-362 156l-195 -1108h389l107 600q14 87 70 136.5t126 49.5q68 0 103 -49t20 -137l-106 -600h389z" />
    <glyph glyph-name="o" unicode="o" horiz-adv-x="1345" 
d="M569 -27q291 0 482 160t235 424q25 158 -29.5 289t-181 209t-299.5 78q-130 0 -253 -46.5t-217 -124.5t-159.5 -185t-85.5 -224q-28 -157 26.5 -290t181.5 -211.5t300 -78.5zM715 803q116 0 164 -71.5t28 -178.5q-21 -104 -97.5 -177t-178.5 -73q-101 0 -155.5 75
t-35.5 179q18 103 95 174.5t180 71.5z" />
    <glyph glyph-name="p" unicode="p" horiz-adv-x="1382" 
d="M424 135q48 -74 120 -117t189 -43q204 0 375 159.5t217 420.5q24 134 3 241t-75.5 182t-136.5 115t-180 40q-114 0 -200 -45.5t-167 -126.5l-364 147l-252 -1436h389zM758 807q106 0 154 -73t30 -177q-20 -114 -97.5 -185t-174.5 -71q-95 0 -146.5 71.5t-31.5 180.5
q19 111 95 182.5t171 71.5z" />
    <glyph glyph-name="q" unicode="q" horiz-adv-x="1382" 
d="M731 -328h389l252 1436l-411 -135q-52 74 -124 117t-186 43q-204 0 -375 -159.5t-217 -420.5q-24 -133 -2.5 -240t76 -182t136.5 -115.5t180 -40.5q113 0 199 45.5t167 126.5zM623 301q-58 0 -99 22.5t-60 58.5t-26 82t4 93q21 109 99 179.5t170 70.5q95 0 148 -71
t34 -179q-20 -110 -98 -183t-172 -73z" />
    <glyph glyph-name="r" unicode="r" horiz-adv-x="854" 
d="M946 1126h-18q-124 0 -213.5 -61.5t-161.5 -179.5l-350 223l-195 -1108h389l62 344q32 187 130 280t253 93h32z" />
    <glyph glyph-name="s" unicode="s" horiz-adv-x="1024" 
d="M567 311q-11 -63 -137 -63q-85 0 -194 41.5t-195 105.5l-55 -317q118 -52 215 -77.5t207 -25.5q205 0 345.5 96.5t170.5 264.5q14 78 -7 138.5t-65 96.5t-100 63t-114 45t-105.5 34t-75.5 37.5t-23 50.5q10 57 101 57q69 0 179 -36.5t185 -84.5l55 314
q-105 44 -181.5 61.5t-186.5 17.5q-197 0 -338.5 -97.5t-171.5 -268.5q-13 -71 1.5 -127.5t48.5 -92.5t80.5 -64t97.5 -44t99.5 -31t86.5 -26t59.5 -28.5t17.5 -39.5z" />
    <glyph glyph-name="t" unicode="t" horiz-adv-x="903" 
d="M199 344q-62 -367 307 -367q151 0 282 64l54 305q-88 -37 -154 -37q-55 0 -76.5 26t-11.5 85l66 375h258l55 313h-258l61 342l-719 -655h213z" />
    <glyph glyph-name="u" unicode="u" horiz-adv-x="1292" 
d="M70 383q-9 -50 -9 -96.5t9.5 -93.5t32.5 -85.5t58 -68.5t89.5 -47t124.5 -17q112 0 203.5 42t154.5 110l363 -152l198 1133h-389l-104 -600q-15 -88 -69 -137t-126 -49t-106 48.5t-19 137.5l105 600h-389z" />
    <glyph glyph-name="v" unicode="v" horiz-adv-x="1218" 
d="M686 -8l639 1116h-403l-326 -647l-100 647h-410l246 -1116h354z" />
    <glyph glyph-name="w" unicode="w" horiz-adv-x="1669" 
d="M457 1108h-381l141 -1116h334l287 575l77 -575h336l539 1116h-375l-248 -561l-71 565h-322l-270 -561z" />
    <glyph glyph-name="x" unicode="x" horiz-adv-x="1179" 
d="M377 559l-471 -559h409l226 285l121 -285h417l-274 561l461 547h-412l-211 -272l-117 272h-420z" />
    <glyph glyph-name="y" unicode="y" horiz-adv-x="1214" 
d="M86 1108l270 -1120l-155 -316h329l793 1436h-399l-334 -709l-96 709h-408z" />
    <glyph glyph-name="z" unicode="z" horiz-adv-x="1097" 
d="M504 309l608 543l45 256h-1010l-53 -309h494l-608 -543l-46 -256h1029l55 309h-514z" />
    <glyph glyph-name="braceleft" unicode="{" horiz-adv-x="950" 
d="M55 459q31 0 54.5 -1t51 -4t46.5 -9.5t39 -16t31 -25t19 -35.5t7.5 -48t-8.5 -62q-20 -92 -25 -161t0.5 -123t30.5 -92.5t58.5 -65.5t92.5 -47t122.5 -32.5t158.5 -25.5l43 240q-34 6 -60 15.5t-44.5 20t-30.5 26.5t-19 30.5t-8.5 36.5t-0.5 39.5t5.5 44.5t9 46.5
t12 50.5t11.5 52q44 207 -180 275q52 14 92.5 32.5t68 37t48.5 47t32.5 50t21 59.5t13.5 62.5t11 72t12 75.5q18 97 72 139.5t157 61.5l43 239q-214 -30 -316 -65q-245 -86 -288 -294q-1 -6 -2 -13q-6 -33 -11.5 -76t-9 -69t-10.5 -58.5t-15.5 -52t-24 -41.5t-37.5 -34.5
t-53.5 -23.5t-74.5 -15.5t-98 -4.5z" />
    <glyph glyph-name="bar" unicode="|" horiz-adv-x="1402" 
d="M1042 1634h-297l-335 -1896h297z" />
    <glyph glyph-name="braceright" unicode="}" horiz-adv-x="950" 
d="M911 717q-50 0 -88 4.5t-65.5 11.5t-45.5 20.5t-28.5 26.5t-14 35.5t-3.5 41.5t5.5 49.5t11 55t13.5 62.5t13 68q9 55 3.5 99t-24.5 78.5t-48 60.5t-65.5 45.5t-78 33.5t-86 24t-89 17.5t-86.5 13.5h-2l-43 -239q34 -6 60.5 -15.5t45 -20t30.5 -26.5t19 -30.5t8.5 -36.5
t1 -39t-5.5 -45t-9.5 -46.5t-12.5 -51t-12 -52.5q-44 -207 183 -274q-252 -68 -279 -275q-2 -16 -6 -52t-6 -51.5t-7.5 -46t-11 -45t-15.5 -39t-22 -37t-30 -29.5t-39.5 -27t-50.5 -19.5t-64 -15.5l-43 -240q67 9 113 16t110.5 22t109 33t95 48t84 67.5t61 90.5t38.5 118
q5 30 11 73t10 66t11 55.5t16 49t24.5 38t37 32t52.5 21t72.5 14.5t94.5 4z" />
    <glyph glyph-name="asciitilde" unicode="~" horiz-adv-x="1017" 
d="M803 821q-32 -52 -57 -73t-64 -21q-35 0 -84.5 20t-108 40t-114.5 20q-96 0 -164.5 -62.5t-128.5 -212.5l166 -81q30 51 55 72.5t64 21.5t140.5 -40t166.5 -40q186 0 291 266z" />
    <glyph glyph-name="uni00A0" unicode="&#xa0;" horiz-adv-x="573" 
 />
    <glyph glyph-name="exclamdown" unicode="&#xa1;" horiz-adv-x="698" 
d="M-35 -367h443l30 174l23 793h-205l-260 -793zM375 698q96 0 167.5 52t88.5 147t-36.5 146t-150.5 51q-38 0 -76 -10.5t-75 -32.5t-64.5 -61.5t-38.5 -92.5q-19 -94 34.5 -146.5t150.5 -52.5z" />
    <glyph glyph-name="cent" unicode="&#xa2;" horiz-adv-x="1024" 
d="M506 487q-103 73 -72 240q19 112 89 188.5t167 90.5zM1069 1235q-27 19 -68 33l62 178h-236l-49 -143q-167 0 -314.5 -77.5t-244 -208.5t-123.5 -290q-33 -186 46.5 -334t240.5 -205l-70 -200h236l57 166q172 9 295 75l60 340q-122 -116 -273 -116l195 544
q73 -16 127 -100z" />
    <glyph glyph-name="sterling" unicode="&#xa3;" horiz-adv-x="1224" 
d="M1040 539l50 278h-443l19 105q15 86 67 134t129 48q99 0 170 -92l307 239q-145 207 -440 207q-251 0 -417.5 -144t-211.5 -392l-18 -105h-154l-49 -278h154l-94 -539h995l55 313h-600l39 226h442z" />
    <glyph glyph-name="currency" unicode="&#xa4;" horiz-adv-x="1472" 
d="M1483 1147l-135 162l-220 -183q-116 80 -274 80q-156 0 -305 -82l-160 185l-188 -162l153 -186q-106 -123 -133 -287q-28 -163 35 -289l-223 -192l131 -162l231 192q119 -82 271 -82q149 0 299 80l159 -190l191 162l-154 186q109 133 137 295q27 156 -32 289zM477 674
q26 146 113.5 221.5t222.5 75.5q125 0 188 -85.5t41 -211.5t-116 -211.5t-219 -85.5t-188.5 85.5t-41.5 211.5z" />
    <glyph glyph-name="yen" unicode="&#xa5;" horiz-adv-x="1406" 
d="M487 436h-376l-45 -246h376l-32 -190h393l33 190h376l45 246h-376l37 103h356l45 245h-285l541 650h-442l-353 -471l-188 471h-451l314 -650h-283l-45 -245h356z" />
    <glyph glyph-name="brokenbar" unicode="&#xa6;" horiz-adv-x="1447" 
d="M1040 1366h-342l-125 -709h342zM862 354l-342 2l-127 -710h342z" />
    <glyph glyph-name="section" unicode="&#xa7;" horiz-adv-x="1216" 
d="M1081 1395q-133 65 -315 65q-226 0 -366.5 -90.5t-163.5 -224.5q-21 -126 81 -221q-109 -21 -171.5 -79.5t-75.5 -137.5q-11 -62 16 -113t87.5 -88t136 -63.5t173.5 -45.5q101 -23 143 -46t38 -52q-13 -61 -123 -61q-163 0 -312 120l-57 -321q141 -64 317 -64
q226 0 365 94.5t164 237.5q26 136 -80 205q102 13 167 74t79 143q9 52 -8 96t-52.5 75.5t-93 58.5t-119 44.5t-141.5 34.5q-101 21 -142 46.5t-36 58.5q10 55 119 55q165 0 315 -121zM494 834q35 0 97 -10t131 -27.5t115.5 -49t39.5 -67.5q-6 -32 -39.5 -56t-79.5 -24
q-41 0 -104.5 11t-129.5 30t-109.5 51t-37.5 68q6 33 38 53.5t79 20.5z" />
    <glyph glyph-name="dieresis" unicode="&#xa8;" horiz-adv-x="806" 
d="M365 1638q-31 0 -61 -8t-61.5 -26.5t-55 -54.5t-33.5 -85q-17 -83 26.5 -129.5t122.5 -46.5q78 0 137.5 46.5t73.5 129.5t-28.5 128.5t-120.5 45.5zM827 1638q-31 0 -61 -8t-61.5 -26.5t-55 -54.5t-33.5 -85q-17 -83 27 -129.5t123 -46.5q78 0 137.5 46.5t73.5 129.5
t-28.5 128.5t-121.5 45.5z" />
    <glyph glyph-name="copyright" unicode="&#xa9;" horiz-adv-x="1574" 
d="M78 719q-31 -178 1 -321t116 -235.5t209.5 -142t281.5 -49.5q140 0 267.5 39.5t227.5 109.5t179 164.5t129.5 206t71.5 232.5q27 148 -6.5 284t-114 236t-208 159.5t-280.5 59.5t-302.5 -60t-265.5 -160.5t-198 -237.5t-108 -285zM1475 723q-28 -159 -106.5 -288.5
t-185.5 -211.5t-231.5 -126t-251.5 -44q-121 0 -220 34t-165 95t-108.5 145t-50.5 183t8 209q31 178 143 329.5t279.5 241.5t351.5 90q183 0 317.5 -89t192.5 -239.5t27 -328.5zM1032 623q-97 -74 -198 -74q-72 0 -115.5 52t-30.5 126q12 74 74.5 125t140.5 51q92 0 158 -74
l47 265q-71 41 -174 41q-184 0 -335 -121t-179 -287q-29 -166 76.5 -288t279.5 -122q98 0 209 48z" />
    <glyph glyph-name="ordfeminine" unicode="&#xaa;" horiz-adv-x="724" 
d="M139 1036q-17 -97 35 -143.5t137 -46.5q108 0 193 78l-12 -66h213l61 348q24 138 -35.5 204.5t-216.5 66.5q-136 0 -254 -47l16 -152q90 35 175 35q62 0 87.5 -26.5t16.5 -74.5v-8q-54 23 -141 23q-113 0 -185 -47.5t-90 -143.5zM82 743l-29 -157h613l28 157h-612z
M535 1081q-10 -52 -46 -76t-79 -24q-32 0 -49.5 19.5t-12.5 50.5q6 32 36.5 52.5t74.5 20.5q40 0 80 -16z" />
    <glyph glyph-name="guillemotleft" unicode="&#xab;" horiz-adv-x="1345" 
d="M649 201l-205 348l328 350l-266 125l-440 -475l272 -473zM1212 201l-204 348l327 350l-266 125l-440 -475l272 -473z" />
    <glyph glyph-name="logicalnot" unicode="&#xac;" horiz-adv-x="1404" 
d="M1192 256l104 596h-1081l-49 -285h780l-55 -311h301z" />
    <glyph glyph-name="uni00AD" unicode="&#xad;" horiz-adv-x="759" 
d="M688 387l62 342h-672l-62 -342h672z" />
    <glyph glyph-name="registered" unicode="&#xae;" horiz-adv-x="1560" 
d="M944 1473q-217 0 -404 -96.5t-310 -266.5t-160 -383q-20 -102 -12.5 -197t33.5 -177.5t79 -151t124 -117t168.5 -75.5t213.5 -27q153 0 302.5 60t266 161t198.5 238t109 286q27 151 -6.5 288.5t-114 238t-207.5 160t-280 59.5zM690 63q-112 0 -203 26t-152 71.5t-105 108
t-62.5 136t-24 154.5t10.5 164q15 94 56.5 187.5t110.5 180.5t157.5 153.5t205.5 106.5t246 40q137 0 249.5 -52.5t182.5 -141.5t98.5 -210.5t5.5 -255.5q-33 -182 -145.5 -335t-279.5 -243t-351 -90zM557 1143l-137 -789h219l41 240h96l119 -240h252l-141 275
q82 33 135.5 95t68.5 146q23 123 -50.5 198t-235.5 75h-367zM711 764l32 190h142q55 0 83.5 -26t20.5 -68t-44.5 -69t-90.5 -27h-143z" />
    <glyph glyph-name="macron" unicode="&#xaf;" horiz-adv-x="884" 
d="M936 1186l43 239h-760l-43 -239h760z" />
    <glyph glyph-name="degree" unicode="&#xb0;" horiz-adv-x="870" 
d="M479 805q177 0 297 104t142 260q23 156 -68.5 259.5t-241.5 103.5q-158 0 -283.5 -106t-152.5 -257q-26 -149 64.5 -256.5t242.5 -107.5zM575 1343q27 0 52.5 -7.5t50.5 -25.5t36 -54t3 -87q-11 -72 -70.5 -124t-132.5 -52t-114 51.5t-27 124.5q12 75 68.5 124.5
t133.5 49.5z" />
    <glyph glyph-name="plusminus" unicode="&#xb1;" horiz-adv-x="1302" 
d="M233 926l-47 -264h353l-54 -308h273l53 308h346l47 264h-346l51 295h-272l-51 -295h-353zM117 264l-47 -264h970l47 264h-970z" />
    <glyph glyph-name="uni00B2" unicode="&#xb2;" horiz-adv-x="880" 
d="M43 584h782l37 207l-325 -17l90 53q123 74 199.5 157.5t95.5 191.5q16 87 -23.5 155t-114 102.5t-166.5 34.5q-176 0 -279.5 -83.5t-145.5 -247.5h264q9 54 38 92.5t83 38.5q44 0 65.5 -29t13.5 -74q-17 -103 -244 -278q-8 -7 -12 -10z" />
    <glyph glyph-name="uni00B3" unicode="&#xb3;" horiz-adv-x="815" 
d="M78 868q-18 -143 73 -220t250 -77q97 0 184 28.5t153.5 93t82.5 155.5q12 67 -14.5 122.5t-87.5 84.5q54 26 89 73t44 103q14 78 -25.5 135.5t-108 84t-151.5 26.5q-138 0 -249 -70t-146 -201h256q5 35 30.5 61.5t69.5 26.5q36 0 54 -23t12 -59q-7 -41 -39 -66.5
t-72 -25.5h-24l-25 -149q8 0 23.5 1t23.5 1q45 0 70 -27.5t16 -73.5q-9 -51 -46 -83.5t-85 -32.5q-53 0 -78.5 31.5t-17.5 80.5h-262z" />
    <glyph glyph-name="acute" unicode="&#xb4;" horiz-adv-x="550" 
d="M414 1640l-279 -378h275l346 262z" />
    <glyph glyph-name="uni00B5" unicode="&#xb5;" horiz-adv-x="1298" 
d="M332 -328h-389l252 1436h389l-105 -600q-17 -89 18 -137.5t107 -48.5q71 0 124.5 49t70.5 137l104 600h389l-194 -1108l-363 152q-95 -177 -207 -177q-48 0 -82 29t-45 70z" />
    <glyph glyph-name="paragraph" unicode="&#xb6;" horiz-adv-x="1312" 
d="M332 -231h229l260 1468h127l-260 -1468h230l260 1468h112l35 209h-610q-226 0 -367.5 -111.5t-175.5 -306.5q-30 -166 57.5 -271t253.5 -126z" />
    <glyph glyph-name="periodcentered" unicode="&#xb7;" horiz-adv-x="714" 
d="M436 999q-28 0 -55.5 -4.5t-63 -19.5t-63.5 -38.5t-52 -65t-34 -95.5q-21 -107 32.5 -166t155.5 -59t177.5 59t95.5 166q20 106 -35 164.5t-158 58.5z" />
    <glyph glyph-name="cedilla" unicode="&#xb8;" horiz-adv-x="761" 
d="M301 -139l111 139h-144l-182 -225l53 -54q53 21 97 21q37 0 55 -13t14 -38q-4 -29 -42.5 -44.5t-76.5 -15.5q-74 0 -141 33l-74 -115q100 -53 213 -53q46 0 90.5 10t87.5 31.5t74 61.5t41 94q13 79 -36.5 123.5t-123.5 44.5h-16z" />
    <glyph glyph-name="uni00B9" unicode="&#xb9;" horiz-adv-x="710" 
d="M236 584h262l153 866l-186 -4q-49 0 -127 -2t-84 -2l-37 -209q26 1 66.5 2t66.5 2z" />
    <glyph glyph-name="ordmasculine" unicode="&#xba;" horiz-adv-x="757" 
d="M156 1165q-13 -78 2.5 -139t54 -99.5t94 -58.5t123.5 -20q143 0 255 93.5t136 225.5q22 132 -55.5 224t-218.5 92t-254 -93.5t-137 -224.5zM121 750l-29 -158h590l29 158h-590zM610 1165q-11 -66 -52.5 -100.5t-90.5 -34.5q-54 0 -82.5 40t-17.5 97q9 57 49 95t94 38
q55 0 83 -39.5t17 -95.5z" />
    <glyph glyph-name="guillemotright" unicode="&#xbb;" horiz-adv-x="1349" 
d="M340 549l-328 -348l271 -125l436 473l-273 475l-311 -125zM905 549l-327 -348l270 -125l436 473l-272 475l-312 -125z" />
    <glyph glyph-name="onequarter" unicode="&#xbc;" horiz-adv-x="1744" 
d="M1128 344q16 19 104.5 121t129.5 158q2 -2 6 -2l-4 -13q-11 -34 -21.5 -83.5t-20.5 -110t-11 -68.5q-59 0 -90 -2q-62 0 -93 -2v2zM834 162q146 0 446 4l-35 -164h248l25 164q78 -4 110 -4l35 188l-111 -4l95 531h-287l-500 -566zM360 -211l1242 1897h-316l-1241 -1897
h315zM174 584h262l154 866l-187 -4q-49 0 -126.5 -2t-83.5 -2l-37 -209q26 1 66.5 2t66.5 2z" />
    <glyph glyph-name="onehalf" unicode="&#xbd;" horiz-adv-x="1849" 
d="M303 -211l1241 1897h-315l-1241 -1897h315zM236 584h262l153 866l-186 -4q-49 0 -127 -2t-84 -2l-37 -209q26 1 66.5 2t66.5 2zM858 -2h782l37 207l-325 -17l90 54q123 74 199.5 157.5t95.5 190.5q16 87 -23 155t-113.5 103t-166.5 35q-176 0 -280 -84t-146 -248h264
q9 54 38 92.5t83 38.5q44 0 66 -28.5t14 -73.5q-5 -30 -26.5 -65t-42.5 -59.5t-63 -62.5t-57 -50t-57 -44q-7 -5 -10 -8z" />
    <glyph glyph-name="threequarters" unicode="&#xbe;" horiz-adv-x="2072" 
d="M115 868q-18 -143 73 -220t250 -77q97 0 184 28.5t153.5 93t82.5 155.5q12 67 -14.5 122.5t-87.5 84.5q54 26 89 73t44 103q14 78 -25.5 135.5t-108 84t-151.5 26.5q-138 0 -249 -70t-146 -201h256q5 35 30.5 61.5t69.5 26.5q36 0 54 -23t12 -59q-7 -41 -39 -66.5
t-72 -25.5h-24l-25 -149q8 0 23.5 1t23.5 1q45 0 70 -27.5t16 -73.5q-9 -51 -46 -83.5t-85 -32.5q-53 0 -78.5 31.5t-17.5 80.5h-262zM557 -211l1241 1897h-315l-1241 -1897h315zM1333 344q16 19 104.5 121t129.5 158q2 -2 6 -2l-4 -13q-11 -34 -21.5 -83.5t-20.5 -110
t-11 -68.5q-60 0 -91 -2q-61 0 -92 -2v2zM1038 162q147 0 447 4l-35 -164h248l24 164q78 -4 111 -4l35 188l-111 -4l94 531h-286l-500 -566z" />
    <glyph glyph-name="questiondown" unicode="&#xbf;" horiz-adv-x="1073" 
d="M924 131q-236 -188 -400 -188q-66 0 -110.5 27.5t-34.5 80.5q12 71 135 158q35 24 60 43.5t56 50t52.5 61.5t40 73.5t27.5 90.5l16 88h-356l-13 -63q-10 -57 -32.5 -86t-83.5 -70q-56 -38 -87.5 -61.5t-72 -60t-63.5 -69.5t-43.5 -79t-30.5 -100q-23 -129 29 -225.5
t151.5 -143.5t228.5 -47q288 0 473 196zM586 694q40 0 76.5 9t74 29t65 61t38.5 98q18 95 -35 147t-150 52q-96 0 -167.5 -52t-88.5 -147t36.5 -146t150.5 -51z" />
    <glyph glyph-name="Agrave" unicode="&#xc0;" horiz-adv-x="1570" 
d="M453 256h553l59 -256h426l-356 1444h-383l-865 -1444h418zM625 565l233 408l88 -408h-321zM586 1862l256 -263h274l-147 379z" />
    <glyph glyph-name="Aacute" unicode="&#xc1;" horiz-adv-x="1570" 
d="M453 256h553l59 -256h426l-356 1444h-383l-865 -1444h418zM625 565l233 408l88 -408h-321zM1159 1978l-278 -379h274l346 263z" />
    <glyph glyph-name="Acircumflex" unicode="&#xc2;" horiz-adv-x="1570" 
d="M453 256h553l59 -256h426l-356 1444h-383l-865 -1444h418zM625 565l233 408l88 -408h-321zM1352 1593l-219 381h-203l-355 -381h269l143 125l98 -125h267z" />
    <glyph glyph-name="Atilde" unicode="&#xc3;" horiz-adv-x="1570" 
d="M453 256h553l59 -256h426l-356 1444h-383l-865 -1444h418zM625 565l233 408l88 -408h-321zM782 1544q26 55 44.5 75.5t41.5 20.5q22 0 96 -35.5t128 -35.5q174 0 311 297l-203 39q-40 -93 -80 -93q-21 0 -98.5 36t-132.5 36q-176 0 -311 -303z" />
    <glyph glyph-name="Adieresis" unicode="&#xc4;" horiz-adv-x="1570" 
d="M453 256h553l59 -256h426l-356 1444h-383l-865 -1444h418zM625 565l233 408l88 -408h-321zM807 1976q-31 0 -61 -8t-61.5 -26.5t-55 -54.5t-33.5 -85q-17 -83 26.5 -129.5t122.5 -46.5q78 0 137.5 46.5t73.5 129.5t-28.5 128.5t-120.5 45.5zM1270 1976q-31 0 -61 -8
t-61.5 -26.5t-55 -54.5t-33.5 -85q-17 -83 26.5 -129.5t122.5 -46.5q78 0 137.5 46.5t73.5 129.5t-28.5 128.5t-120.5 45.5z" />
    <glyph glyph-name="Aring" unicode="&#xc5;" horiz-adv-x="1570" 
d="M453 256h553l59 -256h426l-356 1444h-383l-865 -1444h418zM625 565l233 408l88 -408h-321zM938 1358q108 0 189 70t100 178q17 101 -45 172t-166 71q-101 0 -189.5 -72t-107.5 -173q-19 -103 46 -174.5t173 -71.5zM981 1653q20 0 31.5 -14.5t7.5 -34.5
q-3 -23 -18.5 -36.5t-38.5 -13.5q-20 0 -30.5 14.5t-6.5 37.5q3 19 19 33t36 14z" />
    <glyph glyph-name="AE" unicode="&#xc6;" horiz-adv-x="2062" 
d="M750 1434l-863 -1434h418l166 256h389l-45 -256h1167l60 338h-774l41 227h692l55 314h-692l37 217h764l59 338h-1474zM915 565h-272l383 627z" />
    <glyph glyph-name="Ccedilla" unicode="&#xc7;" horiz-adv-x="1361" 
d="M1266 508q-219 -174 -437 -174q-178 0 -261.5 109t-53.5 278q29 162 152 270.5t299 108.5q117 0 211.5 -46t152.5 -122l72 403q-159 127 -410 127q-213 0 -404 -98.5t-318.5 -269t-164.5 -377.5q-37 -210 32 -381.5t221.5 -268t355.5 -96.5q255 0 483 140zM662 -139
l110 139h-143l-183 -225l54 -54q52 21 96 21q37 0 55.5 -13.5t14.5 -37.5q-4 -29 -42.5 -44.5t-76.5 -15.5q-74 0 -141 33l-74 -115q100 -53 213 -53q46 0 90.5 10t87.5 31.5t74 61.5t41 94q13 79 -36.5 123.5t-123.5 44.5h-16z" />
    <glyph glyph-name="Egrave" unicode="&#xc8;" horiz-adv-x="1382" 
d="M475 338l41 227h688l56 314h-689l37 217h760l59 338h-1153l-251 -1434h1163l59 338h-770zM535 1862l256 -263h274l-147 379z" />
    <glyph glyph-name="Eacute" unicode="&#xc9;" horiz-adv-x="1382" 
d="M475 338l41 227h688l56 314h-689l37 217h760l59 338h-1153l-251 -1434h1163l59 338h-770zM967 1978l-279 -379h275l346 263z" />
    <glyph glyph-name="Ecircumflex" unicode="&#xca;" horiz-adv-x="1382" 
d="M475 338l41 227h688l56 314h-689l37 217h760l59 338h-1153l-251 -1434h1163l59 338h-770zM1280 1593l-219 381h-203l-354 -381h268l143 125l99 -125h266z" />
    <glyph glyph-name="Edieresis" unicode="&#xcb;" horiz-adv-x="1382" 
d="M475 338l41 227h688l56 314h-689l37 217h760l59 338h-1153l-251 -1434h1163l59 338h-770zM709 1976q-31 0 -61 -8t-61.5 -26.5t-55 -54.5t-33.5 -85q-17 -83 26.5 -129.5t122.5 -46.5q78 0 137.5 46.5t73.5 129.5t-28.5 128.5t-120.5 45.5zM1171 1976q-31 0 -61 -8
t-61 -26.5t-54.5 -54.5t-33.5 -85q-17 -83 26.5 -129.5t122.5 -46.5q78 0 137.5 46.5t73.5 129.5t-28.5 128.5t-121.5 45.5z" />
    <glyph glyph-name="Igrave" unicode="&#xcc;" horiz-adv-x="636" 
d="M422 0l252 1434h-400l-251 -1434h399zM119 1862l256 -263h274l-147 379z" />
    <glyph glyph-name="Iacute" unicode="&#xcd;" horiz-adv-x="636" 
d="M422 0l252 1434h-400l-251 -1434h399zM610 1978l-278 -379h274l346 263z" />
    <glyph glyph-name="Icircumflex" unicode="&#xce;" horiz-adv-x="636" 
d="M422 0l252 1434h-400l-251 -1434h399zM901 1593l-219 381h-203l-354 -381h268l144 125l98 -125h266z" />
    <glyph glyph-name="Idieresis" unicode="&#xcf;" horiz-adv-x="636" 
d="M422 0l252 1434h-400l-251 -1434h399zM340 1976q-31 0 -61 -8t-61.5 -26.5t-55 -54.5t-33.5 -85q-17 -83 27 -129.5t123 -46.5q78 0 137 46.5t73 129.5t-28.5 128.5t-120.5 45.5zM803 1976q-31 0 -61 -8t-61.5 -26.5t-55 -54.5t-33.5 -85q-17 -83 26.5 -129.5
t122.5 -46.5q78 0 137.5 46.5t73.5 129.5t-28.5 128.5t-120.5 45.5z" />
    <glyph glyph-name="Eth" unicode="&#xd0;" horiz-adv-x="1605" 
d="M322 1434l-252 -1434h544q190 0 355 55t285 152t199 230t106 288q37 209 -29 368t-235 250t-421 91h-552zM528 352l129 729h162q180 0 271 -96.5t61 -265.5q-30 -171 -155 -269t-306 -98h-162zM680 510l59 342h-671l-60 -342h672z" />
    <glyph glyph-name="Ntilde" unicode="&#xd1;" horiz-adv-x="1593" 
d="M1102 676l-457 758h-371l-251 -1434h393l139 786l473 -786h348l252 1434h-393zM788 1544q26 55 44.5 75.5t41.5 20.5q22 0 96 -35.5t128 -35.5q174 0 311 297l-203 39q-40 -93 -80 -93q-21 0 -98.5 36t-132.5 36q-176 0 -311 -303z" />
    <glyph glyph-name="Ograve" unicode="&#xd2;" horiz-adv-x="1695" 
d="M743 -29q148 0 280 39t233.5 107t181.5 160.5t131.5 199t75.5 223.5q24 130 10 244.5t-69 209.5t-137.5 163.5t-196 106.5t-244.5 38q-217 0 -412.5 -100t-325.5 -270.5t-166 -374.5q-27 -152 7.5 -290t118 -238t217 -159t296.5 -59zM942 1104q91 0 158 -33t99.5 -87
t45 -123.5t-3.5 -143.5q-27 -158 -150.5 -272.5t-283.5 -114.5q-104 0 -179 54.5t-104.5 144t-11.5 192.5q28 159 149.5 271t280.5 112zM633 1862l256 -263h274l-147 379z" />
    <glyph glyph-name="Oacute" unicode="&#xd3;" horiz-adv-x="1695" 
d="M743 -29q148 0 280 39t233.5 107t181.5 160.5t131.5 199t75.5 223.5q24 130 10 244.5t-69 209.5t-137.5 163.5t-196 106.5t-244.5 38q-217 0 -412.5 -100t-325.5 -270.5t-166 -374.5q-27 -152 7.5 -290t118 -238t217 -159t296.5 -59zM942 1104q91 0 158 -33t99.5 -87
t45 -123.5t-3.5 -143.5q-27 -158 -150.5 -272.5t-283.5 -114.5q-104 0 -179 54.5t-104.5 144t-11.5 192.5q28 159 149.5 271t280.5 112zM1280 1978l-279 -379h275l346 263z" />
    <glyph glyph-name="Ocircumflex" unicode="&#xd4;" horiz-adv-x="1695" 
d="M743 -29q148 0 280 39t233.5 107t181.5 160.5t131.5 199t75.5 223.5q24 130 10 244.5t-69 209.5t-137.5 163.5t-196 106.5t-244.5 38q-217 0 -412.5 -100t-325.5 -270.5t-166 -374.5q-27 -152 7.5 -290t118 -238t217 -159t296.5 -59zM942 1104q91 0 158 -33t99.5 -87
t45 -123.5t-3.5 -143.5q-27 -158 -150.5 -272.5t-283.5 -114.5q-104 0 -179 54.5t-104.5 144t-11.5 192.5q28 159 149.5 271t280.5 112zM1456 1593l-219 381h-203l-354 -381h268l144 125l98 -125h266z" />
    <glyph glyph-name="Otilde" unicode="&#xd5;" horiz-adv-x="1695" 
d="M743 -29q148 0 280 39t233.5 107t181.5 160.5t131.5 199t75.5 223.5q24 130 10 244.5t-69 209.5t-137.5 163.5t-196 106.5t-244.5 38q-217 0 -412.5 -100t-325.5 -270.5t-166 -374.5q-27 -152 7.5 -290t118 -238t217 -159t296.5 -59zM942 1104q91 0 158 -33t99.5 -87
t45 -123.5t-3.5 -143.5q-27 -158 -150.5 -272.5t-283.5 -114.5q-104 0 -179 54.5t-104.5 144t-11.5 192.5q28 159 149.5 271t280.5 112zM946 1544q26 55 44.5 75.5t41.5 20.5q22 0 57.5 -18t79.5 -35.5t86 -17.5q175 0 312 297l-203 39q-40 -93 -80 -93q-21 0 -98.5 36
t-132.5 36q-177 0 -312 -303z" />
    <glyph glyph-name="Odieresis" unicode="&#xd6;" horiz-adv-x="1695" 
d="M743 -29q148 0 280 39t233.5 107t181.5 160.5t131.5 199t75.5 223.5q24 130 10 244.5t-69 209.5t-137.5 163.5t-196 106.5t-244.5 38q-217 0 -412.5 -100t-325.5 -270.5t-166 -374.5q-27 -152 7.5 -290t118 -238t217 -159t296.5 -59zM942 1104q91 0 158 -33t99.5 -87
t45 -123.5t-3.5 -143.5q-27 -158 -150.5 -272.5t-283.5 -114.5q-104 0 -179 54.5t-104.5 144t-11.5 192.5q28 159 149.5 271t280.5 112zM950 1976q-31 0 -61 -8t-61.5 -26.5t-55 -54.5t-33.5 -85q-17 -83 27 -129.5t123 -46.5q78 0 137.5 46.5t73.5 129.5t-28.5 128.5
t-121.5 45.5zM1413 1976q-31 0 -61 -8t-61.5 -26.5t-55 -54.5t-33.5 -85q-17 -83 27 -129.5t123 -46.5q78 0 137.5 46.5t73.5 129.5t-28.5 128.5t-121.5 45.5z" />
    <glyph glyph-name="multiply" unicode="&#xd7;" horiz-adv-x="1433" 
d="M535 717l-377 -318l180 -215l373 318l260 -318l252 215l-258 318l370 317l-176 215l-373 -317l-260 317l-256 -215z" />
    <glyph glyph-name="Oslash" unicode="&#xd8;" horiz-adv-x="1675" 
d="M180 -119l217 -143l164 252q101 -19 172 -19q162 0 316.5 59.5t274.5 160.5t203.5 239.5t110.5 290.5q32 185 -21 340t-183 260l108 170l-217 143l-129 -196q-94 24 -199 24q-163 0 -317 -59t-273.5 -159t-202.5 -237.5t-110 -289.5q-35 -193 25 -354t198 -267zM551 453
q-76 105 -49 268q28 162 150 272.5t280 110.5q29 0 43 -2zM1194 956q59 -102 37 -239q-17 -91 -69 -174t-135 -141t-177 -68q-36 -4 -66 -4z" />
    <glyph glyph-name="Ugrave" unicode="&#xd9;" horiz-adv-x="1552" 
d="M121 629q-21 -106 -18.5 -192.5t19 -154.5t53.5 -119.5t84.5 -87.5t112.5 -58.5t138 -33t160 -10.5q336 0 531.5 161.5t256.5 504.5l139 795h-403l-141 -807q-53 -295 -316 -295q-146 0 -193 72.5t-18 232.5l140 797h-404zM586 1862l256 -263h274l-147 379z" />
    <glyph glyph-name="Uacute" unicode="&#xda;" horiz-adv-x="1552" 
d="M121 629q-21 -106 -18.5 -192.5t19 -154.5t53.5 -119.5t84.5 -87.5t112.5 -58.5t138 -33t160 -10.5q336 0 531.5 161.5t256.5 504.5l139 795h-403l-141 -807q-53 -295 -316 -295q-146 0 -193 72.5t-18 232.5l140 797h-404zM1092 1978l-279 -379h274l347 263z" />
    <glyph glyph-name="Ucircumflex" unicode="&#xdb;" horiz-adv-x="1552" 
d="M121 629q-21 -106 -18.5 -192.5t19 -154.5t53.5 -119.5t84.5 -87.5t112.5 -58.5t138 -33t160 -10.5q336 0 531.5 161.5t256.5 504.5l139 795h-403l-141 -807q-53 -295 -316 -295q-146 0 -193 72.5t-18 232.5l140 797h-404zM1343 1593l-219 381h-202l-355 -381h269
l143 125l98 -125h266z" />
    <glyph glyph-name="Udieresis" unicode="&#xdc;" horiz-adv-x="1552" 
d="M121 629q-21 -106 -18.5 -192.5t19 -154.5t53.5 -119.5t84.5 -87.5t112.5 -58.5t138 -33t160 -10.5q336 0 531.5 161.5t256.5 504.5l139 795h-403l-141 -807q-53 -295 -316 -295q-146 0 -193 72.5t-18 232.5l140 797h-404zM793 1976q-31 0 -61 -8t-61.5 -26.5t-55 -54.5
t-33.5 -85q-17 -83 26.5 -129.5t122.5 -46.5q78 0 137.5 46.5t73.5 129.5t-28.5 128.5t-120.5 45.5zM1255 1976q-31 0 -61 -8t-61.5 -26.5t-55 -54.5t-33.5 -85q-17 -83 27 -129.5t123 -46.5q78 0 137.5 46.5t73.5 129.5t-28.5 128.5t-121.5 45.5z" />
    <glyph glyph-name="Yacute" unicode="&#xdd;" horiz-adv-x="1460" 
d="M834 0l96 543l700 891h-444l-389 -523l-203 523h-453l387 -897l-94 -537h400zM1053 1978l-279 -379h275l346 263z" />
    <glyph glyph-name="Thorn" unicode="&#xde;" horiz-adv-x="1234" 
d="M276 1446l-253 -1446h393l49 276h205q223 0 368.5 121.5t184.5 345.5q22 126 -1 221.5t-86.5 154t-156.5 87.5t-215 29h-131l37 211h-394zM518 575l60 345h51q25 0 45 -1t42 -4t37.5 -8t32 -13.5t24.5 -21t16.5 -29.5t7 -39t-4.5 -50q-10 -56 -32.5 -92.5t-58 -55
t-74 -25t-91.5 -6.5h-55z" />
    <glyph glyph-name="germandbls" unicode="&#xdf;" horiz-adv-x="1214" 
d="M479 989q17 94 72 146.5t127 52.5q64 0 95.5 -41.5t19.5 -112.5q-13 -72 -69.5 -128t-137.5 -91l-37 -207q104 -8 158.5 -52.5t42.5 -117.5q-13 -73 -83.5 -117t-177.5 -49l-49 -278q101 -11 209.5 7.5t209.5 64t175 132t94 199.5q13 71 -1.5 131t-49.5 101.5t-78.5 70
t-95.5 45.5q107 48 180.5 133t94.5 207q33 183 -86 305.5t-351 122.5q-266 0 -436.5 -144t-214.5 -388l-172 -981h387z" />
    <glyph glyph-name="agrave" unicode="&#xe0;" horiz-adv-x="1251" 
d="M717 285q-93 -66 -191 -66q-61 0 -98 36.5t-27 92.5q9 57 64 95t139 38q83 0 141 -28zM1157 637q42 243 -69 365t-394 122q-126 0 -231 -21.5t-223 -64.5l-47 -274q176 63 346 63q139 0 200.5 -44.5t40.5 -137.5l-4 -18q-110 43 -262 43q-198 0 -333 -90.5t-163 -257.5
q-14 -81 3 -147t60.5 -109.5t108.5 -67t146 -23.5q198 0 348 140l356 -140zM360 1524l256 -262h275l-148 378z" />
    <glyph glyph-name="aacute" unicode="&#xe1;" horiz-adv-x="1251" 
d="M717 285q-93 -66 -191 -66q-61 0 -98 36.5t-27 92.5q9 57 64 95t139 38q83 0 141 -28zM1157 637q42 243 -69 365t-394 122q-126 0 -231 -21.5t-223 -64.5l-47 -274q176 63 346 63q139 0 200.5 -44.5t40.5 -137.5l-4 -18q-110 43 -262 43q-198 0 -333 -90.5t-163 -257.5
q-14 -81 3 -147t60.5 -109.5t108.5 -67t146 -23.5q198 0 348 140l356 -140zM903 1640l-278 -378h274l346 262z" />
    <glyph glyph-name="acircumflex" unicode="&#xe2;" horiz-adv-x="1251" 
d="M717 285q-93 -66 -191 -66q-61 0 -98 36.5t-27 92.5q9 57 64 95t139 38q83 0 141 -28zM1157 637q42 243 -69 365t-394 122q-126 0 -231 -21.5t-223 -64.5l-47 -274q176 63 346 63q139 0 200.5 -44.5t40.5 -137.5l-4 -18q-110 43 -262 43q-198 0 -333 -90.5t-163 -257.5
q-14 -81 3 -147t60.5 -109.5t108.5 -67t146 -23.5q198 0 348 140l356 -140zM1149 1255l-219 381h-203l-354 -381h268l143 125l99 -125h266z" />
    <glyph glyph-name="atilde" unicode="&#xe3;" horiz-adv-x="1251" 
d="M717 285q-93 -66 -191 -66q-61 0 -98 36.5t-27 92.5q9 57 64 95t139 38q83 0 141 -28zM1157 637q42 243 -69 365t-394 122q-126 0 -231 -21.5t-223 -64.5l-47 -274q176 63 346 63q139 0 200.5 -44.5t40.5 -137.5l-4 -18q-110 43 -262 43q-198 0 -333 -90.5t-163 -257.5
q-14 -81 3 -147t60.5 -109.5t108.5 -67t146 -23.5q198 0 348 140l356 -140zM590 1206q26 56 44.5 76.5t41.5 20.5q22 0 57.5 -18t79.5 -36t86 -18q174 0 311 297l-202 39q-39 -92 -80 -92q-21 0 -99 35.5t-133 35.5q-176 0 -311 -303z" />
    <glyph glyph-name="adieresis" unicode="&#xe4;" horiz-adv-x="1251" 
d="M717 285q-93 -66 -191 -66q-61 0 -98 36.5t-27 92.5q9 57 64 95t139 38q83 0 141 -28zM1157 637q42 243 -69 365t-394 122q-126 0 -231 -21.5t-223 -64.5l-47 -274q176 63 346 63q139 0 200.5 -44.5t40.5 -137.5l-4 -18q-110 43 -262 43q-198 0 -333 -90.5t-163 -257.5
q-14 -81 3 -147t60.5 -109.5t108.5 -67t146 -23.5q198 0 348 140l356 -140zM608 1638q-83 0 -141.5 -51t-69.5 -123q-13 -83 29.5 -129.5t120.5 -46.5t137.5 46.5t73.5 129.5t-28.5 128.5t-121.5 45.5zM1071 1638q-83 0 -141.5 -51t-69.5 -123q-13 -83 29.5 -129.5
t120.5 -46.5t137.5 46.5t73.5 129.5t-28.5 128.5t-121.5 45.5z" />
    <glyph glyph-name="aring" unicode="&#xe5;" horiz-adv-x="1251" 
d="M717 285q-93 -66 -191 -66q-61 0 -98 36.5t-27 92.5q9 57 64 95t139 38q83 0 141 -28zM1157 637q42 243 -69 365t-394 122q-126 0 -231 -21.5t-223 -64.5l-47 -274q176 63 346 63q139 0 200.5 -44.5t40.5 -137.5l-4 -18q-110 43 -262 43q-198 0 -333 -90.5t-163 -257.5
q-14 -81 3 -147t60.5 -109.5t108.5 -67t146 -23.5q198 0 348 140l356 -140zM735 1176q123 0 201.5 68t97.5 179q15 102 -46 173t-165 71q-101 0 -189.5 -72t-107.5 -174q-18 -103 44.5 -174t164.5 -71zM788 1470q48 0 39 -49q-3 -23 -18.5 -36t-38.5 -13q-21 0 -31 14t-6 37
q3 19 19 33t36 14z" />
    <glyph glyph-name="ae" unicode="&#xe6;" horiz-adv-x="1970" 
d="M1769 389q-182 -141 -458 -141q-116 0 -174 55l759 189q15 100 12 192t-36 172t-86 139t-137 93t-189 34q-210 0 -381 -116q-112 118 -391 118q-228 0 -455 -86l-47 -274q176 63 346 63q140 0 201.5 -44.5t40.5 -137.5l-4 -18q-110 43 -262 43q-89 0 -168.5 -19t-148 -59
t-116 -109t-63.5 -161q-28 -160 91 -253.5t319 -93.5q133 0 239 27.5t234 95.5q133 -133 360 -133q117 0 238 31t223 90zM711 285q-93 -66 -191 -66q-61 0 -98 36.5t-27 92.5q9 57 64 95t139 38q83 0 141 -28zM1151 557q6 66 33.5 127t81 105.5t120.5 44.5q72 0 113.5 -47.5
t44.5 -133.5z" />
    <glyph glyph-name="ccedilla" unicode="&#xe7;" horiz-adv-x="968" 
d="M981 1100q-77 30 -225 30q-171 0 -322 -79.5t-249 -211t-124 -286.5q-21 -117 5.5 -224t91 -185t166.5 -124.5t225 -46.5q138 0 250 39l63 363q-102 -74 -215 -74q-106 0 -166.5 73.5t-40.5 178.5q19 106 100.5 178t188.5 72q104 0 186 -76zM469 -139l111 139h-144
l-182 -225l53 -54q53 21 96 21q37 0 55.5 -13.5t14.5 -37.5q-4 -29 -42.5 -44.5t-76.5 -15.5q-74 0 -141 33l-74 -115q100 -53 213 -53q46 0 90.5 10t87.5 31.5t74 61.5t41 94q13 79 -36.5 123.5t-123.5 44.5h-16z" />
    <glyph glyph-name="egrave" unicode="&#xe8;" horiz-adv-x="1247" 
d="M1051 389q-93 -72 -224 -106.5t-235 -34.5q-116 0 -174 55l760 189q17 82 13 161t-20.5 149t-54 129t-89 101t-125 66t-161.5 24q-166 0 -311 -74t-242.5 -204.5t-126.5 -292.5q-22 -125 1.5 -233.5t85.5 -186t162.5 -122t226.5 -44.5q105 0 228 29t232 92zM432 563
q0 99 68 185t168 86q72 0 113 -47.5t44 -133.5l-393 -96v6zM289 1524l256 -262h274l-147 378z" />
    <glyph glyph-name="eacute" unicode="&#xe9;" horiz-adv-x="1247" 
d="M1051 389q-93 -72 -224 -106.5t-235 -34.5q-116 0 -174 55l760 189q17 82 13 161t-20.5 149t-54 129t-89 101t-125 66t-161.5 24q-166 0 -311 -74t-242.5 -204.5t-126.5 -292.5q-22 -125 1.5 -233.5t85.5 -186t162.5 -122t226.5 -44.5q105 0 228 29t232 92zM432 563
q0 99 68 185t168 86q72 0 113 -47.5t44 -133.5l-393 -96v6zM944 1640l-278 -378h274l346 262z" />
    <glyph glyph-name="ecircumflex" unicode="&#xea;" horiz-adv-x="1247" 
d="M1051 389q-93 -72 -224 -106.5t-235 -34.5q-116 0 -174 55l760 189q17 82 13 161t-20.5 149t-54 129t-89 101t-125 66t-161.5 24q-166 0 -311 -74t-242.5 -204.5t-126.5 -292.5q-22 -125 1.5 -233.5t85.5 -186t162.5 -122t226.5 -44.5q105 0 228 29t232 92zM432 563
q0 99 68 185t168 86q72 0 113 -47.5t44 -133.5l-393 -96v6zM1141 1255l-219 381h-203l-354 -381h268l143 125l98 -125h267z" />
    <glyph glyph-name="edieresis" unicode="&#xeb;" horiz-adv-x="1247" 
d="M1051 389q-93 -72 -224 -106.5t-235 -34.5q-116 0 -174 55l760 189q17 82 13 161t-20.5 149t-54 129t-89 101t-125 66t-161.5 24q-166 0 -311 -74t-242.5 -204.5t-126.5 -292.5q-22 -125 1.5 -233.5t85.5 -186t162.5 -122t226.5 -44.5q105 0 228 29t232 92zM432 563
q0 99 68 185t168 86q72 0 113 -47.5t44 -133.5l-393 -96v6zM573 1638q-83 0 -141.5 -51t-69.5 -123q-13 -83 29.5 -129.5t120.5 -46.5t137.5 46.5t73.5 129.5t-28.5 128.5t-121.5 45.5zM1036 1638q-83 0 -141.5 -51t-69.5 -123q-13 -83 29.5 -129.5t120.5 -46.5t137.5 46.5
t73.5 129.5t-28.5 128.5t-121.5 45.5z" />
    <glyph glyph-name="igrave" unicode="&#xec;" horiz-adv-x="636" 
d="M424 0l194 1108h-389l-194 -1108h389zM86 1524l256 -262h274l-147 378z" />
    <glyph glyph-name="iacute" unicode="&#xed;" horiz-adv-x="675" 
d="M424 0l194 1108h-389l-194 -1108h389zM567 1640l-278 -378h274l346 262z" />
    <glyph glyph-name="icircumflex" unicode="&#xee;" horiz-adv-x="600" 
d="M397 0l195 1108h-389l-195 -1108h389zM807 1255l-219 381h-203l-354 -381h268l143 125l99 -125h266z" />
    <glyph glyph-name="idieresis" unicode="&#xef;" horiz-adv-x="614" 
d="M406 0l194 1108h-389l-195 -1108h390zM270 1638q-83 0 -141.5 -51t-69.5 -123q-13 -83 29.5 -129.5t120.5 -46.5t137.5 46.5t73.5 129.5t-28.5 128.5t-121.5 45.5zM733 1638q-83 0 -141.5 -51t-69.5 -123q-13 -83 29.5 -129.5t120.5 -46.5t137.5 46.5t73.5 129.5
t-28.5 128.5t-121.5 45.5z" />
    <glyph glyph-name="eth" unicode="&#xf0;" horiz-adv-x="1234" 
d="M371 1450q9 -8 38 -32.5t42 -35.5t34.5 -31.5t40.5 -39.5l-250 -127l97 -121l262 137q100 -118 156 -237q-72 26 -156 26q-130 0 -252 -57.5t-214 -173.5t-118 -269q-18 -104 -0.5 -187t60.5 -145t108 -102.5t140 -61t157 -20.5q78 0 157.5 18.5t161 62.5t148 108.5
t118.5 164.5t73 222q80 450 -244 801l244 129l-93 118l-258 -135q-101 101 -176 150zM428 487q18 96 74.5 151.5t142.5 55.5q80 0 118.5 -62.5t24.5 -144.5q-14 -81 -75.5 -140.5t-139.5 -59.5t-118.5 59t-26.5 141z" />
    <glyph glyph-name="ntilde" unicode="&#xf1;" horiz-adv-x="1300" 
d="M1233 725q35 196 -46.5 302t-258.5 106q-190 0 -363 -181l-362 156l-195 -1108h389l107 600q14 87 70 136.5t126 49.5q68 0 103 -49t20 -137l-106 -600h389zM629 1206q26 56 44.5 76.5t41.5 20.5q22 0 57.5 -18t79.5 -36t86 -18q174 0 311 297l-202 39q-39 -92 -80 -92
q-21 0 -99 35.5t-133 35.5q-176 0 -311 -303z" />
    <glyph glyph-name="ograve" unicode="&#xf2;" horiz-adv-x="1345" 
d="M569 -27q291 0 482 160t235 424q25 158 -29.5 289t-181 209t-299.5 78q-130 0 -253 -46.5t-217 -124.5t-159.5 -185t-85.5 -224q-28 -157 26.5 -290t181.5 -211.5t300 -78.5zM715 803q116 0 164 -71.5t28 -178.5q-21 -104 -97.5 -177t-178.5 -73q-101 0 -155.5 75
t-35.5 179q18 103 95 174.5t180 71.5zM395 1524l256 -262h275l-148 378z" />
    <glyph glyph-name="oacute" unicode="&#xf3;" horiz-adv-x="1345" 
d="M569 -27q291 0 482 160t235 424q25 158 -29.5 289t-181 209t-299.5 78q-130 0 -253 -46.5t-217 -124.5t-159.5 -185t-85.5 -224q-28 -157 26.5 -290t181.5 -211.5t300 -78.5zM715 803q116 0 164 -71.5t28 -178.5q-21 -104 -97.5 -177t-178.5 -73q-101 0 -155.5 75
t-35.5 179q18 103 95 174.5t180 71.5zM973 1640l-279 -378h275l346 262z" />
    <glyph glyph-name="ocircumflex" unicode="&#xf4;" horiz-adv-x="1345" 
d="M569 -27q291 0 482 160t235 424q25 158 -29.5 289t-181 209t-299.5 78q-130 0 -253 -46.5t-217 -124.5t-159.5 -185t-85.5 -224q-28 -157 26.5 -290t181.5 -211.5t300 -78.5zM715 803q116 0 164 -71.5t28 -178.5q-21 -104 -97.5 -177t-178.5 -73q-101 0 -155.5 75
t-35.5 179q18 103 95 174.5t180 71.5zM1196 1255l-219 381h-203l-354 -381h268l143 125l99 -125h266z" />
    <glyph glyph-name="otilde" unicode="&#xf5;" horiz-adv-x="1345" 
d="M569 -27q291 0 482 160t235 424q25 158 -29.5 289t-181 209t-299.5 78q-130 0 -253 -46.5t-217 -124.5t-159.5 -185t-85.5 -224q-28 -157 26.5 -290t181.5 -211.5t300 -78.5zM715 803q116 0 164 -71.5t28 -178.5q-21 -104 -97.5 -177t-178.5 -73q-101 0 -155.5 75
t-35.5 179q18 103 95 174.5t180 71.5zM641 1206q26 56 44.5 76.5t41.5 20.5q22 0 57.5 -18t79.5 -36t86 -18q175 0 312 297l-203 39q-39 -92 -80 -92q-21 0 -98.5 35.5t-132.5 35.5q-177 0 -312 -303z" />
    <glyph glyph-name="odieresis" unicode="&#xf6;" horiz-adv-x="1345" 
d="M569 -27q291 0 482 160t235 424q25 158 -29.5 289t-181 209t-299.5 78q-130 0 -253 -46.5t-217 -124.5t-159.5 -185t-85.5 -224q-28 -157 26.5 -290t181.5 -211.5t300 -78.5zM715 803q116 0 164 -71.5t28 -178.5q-21 -104 -97.5 -177t-178.5 -73q-101 0 -155.5 75
t-35.5 179q18 103 95 174.5t180 71.5zM717 1638q-83 0 -141.5 -51t-69.5 -123q-13 -84 29 -130t120 -46t137.5 46.5t73.5 129.5t-28.5 128.5t-120.5 45.5zM1180 1638q-83 0 -141.5 -51t-69.5 -123q-13 -84 29 -130t120 -46t137.5 46.5t73.5 129.5t-28.5 128.5t-120.5 45.5z
" />
    <glyph glyph-name="divide" unicode="&#xf7;" horiz-adv-x="1402" 
d="M1249 618l37 205h-1071l-37 -205h1071zM762 885q65 0 117 42.5t61 108.5q9 61 -26 103.5t-101 42.5q-67 0 -118 -42.5t-60 -103.5q-11 -63 25 -107t102 -44zM653 262q65 0 117 43t61 109q9 61 -25.5 103t-100.5 42q-67 0 -118.5 -42t-60.5 -103q-11 -63 25 -107.5
t102 -44.5z" />
    <glyph glyph-name="oslash" unicode="&#xf8;" horiz-adv-x="1406" 
d="M971 659q11 -46 2 -106q-21 -112 -103 -189t-192 -77q-48 0 -88 16zM473 446q-12 49 0 107q19 111 102 188.5t193 77.5q56 0 88 -18zM-37 -6l133 -137l223 194q131 -78 299 -78q173 0 328.5 78.5t258 211.5t130.5 290q37 219 -73 377l188 176l-135 139l-193 -190
q-127 78 -297 78q-173 0 -328 -78.5t-257 -211.5t-129 -290q-40 -217 71 -375z" />
    <glyph glyph-name="ugrave" unicode="&#xf9;" horiz-adv-x="1292" 
d="M70 383q-9 -50 -9 -96.5t9.5 -93.5t32.5 -85.5t58 -68.5t89.5 -47t124.5 -17q112 0 203.5 42t154.5 110l363 -152l198 1133h-389l-104 -600q-15 -88 -69 -137t-126 -49t-106 48.5t-19 137.5l105 600h-389zM414 1524l256 -262h274l-147 378z" />
    <glyph glyph-name="uacute" unicode="&#xfa;" horiz-adv-x="1292" 
d="M70 383q-9 -50 -9 -96.5t9.5 -93.5t32.5 -85.5t58 -68.5t89.5 -47t124.5 -17q112 0 203.5 42t154.5 110l363 -152l198 1133h-389l-104 -600q-15 -88 -69 -137t-126 -49t-106 48.5t-19 137.5l105 600h-389zM924 1640l-279 -378h275l346 262z" />
    <glyph glyph-name="ucircumflex" unicode="&#xfb;" horiz-adv-x="1292" 
d="M70 383q-9 -50 -9 -96.5t9.5 -93.5t32.5 -85.5t58 -68.5t89.5 -47t124.5 -17q112 0 203.5 42t154.5 110l363 -152l198 1133h-389l-104 -600q-15 -88 -69 -137t-126 -49t-106 48.5t-19 137.5l105 600h-389zM1157 1255l-219 381h-203l-354 -381h268l144 125l98 -125h266z
" />
    <glyph glyph-name="udieresis" unicode="&#xfc;" horiz-adv-x="1292" 
d="M70 383q-9 -50 -9 -96.5t9.5 -93.5t32.5 -85.5t58 -68.5t89.5 -47t124.5 -17q112 0 203.5 42t154.5 110l363 -152l198 1133h-389l-104 -600q-15 -88 -69 -137t-126 -49t-106 48.5t-19 137.5l105 600h-389zM604 1638q-83 0 -141.5 -51t-69.5 -123q-13 -83 29.5 -129.5
t120.5 -46.5t137.5 46.5t73.5 129.5t-28.5 128.5t-121.5 45.5zM1067 1638q-83 0 -141.5 -51t-69.5 -123q-13 -83 29.5 -129.5t120.5 -46.5t137.5 46.5t73.5 129.5t-28.5 128.5t-121.5 45.5z" />
    <glyph glyph-name="yacute" unicode="&#xfd;" horiz-adv-x="1214" 
d="M86 1108l270 -1120l-155 -316h329l793 1436h-399l-334 -709l-96 709h-408zM879 1640l-279 -378h274l347 262z" />
    <glyph glyph-name="thorn" unicode="&#xfe;" horiz-adv-x="1253" 
d="M453 492q14 78 74.5 140t136.5 62q78 0 115.5 -61t23.5 -139q-18 -109 -66 -158t-145 -49q-77 0 -115 61.5t-24 143.5zM291 1589l-363 -2050h381l74 420l18 154h9q20 -46 69 -80.5t109 -48.5q46 -11 74 -11q101 0 192.5 46.5t157.5 122.5t111.5 168t62.5 188q11 77 9 150
t-28 138.5t-66.5 114.5t-106 78t-146.5 29q-34 0 -92 -15q-66 -22 -126.5 -60t-99.5 -77q3 14 29 127q16 102 39 186l74 420h-381z" />
    <glyph glyph-name="ydieresis" unicode="&#xff;" horiz-adv-x="1214" 
d="M86 1108l270 -1120l-155 -316h329l793 1436h-399l-334 -709l-96 709h-408zM582 1638q-83 0 -141.5 -51t-69.5 -123q-13 -84 29 -130t120 -46t137.5 46.5t73.5 129.5t-28.5 128.5t-120.5 45.5zM1044 1638q-83 0 -141 -51t-69 -123q-13 -84 29 -130t120 -46t137.5 46.5
t73.5 129.5t-28.5 128.5t-121.5 45.5z" />
    <glyph glyph-name="Amacron" unicode="&#x100;" horiz-adv-x="1570" 
d="M453 256h553l59 -256h426l-356 1444h-383l-865 -1444h418zM625 565l233 408l88 -408h-321zM1335 1524l43 239h-760l-43 -239h760z" />
    <glyph glyph-name="amacron" unicode="&#x101;" horiz-adv-x="1251" 
d="M717 285q-93 -66 -191 -66q-61 0 -98 36.5t-27 92.5q9 57 64 95t139 38q83 0 141 -28zM1157 637q42 243 -69 365t-394 122q-126 0 -231 -21.5t-223 -64.5l-47 -274q176 63 346 63q139 0 200.5 -44.5t40.5 -137.5l-4 -18q-110 43 -262 43q-198 0 -333 -90.5t-163 -257.5
q-14 -81 3 -147t60.5 -109.5t108.5 -67t146 -23.5q198 0 348 140l356 -140zM1110 1186l43 239h-760l-43 -239h760z" />
    <glyph glyph-name="Abreve" unicode="&#x102;" horiz-adv-x="1570" 
d="M453 256h553l59 -256h426l-356 1444h-383l-865 -1444h418zM625 565l233 408l88 -408h-321zM1155 1888q-30 -64 -70 -99.5t-84 -35.5q-45 0 -76 36t-38 99h-213q-17 -165 61.5 -270t218.5 -105q141 0 257 104.5t157 270.5h-213z" />
    <glyph glyph-name="abreve" unicode="&#x103;" horiz-adv-x="1251" 
d="M717 285q-93 -66 -191 -66q-61 0 -98 36.5t-27 92.5q9 57 64 95t139 38q83 0 141 -28zM1157 637q42 243 -69 365t-394 122q-126 0 -231 -21.5t-223 -64.5l-47 -274q176 63 346 63q139 0 200.5 -44.5t40.5 -137.5l-4 -18q-110 43 -262 43q-198 0 -333 -90.5t-163 -257.5
q-14 -81 3 -147t60.5 -109.5t108.5 -67t146 -23.5q198 0 348 140l356 -140zM948 1550q-30 -64 -69.5 -99.5t-83.5 -35.5q-45 0 -76.5 36.5t-38.5 98.5h-213q-17 -165 62 -269.5t219 -104.5q141 0 256.5 104t156.5 270h-213z" />
    <glyph glyph-name="Aogonek" unicode="&#x104;" horiz-adv-x="1570" 
d="M453 256h553l59 -256h426l-356 1444h-383l-865 -1444h418zM625 565l233 408l88 -408h-321zM1321 -242q-76 -30 -119 -30q-27 0 -42 12t-11 37q9 60 174 223h-258q-72 -69 -118 -130.5t-58 -131.5q-18 -102 45 -163.5t178 -61.5q110 0 223 55z" />
    <glyph glyph-name="aogonek" unicode="&#x105;" horiz-adv-x="1251" 
d="M717 285q-93 -66 -191 -66q-61 0 -98 36.5t-27 92.5q9 57 64 95t139 38q83 0 141 -28zM1157 637q42 243 -69 365t-394 122q-126 0 -231 -21.5t-223 -64.5l-47 -274q176 63 346 63q139 0 200.5 -44.5t40.5 -137.5l-4 -18q-110 43 -262 43q-198 0 -333 -90.5t-163 -257.5
q-14 -81 3 -147t60.5 -109.5t108.5 -67t146 -23.5q198 0 348 140l356 -140zM1044 -242q-76 -30 -118 -30q-27 0 -42.5 12t-11.5 37q8 62 170 198l-188 84q-119 -109 -174 -178.5t-68 -142.5q-18 -102 45.5 -163.5t178.5 -61.5q110 0 223 55z" />
    <glyph glyph-name="Cacute" unicode="&#x106;" horiz-adv-x="1361" 
d="M1266 508q-219 -174 -437 -174q-178 0 -261.5 109t-53.5 278q29 162 152 270.5t299 108.5q117 0 211.5 -46t152.5 -122l72 403q-159 127 -410 127q-213 0 -404 -98.5t-318.5 -269t-164.5 -377.5q-37 -210 32 -381.5t221.5 -268t355.5 -96.5q255 0 483 140zM1114 1978
l-278 -379h274l346 263z" />
    <glyph glyph-name="cacute" unicode="&#x107;" horiz-adv-x="1060" 
d="M981 1100q-77 30 -225 30q-171 0 -322 -79.5t-249 -211t-124 -286.5q-21 -117 5.5 -224t91 -185t166.5 -124.5t225 -46.5q138 0 250 39l63 363q-102 -74 -215 -74q-106 0 -166.5 73.5t-40.5 178.5q19 106 100.5 178t188.5 72q104 0 186 -76zM893 1640l-279 -378h275
l346 262z" />
    <glyph glyph-name="Ccircumflex" unicode="&#x108;" horiz-adv-x="1361" 
d="M1266 508q-219 -174 -437 -174q-178 0 -261.5 109t-53.5 278q29 162 152 270.5t299 108.5q117 0 211.5 -46t152.5 -122l72 403q-159 127 -410 127q-213 0 -404 -98.5t-318.5 -269t-164.5 -377.5q-37 -210 32 -381.5t221.5 -268t355.5 -96.5q255 0 483 140zM1391 1593
l-220 381h-202l-355 -381h269l143 125l98 -125h267z" />
    <glyph glyph-name="ccircumflex" unicode="&#x109;" horiz-adv-x="968" 
d="M981 1100q-77 30 -225 30q-171 0 -322 -79.5t-249 -211t-124 -286.5q-21 -117 5.5 -224t91 -185t166.5 -124.5t225 -46.5q138 0 250 39l63 363q-102 -74 -215 -74q-106 0 -166.5 73.5t-40.5 178.5q19 106 100.5 178t188.5 72q104 0 186 -76zM1096 1255l-219 381h-203
l-355 -381h269l143 125l98 -125h267z" />
    <glyph glyph-name="Cdotaccent" unicode="&#x10a;" horiz-adv-x="1361" 
d="M1266 508q-219 -174 -437 -174q-178 0 -261.5 109t-53.5 278q29 162 152 270.5t299 108.5q117 0 211.5 -46t152.5 -122l72 403q-159 127 -410 127q-213 0 -404 -98.5t-318.5 -269t-164.5 -377.5q-37 -210 32 -381.5t221.5 -268t355.5 -96.5q255 0 483 140zM1079 1929
q-24 0 -47 -3t-58 -14.5t-62.5 -31.5t-52 -58t-34.5 -89q-18 -95 35 -147t150 -52q96 0 167.5 52t88.5 147q17 94 -36.5 145t-150.5 51z" />
    <glyph glyph-name="cdotaccent" unicode="&#x10b;" horiz-adv-x="937" 
d="M981 1100q-77 30 -225 30q-171 0 -322 -79.5t-249 -211t-124 -286.5q-21 -117 5.5 -224t91 -185t166.5 -124.5t225 -46.5q138 0 250 39l63 363q-102 -74 -215 -74q-106 0 -166.5 73.5t-40.5 178.5q19 106 100.5 178t188.5 72q104 0 186 -76zM840 1591q-24 0 -47 -3
t-58 -14.5t-62.5 -31.5t-52 -58t-34.5 -89q-18 -95 34.5 -147t149.5 -52q96 0 167.5 52t88.5 147t-36 145.5t-150 50.5z" />
    <glyph glyph-name="Ccaron" unicode="&#x10c;" horiz-adv-x="1361" 
d="M1266 508q-219 -174 -437 -174q-178 0 -261.5 109t-53.5 278q29 162 152 270.5t299 108.5q117 0 211.5 -46t152.5 -122l72 403q-159 127 -410 127q-213 0 -404 -98.5t-318.5 -269t-164.5 -377.5q-37 -210 32 -381.5t221.5 -268t355.5 -96.5q255 0 483 140zM1485 1962
h-281l-137 -129l-96 129h-287l231 -383h205z" />
    <glyph glyph-name="ccaron" unicode="&#x10d;" horiz-adv-x="968" 
d="M981 1100q-77 30 -225 30q-171 0 -322 -79.5t-249 -211t-124 -286.5q-21 -117 5.5 -224t91 -185t166.5 -124.5t225 -46.5q138 0 250 39l63 363q-102 -74 -215 -74q-106 0 -166.5 73.5t-40.5 178.5q19 106 100.5 178t188.5 72q104 0 186 -76zM1210 1591h-280l-137 -129
l-97 129h-286l231 -383h205z" />
    <glyph glyph-name="Dcaron" unicode="&#x10e;" horiz-adv-x="1558" 
d="M274 1434l-251 -1434h544q190 0 354.5 55t284.5 152t199 230t106 288q37 209 -29 368t-234.5 250t-420.5 91h-553zM481 352l129 729h162q180 0 271 -96.5t61 -265.5q-30 -171 -155 -269t-306 -98h-162zM1405 1962h-281l-137 -129l-96 129h-287l232 -383h204z" />
    <glyph glyph-name="dcaron" unicode="&#x10f;" horiz-adv-x="1308" 
d="M1174 -25l268 1520h-389l-92 -522q-33 47 -70 79.5t-100 56.5t-142 24q-98 0 -194 -40.5t-175.5 -114t-138.5 -184t-82 -241.5q-24 -134 -2.5 -241t76 -182t136.5 -115t180 -40q113 0 199 45.5t167 126.5zM623 301q-112 0 -157.5 73.5t-23.5 178.5q23 112 100 183t169 71
q95 0 148 -71t34 -179q-20 -113 -97 -184.5t-173 -71.5zM1663 1200l221 479h-256l-168 -479h203z" />
    <glyph glyph-name="Dcroat" unicode="&#x110;" horiz-adv-x="1605" 
d="M322 1434l-252 -1434h544q190 0 355 55t285 152t199 230t106 288q37 209 -29 368t-235 250t-421 91h-552zM528 352l129 729h162q180 0 271 -96.5t61 -265.5q-30 -171 -155 -269t-306 -98h-162zM680 510l59 342h-671l-60 -342h672z" />
    <glyph glyph-name="dcroat" unicode="&#x111;" horiz-adv-x="1394" 
d="M1176 -25l268 1520h-389l-92 -522q-52 74 -124 117t-186 43q-204 0 -375 -159.5t-217 -420.5q-24 -134 -2.5 -241t76 -182t136.5 -115t180 -40q113 0 199 45.5t167 126.5zM625 301q-58 0 -98.5 21.5t-59.5 57t-26 80.5t3 93q20 111 98 182.5t171 71.5q95 0 148 -71
t34 -179q-20 -113 -97 -184.5t-173 -71.5zM1499 1110l60 342h-672l-60 -342h672z" />
    <glyph glyph-name="Emacron" unicode="&#x112;" horiz-adv-x="1382" 
d="M475 338l41 227h688l56 314h-689l37 217h760l59 338h-1153l-251 -1434h1163l59 338h-770zM1257 1524l43 239h-759l-43 -239h759z" />
    <glyph glyph-name="emacron" unicode="&#x113;" horiz-adv-x="1247" 
d="M1051 389q-93 -72 -224 -106.5t-235 -34.5q-116 0 -174 55l760 189q17 82 13 161t-20.5 149t-54 129t-89 101t-125 66t-161.5 24q-166 0 -311 -74t-242.5 -204.5t-126.5 -292.5q-22 -125 1.5 -233.5t85.5 -186t162.5 -122t226.5 -44.5q105 0 228 29t232 92zM432 563
q0 99 68 185t168 86q72 0 113 -47.5t44 -133.5l-393 -96v6zM1139 1186l43 239h-760l-43 -239h760z" />
    <glyph glyph-name="Ebreve" unicode="&#x114;" horiz-adv-x="1382" 
d="M475 338l41 227h688l56 314h-689l37 217h760l59 338h-1153l-251 -1434h1163l59 338h-770zM1069 1888q-30 -64 -70 -99.5t-84 -35.5q-45 0 -76 36t-38 99h-213q-17 -165 61.5 -270t218.5 -105q141 0 257 104.5t157 270.5h-213z" />
    <glyph glyph-name="ebreve" unicode="&#x115;" horiz-adv-x="1247" 
d="M1051 389q-93 -72 -224 -106.5t-235 -34.5q-116 0 -174 55l760 189q17 82 13 161t-20.5 149t-54 129t-89 101t-125 66t-161.5 24q-166 0 -311 -74t-242.5 -204.5t-126.5 -292.5q-22 -125 1.5 -233.5t85.5 -186t162.5 -122t226.5 -44.5q105 0 228 29t232 92zM432 563
q0 99 68 185t168 86q72 0 113 -47.5t44 -133.5l-393 -96v6zM981 1550q-30 -64 -70 -99.5t-84 -35.5q-45 0 -76 36t-38 99h-213q-17 -165 61.5 -269.5t218.5 -104.5q141 0 257 104.5t157 269.5h-213z" />
    <glyph glyph-name="Edotaccent" unicode="&#x116;" horiz-adv-x="1382" 
d="M475 338l41 227h688l56 314h-689l37 217h760l59 338h-1153l-251 -1434h1163l59 338h-770zM938 1929q-24 0 -47 -3t-58 -14.5t-62.5 -31.5t-52 -58t-34.5 -89q-18 -95 34.5 -147t149.5 -52q96 0 167.5 52t88.5 147t-36 145.5t-150 50.5z" />
    <glyph glyph-name="edotaccent" unicode="&#x117;" horiz-adv-x="1247" 
d="M1051 389q-93 -72 -224 -106.5t-235 -34.5q-116 0 -174 55l760 189q17 82 13 161t-20.5 149t-54 129t-89 101t-125 66t-161.5 24q-166 0 -311 -74t-242.5 -204.5t-126.5 -292.5q-22 -125 1.5 -233.5t85.5 -186t162.5 -122t226.5 -44.5q105 0 228 29t232 92zM432 563
q0 99 68 185t168 86q72 0 113 -47.5t44 -133.5l-393 -96v6zM864 1591q-24 0 -47 -3t-58 -14.5t-62.5 -31.5t-52 -58t-34.5 -89q-18 -95 35 -147t150 -52q96 0 167.5 52t88.5 147q17 94 -36.5 145t-150.5 51z" />
    <glyph glyph-name="Eogonek" unicode="&#x118;" horiz-adv-x="1382" 
d="M475 338l41 227h688l56 314h-689l37 217h760l59 338h-1153l-251 -1434h1163l59 338h-770zM1184 -242q-76 -30 -119 -30q-27 0 -42 12t-11 37q9 60 174 223h-258q-72 -69 -118 -130.5t-58 -131.5q-18 -102 45 -163.5t178 -61.5q110 0 223 55z" />
    <glyph glyph-name="eogonek" unicode="&#x119;" horiz-adv-x="1247" 
d="M1051 389q-93 -72 -224 -106.5t-235 -34.5q-116 0 -174 55l760 189q17 82 13 161t-20.5 149t-54 129t-89 101t-125 66t-161.5 24q-166 0 -311 -74t-242.5 -204.5t-126.5 -292.5q-22 -125 1.5 -233.5t85.5 -186t162.5 -122t226.5 -44.5q105 0 228 29t232 92zM432 563
q0 99 68 185t168 86q72 0 113 -47.5t44 -133.5l-393 -96v6zM918 -242q-76 -30 -119 -30q-62 0 -54 57q22 106 252 301l-335 -86q-73 -69 -119 -130.5t-58 -131.5q-18 -102 45.5 -163.5t178.5 -61.5q110 0 223 55z" />
    <glyph glyph-name="Ecaron" unicode="&#x11a;" horiz-adv-x="1382" 
d="M475 338l41 227h688l56 314h-689l37 217h760l59 338h-1153l-251 -1434h1163l59 338h-770zM1333 1962h-280l-138 -129l-96 129h-287l232 -383h205z" />
    <glyph glyph-name="ecaron" unicode="&#x11b;" horiz-adv-x="1247" 
d="M1051 389q-93 -72 -224 -106.5t-235 -34.5q-116 0 -174 55l760 189q17 82 13 161t-20.5 149t-54 129t-89 101t-125 66t-161.5 24q-166 0 -311 -74t-242.5 -204.5t-126.5 -292.5q-22 -125 1.5 -233.5t85.5 -186t162.5 -122t226.5 -44.5q105 0 228 29t232 92zM432 563
q0 99 68 185t168 86q72 0 113 -47.5t44 -133.5l-393 -96v6zM1214 1591h-280l-137 -129l-97 129h-286l231 -383h205z" />
    <glyph glyph-name="Gcircumflex" unicode="&#x11c;" horiz-adv-x="1554" 
d="M1100 547q-11 -61 -45 -108.5t-79 -73.5t-92 -39t-91 -13q-147 0 -230 114t-51 288q28 166 157.5 279.5t297.5 113.5q206 0 344 -135l73 420q-69 32 -170 50.5t-206 18.5q-164 0 -318 -58t-273 -157.5t-202.5 -237t-110.5 -292.5q-29 -159 5.5 -299t117.5 -237.5
t209 -153.5t277 -56q101 0 195 22t192 78t176 142t141.5 225.5t95.5 317.5l15 82h-660l-51 -291h283zM1401 1593l-219 381h-203l-354 -381h268l143 125l99 -125h266z" />
    <glyph glyph-name="gcircumflex" unicode="&#x11d;" horiz-adv-x="1392" 
d="M655 401q-107 0 -155.5 61t-32.5 150q14 94 88 155.5t174 61.5q98 0 152 -60t37 -151q-17 -94 -91 -155.5t-172 -61.5zM848 223q-49 -274 -367 -274q-122 0 -245 46t-211 107l-56 -307q119 -67 222 -97t243 -30q153 0 286 37.5t240 110.5t180 188.5t99 263.5l147 840
l-411 -131q-58 75 -129.5 115.5t-179.5 40.5q-207 0 -373.5 -142t-208.5 -375q-40 -233 75 -375.5t322 -142.5q115 0 203.5 44.5t171.5 123.5zM1204 1255l-219 381h-203l-354 -381h268l144 125l98 -125h266z" />
    <glyph glyph-name="Gbreve" unicode="&#x11e;" horiz-adv-x="1554" 
d="M1100 547q-11 -61 -45 -108.5t-79 -73.5t-92 -39t-91 -13q-147 0 -230 114t-51 288q28 166 157.5 279.5t297.5 113.5q206 0 344 -135l73 420q-69 32 -170 50.5t-206 18.5q-164 0 -318 -58t-273 -157.5t-202.5 -237t-110.5 -292.5q-29 -159 5.5 -299t117.5 -237.5
t209 -153.5t277 -56q101 0 195 22t192 78t176 142t141.5 225.5t95.5 317.5l15 82h-660l-51 -291h283zM1184 1888q-30 -64 -70 -99.5t-84 -35.5q-45 0 -76.5 36.5t-38.5 98.5h-213q-17 -165 62 -270t219 -105q141 0 257 104.5t157 270.5h-213z" />
    <glyph glyph-name="gbreve" unicode="&#x11f;" horiz-adv-x="1392" 
d="M655 401q-107 0 -155.5 61t-32.5 150q14 94 88 155.5t174 61.5q98 0 152 -60t37 -151q-17 -94 -91 -155.5t-172 -61.5zM848 223q-49 -274 -367 -274q-122 0 -245 46t-211 107l-56 -307q119 -67 222 -97t243 -30q153 0 286 37.5t240 110.5t180 188.5t99 263.5l147 840
l-411 -131q-58 75 -129.5 115.5t-179.5 40.5q-207 0 -373.5 -142t-208.5 -375q-40 -233 75 -375.5t322 -142.5q115 0 203.5 44.5t171.5 123.5zM1049 1550q-30 -64 -70 -99.5t-84 -35.5q-45 0 -76.5 36.5t-38.5 98.5h-213q-17 -165 62 -269.5t219 -104.5q141 0 257 104.5
t157 269.5h-213z" />
    <glyph glyph-name="Gdotaccent" unicode="&#x120;" horiz-adv-x="1554" 
d="M1100 547q-11 -61 -45 -108.5t-79 -73.5t-92 -39t-91 -13q-147 0 -230 114t-51 288q28 166 157.5 279.5t297.5 113.5q206 0 344 -135l73 420q-69 32 -170 50.5t-206 18.5q-164 0 -318 -58t-273 -157.5t-202.5 -237t-110.5 -292.5q-29 -159 5.5 -299t117.5 -237.5
t209 -153.5t277 -56q101 0 195 22t192 78t176 142t141.5 225.5t95.5 317.5l15 82h-660l-51 -291h283zM1020 1929q-24 0 -47 -3t-58 -14.5t-62.5 -31.5t-52 -58t-34.5 -89q-18 -95 34.5 -147t149.5 -52q96 0 167.5 52t88.5 147t-36 145.5t-150 50.5z" />
    <glyph glyph-name="gdotaccent" unicode="&#x121;" horiz-adv-x="1392" 
d="M655 401q-107 0 -155.5 61t-32.5 150q14 94 88 155.5t174 61.5q98 0 152 -60t37 -151q-17 -94 -91 -155.5t-172 -61.5zM848 223q-49 -274 -367 -274q-122 0 -245 46t-211 107l-56 -307q119 -67 222 -97t243 -30q153 0 286 37.5t240 110.5t180 188.5t99 263.5l147 840
l-411 -131q-58 75 -129.5 115.5t-179.5 40.5q-207 0 -373.5 -142t-208.5 -375q-40 -233 75 -375.5t322 -142.5q115 0 203.5 44.5t171.5 123.5zM879 1591q-24 0 -47 -3t-58 -14.5t-62.5 -31.5t-52 -58t-34.5 -89q-18 -95 34.5 -147t149.5 -52q96 0 167.5 52t88.5 147
t-36 145.5t-150 50.5z" />
    <glyph glyph-name="uni0122" unicode="&#x122;" horiz-adv-x="1554" 
d="M1100 547q-11 -61 -45 -108.5t-79 -73.5t-92 -39t-91 -13q-147 0 -230 114t-51 288q28 166 157.5 279.5t297.5 113.5q206 0 344 -135l73 420q-69 32 -170 50.5t-206 18.5q-164 0 -318 -58t-273 -157.5t-202.5 -237t-110.5 -292.5q-29 -159 5.5 -299t117.5 -237.5
t209 -153.5t277 -56q101 0 195 22t192 78t176 142t141.5 225.5t95.5 317.5l15 82h-660l-51 -291h283zM492 -610l223 479h-256l-170 -479h203z" />
    <glyph glyph-name="uni0123" unicode="&#x123;" horiz-adv-x="1392" 
d="M655 401q-107 0 -155.5 61t-32.5 150q14 94 88 155.5t174 61.5q98 0 152 -60t37 -151q-17 -94 -91 -155.5t-172 -61.5zM848 223q-49 -274 -367 -274q-122 0 -245 46t-211 107l-56 -307q119 -67 222 -97t243 -30q153 0 286 37.5t240 110.5t180 188.5t99 263.5l147 840
l-411 -131q-58 75 -129.5 115.5t-179.5 40.5q-207 0 -373.5 -142t-208.5 -375q-40 -233 75 -375.5t322 -142.5q115 0 203.5 44.5t171.5 123.5zM969 1669l-312 -455h406l170 455h-264z" />
    <glyph glyph-name="Hcircumflex" unicode="&#x124;" horiz-adv-x="1544" 
d="M274 1434l-251 -1434h397l96 545h510l-96 -545h397l252 1434h-397l-95 -537h-509l94 537h-398zM1341 1593l-219 381h-202l-355 -381h269l143 125l98 -125h266z" />
    <glyph glyph-name="hcircumflex" unicode="&#x125;" horiz-adv-x="1554" 
d="M1247 725q36 200 -48 304t-257 104q-193 0 -362 -177l96 539h-389l-264 -1495h389l106 600q14 87 70.5 136.5t126.5 49.5q68 0 103 -48.5t20 -137.5l-107 -600h389zM891 1593l-219 381h-203l-354 -381h268l143 125l99 -125h266z" />
    <glyph glyph-name="Hbar" unicode="&#x126;" horiz-adv-x="1593" 
d="M299 1434l-252 -1434h397l97 545h510l-97 -545h398l252 1434h-398l-94 -537h-510l94 537h-397zM119 1038h1511l53 240h-1511z" />
    <glyph glyph-name="hbar" unicode="&#x127;" horiz-adv-x="1294" 
d="M1223 725q36 200 -48 304t-257 104q-194 0 -363 -177l96 539h-389l-264 -1495h389l107 600q14 87 70 136.5t126 49.5q68 0 103 -48.5t20 -137.5l-106 -600h389zM780 1186l43 239h-760l-43 -239h760z" />
    <glyph glyph-name="Itilde" unicode="&#x128;" horiz-adv-x="636" 
d="M422 0l252 1434h-400l-251 -1434h399zM324 1544q26 55 44.5 75.5t41.5 20.5q22 0 57.5 -18t79.5 -35.5t86 -17.5q174 0 311 297l-203 39q-21 -50 -39.5 -71.5t-39.5 -21.5t-99 36t-133 36q-176 0 -311 -303z" />
    <glyph glyph-name="itilde" unicode="&#x129;" horiz-adv-x="600" 
d="M397 0l195 1108h-389l-195 -1108h389zM227 1206q26 56 44.5 76.5t41.5 20.5q22 0 57.5 -18t80 -36t86.5 -18q174 0 311 297l-203 39q-39 -92 -80 -92q-21 0 -98.5 35.5t-132.5 35.5q-176 0 -311 -303z" />
    <glyph glyph-name="Imacron" unicode="&#x12a;" horiz-adv-x="636" 
d="M422 0l252 1434h-400l-251 -1434h399zM868 1524l43 239h-759l-43 -239h759z" />
    <glyph glyph-name="imacron" unicode="&#x12b;" horiz-adv-x="600" 
d="M397 0l195 1108h-389l-195 -1108h389zM791 1186l43 239h-760l-43 -239h760z" />
    <glyph glyph-name="Ibreve" unicode="&#x12c;" horiz-adv-x="636" 
d="M422 0l252 1434h-400l-251 -1434h399zM696 1888q-30 -64 -69.5 -99.5t-83.5 -35.5q-45 0 -76.5 36.5t-38.5 98.5h-213q-17 -165 62 -270t219 -105q141 0 256.5 104.5t156.5 270.5h-213z" />
    <glyph glyph-name="ibreve" unicode="&#x12d;" horiz-adv-x="600" 
d="M397 0l195 1108h-389l-195 -1108h389zM610 1550q-30 -64 -69.5 -99.5t-83.5 -35.5q-45 0 -76.5 36.5t-38.5 98.5h-213q-17 -165 62 -269.5t219 -104.5q141 0 256.5 104t156.5 270h-213z" />
    <glyph glyph-name="Iogonek" unicode="&#x12e;" horiz-adv-x="636" 
d="M422 0l252 1434h-400l-251 -1434h399zM420 -242q-76 -30 -119 -30q-27 0 -42 12t-11 37q9 60 174 223h-258q-72 -69 -118 -130.5t-58 -131.5q-18 -102 45 -163.5t178 -61.5q110 0 223 55z" />
    <glyph glyph-name="iogonek" unicode="&#x12f;" horiz-adv-x="595" 
d="M395 0l195 1108h-389l-195 -1108h389zM481 1597q-22 0 -47 -4t-59.5 -16.5t-62.5 -33t-52 -57.5t-33 -85q-19 -95 33.5 -147t149.5 -52q96 0 168 52t90 147q17 94 -36.5 145t-150.5 51zM393 -242q-76 -30 -119 -30q-27 0 -42 12t-11 37q9 60 174 223h-258
q-72 -69 -118 -130.5t-58 -131.5q-18 -102 45 -163.5t178 -61.5q111 0 224 55z" />
    <glyph glyph-name="Idotaccent" unicode="&#x130;" horiz-adv-x="636" 
d="M422 0l252 1434h-400l-251 -1434h399zM561 1929q-24 0 -47 -3t-58 -14.5t-62.5 -31.5t-52 -58t-34.5 -89q-18 -95 35 -147t150 -52q96 0 167.5 52t88.5 147q17 94 -36.5 145t-150.5 51z" />
    <glyph glyph-name="dotlessi" unicode="&#x131;" horiz-adv-x="600" 
d="M397 0l195 1108h-389l-195 -1108h389z" />
    <glyph glyph-name="IJ" unicode="&#x132;" horiz-adv-x="1609" 
d="M422 0l252 1434h-400l-251 -1434h399zM555 84q142 -109 311 -109q263 0 425 147.5t206 401.5l160 910h-395l-160 -908q-17 -96 -77.5 -148t-141.5 -52q-42 0 -78.5 12t-70.5 38.5t-55 47t-54 57.5z" />
    <glyph glyph-name="ij" unicode="&#x133;" horiz-adv-x="1200" 
d="M395 0l195 1108h-389l-195 -1108h389zM481 1597q-22 0 -47 -4t-59.5 -16.5t-62.5 -33t-52 -57.5t-33 -85q-19 -95 33.5 -147t149.5 -52q96 0 168 52t90 147q17 94 -36.5 145t-150.5 51zM389 -319q88 -15 158 -15q197 0 312 89.5t151 293.5l186 1059h-389l-182 -1042
q-24 -129 -111 -129q-30 0 -76 16zM1087 1597q-22 0 -47 -4t-59 -16.5t-62 -33t-52 -57.5t-33 -85q-19 -95 33 -147t149 -52q96 0 168 52t90 147q17 94 -36.5 145t-150.5 51z" />
    <glyph glyph-name="Jcircumflex" unicode="&#x134;" horiz-adv-x="972" 
d="M-82 84q142 -109 311 -109q263 0 425 147.5t206 401.5l160 910h-395l-160 -908q-17 -96 -77.5 -148t-141.5 -52q-42 0 -78.5 12t-70.5 38.5t-55 47t-54 57.5zM1253 1593l-219 381h-203l-354 -381h268l144 125l98 -125h266z" />
    <glyph glyph-name="jcircumflex" unicode="&#x135;" horiz-adv-x="585" 
d="M-213 -319q88 -15 158 -15q197 0 312 89.5t151 293.5l186 1059h-389l-182 -1042q-24 -129 -111 -129q-30 0 -76 16zM807 1255l-219 381h-203l-354 -381h268l143 125l99 -125h266z" />
    <glyph glyph-name="uni0136" unicode="&#x136;" horiz-adv-x="1482" 
d="M569 852l103 582h-398l-251 -1434h397l133 754l373 -754h477l-418 817l651 617h-471zM459 -610l223 479h-256l-170 -479h203z" />
    <glyph glyph-name="uni0137" unicode="&#x137;" horiz-adv-x="1245" 
d="M526 737l136 758h-390l-264 -1495h389l103 580l221 -580h428l-279 664l463 444h-440zM324 -610l223 479h-256l-170 -479h203z" />
    <glyph glyph-name="kgreenlandic" unicode="&#x138;" horiz-adv-x="1247" 
d="M526 737l66 371h-389l-195 -1108h389l103 580l221 -580h428l-279 664l463 444h-440z" />
    <glyph glyph-name="Lacute" unicode="&#x139;" horiz-adv-x="1218" 
d="M457 348l190 1086h-397l-252 -1434h1092l61 348h-694zM631 1978l-279 -379h275l346 263z" />
    <glyph glyph-name="lacute" unicode="&#x13a;" horiz-adv-x="636" 
d="M422 0l252 1434h-400l-251 -1434h399zM610 1978l-278 -379h274l346 263z" />
    <glyph glyph-name="uni013B" unicode="&#x13b;" horiz-adv-x="1280" 
d="M498 348l190 1086h-397l-252 -1434h1091l62 348h-694zM371 -610l223 479h-256l-170 -479h203z" />
    <glyph glyph-name="uni013C" unicode="&#x13c;" horiz-adv-x="636" 
d="M422 0l252 1434h-400l-251 -1434h399zM-4 -610l223 479h-256l-170 -479h203z" />
    <glyph glyph-name="Lcaron" unicode="&#x13d;" horiz-adv-x="1193" 
d="M481 348l191 1086h-398l-251 -1434h1091l62 348h-695zM1116 1200l221 479h-256l-168 -479h203z" />
    <glyph glyph-name="lcaron" unicode="&#x13e;" horiz-adv-x="600" 
d="M397 0l265 1495h-390l-264 -1495h389zM895 1200l221 479h-256l-168 -479h203z" />
    <glyph glyph-name="Ldot" unicode="&#x13f;" horiz-adv-x="1189" 
d="M481 348l191 1086h-398l-251 -1434h1091l62 348h-695zM1047 987q-24 0 -47 -3t-58 -14.5t-62.5 -31.5t-52 -58t-34.5 -89q-18 -95 34.5 -147t149.5 -52q96 0 167.5 52t88.5 147t-36 145.5t-150 50.5z" />
    <glyph glyph-name="ldot" unicode="&#x140;" horiz-adv-x="919" 
d="M397 0l265 1495h-390l-264 -1495h389zM864 987q-24 0 -47 -3t-58 -14.5t-62.5 -31.5t-52 -58t-34.5 -89q-18 -95 35 -147t150 -52q96 0 167.5 52t88.5 147q17 94 -36.5 145t-150.5 51z" />
    <glyph glyph-name="Lslash" unicode="&#x141;" horiz-adv-x="1208" 
d="M473 348l191 1086h-398l-252 -1434h1092l61 348h-694zM905 446l60 334h-918l-59 -334h917z" />
    <glyph glyph-name="lslash" unicode="&#x142;" horiz-adv-x="757" 
d="M389 0l264 1495h-389l-264 -1495h389zM655 350l60 334h-686l-60 -334h686z" />
    <glyph glyph-name="Nacute" unicode="&#x143;" horiz-adv-x="1593" 
d="M1102 676l-457 758h-371l-251 -1434h393l139 786l473 -786h348l252 1434h-393zM1092 1978l-279 -379h274l347 263z" />
    <glyph glyph-name="nacute" unicode="&#x144;" horiz-adv-x="1300" 
d="M1233 725q35 196 -46.5 302t-258.5 106q-190 0 -363 -181l-362 156l-195 -1108h389l107 600q14 87 70 136.5t126 49.5q68 0 103 -49t20 -137l-106 -600h389zM967 1640l-279 -378h275l346 262z" />
    <glyph glyph-name="uni0145" unicode="&#x145;" horiz-adv-x="1622" 
d="M1118 676l-456 758h-371l-252 -1434h393l139 786l473 -786h349l252 1434h-394zM500 -610l223 479h-256l-170 -479h203z" />
    <glyph glyph-name="uni0146" unicode="&#x146;" horiz-adv-x="1323" 
d="M1247 725q35 196 -46.5 302t-258.5 106q-189 0 -362 -181l-363 156l-194 -1108h389l106 600q14 87 70.5 136.5t126.5 49.5q68 0 103 -49t20 -137l-107 -600h389zM326 -610l223 479h-256l-170 -479h203z" />
    <glyph glyph-name="Ncaron" unicode="&#x147;" horiz-adv-x="1593" 
d="M1102 676l-457 758h-371l-251 -1434h393l139 786l473 -786h348l252 1434h-393zM1440 1962h-281l-137 -129l-96 129h-287l231 -383h205z" />
    <glyph glyph-name="ncaron" unicode="&#x148;" horiz-adv-x="1300" 
d="M1233 725q35 196 -46.5 302t-258.5 106q-190 0 -363 -181l-362 156l-195 -1108h389l107 600q14 87 70 136.5t126 49.5q68 0 103 -49t20 -137l-106 -600h389zM1229 1591h-281l-137 -129l-96 129h-287l231 -383h205z" />
    <glyph glyph-name="Eng" unicode="&#x14a;" horiz-adv-x="1593" 
d="M274 1434l-251 -1434h393l139 786l442 -733l-2 -2q-19 -114 -106 -114q-30 0 -76 16l-49 -272q88 -15 158 -15q196 0 311 89.5t151 293.5l21 117l223 1268h-393l-133 -758l-457 758h-371z" />
    <glyph glyph-name="eng" unicode="&#x14b;" horiz-adv-x="1300" 
d="M203 1108l-195 -1108h389l107 600q14 87 70 136.5t126 49.5q68 0 103 -49t20 -137l-94 -534q-24 -129 -111 -129q-29 0 -75 16l-49 -272q88 -15 157 -15q197 0 312 89.5t151 293.5l119 676q33 186 -53 297t-250 111q-192 0 -365 -181z" />
    <glyph glyph-name="Omacron" unicode="&#x14c;" horiz-adv-x="1695" 
d="M743 -29q148 0 280 39t233.5 107t181.5 160.5t131.5 199t75.5 223.5q24 130 10 244.5t-69 209.5t-137.5 163.5t-196 106.5t-244.5 38q-217 0 -412.5 -100t-325.5 -270.5t-166 -374.5q-27 -152 7.5 -290t118 -238t217 -159t296.5 -59zM942 1104q91 0 158 -33t99.5 -87
t45 -123.5t-3.5 -143.5q-27 -158 -150.5 -272.5t-283.5 -114.5q-104 0 -179 54.5t-104.5 144t-11.5 192.5q28 159 149.5 271t280.5 112zM1419 1524l43 239h-760l-43 -239h760z" />
    <glyph glyph-name="omacron" unicode="&#x14d;" horiz-adv-x="1345" 
d="M569 -27q291 0 482 160t235 424q25 158 -29.5 289t-181 209t-299.5 78q-130 0 -253 -46.5t-217 -124.5t-159.5 -185t-85.5 -224q-28 -157 26.5 -290t181.5 -211.5t300 -78.5zM715 803q116 0 164 -71.5t28 -178.5q-21 -104 -97.5 -177t-178.5 -73q-101 0 -155.5 75
t-35.5 179q18 103 95 174.5t180 71.5zM1171 1186l43 239h-759l-43 -239h759z" />
    <glyph glyph-name="Obreve" unicode="&#x14e;" horiz-adv-x="1695" 
d="M743 -29q148 0 280 39t233.5 107t181.5 160.5t131.5 199t75.5 223.5q24 130 10 244.5t-69 209.5t-137.5 163.5t-196 106.5t-244.5 38q-217 0 -412.5 -100t-325.5 -270.5t-166 -374.5q-27 -152 7.5 -290t118 -238t217 -159t296.5 -59zM942 1104q91 0 158 -33t99.5 -87
t45 -123.5t-3.5 -143.5q-27 -158 -150.5 -272.5t-283.5 -114.5q-104 0 -179 54.5t-104.5 144t-11.5 192.5q28 159 149.5 271t280.5 112zM1313 1888q-30 -64 -70 -99.5t-84 -35.5q-45 0 -76.5 36.5t-38.5 98.5h-213q-17 -165 62 -270t219 -105q141 0 257 104.5t157 270.5
h-213z" />
    <glyph glyph-name="obreve" unicode="&#x14f;" horiz-adv-x="1345" 
d="M569 -27q291 0 482 160t235 424q25 158 -29.5 289t-181 209t-299.5 78q-130 0 -253 -46.5t-217 -124.5t-159.5 -185t-85.5 -224q-28 -157 26.5 -290t181.5 -211.5t300 -78.5zM715 803q116 0 164 -71.5t28 -178.5q-21 -104 -97.5 -177t-178.5 -73q-101 0 -155.5 75
t-35.5 179q18 103 95 174.5t180 71.5zM1020 1550q-30 -64 -70 -99.5t-84 -35.5q-45 0 -76 36t-38 99h-213q-17 -165 61.5 -269.5t218.5 -104.5q141 0 257 104.5t157 269.5h-213z" />
    <glyph glyph-name="Ohungarumlaut" unicode="&#x150;" horiz-adv-x="1695" 
d="M743 -29q148 0 280 39t233.5 107t181.5 160.5t131.5 199t75.5 223.5q24 130 10 244.5t-69 209.5t-137.5 163.5t-196 106.5t-244.5 38q-217 0 -412.5 -100t-325.5 -270.5t-166 -374.5q-27 -152 7.5 -290t118 -238t217 -159t296.5 -59zM942 1104q91 0 158 -33t99.5 -87
t45 -123.5t-3.5 -143.5q-27 -158 -150.5 -272.5t-283.5 -114.5q-104 0 -179 54.5t-104.5 144t-11.5 192.5q28 159 149.5 271t280.5 112zM942 1567l385 342l-305 59l-344 -401h264zM1417 1567l385 344l-307 57l-340 -401h262z" />
    <glyph glyph-name="ohungarumlaut" unicode="&#x151;" horiz-adv-x="1390" 
d="M569 -27q291 0 482 160t235 424q25 158 -29.5 289t-181 209t-299.5 78q-130 0 -253 -46.5t-217 -124.5t-159.5 -185t-85.5 -224q-28 -157 26.5 -290t181.5 -211.5t300 -78.5zM715 803q116 0 164 -71.5t28 -178.5q-21 -104 -97.5 -177t-178.5 -73q-101 0 -155.5 75
t-35.5 179q18 103 95 174.5t180 71.5zM713 1229l385 342l-305 59l-344 -401h264zM1188 1229l385 344l-307 57l-340 -401h262z" />
    <glyph glyph-name="OE" unicode="&#x152;" horiz-adv-x="2308" 
d="M1130 1044q-80 60 -188 60q-159 0 -280.5 -112t-149.5 -271q-18 -103 11.5 -192.5t104.5 -144t179 -54.5q118 0 207 57zM1440 565l-41 -227h770l-60 -338h-1144q-99 -29 -222 -29q-163 0 -296.5 59t-217 159t-118 238t-7.5 290q36 204 166 374.5t325.5 270.5t412.5 100
q107 0 213 -28h1130l-59 -338h-760l-37 -217h688l-55 -314h-688z" />
    <glyph glyph-name="oe" unicode="&#x153;" horiz-adv-x="2109" 
d="M1911 389q-184 -141 -461 -141q-116 0 -174 55l760 189q17 82 13 161t-20.5 149t-54 129t-89 101t-125 66t-161.5 24q-243 0 -421 -149q-69 76 -171.5 118t-228.5 42q-130 0 -253 -46.5t-218 -124.5t-160.5 -185t-85.5 -224q-28 -157 26.5 -290t181.5 -211.5t300 -78.5
q246 0 447 154q125 -162 379 -162q105 0 228 29t232 92zM715 803q77 0 125.5 -36t63.5 -91t3 -123q-18 -103 -95.5 -176.5t-180.5 -73.5q-101 0 -155.5 75t-35.5 179q18 103 95 174.5t180 71.5zM1290 557q6 65 33.5 126.5t81.5 106t121 44.5q72 0 113 -47.5t44 -133.5z" />
    <glyph glyph-name="Racute" unicode="&#x154;" horiz-adv-x="1423" 
d="M23 0h399l76 434h174l211 -434h458l-254 500q151 59 247.5 170.5t125.5 273.5q41 227 -87.5 358.5t-420.5 131.5h-678zM553 745l61 345h258q102 0 151 -42.5t34 -127.5q-14 -79 -79 -127t-165 -48h-260zM1057 1978l-279 -379h275l346 263z" />
    <glyph glyph-name="racute" unicode="&#x155;" horiz-adv-x="909" 
d="M946 1126h-18q-124 0 -213.5 -61.5t-161.5 -179.5l-350 223l-195 -1108h389l62 344q32 187 130 280t253 93h32zM727 1640l-278 -378h274l346 262z" />
    <glyph glyph-name="uni0156" unicode="&#x156;" horiz-adv-x="1423" 
d="M23 0h399l76 434h174l211 -434h458l-254 500q151 59 247.5 170.5t125.5 273.5q41 227 -87.5 358.5t-420.5 131.5h-678zM553 745l61 345h258q102 0 151 -42.5t34 -127.5q-14 -79 -79 -127t-165 -48h-260zM438 -610l224 479h-256l-170 -479h202z" />
    <glyph glyph-name="uni0157" unicode="&#x157;" horiz-adv-x="854" 
d="M946 1126h-18q-124 0 -213.5 -61.5t-161.5 -179.5l-350 223l-195 -1108h389l62 344q32 187 130 280t253 93h32zM-4 -610l223 479h-256l-170 -479h203z" />
    <glyph glyph-name="Rcaron" unicode="&#x158;" horiz-adv-x="1423" 
d="M23 0h399l76 434h174l211 -434h458l-254 500q151 59 247.5 170.5t125.5 273.5q41 227 -87.5 358.5t-420.5 131.5h-678zM553 745l61 345h258q102 0 151 -42.5t34 -127.5q-14 -79 -79 -127t-165 -48h-260zM1343 1962h-280l-137 -129l-97 129h-286l231 -383h205z" />
    <glyph glyph-name="rcaron" unicode="&#x159;" horiz-adv-x="854" 
d="M946 1126h-18q-124 0 -213.5 -61.5t-161.5 -179.5l-350 223l-195 -1108h389l62 344q32 187 130 280t253 93h32zM1065 1591h-281l-137 -129l-96 129h-287l232 -383h204z" />
    <glyph glyph-name="Sacute" unicode="&#x15a;" horiz-adv-x="1345" 
d="M862 403q-18 -98 -203 -98q-166 0 -334.5 74.5t-283.5 189.5l-64 -356q110 -119 276.5 -178.5t354.5 -59.5q241 0 414 105t231 291q29 113 15.5 196.5t-57.5 136.5t-108 90.5t-136 58t-141.5 39t-124.5 34.5t-85.5 43.5t-23.5 66.5q7 41 59.5 72t143.5 31
q134 0 276.5 -67.5t241.5 -166.5l63 363q-202 190 -555 190q-111 0 -214.5 -28.5t-191.5 -83.5t-149.5 -144.5t-81.5 -202.5q-15 -84 0 -151.5t52.5 -111.5t90.5 -77.5t114 -54t123 -37.5t118 -31.5t98.5 -31t65 -42t16.5 -59.5zM1042 1978l-278 -379h274l346 263z" />
    <glyph glyph-name="sacute" unicode="&#x15b;" horiz-adv-x="1024" 
d="M567 311q-11 -63 -137 -63q-85 0 -194 41.5t-195 105.5l-55 -317q118 -52 215 -77.5t207 -25.5q205 0 345.5 96.5t170.5 264.5q14 78 -7 138.5t-65 96.5t-100 63t-114 45t-105.5 34t-75.5 37.5t-23 50.5q10 57 101 57q69 0 179 -36.5t185 -84.5l55 314
q-105 44 -181.5 61.5t-186.5 17.5q-197 0 -338.5 -97.5t-171.5 -268.5q-13 -71 1.5 -127.5t48.5 -92.5t80.5 -64t97.5 -44t99.5 -31t86.5 -26t59.5 -28.5t17.5 -39.5zM762 1640l-279 -378h275l346 262z" />
    <glyph glyph-name="Scircumflex" unicode="&#x15c;" horiz-adv-x="1345" 
d="M862 403q-18 -98 -203 -98q-166 0 -334.5 74.5t-283.5 189.5l-64 -356q110 -119 276.5 -178.5t354.5 -59.5q241 0 414 105t231 291q29 113 15.5 196.5t-57.5 136.5t-108 90.5t-136 58t-141.5 39t-124.5 34.5t-85.5 43.5t-23.5 66.5q7 41 59.5 72t143.5 31
q134 0 276.5 -67.5t241.5 -166.5l63 363q-202 190 -555 190q-111 0 -214.5 -28.5t-191.5 -83.5t-149.5 -144.5t-81.5 -202.5q-15 -84 0 -151.5t52.5 -111.5t90.5 -77.5t114 -54t123 -37.5t118 -31.5t98.5 -31t65 -42t16.5 -59.5zM1260 1593l-220 381h-202l-355 -381h269
l143 125l98 -125h267z" />
    <glyph glyph-name="scircumflex" unicode="&#x15d;" horiz-adv-x="1024" 
d="M567 311q-11 -63 -137 -63q-85 0 -194 41.5t-195 105.5l-55 -317q118 -52 215 -77.5t207 -25.5q205 0 345.5 96.5t170.5 264.5q14 78 -7 138.5t-65 96.5t-100 63t-114 45t-105.5 34t-75.5 37.5t-23 50.5q10 57 101 57q69 0 179 -36.5t185 -84.5l55 314
q-105 44 -181.5 61.5t-186.5 17.5q-197 0 -338.5 -97.5t-171.5 -268.5q-13 -71 1.5 -127.5t48.5 -92.5t80.5 -64t97.5 -44t99.5 -31t86.5 -26t59.5 -28.5t17.5 -39.5zM989 1255l-219 381h-203l-354 -381h268l144 125l98 -125h266z" />
    <glyph glyph-name="Scedilla" unicode="&#x15e;" horiz-adv-x="1343" 
d="M862 403q-18 -98 -203 -98q-166 0 -334.5 74.5t-283.5 189.5l-64 -356q110 -119 276.5 -178.5t354.5 -59.5q241 0 414 105t231 291q29 113 15.5 196.5t-57.5 136.5t-108 90.5t-136 58t-141.5 39t-124.5 34.5t-85.5 43.5t-23.5 66.5q7 41 59.5 72t143.5 31
q134 0 276.5 -67.5t241.5 -166.5l63 363q-202 190 -555 190q-111 0 -214.5 -28.5t-191.5 -83.5t-149.5 -144.5t-81.5 -202.5q-15 -84 0 -151.5t52.5 -111.5t90.5 -77.5t114 -54t123 -37.5t118 -31.5t98.5 -31t65 -42t16.5 -59.5zM557 -139l111 139h-144l-182 -225l53 -54
q53 21 97 21q37 0 55 -13t14 -38q-4 -29 -42.5 -44.5t-76.5 -15.5q-74 0 -141 33l-74 -115q100 -53 213 -53q46 0 90.5 10t87.5 31.5t74 61.5t41 94q13 79 -36.5 123.5t-123.5 44.5h-16z" />
    <glyph glyph-name="scedilla" unicode="&#x15f;" horiz-adv-x="1024" 
d="M567 311q-11 -63 -137 -63q-85 0 -194 41.5t-195 105.5l-55 -317q118 -52 215 -77.5t207 -25.5q205 0 345.5 96.5t170.5 264.5q14 78 -7 138.5t-65 96.5t-100 63t-114 45t-105.5 34t-75.5 37.5t-23 50.5q10 57 101 57q69 0 179 -36.5t185 -84.5l55 314
q-105 44 -181.5 61.5t-186.5 17.5q-197 0 -338.5 -97.5t-171.5 -268.5q-13 -71 1.5 -127.5t48.5 -92.5t80.5 -64t97.5 -44t99.5 -31t86.5 -26t59.5 -28.5t17.5 -39.5zM397 -139l111 139h-143l-183 -225l54 -54q52 21 96 21q37 0 55 -13t14 -38q-4 -29 -42 -44.5t-76 -15.5
q-75 0 -142 33l-73 -115q100 -53 213 -53q46 0 90.5 10t87.5 31.5t73.5 61.5t40.5 94q13 80 -36 124t-123 44h-17z" />
    <glyph glyph-name="Scaron" unicode="&#x160;" horiz-adv-x="1345" 
d="M862 403q-18 -98 -203 -98q-166 0 -334.5 74.5t-283.5 189.5l-64 -356q110 -119 276.5 -178.5t354.5 -59.5q241 0 414 105t231 291q29 113 15.5 196.5t-57.5 136.5t-108 90.5t-136 58t-141.5 39t-124.5 34.5t-85.5 43.5t-23.5 66.5q7 41 59.5 72t143.5 31
q134 0 276.5 -67.5t241.5 -166.5l63 363q-202 190 -555 190q-111 0 -214.5 -28.5t-191.5 -83.5t-149.5 -144.5t-81.5 -202.5q-15 -84 0 -151.5t52.5 -111.5t90.5 -77.5t114 -54t123 -37.5t118 -31.5t98.5 -31t65 -42t16.5 -59.5zM1335 1962h-280l-137 -129l-97 129h-286
l231 -383h205z" />
    <glyph glyph-name="scaron" unicode="&#x161;" horiz-adv-x="1024" 
d="M567 311q-11 -63 -137 -63q-85 0 -194 41.5t-195 105.5l-55 -317q118 -52 215 -77.5t207 -25.5q205 0 345.5 96.5t170.5 264.5q14 78 -7 138.5t-65 96.5t-100 63t-114 45t-105.5 34t-75.5 37.5t-23 50.5q10 57 101 57q69 0 179 -36.5t185 -84.5l55 314
q-105 44 -181.5 61.5t-186.5 17.5q-197 0 -338.5 -97.5t-171.5 -268.5q-13 -71 1.5 -127.5t48.5 -92.5t80.5 -64t97.5 -44t99.5 -31t86.5 -26t59.5 -28.5t17.5 -39.5zM1102 1624h-281l-137 -129l-96 129h-287l231 -383h205z" />
    <glyph glyph-name="uni0162" unicode="&#x162;" horiz-adv-x="1304" 
d="M754 0l190 1085h430l62 349h-1258l-61 -349h430l-191 -1085h398zM535 -139l110 139h-143l-183 -225l54 -54q53 21 96 21q37 0 55.5 -13.5t14.5 -37.5q-4 -29 -42.5 -44.5t-76.5 -15.5q-74 0 -141 33l-74 -115q100 -53 213 -53q46 0 90.5 10t87.5 31.5t74 61.5t41 94
q13 79 -36.5 123.5t-123.5 44.5h-16z" />
    <glyph glyph-name="uni0163" unicode="&#x163;" horiz-adv-x="903" 
d="M199 344q-62 -367 307 -367q151 0 282 64l54 305q-88 -37 -154 -37q-55 0 -76.5 26t-11.5 85l66 375h258l55 313h-258l61 342l-719 -655h213zM467 -139l111 139h-144l-182 -225l53 -54q53 21 96 21q37 0 55.5 -13.5t14.5 -37.5q-4 -29 -42.5 -44.5t-76.5 -15.5
q-74 0 -141 33l-74 -115q100 -53 213 -53q46 0 90.5 10t87.5 31.5t74 61.5t41 94q13 79 -36.5 123.5t-123.5 44.5h-16z" />
    <glyph glyph-name="Tcaron" unicode="&#x164;" horiz-adv-x="1304" 
d="M754 0l190 1085h430l62 349h-1258l-61 -349h430l-191 -1085h398zM1298 1962h-280l-137 -129l-97 129h-286l231 -383h205z" />
    <glyph glyph-name="tcaron" unicode="&#x165;" horiz-adv-x="903" 
d="M199 344q-62 -367 307 -367q151 0 282 64l54 305q-88 -37 -154 -37q-55 0 -76.5 26t-11.5 85l66 375h258l55 313h-258l61 342l-719 -655h213zM1012 1200l221 479h-256l-168 -479h203z" />
    <glyph glyph-name="Tbar" unicode="&#x166;" horiz-adv-x="1304" 
d="M754 0l190 1085h430l62 349h-1258l-61 -349h430l-191 -1085h398zM1038 582l43 239h-759l-43 -239h759z" />
    <glyph glyph-name="tbar" unicode="&#x167;" horiz-adv-x="903" 
d="M199 344q-62 -367 307 -367q151 0 282 64l54 305q-88 -37 -154 -37q-55 0 -76.5 26t-11.5 85l66 375h258l55 313h-258l61 342l-719 -655h213zM819 449l43 239h-768l-43 -239h768z" />
    <glyph glyph-name="Utilde" unicode="&#x168;" horiz-adv-x="1552" 
d="M121 629q-21 -106 -18.5 -192.5t19 -154.5t53.5 -119.5t84.5 -87.5t112.5 -58.5t138 -33t160 -10.5q336 0 531.5 161.5t256.5 504.5l139 795h-403l-141 -807q-53 -295 -316 -295q-146 0 -193 72.5t-18 232.5l140 797h-404zM784 1544q26 55 44.5 75.5t41.5 20.5
q22 0 96 -35.5t128 -35.5q174 0 311 297l-203 39q-40 -93 -80 -93q-21 0 -98.5 36t-132.5 36q-176 0 -311 -303z" />
    <glyph glyph-name="utilde" unicode="&#x169;" horiz-adv-x="1292" 
d="M70 383q-9 -50 -9 -96.5t9.5 -93.5t32.5 -85.5t58 -68.5t89.5 -47t124.5 -17q112 0 203.5 42t154.5 110l363 -152l198 1133h-389l-104 -600q-15 -88 -69 -137t-126 -49t-106 48.5t-19 137.5l105 600h-389zM596 1206q26 56 44.5 76.5t41.5 20.5q22 0 57.5 -18t79.5 -36
t86 -18q175 0 312 297l-203 39q-39 -92 -80 -92q-21 0 -99 35.5t-133 35.5q-176 0 -311 -303z" />
    <glyph glyph-name="Umacron" unicode="&#x16a;" horiz-adv-x="1552" 
d="M121 629q-21 -106 -18.5 -192.5t19 -154.5t53.5 -119.5t84.5 -87.5t112.5 -58.5t138 -33t160 -10.5q336 0 531.5 161.5t256.5 504.5l139 795h-403l-141 -807q-53 -295 -316 -295q-146 0 -193 72.5t-18 232.5l140 797h-404zM1335 1524l43 239h-760l-43 -239h760z" />
    <glyph glyph-name="umacron" unicode="&#x16b;" horiz-adv-x="1292" 
d="M70 383q-9 -50 -9 -96.5t9.5 -93.5t32.5 -85.5t58 -68.5t89.5 -47t124.5 -17q112 0 203.5 42t154.5 110l363 -152l198 1133h-389l-104 -600q-15 -88 -69 -137t-126 -49t-106 48.5t-19 137.5l105 600h-389zM1149 1186l43 239h-760l-43 -239h760z" />
    <glyph glyph-name="Ubreve" unicode="&#x16c;" horiz-adv-x="1552" 
d="M121 629q-21 -106 -18.5 -192.5t19 -154.5t53.5 -119.5t84.5 -87.5t112.5 -58.5t138 -33t160 -10.5q336 0 531.5 161.5t256.5 504.5l139 795h-403l-141 -807q-53 -295 -316 -295q-146 0 -193 72.5t-18 232.5l140 797h-404zM1147 1888q-30 -64 -70 -99.5t-84 -35.5
q-45 0 -76 36t-38 99h-213q-17 -165 61.5 -270t218.5 -105q141 0 257 104.5t157 270.5h-213z" />
    <glyph glyph-name="ubreve" unicode="&#x16d;" horiz-adv-x="1292" 
d="M70 383q-9 -50 -9 -96.5t9.5 -93.5t32.5 -85.5t58 -68.5t89.5 -47t124.5 -17q112 0 203.5 42t154.5 110l363 -152l198 1133h-389l-104 -600q-15 -88 -69 -137t-126 -49t-106 48.5t-19 137.5l105 600h-389zM958 1550q-30 -64 -69.5 -99.5t-83.5 -35.5q-45 0 -76.5 36.5
t-38.5 98.5h-213q-17 -165 62 -269.5t219 -104.5q141 0 256.5 104t156.5 270h-213z" />
    <glyph glyph-name="Uring" unicode="&#x16e;" horiz-adv-x="1552" 
d="M121 629q-21 -106 -18.5 -192.5t19 -154.5t53.5 -119.5t84.5 -87.5t112.5 -58.5t138 -33t160 -10.5q336 0 531.5 161.5t256.5 504.5l139 795h-403l-141 -807q-53 -295 -316 -295q-146 0 -193 72.5t-18 232.5l140 797h-404zM958 1548q108 0 189 70t100 178
q17 101 -45 172.5t-166 71.5q-101 0 -189.5 -72t-107.5 -174q-19 -103 46 -174.5t173 -71.5zM1001 1843q20 0 31.5 -14.5t7.5 -34.5q-3 -23 -18.5 -36t-38.5 -13q-21 0 -31 14t-6 37q3 19 19 33t36 14z" />
    <glyph glyph-name="uring" unicode="&#x16f;" horiz-adv-x="1292" 
d="M70 383q-9 -50 -9 -96.5t9.5 -93.5t32.5 -85.5t58 -68.5t89.5 -47t124.5 -17q112 0 203.5 42t154.5 110l363 -152l198 1133h-389l-104 -600q-15 -88 -69 -137t-126 -49t-106 48.5t-19 137.5l105 600h-389zM754 1176q122 0 201 68t98 179q15 102 -46 173t-165 71
q-101 0 -189.5 -72t-107.5 -174q-18 -103 44.5 -174t164.5 -71zM807 1470q48 0 39 -49q-3 -23 -18.5 -36t-39.5 -13q-20 0 -30 14t-6 37q3 19 19 33t36 14z" />
    <glyph glyph-name="Uhungarumlaut" unicode="&#x170;" horiz-adv-x="1552" 
d="M121 629q-21 -106 -18.5 -192.5t19 -154.5t53.5 -119.5t84.5 -87.5t112.5 -58.5t138 -33t160 -10.5q336 0 531.5 161.5t256.5 504.5l139 795h-403l-141 -807q-53 -295 -316 -295q-146 0 -193 72.5t-18 232.5l140 797h-404zM813 1567l385 342l-305 59l-344 -401h264z
M1288 1567l385 344l-307 57l-340 -401h262z" />
    <glyph glyph-name="uhungarumlaut" unicode="&#x171;" horiz-adv-x="1417" 
d="M70 383q-9 -50 -9 -96.5t9.5 -93.5t32.5 -85.5t58 -68.5t89.5 -47t124.5 -17q112 0 203.5 42t154.5 110l363 -152l198 1133h-389l-104 -600q-15 -88 -69 -137t-126 -49t-106 48.5t-19 137.5l105 600h-389zM641 1229l385 342l-305 59l-344 -401h264zM1116 1229l385 344
l-307 57l-340 -401h262z" />
    <glyph glyph-name="Uogonek" unicode="&#x172;" horiz-adv-x="1552" 
d="M121 629q-21 -106 -18.5 -192.5t19 -154.5t53.5 -119.5t84.5 -87.5t112.5 -58.5t138 -33t160 -10.5q336 0 531.5 161.5t256.5 504.5l139 795h-403l-141 -807q-53 -295 -316 -295q-146 0 -193 72.5t-18 232.5l140 797h-404zM821 -242q-76 -30 -119 -30q-27 0 -42 12
t-11 37q9 60 174 223h-258q-72 -69 -118 -130.5t-58 -131.5q-18 -102 45 -163.5t178 -61.5q111 0 224 55z" />
    <glyph glyph-name="uogonek" unicode="&#x173;" horiz-adv-x="1292" 
d="M70 383q-9 -50 -9 -96.5t9.5 -93.5t32.5 -85.5t58 -68.5t89.5 -47t124.5 -17q112 0 203.5 42t154.5 110l363 -152l198 1133h-389l-104 -600q-15 -88 -69 -137t-126 -49t-106 48.5t-19 137.5l105 600h-389zM1098 -242q-76 -30 -119 -30q-27 0 -42 12t-11 37q8 62 170 198
l-189 84q-118 -108 -173 -178t-68 -143q-18 -102 45 -163.5t178 -61.5q110 0 223 55z" />
    <glyph glyph-name="Wcircumflex" unicode="&#x174;" horiz-adv-x="2213" 
d="M674 604l-105 830h-419l225 -1444h346l432 825l143 -825h346l734 1444h-412l-395 -830l-129 834h-342zM1677 1593l-219 381h-203l-354 -381h268l144 125l98 -125h266z" />
    <glyph glyph-name="wcircumflex" unicode="&#x175;" horiz-adv-x="1669" 
d="M457 1108h-381l141 -1116h334l287 575l77 -575h336l539 1116h-375l-248 -561l-71 565h-322l-270 -561zM1346 1255l-220 381h-202l-355 -381h269l143 125l98 -125h267z" />
    <glyph glyph-name="Ycircumflex" unicode="&#x176;" horiz-adv-x="1460" 
d="M834 0l96 543l700 891h-444l-389 -523l-203 523h-453l387 -897l-94 -537h400zM1307 1593l-220 381h-202l-355 -381h269l143 125l98 -125h267z" />
    <glyph glyph-name="ycircumflex" unicode="&#x177;" horiz-adv-x="1214" 
d="M86 1108l270 -1120l-155 -316h329l793 1436h-399l-334 -709l-96 709h-408zM1128 1255l-219 381h-202l-355 -381h269l143 125l98 -125h266z" />
    <glyph glyph-name="Ydieresis" unicode="&#x178;" horiz-adv-x="1460" 
d="M834 0l96 543l700 891h-444l-389 -523l-203 523h-453l387 -897l-94 -537h400zM754 1976q-31 0 -61 -8t-61.5 -26.5t-55 -54.5t-33.5 -85q-17 -83 26.5 -129.5t122.5 -46.5q78 0 137.5 46.5t73.5 129.5t-28.5 128.5t-120.5 45.5zM1217 1976q-31 0 -61 -8t-61.5 -26.5
t-55 -54.5t-33.5 -85q-17 -83 26.5 -129.5t122.5 -46.5q78 0 137.5 46.5t73.5 129.5t-28.5 128.5t-120.5 45.5z" />
    <glyph glyph-name="Zacute" unicode="&#x179;" horiz-adv-x="1277" 
d="M504 336l862 809l49 289h-1243l-59 -336h694l-860 -809l-51 -289h1267l60 336h-719zM924 1978l-279 -379h275l346 263z" />
    <glyph glyph-name="zacute" unicode="&#x17a;" horiz-adv-x="1097" 
d="M504 309l608 543l45 256h-1010l-53 -309h494l-608 -543l-46 -256h1029l55 309h-514zM805 1640l-279 -378h275l346 262z" />
    <glyph glyph-name="Zdotaccent" unicode="&#x17b;" horiz-adv-x="1277" 
d="M504 336l862 809l49 289h-1243l-59 -336h694l-860 -809l-51 -289h1267l60 336h-719zM920 1929q-24 0 -47 -3t-58 -14.5t-62.5 -31.5t-52 -58t-34.5 -89q-18 -95 34.5 -147t149.5 -52q96 0 167.5 52t88.5 147t-36 145.5t-150 50.5z" />
    <glyph glyph-name="zdotaccent" unicode="&#x17c;" horiz-adv-x="1097" 
d="M504 309l608 543l45 256h-1010l-53 -309h494l-608 -543l-46 -256h1029l55 309h-514zM748 1591q-24 0 -47 -3t-58 -14.5t-62.5 -31.5t-52 -58t-34.5 -89q-18 -95 34.5 -147t149.5 -52q96 0 167.5 52t88.5 147t-36 145.5t-150 50.5z" />
    <glyph glyph-name="Zcaron" unicode="&#x17d;" horiz-adv-x="1277" 
d="M504 336l862 809l49 289h-1243l-59 -336h694l-860 -809l-51 -289h1267l60 336h-719zM1280 1962h-281l-137 -129l-96 129h-287l232 -383h204z" />
    <glyph glyph-name="zcaron" unicode="&#x17e;" horiz-adv-x="1097" 
d="M504 309l608 543l45 256h-1010l-53 -309h494l-608 -543l-46 -256h1029l55 309h-514zM1133 1591h-281l-137 -129l-97 129h-286l231 -383h205z" />
    <glyph glyph-name="florin" unicode="&#x192;" horiz-adv-x="948" 
d="M182 674l-364 -1008h389l364 1008h226l112 295h-233l55 129q27 69 68.5 99t113.5 30q47 0 76 -6l101 276q-98 25 -213 25q-195 0 -315.5 -86t-192.5 -267l-84 -200h-115l-113 -295h125z" />
    <glyph glyph-name="uni01CD" unicode="&#x1cd;" horiz-adv-x="1570" 
d="M453 256h553l59 -256h426l-356 1444h-383l-865 -1444h418zM625 565l233 408l88 -408h-321zM1434 1962h-281l-137 -129l-96 129h-287l231 -383h205z" />
    <glyph glyph-name="uni01CE" unicode="&#x1ce;" horiz-adv-x="1251" 
d="M717 285q-93 -66 -191 -66q-61 0 -98 36.5t-27 92.5q9 57 64 95t139 38q83 0 141 -28zM1157 637q42 243 -69 365t-394 122q-126 0 -231 -21.5t-223 -64.5l-47 -274q176 63 346 63q139 0 200.5 -44.5t40.5 -137.5l-4 -18q-110 43 -262 43q-198 0 -333 -90.5t-163 -257.5
q-14 -81 3 -147t60.5 -109.5t108.5 -67t146 -23.5q198 0 348 140l356 -140zM1210 1591h-280l-137 -129l-97 129h-286l231 -383h205z" />
    <glyph glyph-name="Aringacute" unicode="&#x1fa;" horiz-adv-x="1570" 
d="M944 1434q-19 0 -30.5 13t-8.5 36q3 20 20 33.5t40 13.5q19 0 31 -14t8 -35t-21.5 -34t-38.5 -13zM-113 0h418l117 195h596l47 -195h426l-375 1323q71 71 88 160q17 101 -45 172t-166 71q-101 0 -189.5 -72t-107.5 -173q-15 -92 33 -158zM940 504h-334l236 393z
M1147 2163l-279 -379h275l346 262z" />
    <glyph glyph-name="Aringacute" unicode="&#x1fb;" horiz-adv-x="1570" 
d="M944 1434q-19 0 -30.5 13t-8.5 36q3 20 20 33.5t40 13.5q19 0 31 -14t8 -35t-21.5 -34t-38.5 -13zM-113 0h418l117 195h596l47 -195h426l-375 1323q71 71 88 160q17 101 -45 172t-166 71q-101 0 -189.5 -72t-107.5 -173q-15 -92 33 -158zM940 504h-334l236 393z
M1147 2163l-279 -379h275l346 262z" />
    <glyph glyph-name="AEacute" unicode="&#x1fc;" horiz-adv-x="2062" 
d="M750 1434l-863 -1434h418l166 256h389l-45 -256h1167l60 338h-774l41 227h692l55 314h-692l37 217h764l59 338h-1474zM915 565h-272l383 627zM1473 1978l-279 -379h274l347 263z" />
    <glyph glyph-name="aeacute" unicode="&#x1fd;" horiz-adv-x="1970" 
d="M1769 389q-182 -141 -458 -141q-116 0 -174 55l759 189q15 100 12 192t-36 172t-86 139t-137 93t-189 34q-210 0 -381 -116q-112 118 -391 118q-228 0 -455 -86l-47 -274q176 63 346 63q140 0 201.5 -44.5t40.5 -137.5l-4 -18q-110 43 -262 43q-89 0 -168.5 -19t-148 -59
t-116 -109t-63.5 -161q-28 -160 91 -253.5t319 -93.5q133 0 239 27.5t234 95.5q133 -133 360 -133q117 0 238 31t223 90zM711 285q-93 -66 -191 -66q-61 0 -98 36.5t-27 92.5q9 57 64 95t139 38q83 0 141 -28zM1151 557q6 66 33.5 127t81 105.5t120.5 44.5q72 0 113.5 -47.5
t44.5 -133.5zM1255 1640l-278 -378h274l346 262z" />
    <glyph glyph-name="Oslashacute" unicode="&#x1fe;" horiz-adv-x="1675" 
d="M180 -119l217 -143l164 252q101 -19 172 -19q162 0 316.5 59.5t274.5 160.5t203.5 239.5t110.5 290.5q32 185 -21 340t-183 260l108 170l-217 143l-129 -196q-94 24 -199 24q-163 0 -317 -59t-273.5 -159t-202.5 -237.5t-110 -289.5q-35 -193 25 -354t198 -267zM551 453
q-76 105 -49 268q28 162 150 272.5t280 110.5q29 0 43 -2zM1194 956q59 -102 37 -239q-17 -91 -69 -174t-135 -141t-177 -68q-36 -4 -66 -4zM1165 1978l-278 -379h274l346 263z" />
    <glyph glyph-name="oslashacute" unicode="&#x1ff;" horiz-adv-x="1406" 
d="M971 659q11 -46 2 -106q-21 -112 -103 -189t-192 -77q-48 0 -88 16zM473 446q-12 49 0 107q19 111 102 188.5t193 77.5q56 0 88 -18zM-37 -6l133 -137l223 194q131 -78 299 -78q173 0 328.5 78.5t258 211.5t130.5 290q37 219 -73 377l188 176l-135 139l-193 -190
q-127 78 -297 78q-173 0 -328 -78.5t-257 -211.5t-129 -290q-40 -217 71 -375zM952 1640l-278 -378h274l346 262z" />
    <glyph glyph-name="uni0218" unicode="&#x218;" horiz-adv-x="1415" 
d="M942 403q-18 -98 -203 -98q-166 0 -334.5 74.5t-283.5 189.5l-64 -356q110 -119 276.5 -178.5t354.5 -59.5q241 0 414 105t231 291q29 113 15.5 196.5t-57.5 136.5t-108 90.5t-136 58t-141.5 39t-124.5 34.5t-85.5 43.5t-23.5 66.5q7 41 59 72t143 31q134 0 277 -67.5
t242 -166.5l63 363q-202 190 -555 190q-111 0 -214.5 -28.5t-191.5 -83.5t-149.5 -144.5t-81.5 -202.5q-15 -84 0 -151.5t52.5 -111.5t90.5 -77.5t114 -54t123 -37.5t118 -31.5t98.5 -31t65 -42t16.5 -59.5zM399 -610l224 479h-256l-170 -479h202z" />
    <glyph glyph-name="uni0219" unicode="&#x219;" horiz-adv-x="1044" 
d="M633 311q-11 -63 -137 -63q-85 0 -194.5 41.5t-195.5 105.5l-55 -317q118 -52 215 -77.5t207 -25.5q205 0 345.5 96.5t170.5 264.5q14 78 -7 138.5t-65 96.5t-100 63t-114 45t-105.5 34t-75 37.5t-22.5 50.5q10 57 100 57q69 0 179.5 -37t185.5 -84l55 314
q-105 44 -182 61.5t-187 17.5q-197 0 -338.5 -97.5t-171.5 -268.5q-13 -71 2 -127.5t49 -92.5t80 -64t97 -44t100 -31t87 -26t59.5 -28.5t17.5 -39.5zM223 -610l223 479h-256l-170 -479h203z" />
    <glyph glyph-name="uni021A" unicode="&#x21a;" horiz-adv-x="1304" 
d="M754 0l190 1085h430l62 349h-1258l-61 -349h430l-191 -1085h398zM352 -610l223 479h-256l-169 -479h202z" />
    <glyph glyph-name="uni021B" unicode="&#x21b;" horiz-adv-x="903" 
d="M199 344q-62 -367 307 -367q151 0 282 64l54 305q-88 -37 -154 -37q-55 0 -76.5 26t-11.5 85l66 375h258l55 313h-258l61 342l-719 -655h213zM252 -610l223 479h-256l-170 -479h203z" />
    <glyph glyph-name="uni0237" unicode="&#x237;" horiz-adv-x="585" 
d="M-213 -319q88 -15 158 -15q197 0 312 89.5t151 293.5l186 1059h-389l-182 -1042q-24 -129 -111 -129q-30 0 -76 16z" />
    <glyph glyph-name="circumflex" unicode="&#x2c6;" horiz-adv-x="747" 
d="M887 1255l-219 381h-203l-354 -381h268l143 125l99 -125h266z" />
    <glyph glyph-name="caron" unicode="&#x2c7;" horiz-adv-x="763" 
d="M971 1624h-281l-137 -129l-96 129h-287l231 -383h205z" />
    <glyph glyph-name="uni02C9" unicode="&#x2c9;" horiz-adv-x="884" 
d="M936 1186l43 239h-760l-43 -239h760z" />
    <glyph glyph-name="breve" unicode="&#x2d8;" horiz-adv-x="686" 
d="M653 1550q-30 -64 -69.5 -99.5t-83.5 -35.5q-45 0 -76.5 36.5t-38.5 98.5h-213q-17 -165 62 -269.5t219 -104.5q141 0 256.5 104t156.5 270h-213z" />
    <glyph glyph-name="dotaccent" unicode="&#x2d9;" horiz-adv-x="489" 
d="M426 1591q-24 0 -47 -3t-58 -14.5t-62.5 -31.5t-52 -58t-34.5 -89q-18 -95 34.5 -147t149.5 -52q96 0 167.5 52t88.5 147t-36 145.5t-150 50.5z" />
    <glyph glyph-name="ring" unicode="&#x2da;" horiz-adv-x="600" 
d="M426 1210q108 0 189 70t100 178q17 101 -45 172.5t-166 71.5q-101 0 -189.5 -72t-107.5 -174q-19 -103 46 -174.5t173 -71.5zM469 1505q20 0 31.5 -14.5t7.5 -34.5q-3 -23 -18.5 -36t-38.5 -13q-21 0 -31 14t-6 37q3 19 19 33t36 14z" />
    <glyph glyph-name="ogonek" unicode="&#x2db;" horiz-adv-x="821" 
d="M455 -242q-76 -30 -119 -30q-27 0 -42 12t-11 37q9 60 174 223h-258q-72 -69 -118 -130.5t-58 -131.5q-18 -102 45 -163.5t178 -61.5q110 0 223 55z" />
    <glyph glyph-name="tilde" unicode="&#x2dc;" horiz-adv-x="749" 
d="M313 1206q26 56 44.5 76.5t41.5 20.5q22 0 57.5 -18t80 -36t86.5 -18q174 0 311 297l-203 39q-39 -92 -80 -92q-21 0 -98.5 35.5t-132.5 35.5q-176 0 -311 -303z" />
    <glyph glyph-name="hungarumlaut" unicode="&#x2dd;" horiz-adv-x="964" 
d="M344 1229l385 342l-305 59l-344 -401h264zM819 1229l385 344l-307 57l-340 -401h262z" />
    <glyph glyph-name="gravecomb" unicode="&#x300;" 
d="M139 1524l256 -262h275l-148 378z" />
    <glyph glyph-name="acutecomb" unicode="&#x301;" 
d="M414 1640l-279 -378h275l346 262z" />
    <glyph glyph-name="uni0302" unicode="&#x302;" 
d="M887 1255l-219 381h-203l-354 -381h268l143 125l99 -125h266z" />
    <glyph glyph-name="tildecomb" unicode="&#x303;" 
d="M315 1206q26 56 44.5 76.5t41.5 20.5q22 0 57.5 -18t80 -36t86.5 -18q174 0 311 297l-203 39q-39 -92 -80 -92q-21 0 -98.5 35.5t-132.5 35.5q-176 0 -311 -303z" />
    <glyph glyph-name="uni0304" unicode="&#x304;" 
d="M936 1186l43 239h-760l-43 -239h760z" />
    <glyph glyph-name="uni0306" unicode="&#x306;" 
d="M653 1550q-30 -64 -69.5 -99.5t-83.5 -35.5q-45 0 -76.5 36.5t-38.5 98.5h-213q-17 -165 62 -269.5t219 -104.5q141 0 256.5 104t156.5 270h-213z" />
    <glyph glyph-name="uni0307" unicode="&#x307;" 
d="M426 1591q-24 0 -47 -3t-58 -14.5t-62.5 -31.5t-52 -58t-34.5 -89q-18 -95 34.5 -147t149.5 -52q96 0 167.5 52t88.5 147t-36 145.5t-150 50.5z" />
    <glyph glyph-name="uni0308" unicode="&#x308;" 
d="M365 1638q-83 0 -141.5 -51t-69.5 -123q-13 -84 29 -130t120 -46t137.5 46.5t73.5 129.5t-28.5 128.5t-120.5 45.5zM827 1638q-83 0 -141.5 -51t-69.5 -123q-13 -83 29.5 -129.5t120.5 -46.5t137.5 46.5t73.5 129.5t-28.5 128.5t-121.5 45.5z" />
    <glyph glyph-name="uni030A" unicode="&#x30a;" 
d="M416 1210q122 0 201 68.5t98 179.5q15 102 -46 173t-165 71q-101 0 -189.5 -72t-107.5 -174q-18 -103 44.5 -174.5t164.5 -71.5zM469 1505q48 0 39 -49q-3 -23 -18.5 -36t-38.5 -13q-21 0 -31 14t-6 37q3 19 19 33t36 14z" />
    <glyph glyph-name="uni030B" unicode="&#x30b;" 
d="M344 1229l385 342l-305 59l-344 -401h264zM819 1229l385 344l-307 57l-340 -401h262z" />
    <glyph glyph-name="uni030C" unicode="&#x30c;" 
d="M967 1591h-281l-137 -129l-96 129h-287l231 -383h205z" />
    <glyph glyph-name="uni030F" unicode="&#x30f;" 
d="M205 1524l256 -262h274l-147 378zM717 1524l256 -262h274l-147 378z" />
    <glyph glyph-name="uni0311" unicode="&#x311;" 
d="M319 1174q30 64 70 99.5t84 35.5q45 0 76.5 -36.5t38.5 -98.5h213q17 165 -62 269.5t-219 104.5q-141 0 -257 -104.5t-157 -269.5h213z" />
    <glyph glyph-name="uni0312" unicode="&#x312;" 
d="M528 1898l-342 -739h351l258 739h-267z" />
    <glyph glyph-name="uni0326" unicode="&#x326;" 
d="M86 -549l223 479h-256l-170 -479h203z" />
    <glyph glyph-name="uni0327" unicode="&#x327;" 
d="M301 -139l111 139h-144l-182 -225l53 -54q53 21 97 21q37 0 55 -13t14 -38q-4 -29 -42.5 -44.5t-76.5 -15.5q-74 0 -141 33l-74 -115q100 -53 213 -53q46 0 90.5 10t87.5 31.5t74 61.5t41 94q13 79 -36.5 123.5t-123.5 44.5h-16z" />
    <glyph glyph-name="uni0328" unicode="&#x328;" 
d="M455 -242q-76 -30 -119 -30q-27 0 -42 12t-11 37q9 60 174 223h-258q-72 -69 -118 -130.5t-58 -131.5q-18 -102 45 -163.5t178 -61.5q110 0 223 55z" />
    <glyph glyph-name="uni0374" unicode="&#x374;" horiz-adv-x="1009" 
d="M586 1724l-301 -503h274l514 503h-487z" />
    <glyph glyph-name="uni0375" unicode="&#x375;" horiz-adv-x="1009" 
d="M481 -442l301 503h-274l-514 -503h487z" />
    <glyph glyph-name="uni037E" unicode="&#x37e;" horiz-adv-x="608" 
d="M395 1130q-106 0 -177.5 -60t-90.5 -163q-20 -107 34 -166t156 -59t176.5 59t94.5 166q20 106 -35 164.5t-158 58.5zM125 -336l342 739h-350l-258 -739h266z" />
    <glyph glyph-name="tonos" unicode="&#x384;" horiz-adv-x="1009" 
d="M586 1724l-279 -378h275l491 378h-487z" />
    <glyph glyph-name="dieresistonos" unicode="&#x385;" horiz-adv-x="1325" 
d="M455 1653q-66 0 -119 -49t-62 -111q-11 -64 21 -111t104 -47q69 0 122.5 47.5t64.5 110.5q10 63 -26 111.5t-105 48.5zM756 1712l-189 -379h246l369 379h-426zM1075 1493q-11 -64 21 -111t104 -47q69 0 122 47.5t64 110.5q10 63 -26 111.5t-105 48.5q-65 0 -118 -49
t-62 -111z" />
    <glyph glyph-name="Alphatonos" unicode="&#x386;" horiz-adv-x="1656" 
d="M539 256h553l59 -256h426l-356 1444h-383l-865 -1444h418zM711 565l233 408l88 -408h-321zM322 1622l-279 -379h274l492 379h-487z" />
    <glyph glyph-name="anoteleia" unicode="&#x387;" horiz-adv-x="716" 
d="M426 944q-28 0 -55.5 -4.5t-63 -19.5t-63.5 -38.5t-52 -65t-34 -95.5q-21 -107 32.5 -166t155.5 -59t177 59t95 166q20 106 -35 164.5t-157 58.5z" />
    <glyph glyph-name="Epsilontonos" unicode="&#x388;" horiz-adv-x="1562" 
d="M655 338l41 227h688l56 314h-688l36 217h760l60 338h-1153l-252 -1434h1163l59 338h-770zM25 1622l-279 -379h274l492 379h-487z" />
    <glyph glyph-name="Etatonos" unicode="&#x389;" horiz-adv-x="1728" 
d="M459 1434l-252 -1434h397l96 545h510l-96 -545h397l252 1434h-397l-94 -537h-510l94 537h-397zM25 1622l-279 -379h274l492 379h-487z" />
    <glyph glyph-name="Iotatonos" unicode="&#x38a;" horiz-adv-x="636" 
d="M422 0l252 1434h-400l-251 -1434h399zM-109 1622l-278 -379h274l492 379h-488z" />
    <glyph glyph-name="Omicrontonos" unicode="&#x38c;" horiz-adv-x="1687" 
d="M735 -29q184 0 342 59.5t269.5 161.5t185 231.5t104.5 276.5q24 130 10 244.5t-69 209.5t-137.5 163.5t-196 106.5t-244.5 38q-163 0 -317 -59t-273.5 -159t-202.5 -237.5t-110 -289.5t7.5 -290t118 -238t217 -159t296.5 -59zM934 1104q91 0 158 -33t99.5 -87t45 -123.5
t-3.5 -143.5q-27 -158 -150.5 -272.5t-283.5 -114.5q-104 0 -179 54.5t-104.5 144t-11.5 192.5q28 159 149.5 271t280.5 112zM158 1622l-279 -379h275l491 379h-487z" />
    <glyph glyph-name="Upsilontonos" unicode="&#x38e;" horiz-adv-x="1693" 
d="M1057 0l96 543l700 891h-444l-389 -523l-203 523h-452l387 -897l-95 -537h400zM-47 1622l-279 -379h275l491 379h-487z" />
    <glyph glyph-name="Omegatonos" unicode="&#x38f;" horiz-adv-x="1757" 
d="M840 4h719l59 338h-334q91 37 169.5 120t125.5 178.5t63 188.5q23 126 4 227t-71.5 177t-133.5 127t-183.5 76.5t-221.5 25.5t-230 -25t-210.5 -77t-178.5 -126.5t-134.5 -178t-77.5 -226.5q-14 -66 -6.5 -141t28.5 -141t64 -121.5t100 -83.5h-334l-59 -338h719l63 358
q-113 48 -158.5 152t-21.5 238q26 154 122.5 253t246.5 99q154 0 217.5 -96.5t36.5 -255.5q-24 -134 -106 -235.5t-214 -154.5zM158 1622l-279 -379h275l491 379h-487z" />
    <glyph glyph-name="iotadieresistonos" unicode="&#x390;" horiz-adv-x="905" 
d="M506 0l194 1108h-389l-194 -1108h389zM240 1653q-66 0 -119 -49t-62 -111q-11 -64 21 -111t104 -47q69 0 122.5 47.5t64.5 110.5q10 63 -26 111.5t-105 48.5zM541 1712l-189 -379h246l369 379h-426zM860 1493q-11 -64 21 -111t104 -47q69 0 122 47.5t64 110.5
q10 63 -26 111.5t-105 48.5q-66 0 -118.5 -49t-61.5 -111z" />
    <glyph glyph-name="Alpha" unicode="&#x391;" horiz-adv-x="1570" 
d="M453 256h553l59 -256h426l-356 1444h-383l-865 -1444h418zM625 565l233 408l88 -408h-321z" />
    <glyph glyph-name="Beta" unicode="&#x392;" horiz-adv-x="1470" 
d="M274 1434l-251 -1434h735q258 0 421 106.5t195 292.5q48 267 -221 351q237 94 277 323q31 169 -83 265t-341 96h-732zM561 862l45 252h256q87 0 127 -31.5t29 -91.5q-10 -63 -64 -96t-145 -33h-248zM467 319l45 265h301q96 0 140.5 -34.5t33.5 -94.5q-11 -64 -67.5 -100
t-147.5 -36h-305z" />
    <glyph glyph-name="Gamma" unicode="&#x393;" horiz-adv-x="1290" 
d="M420 0l190 1085h750l61 349h-1147l-251 -1434h397z" />
    <glyph glyph-name="Epsilon" unicode="&#x395;" horiz-adv-x="1382" 
d="M475 338l41 227h688l56 314h-689l37 217h760l59 338h-1153l-251 -1434h1163l59 338h-770z" />
    <glyph glyph-name="Zeta" unicode="&#x396;" horiz-adv-x="1277" 
d="M504 336l862 809l49 289h-1243l-57 -336h694l-862 -809l-51 -289h1267l60 336h-719z" />
    <glyph glyph-name="Eta" unicode="&#x397;" horiz-adv-x="1544" 
d="M274 1434l-251 -1434h397l96 545h510l-96 -545h397l252 1434h-397l-95 -537h-509l94 537h-398z" />
    <glyph glyph-name="Theta" unicode="&#x398;" horiz-adv-x="1695" 
d="M743 -29q148 0 280 39t233.5 107t181.5 160.5t131.5 199t75.5 223.5q24 130 10 244.5t-69 209.5t-137.5 163.5t-196 106.5t-244.5 38q-217 0 -412.5 -100t-325.5 -270.5t-166 -374.5q-27 -152 7.5 -290t118 -238t217 -159t296.5 -59zM942 1104q91 0 158 -33t99.5 -87
t45 -123.5t-3.5 -143.5q-27 -158 -150.5 -272.5t-283.5 -114.5q-104 0 -179 54.5t-104.5 144t-11.5 192.5q28 159 149.5 271t280.5 112zM629 565h444l57 334h-444z" />
    <glyph glyph-name="Iota" unicode="&#x399;" horiz-adv-x="636" 
d="M422 0l252 1434h-400l-251 -1434h399z" />
    <glyph glyph-name="Kappa" unicode="&#x39a;" horiz-adv-x="1482" 
d="M569 852l103 582h-398l-251 -1434h397l133 754l373 -754h477l-418 817l651 617h-471z" />
    <glyph glyph-name="Lambda" unicode="&#x39b;" horiz-adv-x="1550" 
d="M1044 0l-196 973l-543 -973h-418l854 1444h383l346 -1444h-426z" />
    <glyph glyph-name="Mu" unicode="&#x39c;" horiz-adv-x="1597" 
d="M475 819l270 -557l469 561l-145 -823h395l252 1434h-420l-438 -555l-246 555h-419l-252 -1434h389z" />
    <glyph glyph-name="Nu" unicode="&#x39d;" horiz-adv-x="1593" 
d="M1102 676l-457 758h-371l-251 -1434h393l139 786l473 -786h348l252 1434h-393z" />
    <glyph glyph-name="Xi" unicode="&#x39e;" horiz-adv-x="1363" 
d="M205 1075h1143l61 359h-1143zM4 0h1163l64 358h-1163zM184 555h1000l59 334h-999z" />
    <glyph glyph-name="Omicron" unicode="&#x39f;" horiz-adv-x="1695" 
d="M741 -29q184 0 342 59.5t269.5 161.5t185 231.5t104.5 276.5q32 158 -1 300t-118 243t-219.5 160t-297.5 59q-217 0 -412.5 -100t-325.5 -270.5t-166 -374.5q-27 -152 7.5 -290t118 -238t217 -159t296.5 -59zM940 1104q91 0 158 -33t99.5 -87t45 -123.5t-3.5 -143.5
q-27 -158 -150.5 -272.5t-283.5 -114.5q-104 0 -179 54.5t-104.5 144t-11.5 192.5q28 159 149.5 271t280.5 112z" />
    <glyph glyph-name="Pi" unicode="&#x3a0;" horiz-adv-x="1521" 
d="M274 1434l-251 -1434h397l190 1081h490l-191 -1081h398l254 1444z" />
    <glyph glyph-name="Rho" unicode="&#x3a1;" horiz-adv-x="1376" 
d="M274 1434l-251 -1434h397l72 410h196q180 0 328.5 58.5t250 177.5t130.5 284q42 237 -95.5 370.5t-412.5 133.5h-615zM547 721l67 379h187q111 0 161 -48.5t33 -140.5q-14 -86 -84.5 -138t-175.5 -52h-188z" />
    <glyph glyph-name="Sigma" unicode="&#x3a3;" horiz-adv-x="1257" 
d="M119 1145l291 -426l-463 -430l-51 -289h1185l60 336h-637l411 383l-256 379h592l58 336h-1141z" />
    <glyph glyph-name="Tau" unicode="&#x3a4;" horiz-adv-x="1304" 
d="M754 0l190 1085h430l62 349h-1258l-61 -349h430l-191 -1085h398z" />
    <glyph glyph-name="Upsilon" unicode="&#x3a5;" horiz-adv-x="1460" 
d="M834 0l96 543l700 891h-444l-389 -523l-203 523h-453l387 -897l-94 -537h400z" />
    <glyph glyph-name="Phi" unicode="&#x3a6;" horiz-adv-x="1980" 
d="M1339 1444h-376l-17 -94h-22q-165 0 -309 -48t-248.5 -131.5t-173 -197.5t-91.5 -246q-24 -132 5 -246t104 -197.5t202 -131.5t292 -48h22l-20 -114h376l21 114h22q326 0 548 175.5t270 451.5q23 132 -6 245t-103.5 196.5t-200 130.5t-288.5 47h-23zM1264 1008
q134 0 215.5 -80.5t58.5 -204.5q-21 -123 -133 -203t-242 -80zM786 440q-88 0 -156.5 32t-104 99t-19.5 156q22 130 133 205.5t248 75.5z" />
    <glyph glyph-name="Chi" unicode="&#x3a7;" horiz-adv-x="1454" 
d="M633 1434h-457l348 -705l-620 -729h446l352 432l199 -432h457l-363 733l594 701h-446l-326 -404z" />
    <glyph glyph-name="Psi" unicode="&#x3a8;" horiz-adv-x="1949" 
d="M1509 924q-27 -151 -112.5 -228.5t-210.5 -77.5l143 816h-399l-144 -816q-125 0 -182.5 77.5t-30.5 228.5l89 510h-400l-90 -519q-55 -311 91 -483t456 -172l-45 -260h399l45 260q325 0 529 171.5t262 494.5l88 508h-400z" />
    <glyph glyph-name="uni03A9" unicode="&#x3a9;" horiz-adv-x="1765" 
d="M848 4h719l59 338h-334q91 37 169.5 120t126 178.5t63.5 188.5q23 126 4 227t-71.5 177t-134 127t-184 76.5t-221.5 25.5t-230 -25t-210.5 -77t-178.5 -126.5t-134.5 -178t-77.5 -226.5q-14 -66 -6.5 -141t28.5 -141t64 -121.5t100 -83.5h-333l-60 -338h719l63 358
q-113 48 -158.5 152t-21.5 238q26 154 122.5 253t246.5 99q154 0 217.5 -96.5t36.5 -255.5q-24 -134 -106 -235.5t-214 -154.5z" />
    <glyph glyph-name="Iotadieresis" unicode="&#x3aa;" horiz-adv-x="614" 
d="M408 0l251 1434h-399l-252 -1434h400zM328 1976q-31 0 -61 -8t-61.5 -26.5t-55 -54.5t-33.5 -85q-17 -83 26.5 -129.5t122.5 -46.5q78 0 137.5 46.5t73.5 129.5t-28.5 128.5t-120.5 45.5zM791 1976q-31 0 -61 -8t-61.5 -26.5t-55 -54.5t-33.5 -85q-17 -83 26.5 -129.5
t122.5 -46.5q78 0 137.5 46.5t73.5 129.5t-28.5 128.5t-120.5 45.5z" />
    <glyph glyph-name="Upsilondieresis" unicode="&#x3ab;" horiz-adv-x="1460" 
d="M834 0l96 543l700 891h-444l-389 -523l-203 523h-453l387 -897l-94 -537h400zM752 1976q-20 0 -42 -4t-49.5 -15.5t-50 -29.5t-42 -50.5t-27.5 -74.5q-14 -83 28.5 -129.5t120.5 -46.5t137.5 46.5t73.5 129.5t-28.5 128.5t-120.5 45.5zM1214 1976q-26 0 -54.5 -7t-61 -24
t-58.5 -54t-36 -89q-14 -83 28.5 -129.5t120.5 -46.5t137.5 46.5t73.5 129.5t-28.5 128.5t-121.5 45.5z" />
    <glyph glyph-name="alphatonos" unicode="&#x3ac;" horiz-adv-x="1384" 
d="M444 571q19 107 87.5 171.5t170.5 64.5q106 0 157.5 -73.5t33.5 -176.5t-94 -179.5t-176 -76.5q-97 0 -147.5 79.5t-31.5 190.5zM1178 0l194 1108h-389l-25 -147q-102 172 -307 172q-93 0 -179 -32t-153 -87.5t-121 -129.5t-89 -158t-50 -173q-15 -72 -11 -143
t18.5 -135.5t48.5 -119t79.5 -95t111 -63t143.5 -22.5q112 0 188.5 39.5t177.5 132.5zM965 1724l-279 -378h275l491 378h-487z" />
    <glyph glyph-name="epsilontonos" unicode="&#x3ad;" horiz-adv-x="1175" 
d="M408 358q-5 -30 43 -42.5t110 -12.5q81 0 164 19t203 71l12 -315q-233 -105 -469 -105q-100 0 -187 22t-151.5 63.5t-95.5 107t-17 145.5q15 93 87 161t188 99q-171 74 -141 246q14 80 62.5 141.5t120.5 99t158.5 56.5t184.5 19q236 0 407 -123l-149 -299
q-137 92 -279 92q-56 0 -94.5 -14t-42.5 -39q-4 -17 6.5 -28t33.5 -16.5t48 -7.5t60 -2h125l-50 -280h-174q-153 0 -163 -58zM823 1724l-278 -378h274l492 378h-488z" />
    <glyph glyph-name="etatonos" unicode="&#x3ae;" horiz-adv-x="1341" 
d="M1233 725q17 102 0 178.5t-62 127.5t-107 76.5t-136 25.5q-190 0 -363 -181l-362 156l-195 -1108h389l107 600q14 87 70 136.5t126 49.5q68 0 103 -49t20 -137l-106 -600h389zM983 1724l-278 -378h274l491 378h-487z" />
    <glyph glyph-name="iotatonos" unicode="&#x3af;" horiz-adv-x="591" 
d="M397 0l195 1108h-389l-195 -1108h389zM565 1724l-278 -378h274l492 378h-488z" />
    <glyph glyph-name="upsilondieresistonos" unicode="&#x3b0;" horiz-adv-x="1292" 
d="M1294 1108h-389l-106 -606q-14 -85 -65 -140t-132 -55t-109.5 54t-13.5 141l107 606h-389l-109 -623q-45 -254 76 -382t381 -128q257 0 426 129t215 390zM444 1653q-66 0 -118.5 -49t-61.5 -111q-11 -64 21 -111t104 -47q69 0 122 47.5t64 110.5q10 63 -26 111.5
t-105 48.5zM745 1712l-188 -379h246l368 379h-426zM1065 1493q-11 -64 21 -111t104 -47q69 0 122 47.5t64 110.5q10 63 -26 111.5t-105 48.5q-65 0 -118 -49t-62 -111z" />
    <glyph glyph-name="alpha" unicode="&#x3b1;" horiz-adv-x="1384" 
d="M444 571q19 107 87.5 171.5t170.5 64.5q106 0 157.5 -73.5t33.5 -176.5t-94 -179.5t-176 -76.5q-97 0 -147.5 79.5t-31.5 190.5zM1178 0l194 1108h-389l-25 -147q-102 172 -307 172q-93 0 -179 -32t-153 -87.5t-121 -129.5t-89 -158t-50 -173q-15 -72 -11 -143
t18.5 -135.5t48.5 -119t79.5 -95t111 -63t143.5 -22.5q112 0 188.5 39.5t177.5 132.5z" />
    <glyph glyph-name="beta" unicode="&#x3b2;" horiz-adv-x="1345" 
d="M496 553q-21 -115 34 -183.5t154 -68.5q77 0 136 49t71 119q15 78 -34 127t-171 49l35 207q42 0 76 12.5t54.5 30t35 42t21 44.5t10.5 41q14 78 -27.5 118t-106.5 40q-74 0 -135.5 -53t-79.5 -146zM1262 408q-25 -142 -104.5 -242t-186.5 -145.5t-232 -45.5
q-203 0 -317 168l-82 -471h-389l229 1305q43 241 223.5 386.5t444.5 145.5q247 0 370.5 -120t90.5 -304q-19 -112 -91 -189t-176 -114q128 -39 187.5 -132t32.5 -242z" />
    <glyph glyph-name="gamma" unicode="&#x3b3;" horiz-adv-x="1216" 
d="M649 -328l64 367l612 1069h-403l-326 -647l-100 647h-410l238 -1075l-64 -361h389z" />
    <glyph glyph-name="delta" unicode="&#x3b4;" horiz-adv-x="1335" 
d="M698 743q111 0 160 -65t33 -158q-16 -90 -89.5 -153.5t-174.5 -63.5t-153.5 64t-37.5 157q15 86 87 152.5t175 66.5zM862 1196h348l56 309h-918l-55 -309l350 -199q-91 10 -186 -19.5t-177 -89.5t-142.5 -156.5t-80.5 -211.5q-26 -147 27 -271.5t179.5 -200t301.5 -75.5
q269 0 466 156.5t239 394.5q31 176 -27.5 307.5t-200.5 233.5z" />
    <glyph glyph-name="epsilon" unicode="&#x3b5;" horiz-adv-x="1093" 
d="M408 358q-5 -30 43 -42.5t110 -12.5q81 0 164 19t203 71l12 -315q-233 -105 -469 -105q-100 0 -187 22t-151.5 63.5t-95.5 107t-17 145.5q15 93 87 161t188 99q-171 74 -141 246q14 80 62.5 141.5t120.5 99t158.5 56.5t184.5 19q236 0 407 -123l-149 -299
q-137 92 -279 92q-56 0 -94.5 -14t-42.5 -39q-4 -17 6.5 -28t33.5 -16.5t48 -7.5t60 -2h125l-50 -280h-174q-153 0 -163 -58z" />
    <glyph glyph-name="zeta" unicode="&#x3b6;" horiz-adv-x="983" 
d="M1102 1221q-285 -159 -463 -344.5t-209 -358.5q-19 -98 30.5 -157t174.5 -93q153 -42 208.5 -117t33.5 -194q-22 -127 -138 -299l-321 27q84 105 96 178q17 88 -111 123q-420 114 -352 503q32 186 178.5 367.5t391.5 341.5h-349l56 307h825z" />
    <glyph glyph-name="eta" unicode="&#x3b7;" horiz-adv-x="1300" 
d="M1233 725q17 102 0 178.5t-62 127.5t-107 76.5t-136 25.5q-190 0 -363 -181l-362 156l-195 -1108h389l107 600q14 87 70 136.5t126 49.5q68 0 103 -49t20 -137l-106 -600h389z" />
    <glyph glyph-name="theta" unicode="&#x3b8;" horiz-adv-x="1302" 
d="M1270 752q22 135 22 251t-30.5 209.5t-86 159.5t-145 101.5t-207.5 35.5q-274 0 -467.5 -209t-255.5 -561q-17 -94 -19.5 -183.5t10.5 -177t47.5 -160t88 -128t136 -86.5t186.5 -31q126 0 235.5 46t188 121.5t140.5 178.5t99 210t58 223zM518 903q91 277 244 277
q150 0 145 -277h-389zM854 594q-12 -46 -32.5 -92.5t-51.5 -93t-75 -76t-93 -29.5q-33 0 -58.5 13.5t-40.5 39.5t-24.5 53t-13 64t-4.5 62.5t0 58.5h393z" />
    <glyph glyph-name="iota" unicode="&#x3b9;" horiz-adv-x="591" 
d="M397 0l195 1108h-389l-195 -1108h389z" />
    <glyph glyph-name="kappa" unicode="&#x3ba;" horiz-adv-x="1247" 
d="M526 737l66 371h-389l-195 -1108h389l103 580l221 -580h428l-279 664l463 444h-440z" />
    <glyph glyph-name="lambda" unicode="&#x3bb;" horiz-adv-x="1220" 
d="M522 1087l-626 -1087h407l338 668l92 -668h400l-215 1081q-17 84 -28.5 129.5t-39 111.5t-61.5 100.5t-93.5 60.5t-138.5 26q-166 0 -360 -96l26 -295q48 28 72.5 40.5t66.5 27t76 14.5q46 0 69 -31.5t15 -78.5v-3z" />
    <glyph glyph-name="uni03BC" unicode="&#x3bc;" horiz-adv-x="1298" 
d="M332 -328h-389l252 1436h389l-105 -600q-17 -89 18 -137.5t107 -48.5q71 0 124.5 49t70.5 137l104 600h389l-194 -1108l-363 152q-95 -177 -207 -177q-48 0 -82 29t-45 70z" />
    <glyph glyph-name="nu" unicode="&#x3bd;" horiz-adv-x="1218" 
d="M782 -8l639 1116h-403l-326 -647l-100 647h-410l246 -1116h354z" />
    <glyph glyph-name="xi" unicode="&#x3be;" horiz-adv-x="972" 
d="M33 391q-9 -65 -6.5 -116t24 -93t49 -73.5t69 -56.5t83 -41.5t92.5 -30.5q46 -12 75.5 -29t39.5 -33t14.5 -33t-0.5 -30q-12 -70 -92 -170l319 -27q59 87 92.5 153.5t45.5 139.5q42 258 -228 315q-106 23 -155.5 68t-38.5 108q9 51 43.5 84.5t95 51t130 24t167.5 6.5
l55 312q-156 0 -224 38t-58 95q5 29 22 50t48.5 35t66.5 22.5t88 12.5t100 5.5t115 1.5l57 325h-831l-55 -311h182q-158 -73 -178 -190q-14 -81 41.5 -137t162.5 -97q-171 -41 -279 -142.5t-132 -236.5z" />
    <glyph glyph-name="omicron" unicode="&#x3bf;" horiz-adv-x="1345" 
d="M569 -27q291 0 482 160t235 424q25 158 -29.5 289t-181 209t-299.5 78q-130 0 -253 -46.5t-217 -124.5t-159.5 -185t-85.5 -224q-28 -157 26.5 -290t181.5 -211.5t300 -78.5zM715 803q116 0 164 -71.5t28 -178.5q-21 -104 -97.5 -177t-178.5 -73q-101 0 -155.5 75
t-35.5 179q18 103 95 174.5t180 71.5z" />
    <glyph glyph-name="pi" unicode="&#x3c0;" horiz-adv-x="1280" 
d="M1280 1108h-1077l-195 -1108h389l142 799h299l-142 -799h389z" />
    <glyph glyph-name="rho" unicode="&#x3c1;" horiz-adv-x="1374" 
d="M662 301q117 0 185 72.5t87 183.5q18 104 -33 177t-151 73q-94 0 -171.5 -71.5t-95.5 -182.5q-19 -105 31 -178.5t148 -73.5zM100 555q31 175 135 307.5t254 201.5t322 69q127 0 231 -41.5t172.5 -115.5t96.5 -183t6 -238q-19 -110 -69.5 -212.5t-125 -185.5t-179 -132.5
t-220.5 -49.5q-102 0 -176.5 37.5t-130.5 122.5l-82 -463h-389z" />
    <glyph glyph-name="uni03C2" unicode="&#x3c2;" horiz-adv-x="1132" 
d="M702 -342q127 127 152 258q21 115 -37 197t-186 153q-21 12 -37 21t-35.5 22.5t-33.5 25t-29.5 28t-25 32.5t-18.5 36.5t-12.5 42.5t-3 48.5t5.5 55.5q15 93 86 159t162 66q65 0 115 -30t78 -85l237 256q-61 91 -167.5 138.5t-233.5 47.5q-164 0 -306.5 -81t-233.5 -215
t-120 -295q-11 -79 -11 -142.5t17.5 -118.5t41.5 -97.5t60.5 -79t75 -62.5t85.5 -49q37 -18 54.5 -28t45.5 -30.5t38 -44.5t5 -53q-15 -81 -119 -149z" />
    <glyph glyph-name="sigma" unicode="&#x3c3;" horiz-adv-x="1441" 
d="M1165 795q147 -96 113 -287q-29 -162 -135.5 -285.5t-256 -186.5t-317.5 -63q-132 0 -239 44.5t-173 120.5t-92.5 180.5t-5.5 222.5q42 243 243 405t470 162h748l-56 -313h-299zM631 303q105 0 179 66.5t95 171.5q20 106 -33.5 171.5t-160.5 65.5q-106 0 -180 -63.5
t-93 -169.5q-18 -96 35.5 -169t157.5 -73z" />
    <glyph glyph-name="tau" unicode="&#x3c4;" horiz-adv-x="946" 
d="M119 1108h905l-55 -313h-258l-66 -375q-10 -59 11.5 -85t76.5 -26q72 0 154 37l-53 -305q-131 -64 -283 -64q-180 0 -260.5 88t-46.5 279l78 451h-259z" />
    <glyph glyph-name="upsilon" unicode="&#x3c5;" horiz-adv-x="1292" 
d="M1294 1108h-389l-106 -606q-14 -85 -65 -140t-132 -55t-109.5 54t-13.5 141l107 606h-389l-109 -623q-45 -254 76 -382t381 -128q257 0 426 129t215 390z" />
    <glyph glyph-name="phi" unicode="&#x3c6;" horiz-adv-x="1808" 
d="M1038 295q140 0 223 67.5t125 210.5q12 42 14.5 81t-5.5 75.5t-36 58t-75 21.5q-75 0 -120 -53.5t-70 -151.5zM610 -6q-134 10 -241.5 56t-181 124t-102.5 194.5t-3 258.5q46 264 303 510h365q-145 -153 -214 -267t-92 -239q-59 -336 220 -336l47 260q101 582 600 582
q171 0 283.5 -71t152.5 -186.5t14 -258.5q-20 -113 -88.5 -223.5t-169.5 -198t-237.5 -143.5t-280.5 -62l-55 -322h-375z" />
    <glyph glyph-name="chi" unicode="&#x3c7;" horiz-adv-x="1177" 
d="M854 1108l-225 -354l-103 354h-420l250 -702l-508 -734h410l240 369l104 -369h420l-252 740l496 696h-412z" />
    <glyph glyph-name="psi" unicode="&#x3c8;" horiz-adv-x="1847" 
d="M571 -328h390l53 303q129 0 246.5 31t217.5 92.5t169 163t92 232.5l108 614h-389l-108 -614q-15 -90 -88 -138.5t-191 -48.5l211 1188h-389l-211 -1188q-116 0 -168 48t-37 139l109 614h-389l-109 -623q-18 -104 1 -190t68 -144.5t122 -98.5t160 -58.5t186 -18.5z" />
    <glyph glyph-name="omega" unicode="&#x3c9;" horiz-adv-x="1882" 
d="M1192 897h-389l-66 -375q-19 -104 -65 -161.5t-113 -57.5q-77 0 -107.5 76t-5.5 209q22 123 93.5 244.5t244.5 304.5h-389q-280 -265 -332 -572q-15 -99 -11 -187t36.5 -162.5t84.5 -128t132.5 -84t181.5 -30.5q116 0 205 37.5t176 124.5q50 -78 123.5 -120t200.5 -42
q249 0 417 161.5t216 430.5q26 152 -2 289.5t-129 282.5h-389q108 -183 137.5 -304t7.5 -245q-25 -134 -82 -209.5t-133 -75.5q-68 0 -98 58.5t-11 160.5z" />
    <glyph glyph-name="iotadieresis" unicode="&#x3ca;" horiz-adv-x="663" 
d="M428 0l195 1108h-390l-194 -1108h389zM287 1638q-83 0 -141.5 -51t-69.5 -123q-13 -84 29 -130t120 -46t137.5 46.5t73.5 129.5t-28.5 128.5t-120.5 45.5zM750 1638q-83 0 -141.5 -51t-69.5 -123q-13 -84 29 -130t120 -46t137.5 46.5t73.5 129.5t-28.5 128.5t-120.5 45.5
z" />
    <glyph glyph-name="upsilondieresis" unicode="&#x3cb;" horiz-adv-x="1292" 
d="M614 1638q-83 0 -141.5 -51t-69.5 -123q-13 -83 29.5 -129.5t120.5 -46.5t137.5 46.5t73.5 129.5t-28.5 128.5t-121.5 45.5zM1077 1638q-83 0 -141.5 -51t-69.5 -123q-13 -83 29.5 -129.5t120.5 -46.5t137.5 46.5t73.5 129.5t-28.5 128.5t-121.5 45.5zM1294 1108h-389
l-106 -606q-14 -85 -65 -140t-132 -55t-109.5 54t-13.5 141l107 606h-389l-109 -623q-45 -254 76 -382t381 -128q257 0 426 129t215 390z" />
    <glyph glyph-name="omicrontonos" unicode="&#x3cc;" horiz-adv-x="1345" 
d="M569 -27q291 0 482 160t235 424q25 158 -29.5 289t-181 209t-299.5 78q-130 0 -253 -46.5t-217 -124.5t-159.5 -185t-85.5 -224q-28 -157 26.5 -290t181.5 -211.5t300 -78.5zM715 803q116 0 164 -71.5t28 -178.5q-21 -104 -97.5 -177t-178.5 -73q-101 0 -155.5 75
t-35.5 179q18 103 95 174.5t180 71.5zM1034 1724l-278 -378h274l492 378h-488z" />
    <glyph glyph-name="upsilontonos" unicode="&#x3cd;" horiz-adv-x="1292" 
d="M1294 1108h-389l-106 -606q-14 -85 -65 -140t-132 -55t-109.5 54t-13.5 141l107 606h-389l-109 -623q-45 -254 76 -382t381 -128q257 0 426 129t215 390zM905 1724l-278 -378h274l492 378h-488z" />
    <glyph glyph-name="omegatonos" unicode="&#x3ce;" horiz-adv-x="1882" 
d="M1192 897h-389l-66 -375q-19 -104 -65 -161.5t-113 -57.5q-77 0 -107.5 76t-5.5 209q22 123 93.5 244.5t244.5 304.5h-389q-280 -265 -332 -572q-15 -99 -11 -187t36.5 -162.5t84.5 -128t132.5 -84t181.5 -30.5q116 0 205 37.5t176 124.5q50 -78 123.5 -120t200.5 -42
q249 0 417 161.5t216 430.5q26 152 -2 289.5t-129 282.5h-389q108 -183 137.5 -304t7.5 -245q-25 -134 -82 -209.5t-133 -75.5q-68 0 -98 58.5t-11 160.5zM1221 1724l-279 -378h275l491 378h-487z" />
    <glyph glyph-name="uni03CF" unicode="&#x3cf;" horiz-adv-x="1482" 
d="M80 -82q83 -58 227 -106t268 -48q71 0 142.5 17.5t123 42.5t85 53.5t37.5 50.5l-410 826l-133 -754h-397l251 1434h398l-103 -582l596 582h471l-651 -617l418 -817q-24 -135 -156 -255t-324.5 -190.5t-390.5 -70.5q-275 0 -507 127z" />
    <glyph glyph-name="uni03D7" unicode="&#x3d7;" horiz-adv-x="1247" 
d="M500 580l-103 -580h-389l195 1108h389l-66 -371l367 371h440l-463 -444l279 -664q-24 -136 -127 -245t-259.5 -169.5t-334.5 -60.5q-124 0 -225 30.5t-219 96.5l53 307q220 -154 434 -154q111 0 188.5 43.5t85.5 92.5z" />
    <glyph glyph-name="Wgrave" unicode="&#x1e80;" horiz-adv-x="2213" 
d="M674 604l-105 830h-419l225 -1444h346l432 825l143 -825h346l734 1444h-412l-395 -830l-129 834h-342zM920 1862l256 -263h274l-147 379z" />
    <glyph glyph-name="wgrave" unicode="&#x1e81;" horiz-adv-x="1669" 
d="M457 1108h-381l141 -1116h334l287 575l77 -575h336l539 1116h-375l-248 -561l-71 565h-322l-270 -561zM569 1524l256 -262h275l-148 378z" />
    <glyph glyph-name="Wacute" unicode="&#x1e82;" horiz-adv-x="2213" 
d="M674 604l-105 830h-419l225 -1444h346l432 825l143 -825h346l734 1444h-412l-395 -830l-129 834h-342zM1446 1978l-279 -379h275l346 263z" />
    <glyph glyph-name="wacute" unicode="&#x1e83;" horiz-adv-x="1669" 
d="M457 1108h-381l141 -1116h334l287 575l77 -575h336l539 1116h-375l-248 -561l-71 565h-322l-270 -561zM1110 1640l-279 -378h275l346 262z" />
    <glyph glyph-name="Wdieresis" unicode="&#x1e84;" horiz-adv-x="2213" 
d="M674 604l-105 830h-419l225 -1444h346l432 825l143 -825h346l734 1444h-412l-395 -830l-129 834h-342zM1128 1976q-31 0 -61 -8t-61 -26.5t-54.5 -54.5t-33.5 -85q-17 -83 26.5 -129.5t122.5 -46.5q78 0 137.5 46.5t73.5 129.5t-28.5 128.5t-121.5 45.5zM1591 1976
q-31 0 -61 -8t-61.5 -26.5t-55 -54.5t-33.5 -85q-17 -83 27 -129.5t123 -46.5q78 0 137.5 46.5t73.5 129.5t-28.5 128.5t-121.5 45.5z" />
    <glyph glyph-name="wdieresis" unicode="&#x1e85;" horiz-adv-x="1669" 
d="M457 1108h-381l141 -1116h334l287 575l77 -575h336l539 1116h-375l-248 -561l-71 565h-322l-270 -561zM793 1638q-83 0 -141.5 -51t-69.5 -123q-13 -84 29 -130t120 -46t137.5 46.5t73.5 129.5t-28.5 128.5t-120.5 45.5zM1255 1638q-83 0 -141.5 -51t-69.5 -123
q-13 -83 29.5 -129.5t120.5 -46.5t137.5 46.5t73.5 129.5t-28.5 128.5t-121.5 45.5z" />
    <glyph glyph-name="uni1E9E" unicode="&#x1e9e;" horiz-adv-x="1357" 
d="M694 621q105 -8 159 -52.5t42 -117.5q-14 -78 -96 -126.5t-236 -52.5l-49 -278q128 -11 250.5 8t231 66.5t184 137.5t96.5 212q27 150 -45.5 249.5t-208.5 120.5l293 259q37 210 -99 338t-403 128q-313 0 -497 -149t-232 -424l-166 -940h387l164 928q46 260 281 260
q95 0 146.5 -41.5t39.5 -112.5l-205 -207z" />
    <glyph glyph-name="Ygrave" unicode="&#x1ef2;" horiz-adv-x="1460" 
d="M834 0l96 543l700 891h-444l-389 -523l-203 523h-453l387 -897l-94 -537h400zM537 1862l256 -263h274l-147 379z" />
    <glyph glyph-name="ygrave" unicode="&#x1ef3;" horiz-adv-x="1214" 
d="M86 1108l270 -1120l-155 -316h329l793 1436h-399l-334 -709l-96 709h-408zM362 1524l256 -262h275l-148 378z" />
    <glyph glyph-name="endash" unicode="&#x2013;" horiz-adv-x="913" 
d="M891 412l59 333h-917l-60 -333h918z" />
    <glyph glyph-name="emdash" unicode="&#x2014;" horiz-adv-x="1671" 
d="M1659 473l57 334h-1675l-57 -334h1675z" />
    <glyph glyph-name="uni2015" unicode="&#x2015;" horiz-adv-x="1802" 
d="M1790 473l57 334h-1675l-57 -334h1675z" />
    <glyph glyph-name="quoteleft" unicode="&#x2018;" horiz-adv-x="647" 
d="M481 1649l-362 -742h405l221 742h-264z" />
    <glyph glyph-name="quoteright" unicode="&#x2019;" horiz-adv-x="651" 
d="M428 907l363 742h-406l-221 -742h264z" />
    <glyph glyph-name="quotesinglbase" unicode="&#x201a;" horiz-adv-x="710" 
d="M201 -424l360 741h-405l-219 -741h264z" />
    <glyph glyph-name="quotereversed" unicode="&#x201b;" horiz-adv-x="649" 
d="M657 1649h-405l100 -742h264z" />
    <glyph glyph-name="quotedblleft" unicode="&#x201c;" horiz-adv-x="1193" 
d="M1014 1577l-363 -741h406l221 741h-264zM469 1577l-363 -741h406l221 741h-264z" />
    <glyph glyph-name="quotedblright" unicode="&#x201d;" horiz-adv-x="1198" 
d="M416 836l362 741h-405l-221 -741h264zM961 836l362 741h-405l-222 -741h265z" />
    <glyph glyph-name="quotedblbase" unicode="&#x201e;" horiz-adv-x="1255" 
d="M195 -471l362 741h-405l-222 -741h265zM739 -471l363 741h-406l-221 -741h264z" />
    <glyph glyph-name="dagger" unicode="&#x2020;" horiz-adv-x="935" 
d="M657 1155l86 313h-229l-25 -313l-247 27l-39 -213l262 26l-170 -848h205l129 848l250 -26l39 213z" />
    <glyph glyph-name="daggerdbl" unicode="&#x2021;" horiz-adv-x="933" 
d="M336 283l-82 -293h229l21 293l250 -27l37 213l-263 -27q89 497 115 654l254 -27l37 213l-258 -27l86 310h-230l-24 -310l-250 27l-37 -213l262 27q-35 -213 -114 -654l-254 27l-37 -213z" />
    <glyph glyph-name="bullet" unicode="&#x2022;" horiz-adv-x="946" 
d="M567 1087q-166 0 -273.5 -99t-133.5 -249q-25 -142 59 -243t225 -101t261.5 101t146.5 243q25 142 -59.5 245t-225.5 103z" />
    <glyph glyph-name="ellipsis" unicode="&#x2026;" horiz-adv-x="1855" 
d="M336 422q-106 0 -177.5 -60t-90.5 -163q-20 -107 34 -166.5t156 -59.5t176 59.5t94 166.5q20 106 -35 164.5t-157 58.5zM907 422q-106 0 -177.5 -60t-90.5 -163q-20 -107 34 -166.5t156 -59.5t176.5 59.5t94.5 166.5q20 106 -35 164.5t-158 58.5zM1479 422
q-106 0 -178 -60t-91 -163q-20 -107 34.5 -166.5t156.5 -59.5t176 59.5t94 166.5q20 106 -35 164.5t-157 58.5z" />
    <glyph glyph-name="perthousand" unicode="&#x2030;" horiz-adv-x="2664" 
d="M471 682q173 0 291 112t147 277q28 159 -55.5 271t-245.5 112q-164 0 -287 -111.5t-151 -273.5t55.5 -274.5t245.5 -112.5zM567 1229q40 0 64.5 -26.5t28 -62t-0.5 -71.5q-11 -69 -52.5 -115.5t-94.5 -46.5q-51 0 -77.5 47.5t-14.5 116.5t53 113.5t94 44.5zM1305 -20
q173 0 291 112t147 277q28 159 -55.5 271t-245.5 112q-164 0 -287 -111.5t-151 -273.5t55.5 -274.5t245.5 -112.5zM1401 526q40 0 64.5 -26t28 -61.5t-0.5 -71.5q-11 -69 -52.5 -115.5t-94.5 -46.5q-51 0 -78 47.5t-15 116.5q12 68 53.5 112.5t94.5 44.5zM2116 -20
q173 0 291 112t147 277q28 159 -55.5 271t-245.5 112q-164 0 -287 -111.5t-151 -273.5t55.5 -274.5t245.5 -112.5zM2212 526q40 0 64.5 -26t28 -61.5t-0.5 -71.5q-11 -69 -52.5 -115.5t-94.5 -46.5q-51 0 -78 47.5t-15 116.5q12 68 53.5 112.5t94.5 44.5zM1497 1434
l-1358 -1434h277l1358 1434h-277z" />
    <glyph glyph-name="minute" unicode="&#x2032;" horiz-adv-x="688" 
d="M360 1434l-174 -736h211l389 729v5v2h-426z" />
    <glyph glyph-name="second" unicode="&#x2033;" horiz-adv-x="1206" 
d="M90 698h203l389 729v5v2h-418zM791 1434l-177 -736h205l389 729v5v2h-417z" />
    <glyph glyph-name="guilsinglleft" unicode="&#x2039;" horiz-adv-x="784" 
d="M641 160l-205 348l328 350l-266 125l-441 -475l271 -473z" />
    <glyph glyph-name="guilsinglright" unicode="&#x203a;" horiz-adv-x="784" 
d="M334 508l-328 -348l268 -125l439 473l-273 475l-311 -125z" />
    <glyph glyph-name="exclamdbl" unicode="&#x203c;" horiz-adv-x="1249" 
d="M727 1434h-442l-31 -174l-21 -793h205l258 793zM317 369q-38 0 -76 -10.5t-75 -32.5t-64.5 -61.5t-38.5 -92.5q-19 -94 34.5 -146.5t150.5 -52.5q96 0 167.5 52t88.5 147t-36.5 146t-150.5 51zM1278 1434h-442l-31 -174l-21 -793h205l258 793zM868 369q-38 0 -76 -10.5
t-75 -32.5t-64.5 -61.5t-38.5 -92.5q-19 -94 34.5 -146.5t150.5 -52.5q96 0 167.5 52t88.5 147t-36.5 146t-150.5 51z" />
    <glyph glyph-name="fraction" unicode="&#x2044;" horiz-adv-x="364" 
d="M-248 -211l1241 1897h-315l-1241 -1897h315z" />
    <glyph glyph-name="uni2070" unicode="&#x2070;" horiz-adv-x="710" 
d="M299 1024q21 107 69 175.5t124 68.5q72 0 101.5 -67.5t8.5 -178.5q-21 -113 -71 -178.5t-121 -65.5q-72 0 -101.5 66.5t-9.5 179.5zM854 1024q38 214 -50 333.5t-272 119.5t-317 -129.5t-168 -325.5q-35 -195 52.5 -324t269.5 -129q183 0 316.5 130.5t168.5 324.5z" />
    <glyph glyph-name="uni2074" unicode="&#x2074;" horiz-adv-x="710" 
d="M270 930q18 22 105.5 122t128.5 156q2 -2 6 -2l-4 -12q-11 -34 -21.5 -83.5t-20.5 -110t-11 -68.5q-60 0 -91 -2q-61 0 -92 -2v2zM-25 748q147 0 447 4l-35 -164h248l24 164q78 -4 111 -4l35 188l-111 -4l94 530h-286l-500 -565z" />
    <glyph glyph-name="uni2075" unicode="&#x2075;" horiz-adv-x="710" 
d="M248 934q78 45 147 45q57 0 88 -28t23 -72q-9 -50 -47.5 -77.5t-98.5 -27.5q-97 0 -194 94l-166 -159q63 -68 140 -103t188 -35q157 0 271 84.5t140 225.5q23 133 -49.5 202.5t-197.5 69.5q-68 0 -152 -45l39 145h389l35 197h-580l-102 -436z" />
    <glyph glyph-name="uni2076" unicode="&#x2076;" horiz-adv-x="710" 
d="M727 1450h-250l-196 -233q-116 -137 -163 -213t-59 -146q-23 -127 62.5 -207t251.5 -80q149 0 261 85t138 225q21 125 -33.5 196.5t-163.5 71.5q-73 0 -169 -55zM401 756q-18 0 -35.5 4.5t-36 15.5t-26.5 35t-2 57q9 49 45.5 80t91.5 31t82 -32.5t19 -78.5
q-9 -49 -46.5 -80.5t-91.5 -31.5z" />
    <glyph glyph-name="uni2077" unicode="&#x2077;" horiz-adv-x="710" 
d="M389 584l502 686l33 180h-666l-35 -201h400l-498 -665h264z" />
    <glyph glyph-name="uni2078" unicode="&#x2078;" horiz-adv-x="710" 
d="M713 1040q136 66 161 193q20 105 -60 174.5t-228 69.5q-146 0 -249 -69t-122 -175q-21 -125 98 -193q-80 -30 -133.5 -84.5t-66.5 -126.5q-20 -113 68.5 -185.5t244.5 -72.5q160 0 274 72.5t136 187.5q11 68 -24 123t-99 86zM520 1108q-47 0 -72 26.5t-16 69.5
q6 41 40 66.5t83 25.5q52 0 76 -26.5t18 -65.5q-8 -39 -44 -67.5t-85 -28.5zM459 754q-20 0 -38.5 4t-38 14t-28 31t-2.5 51q8 41 47.5 67.5t94.5 26.5q57 0 87.5 -26t24.5 -68q-8 -43 -47 -71.5t-100 -28.5z" />
    <glyph glyph-name="uni2079" unicode="&#x2079;" horiz-adv-x="710" 
d="M211 584h250l284 344q124 153 144 256q24 131 -63 212t-261 81q-146 0 -261 -85.5t-140 -228.5q-23 -127 32 -199.5t169 -72.5q84 0 170 55zM543 1288q20 0 38.5 -4.5t36.5 -16t25 -35t0 -56.5q-9 -47 -46.5 -79t-90.5 -32q-58 0 -86.5 32t-20.5 81q9 50 47 80t97 30z
" />
    <glyph glyph-name="uni207F" unicode="&#x207f;" horiz-adv-x="806" 
d="M942 1292q3 33 5.5 69.5t-10 73.5t-33.5 67t-64.5 48.5t-102.5 18.5q-129 0 -248 -123l-243 106l-133 -751h264l72 407q10 58 48.5 91.5t84.5 33.5t70 -33t14 -92l-72 -407h262z" />
    <glyph glyph-name="Euro" unicode="&#x20ac;" horiz-adv-x="1253" 
d="M526 821q17 73 47.5 129t63.5 88t72.5 51.5t71.5 26t65 6.5q132 0 196 -104l312 213q-140 231 -451 231q-128 0 -243.5 -41t-203.5 -112t-158 -167t-114 -204t-65 -225q-28 -155 -13 -276t59.5 -209t118 -145t162.5 -84.5t193 -27.5q167 0 298.5 61.5t244.5 182.5
l-234 205q-109 -109 -227 -109q-59 0 -102.5 27t-67 72.5t-35 96t-12.5 107.5h348l37 207h-363z" />
    <glyph glyph-name="uni2113" unicode="&#x2113;" horiz-adv-x="1064" 
d="M502 -25q79 0 156 30t198 112l-88 186q-136 -104 -197 -104q-66 0 -51 92l43 239q368 350 416 619q16 86 0 156t-70 114.5t-141 44.5q-149 0 -243.5 -106.5t-123.5 -276.5l-84 -477l-204 -170l98 -168l55 47l-8 -41q-13 -142 42.5 -219.5t201.5 -77.5zM729 1247
q29 0 12 -86q-14 -71 -47.5 -165.5t-75.5 -149.5l46 258q26 143 65 143z" />
    <glyph glyph-name="trademark" unicode="&#x2122;" horiz-adv-x="1845" 
d="M879 1212l41 234h-748l-41 -234h250l-109 -614h250l109 614h248zM1788 598l149 848h-286l-260 -412l-119 412h-291l-150 -848h250l62 340l88 -340h158l210 340l-61 -340h250z" />
    <glyph glyph-name="uni2126" unicode="&#x2126;" horiz-adv-x="1710" 
d="M752 4h718l60 338h-334q91 37 169.5 120t125.5 178.5t63 188.5q23 126 4 227t-71.5 177t-133.5 127t-183.5 76.5t-221.5 25.5t-230 -25t-210.5 -77t-178.5 -126.5t-134.5 -178t-77.5 -226.5q-14 -66 -6.5 -141t28.5 -141t64 -121.5t100 -83.5h-334l-59 -338h719l63 358
q-113 48 -158.5 152t-21.5 238q26 154 122.5 253t246.5 99q154 0 217.5 -96.5t36.5 -255.5q-24 -134 -106 -235.5t-214 -154.5z" />
    <glyph glyph-name="estimated" unicode="&#x212e;" horiz-adv-x="1406" 
d="M1241 479q51 285 -70 464t-366 179q-163 0 -303 -77.5t-229.5 -207.5t-118.5 -290q-29 -161 14.5 -292t156 -208.5t275.5 -77.5q165 0 299.5 80t284.5 262l-172 109q-101 -132 -191 -191t-184 -59q-111 0 -186 72l41 237h749zM928 680h-400l31 174q98 68 207 68
q112 0 190 -72z" />
    <glyph glyph-name="oneeighth" unicode="&#x215b;" horiz-adv-x="1751" 
d="M326 -211l1241 1897h-316l-1241 -1897h316zM174 584h262l154 866l-187 -4q-49 0 -126.5 -2t-83.5 -2l-37 -209q26 1 66.5 2t66.5 2zM1497 451q137 67 162 192q20 105 -60.5 174.5t-228.5 69.5q-146 0 -249 -69t-122 -175q-21 -123 99 -192q-80 -30 -134 -84.5t-67 -126.5
q-20 -113 68.5 -185.5t244.5 -72.5q160 0 274 72.5t136 187.5q11 68 -24 123t-99 86zM1305 518q-47 0 -72 26.5t-16 69.5q6 42 39.5 67.5t82.5 25.5q52 0 76.5 -27t18.5 -66q-8 -39 -44 -67.5t-85 -28.5zM1243 164q-20 0 -38.5 4t-37.5 14t-27.5 31t-2.5 51q8 41 47 67.5
t94 26.5q57 0 88 -26.5t25 -67.5q-8 -43 -47.5 -71.5t-100.5 -28.5z" />
    <glyph glyph-name="threeeighths" unicode="&#x215c;" horiz-adv-x="2007" 
d="M592 -211l1241 1897h-315l-1242 -1897h316zM1755 451q137 67 162 192q20 105 -60.5 174.5t-228.5 69.5q-146 0 -249 -69t-122 -175q-21 -123 99 -192q-80 -30 -134 -84.5t-67 -126.5q-20 -113 68.5 -185.5t244.5 -72.5q160 0 274 72.5t136 187.5q11 68 -24 123t-99 86z
M1563 518q-47 0 -72 26.5t-16 69.5q6 42 39.5 67.5t82.5 25.5q52 0 76.5 -27t18.5 -66q-8 -39 -44 -67.5t-85 -28.5zM1501 164q-20 0 -38.5 4t-37.5 14t-27.5 31t-2.5 51q8 41 47 67.5t94 26.5q57 0 88 -26.5t25 -67.5q-8 -43 -47.5 -71.5t-100.5 -28.5zM115 868
q-18 -143 73 -220t250 -77q97 0 184 28.5t153.5 93t82.5 155.5q12 67 -14.5 122.5t-87.5 84.5q54 26 89 73t44 103q14 78 -25.5 135.5t-108 84t-151.5 26.5q-138 0 -249 -70t-146 -201h256q5 35 30.5 61.5t69.5 26.5q36 0 54 -23t12 -59q-7 -41 -39 -66.5t-72 -25.5h-24
l-25 -149q8 0 23.5 1t23.5 1q45 0 70 -27.5t16 -73.5q-9 -51 -46 -83.5t-85 -32.5q-53 0 -78.5 31.5t-17.5 80.5h-262z" />
    <glyph glyph-name="fiveeighths" unicode="&#x215d;" horiz-adv-x="1961" 
d="M543 -211l1241 1897h-316l-1241 -1897h316zM336 934q78 45 147 45q57 0 88 -28t23 -72q-9 -50 -47 -77.5t-98 -27.5q-98 0 -195 94l-166 -159q63 -68 140 -103t188 -35q157 0 271 84.5t140 225.5q23 133 -49.5 202.5t-197.5 69.5q-68 0 -152 -45l39 145h389l35 197h-580
l-102 -436zM1708 451q137 67 162 192q20 105 -60.5 174.5t-228.5 69.5q-146 0 -249 -69t-122 -175q-21 -123 99 -192q-80 -30 -134 -84.5t-67 -126.5q-20 -113 68.5 -185.5t244.5 -72.5q160 0 274 72.5t136 187.5q11 68 -24 123t-99 86zM1516 518q-47 0 -72.5 26.5
t-16.5 69.5q6 41 40 67t83 26q52 0 76.5 -27t18.5 -66q-8 -39 -44 -67.5t-85 -28.5zM1454 164q-20 0 -38.5 4t-37.5 14t-27.5 31t-2.5 51q8 41 47 67.5t94 26.5q57 0 88 -26.5t25 -67.5q-8 -43 -47.5 -71.5t-100.5 -28.5z" />
    <glyph glyph-name="seveneighths" unicode="&#x215e;" horiz-adv-x="1757" 
d="M319 -211l1242 1897h-316l-1241 -1897h315zM1505 451q137 67 162 192q20 105 -60.5 174.5t-228.5 69.5q-146 0 -248.5 -69t-121.5 -175q-21 -124 98 -192q-80 -30 -134 -84.5t-67 -126.5q-20 -113 69 -185.5t245 -72.5q160 0 273.5 72.5t135.5 187.5q11 68 -24 123
t-99 86zM1313 518q-47 0 -72 26.5t-16 69.5q6 41 40 67t83 26q52 0 76 -27t18 -66q-8 -39 -44 -67.5t-85 -28.5zM1251 164q-20 0 -38.5 4t-37.5 14t-27.5 31t-2.5 51q8 41 47 67.5t94 26.5q57 0 88 -26.5t25 -67.5q-8 -43 -47.5 -71.5t-100.5 -28.5zM338 596l502 686l32 180
h-665l-35 -200h399l-497 -666h264z" />
    <glyph glyph-name="partialdiff" unicode="&#x2202;" horiz-adv-x="1112" 
d="M432 -23q222 0 369 169t225 481q18 72 30 145t15.5 157.5t-5 159.5t-35.5 145.5t-72 121.5t-119 81.5t-172 30.5q-215 0 -404 -172l121 -174q124 109 236 109q54 0 93 -23.5t59.5 -62t33 -88t11.5 -102.5t-3 -105q-95 72 -227 72q-99 0 -187 -36.5t-153 -100t-109 -148
t-61 -180.5q-22 -126 10 -234t121.5 -177t222.5 -69zM559 684q115 0 195 -123q-14 -49 -30 -93t-41.5 -93t-54.5 -84t-69 -58.5t-84 -23.5q-57 0 -93.5 38t-46 92.5t0.5 115.5q18 98 77 163.5t146 65.5z" />
    <glyph glyph-name="uni2206" unicode="&#x2206;" horiz-adv-x="1644" 
d="M-68 0h1581l-344 1454h-383zM1018 336h-479l354 647z" />
    <glyph glyph-name="product" unicode="&#x220f;" horiz-adv-x="1429" 
d="M860 -535h264l359 2034h-1196l-359 -2034h265l315 1786h668z" />
    <glyph glyph-name="summation" unicode="&#x2211;" horiz-adv-x="1226" 
d="M-166 -535h1178l43 248h-824l699 785l-395 755h770l43 248h-1131l-33 -190l428 -809l-745 -846z" />
    <glyph glyph-name="minus" unicode="&#x2212;" horiz-adv-x="1415" 
d="M1257 594l43 244h-1083l-43 -244h1083z" />
    <glyph glyph-name="radical" unicode="&#x221a;" horiz-adv-x="1040" 
d="M602 -16l668 1757h-269l-491 -1313l-143 479l-340 -139l65 -219l92 41l183 -606h235z" />
    <glyph glyph-name="infinity" unicode="&#x221e;" horiz-adv-x="1480" 
d="M1071 379q163 0 260.5 94t120.5 244q24 148 -51.5 244t-224.5 96q-103 0 -190 -47t-189 -138q-143 183 -324 183q-145 0 -252.5 -99t-134.5 -245q-25 -143 50.5 -237.5t221.5 -94.5q71 0 141 26t116.5 56.5t119.5 87.5q80 -78 158.5 -124t177.5 -46zM1137 817
q32 0 53 -23.5t12 -82.5q-6 -42 -32.5 -67.5t-67.5 -25.5q-43 0 -80.5 24.5t-81.5 68.5q2 2 27.5 21t34 25t32 21t37 21t32.5 12t34 6zM432 815q25 0 47.5 -8.5t47 -28.5t35.5 -30t36 -37q-120 -93 -197 -93q-38 0 -56.5 26t-10.5 69q8 42 33.5 72t64.5 30z" />
    <glyph glyph-name="integral" unicode="&#x222b;" horiz-adv-x="743" 
d="M29 -471q54 0 99.5 16.5t78 46t58.5 67.5t43.5 83t30.5 91t22.5 93.5t16.5 87.5q2 13 3 19l203 1155q17 112 45 112q11 0 33 -14t40 -14q51 0 96.5 37.5t55.5 93.5q7 42 -6.5 74t-41.5 50t-62.5 27t-73.5 9q-64 0 -119.5 -26.5t-94 -68.5t-69 -98.5t-48 -111.5
t-28.5 -113l-196 -1114q-37 -211 -43 -229q-6 -19 -15 -19q-7 0 -29 12t-48 12q-53 0 -90 -35t-48 -91q-6 -39 9 -69.5t44.5 -47.5t63.5 -26t70 -9z" />
    <glyph glyph-name="approxequal" unicode="&#x2248;" horiz-adv-x="1298" 
d="M1094 1118q-26 -76 -57.5 -112.5t-80.5 -36.5q-44 0 -103 21.5t-109.5 47t-118 47t-125.5 21.5q-74 0 -138 -33.5t-111 -92t-80 -124.5t-58 -145h223q27 72 58.5 110.5t86.5 38.5q38 0 94 -21.5t106.5 -47t121 -47t133.5 -21.5q64 0 119.5 24t94 61t71.5 91.5t53.5 105.5
t38.5 113h-219zM1018 682q-28 -78 -58.5 -114t-78.5 -36q-44 0 -103 21.5t-109.5 47.5t-118.5 47.5t-126 21.5q-74 0 -138.5 -33.5t-111.5 -92t-80 -125.5t-57 -145h223q25 71 56.5 110.5t86.5 39.5q38 0 94 -21.5t107.5 -47t122 -47t133.5 -21.5q64 0 119.5 24t94 61
t71.5 91.5t53.5 105.5t38.5 113h-219z" />
    <glyph glyph-name="notequal" unicode="&#x2260;" horiz-adv-x="1409" 
d="M649 408h559l43 241h-424l101 148h368l43 247h-235l113 160l-201 121l-199 -281h-545l-43 -247h414l-100 -148h-359l-43 -241h230l-113 -158l199 -117z" />
    <glyph glyph-name="lessequal" unicode="&#x2264;" horiz-adv-x="1415" 
d="M1323 1149l63 362l-1087 -405l-66 -363l947 -405l65 364l-631 224zM1153 0l43 244h-1083l-43 -244h1083z" />
    <glyph glyph-name="greaterequal" unicode="&#x2265;" horiz-adv-x="1415" 
d="M385 1507l-63 -364l630 -223l-708 -224l-66 -362l1090 405l65 363zM1153 0l43 244h-1083l-43 -244h1083z" />
    <glyph glyph-name="lozenge" unicode="&#x25ca;" horiz-adv-x="1013" 
d="M500 -70l487 797l-207 799h-213l-479 -799l199 -797h213zM608 1149l105 -424l-254 -422l-101 426z" />
    <glyph glyph-name="uni25CC" unicode="&#x25cc;" horiz-adv-x="1853" 
d="M1124 1583q-52 0 -87.5 -31t-41.5 -73q-9 -52 16 -80.5t74 -28.5q50 0 86.5 28.5t45.5 80.5q9 51 -18 77.5t-75 26.5zM1475 1499q-52 0 -87.5 -31t-41.5 -73q-9 -52 16 -80.5t74 -28.5t85.5 28.5t45.5 80.5q9 51 -18 77.5t-74 26.5zM1659 1198q-52 0 -87.5 -31t-41.5 -73
q-9 -52 16 -80.5t74 -28.5t85.5 28.5t45.5 80.5q9 51 -18 77.5t-74 26.5zM1720 854q-52 0 -87.5 -31t-41.5 -73q-9 -52 16 -80.5t74 -28.5t85.5 28.5t45.5 80.5q9 51 -18 77.5t-74 26.5zM1554 477q-52 0 -87.5 -31t-41.5 -73q-9 -52 16.5 -80.5t74.5 -28.5t85.5 28.5
t45.5 80.5q9 51 -18 77.5t-75 26.5zM1249 223q-52 0 -87.5 -31t-41.5 -73q-9 -52 16 -80.5t74 -28.5t85.5 28.5t45.5 80.5q9 51 -18 77.5t-74 26.5zM862 102q-52 0 -87.5 -31t-41.5 -73q-9 -52 16 -80.5t74 -28.5t85.5 28.5t45.5 80.5q9 51 -18 77.5t-74 26.5zM479 223
q-52 0 -87.5 -31t-41.5 -73q-9 -52 16 -80.5t74 -28.5t85.5 28.5t45.5 80.5q9 51 -18 77.5t-74 26.5zM246 477q-52 0 -87.5 -31t-41.5 -73q-9 -52 16 -80.5t74 -28.5t85.5 28.5t45.5 80.5q9 51 -18 77.5t-74 26.5zM240 854q-52 0 -87.5 -31t-41.5 -73q-9 -52 16 -80.5
t74 -28.5t85.5 28.5t45.5 80.5q9 51 -18 77.5t-74 26.5zM393 1198q-52 0 -87.5 -31t-41.5 -73q-9 -52 16 -80.5t74 -28.5t85.5 28.5t45.5 80.5q9 51 -18 77.5t-74 26.5zM705 1499q-52 0 -88 -31t-42 -73q-9 -52 16.5 -80.5t74.5 -28.5t85.5 28.5t45.5 80.5q9 51 -18 77.5
t-74 26.5z" />
    <glyph glyph-name="caroncommaaccent" horiz-adv-x="1024" 
d="M639 1077l221 479h-256l-168 -479h203z" />
    <glyph glyph-name="commaaccentrotate" horiz-adv-x="403" 
d="M385 1608l-311 -455h405l170 455h-264z" />
    <glyph glyph-name="f_t" horiz-adv-x="1521" 
d="M983 1479q-98 30 -231 30q-192 0 -312.5 -94t-154.5 -289l-6 -30l-222 -299h170l-141 -797h387l141 797h248l51 299h-315l6 26q8 50 62.5 77.5t115.5 27.5q80 0 154 -23zM821 342q-62 -367 307 -367q152 0 283 64l53 305q-88 -37 -153 -37q-55 0 -76.5 26t-11.5 85
l65 375h258l56 313h-259l62 342l-719 -655h213z" />
    <glyph glyph-name="w_w_w" horiz-adv-x="5206" 
d="M496 1108h-381l141 -1116h334l287 575l77 -575h336l539 1116h-375l-248 -561l-71 565h-322l-270 -561zM2224 1108h-381l142 -1116h333l287 575l78 -575h336l538 1116h-374l-248 -561l-72 565h-321l-271 -561zM3953 1108h-381l141 -1116h334l287 575l77 -575h336l539 1116
h-375l-248 -561l-71 565h-322l-270 -561z" />
    <glyph glyph-name="t_t" horiz-adv-x="1685" 
d="M944 344q-62 -367 307 -367q152 0 283 64l53 305q-88 -37 -153 -37q-55 0 -76.5 26t-11.5 85l65 375h258l55 313h-258l62 342l-719 -655h213zM213 344q-62 -367 307 -367q152 0 283 64l53 305q-88 -37 -154 -37q-55 0 -76.5 26t-11.5 85l66 375h258l55 313h-258l62 342
l-719 -655h213z" />
    <glyph glyph-name="Upsilondieresis_alt" horiz-adv-x="1521" 
d="M895 0l96 543l701 891h-445l-389 -523l-203 523h-452l387 -897l-94 -537h399zM813 1976q-20 0 -42 -4t-49.5 -15.5t-50 -29.5t-42 -50.5t-27.5 -74.5q-14 -83 29 -129.5t121 -46.5t137.5 46.5t73.5 129.5t-28.5 128.5t-121.5 45.5zM1276 1976q-20 0 -42 -4t-49.5 -15.5
t-50 -29.5t-42 -50.5t-27.5 -74.5q-14 -83 28.5 -129.5t120.5 -46.5t137.5 46.5t73.5 129.5t-28.5 128.5t-120.5 45.5z" />
    <glyph glyph-name=".null.1" horiz-adv-x="569" 
 />
    <glyph glyph-name="ogonek.1" horiz-adv-x="403" 
d="M260 -242q-76 -30 -119 -30q-27 0 -42 12t-11 37q8 62 170 198l-188 84q-119 -109 -174 -178.5t-68 -142.5q-18 -102 45 -163.5t178 -61.5q110 0 223 55z" />
    <glyph glyph-name="ogonek.2" horiz-adv-x="403" 
d="M260 -242q-76 -30 -119 -30q-61 0 -53 57q22 106 252 301l-336 -86q-72 -69 -118 -130.5t-58 -131.5q-18 -102 45 -163.5t178 -61.5q110 0 223 55z" />
    <glyph glyph-name="periodcentered.loclCAT" horiz-adv-x="659" 
d="M436 999q-28 0 -55.5 -4.5t-63 -19.5t-63.5 -38.5t-52 -65t-34 -95.5q-21 -107 32.5 -166t155.5 -59t177.5 59t95.5 166q20 106 -35 164.5t-158 58.5z" />
    <glyph glyph-name="i.loclTRK" horiz-adv-x="595" 
d="M377 0l194 1108h-389l-194 -1108h389zM463 1608q-23 0 -46.5 -3t-58.5 -15t-62.5 -31.5t-52 -58t-34.5 -89.5q-18 -95 34.5 -147t149.5 -52q96 0 167.5 52t88.5 147t-36 146t-150 51z" />
    <glyph glyph-name="periodcentered.loclCAT.case" horiz-adv-x="659" 
d="M436 999q-28 0 -55.5 -4.5t-63 -19.5t-63.5 -38.5t-52 -65t-34 -95.5q-21 -107 32.5 -166t155.5 -59t177.5 59t95.5 166q20 106 -35 164.5t-158 58.5z" />
    <glyph glyph-name="uni004A0301" horiz-adv-x="972" 
d="M-82 84q142 -109 311 -109q263 0 425 147.5t206 401.5l160 910h-395l-160 -908q-17 -96 -77.5 -148t-141.5 -52q-42 0 -78.5 12t-70.5 38.5t-55 47t-54 57.5zM915 1978l-278 -379h274l346 263z" />
    <glyph glyph-name="uni006A0301" horiz-adv-x="585" 
d="M567 1640l-278 -378h274l346 262zM-213 -319q88 -15 158 -15q197 0 312 89.5t151 293.5l186 1059h-389l-182 -1042q-24 -129 -111 -129q-30 0 -76 16z" />
    <glyph glyph-name="tonos.case" horiz-adv-x="1009" 
d="M586 1724l-279 -378h275l491 378h-487z" />
    <glyph glyph-name="uni030C.alt" 
d="M971 1624h-281l-137 -129l-96 129h-287l231 -383h205z" />
    <glyph glyph-name="Delta" horiz-adv-x="1630" 
d="M1049 309h-560l402 684zM-104 0h1644l-377 1444h-383z" />
    <glyph glyph-name="uni0394.1" horiz-adv-x="1644" 
d="M-68 0h1581l-344 1454h-383zM539 336l354 647l125 -647h-479z" />
    <glyph glyph-name="uni03BC.001" horiz-adv-x="1298" 
d="M332 -328h-389l252 1436h389l-105 -600q-17 -89 18 -137.5t107 -48.5q71 0 124.5 49t70.5 137l104 600h389l-194 -1108l-363 152q-95 -177 -207 -177q-48 0 -82 29t-45 70z" />
  </font>
</defs>
</svg>
