<?xml version="1.0" standalone="no"?>
<!DOCTYPE svg PUBLIC "-//W3C//DTD SVG 1.1//EN" "http://www.w3.org/Graphics/SVG/1.1/DTD/svg11.dtd" >
<svg xmlns="http://www.w3.org/2000/svg" xmlns:xlink="http://www.w3.org/1999/xlink" version="1.1">
<metadata>
Created by FontForge 20201107 at Thu Dec 18 19:34:33 2025
 By 
Copyright 2022 The Geom Project Authors (https://github.com/ThanosPoulakidas/Geom)
</metadata>
<defs>
<font id="Geom-Medium" horiz-adv-x="0" >
  <font-face 
    font-family="Geom Medium"
    font-weight="500"
    font-stretch="normal"
    units-per-em="2048"
    panose-1="0 0 0 0 0 0 0 0 0 0"
    ascent="1638"
    descent="-410"
    x-height="1026"
    cap-height="1440"
    bbox="-328 -539 4778 2052"
    underline-thickness="102"
    underline-position="-255"
    unicode-range="U+000D-FB02"
  />
<missing-glyph horiz-adv-x="1112" 
d="M18 1475v-1475h1078v1475h-1078zM893 1358l-336 -500l-336 500h672zM961 256l-326 481l326 486v-967zM893 117h-672l336 501zM156 256v969l323 -488z" />
    <glyph glyph-name="fi" unicode="fi" horiz-adv-x="1263" 
d="M729 1483q-65 24 -164 24q-342 0 -342 -370v-111l-192 -197h192v-829h236v829h248v195h-271v104q0 95 44 144t126 49q59 0 123 -23v185zM1085 0v1028h-239v-1028h239zM963 1487q-67 0 -110.5 -41.5t-43.5 -108.5q0 -64 45.5 -105.5t108.5 -41.5q68 0 112.5 41t44.5 106
q0 68 -44 109t-113 41z" />
    <glyph glyph-name="fl" unicode="fl" horiz-adv-x="1206" 
d="M729 1483q-65 24 -164 24q-342 0 -342 -370v-111l-192 -197h192v-829h236v829h248v195h-271v104q0 95 44 144t126 49q59 0 123 -23v185zM1061 0v1499h-242v-1499h242z" />
    <glyph glyph-name="f_f_i" unicode="ffi" horiz-adv-x="1978" 
d="M1800 0v1028h-239v-1028h239zM1677 1487q-67 0 -110 -41.5t-43 -108.5q0 -64 45 -105.5t108 -41.5q68 0 113 41t45 106q0 68 -44.5 109t-113.5 41zM1442 1483q-65 24 -164 24q-342 0 -342 -370v-111l-193 -197h193v-829h235v829h248v195h-270v104q0 95 44 144t126 49
q59 0 123 -23v185zM729 1483q-65 24 -164 24q-342 0 -342 -370v-111l-192 -197h192v-829h236v829h248v195h-271v104q0 95 44 144t126 49q59 0 123 -23v185z" />
    <glyph glyph-name="f_f_l" unicode="ffl" horiz-adv-x="1755" 
d="M729 1483q-65 24 -164 24q-342 0 -342 -370v-111l-192 -197h192v-829h236v829h248v195h-271v104q0 95 44 144t126 49q59 0 123 -23v185zM1360 1483q-64 24 -164 24q-342 0 -342 -370v-111l-192 -197h192v-829h236v829h247v195h-270v104q0 95 44 144t126 49q59 0 123 -23
v185zM1694 0v1499h-242v-1499h242z" />
    <glyph glyph-name="f_f" unicode="ff" horiz-adv-x="1454" 
d="M1362 1483q-64 24 -164 24q-342 0 -342 -370v-111l-192 -197h192v-829h236v829h247v195h-270v104q0 95 44 144t126 49q59 0 123 -23v185zM729 1483q-65 24 -164 24q-342 0 -342 -370v-111l-192 -197h192v-829h236v829h248v195h-271v104q0 95 44 144t126 49q59 0 123 -23
v185z" />
    <glyph glyph-name=".notdef" horiz-adv-x="1112" 
d="M18 1475v-1475h1078v1475h-1078zM893 1358l-336 -500l-336 500h672zM961 256l-326 481l326 486v-967zM893 117h-672l336 501zM156 256v969l323 -488z" />
    <glyph glyph-name=".null" 
 />
    <glyph glyph-name="nonmarkingreturn" horiz-adv-x="682" 
 />
    <glyph glyph-name="CR" unicode="&#xd;" horiz-adv-x="835" 
 />
    <glyph glyph-name="space" unicode=" " horiz-adv-x="573" 
 />
    <glyph glyph-name="exclam" unicode="!" horiz-adv-x="628" 
d="M457 1440h-281l4 -172l66 -836h143l62 836zM317 272q-64 0 -109.5 -41t-45.5 -104q0 -69 44 -109.5t111 -40.5q68 0 111 40.5t43 109.5q0 63 -44 104t-110 41z" />
    <glyph glyph-name="quotedbl" unicode="&#x22;" horiz-adv-x="1046" 
d="M158 838h141l156 532l16 74v2h-264zM627 1446l-49 -608h141l155 532l17 74v2h-264z" />
    <glyph glyph-name="numbersign" unicode="#" horiz-adv-x="1314" 
d="M250 358l-57 -358h198l55 356h310l-54 -356h199l53 356h244v209h-209l51 324h226v207h-191l51 346h-198l-51 -346h-310l54 346h-199l-53 -346h-246v-207h213l-51 -324h-230v-207h195zM530 889h316l-53 -328h-316z" />
    <glyph glyph-name="dollar" unicode="$" horiz-adv-x="1212" 
d="M537 -197h159v193q195 21 314.5 131.5t119.5 278.5q0 155 -104.5 251.5t-333.5 167.5v424q72 -7 133 -42t103 -91l135 146q-135 165 -365 186v131h-161v-131q-191 -17 -308.5 -125t-117.5 -272q0 -160 107 -259t323 -165v-441q-192 16 -346 181l-140 -154
q207 -217 482 -217v-193zM694 586q43 -14 76 -30t64 -40t48 -59t17 -78q0 -75 -51 -126t-154 -65v398zM541 868q-43 17 -72 32t-61.5 39.5t-49 58t-16.5 75.5q0 74 51 122t148 58v-385z" />
    <glyph glyph-name="percent" unicode="%" horiz-adv-x="1761" 
d="M434 719q157 0 253.5 112t96.5 269q0 159 -96.5 266t-251.5 107q-153 0 -251.5 -108.5t-98.5 -266.5q0 -161 97.5 -270t250.5 -109zM434 1315q87 0 131.5 -66t44.5 -157q0 -95 -45.5 -154t-128.5 -59q-78 0 -127 61t-49 160q0 93 48.5 154t125.5 61zM1327 -23
q155 0 251.5 110.5t96.5 266.5q0 158 -96.5 264.5t-249.5 106.5t-251.5 -107.5t-98.5 -265.5q0 -159 96.5 -267t251.5 -108zM1327 569q85 0 129.5 -63.5t44.5 -153.5q0 -94 -47.5 -155.5t-124.5 -61.5t-126.5 59t-49.5 158q0 97 47.5 157t126.5 60zM455 -27l1028 1473
l-185 18l-1026 -1468z" />
    <glyph glyph-name="ampersand" unicode="&#x26;" horiz-adv-x="1445" 
d="M883 315q-139 -149 -281 -149q-107 0 -176.5 69.5t-69.5 170.5q0 168 203 266zM1184 768q-74 -154 -158 -285l-266 289q149 64 229 153.5t80 217.5q0 139 -105 234.5t-268 95.5q-172 0 -280.5 -97.5t-108.5 -247.5q0 -80 31.5 -153t93.5 -156q-328 -131 -328 -426
q0 -126 63 -221.5t170 -145t241 -49.5q128 0 232.5 47.5t203.5 141.5l170 -176l243 51l-266 293q118 173 213 373zM528 1122q0 74 46 120t120 46q71 0 116.5 -43t45.5 -115q0 -71 -58 -130t-157 -99q-58 70 -85.5 120t-27.5 101z" />
    <glyph glyph-name="quotesingle" unicode="'" horiz-adv-x="632" 
d="M227 1446l-51 -608h146l155 532l17 74v2h-267z" />
    <glyph glyph-name="parenleft" unicode="(" horiz-adv-x="864" 
d="M770 -172q-189 167 -285 346t-96 410q0 227 92.5 407t290.5 352l-125 146q-244 -188 -369.5 -406.5t-125.5 -498.5q0 -554 495 -895z" />
    <glyph glyph-name="parenright" unicode=")" horiz-adv-x="868" 
d="M92 1343q194 -160 289.5 -340.5t95.5 -418.5q0 -224 -91.5 -405t-291.5 -351l125 -139q498 353 498 895q0 277 -125 496.5t-373 408.5z" />
    <glyph glyph-name="asterisk" unicode="*" horiz-adv-x="768" 
d="M133 1395l141 -187l-225 -78l45 -129l223 74v-244h138v242l219 -72l43 129l-217 76l135 193l-113 76l-137 -185l-137 185z" />
    <glyph glyph-name="plus" unicode="+" horiz-adv-x="1259" 
d="M741 819v400h-225v-400h-395v-217h395v-401h225v401h398v217h-398z" />
    <glyph glyph-name="comma" unicode="," horiz-adv-x="536" 
d="M236 -301l170 600h-252l-103 -600h185z" />
    <glyph glyph-name="hyphen" unicode="-" horiz-adv-x="706" 
d="M651 449v219h-594v-219h594z" />
    <glyph glyph-name="period" unicode="." horiz-adv-x="634" 
d="M317 291q-70 0 -114.5 -43t-44.5 -113t45.5 -114t113.5 -44q66 0 112 44.5t46 113.5q0 68 -46 112t-112 44z" />
    <glyph glyph-name="slash" unicode="/" horiz-adv-x="1091" 
d="M209 -193l893 1807h-211l-889 -1807h207z" />
    <glyph glyph-name="zero" unicode="0" horiz-adv-x="1337" 
d="M338 727q0 68 9 135t33 138t60.5 124.5t95.5 88t134 34.5q153 0 242 -144.5t89 -381.5q0 -236 -87 -382t-240 -146q-159 0 -247.5 144.5t-88.5 389.5zM1253 721q0 115 -20 221t-65.5 203t-111.5 168t-165 113t-219 42q-183 0 -317 -98t-201.5 -265.5t-67.5 -383.5
q0 -220 67 -388.5t200 -265t317 -96.5t317.5 99.5t199.5 267.5t66 383z" />
    <glyph glyph-name="one" unicode="1" horiz-adv-x="718" 
d="M520 0v1448h-500v-231h254v-1217h246z" />
    <glyph glyph-name="two" unicode="2" horiz-adv-x="1204" 
d="M1053 1055q0 98 -40 177.5t-107 129.5t-151.5 77t-176.5 27q-215 0 -349.5 -115t-160.5 -341h247q13 110 83 173.5t177 63.5q112 0 168 -55t56 -139q0 -154 -213 -406l-539 -647h1030v213h-561l260 315q151 185 214 300.5t63 226.5z" />
    <glyph glyph-name="three" unicode="3" horiz-adv-x="1269" 
d="M1094 1262v196h-908v-211h600l-397 -409l33 -129q51 10 153 10q148 0 235 -65.5t87 -196.5q0 -122 -76.5 -194.5t-199.5 -72.5q-116 0 -198 60t-140 180l-187 -143q76 -147 211.5 -230.5t319.5 -83.5q225 0 371.5 139t146.5 345q0 194 -120 306.5t-310 125.5z" />
    <glyph glyph-name="four" unicode="4" horiz-adv-x="1320" 
d="M1059 1454h-307l-719 -954l43 -199h741v-301h242v301h194v199h-194v954zM817 1194v-694h-514z" />
    <glyph glyph-name="five" unicode="5" horiz-adv-x="1200" 
d="M319 670q104 49 209 49q135 0 224.5 -72.5t89.5 -187.5q0 -122 -80 -196.5t-219 -74.5q-179 0 -350 158l-146 -168q114 -103 230 -154t270 -51q244 0 392 134t148 358q0 140 -68 245t-178.5 157.5t-246.5 52.5q-89 0 -223 -43l35 352h620l8 211h-827l-57 -684z" />
    <glyph glyph-name="six" unicode="6" horiz-adv-x="1249" 
d="M901 1446h-268l-322 -485q-123 -184 -172 -291t-49 -211q0 -221 152 -354.5t389 -133.5q225 0 374.5 136t149.5 350q0 203 -124 321.5t-318 118.5q-77 0 -129.5 -15t-108.5 -55zM629 172q-119 0 -203 77.5t-84 192.5q0 113 78 190t205 77q128 0 206 -73t78 -187
q0 -122 -77.5 -199.5t-202.5 -77.5z" />
    <glyph glyph-name="seven" unicode="7" horiz-adv-x="1081" 
d="M420 0l674 1237v203h-1022v-213h753l-680 -1227h275z" />
    <glyph glyph-name="eight" unicode="8" horiz-adv-x="1320" 
d="M924 752q221 115 221 321q0 112 -65 202.5t-175.5 140.5t-242.5 50q-204 0 -344 -111t-140 -278q0 -217 217 -323q-268 -114 -268 -361q0 -119 70 -215t192 -149.5t273 -53.5q231 0 381.5 116.5t150.5 305.5q0 123 -70 213t-200 142zM662 834q-102 0 -175 62t-73 159
q0 92 71 153.5t177 61.5t176.5 -61.5t70.5 -153.5q0 -95 -71 -158t-176 -63zM662 172q-117 0 -203 65.5t-86 176.5q0 103 81 169t208 66q126 0 207 -66t81 -169q0 -101 -80.5 -171.5t-207.5 -70.5z" />
    <glyph glyph-name="nine" unicode="9" horiz-adv-x="1243" 
d="M344 -4h268l353 532q97 145 142.5 246t45.5 211q0 220 -151 355t-392 135q-145 0 -263.5 -61.5t-187.5 -173.5t-69 -253q0 -199 126.5 -322.5t318.5 -123.5q73 0 124 17t107 60zM616 1272q117 0 202 -78t85 -193q0 -112 -80.5 -189t-204.5 -77q-126 0 -203 75t-77 191
t77 193.5t201 77.5z" />
    <glyph glyph-name="colon" unicode=":" horiz-adv-x="636" 
d="M319 293q-73 0 -117 -42.5t-44 -113.5q0 -72 44 -116t117 -44q65 0 111.5 45t46.5 115q0 67 -46.5 111.5t-111.5 44.5zM319 1047q-73 0 -117 -42.5t-44 -113.5q0 -72 44 -115t117 -43q65 0 111.5 44t46.5 114q0 69 -46.5 112.5t-111.5 43.5z" />
    <glyph glyph-name="semicolon" unicode=";" horiz-adv-x="548" 
d="M266 1047q-69 0 -113 -43t-44 -113q0 -71 43.5 -114.5t113.5 -43.5q68 0 114 44t46 114q0 69 -46 112.5t-114 43.5zM236 -301l172 600h-254l-103 -600h185z" />
    <glyph glyph-name="less" unicode="&#x3c;" horiz-adv-x="1265" 
d="M1130 1032v230l-993 -447v-215l993 -446v227l-751 328z" />
    <glyph glyph-name="equal" unicode="=" horiz-adv-x="1220" 
d="M1102 1090h-981v-218h981v218zM1102 575h-981v-215h981v215z" />
    <glyph glyph-name="greater" unicode="&#x3e;" horiz-adv-x="1263" 
d="M137 1262v-232l752 -323l-752 -322v-231l991 444v219z" />
    <glyph glyph-name="question" unicode="?" horiz-adv-x="962" 
d="M98 1065q149 182 324 182q88 0 142 -48.5t54 -117.5q0 -59 -34 -107.5t-97 -103.5q-36 -34 -54.5 -52t-48.5 -55t-45 -68t-27.5 -77t-12.5 -96v-112h233v63q0 88 29 141t103 119q96 80 147 165t51 200q0 167 -113 266.5t-288 99.5q-115 0 -209 -41t-154 -118v-240z
M426 272q-63 0 -108.5 -41t-45.5 -104q0 -68 45 -109t109 -41q69 0 113.5 40.5t44.5 109.5q0 63 -45 104t-113 41z" />
    <glyph glyph-name="at" unicode="@" horiz-adv-x="1884" 
d="M682 594q0 117 74 205t186 88q91 0 145 -59t54 -154q0 -120 -77.5 -211.5t-184.5 -91.5q-90 0 -143.5 61.5t-53.5 161.5zM1479 -2q-117 -74 -235.5 -107.5t-260.5 -33.5q-175 0 -322 57.5t-247 158.5t-155.5 240t-55.5 299q0 214 96.5 388.5t269.5 275t387 100.5
q156 0 292.5 -52.5t232 -143.5t150.5 -217t55 -269q0 -178 -67 -286.5t-167 -108.5q-68 0 -99.5 51t-25.5 131l80 537l-201 24l-20 -129q-97 156 -275 156q-119 0 -221.5 -66t-162.5 -178t-60 -243q0 -172 103.5 -282t260.5 -110q179 0 304 166q69 -170 258 -170
q170 0 282.5 140t112.5 385q0 155 -65 295t-175.5 241.5t-264.5 161t-325 59.5q-239 0 -437.5 -115t-311.5 -312.5t-113 -432.5q0 -175 66 -331.5t180.5 -269.5t277.5 -179t349 -66q308 0 559 168z" />
    <glyph glyph-name="A" unicode="A" horiz-adv-x="1447" 
d="M401 354h641l148 -354h270l-626 1444h-222l-624 -1444h262zM485 561l236 590l240 -590h-476z" />
    <glyph glyph-name="B" unicode="B" horiz-adv-x="1359" 
d="M147 1440v-1440h560q143 0 253 30.5t178 84.5t102 125.5t34 156.5q0 140 -81 232t-241 121q103 38 158 123t55 204q0 94 -39.5 165t-109.5 113.5t-158 63.5t-192 21h-519zM393 827v406h258q128 0 198.5 -50t70.5 -149q0 -94 -69.5 -150.5t-201.5 -56.5h-256zM393 209v426
h271q191 0 276.5 -54t85.5 -159q0 -213 -315 -213h-318z" />
    <glyph glyph-name="C" unicode="C" horiz-adv-x="1417" 
d="M1309 408q-116 -103 -222 -156t-239 -53q-146 0 -260.5 70t-176 188.5t-61.5 263.5q0 143 61.5 262t176 189.5t260.5 70.5q271 0 436 -184v264q-189 145 -440 145q-159 0 -298.5 -58.5t-238 -158.5t-155 -238.5t-56.5 -293.5q0 -157 57 -296t155.5 -238t236 -156.5
t291.5 -57.5q140 0 254 44t219 128v265z" />
    <glyph glyph-name="D" unicode="D" horiz-adv-x="1513" 
d="M147 1440v-1440h484q177 0 325.5 54t249.5 149.5t157 229.5t56 290q0 212 -98.5 375.5t-277 252.5t-408.5 89h-488zM397 221v996h299q142 0 249.5 -72t160.5 -183.5t53 -242.5q0 -225 -140 -361.5t-388 -136.5h-234z" />
    <glyph glyph-name="E" unicode="E" horiz-adv-x="1304" 
d="M397 217v410h701v207h-701v389h764v217h-1014v-1440h1033v217h-783z" />
    <glyph glyph-name="F" unicode="F" horiz-adv-x="1255" 
d="M397 -4v602h693v215h-693v408h758v219h-1008v-1444h250z" />
    <glyph glyph-name="G" unicode="G" horiz-adv-x="1652" 
d="M1323 621q0 -196 -134.5 -314.5t-330.5 -118.5q-217 0 -363.5 152t-146.5 379q0 141 72.5 263t197.5 193.5t273 71.5q251 0 426 -168v269q-183 120 -443 120q-215 0 -393.5 -99t-281.5 -270.5t-103 -377.5q0 -209 97 -382t269 -272.5t382 -99.5q333 0 522.5 212
t189.5 581v65h-616v-204h383z" />
    <glyph glyph-name="H" unicode="H" horiz-adv-x="1482" 
d="M147 1442v-1442h250v618h690v-618h248v1442h-248v-598h-690v598h-250z" />
    <glyph glyph-name="I" unicode="I" horiz-adv-x="542" 
d="M397 0v1440h-250v-1440h250z" />
    <glyph glyph-name="J" unicode="J" horiz-adv-x="827" 
d="M0 57q119 -80 254 -80q208 0 323 126.5t115 357.5v979h-250v-983q0 -136 -49.5 -197t-144.5 -61q-65 0 -121.5 25.5t-126.5 74.5v-242z" />
    <glyph glyph-name="K" unicode="K" horiz-adv-x="1267" 
d="M397 842v598h-250v-1440h250v700l572 -700h305l-639 784l596 656h-307z" />
    <glyph glyph-name="L" unicode="L" horiz-adv-x="1132" 
d="M397 221v1219h-250v-1440h953v221h-703z" />
    <glyph glyph-name="M" unicode="M" horiz-adv-x="1585" 
d="M295 1044l496 -747l495 750v-1047h246v1434h-250l-489 -760l-490 760h-254v-1434h246v1044z" />
    <glyph glyph-name="N" unicode="N" horiz-adv-x="1548" 
d="M1157 397l-770 1037h-240v-1434h246v1051l776 -1051h232v1440h-244v-1043z" />
    <glyph glyph-name="O" unicode="O" horiz-adv-x="1701" 
d="M850 -29q211 0 385.5 100t273.5 273t99 381q0 202 -96.5 372t-270.5 270.5t-387 100.5q-160 0 -301.5 -59t-241.5 -160t-157.5 -239t-57.5 -291q0 -154 57 -292t156 -238.5t240 -159t301 -58.5zM852 1245q109 0 204 -43t159.5 -115t101.5 -168t37 -202q0 -142 -63.5 -261
t-179.5 -190t-259 -71q-145 0 -261 71t-179.5 191.5t-63.5 267.5q0 143 63.5 261.5t179.5 188.5t261 70z" />
    <glyph glyph-name="P" unicode="P" horiz-adv-x="1261" 
d="M147 1440v-1444h250v522h250q159 0 284 53.5t199 161.5t74 256q0 212 -146 331.5t-394 119.5h-517zM397 725v502h246q152 0 231.5 -62.5t79.5 -187.5q0 -120 -81.5 -186t-229.5 -66h-246z" />
    <glyph glyph-name="Q" unicode="Q" horiz-adv-x="1732" 
d="M1642 -209v287l-202 176q168 196 168 467q0 153 -57 290.5t-156 238t-240 159.5t-301 59t-301.5 -59t-241.5 -160t-157.5 -239.5t-57.5 -292.5q0 -153 57 -290t156 -237.5t240 -159.5t301 -59q232 0 428 127zM852 1245q109 0 204 -43t159.5 -115t101.5 -168t37 -202
q0 -143 -63.5 -262t-179.5 -189.5t-259 -70.5q-145 0 -261 71t-179.5 191t-63.5 264q0 145 63.5 264.5t179.5 189.5t261 70z" />
    <glyph glyph-name="R" unicode="R" horiz-adv-x="1273" 
d="M147 0h252v553h183l393 -553h295l-428 582q170 41 267 149t97 270q0 198 -143.5 318.5t-388.5 120.5h-527v-1440zM399 750v473h254q301 0 301 -234q0 -120 -87.5 -179.5t-235.5 -59.5h-232z" />
    <glyph glyph-name="S" unicode="S" horiz-adv-x="1181" 
d="M850 367q0 -50 -24.5 -87t-66 -56.5t-85 -28.5t-90.5 -9q-133 0 -271 58t-258 170v-246q204 -193 523 -193q104 0 195 23.5t165.5 70t118 125.5t43.5 181t-41.5 183t-108 132.5t-146.5 93t-160 74t-146.5 64.5t-108 76.5t-41.5 99.5q0 75 64.5 117t177.5 42
q109 0 219.5 -47.5t198.5 -144.5v260q-169 141 -428 141q-129 0 -236.5 -41.5t-176.5 -129t-69 -205.5q0 -84 32.5 -154t85 -116t120.5 -87t138 -69.5t138 -61t120.5 -63.5t85 -75t32.5 -97z" />
    <glyph glyph-name="T" unicode="T" horiz-adv-x="1144" 
d="M696 0v1221h430v219h-1108v-219h431v-1221h247z" />
    <glyph glyph-name="U" unicode="U" horiz-adv-x="1474" 
d="M133 598q0 -301 157.5 -465t446.5 -164q290 0 446 164.5t156 470.5v838h-247v-844q0 -200 -92 -300.5t-263 -100.5q-176 0 -265 105.5t-89 303.5v836h-250v-844z" />
    <glyph glyph-name="V" unicode="V" horiz-adv-x="1382" 
d="M266 1440h-278l573 -1444h262l568 1444h-271l-426 -1145z" />
    <glyph glyph-name="W" unicode="W" horiz-adv-x="2095" 
d="M610 373l-342 1067h-264l481 -1444h230l329 1069l342 -1069h226l479 1444h-258l-336 -1067l-334 1069h-225z" />
    <glyph glyph-name="X" unicode="X" horiz-adv-x="1341" 
d="M326 1440h-289l489 -705l-514 -735h285l373 549l372 -549h285l-510 739l483 701h-278l-346 -514z" />
    <glyph glyph-name="Y" unicode="Y" horiz-adv-x="1333" 
d="M793 0v563l548 877h-276l-393 -647l-393 647h-287l551 -879v-561h250z" />
    <glyph glyph-name="Z" unicode="Z" horiz-adv-x="1302" 
d="M348 215l916 1030v195h-1203v-215h877l-922 -1030v-195h1217v215h-885z" />
    <glyph glyph-name="bracketleft" unicode="[" horiz-adv-x="829" 
d="M723 1290v180h-565v-1773h565v176h-344v1417h344z" />
    <glyph glyph-name="backslash" unicode="\" horiz-adv-x="1056" 
d="M2 1585l856 -1833l197 25l-858 1835z" />
    <glyph glyph-name="bracketright" unicode="]" horiz-adv-x="831" 
d="M106 -127v-178h570v1775h-570v-182h345v-1415h-345z" />
    <glyph glyph-name="asciicircum" unicode="^" horiz-adv-x="993" 
d="M401 1442l-342 -535h191l244 371l243 -371h197l-346 535h-187z" />
    <glyph glyph-name="underscore" unicode="_" horiz-adv-x="1177" 
d="M0 -143v-166h1178v166h-1178z" />
    <glyph glyph-name="grave" unicode="`" horiz-adv-x="505" 
d="M20 1505l275 -264h178l-203 330z" />
    <glyph glyph-name="a" unicode="a" horiz-adv-x="1165" 
d="M799 262q-101 -112 -258 -112q-100 0 -168 48.5t-68 137.5q0 91 74.5 139.5t177.5 48.5q130 0 242 -61v-201zM1036 633q0 200 -132.5 307t-354.5 107q-194 0 -406 -86v-199q163 90 369 90q287 0 287 -203v-33q-115 62 -299 62q-69 0 -130 -11t-117 -36t-96.5 -63
t-64.5 -96t-24 -130q0 -113 59 -198t148.5 -126t191.5 -41q192 0 328 127l241 -112v641z" />
    <glyph glyph-name="b" unicode="b" horiz-adv-x="1288" 
d="M381 141q133 -161 350 -161q135 0 246 65t177.5 188t66.5 281q0 120 -38.5 222t-104.5 171t-155 107.5t-188 38.5q-218 0 -366 -195v641h-242v-1505zM672 844q139 0 225 -96.5t86 -235.5q0 -145 -88 -237.5t-223 -92.5q-129 0 -219.5 94.5t-90.5 237.5t90.5 236.5
t219.5 93.5z" />
    <glyph glyph-name="c" unicode="c" horiz-adv-x="964" 
d="M868 983q-103 66 -262 66q-157 0 -281 -73.5t-190.5 -195.5t-66.5 -268q0 -148 69 -270.5t190.5 -193.5t268.5 -71q149 0 283 74v246q-115 -115 -256 -115q-132 0 -224 99.5t-92 238.5q0 140 88 233t221 93q140 0 252 -115v252z" />
    <glyph glyph-name="d" unicode="d" horiz-adv-x="1288" 
d="M1159 -6v1505h-241v-631q-136 185 -365 185q-98 0 -186 -38.5t-154.5 -107t-105.5 -170.5t-39 -223t39 -222.5t105.5 -169t155.5 -105t189 -37.5q114 0 195.5 45t152.5 129zM610 182q-136 0 -219.5 98t-83.5 236q0 146 88.5 239t214.5 93q128 0 221 -96t93 -236
q0 -144 -92 -239t-222 -95z" />
    <glyph glyph-name="e" unicode="e" horiz-adv-x="1144" 
d="M981 311q-72 -70 -170.5 -109.5t-200.5 -39.5q-105 0 -177 47.5t-109 130.5l753 188q-8 107 -44.5 200.5t-98 166t-153.5 114.5t-203 42q-149 0 -266 -71t-180.5 -194t-63.5 -276q0 -233 151 -385t383 -152q104 0 204.5 30.5t174.5 86.5v221zM301 526q0 85 28.5 158.5
t91.5 123.5t150 50q101 0 171 -57.5t94 -151.5l-531 -137z" />
    <glyph glyph-name="f" unicode="f" horiz-adv-x="712" 
d="M719 1483q-64 24 -164 24q-342 0 -342 -370v-111l-193 -197h193v-829h236v829h247v195h-270v104q0 95 44 144t126 49q59 0 123 -23v185z" />
    <glyph glyph-name="g" unicode="g" horiz-adv-x="1298" 
d="M623 256q-132 0 -218 86t-86 215q0 132 85 215.5t217 83.5q133 0 222 -85t89 -216q0 -129 -89.5 -214t-219.5 -85zM932 150q0 -175 -92.5 -255.5t-270.5 -80.5q-230 0 -426 143v-225q206 -109 426 -109q133 0 242.5 35t189.5 102t124 170.5t44 235.5v862l-256 -139
q-143 164 -352 164q-131 0 -241.5 -61.5t-177 -177.5t-66.5 -263q0 -143 64.5 -256t175 -174.5t245.5 -61.5q117 0 205.5 48.5t165.5 138.5v-96z" />
    <glyph glyph-name="h" unicode="h" horiz-adv-x="1173" 
d="M1059 655q0 185 -93 290.5t-268 105.5q-209 0 -340 -164v612h-233v-1499h242v582q0 115 71.5 178t173.5 63q100 0 152.5 -60.5t52.5 -180.5v-582h242v655z" />
    <glyph glyph-name="i" unicode="i" horiz-adv-x="509" 
d="M375 0v1028h-240v-1028h240zM252 1487q-67 0 -110.5 -41.5t-43.5 -108.5q0 -64 45.5 -105.5t108.5 -41.5q68 0 113 41t45 106q0 68 -44.5 109t-113.5 41z" />
    <glyph glyph-name="j" unicode="j" horiz-adv-x="636" 
d="M98 -362q69 -15 121 -15q159 0 223 87t64 255v1063h-240v-1089q0 -63 -22 -96t-76 -33q-32 0 -70 12v-184zM381 1487q-67 0 -111.5 -41t-44.5 -109q0 -65 44.5 -106t111.5 -41q65 0 110.5 41.5t45.5 105.5q0 67 -45.5 108.5t-110.5 41.5z" />
    <glyph glyph-name="k" unicode="k" horiz-adv-x="1026" 
d="M367 629v870h-242v-1499h242v487l378 -487h281l-442 569l426 459h-291z" />
    <glyph glyph-name="l" unicode="l" horiz-adv-x="497" 
d="M367 0v1499h-242v-1499h242z" />
    <glyph glyph-name="m" unicode="m" horiz-adv-x="1804" 
d="M1450 0h242v657q0 173 -92 283.5t-263 110.5q-231 0 -350 -183q-40 93 -120 138t-185 45q-97 0 -179 -39t-138 -115l-240 129v-1026h242v582q0 112 60 184t163 72q100 0 148 -68.5t48 -187.5v-582h242v582q0 109 58.5 182.5t162.5 73.5q95 0 148 -63t53 -193v-582z" />
    <glyph glyph-name="n" unicode="n" horiz-adv-x="1173" 
d="M1059 655q0 182 -95.5 289t-269.5 107q-194 0 -323 -160l-246 137v-1028h242v582q0 68 22 119.5t58 80t75.5 42.5t81.5 14q88 0 150.5 -62.5t62.5 -193.5v-582h242v655z" />
    <glyph glyph-name="o" unicode="o" horiz-adv-x="1249" 
d="M621 -23q153 0 281.5 70t204 194.5t75.5 274.5q0 147 -72 270t-200.5 195t-286.5 72t-285.5 -72.5t-198.5 -196.5t-71 -272q0 -147 71 -269.5t198.5 -194t283.5 -71.5zM621 848q140 0 230.5 -98t90.5 -236q0 -136 -91 -234t-228 -98q-133 0 -224.5 96.5t-91.5 237.5
t87 236.5t227 95.5z" />
    <glyph glyph-name="p" unicode="p" horiz-adv-x="1288" 
d="M369 160q139 -180 366 -180q97 0 185 38t155.5 106.5t107.5 170t40 221.5t-39 222t-106 170t-155.5 106.5t-187.5 38.5q-115 0 -197.5 -46.5t-152.5 -132.5l-258 154v-1393h242v525zM674 844q139 0 225 -94.5t86 -233.5q0 -148 -89 -241t-220 -93q-127 0 -220.5 95
t-93.5 237t91 236t221 94z" />
    <glyph glyph-name="q" unicode="q" horiz-adv-x="1288" 
d="M918 -365h241v1393l-254 -143q-74 81 -154.5 124.5t-193.5 43.5q-100 0 -189 -38.5t-155.5 -107t-105.5 -170.5t-39 -223q0 -156 66.5 -279.5t177.5 -190.5t245 -67q213 0 361 191v-533zM614 182q-135 0 -221 100t-86 236q0 145 87.5 237.5t219.5 92.5q129 0 221.5 -95.5
t92.5 -236.5q0 -143 -92 -238.5t-222 -95.5z" />
    <glyph glyph-name="r" unicode="r" horiz-adv-x="751" 
d="M748 1040q-35 7 -66 7q-95 0 -176 -43t-135 -123l-246 147v-1028h242v485q0 83 26.5 147.5t71 102.5t98 57t113.5 19q52 0 72 -12v241z" />
    <glyph glyph-name="s" unicode="s" horiz-adv-x="860" 
d="M571 283q0 -62 -48 -91.5t-115 -29.5q-87 0 -183.5 43t-177.5 110v-225q95 -53 181 -81.5t192 -28.5q171 0 274 88t103 225q0 69 -28.5 124.5t-74 91t-100.5 64.5t-110 51t-100.5 43t-74 48.5t-28.5 60.5q0 37 34.5 63.5t94.5 26.5q133 0 307 -125v228q-135 82 -307 82
q-162 0 -257.5 -76.5t-95.5 -206.5q0 -68 28.5 -121t73.5 -86.5t100 -60t110 -48t100 -43.5t73.5 -54t28.5 -72z" />
    <glyph glyph-name="t" unicode="t" horiz-adv-x="759" 
d="M231 279q0 -137 74 -219.5t207 -82.5q93 0 156 35v197q-52 -27 -101 -27q-96 0 -96 111v534h260v201h-260v342l-444 -543h204v-548z" />
    <glyph glyph-name="u" unicode="u" horiz-adv-x="1161" 
d="M117 373q0 -183 91.5 -288t270.5 -105q204 0 324 147l244 -135v1038h-242v-584q0 -67 -21 -118t-55.5 -79.5t-74.5 -42t-83 -13.5q-91 0 -152 61.5t-61 191.5v584h-241v-657z" />
    <glyph glyph-name="v" unicode="v" horiz-adv-x="1058" 
d="M641 -4l426 1030h-254l-281 -750l-282 750h-258l422 -1030h227z" />
    <glyph glyph-name="w" unicode="w" horiz-adv-x="1558" 
d="M238 1028h-244l338 -1032h217l227 731l228 -731h223l338 1032h-244l-213 -709l-215 711h-223l-217 -713z" />
    <glyph glyph-name="x" unicode="x" horiz-adv-x="1064" 
d="M399 526l-389 -526h262l258 356l256 -356h269l-387 530l364 496h-260l-237 -328l-236 328h-270z" />
    <glyph glyph-name="y" unicode="y" horiz-adv-x="1062" 
d="M-8 1026l450 -1030l-133 -361h215l547 1391h-250l-274 -760l-299 760h-256z" />
    <glyph glyph-name="z" unicode="z" horiz-adv-x="1052" 
d="M332 199l674 649v180h-945v-197h641l-675 -653v-178h970v199h-665z" />
    <glyph glyph-name="braceleft" unicode="{" horiz-adv-x="870" 
d="M82 496q43 0 77.5 -7t59 -19.5t42 -31t28 -41.5t17 -50t8.5 -57.5t3 -64t0 -69.5q-1 -92 7.5 -157t30.5 -115.5t54 -82.5t86 -55t118.5 -35t158.5 -20l16 159q-138 26 -188.5 87.5t-50.5 199.5q2 51 0 98.5t-6 90t-17.5 81.5t-35 72t-58.5 62t-88 51q47 19 82 42.5
t57 47.5t36.5 57t21 60t9 69t1.5 71.5t-2.5 79t-1.5 81.5q0 41 7 73t23.5 54.5t35 38t49.5 28t57.5 19.5t68.5 16l-16 160q-98 -6 -170 -23.5t-122 -50t-81.5 -73t-49 -102.5t-24 -128.5t-6.5 -159.5q0 -60 -4.5 -99t-18.5 -74.5t-40 -55t-69 -30.5t-105 -11v-186z" />
    <glyph glyph-name="bar" unicode="|" horiz-adv-x="1245" 
d="M723 1591h-199v-1906h199v1906z" />
    <glyph glyph-name="braceright" unicode="}" horiz-adv-x="870" 
d="M788 682q-48 -1 -85.5 5.5t-62.5 20.5t-43 30t-27.5 42.5t-15 49.5t-6 57.5t0.5 61t2.5 67t1.5 67.5q0 116 -28 193t-89.5 121t-139.5 64t-198 28l-16 -160q138 -25 190 -86t50 -196q0 -165 11 -224q23 -127 122 -193q31 -21 71 -38q-34 -15 -61 -33t-47 -35t-35.5 -42
t-25.5 -43.5t-17 -50.5t-10.5 -51t-5.5 -57.5t-2 -59v-64.5v-19q1 -137 -51 -199t-189 -88l16 -159q75 5 134 15.5t105 29t79.5 41.5t57.5 58.5t39 73t23.5 91t11.5 108t3 128.5t8.5 118.5t34 79t72 48.5t122.5 14v186z" />
    <glyph glyph-name="asciitilde" unicode="~" horiz-adv-x="1054" 
d="M823 776q-50 -110 -139 -110q-41 0 -95 25t-116.5 50t-122.5 25q-91 0 -149.5 -58t-100.5 -186l127 -59q30 60 60.5 87.5t77.5 27.5q51 0 165.5 -50.5t178.5 -50.5q167 0 243 242z" />
    <glyph glyph-name="uni00A0" unicode="&#xa0;" horiz-adv-x="573" 
 />
    <glyph glyph-name="exclamdown" unicode="&#xa1;" horiz-adv-x="628" 
d="M172 -367h283l-6 230l-62 780h-145l-62 -780zM313 803q66 0 111 40t45 105q0 68 -45 108t-111 40t-110.5 -40t-44.5 -108q0 -66 45 -105.5t110 -39.5z" />
    <glyph glyph-name="cent" unicode="&#xa2;" horiz-adv-x="1007" 
d="M481 436q-188 95 -188 320q0 146 72 232t200 97zM922 1188q-86 62 -172 80l22 176h-166l-20 -158q-231 -9 -373.5 -158.5t-142.5 -379.5q0 -177 103.5 -318t270.5 -188l-26 -197h168l22 172q190 6 314 111v229q-132 -143 -295 -143l84 661q63 -7 118 -38.5t93 -75.5v227z
" />
    <glyph glyph-name="sterling" unicode="&#xa3;" horiz-adv-x="1148" 
d="M938 596v184h-489v176q0 127 60 206t181 79q85 0 144.5 -32t115.5 -99l164 154q-163 200 -430 200q-227 0 -355 -139t-128 -367v-178h-144v-184h144v-596h897v203h-649v393h489z" />
    <glyph glyph-name="currency" unicode="&#xa4;" horiz-adv-x="1435" 
d="M1341 1167l-122 121l-193 -188q-131 96 -307 96q-181 0 -307 -98l-195 190l-121 -121l191 -190q-50 -71 -71 -142t-21 -163q0 -173 96 -307l-195 -195l121 -123l201 197q145 -97 301 -97q159 0 305 95l197 -195l120 123l-192 188q100 146 100 314q0 158 -96 309zM387 672
q0 148 94 246t238 98q148 0 240 -98t92 -248q0 -144 -92.5 -242t-239.5 -98q-146 0 -239 98.5t-93 243.5z" />
    <glyph glyph-name="yen" unicode="&#xa5;" horiz-adv-x="1273" 
d="M518 436h-379v-174h379v-262h240v262h377v174h-373l14 156h359v174h-291l434 674h-277l-358 -613l-362 613h-283l434 -674h-293v-174h359z" />
    <glyph glyph-name="brokenbar" unicode="&#xa6;" horiz-adv-x="1263" 
d="M743 1386h-219v-718h219v718zM743 354h-219v-710h219v710z" />
    <glyph glyph-name="section" unicode="&#xa7;" horiz-adv-x="1163" 
d="M897 1376q-141 97 -330 97q-183 0 -295 -83t-112 -214q0 -71 36.5 -131t96.5 -103q-232 -62 -232 -250q0 -109 99 -187t305 -136q143 -41 211.5 -85.5t68.5 -103.5q0 -127 -176 -127q-196 0 -344 142v-218q145 -104 342 -104q186 0 297 88t111 225q0 133 -129 230
q227 63 227 250q0 107 -92.5 179.5t-316.5 141.5q-149 48 -210 93.5t-61 93.5q0 116 182 116q87 0 163.5 -32t158.5 -97v215zM440 854q48 -8 112 -25t140 -46t127 -72.5t51 -92.5q0 -52 -45.5 -85t-122.5 -33q-113 14 -209 43t-161.5 76.5t-65.5 103.5q0 58 46.5 90.5
t127.5 40.5z" />
    <glyph glyph-name="dieresis" unicode="&#xa8;" horiz-adv-x="770" 
d="M178 1561q-62 0 -101.5 -38.5t-39.5 -99.5q0 -62 40 -100.5t101 -38.5q60 0 102 38.5t42 100.5q0 60 -42 99t-102 39zM592 1561q-60 0 -98.5 -39t-38.5 -99q0 -62 39 -100.5t98 -38.5q63 0 102 38t39 101q0 62 -39 100t-102 38z" />
    <glyph glyph-name="copyright" unicode="&#xa9;" horiz-adv-x="1691" 
d="M68 733q0 -162 61.5 -308.5t165.5 -252t248.5 -167.5t304.5 -62q128 0 247 39.5t214.5 112.5t167 169.5t110.5 216.5t39 248q0 160 -62 305.5t-166.5 251t-249 168t-302.5 62.5q-157 0 -301.5 -63t-248.5 -169t-166 -250.5t-62 -300.5zM1509 729q0 -181 -89 -334.5
t-241.5 -242.5t-330.5 -89q-182 0 -335 90t-241 243.5t-88 334.5q0 180 88 332t241 241t335 89q181 0 333.5 -89t240 -241.5t87.5 -333.5zM1104 561q-109 -98 -232 -98q-112 0 -183 79.5t-71 198.5q0 117 72.5 195t179.5 78q65 0 127 -27t107 -72v199q-110 74 -246 74
q-193 0 -317.5 -128.5t-124.5 -318.5q0 -191 125.5 -321.5t312.5 -130.5q138 0 250 84v188z" />
    <glyph glyph-name="ordfeminine" unicode="&#xaa;" horiz-adv-x="679" 
d="M49 1049q0 -85 63 -136t150 -51q116 0 193 90v-78h141v353q0 126 -70.5 189t-199.5 63q-111 0 -226 -54l35 -110q76 43 172 43q148 0 148 -127v-14q-87 26 -158 26q-114 0 -181 -49.5t-67 -144.5zM43 727v-117h563v117h-563zM455 1094q0 -60 -45 -94.5t-107 -34.5
q-51 0 -82 24.5t-31 67.5q0 47 36 73.5t100 26.5q62 0 129 -27v-36z" />
    <glyph glyph-name="guillemotleft" unicode="&#xab;" horiz-adv-x="1177" 
d="M600 164l-264 364l266 367l-190 76l-326 -447l326 -440zM1073 164l-264 364l266 367l-190 76l-326 -447l326 -440z" />
    <glyph glyph-name="logicalnot" unicode="&#xac;" horiz-adv-x="1275" 
d="M1167 260v586h-1058v-193h864v-393h194z" />
    <glyph glyph-name="uni00AD" unicode="&#xad;" horiz-adv-x="706" 
d="M651 449v219h-594v-219h594z" />
    <glyph glyph-name="registered" unicode="&#xae;" horiz-adv-x="1560" 
d="M786 1462q-151 0 -288.5 -57.5t-237 -155t-158.5 -233t-59 -285.5q0 -200 98.5 -369.5t269 -268.5t371.5 -99q148 0 284 59t235.5 158t159 235.5t59.5 284.5t-58 283t-156 233t-234.5 156.5t-285.5 58.5zM782 102q-172 0 -315.5 84t-226 227.5t-82.5 313.5
q0 128 48.5 244t132 200t200.5 133.5t247 49.5q168 0 311 -84t225.5 -227t82.5 -310q0 -169 -82 -314t-226 -231t-315 -86zM498 1159v-846h170v326h49l248 -326h196l-268 351q88 23 144.5 88t56.5 157q0 112 -78.5 181t-204.5 69h-313zM668 784v230h123q67 0 104 -33.5
t37 -83.5t-41 -81.5t-103 -31.5h-120z" />
    <glyph glyph-name="macron" unicode="&#xaf;" horiz-adv-x="833" 
d="M752 1231v158h-666v-158h666z" />
    <glyph glyph-name="degree" unicode="&#xb0;" horiz-adv-x="794" 
d="M399 858q134 0 229 93.5t95 226.5t-95 226t-229 93q-133 0 -230 -95t-97 -226q0 -132 96.5 -225t230.5 -93zM399 1362q76 0 128.5 -53.5t52.5 -130.5q0 -81 -52 -133t-129 -52q-79 0 -130.5 53.5t-51.5 131.5q0 75 52.5 129.5t129.5 54.5z" />
    <glyph glyph-name="plusminus" unicode="&#xb1;" horiz-adv-x="1241" 
d="M121 866v-184h409v-315h183v315h409v184h-409v324h-183v-324h-409zM121 229v-184h1001v184h-1001z" />
    <glyph glyph-name="uni00B2" unicode="&#xb2;" horiz-adv-x="747" 
d="M31 584h612l41 145l-332 -4l105 113q128 136 175.5 209.5t47.5 160.5q0 118 -83 191.5t-212 73.5q-102 0 -165.5 -42t-115.5 -139l144 -65q57 102 131 102q52 0 86.5 -35.5t34.5 -89.5q0 -25 -11 -53.5t-23.5 -51.5t-46 -66t-54.5 -68t-74 -86z" />
    <glyph glyph-name="uni00B3" unicode="&#xb3;" horiz-adv-x="702" 
d="M18 815q29 -246 299 -246q144 0 240 77.5t96 205.5q0 79 -40.5 129.5t-135.5 83.5q133 65 133 192q0 104 -79 164t-199 60q-118 0 -191 -58.5t-90 -181.5h170q15 54 41 77t70 23q47 0 76.5 -27.5t29.5 -70.5q0 -57 -42.5 -91t-108.5 -34h-33v-127q5 0 23.5 1t23.5 1
q93 0 135.5 -39t42.5 -94q0 -65 -43 -108t-110 -43q-57 0 -88 24.5t-41 81.5h-179z" />
    <glyph glyph-name="acute" unicode="&#xb4;" horiz-adv-x="501" 
d="M229 1571l-194 -330h172l276 264z" />
    <glyph glyph-name="uni00B5" unicode="&#xb5;" horiz-adv-x="1204" 
d="M375 -365h-242v1395h242v-584q0 -125 61.5 -190.5t147.5 -65.5q103 0 170 66.5t67 189.5v584h242v-1030l-244 135q-41 -72 -103 -113.5t-136 -41.5q-67 0 -121 33.5t-84 97.5v-476z" />
    <glyph glyph-name="paragraph" unicode="&#xb6;" horiz-adv-x="1300" 
d="M438 -219h185v1485h172v-1485h184v1485h82v180h-561q-201 0 -312.5 -98t-111.5 -279q0 -305 362 -367v-921z" />
    <glyph glyph-name="periodcentered" unicode="&#xb7;" horiz-adv-x="634" 
d="M317 895q-69 0 -114 -43.5t-45 -112.5q0 -70 45.5 -114.5t113.5 -44.5q66 0 112 45t46 114q0 68 -46 112t-112 44z" />
    <glyph glyph-name="cedilla" unicode="&#xb8;" horiz-adv-x="626" 
d="M344 -143l86 143h-135l-131 -197l43 -34q43 18 76 18q79 0 79 -59q0 -42 -40 -63t-84 -21q-48 0 -115 24l-33 -92q92 -45 186 -45q44 0 85.5 10t79.5 30t61.5 57t23.5 85q0 74 -52 109t-120 35h-10z" />
    <glyph glyph-name="uni00B9" unicode="&#xb9;" horiz-adv-x="534" 
d="M184 586h181v872h-136q-21 -18 -49 -37.5t-63 -43t-54 -36.5v-161q62 27 121 77v-671z" />
    <glyph glyph-name="ordmasculine" unicode="&#xba;" horiz-adv-x="712" 
d="M43 1169q0 -130 90.5 -219.5t220.5 -89.5q132 0 223 93t91 223q0 124 -89.5 214.5t-220.5 90.5q-134 0 -224.5 -91t-90.5 -221zM61 729v-117h590v117h-590zM524 1169q0 -77 -45 -128.5t-121 -51.5q-75 0 -123.5 53.5t-48.5 133.5q0 73 46.5 125.5t121.5 52.5t122.5 -52.5
t47.5 -132.5z" />
    <glyph glyph-name="guillemotright" unicode="&#xbb;" horiz-adv-x="1179" 
d="M360 528l-264 -364l191 -80l323 440l-325 447l-191 -76zM834 528l-265 -364l189 -80l325 440l-325 447l-191 -76z" />
    <glyph glyph-name="onequarter" unicode="&#xbc;" horiz-adv-x="1437" 
d="M922 287q37 60 112.5 174.5t91.5 140.5l2 2v-12v-305h-106h-100zM723 150q147 0 405 4l-4 -152h176v152q50 -4 70 -4l25 139l-95 -2v592h-157l-420 -629v-100zM311 -131l926 1737h-213l-922 -1737h209zM154 586h180v872h-135q-21 -18 -49 -37.5t-63 -43t-54 -36.5v-161
q62 27 121 77v-671z" />
    <glyph glyph-name="onehalf" unicode="&#xbd;" horiz-adv-x="1548" 
d="M291 -131l926 1737h-213l-922 -1737h209zM160 586h180v872h-135q-21 -18 -49 -37.5t-63 -43t-54 -36.5v-161q62 27 121 77v-671zM813 -2h612l41 145l-331 -4l104 113q66 70 100.5 110.5t66.5 87.5t44 87t12 86q0 117 -83 190.5t-212 73.5q-102 0 -165 -41.5t-115 -138.5
l143 -66q57 102 131 102q52 0 86.5 -35.5t34.5 -89.5q0 -25 -11 -53.5t-23.5 -51.5t-46 -66t-54.5 -68t-74 -86z" />
    <glyph glyph-name="threequarters" unicode="&#xbe;" horiz-adv-x="1683" 
d="M47 815q29 -246 299 -246q144 0 240 77.5t96 205.5q0 79 -40.5 129.5t-135.5 83.5q133 65 133 192q0 104 -79.5 164t-199.5 60q-117 0 -190 -58.5t-90 -181.5h170q15 54 40.5 77t69.5 23q47 0 77 -27.5t30 -70.5q0 -57 -43 -91t-109 -34h-32v-127q5 0 23.5 1t23.5 1
q93 0 135.5 -39t42.5 -94q0 -65 -43.5 -108t-110.5 -43q-57 0 -88 24.5t-41 81.5h-178zM559 -131l926 1737h-213l-922 -1737h209zM1165 287q38 60 113.5 174.5t91.5 140.5l2 2v-12v-305h-106h-101zM967 150q147 0 405 4l-4 -152h176v152q50 -4 70 -4l24 139l-94 -2v592h-158
l-419 -629v-100z" />
    <glyph glyph-name="questiondown" unicode="&#xbf;" horiz-adv-x="954" 
d="M860 4q-149 -182 -323 -182q-88 0 -142.5 49t-54.5 119q0 58 34.5 107.5t96.5 101.5q41 36 69 66t58 73t45.5 96.5t15.5 114.5v113h-233v-64q0 -93 -27.5 -145.5t-103.5 -116.5q-96 -80 -147.5 -164.5t-51.5 -198.5q0 -166 113.5 -266t288.5 -100q115 0 208.5 41
t153.5 116v240zM532 797q64 0 109 41t45 106q0 67 -45 107.5t-109 40.5q-69 0 -113 -40t-44 -108q0 -64 44.5 -105.5t112.5 -41.5z" />
    <glyph glyph-name="Agrave" unicode="&#xc0;" horiz-adv-x="1447" 
d="M401 354h641l148 -354h270l-626 1444h-222l-624 -1444h262zM485 561l236 590l240 -590h-476zM350 1843l275 -264h178l-203 330z" />
    <glyph glyph-name="Aacute" unicode="&#xc1;" horiz-adv-x="1447" 
d="M401 354h641l148 -354h270l-626 1444h-222l-624 -1444h262zM485 561l236 590l240 -590h-476zM850 1909l-195 -330h172l277 264z" />
    <glyph glyph-name="Acircumflex" unicode="&#xc2;" horiz-adv-x="1447" 
d="M401 354h641l148 -354h270l-626 1444h-222l-624 -1444h262zM485 561l236 590l240 -590h-476zM1047 1610l-240 319h-168l-240 -319h179l145 153l145 -153h179z" />
    <glyph glyph-name="Atilde" unicode="&#xc3;" horiz-adv-x="1447" 
d="M401 354h641l148 -354h270l-626 1444h-222l-624 -1444h262zM485 561l236 590l240 -590h-476zM514 1571q32 94 104 94q35 0 117 -38t129 -38q144 0 215 240l-141 29q-18 -51 -37 -72t-51 -21q-30 0 -112.5 37t-135.5 37q-163 0 -231 -244z" />
    <glyph glyph-name="Adieresis" unicode="&#xc4;" horiz-adv-x="1447" 
d="M401 354h641l148 -354h270l-626 1444h-222l-624 -1444h262zM485 561l236 590l240 -590h-476zM518 1898q-62 0 -101.5 -38t-39.5 -99q0 -62 40 -100.5t101 -38.5q60 0 102 38.5t42 100.5q0 60 -42 98.5t-102 38.5zM932 1898q-60 0 -98.5 -38.5t-38.5 -98.5
q0 -62 39 -100.5t98 -38.5q63 0 102 38t39 101q0 61 -39 99t-102 38z" />
    <glyph glyph-name="Aring" unicode="&#xc5;" horiz-adv-x="1447" 
d="M401 354h641l148 -354h270l-626 1444h-222l-624 -1444h262zM485 561l236 590l240 -590h-476zM719 1389q94 0 159.5 61.5t65.5 153.5q0 93 -66 157t-159 64q-89 0 -154 -63.5t-65 -155.5q0 -91 65 -154t154 -63zM721 1700q41 0 68.5 -26.5t27.5 -67.5q0 -39 -26.5 -66
t-69.5 -27q-41 0 -67.5 26t-26.5 69q0 38 27 65t67 27z" />
    <glyph glyph-name="AE" unicode="&#xc6;" horiz-adv-x="1951" 
d="M786 1440l-798 -1440h262l205 354h469v-354h1034v217h-784v410h702v207h-702v389h765v217h-1153zM924 561h-367l367 660v-660z" />
    <glyph glyph-name="Ccedilla" unicode="&#xc7;" horiz-adv-x="1417" 
d="M1309 408q-116 -103 -222 -156t-239 -53q-146 0 -260.5 70t-176 188.5t-61.5 263.5q0 143 61.5 262t176 189.5t260.5 70.5q271 0 436 -184v264q-189 145 -440 145q-159 0 -298.5 -58.5t-238 -158.5t-155 -238.5t-56.5 -293.5q0 -157 57 -296t155.5 -238t236 -156.5
t291.5 -57.5q140 0 254 44t219 128v265zM795 -143l86 143h-136l-131 -197l43 -34q43 18 76 18q37 0 58.5 -15t21.5 -44q0 -42 -40 -63t-85 -21q-48 0 -115 24l-32 -92q92 -45 186 -45q44 0 85.5 10t79.5 30t61.5 57t23.5 85q0 74 -52 109t-120 35h-10z" />
    <glyph glyph-name="Egrave" unicode="&#xc8;" horiz-adv-x="1304" 
d="M397 217v410h701v207h-701v389h764v217h-1014v-1440h1033v217h-783zM350 1843l275 -264h178l-203 330z" />
    <glyph glyph-name="Eacute" unicode="&#xc9;" horiz-adv-x="1304" 
d="M397 217v410h701v207h-701v389h764v217h-1014v-1440h1033v217h-783zM729 1909l-194 -330h172l276 264z" />
    <glyph glyph-name="Ecircumflex" unicode="&#xca;" horiz-adv-x="1304" 
d="M397 217v410h701v207h-701v389h764v217h-1014v-1440h1033v217h-783zM985 1610l-240 319h-167l-240 -319h178l146 153l145 -153h178z" />
    <glyph glyph-name="Edieresis" unicode="&#xcb;" horiz-adv-x="1304" 
d="M397 217v410h701v207h-701v389h764v217h-1014v-1440h1033v217h-783zM451 1898q-62 0 -102 -38t-40 -99q0 -62 40.5 -100.5t101.5 -38.5q60 0 101.5 38.5t41.5 100.5q0 60 -41.5 98.5t-101.5 38.5zM864 1898q-60 0 -98.5 -38.5t-38.5 -98.5q0 -62 39 -100.5t98 -38.5
q63 0 102.5 38t39.5 101q0 61 -39.5 99t-102.5 38z" />
    <glyph glyph-name="Igrave" unicode="&#xcc;" horiz-adv-x="542" 
d="M397 0v1440h-250v-1440h250zM-92 1923l274 -264h178l-202 330z" />
    <glyph glyph-name="Iacute" unicode="&#xcd;" horiz-adv-x="542" 
d="M397 0v1440h-250v-1440h250zM371 1909l-195 -330h172l277 264z" />
    <glyph glyph-name="Icircumflex" unicode="&#xce;" horiz-adv-x="542" 
d="M397 0v1440h-250v-1440h250zM602 1610l-240 319h-167l-240 -319h178l146 153l145 -153h178z" />
    <glyph glyph-name="Idieresis" unicode="&#xcf;" horiz-adv-x="542" 
d="M397 0v1440h-250v-1440h250zM74 1898q-62 0 -102 -38t-40 -99q0 -62 40.5 -100.5t101.5 -38.5q60 0 101.5 38.5t41.5 100.5q0 60 -41.5 98.5t-101.5 38.5zM487 1898q-60 0 -98.5 -38.5t-38.5 -98.5q0 -62 39 -100.5t98 -38.5q63 0 102.5 38t39.5 101q0 61 -39.5 99
t-102.5 38z" />
    <glyph glyph-name="Eth" unicode="&#xd0;" horiz-adv-x="1574" 
d="M209 1440v-1440h481q178 0 326 54t249 150t156.5 229t55.5 290q0 212 -99 375.5t-277 252.5t-407 89h-485zM457 221v996h297q142 0 250 -72t161.5 -183.5t53.5 -242.5q0 -225 -141.5 -361.5t-389.5 -136.5h-231zM621 604v219h-594v-219h594z" />
    <glyph glyph-name="Ntilde" unicode="&#xd1;" horiz-adv-x="1548" 
d="M1157 397l-770 1037h-240v-1434h246v1051l776 -1051h232v1440h-244v-1043zM582 1571q32 94 104 94q35 0 117 -38t129 -38q144 0 215 240l-141 29q-18 -51 -37 -72t-51 -21q-30 0 -112.5 37t-135.5 37q-164 0 -232 -244z" />
    <glyph glyph-name="Ograve" unicode="&#xd2;" horiz-adv-x="1701" 
d="M850 -29q211 0 385.5 100t273.5 273t99 381q0 202 -96.5 372t-270.5 270.5t-387 100.5q-160 0 -301.5 -59t-241.5 -160t-157.5 -239t-57.5 -291q0 -154 57 -292t156 -238.5t240 -159t301 -58.5zM852 1245q109 0 204 -43t159.5 -115t101.5 -168t37 -202q0 -142 -63.5 -261
t-179.5 -190t-259 -71q-145 0 -261 71t-179.5 191.5t-63.5 267.5q0 143 63.5 261.5t179.5 188.5t261 70zM483 1843l275 -264h178l-203 330z" />
    <glyph glyph-name="Oacute" unicode="&#xd3;" horiz-adv-x="1701" 
d="M850 -29q211 0 385.5 100t273.5 273t99 381q0 202 -96.5 372t-270.5 270.5t-387 100.5q-160 0 -301.5 -59t-241.5 -160t-157.5 -239t-57.5 -291q0 -154 57 -292t156 -238.5t240 -159t301 -58.5zM852 1245q109 0 204 -43t159.5 -115t101.5 -168t37 -202q0 -142 -63.5 -261
t-179.5 -190t-259 -71q-145 0 -261 71t-179.5 191.5t-63.5 267.5q0 143 63.5 261.5t179.5 188.5t261 70zM1004 1909l-195 -330h172l276 264z" />
    <glyph glyph-name="Ocircumflex" unicode="&#xd4;" horiz-adv-x="1701" 
d="M850 -29q211 0 385.5 100t273.5 273t99 381q0 202 -96.5 372t-270.5 270.5t-387 100.5q-160 0 -301.5 -59t-241.5 -160t-157.5 -239t-57.5 -291q0 -154 57 -292t156 -238.5t240 -159t301 -58.5zM852 1245q109 0 204 -43t159.5 -115t101.5 -168t37 -202q0 -142 -63.5 -261
t-179.5 -190t-259 -71q-145 0 -261 71t-179.5 191.5t-63.5 267.5q0 143 63.5 261.5t179.5 188.5t261 70zM1176 1610l-240 319h-168l-240 -319h179l145 153l145 -153h179z" />
    <glyph glyph-name="Otilde" unicode="&#xd5;" horiz-adv-x="1701" 
d="M850 -29q211 0 385.5 100t273.5 273t99 381q0 202 -96.5 372t-270.5 270.5t-387 100.5q-160 0 -301.5 -59t-241.5 -160t-157.5 -239t-57.5 -291q0 -154 57 -292t156 -238.5t240 -159t301 -58.5zM852 1245q109 0 204 -43t159.5 -115t101.5 -168t37 -202q0 -142 -63.5 -261
t-179.5 -190t-259 -71q-145 0 -261 71t-179.5 191.5t-63.5 267.5q0 143 63.5 261.5t179.5 188.5t261 70zM641 1571q32 94 104 94q35 0 117 -38t129 -38q144 0 215 240l-141 29q-18 -51 -37 -72t-51 -21q-30 0 -112.5 37t-135.5 37q-163 0 -231 -244z" />
    <glyph glyph-name="Odieresis" unicode="&#xd6;" horiz-adv-x="1701" 
d="M850 -29q211 0 385.5 100t273.5 273t99 381q0 202 -96.5 372t-270.5 270.5t-387 100.5q-160 0 -301.5 -59t-241.5 -160t-157.5 -239t-57.5 -291q0 -154 57 -292t156 -238.5t240 -159t301 -58.5zM852 1245q109 0 204 -43t159.5 -115t101.5 -168t37 -202q0 -142 -63.5 -261
t-179.5 -190t-259 -71q-145 0 -261 71t-179.5 191.5t-63.5 267.5q0 143 63.5 261.5t179.5 188.5t261 70zM651 1898q-62 0 -101.5 -38t-39.5 -99q0 -62 40 -100.5t101 -38.5q60 0 102 38.5t42 100.5q0 60 -42 98.5t-102 38.5zM1065 1898q-60 0 -98.5 -38.5t-38.5 -98.5
q0 -62 39 -100.5t98 -38.5q63 0 102 38t39 101q0 61 -39 99t-102 38z" />
    <glyph glyph-name="multiply" unicode="&#xd7;" horiz-adv-x="1347" 
d="M537 719l-357 -357l139 -141l355 359l356 -359l139 141l-354 357l354 352l-139 141l-356 -358l-355 358l-139 -141z" />
    <glyph glyph-name="Oslash" unicode="&#xd8;" horiz-adv-x="1695" 
d="M180 6l139 -100l144 186q166 -121 385 -121q160 0 301.5 59.5t241.5 161t157.5 240.5t57.5 293t-59 289.5t-167 236.5l142 172l-144 101l-139 -178q-174 122 -389 122q-160 0 -301.5 -59t-241.5 -160t-157.5 -239t-57.5 -291q0 -160 58.5 -296.5t168.5 -238.5zM457 385
q-111 145 -111 340q0 140 61.5 258t174 189t252.5 71q151 0 270 -88zM1243 1049q107 -145 107 -332q0 -141 -60 -259t-171.5 -188.5t-252.5 -70.5q-148 0 -270 86z" />
    <glyph glyph-name="Ugrave" unicode="&#xd9;" horiz-adv-x="1474" 
d="M133 598q0 -301 157.5 -465t446.5 -164q290 0 446 164.5t156 470.5v838h-247v-844q0 -200 -92 -300.5t-263 -100.5q-176 0 -265 105.5t-89 303.5v836h-250v-844zM397 1843l275 -264h178l-203 330z" />
    <glyph glyph-name="Uacute" unicode="&#xda;" horiz-adv-x="1474" 
d="M133 598q0 -301 157.5 -465t446.5 -164q290 0 446 164.5t156 470.5v838h-247v-844q0 -200 -92 -300.5t-263 -100.5q-176 0 -265 105.5t-89 303.5v836h-250v-844zM836 1909l-195 -330h172l277 264z" />
    <glyph glyph-name="Ucircumflex" unicode="&#xdb;" horiz-adv-x="1474" 
d="M133 598q0 -301 157.5 -465t446.5 -164q290 0 446 164.5t156 470.5v838h-247v-844q0 -200 -92 -300.5t-263 -100.5q-176 0 -265 105.5t-89 303.5v836h-250v-844zM1069 1610l-240 319h-167l-240 -319h178l145 153l146 -153h178z" />
    <glyph glyph-name="Udieresis" unicode="&#xdc;" horiz-adv-x="1474" 
d="M133 598q0 -301 157.5 -465t446.5 -164q290 0 446 164.5t156 470.5v838h-247v-844q0 -200 -92 -300.5t-263 -100.5q-176 0 -265 105.5t-89 303.5v836h-250v-844zM526 1898q-62 0 -101.5 -38t-39.5 -99q0 -62 40 -100.5t101 -38.5q60 0 102 38.5t42 100.5q0 60 -42 98.5
t-102 38.5zM940 1898q-60 0 -98.5 -38.5t-38.5 -98.5q0 -62 39 -100.5t98 -38.5q63 0 102 38t39 101q0 61 -39 99t-102 38z" />
    <glyph glyph-name="Yacute" unicode="&#xdd;" horiz-adv-x="1333" 
d="M793 0v563l548 877h-276l-393 -647l-393 647h-287l551 -879v-561h250zM748 1909l-195 -330h172l276 264z" />
    <glyph glyph-name="Thorn" unicode="&#xde;" horiz-adv-x="1067" 
d="M147 1446v-1446h240v336h145q217 0 348.5 106.5t131.5 319.5q0 96 -28 171.5t-75.5 124.5t-115.5 81t-144 45.5t-166 13.5h-96v248h-240zM387 535v456h57q40 0 70 -1.5t66.5 -6.5t62 -14.5t51.5 -26.5t42 -40t26 -57.5t10 -78.5q0 -67 -22.5 -114t-64.5 -71.5t-92 -35
t-116 -10.5h-90z" />
    <glyph glyph-name="germandbls" unicode="&#xdf;" horiz-adv-x="1112" 
d="M258 1038q0 122 63.5 203.5t182.5 81.5q97 0 156 -55.5t59 -153.5q0 -52 -18.5 -94t-56 -73.5t-77.5 -53.5t-98 -45v-154q165 -22 250.5 -81t85.5 -181q0 -127 -95.5 -191.5t-256.5 -64.5v-182q95 -3 181 11.5t161 48t130.5 83t87 122t31.5 159.5q0 146 -95 246.5
t-232 128.5q111 50 175 137.5t64 212.5q0 171 -123.5 281t-322.5 110q-122 0 -217 -38.5t-154 -107t-89 -158t-30 -194.5v-1036h238v1038z" />
    <glyph glyph-name="agrave" unicode="&#xe0;" horiz-adv-x="1165" 
d="M799 262q-101 -112 -258 -112q-100 0 -168 48.5t-68 137.5q0 91 74.5 139.5t177.5 48.5q130 0 242 -61v-201zM1036 633q0 200 -132.5 307t-354.5 107q-194 0 -406 -86v-199q163 90 369 90q287 0 287 -203v-33q-115 62 -299 62q-69 0 -130 -11t-117 -36t-96.5 -63
t-64.5 -96t-24 -130q0 -113 59 -198t148.5 -126t191.5 -41q192 0 328 127l241 -112v641zM260 1526l275 -264h178l-203 329z" />
    <glyph glyph-name="aacute" unicode="&#xe1;" horiz-adv-x="1165" 
d="M799 262q-101 -112 -258 -112q-100 0 -168 48.5t-68 137.5q0 91 74.5 139.5t177.5 48.5q130 0 242 -61v-201zM1036 633q0 200 -132.5 307t-354.5 107q-194 0 -406 -86v-199q163 90 369 90q287 0 287 -203v-33q-115 62 -299 62q-69 0 -130 -11t-117 -36t-96.5 -63
t-64.5 -96t-24 -130q0 -113 59 -198t148.5 -126t191.5 -41q192 0 328 127l241 -112v641zM672 1591l-195 -329h172l277 264z" />
    <glyph glyph-name="acircumflex" unicode="&#xe2;" horiz-adv-x="1165" 
d="M799 262q-101 -112 -258 -112q-100 0 -168 48.5t-68 137.5q0 91 74.5 139.5t177.5 48.5q130 0 242 -61v-201zM1036 633q0 200 -132.5 307t-354.5 107q-194 0 -406 -86v-199q163 90 369 90q287 0 287 -203v-33q-115 62 -299 62q-69 0 -130 -11t-117 -36t-96.5 -63
t-64.5 -96t-24 -130q0 -113 59 -198t148.5 -126t191.5 -41q192 0 328 127l241 -112v641zM909 1272l-239 319h-168l-240 -319h178l146 153l145 -153h178z" />
    <glyph glyph-name="atilde" unicode="&#xe3;" horiz-adv-x="1165" 
d="M799 262q-101 -112 -258 -112q-100 0 -168 48.5t-68 137.5q0 91 74.5 139.5t177.5 48.5q130 0 242 -61v-201zM1036 633q0 200 -132.5 307t-354.5 107q-194 0 -406 -86v-199q163 90 369 90q287 0 287 -203v-33q-115 62 -299 62q-69 0 -130 -11t-117 -36t-96.5 -63
t-64.5 -96t-24 -130q0 -113 59 -198t148.5 -126t191.5 -41q192 0 328 127l241 -112v641zM387 1233q32 94 105 94q35 0 116.5 -38t128.5 -38q144 0 215 240l-141 29q-18 -51 -37 -72t-51 -21q-30 0 -112.5 37t-135.5 37q-163 0 -231 -244z" />
    <glyph glyph-name="adieresis" unicode="&#xe4;" horiz-adv-x="1165" 
d="M799 262q-101 -112 -258 -112q-100 0 -168 48.5t-68 137.5q0 91 74.5 139.5t177.5 48.5q130 0 242 -61v-201zM1036 633q0 200 -132.5 307t-354.5 107q-194 0 -406 -86v-199q163 90 369 90q287 0 287 -203v-33q-115 62 -299 62q-69 0 -130 -11t-117 -36t-96.5 -63
t-64.5 -96t-24 -130q0 -113 59 -198t148.5 -126t191.5 -41q192 0 328 127l241 -112v641zM379 1546q-57 0 -95 -37t-38 -94q0 -58 37 -94.5t96 -36.5q55 0 95 37t40 94q0 56 -40 93.5t-95 37.5zM782 1546q-55 0 -92 -37.5t-37 -93.5q0 -58 37 -94.5t92 -36.5q59 0 96 36.5
t37 94.5q0 57 -37.5 94t-95.5 37z" />
    <glyph glyph-name="aring" unicode="&#xe5;" horiz-adv-x="1165" 
d="M799 262q-101 -112 -258 -112q-100 0 -168 48.5t-68 137.5q0 91 74.5 139.5t177.5 48.5q130 0 242 -61v-201zM1036 633q0 200 -132.5 307t-354.5 107q-194 0 -406 -86v-199q163 90 369 90q287 0 287 -203v-33q-115 62 -299 62q-69 0 -130 -11t-117 -36t-96.5 -63
t-64.5 -96t-24 -130q0 -113 59 -198t148.5 -126t191.5 -41q192 0 328 127l241 -112v641zM571 1204q95 0 160.5 61.5t65.5 153.5q0 93 -66.5 157t-159.5 64q-89 0 -154 -63.5t-65 -155.5q0 -91 65 -154t154 -63zM573 1516q41 0 69 -27t28 -68q0 -39 -27 -65.5t-70 -26.5
q-41 0 -67.5 25.5t-26.5 68.5q0 39 27.5 66t66.5 27z" />
    <glyph glyph-name="ae" unicode="&#xe6;" horiz-adv-x="1878" 
d="M1716 311q-70 -70 -169 -109.5t-201 -39.5q-105 0 -177.5 47.5t-109.5 130.5l756 188q-12 144 -71.5 260.5t-171.5 189.5t-259 73q-224 0 -367 -166q-61 79 -176 120.5t-238 41.5q-196 0 -395 -86v-199q167 90 367 90q287 0 287 -203v-33q-115 62 -299 62
q-83 0 -157.5 -20t-137 -59.5t-99.5 -107.5t-37 -157q0 -110 60.5 -193t155 -123.5t206.5 -40.5q278 0 461 166q146 -170 406 -170q210 0 366 117v221zM791 262q-101 -112 -256 -112q-101 0 -169.5 48.5t-68.5 137.5q0 91 75 139.5t179 48.5q128 0 240 -61v-201zM1036 522
q-2 137 71 236.5t202 99.5q100 0 169.5 -57t94.5 -152z" />
    <glyph glyph-name="ccedilla" unicode="&#xe7;" horiz-adv-x="964" 
d="M868 983q-103 66 -262 66q-157 0 -281 -73.5t-190.5 -195.5t-66.5 -268q0 -148 69 -270.5t190.5 -193.5t268.5 -71q149 0 283 74v246q-115 -115 -256 -115q-132 0 -224 99.5t-92 238.5q0 140 88 233t221 93q140 0 252 -115v252zM561 -143l86 143h-135l-131 -197l43 -34
q44 18 76 18q37 0 58.5 -15t21.5 -44q0 -42 -40 -63t-85 -21q-47 0 -115 24l-33 -92q92 -45 187 -45q44 0 85.5 10t79.5 30t61 57t23 85q0 74 -52 109t-120 35h-10z" />
    <glyph glyph-name="egrave" unicode="&#xe8;" horiz-adv-x="1144" 
d="M981 311q-72 -70 -170.5 -109.5t-200.5 -39.5q-105 0 -177 47.5t-109 130.5l753 188q-8 107 -44.5 200.5t-98 166t-153.5 114.5t-203 42q-149 0 -266 -71t-180.5 -194t-63.5 -276q0 -233 151 -385t383 -152q104 0 204.5 30.5t174.5 86.5v221zM301 526q0 85 28.5 158.5
t91.5 123.5t150 50q101 0 171 -57.5t94 -151.5l-531 -137zM207 1526l274 -264h178l-202 329z" />
    <glyph glyph-name="eacute" unicode="&#xe9;" horiz-adv-x="1144" 
d="M981 311q-72 -70 -170.5 -109.5t-200.5 -39.5q-105 0 -177 47.5t-109 130.5l753 188q-8 107 -44.5 200.5t-98 166t-153.5 114.5t-203 42q-149 0 -266 -71t-180.5 -194t-63.5 -276q0 -233 151 -385t383 -152q104 0 204.5 30.5t174.5 86.5v221zM301 526q0 85 28.5 158.5
t91.5 123.5t150 50q101 0 171 -57.5t94 -151.5l-531 -137zM692 1591l-194 -329h172l276 264z" />
    <glyph glyph-name="ecircumflex" unicode="&#xea;" horiz-adv-x="1144" 
d="M981 311q-72 -70 -170.5 -109.5t-200.5 -39.5q-105 0 -177 47.5t-109 130.5l753 188q-8 107 -44.5 200.5t-98 166t-153.5 114.5t-203 42q-149 0 -266 -71t-180.5 -194t-63.5 -276q0 -233 151 -385t383 -152q104 0 204.5 30.5t174.5 86.5v221zM301 526q0 85 28.5 158.5
t91.5 123.5t150 50q101 0 171 -57.5t94 -151.5l-531 -137zM922 1272l-240 319h-168l-240 -319h179l145 153l145 -153h179z" />
    <glyph glyph-name="edieresis" unicode="&#xeb;" horiz-adv-x="1144" 
d="M981 311q-72 -70 -170.5 -109.5t-200.5 -39.5q-105 0 -177 47.5t-109 130.5l753 188q-8 107 -44.5 200.5t-98 166t-153.5 114.5t-203 42q-149 0 -266 -71t-180.5 -194t-63.5 -276q0 -233 151 -385t383 -152q104 0 204.5 30.5t174.5 86.5v221zM301 526q0 85 28.5 158.5
t91.5 123.5t150 50q101 0 171 -57.5t94 -151.5l-531 -137zM389 1546q-57 0 -95 -37t-38 -94q0 -58 37 -94.5t96 -36.5q55 0 95 37t40 94q0 56 -40 93.5t-95 37.5zM793 1546q-55 0 -92 -37.5t-37 -93.5q0 -58 37 -94.5t92 -36.5q59 0 96 36.5t37 94.5q0 57 -37.5 94t-95.5 37
z" />
    <glyph glyph-name="igrave" unicode="&#xec;" horiz-adv-x="485" 
d="M356 0v1028h-241v-1028h241zM-106 1526l274 -264h178l-203 329z" />
    <glyph glyph-name="iacute" unicode="&#xed;" horiz-adv-x="497" 
d="M324 0v1028h-242v-1028h242zM299 1591l-195 -329h172l277 264z" />
    <glyph glyph-name="icircumflex" unicode="&#xee;" horiz-adv-x="497" 
d="M367 0v1028h-242v-1028h242zM569 1272l-239 319h-168l-240 -319h178l146 153l145 -153h178z" />
    <glyph glyph-name="idieresis" unicode="&#xef;" horiz-adv-x="524" 
d="M379 0v1028h-242v-1028h242zM59 1546q-57 0 -95 -37t-38 -94q0 -58 37 -94.5t96 -36.5q56 0 96 37t40 94q0 56 -40.5 93.5t-95.5 37.5zM463 1546q-55 0 -92 -37.5t-37 -93.5q0 -58 37 -94.5t92 -36.5q59 0 96 36.5t37 94.5q0 57 -37.5 94t-95.5 37z" />
    <glyph glyph-name="eth" unicode="&#xf0;" horiz-adv-x="1136" 
d="M193 1487q133 -84 219 -162l-242 -154l90 -92l248 158q205 -191 285 -385q-67 50 -116 68q-64 24 -138 24q-131 0 -239.5 -64.5t-170 -175t-61.5 -241.5q0 -141 70 -253.5t184 -172.5t247 -60q70 0 138.5 18.5t134.5 60t116 102t80.5 152t30.5 202.5q0 441 -395 825
l244 158l-89 90l-254 -160q-64 56 -112.5 91t-130.5 83zM537 240q-94 15 -146.5 95t-34.5 175q17 93 88 144t162 34q93 -15 143 -92t35 -170q-17 -96 -85.5 -148.5t-161.5 -37.5z" />
    <glyph glyph-name="ntilde" unicode="&#xf1;" horiz-adv-x="1173" 
d="M1059 655q0 182 -95.5 289t-269.5 107q-194 0 -323 -160l-246 137v-1028h242v582q0 68 22 119.5t58 80t75.5 42.5t81.5 14q88 0 150.5 -62.5t62.5 -193.5v-582h242v655zM406 1233q32 94 104 94q35 0 117 -38t129 -38q144 0 215 240l-142 29q-18 -51 -37 -72t-51 -21
q-30 0 -112 37t-135 37q-164 0 -232 -244z" />
    <glyph glyph-name="ograve" unicode="&#xf2;" horiz-adv-x="1249" 
d="M621 -23q153 0 281.5 70t204 194.5t75.5 274.5q0 147 -72 270t-200.5 195t-286.5 72t-285.5 -72.5t-198.5 -196.5t-71 -272q0 -147 71 -269.5t198.5 -194t283.5 -71.5zM621 848q140 0 230.5 -98t90.5 -236q0 -136 -91 -234t-228 -98q-133 0 -224.5 96.5t-91.5 237.5
t87 236.5t227 95.5zM256 1526l274 -264h179l-203 329z" />
    <glyph glyph-name="oacute" unicode="&#xf3;" horiz-adv-x="1249" 
d="M621 -23q153 0 281.5 70t204 194.5t75.5 274.5q0 147 -72 270t-200.5 195t-286.5 72t-285.5 -72.5t-198.5 -196.5t-71 -272q0 -147 71 -269.5t198.5 -194t283.5 -71.5zM621 848q140 0 230.5 -98t90.5 -236q0 -136 -91 -234t-228 -98q-133 0 -224.5 96.5t-91.5 237.5
t87 236.5t227 95.5zM737 1591l-194 -329h172l276 264z" />
    <glyph glyph-name="ocircumflex" unicode="&#xf4;" horiz-adv-x="1249" 
d="M621 -23q153 0 281.5 70t204 194.5t75.5 274.5q0 147 -72 270t-200.5 195t-286.5 72t-285.5 -72.5t-198.5 -196.5t-71 -272q0 -147 71 -269.5t198.5 -194t283.5 -71.5zM621 848q140 0 230.5 -98t90.5 -236q0 -136 -91 -234t-228 -98q-133 0 -224.5 96.5t-91.5 237.5
t87 236.5t227 95.5zM950 1272l-239 319h-168l-240 -319h178l146 153l145 -153h178z" />
    <glyph glyph-name="otilde" unicode="&#xf5;" horiz-adv-x="1249" 
d="M621 -23q153 0 281.5 70t204 194.5t75.5 274.5q0 147 -72 270t-200.5 195t-286.5 72t-285.5 -72.5t-198.5 -196.5t-71 -272q0 -147 71 -269.5t198.5 -194t283.5 -71.5zM621 848q140 0 230.5 -98t90.5 -236q0 -136 -91 -234t-228 -98q-133 0 -224.5 96.5t-91.5 237.5
t87 236.5t227 95.5zM426 1233q32 94 104 94q35 0 117 -38t129 -38q144 0 215 240l-141 29q-18 -51 -37 -72t-51 -21q-30 0 -112.5 37t-135.5 37q-163 0 -231 -244z" />
    <glyph glyph-name="odieresis" unicode="&#xf6;" horiz-adv-x="1249" 
d="M621 -23q153 0 281.5 70t204 194.5t75.5 274.5q0 147 -72 270t-200.5 195t-286.5 72t-285.5 -72.5t-198.5 -196.5t-71 -272q0 -147 71 -269.5t198.5 -194t283.5 -71.5zM621 848q140 0 230.5 -98t90.5 -236q0 -136 -91 -234t-228 -98q-133 0 -224.5 96.5t-91.5 237.5
t87 236.5t227 95.5zM422 1546q-57 0 -95 -37t-38 -94q0 -58 37 -94.5t96 -36.5q55 0 95 37t40 94q0 56 -40 93.5t-95 37.5zM825 1546q-55 0 -92 -37.5t-37 -93.5q0 -58 37 -94.5t92 -36.5q59 0 96 36.5t37 94.5q0 57 -37.5 94t-95.5 37z" />
    <glyph glyph-name="divide" unicode="&#xf7;" horiz-adv-x="1292" 
d="M1174 643v160h-1053v-160h1053zM645 920q57 0 94 34t37 90q0 54 -37 92t-94 38t-93 -38t-36 -92q0 -53 35.5 -88.5t93.5 -35.5zM645 274q56 0 93.5 36t37.5 91q0 56 -36.5 91.5t-94.5 35.5t-93.5 -35.5t-35.5 -91.5q0 -53 36 -90t93 -37z" />
    <glyph glyph-name="oslash" unicode="&#xf8;" horiz-adv-x="1220" 
d="M887 688q47 -77 47 -180q0 -146 -88.5 -243t-233.5 -97q-95 0 -172 53zM348 322q-47 70 -47 186q0 143 86.5 239.5t228.5 96.5q110 0 175 -56zM45 2l102 -98l154 168q129 -97 315 -97q156 0 282 70t196.5 192t70.5 271q0 195 -123 344l119 133l-100 98l-129 -139
q-122 94 -316 94q-155 0 -280.5 -71t-194.5 -192t-69 -267q0 -197 123 -348z" />
    <glyph glyph-name="ugrave" unicode="&#xf9;" horiz-adv-x="1161" 
d="M117 373q0 -183 91.5 -288t270.5 -105q204 0 324 147l244 -135v1038h-242v-584q0 -67 -21 -118t-55.5 -79.5t-74.5 -42t-83 -13.5q-91 0 -152 61.5t-61 191.5v584h-241v-657zM279 1526l274 -264h178l-203 329z" />
    <glyph glyph-name="uacute" unicode="&#xfa;" horiz-adv-x="1161" 
d="M117 373q0 -183 91.5 -288t270.5 -105q204 0 324 147l244 -135v1038h-242v-584q0 -67 -21 -118t-55.5 -79.5t-74.5 -42t-83 -13.5q-91 0 -152 61.5t-61 191.5v584h-241v-657zM692 1591l-194 -329h172l276 264z" />
    <glyph glyph-name="ucircumflex" unicode="&#xfb;" horiz-adv-x="1161" 
d="M117 373q0 -183 91.5 -288t270.5 -105q204 0 324 147l244 -135v1038h-242v-584q0 -67 -21 -118t-55.5 -79.5t-74.5 -42t-83 -13.5q-91 0 -152 61.5t-61 191.5v584h-241v-657zM903 1272l-239 319h-168l-240 -319h178l146 153l145 -153h178z" />
    <glyph glyph-name="udieresis" unicode="&#xfc;" horiz-adv-x="1161" 
d="M117 373q0 -183 91.5 -288t270.5 -105q204 0 324 147l244 -135v1038h-242v-584q0 -67 -21 -118t-55.5 -79.5t-74.5 -42t-83 -13.5q-91 0 -152 61.5t-61 191.5v584h-241v-657zM377 1546q-57 0 -95 -37t-38 -94q0 -58 37 -94.5t96 -36.5q55 0 95 37t40 94q0 56 -40 93.5
t-95 37.5zM780 1546q-55 0 -92 -37.5t-37 -93.5q0 -58 37 -94.5t92 -36.5q59 0 96 36.5t37 94.5q0 57 -37.5 94t-95.5 37z" />
    <glyph glyph-name="yacute" unicode="&#xfd;" horiz-adv-x="1062" 
d="M-8 1026l450 -1030l-133 -361h215l547 1391h-250l-274 -760l-299 760h-256zM631 1591l-195 -329h172l277 264z" />
    <glyph glyph-name="thorn" unicode="&#xfe;" horiz-adv-x="1157" 
d="M344 471q0 114 71.5 199.5t182.5 85.5q116 0 188 -83.5t72 -201.5q0 -128 -72 -212.5t-186 -84.5q-117 0 -186.5 87.5t-69.5 209.5zM127 1585v-2074h229v460l-4 152h6q47 -65 119.5 -102.5t155.5 -40.5q38 -5 88 2q113 15 198.5 86.5t129 175t43.5 221.5
q0 180 -101.5 319t-269.5 162q-30 6 -90 2q-85 -7 -156 -46t-119 -101h-4q0 125 2 186q0 119 2 176v422h-229z" />
    <glyph glyph-name="ydieresis" unicode="&#xff;" horiz-adv-x="1062" 
d="M-8 1026l450 -1030l-133 -361h215l547 1391h-250l-274 -760l-299 760h-256zM340 1546q-57 0 -95 -37t-38 -94q0 -58 37 -94.5t96 -36.5q55 0 95 37t40 94q0 56 -40 93.5t-95 37.5zM743 1546q-55 0 -92 -37.5t-37 -93.5q0 -58 37 -94.5t92 -36.5q59 0 96.5 36.5t37.5 94.5
q0 57 -38 94t-96 37z" />
    <glyph glyph-name="Amacron" unicode="&#x100;" horiz-adv-x="1447" 
d="M401 354h641l148 -354h270l-626 1444h-222l-624 -1444h262zM485 561l236 590l240 -590h-476zM1055 1569v157h-666v-157h666z" />
    <glyph glyph-name="amacron" unicode="&#x101;" horiz-adv-x="1165" 
d="M799 262q-101 -112 -258 -112q-100 0 -168 48.5t-68 137.5q0 91 74.5 139.5t177.5 48.5q130 0 242 -61v-201zM1036 633q0 200 -132.5 307t-354.5 107q-194 0 -406 -86v-199q163 90 369 90q287 0 287 -203v-33q-115 62 -299 62q-69 0 -130 -11t-117 -36t-96.5 -63
t-64.5 -96t-24 -130q0 -113 59 -198t148.5 -126t191.5 -41q192 0 328 127l241 -112v641zM901 1231v158h-665v-158h665z" />
    <glyph glyph-name="Abreve" unicode="&#x102;" horiz-adv-x="1447" 
d="M401 354h641l148 -354h270l-626 1444h-222l-624 -1444h262zM485 561l236 590l240 -590h-476zM899 1868q-19 -70 -64 -108t-108 -38q-67 0 -113 37.5t-65 108.5h-148q17 -143 103.5 -230.5t216.5 -87.5t219.5 88.5t101.5 229.5h-143z" />
    <glyph glyph-name="abreve" unicode="&#x103;" horiz-adv-x="1165" 
d="M799 262q-101 -112 -258 -112q-100 0 -168 48.5t-68 137.5q0 91 74.5 139.5t177.5 48.5q130 0 242 -61v-201zM1036 633q0 200 -132.5 307t-354.5 107q-194 0 -406 -86v-199q163 90 369 90q287 0 287 -203v-33q-115 62 -299 62q-69 0 -130 -11t-117 -36t-96.5 -63
t-64.5 -96t-24 -130q0 -113 59 -198t148.5 -126t191.5 -41q192 0 328 127l241 -112v641zM766 1530q-19 -70 -64 -108t-108 -38q-67 0 -113 37.5t-65 108.5h-148q17 -143 103.5 -230.5t216.5 -87.5t219.5 88.5t101.5 229.5h-143z" />
    <glyph glyph-name="Aogonek" unicode="&#x104;" horiz-adv-x="1447" 
d="M401 354h641l148 -354h270l-626 1444h-222l-624 -1444h262zM485 561l236 590l240 -590h-476zM1454 -270q-65 -23 -98 -23q-44 0 -71.5 26t-27.5 66q0 38 22 79.5t79 121.5h-168q-35 -45 -53 -71.5t-37 -71.5t-19 -86q0 -93 67 -148t171 -55q82 0 164 39z" />
    <glyph glyph-name="aogonek" unicode="&#x105;" horiz-adv-x="1165" 
d="M799 262q-101 -112 -258 -112q-100 0 -168 48.5t-68 137.5q0 91 74.5 139.5t177.5 48.5q130 0 242 -61v-201zM1036 633q0 200 -132.5 307t-354.5 107q-194 0 -406 -86v-199q163 90 369 90q287 0 287 -203v-33q-115 62 -299 62q-69 0 -130 -11t-117 -36t-96.5 -63
t-64.5 -96t-24 -130q0 -113 59 -198t148.5 -126t191.5 -41q192 0 328 127l241 -112v641zM1133 -270q-65 -23 -99 -23q-46 0 -72 27.5t-26 70.5q0 64 100 187l-116 71q-85 -89 -122.5 -156t-37.5 -132q0 -94 67 -150.5t170 -56.5q82 0 164 39z" />
    <glyph glyph-name="Cacute" unicode="&#x106;" horiz-adv-x="1417" 
d="M1309 408q-116 -103 -222 -156t-239 -53q-146 0 -260.5 70t-176 188.5t-61.5 263.5q0 143 61.5 262t176 189.5t260.5 70.5q271 0 436 -184v264q-189 145 -440 145q-159 0 -298.5 -58.5t-238 -158.5t-155 -238.5t-56.5 -293.5q0 -157 57 -296t155.5 -238t236 -156.5
t291.5 -57.5q140 0 254 44t219 128v265zM940 1909l-195 -330h173l276 264z" />
    <glyph glyph-name="cacute" unicode="&#x107;" horiz-adv-x="995" 
d="M868 983q-103 66 -262 66q-157 0 -281 -73.5t-190.5 -195.5t-66.5 -268q0 -148 69 -270.5t190.5 -193.5t268.5 -71q149 0 283 74v246q-115 -115 -256 -115q-132 0 -224 99.5t-92 238.5q0 140 88 233t221 93q140 0 252 -115v252zM684 1591l-195 -329h173l276 264z" />
    <glyph glyph-name="Ccircumflex" unicode="&#x108;" horiz-adv-x="1417" 
d="M1309 408q-116 -103 -222 -156t-239 -53q-146 0 -260.5 70t-176 188.5t-61.5 263.5q0 143 61.5 262t176 189.5t260.5 70.5q271 0 436 -184v264q-189 145 -440 145q-159 0 -298.5 -58.5t-238 -158.5t-155 -238.5t-56.5 -293.5q0 -157 57 -296t155.5 -238t236 -156.5
t291.5 -57.5q140 0 254 44t219 128v265zM1137 1610l-240 319h-168l-240 -319h179l145 153l145 -153h179z" />
    <glyph glyph-name="ccircumflex" unicode="&#x109;" horiz-adv-x="964" 
d="M868 983q-103 66 -262 66q-157 0 -281 -73.5t-190.5 -195.5t-66.5 -268q0 -148 69 -270.5t190.5 -193.5t268.5 -71q149 0 283 74v246q-115 -115 -256 -115q-132 0 -224 99.5t-92 238.5q0 140 88 233t221 93q140 0 252 -115v252zM893 1272l-240 319h-168l-239 -319h178
l145 153l146 -153h178z" />
    <glyph glyph-name="Cdotaccent" unicode="&#x10a;" horiz-adv-x="1417" 
d="M1309 408q-116 -103 -222 -156t-239 -53q-146 0 -260.5 70t-176 188.5t-61.5 263.5q0 143 61.5 262t176 189.5t260.5 70.5q271 0 436 -184v264q-189 145 -440 145q-159 0 -298.5 -58.5t-238 -158.5t-155 -238.5t-56.5 -293.5q0 -157 57 -296t155.5 -238t236 -156.5
t291.5 -57.5q140 0 254 44t219 128v265zM821 1876q-67 0 -110 -40t-43 -107q0 -64 44.5 -106t108.5 -42q68 0 112 42t44 106q0 68 -43.5 107.5t-112.5 39.5z" />
    <glyph glyph-name="cdotaccent" unicode="&#x10b;" horiz-adv-x="915" 
d="M864 983q-103 66 -262 66q-118 0 -219.5 -43t-171 -116t-109 -171.5t-39.5 -206.5q0 -147 69.5 -270t191 -194t268.5 -71q148 0 282 74v246q-115 -115 -256 -115q-132 0 -223.5 99.5t-91.5 238.5q0 140 88 233t221 93q140 0 252 -115v252zM569 1538q-67 0 -110 -40
t-43 -107q0 -64 44.5 -106t108.5 -42q68 0 112 42t44 106q0 68 -43.5 107.5t-112.5 39.5z" />
    <glyph glyph-name="Ccaron" unicode="&#x10c;" horiz-adv-x="1417" 
d="M1309 408q-116 -103 -222 -156t-239 -53q-146 0 -260.5 70t-176 188.5t-61.5 263.5q0 143 61.5 262t176 189.5t260.5 70.5q271 0 436 -184v264q-189 145 -440 145q-159 0 -298.5 -58.5t-238 -158.5t-155 -238.5t-56.5 -293.5q0 -157 57 -296t155.5 -238t236 -156.5
t291.5 -57.5q140 0 254 44t219 128v265zM1192 1903h-191l-143 -160l-145 160h-195l252 -324h170z" />
    <glyph glyph-name="ccaron" unicode="&#x10d;" horiz-adv-x="964" 
d="M868 983q-103 66 -262 66q-157 0 -281 -73.5t-190.5 -195.5t-66.5 -268q0 -148 69 -270.5t190.5 -193.5t268.5 -71q149 0 283 74v246q-115 -115 -256 -115q-132 0 -224 99.5t-92 238.5q0 140 88 233t221 93q140 0 252 -115v252zM913 1554h-190l-143 -161l-146 161h-194
l252 -325h170z" />
    <glyph glyph-name="Dcaron" unicode="&#x10e;" horiz-adv-x="1513" 
d="M147 1440v-1440h484q177 0 325.5 54t249.5 149.5t157 229.5t56 290q0 212 -98.5 375.5t-277 252.5t-408.5 89h-488zM397 221v996h299q142 0 249.5 -72t160.5 -183.5t53 -242.5q0 -225 -140 -361.5t-388 -136.5h-234zM1036 1903h-190l-144 -160l-145 160h-195l252 -324
h170z" />
    <glyph glyph-name="dcaron" unicode="&#x10f;" horiz-adv-x="1253" 
d="M1159 -6v1505h-241v-631q-136 185 -365 185q-98 0 -186 -38.5t-154.5 -107t-105.5 -170.5t-39 -223t39 -222.5t105.5 -169t155.5 -105t189 -37.5q114 0 195.5 45t152.5 129zM610 182q-136 0 -219.5 98t-83.5 236q0 146 88.5 239t214.5 93q128 0 221 -96t93 -236
q0 -144 -92 -239t-222 -95zM1384 1208l113 389h-199l-67 -389h153z" />
    <glyph glyph-name="Dcroat" unicode="&#x110;" horiz-adv-x="1574" 
d="M209 1440v-1440h481q178 0 326 54t249 150t156.5 229t55.5 290q0 212 -99 375.5t-277 252.5t-407 89h-485zM457 221v996h297q142 0 250 -72t161.5 -183.5t53.5 -242.5q0 -225 -141.5 -361.5t-389.5 -136.5h-231zM621 604v219h-594v-219h594z" />
    <glyph glyph-name="dcroat" unicode="&#x111;" horiz-adv-x="1259" 
d="M1159 -6v1505h-241v-631q-136 185 -363 185q-98 0 -186.5 -38.5t-155 -107t-106 -170.5t-39.5 -223t39 -222.5t105.5 -169t155.5 -105t189 -37.5q115 0 195.5 44.5t152.5 129.5zM610 182q-135 0 -218 99t-83 235q0 146 87.5 239t213.5 93q128 0 221 -96t93 -236
q0 -144 -91.5 -239t-222.5 -95zM1270 1167v219h-594v-219h594z" />
    <glyph glyph-name="Emacron" unicode="&#x112;" horiz-adv-x="1304" 
d="M397 217v410h701v207h-701v389h764v217h-1014v-1440h1033v217h-783zM993 1569v157h-665v-157h665z" />
    <glyph glyph-name="emacron" unicode="&#x113;" horiz-adv-x="1144" 
d="M981 311q-72 -70 -170.5 -109.5t-200.5 -39.5q-105 0 -177 47.5t-109 130.5l753 188q-8 107 -44.5 200.5t-98 166t-153.5 114.5t-203 42q-149 0 -266 -71t-180.5 -194t-63.5 -276q0 -233 151 -385t383 -152q104 0 204.5 30.5t174.5 86.5v221zM301 526q0 85 28.5 158.5
t91.5 123.5t150 50q101 0 171 -57.5t94 -151.5l-531 -137zM918 1231v158h-666v-158h666z" />
    <glyph glyph-name="Ebreve" unicode="&#x114;" horiz-adv-x="1304" 
d="M397 217v410h701v207h-701v389h764v217h-1014v-1440h1033v217h-783zM860 1868q-19 -70 -64 -108t-108 -38q-67 0 -113 37.5t-65 108.5h-148q17 -143 103.5 -230.5t216.5 -87.5q131 0 220.5 88.5t101.5 229.5h-144z" />
    <glyph glyph-name="ebreve" unicode="&#x115;" horiz-adv-x="1144" 
d="M981 311q-72 -70 -170.5 -109.5t-200.5 -39.5q-105 0 -177 47.5t-109 130.5l753 188q-8 107 -44.5 200.5t-98 166t-153.5 114.5t-203 42q-149 0 -266 -71t-180.5 -194t-63.5 -276q0 -233 151 -385t383 -152q104 0 204.5 30.5t174.5 86.5v221zM301 526q0 85 28.5 158.5
t91.5 123.5t150 50q101 0 171 -57.5t94 -151.5l-531 -137zM772 1530q-19 -70 -64 -108t-108 -38q-67 0 -113 37.5t-65 108.5h-148q17 -143 103.5 -230.5t216.5 -87.5t219.5 88.5t101.5 229.5h-143z" />
    <glyph glyph-name="Edotaccent" unicode="&#x116;" horiz-adv-x="1304" 
d="M397 217v410h701v207h-701v389h764v217h-1014v-1440h1033v217h-783zM680 1876q-67 0 -110.5 -40.5t-43.5 -106.5q0 -64 45 -106t109 -42q68 0 112 42t44 106q0 68 -43.5 107.5t-112.5 39.5z" />
    <glyph glyph-name="edotaccent" unicode="&#x117;" horiz-adv-x="1144" 
d="M981 311q-72 -70 -170.5 -109.5t-200.5 -39.5q-105 0 -177 47.5t-109 130.5l753 188q-8 107 -44.5 200.5t-98 166t-153.5 114.5t-203 42q-149 0 -266 -71t-180.5 -194t-63.5 -276q0 -233 151 -385t383 -152q104 0 204.5 30.5t174.5 86.5v221zM301 526q0 85 28.5 158.5
t91.5 123.5t150 50q101 0 171 -57.5t94 -151.5l-531 -137zM596 1538q-67 0 -110.5 -40.5t-43.5 -106.5q0 -64 45 -106t109 -42q68 0 112 42t44 106q0 68 -43.5 107.5t-112.5 39.5z" />
    <glyph glyph-name="Eogonek" unicode="&#x118;" horiz-adv-x="1304" 
d="M397 217v410h701v207h-701v389h764v217h-1014v-1440h1033v217h-783zM1276 -270q-65 -23 -98 -23q-44 0 -71.5 26t-27.5 66q0 38 22 79.5t79 121.5h-168q-35 -45 -53 -71.5t-37 -71.5t-19 -86q0 -93 67 -148t171 -55q82 0 164 39z" />
    <glyph glyph-name="eogonek" unicode="&#x119;" horiz-adv-x="1144" 
d="M981 311q-72 -70 -170.5 -109.5t-200.5 -39.5q-105 0 -177 47.5t-109 130.5l753 188q-8 107 -44.5 200.5t-98 166t-153.5 114.5t-203 42q-149 0 -266 -71t-180.5 -194t-63.5 -276q0 -233 151 -385t383 -152q104 0 204.5 30.5t174.5 86.5v221zM301 526q0 85 28.5 158.5
t91.5 123.5t150 50q101 0 171 -57.5t94 -151.5l-531 -137zM977 -268q-65 -23 -98 -23q-45 0 -72 26t-27 70q0 105 201 287l-268 -90q-109 -109 -109 -229q0 -93 67 -148t171 -55q82 0 164 39z" />
    <glyph glyph-name="Ecaron" unicode="&#x11a;" horiz-adv-x="1304" 
d="M397 217v410h701v207h-701v389h764v217h-1014v-1440h1033v217h-783zM1018 1903h-191l-143 -160l-145 160h-195l252 -324h170z" />
    <glyph glyph-name="ecaron" unicode="&#x11b;" horiz-adv-x="1144" 
d="M981 311q-72 -70 -170.5 -109.5t-200.5 -39.5q-105 0 -177 47.5t-109 130.5l753 188q-8 107 -44.5 200.5t-98 166t-153.5 114.5t-203 42q-149 0 -266 -71t-180.5 -194t-63.5 -276q0 -233 151 -385t383 -152q104 0 204.5 30.5t174.5 86.5v221zM301 526q0 85 28.5 158.5
t91.5 123.5t150 50q101 0 171 -57.5t94 -151.5l-531 -137zM913 1554h-190l-143 -161l-146 161h-194l252 -325h170z" />
    <glyph glyph-name="Gcircumflex" unicode="&#x11c;" horiz-adv-x="1652" 
d="M1323 621q0 -196 -134.5 -314.5t-330.5 -118.5q-217 0 -363.5 152t-146.5 379q0 141 72.5 263t197.5 193.5t273 71.5q251 0 426 -168v269q-183 120 -443 120q-215 0 -393.5 -99t-281.5 -270.5t-103 -377.5q0 -209 97 -382t269 -272.5t382 -99.5q333 0 522.5 212
t189.5 581v65h-616v-204h383zM1188 1610l-240 319h-168l-239 -319h178l145 153l146 -153h178z" />
    <glyph glyph-name="gcircumflex" unicode="&#x11d;" horiz-adv-x="1298" 
d="M623 256q-132 0 -218 86t-86 215q0 132 85 215.5t217 83.5q133 0 222 -85t89 -216q0 -129 -89.5 -214t-219.5 -85zM932 150q0 -175 -92.5 -255.5t-270.5 -80.5q-230 0 -426 143v-225q206 -109 426 -109q133 0 242.5 35t189.5 102t124 170.5t44 235.5v862l-256 -139
q-143 164 -352 164q-131 0 -241.5 -61.5t-177 -177.5t-66.5 -263q0 -143 64.5 -256t175 -174.5t245.5 -61.5q117 0 205.5 48.5t165.5 138.5v-96zM963 1272l-240 319h-168l-240 -319h179l145 153l145 -153h179z" />
    <glyph glyph-name="Gbreve" unicode="&#x11e;" horiz-adv-x="1652" 
d="M1323 621q0 -196 -134.5 -314.5t-330.5 -118.5q-217 0 -363.5 152t-146.5 379q0 141 72.5 263t197.5 193.5t273 71.5q251 0 426 -168v269q-183 120 -443 120q-215 0 -393.5 -99t-281.5 -270.5t-103 -377.5q0 -209 97 -382t269 -272.5t382 -99.5q333 0 522.5 212
t189.5 581v65h-616v-204h383zM1055 1868q-19 -70 -64 -108t-108 -38q-67 0 -113 37.5t-65 108.5h-148q17 -143 103.5 -230.5t216.5 -87.5t219.5 88.5t101.5 229.5h-143z" />
    <glyph glyph-name="gbreve" unicode="&#x11f;" horiz-adv-x="1298" 
d="M623 256q-132 0 -218 86t-86 215q0 132 85 215.5t217 83.5q133 0 222 -85t89 -216q0 -129 -89.5 -214t-219.5 -85zM932 150q0 -175 -92.5 -255.5t-270.5 -80.5q-230 0 -426 143v-225q206 -109 426 -109q133 0 242.5 35t189.5 102t124 170.5t44 235.5v862l-256 -139
q-143 164 -352 164q-131 0 -241.5 -61.5t-177 -177.5t-66.5 -263q0 -143 64.5 -256t175 -174.5t245.5 -61.5q117 0 205.5 48.5t165.5 138.5v-96zM842 1530q-19 -70 -64 -108t-108 -38q-67 0 -113 37.5t-65 108.5h-148q17 -143 103.5 -230.5t216.5 -87.5t219.5 88.5
t101.5 229.5h-143z" />
    <glyph glyph-name="Gdotaccent" unicode="&#x120;" horiz-adv-x="1652" 
d="M1323 621q0 -196 -134.5 -314.5t-330.5 -118.5q-217 0 -363.5 152t-146.5 379q0 141 72.5 263t197.5 193.5t273 71.5q251 0 426 -168v269q-183 120 -443 120q-215 0 -393.5 -99t-281.5 -270.5t-103 -377.5q0 -209 97 -382t269 -272.5t382 -99.5q333 0 522.5 212
t189.5 581v65h-616v-204h383zM825 1892q-67 0 -110 -40t-43 -107q0 -64 44.5 -106t108.5 -42q68 0 112 42t44 106q0 68 -43.5 107.5t-112.5 39.5z" />
    <glyph glyph-name="gdotaccent" unicode="&#x121;" horiz-adv-x="1267" 
d="M612 256q-132 0 -217.5 86t-85.5 215q0 132 84.5 215.5t216.5 83.5q133 0 222.5 -85t89.5 -216q0 -129 -90 -214t-220 -85zM922 150q0 -175 -92.5 -255.5t-270.5 -80.5q-230 0 -426 143v-225q206 -109 426 -109q133 0 242.5 35t189.5 102t124 170.5t44 235.5v862
l-256 -139q-143 164 -352 164q-131 0 -241.5 -61.5t-177 -177.5t-66.5 -263q0 -143 64.5 -256t175 -174.5t245.5 -61.5q117 0 205.5 48.5t165.5 138.5v-96zM641 1538q-67 0 -110.5 -40.5t-43.5 -106.5q0 -64 45 -106t109 -42q68 0 112 42t44 106q0 68 -43.5 107.5
t-112.5 39.5z" />
    <glyph glyph-name="uni0122" unicode="&#x122;" horiz-adv-x="1652" 
d="M1323 621q0 -196 -134.5 -314.5t-330.5 -118.5q-217 0 -363.5 152t-146.5 379q0 141 72.5 263t197.5 193.5t273 71.5q251 0 426 -168v269q-183 120 -443 120q-215 0 -393.5 -99t-281.5 -270.5t-103 -377.5q0 -209 97 -382t269 -272.5t382 -99.5q333 0 522.5 212
t189.5 581v65h-616v-204h383zM821 -502l111 389h-199l-67 -389h155z" />
    <glyph glyph-name="uni0123" unicode="&#x123;" horiz-adv-x="1306" 
d="M623 256q-132 0 -218 86t-86 215q0 132 85 215.5t217 83.5q133 0 222 -85t89 -216q0 -129 -89.5 -214t-219.5 -85zM932 150q0 -175 -92.5 -255.5t-270.5 -80.5q-230 0 -426 143v-225q206 -109 426 -109q133 0 242.5 35t189.5 102t124 170.5t44 235.5v862l-256 -139
q-143 164 -352 164q-131 0 -241.5 -61.5t-177 -177.5t-66.5 -263q0 -143 64.5 -256t175 -174.5t245.5 -61.5q117 0 205.5 48.5t165.5 138.5v-96zM698 1604l-159 -418h247l91 418h-179z" />
    <glyph glyph-name="Hcircumflex" unicode="&#x124;" horiz-adv-x="1482" 
d="M147 1442v-1442h250v618h690v-618h248v1442h-248v-598h-690v598h-250zM1069 1610l-240 319h-167l-240 -319h178l145 153l146 -153h178z" />
    <glyph glyph-name="hcircumflex" unicode="&#x125;" horiz-adv-x="1392" 
d="M1229 655q0 185 -93 290.5t-268 105.5q-209 0 -340 -164v612h-233v-1499h242v582q0 115 71.5 178t173.5 63q100 0 152.5 -60.5t52.5 -180.5v-582h242v655zM741 1655l-239 319h-168l-240 -319h178l146 153l145 -153h178z" />
    <glyph glyph-name="Hbar" unicode="&#x126;" horiz-adv-x="1538" 
d="M176 1442v-1442h250v618h690v-618h248v1442h-248v-598h-690v598h-250zM72 1079h1396v158h-1396v-158z" />
    <glyph glyph-name="hbar" unicode="&#x127;" horiz-adv-x="1167" 
d="M1053 655q0 185 -93 290.5t-268 105.5q-209 0 -340 -164v612h-233v-1499h241v582q0 115 72 178t174 63q100 0 152.5 -60.5t52.5 -180.5v-582h242v655zM647 1231v158h-665v-158h665z" />
    <glyph glyph-name="Itilde" unicode="&#x128;" horiz-adv-x="542" 
d="M397 0v1440h-250v-1440h250zM57 1571q32 94 105 94q35 0 117 -38t129 -38q144 0 215 240l-142 29q-18 -51 -37 -72t-51 -21q-30 0 -112.5 37t-135.5 37q-163 0 -231 -244z" />
    <glyph glyph-name="itilde" unicode="&#x129;" horiz-adv-x="497" 
d="M367 0v1028h-242v-1028h242zM41 1233q32 94 104 94q35 0 117 -38t129 -38q144 0 215 240l-141 29q-18 -51 -37 -72t-51 -21q-30 0 -112.5 37t-135.5 37q-163 0 -231 -244z" />
    <glyph glyph-name="Imacron" unicode="&#x12a;" horiz-adv-x="542" 
d="M397 0v1440h-250v-1440h250zM604 1569v157h-665v-157h665z" />
    <glyph glyph-name="imacron" unicode="&#x12b;" horiz-adv-x="497" 
d="M367 0v1028h-242v-1028h242zM580 1231v158h-666v-158h666z" />
    <glyph glyph-name="Ibreve" unicode="&#x12c;" horiz-adv-x="542" 
d="M397 0v1440h-250v-1440h250zM449 1872q-19 -70 -64.5 -108t-108.5 -38q-67 0 -113 37.5t-65 108.5h-147q18 -143 103.5 -230.5t215.5 -87.5q131 0 220.5 88.5t101.5 229.5h-143z" />
    <glyph glyph-name="ibreve" unicode="&#x12d;" horiz-adv-x="497" 
d="M367 0v1028h-242v-1028h242zM426 1530q-19 -70 -64 -108t-108 -38q-67 0 -113 37.5t-65 108.5h-148q17 -143 103.5 -230.5t216.5 -87.5t219.5 88.5t101.5 229.5h-143z" />
    <glyph glyph-name="Iogonek" unicode="&#x12e;" horiz-adv-x="542" 
d="M397 0v1440h-250v-1440h250zM494 -270q-65 -23 -99 -23q-44 0 -71 26t-27 66q0 38 22 80t78 121h-168q-34 -44 -52.5 -71t-37 -72t-18.5 -86q0 -93 66.5 -148t170.5 -55q82 0 164 39z" />
    <glyph glyph-name="iogonek" unicode="&#x12f;" horiz-adv-x="509" 
d="M375 0v1028h-240v-1028h240zM252 1487q-67 0 -110.5 -41.5t-43.5 -108.5q0 -64 45.5 -105.5t108.5 -41.5q68 0 113 41t45 106q0 68 -44.5 109t-113.5 41zM471 -270q-65 -23 -98 -23q-44 0 -71.5 26t-27.5 66q0 38 22 79.5t79 121.5h-168q-35 -45 -53 -71.5t-37 -71.5
t-19 -86q0 -93 67 -148t171 -55q82 0 164 39z" />
    <glyph glyph-name="Idotaccent" unicode="&#x130;" horiz-adv-x="542" 
d="M397 0v1440h-250v-1440h250zM272 1876q-67 0 -110 -40t-43 -107q0 -64 44.5 -106t108.5 -42q68 0 112 42t44 106q0 68 -43.5 107.5t-112.5 39.5z" />
    <glyph glyph-name="dotlessi" unicode="&#x131;" horiz-adv-x="497" 
d="M367 0v1028h-242v-1028h242z" />
    <glyph glyph-name="IJ" unicode="&#x132;" horiz-adv-x="1370" 
d="M397 0v1440h-250v-1440h250zM543 57q119 -80 254 -80q208 0 323 126.5t115 357.5v979h-250v-983q0 -136 -49.5 -197t-144.5 -61q-65 0 -121.5 25.5t-126.5 74.5v-242z" />
    <glyph glyph-name="ij" unicode="&#x133;" horiz-adv-x="983" 
d="M375 0v1028h-240v-1028h240zM252 1487q-67 0 -110.5 -41.5t-43.5 -108.5q0 -64 45.5 -105.5t108.5 -41.5q68 0 113 41t45 106q0 68 -44.5 109t-113.5 41zM444 -362q69 -15 121 -15q159 0 223 87t64 255v1063h-240v-1089q0 -63 -22 -96t-76 -33q-32 0 -70 12v-184z
M727 1487q-67 0 -111.5 -41t-44.5 -109q0 -65 44.5 -106t111.5 -41q65 0 110.5 41.5t45.5 105.5q0 67 -45.5 108.5t-110.5 41.5z" />
    <glyph glyph-name="Jcircumflex" unicode="&#x134;" horiz-adv-x="827" 
d="M0 57q119 -80 254 -80q208 0 323 126.5t115 357.5v979h-250v-983q0 -136 -49.5 -197t-144.5 -61q-65 0 -121.5 25.5t-126.5 74.5v-242zM899 1610l-240 319h-167l-240 -319h178l145 153l146 -153h178z" />
    <glyph glyph-name="jcircumflex" unicode="&#x135;" horiz-adv-x="442" 
d="M-51 -362q69 -15 121 -15q82 0 138.5 23.5t88.5 70t45.5 106.5t13.5 142v1063h-239v-1089q0 -63 -22.5 -96t-76.5 -33q-32 0 -69 12v-184zM557 1272l-240 319h-167l-240 -319h178l145 153l146 -153h178z" />
    <glyph glyph-name="uni0136" unicode="&#x136;" horiz-adv-x="1267" 
d="M397 842v598h-250v-1440h250v700l572 -700h305l-639 784l596 656h-307zM625 -510l110 389h-198l-68 -389h156z" />
    <glyph glyph-name="uni0137" unicode="&#x137;" horiz-adv-x="1026" 
d="M367 629v870h-242v-1499h242v487l378 -487h281l-442 569l426 459h-291zM494 -510l110 389h-198l-68 -389h156z" />
    <glyph glyph-name="kgreenlandic" unicode="&#x138;" horiz-adv-x="1036" 
d="M367 629v399h-242v-1028h242v487l378 -487h281l-442 569l426 459h-291z" />
    <glyph glyph-name="Lacute" unicode="&#x139;" horiz-adv-x="1124" 
d="M389 221v1219h-250v-1440h953v221h-703zM383 1909l-195 -330h172l277 264z" />
    <glyph glyph-name="lacute" unicode="&#x13a;" horiz-adv-x="542" 
d="M397 0v1440h-250v-1440h250zM369 1909l-195 -330h172l277 264z" />
    <glyph glyph-name="uni013B" unicode="&#x13b;" horiz-adv-x="1153" 
d="M401 221v1219h-249v-1440h952v221h-703zM602 -510l111 389h-199l-68 -389h156z" />
    <glyph glyph-name="uni013C" unicode="&#x13c;" horiz-adv-x="542" 
d="M397 0v1440h-250v-1440h250zM231 -510l111 389h-199l-67 -389h155z" />
    <glyph glyph-name="Lcaron" unicode="&#x13d;" horiz-adv-x="1116" 
d="M397 221v1219h-250v-1440h953v221h-703zM877 1208l112 389h-198l-68 -389h154z" />
    <glyph glyph-name="lcaron" unicode="&#x13e;" horiz-adv-x="497" 
d="M367 0v1499h-242v-1499h242zM629 1208l112 389h-198l-68 -389h154z" />
    <glyph glyph-name="Ldot" unicode="&#x13f;" horiz-adv-x="1114" 
d="M397 221v1219h-250v-1440h953v221h-703zM842 893q-67 0 -110.5 -40.5t-43.5 -107.5q0 -63 45 -105t109 -42q68 0 111.5 41.5t43.5 105.5q0 68 -43 108t-112 40z" />
    <glyph glyph-name="ldot" unicode="&#x140;" horiz-adv-x="727" 
d="M367 0v1499h-242v-1499h242zM633 893q-67 0 -110.5 -40.5t-43.5 -107.5q0 -63 45 -105t109 -42q68 0 111.5 41.5t43.5 105.5q0 68 -43 108t-112 40z" />
    <glyph glyph-name="Lslash" unicode="&#x141;" horiz-adv-x="1128" 
d="M399 221v1219h-249v-1440h952v221h-703zM915 391v213h-905v-213h905z" />
    <glyph glyph-name="lslash" unicode="&#x142;" horiz-adv-x="690" 
d="M395 0v1499h-241v-1499h241zM676 383v213h-676v-213h676z" />
    <glyph glyph-name="Nacute" unicode="&#x143;" horiz-adv-x="1548" 
d="M1157 397l-770 1037h-240v-1434h246v1051l776 -1051h232v1440h-244v-1043zM842 1909l-195 -330h172l277 264z" />
    <glyph glyph-name="nacute" unicode="&#x144;" horiz-adv-x="1173" 
d="M1059 655q0 182 -95.5 289t-269.5 107q-194 0 -323 -160l-246 137v-1028h242v582q0 68 22 119.5t58 80t75.5 42.5t81.5 14q88 0 150.5 -62.5t62.5 -193.5v-582h242v655zM721 1591l-195 -329h172l277 264z" />
    <glyph glyph-name="uni0145" unicode="&#x145;" horiz-adv-x="1558" 
d="M1161 397l-770 1037h-239v-1434h245v1051l777 -1051h231v1440h-244v-1043zM760 -510l110 389h-198l-68 -389h156z" />
    <glyph glyph-name="uni0146" unicode="&#x146;" horiz-adv-x="1204" 
d="M1069 655q0 182 -95 289t-269 107q-195 0 -324 -160l-246 137v-1028h242v582q0 68 22 119.5t58 80t75.5 42.5t81.5 14q88 0 150.5 -62.5t62.5 -193.5v-582h242v655zM565 -510l111 389h-199l-67 -389h155z" />
    <glyph glyph-name="Ncaron" unicode="&#x147;" horiz-adv-x="1548" 
d="M1157 397l-770 1037h-240v-1434h246v1051l776 -1051h232v1440h-244v-1043zM1118 1903h-190l-144 -160l-145 160h-195l252 -324h170z" />
    <glyph glyph-name="ncaron" unicode="&#x148;" horiz-adv-x="1173" 
d="M1059 655q0 182 -95.5 289t-269.5 107q-194 0 -323 -160l-246 137v-1028h242v582q0 68 22 119.5t58 80t75.5 42.5t81.5 14q88 0 150.5 -62.5t62.5 -193.5v-582h242v655zM942 1554h-190l-144 -161l-145 161h-195l252 -325h170z" />
    <glyph glyph-name="Eng" unicode="&#x14a;" horiz-adv-x="1548" 
d="M147 1434v-1434h246v1051l768 -1039v-80q0 -59 -22 -90.5t-76 -31.5q-31 0 -72 12v-184q66 -15 123 -15q156 0 221.5 87.5t65.5 254.5v90v1385h-244v-1043l-770 1037h-240z" />
    <glyph glyph-name="eng" unicode="&#x14b;" horiz-adv-x="1173" 
d="M125 1028v-1028h242v582q0 68 22 119.5t58 80t75.5 42.5t81.5 14q88 0 150.5 -62.5t62.5 -193.5v-643q0 -63 -22 -96t-76 -33q-31 0 -72 12v-184q66 -15 123 -15q157 0 223 87.5t66 254.5v690q0 188 -99 292t-266 104q-194 0 -323 -160z" />
    <glyph glyph-name="Omacron" unicode="&#x14c;" horiz-adv-x="1701" 
d="M850 -29q211 0 385.5 100t273.5 273t99 381q0 202 -96.5 372t-270.5 270.5t-387 100.5q-160 0 -301.5 -59t-241.5 -160t-157.5 -239t-57.5 -291q0 -154 57 -292t156 -238.5t240 -159t301 -58.5zM852 1245q109 0 204 -43t159.5 -115t101.5 -168t37 -202q0 -142 -63.5 -261
t-179.5 -190t-259 -71q-145 0 -261 71t-179.5 191.5t-63.5 267.5q0 143 63.5 261.5t179.5 188.5t261 70zM1186 1569v157h-666v-157h666z" />
    <glyph glyph-name="omacron" unicode="&#x14d;" horiz-adv-x="1249" 
d="M621 -23q153 0 281.5 70t204 194.5t75.5 274.5q0 147 -72 270t-200.5 195t-286.5 72t-285.5 -72.5t-198.5 -196.5t-71 -272q0 -147 71 -269.5t198.5 -194t283.5 -71.5zM621 848q140 0 230.5 -98t90.5 -236q0 -136 -91 -234t-228 -98q-133 0 -224.5 96.5t-91.5 237.5
t87 236.5t227 95.5zM956 1231v158h-665v-158h665z" />
    <glyph glyph-name="Obreve" unicode="&#x14e;" horiz-adv-x="1701" 
d="M850 -29q211 0 385.5 100t273.5 273t99 381q0 202 -96.5 372t-270.5 270.5t-387 100.5q-160 0 -301.5 -59t-241.5 -160t-157.5 -239t-57.5 -291q0 -154 57 -292t156 -238.5t240 -159t301 -58.5zM852 1245q109 0 204 -43t159.5 -115t101.5 -168t37 -202q0 -142 -63.5 -261
t-179.5 -190t-259 -71q-145 0 -261 71t-179.5 191.5t-63.5 267.5q0 143 63.5 261.5t179.5 188.5t261 70zM1022 1868q-19 -70 -64 -108t-108 -38q-67 0 -113 37.5t-65 108.5h-148q17 -143 103.5 -230.5t216.5 -87.5t219.5 88.5t101.5 229.5h-143z" />
    <glyph glyph-name="obreve" unicode="&#x14f;" horiz-adv-x="1249" 
d="M621 -23q153 0 281.5 70t204 194.5t75.5 274.5q0 147 -72 270t-200.5 195t-286.5 72t-285.5 -72.5t-198.5 -196.5t-71 -272q0 -147 71 -269.5t198.5 -194t283.5 -71.5zM621 848q140 0 230.5 -98t90.5 -236q0 -136 -91 -234t-228 -98q-133 0 -224.5 96.5t-91.5 237.5
t87 236.5t227 95.5zM807 1530q-19 -70 -64 -108t-108 -38q-67 0 -113 37.5t-65 108.5h-148q17 -143 103.5 -230.5t216.5 -87.5t219.5 88.5t101.5 229.5h-143z" />
    <glyph glyph-name="Ohungarumlaut" unicode="&#x150;" horiz-adv-x="1701" 
d="M850 -29q211 0 385.5 100t273.5 273t99 381q0 202 -96.5 372t-270.5 270.5t-387 100.5q-160 0 -301.5 -59t-241.5 -160t-157.5 -239t-57.5 -291q0 -154 57 -292t156 -238.5t240 -159t301 -58.5zM852 1245q109 0 204 -43t159.5 -115t101.5 -168t37 -202q0 -142 -63.5 -261
t-179.5 -190t-259 -71q-145 0 -261 71t-179.5 191.5t-63.5 267.5q0 143 63.5 261.5t179.5 188.5t261 70zM752 1575l278 297l-227 41l-228 -338h177zM1118 1575l279 293l-228 45l-227 -338h176z" />
    <glyph glyph-name="ohungarumlaut" unicode="&#x151;" horiz-adv-x="1263" 
d="M621 -23q153 0 281.5 70t204 194.5t75.5 274.5q0 147 -72 270t-200.5 195t-286.5 72t-285.5 -72.5t-198.5 -196.5t-71 -272q0 -147 71 -269.5t198.5 -194t283.5 -71.5zM621 848q140 0 230.5 -98t90.5 -236q0 -136 -91 -234t-228 -98q-133 0 -224.5 96.5t-91.5 237.5
t87 236.5t227 95.5zM524 1237l279 297l-228 41l-227 -338h176zM891 1237l278 293l-227 45l-227 -338h176z" />
    <glyph glyph-name="OE" unicode="&#x152;" horiz-adv-x="2201" 
d="M1047 1204q-93 41 -189 41q-223 0 -366.5 -148t-143.5 -372q0 -122 43 -221.5t118.5 -165.5t176.5 -101.5t217 -35.5q64 0 144 35v968zM1294 627v-410h783v-217h-996q-115 -27 -215 -27q-158 0 -300.5 57t-245.5 155.5t-163.5 237.5t-60.5 296q0 153 57.5 291t157.5 239
t241.5 160t301.5 59q109 0 215 -28h989v-217h-764v-389h701v-207h-701z" />
    <glyph glyph-name="oe" unicode="&#x153;" horiz-adv-x="2056" 
d="M1890 311q-72 -70 -170 -109.5t-200 -39.5q-192 0 -271 178l738 188q-8 107 -44.5 200.5t-98 166t-154 114.5t-203.5 42q-139 0 -242 -62.5t-162 -173.5q-74 111 -193 174.5t-267 63.5q-158 0 -285.5 -72.5t-198.5 -196.5t-71 -272q0 -147 71 -269.5t198.5 -194
t283.5 -71.5q146 0 265 63t193 173q62 -115 173 -177.5t259 -62.5q104 0 204.5 30.5t174.5 86.5v221zM621 848q140 0 230.5 -98t90.5 -236q0 -136 -91 -234t-228 -98q-133 0 -224.5 96.5t-91.5 237.5t87 236.5t227 95.5zM1221 528q-1 66 11 123t38.5 104.5t74.5 75t113 27.5
q101 0 170.5 -57t93.5 -152z" />
    <glyph glyph-name="Racute" unicode="&#x154;" horiz-adv-x="1273" 
d="M147 0h252v553h183l393 -553h295l-428 582q170 41 267 149t97 270q0 198 -143.5 318.5t-388.5 120.5h-527v-1440zM399 750v473h254q301 0 301 -234q0 -120 -87.5 -179.5t-235.5 -59.5h-232zM737 1909l-194 -330h172l276 264z" />
    <glyph glyph-name="racute" unicode="&#x155;" horiz-adv-x="794" 
d="M748 1040q-35 7 -66 7q-95 0 -176 -43t-135 -123l-246 147v-1028h242v485q0 83 26.5 147.5t71 102.5t98 57t113.5 19q52 0 72 -12v241zM537 1591l-195 -329h172l277 264z" />
    <glyph glyph-name="uni0156" unicode="&#x156;" horiz-adv-x="1273" 
d="M147 0h252v553h183l393 -553h295l-428 582q170 41 267 149t97 270q0 198 -143.5 318.5t-388.5 120.5h-527v-1440zM399 750v473h254q301 0 301 -234q0 -120 -87.5 -179.5t-235.5 -59.5h-232zM637 -510l111 389h-199l-68 -389h156z" />
    <glyph glyph-name="uni0157" unicode="&#x157;" horiz-adv-x="751" 
d="M748 1040q-35 7 -66 7q-95 0 -176 -43t-135 -123l-246 147v-1028h242v485q0 83 26.5 147.5t71 102.5t98 57t113.5 19q52 0 72 -12v241zM227 -510l111 389h-199l-67 -389h155z" />
    <glyph glyph-name="Rcaron" unicode="&#x158;" horiz-adv-x="1273" 
d="M147 0h252v553h183l393 -553h295l-428 582q170 41 267 149t97 270q0 198 -143.5 318.5t-388.5 120.5h-527v-1440zM399 750v473h254q301 0 301 -234q0 -120 -87.5 -179.5t-235.5 -59.5h-232zM961 1903h-191l-143 -160l-146 160h-194l252 -324h170z" />
    <glyph glyph-name="rcaron" unicode="&#x159;" horiz-adv-x="751" 
d="M748 1040q-35 7 -66 7q-95 0 -176 -43t-135 -123l-246 147v-1028h242v485q0 83 26.5 147.5t71 102.5t98 57t113.5 19q52 0 72 -12v241zM770 1554h-190l-144 -161l-145 161h-195l252 -325h170z" />
    <glyph glyph-name="Sacute" unicode="&#x15a;" horiz-adv-x="1181" 
d="M850 367q0 -50 -24.5 -87t-66 -56.5t-85 -28.5t-90.5 -9q-133 0 -271 58t-258 170v-246q204 -193 523 -193q104 0 195 23.5t165.5 70t118 125.5t43.5 181t-41.5 183t-108 132.5t-146.5 93t-160 74t-146.5 64.5t-108 76.5t-41.5 99.5q0 75 64.5 117t177.5 42
q109 0 219.5 -47.5t198.5 -144.5v260q-169 141 -428 141q-129 0 -236.5 -41.5t-176.5 -129t-69 -205.5q0 -84 32.5 -154t85 -116t120.5 -87t138 -69.5t138 -61t120.5 -63.5t85 -75t32.5 -97zM674 1909l-195 -330h172l277 264z" />
    <glyph glyph-name="sacute" unicode="&#x15b;" horiz-adv-x="860" 
d="M571 283q0 -62 -48 -91.5t-115 -29.5q-87 0 -183.5 43t-177.5 110v-225q95 -53 181 -81.5t192 -28.5q171 0 274 88t103 225q0 69 -28.5 124.5t-74 91t-100.5 64.5t-110 51t-100.5 43t-74 48.5t-28.5 60.5q0 37 34.5 63.5t94.5 26.5q133 0 307 -125v228q-135 82 -307 82
q-162 0 -257.5 -76.5t-95.5 -206.5q0 -68 28.5 -121t73.5 -86.5t100 -60t110 -48t100 -43.5t73.5 -54t28.5 -72zM520 1591l-194 -329h172l276 264z" />
    <glyph glyph-name="Scircumflex" unicode="&#x15c;" horiz-adv-x="1181" 
d="M850 367q0 -50 -24.5 -87t-66 -56.5t-85 -28.5t-90.5 -9q-133 0 -271 58t-258 170v-246q204 -193 523 -193q104 0 195 23.5t165.5 70t118 125.5t43.5 181t-41.5 183t-108 132.5t-146.5 93t-160 74t-146.5 64.5t-108 76.5t-41.5 99.5q0 75 64.5 117t177.5 42
q109 0 219.5 -47.5t198.5 -144.5v260q-169 141 -428 141q-129 0 -236.5 -41.5t-176.5 -129t-69 -205.5q0 -84 32.5 -154t85 -116t120.5 -87t138 -69.5t138 -61t120.5 -63.5t85 -75t32.5 -97zM907 1610l-239 319h-168l-240 -319h178l146 153l145 -153h178z" />
    <glyph glyph-name="scircumflex" unicode="&#x15d;" horiz-adv-x="860" 
d="M571 283q0 -62 -48 -91.5t-115 -29.5q-87 0 -183.5 43t-177.5 110v-225q95 -53 181 -81.5t192 -28.5q171 0 274 88t103 225q0 69 -28.5 124.5t-74 91t-100.5 64.5t-110 51t-100.5 43t-74 48.5t-28.5 60.5q0 37 34.5 63.5t94.5 26.5q133 0 307 -125v228q-135 82 -307 82
q-162 0 -257.5 -76.5t-95.5 -206.5q0 -68 28.5 -121t73.5 -86.5t100 -60t110 -48t100 -43.5t73.5 -54t28.5 -72zM725 1272l-240 319h-168l-239 -319h178l145 153l146 -153h178z" />
    <glyph glyph-name="Scedilla" unicode="&#x15e;" horiz-adv-x="1181" 
d="M850 367q0 -50 -24.5 -87t-66 -56.5t-85 -28.5t-90.5 -9q-133 0 -271 58t-258 170v-246q204 -193 523 -193q104 0 195 23.5t165.5 70t118 125.5t43.5 181t-41.5 183t-108 132.5t-146.5 93t-160 74t-146.5 64.5t-108 76.5t-41.5 99.5q0 75 64.5 117t177.5 42
q109 0 219.5 -47.5t198.5 -144.5v260q-169 141 -428 141q-129 0 -236.5 -41.5t-176.5 -129t-69 -205.5q0 -84 32.5 -154t85 -116t120.5 -87t138 -69.5t138 -61t120.5 -63.5t85 -75t32.5 -97zM567 -143l86 143h-135l-131 -197l43 -34q43 18 76 18q37 0 58.5 -15t21.5 -44
q0 -42 -40 -63t-85 -21q-47 0 -115 24l-33 -92q92 -45 187 -45q44 0 85.5 10t79.5 30t61.5 57t23.5 85q0 74 -52 109t-120 35h-11z" />
    <glyph glyph-name="scedilla" unicode="&#x15f;" horiz-adv-x="860" 
d="M571 283q0 -62 -48 -91.5t-115 -29.5q-87 0 -183.5 43t-177.5 110v-225q95 -53 181 -81.5t192 -28.5q171 0 274 88t103 225q0 69 -28.5 124.5t-74 91t-100.5 64.5t-110 51t-100.5 43t-74 48.5t-28.5 60.5q0 37 34.5 63.5t94.5 26.5q133 0 307 -125v228q-135 82 -307 82
q-162 0 -257.5 -76.5t-95.5 -206.5q0 -68 28.5 -121t73.5 -86.5t100 -60t110 -48t100 -43.5t73.5 -54t28.5 -72zM406 -143l86 143h-136l-131 -197l43 -34q43 18 76 18q37 0 58.5 -15t21.5 -44q0 -42 -40 -63t-85 -21q-47 0 -115 24l-32 -92q92 -45 186 -45q44 0 85.5 10
t79.5 30t61.5 57t23.5 85q0 74 -52 109t-120 35h-10z" />
    <glyph glyph-name="Scaron" unicode="&#x160;" horiz-adv-x="1181" 
d="M850 367q0 -50 -24.5 -87t-66 -56.5t-85 -28.5t-90.5 -9q-133 0 -271 58t-258 170v-246q204 -193 523 -193q104 0 195 23.5t165.5 70t118 125.5t43.5 181t-41.5 183t-108 132.5t-146.5 93t-160 74t-146.5 64.5t-108 76.5t-41.5 99.5q0 75 64.5 117t177.5 42
q109 0 219.5 -47.5t198.5 -144.5v260q-169 141 -428 141q-129 0 -236.5 -41.5t-176.5 -129t-69 -205.5q0 -84 32.5 -154t85 -116t120.5 -87t138 -69.5t138 -61t120.5 -63.5t85 -75t32.5 -97zM918 1903h-191l-143 -160l-146 160h-194l252 -324h170z" />
    <glyph glyph-name="scaron" unicode="&#x161;" horiz-adv-x="860" 
d="M571 283q0 -62 -48 -91.5t-115 -29.5q-87 0 -183.5 43t-177.5 110v-225q95 -53 181 -81.5t192 -28.5q171 0 274 88t103 225q0 69 -28.5 124.5t-74 91t-100.5 64.5t-110 51t-100.5 43t-74 48.5t-28.5 60.5q0 37 34.5 63.5t94.5 26.5q133 0 307 -125v228q-135 82 -307 82
q-162 0 -257.5 -76.5t-95.5 -206.5q0 -68 28.5 -121t73.5 -86.5t100 -60t110 -48t100 -43.5t73.5 -54t28.5 -72zM768 1565h-190l-144 -160l-145 160h-195l252 -324h170z" />
    <glyph glyph-name="uni0162" unicode="&#x162;" horiz-adv-x="1144" 
d="M696 0v1221h430v219h-1108v-219h431v-1221h247zM561 -143l86 143h-135l-131 -197l43 -34q44 18 76 18q37 0 58.5 -15t21.5 -44q0 -42 -40 -63t-85 -21q-47 0 -115 24l-33 -92q92 -45 187 -45q44 0 85.5 10t79.5 30t61 57t23 85q0 74 -52 109t-120 35h-10z" />
    <glyph glyph-name="uni0163" unicode="&#x163;" horiz-adv-x="759" 
d="M231 279q0 -137 74 -219.5t207 -82.5q93 0 156 35v197q-52 -27 -101 -27q-96 0 -96 111v534h260v201h-260v342l-444 -543h204v-548zM492 -143l86 143h-136l-131 -197l43 -34q44 18 76 18q37 0 58.5 -15t21.5 -44q0 -42 -40 -63t-85 -21q-47 0 -115 24l-32 -92
q92 -45 186 -45q44 0 85.5 10t79.5 30t61.5 57t23.5 85q0 74 -52 109t-120 35h-10z" />
    <glyph glyph-name="Tcaron" unicode="&#x164;" horiz-adv-x="1144" 
d="M696 0v1221h430v219h-1108v-219h431v-1221h247zM907 1903h-190l-144 -160l-145 160h-195l252 -324h170z" />
    <glyph glyph-name="tcaron" unicode="&#x165;" horiz-adv-x="759" 
d="M231 279q0 -137 74 -219.5t207 -82.5q93 0 156 35v197q-52 -27 -101 -27q-96 0 -96 111v534h260v201h-260v342l-444 -543h204v-548zM711 1208l112 389h-198l-68 -389h154z" />
    <glyph glyph-name="Tbar" unicode="&#x166;" horiz-adv-x="1144" 
d="M696 0v1221h430v219h-1108v-219h431v-1221h247zM905 729v158h-665v-158h665z" />
    <glyph glyph-name="tbar" unicode="&#x167;" horiz-adv-x="759" 
d="M231 279q0 -137 74 -219.5t207 -82.5q93 0 156 35v197q-52 -27 -101 -27q-96 0 -96 111v534h260v201h-260v342l-444 -543h204v-548zM723 520v158h-674v-158h674z" />
    <glyph glyph-name="Utilde" unicode="&#x168;" horiz-adv-x="1474" 
d="M133 598q0 -301 157.5 -465t446.5 -164q290 0 446 164.5t156 470.5v838h-247v-844q0 -200 -92 -300.5t-263 -100.5q-176 0 -265 105.5t-89 303.5v836h-250v-844zM555 1571q32 94 104 94q35 0 117 -38t129 -38q144 0 215 240l-141 29q-18 -51 -37 -72t-51 -21
q-30 0 -112.5 37t-135.5 37q-163 0 -231 -244z" />
    <glyph glyph-name="utilde" unicode="&#x169;" horiz-adv-x="1161" 
d="M117 373q0 -183 91.5 -288t270.5 -105q204 0 324 147l244 -135v1038h-242v-584q0 -67 -21 -118t-55.5 -79.5t-74.5 -42t-83 -13.5q-91 0 -152 61.5t-61 191.5v584h-241v-657zM383 1233q32 94 104 94q35 0 117 -38t129 -38q144 0 215 240l-141 29q-18 -51 -37 -72t-51 -21
q-30 0 -112.5 37t-135.5 37q-163 0 -231 -244z" />
    <glyph glyph-name="Umacron" unicode="&#x16a;" horiz-adv-x="1474" 
d="M133 598q0 -301 157.5 -465t446.5 -164q290 0 446 164.5t156 470.5v838h-247v-844q0 -200 -92 -300.5t-263 -100.5q-176 0 -265 105.5t-89 303.5v836h-250v-844zM1079 1569v157h-665v-157h665z" />
    <glyph glyph-name="umacron" unicode="&#x16b;" horiz-adv-x="1161" 
d="M117 373q0 -183 91.5 -288t270.5 -105q204 0 324 147l244 -135v1038h-242v-584q0 -67 -21 -118t-55.5 -79.5t-74.5 -42t-83 -13.5q-91 0 -152 61.5t-61 191.5v584h-241v-657zM926 1231v158h-666v-158h666z" />
    <glyph glyph-name="Ubreve" unicode="&#x16c;" horiz-adv-x="1474" 
d="M133 598q0 -301 157.5 -465t446.5 -164q290 0 446 164.5t156 470.5v838h-247v-844q0 -200 -92 -300.5t-263 -100.5q-176 0 -265 105.5t-89 303.5v836h-250v-844zM918 1868q-19 -70 -64.5 -108t-108.5 -38q-67 0 -113 37.5t-65 108.5h-147q18 -143 103.5 -230.5
t215.5 -87.5q131 0 220.5 88.5t101.5 229.5h-143z" />
    <glyph glyph-name="ubreve" unicode="&#x16d;" horiz-adv-x="1161" 
d="M117 373q0 -183 91.5 -288t270.5 -105q204 0 324 147l244 -135v1038h-242v-584q0 -67 -21 -118t-55.5 -79.5t-74.5 -42t-83 -13.5q-91 0 -152 61.5t-61 191.5v584h-241v-657zM754 1530q-19 -70 -64 -108t-108 -38q-68 0 -114 38t-65 108h-147q18 -143 103.5 -230.5
t215.5 -87.5q131 0 220.5 88.5t101.5 229.5h-143z" />
    <glyph glyph-name="Uring" unicode="&#x16e;" horiz-adv-x="1474" 
d="M133 598q0 -301 157.5 -465t446.5 -164q290 0 446 164.5t156 470.5v838h-247v-844q0 -200 -92 -300.5t-263 -100.5q-176 0 -265 105.5t-89 303.5v836h-250v-844zM741 1577q95 0 160.5 61.5t65.5 153.5q0 93 -66.5 157t-159.5 64q-89 0 -154 -63.5t-65 -155.5
q0 -91 65 -154t154 -63zM743 1888q42 0 69.5 -26.5t27.5 -67.5q0 -39 -27 -65.5t-70 -26.5q-41 0 -67.5 25.5t-26.5 68.5q0 38 27 65t67 27z" />
    <glyph glyph-name="uring" unicode="&#x16f;" horiz-adv-x="1161" 
d="M117 373q0 -183 91.5 -288t270.5 -105q204 0 324 147l244 -135v1038h-242v-584q0 -67 -21 -118t-55.5 -79.5t-74.5 -42t-83 -13.5q-91 0 -152 61.5t-61 191.5v584h-241v-657zM582 1204q94 0 159.5 61.5t65.5 153.5q0 93 -66 157t-159 64q-89 0 -154.5 -63.5t-65.5 -155.5
q0 -91 65.5 -154t154.5 -63zM584 1516q41 0 68.5 -27t27.5 -68q0 -39 -26.5 -65.5t-69.5 -26.5q-41 0 -68 25.5t-27 68.5q0 38 27.5 65.5t67.5 27.5z" />
    <glyph glyph-name="Uhungarumlaut" unicode="&#x170;" horiz-adv-x="1474" 
d="M133 598q0 -301 157.5 -465t446.5 -164q290 0 446 164.5t156 470.5v838h-247v-844q0 -200 -92 -300.5t-263 -100.5q-176 0 -265 105.5t-89 303.5v836h-250v-844zM631 1575l278 297l-227 41l-227 -338h176zM997 1575l279 293l-227 45l-228 -338h176z" />
    <glyph glyph-name="uhungarumlaut" unicode="&#x171;" horiz-adv-x="1234" 
d="M117 373q0 -183 91.5 -288t270.5 -105q204 0 324 147l244 -135v1038h-242v-584q0 -67 -21 -118t-55.5 -79.5t-74.5 -42t-83 -13.5q-91 0 -152 61.5t-61 191.5v584h-241v-657zM475 1237l279 297l-228 41l-227 -338h176zM842 1237l278 293l-227 45l-227 -338h176z" />
    <glyph glyph-name="Uogonek" unicode="&#x172;" horiz-adv-x="1474" 
d="M133 598q0 -301 157.5 -465t446.5 -164q290 0 446 164.5t156 470.5v838h-247v-844q0 -200 -92 -300.5t-263 -100.5q-176 0 -265 105.5t-89 303.5v836h-250v-844zM926 -270q-65 -23 -99 -23q-44 0 -71 26t-27 66q0 38 22 80t78 121h-167q-35 -45 -53 -71.5t-37 -71.5
t-19 -86q0 -93 67 -148t171 -55q81 0 163 39z" />
    <glyph glyph-name="uogonek" unicode="&#x173;" horiz-adv-x="1161" 
d="M117 373q0 -183 91.5 -288t270.5 -105q204 0 324 147l244 -135v1038h-242v-584q0 -67 -21 -118t-55.5 -79.5t-74.5 -42t-83 -13.5q-91 0 -152 61.5t-61 191.5v584h-241v-657zM1143 -270q-65 -23 -99 -23q-46 0 -72 27.5t-26 70.5q0 63 101 187l-117 71
q-85 -89 -122.5 -156t-37.5 -132q0 -94 67.5 -150.5t170.5 -56.5q81 0 163 39z" />
    <glyph glyph-name="Wcircumflex" unicode="&#x174;" horiz-adv-x="2095" 
d="M610 373l-342 1067h-264l481 -1444h230l329 1069l342 -1069h226l479 1444h-258l-336 -1067l-334 1069h-225zM1370 1610l-240 319h-167l-240 -319h178l146 153l145 -153h178z" />
    <glyph glyph-name="wcircumflex" unicode="&#x175;" horiz-adv-x="1558" 
d="M238 1028h-244l338 -1032h217l227 731l228 -731h223l338 1032h-244l-213 -709l-215 711h-223l-217 -713zM1100 1272l-240 319h-168l-239 -319h178l145 153l146 -153h178z" />
    <glyph glyph-name="Ycircumflex" unicode="&#x176;" horiz-adv-x="1333" 
d="M793 0v563l548 877h-276l-393 -647l-393 647h-287l551 -879v-561h250zM997 1610l-239 319h-168l-240 -319h178l146 153l145 -153h178z" />
    <glyph glyph-name="ycircumflex" unicode="&#x177;" horiz-adv-x="1062" 
d="M-8 1026l450 -1030l-133 -361h215l547 1391h-250l-274 -760l-299 760h-256zM866 1272l-239 319h-168l-240 -319h178l146 153l145 -153h178z" />
    <glyph glyph-name="Ydieresis" unicode="&#x178;" horiz-adv-x="1333" 
d="M793 0v563l548 877h-276l-393 -647l-393 647h-287l551 -879v-561h250zM463 1898q-62 0 -101.5 -38t-39.5 -99q0 -62 40 -100.5t101 -38.5q60 0 101.5 38.5t41.5 100.5q0 60 -41.5 98.5t-101.5 38.5zM877 1898q-60 0 -99 -38.5t-39 -98.5q0 -62 39.5 -100.5t98.5 -38.5
q63 0 102 38t39 101q0 61 -39 99t-102 38z" />
    <glyph glyph-name="Zacute" unicode="&#x179;" horiz-adv-x="1302" 
d="M348 215l916 1030v195h-1203v-215h877l-922 -1030v-195h1217v215h-885zM750 1909l-195 -330h172l277 264z" />
    <glyph glyph-name="zacute" unicode="&#x17a;" horiz-adv-x="1052" 
d="M332 199l674 649v180h-945v-197h641l-675 -653v-178h970v199h-665zM645 1591l-194 -329h172l276 264z" />
    <glyph glyph-name="Zdotaccent" unicode="&#x17b;" horiz-adv-x="1302" 
d="M348 215l916 1030v195h-1203v-215h877l-922 -1030v-195h1217v215h-885zM668 1876q-67 0 -110.5 -40.5t-43.5 -106.5q0 -64 45 -106t109 -42q68 0 111.5 42t43.5 106q0 68 -43 107.5t-112 39.5z" />
    <glyph glyph-name="zdotaccent" unicode="&#x17c;" horiz-adv-x="1052" 
d="M332 199l674 649v180h-945v-197h641l-675 -653v-178h970v199h-665zM543 1538q-67 0 -110.5 -40.5t-43.5 -106.5q0 -64 45 -106t109 -42q68 0 111.5 42t43.5 106q0 68 -43 107.5t-112 39.5z" />
    <glyph glyph-name="Zcaron" unicode="&#x17d;" horiz-adv-x="1302" 
d="M348 215l916 1030v195h-1203v-215h877l-922 -1030v-195h1217v215h-885zM1020 1903h-191l-143 -160l-145 160h-195l252 -324h170z" />
    <glyph glyph-name="zcaron" unicode="&#x17e;" horiz-adv-x="1052" 
d="M332 199l674 649v180h-945v-197h641l-675 -653v-178h970v199h-665zM874 1554h-190l-143 -161l-146 161h-194l252 -325h170z" />
    <glyph glyph-name="florin" unicode="&#x192;" horiz-adv-x="837" 
d="M164 731l-203 -983h236l209 983h215l36 193h-215l25 125q25 131 74.5 183t132.5 52q53 0 86 -16l37 192q-68 21 -160 21q-318 0 -397 -365l-41 -192h-154l-39 -193h158z" />
    <glyph glyph-name="uni01CD" unicode="&#x1cd;" horiz-adv-x="1447" 
d="M401 354h641l148 -354h270l-626 1444h-222l-624 -1444h262zM485 561l236 590l240 -590h-476zM1061 1919h-191l-143 -160l-145 160h-195l252 -324h170z" />
    <glyph glyph-name="uni01CE" unicode="&#x1ce;" horiz-adv-x="1165" 
d="M799 262q-101 -112 -258 -112q-100 0 -168 48.5t-68 137.5q0 91 74.5 139.5t177.5 48.5q130 0 242 -61v-201zM1036 633q0 200 -132.5 307t-354.5 107q-194 0 -406 -86v-199q163 90 369 90q287 0 287 -203v-33q-115 62 -299 62q-69 0 -130 -11t-117 -36t-96.5 -63
t-64.5 -96t-24 -130q0 -113 59 -198t148.5 -126t191.5 -41q192 0 328 127l241 -112v641zM920 1554h-191l-143 -161l-146 161h-194l252 -325h170z" />
    <glyph glyph-name="Aringacute" unicode="&#x1fa;" horiz-adv-x="1419" 
d="M715 1372q-41 0 -67.5 26.5t-26.5 67.5q0 39 26 66t68 27q40 0 67 -28t27 -67t-26.5 -65.5t-67.5 -26.5zM-12 0h262l129 293h657l129 -293h269l-598 1288q46 27 73 72.5t27 101.5q0 93 -65.5 157t-159.5 64q-89 0 -155.5 -63.5t-66.5 -155.5q0 -109 95 -172zM950 500
h-483l242 557zM836 2052l-195 -330h172l277 263z" />
    <glyph glyph-name="Aringacute" unicode="&#x1fb;" horiz-adv-x="1419" 
d="M715 1372q-41 0 -67.5 26.5t-26.5 67.5q0 39 26 66t68 27q40 0 67 -28t27 -67t-26.5 -65.5t-67.5 -26.5zM-12 0h262l129 293h657l129 -293h269l-598 1288q46 27 73 72.5t27 101.5q0 93 -65.5 157t-159.5 64q-89 0 -155.5 -63.5t-66.5 -155.5q0 -109 95 -172zM950 500
h-483l242 557zM836 2052l-195 -330h172l277 263z" />
    <glyph glyph-name="AEacute" unicode="&#x1fc;" horiz-adv-x="1951" 
d="M786 1440l-798 -1440h262l205 354h469v-354h1034v217h-784v410h702v207h-702v389h765v217h-1153zM924 561h-367l367 660v-660zM1274 1909l-195 -330h172l277 264z" />
    <glyph glyph-name="aeacute" unicode="&#x1fd;" horiz-adv-x="1878" 
d="M1716 311q-70 -70 -169 -109.5t-201 -39.5q-105 0 -177.5 47.5t-109.5 130.5l756 188q-12 144 -71.5 260.5t-171.5 189.5t-259 73q-224 0 -367 -166q-61 79 -176 120.5t-238 41.5q-196 0 -395 -86v-199q167 90 367 90q287 0 287 -203v-33q-115 62 -299 62
q-83 0 -157.5 -20t-137 -59.5t-99.5 -107.5t-37 -157q0 -110 60.5 -193t155 -123.5t206.5 -40.5q278 0 461 166q146 -170 406 -170q210 0 366 117v221zM791 262q-101 -112 -256 -112q-101 0 -169.5 48.5t-68.5 137.5q0 91 75 139.5t179 48.5q128 0 240 -61v-201zM1036 522
q-2 137 71 236.5t202 99.5q100 0 169.5 -57t94.5 -152zM1049 1571l-195 -330h172l277 264z" />
    <glyph glyph-name="Oslashacute" unicode="&#x1fe;" horiz-adv-x="1695" 
d="M180 6l139 -100l144 186q166 -121 385 -121q160 0 301.5 59.5t241.5 161t157.5 240.5t57.5 293t-59 289.5t-167 236.5l142 172l-144 101l-139 -178q-174 122 -389 122q-160 0 -301.5 -59t-241.5 -160t-157.5 -239t-57.5 -291q0 -160 58.5 -296.5t168.5 -238.5zM457 385
q-111 145 -111 340q0 140 61.5 258t174 189t252.5 71q151 0 270 -88zM1243 1049q107 -145 107 -332q0 -141 -60 -259t-171.5 -188.5t-252.5 -70.5q-148 0 -270 86zM997 1909l-194 -330h172l276 264z" />
    <glyph glyph-name="oslashacute" unicode="&#x1ff;" horiz-adv-x="1220" 
d="M887 688q47 -77 47 -180q0 -146 -88.5 -243t-233.5 -97q-95 0 -172 53zM348 322q-47 70 -47 186q0 143 86.5 239.5t228.5 96.5q110 0 175 -56zM45 2l102 -98l154 168q129 -97 315 -97q156 0 282 70t196.5 192t70.5 271q0 195 -123 344l119 133l-100 98l-129 -139
q-122 94 -316 94q-155 0 -280.5 -71t-194.5 -192t-69 -267q0 -197 123 -348zM739 1571l-194 -330h172l276 264z" />
    <glyph glyph-name="uni0218" unicode="&#x218;" horiz-adv-x="1222" 
d="M891 367q0 -50 -24.5 -87t-66 -56.5t-85 -28.5t-90.5 -9q-133 0 -271 58t-258 170v-246q204 -193 522 -193q104 0 195.5 23.5t166 70t118 125.5t43.5 181t-41.5 183t-108 132.5t-146.5 93t-160 74t-146.5 64.5t-108 76.5t-41.5 99.5q0 75 64.5 117t177.5 42
q109 0 219.5 -47.5t198.5 -144.5v260q-169 141 -428 141q-129 0 -236.5 -41.5t-176.5 -129t-69 -205.5q0 -75 25.5 -138.5t69 -108.5t100 -83.5t119 -67.5t125 -56t119 -54.5t100 -57.5t69 -70t25.5 -87zM578 -510l110 389h-199l-67 -389h156z" />
    <glyph glyph-name="uni0219" unicode="&#x219;" horiz-adv-x="911" 
d="M616 283q0 -62 -48 -91.5t-115 -29.5q-87 0 -183.5 43t-177.5 110v-225q95 -53 181 -81.5t192 -28.5q171 0 274 88t103 225q0 69 -28.5 124.5t-74 91t-100.5 64.5t-110 51t-100.5 43t-74 48.5t-28.5 60.5q0 37 34.5 63.5t94.5 26.5q133 0 307 -125v228q-135 82 -307 82
q-162 0 -257.5 -76.5t-95.5 -206.5q0 -68 28.5 -121t73.5 -86.5t100 -60t110 -48t100 -43.5t73.5 -54t28.5 -72zM408 -510l110 389h-199l-67 -389h156z" />
    <glyph glyph-name="uni021A" unicode="&#x21a;" horiz-adv-x="1144" 
d="M696 0v1221h430v219h-1108v-219h431v-1221h247zM543 -510l110 389h-198l-68 -389h156z" />
    <glyph glyph-name="uni021B" unicode="&#x21b;" horiz-adv-x="759" 
d="M231 279q0 -137 74 -219.5t207 -82.5q93 0 156 35v197q-52 -27 -101 -27q-96 0 -96 111v534h260v201h-260v342l-444 -543h204v-548zM430 -510l111 389h-199l-68 -389h156z" />
    <glyph glyph-name="uni0237" unicode="&#x237;" horiz-adv-x="442" 
d="M-51 -362q69 -15 121 -15q82 0 138.5 23.5t88.5 70t45.5 106.5t13.5 142v1063h-239v-1089q0 -63 -22.5 -96t-76.5 -33q-32 0 -69 12v-184z" />
    <glyph glyph-name="circumflex" unicode="&#x2c6;" horiz-adv-x="727" 
d="M686 1272l-240 319h-167l-240 -319h178l145 153l146 -153h178z" />
    <glyph glyph-name="caron" unicode="&#x2c7;" horiz-adv-x="727" 
d="M700 1565h-190l-143 -160l-146 160h-194l252 -324h170z" />
    <glyph glyph-name="uni02C9" unicode="&#x2c9;" horiz-adv-x="833" 
d="M752 1231v158h-666v-158h666z" />
    <glyph glyph-name="breve" unicode="&#x2d8;" horiz-adv-x="706" 
d="M530 1530q-19 -70 -64 -108t-108 -38q-67 0 -113 37.5t-65 108.5h-147q18 -143 103.5 -230.5t215.5 -87.5q131 0 220.5 88.5t101.5 229.5h-144z" />
    <glyph glyph-name="dotaccent" unicode="&#x2d9;" horiz-adv-x="444" 
d="M221 1538q-67 0 -110 -40t-43 -107q0 -64 44.5 -106t108.5 -42q68 0 112 42t44 106q0 68 -43.5 107.5t-112.5 39.5z" />
    <glyph glyph-name="ring" unicode="&#x2da;" horiz-adv-x="563" 
d="M279 1239q94 0 159.5 61.5t65.5 153.5q0 93 -66 157t-159 64q-89 0 -154.5 -63.5t-65.5 -155.5q0 -91 65.5 -154t154.5 -63zM281 1550q41 0 68.5 -26.5t27.5 -67.5q0 -39 -26.5 -65.5t-69.5 -26.5q-41 0 -68 25.5t-27 68.5q0 38 27.5 65t67.5 27z" />
    <glyph glyph-name="ogonek" unicode="&#x2db;" horiz-adv-x="776" 
d="M559 -270q-65 -23 -98 -23q-44 0 -71.5 26t-27.5 66q0 38 22 79.5t79 121.5h-168q-35 -45 -53 -71.5t-37 -71.5t-19 -86q0 -93 67 -148t171 -55q82 0 164 39z" />
    <glyph glyph-name="tilde" unicode="&#x2dc;" horiz-adv-x="786" 
d="M182 1233q32 94 105 94q35 0 116.5 -38t128.5 -38q145 0 216 240l-142 29q-18 -51 -37 -72t-51 -21q-30 0 -112.5 37t-135.5 37q-163 0 -231 -244z" />
    <glyph glyph-name="hungarumlaut" unicode="&#x2dd;" horiz-adv-x="845" 
d="M197 1237l278 297l-227 41l-228 -338h177zM563 1237l279 293l-228 45l-227 -338h176z" />
    <glyph glyph-name="gravecomb" unicode="&#x300;" 
d="M20 1526l275 -264h178l-203 329z" />
    <glyph glyph-name="acutecomb" unicode="&#x301;" 
d="M229 1591l-194 -329h172l276 264z" />
    <glyph glyph-name="uni0302" unicode="&#x302;" 
d="M686 1272l-240 319h-167l-240 -319h178l145 153l146 -153h178z" />
    <glyph glyph-name="tildecomb" unicode="&#x303;" 
d="M182 1233q32 94 105 94q35 0 116.5 -38t128.5 -38q145 0 216 240l-142 29q-18 -51 -37 -72t-51 -21q-30 0 -112.5 37t-135.5 37q-163 0 -231 -244z" />
    <glyph glyph-name="uni0304" unicode="&#x304;" 
d="M752 1231v158h-666v-158h666z" />
    <glyph glyph-name="uni0306" unicode="&#x306;" 
d="M530 1530q-19 -70 -64 -108t-108 -38q-67 0 -113 37.5t-65 108.5h-147q18 -143 103.5 -230.5t215.5 -87.5q131 0 220.5 88.5t101.5 229.5h-144z" />
    <glyph glyph-name="uni0307" unicode="&#x307;" 
d="M221 1538q-67 0 -110 -40t-43 -107q0 -64 44.5 -106t108.5 -42q68 0 112 42t44 106q0 68 -43.5 107.5t-112.5 39.5z" />
    <glyph glyph-name="uni0308" unicode="&#x308;" 
d="M180 1546q-57 0 -95 -37t-38 -94q0 -58 37 -94.5t96 -36.5q55 0 95 37t40 94q0 56 -40 93.5t-95 37.5zM584 1546q-55 0 -92 -37.5t-37 -93.5q0 -58 37 -94.5t92 -36.5q59 0 96 36.5t37 94.5q0 57 -37.5 94t-95.5 37z" />
    <glyph glyph-name="uni030A" unicode="&#x30a;" 
d="M279 1239q94 0 159.5 61.5t65.5 153.5q0 93 -66 157t-159 64q-89 0 -154.5 -63.5t-65.5 -155.5q0 -91 65.5 -154t154.5 -63zM281 1550q41 0 68.5 -26.5t27.5 -67.5q0 -39 -26.5 -65.5t-69.5 -26.5q-41 0 -68 25.5t-27 68.5q0 38 27.5 65t67.5 27z" />
    <glyph glyph-name="uni030B" unicode="&#x30b;" 
d="M197 1237l278 297l-227 41l-228 -338h177zM563 1237l279 293l-228 45l-227 -338h176z" />
    <glyph glyph-name="uni030C" unicode="&#x30c;" 
d="M700 1554h-190l-143 -161l-146 161h-194l252 -325h170z" />
    <glyph glyph-name="uni030F" unicode="&#x30f;" 
d="M20 1526l275 -264h178l-203 329zM369 1526l274 -264h178l-203 329z" />
    <glyph glyph-name="uni0311" unicode="&#x311;" 
d="M176 1212q19 70 64 108t108 38q67 0 113 -37.5t65 -108.5h148q-17 143 -103.5 230.5t-216.5 87.5t-219.5 -88.5t-101.5 -229.5h143z" />
    <glyph glyph-name="uni0312" unicode="&#x312;" 
d="M272 1724l-172 -600h252l103 600h-183z" />
    <glyph glyph-name="uni0326" unicode="&#x326;" 
d="M336 -489l110 389h-198l-68 -389h156z" />
    <glyph glyph-name="uni0327" unicode="&#x327;" 
d="M344 -143l86 143h-135l-131 -197l43 -34q43 18 76 18q79 0 79 -59q0 -42 -40 -63t-84 -21q-48 0 -115 24l-33 -92q92 -45 186 -45q44 0 85.5 10t79.5 30t61.5 57t23.5 85q0 74 -52 109t-120 35h-10z" />
    <glyph glyph-name="uni0328" unicode="&#x328;" 
d="M559 -270q-65 -23 -98 -23q-44 0 -71.5 26t-27.5 66q0 38 22 79.5t79 121.5h-168q-35 -45 -53 -71.5t-37 -71.5t-19 -86q0 -93 67 -148t171 -55q82 0 164 39z" />
    <glyph glyph-name="uni0374" unicode="&#x374;" horiz-adv-x="901" 
d="M395 1675l-194 -452h170l344 452h-320z" />
    <glyph glyph-name="uni0375" unicode="&#x375;" horiz-adv-x="901" 
d="M477 -397l197 454h-172l-342 -454h317z" />
    <glyph glyph-name="uni037E" unicode="&#x37e;" horiz-adv-x="548" 
d="M266 1047q-69 0 -113 -43t-44 -113q0 -71 43.5 -114.5t113.5 -43.5q68 0 114 44t46 114q0 69 -46 112.5t-114 43.5zM236 -301l172 600h-254l-103 -600h185z" />
    <glyph glyph-name="tonos" unicode="&#x384;" horiz-adv-x="901" 
d="M395 1675l-194 -329h170l344 329h-320z" />
    <glyph glyph-name="dieresistonos" unicode="&#x385;" horiz-adv-x="1058" 
d="M203 1593q-56 0 -94.5 -38t-38.5 -95t38.5 -95t94.5 -38q54 0 94.5 38.5t40.5 94.5t-40.5 94.5t-94.5 38.5zM506 1663l-166 -330h162l303 330h-299zM727 1464q0 -56 36.5 -94.5t92.5 -38.5q59 0 96 38t37 95q0 54 -37.5 93.5t-95.5 39.5q-56 0 -92.5 -39.5t-36.5 -93.5z
" />
    <glyph glyph-name="Alphatonos" unicode="&#x386;" horiz-adv-x="1554" 
d="M508 354h641l147 -354h271l-627 1444h-221l-625 -1444h262zM592 561l235 590l240 -590h-475zM162 1571l-195 -330h170l344 330h-319z" />
    <glyph glyph-name="anoteleia" unicode="&#x387;" horiz-adv-x="634" 
d="M317 877q-69 0 -114 -43.5t-45 -112.5q0 -70 45.5 -115t113.5 -45q66 0 112 45.5t46 114.5q0 68 -46 112t-112 44z" />
    <glyph glyph-name="Epsilontonos" unicode="&#x388;" horiz-adv-x="1425" 
d="M516 217v410h701v207h-701v389h764v217h-1014v-1440h1032v217h-782zM-45 1571l-195 -330h170l344 330h-319z" />
    <glyph glyph-name="Etatonos" unicode="&#x389;" horiz-adv-x="1619" 
d="M287 1442v-1442h250v618h690v-618h248v1442h-248v-598h-690v598h-250zM-45 1571l-195 -330h170l344 330h-319z" />
    <glyph glyph-name="Iotatonos" unicode="&#x38a;" horiz-adv-x="542" 
d="M397 0v1440h-250v-1440h250zM-133 1571l-195 -330h170l344 330h-319z" />
    <glyph glyph-name="Omicrontonos" unicode="&#x38c;" horiz-adv-x="1761" 
d="M909 -29q211 0 385.5 100t273.5 273t99 381q0 202 -96.5 372t-270.5 270.5t-387 100.5q-214 0 -388 -100.5t-271.5 -272t-97.5 -376.5q0 -206 96.5 -377t269.5 -271t387 -100zM911 1245q109 0 204 -43t159.5 -115t101.5 -168t37 -202q0 -142 -63.5 -261t-179.5 -190
t-259 -71q-145 0 -261 71t-179 191.5t-63 267.5q0 143 63 261.5t179 188.5t261 70zM66 1571l-195 -330h170l344 330h-319z" />
    <glyph glyph-name="Upsilontonos" unicode="&#x38e;" horiz-adv-x="1558" 
d="M1016 0v563l549 877h-277l-393 -647l-393 647h-287l551 -879v-561h250zM-123 1571l-194 -330h170l344 330h-320z" />
    <glyph glyph-name="Omegatonos" unicode="&#x38f;" horiz-adv-x="1781" 
d="M1012 0h641v217h-355q147 86 230.5 240t83.5 327q0 205 -94 362t-256 239.5t-365 82.5q-149 0 -281 -48t-230 -134.5t-155 -214.5t-57 -280q0 -173 84 -330.5t229 -243.5h-352v-217h647v225q-166 84 -259 220.5t-93 314.5q0 215 126.5 350t338.5 135q213 0 338 -135
t125 -350q0 -343 -346 -535v-225zM96 1571l-194 -330h170l344 330h-320z" />
    <glyph glyph-name="iotadieresistonos" unicode="&#x390;" horiz-adv-x="745" 
d="M471 0v1028h-242v-1028h242zM43 1593q-56 0 -94.5 -38t-38.5 -95t38.5 -95t94.5 -38q54 0 94.5 38.5t40.5 94.5t-40.5 94.5t-94.5 38.5zM346 1663l-166 -330h162l303 330h-299zM567 1464q0 -56 36.5 -94.5t92.5 -38.5q59 0 96 38t37 95q0 54 -37.5 93.5t-95.5 39.5
q-56 0 -92.5 -39.5t-36.5 -93.5z" />
    <glyph glyph-name="Alpha" unicode="&#x391;" horiz-adv-x="1447" 
d="M401 354h641l148 -354h270l-626 1444h-222l-624 -1444h262zM485 561l236 590l240 -590h-476z" />
    <glyph glyph-name="Beta" unicode="&#x392;" horiz-adv-x="1359" 
d="M147 1440v-1440h560q143 0 253 30.5t178 84.5t102 125.5t34 156.5q0 140 -81 232t-241 121q103 38 158 123t55 204q0 94 -39.5 165t-109.5 113.5t-158 63.5t-192 21h-519zM393 827v406h258q128 0 198.5 -50t70.5 -149q0 -94 -69.5 -150.5t-201.5 -56.5h-256zM393 209v426
h271q191 0 276.5 -54t85.5 -159q0 -213 -315 -213h-318z" />
    <glyph glyph-name="Gamma" unicode="&#x393;" horiz-adv-x="1175" 
d="M397 0v1221h758v219h-1008v-1440h250z" />
    <glyph glyph-name="Epsilon" unicode="&#x395;" horiz-adv-x="1304" 
d="M397 217v410h701v207h-701v389h764v217h-1014v-1440h1033v217h-783z" />
    <glyph glyph-name="Zeta" unicode="&#x396;" horiz-adv-x="1302" 
d="M348 215l916 1030v195h-1203v-215h877l-922 -1030v-195h1217v215h-885z" />
    <glyph glyph-name="Eta" unicode="&#x397;" horiz-adv-x="1482" 
d="M147 1442v-1442h250v618h690v-618h248v1442h-248v-598h-690v598h-250z" />
    <glyph glyph-name="Theta" unicode="&#x398;" horiz-adv-x="1701" 
d="M850 -29q211 0 385.5 100t273.5 273t99 381q0 202 -96.5 372t-270.5 270.5t-387 100.5q-160 0 -301.5 -59t-241.5 -160t-157.5 -239t-57.5 -291q0 -154 57 -292t156 -238.5t240 -159t301 -58.5zM852 1245q109 0 204 -43t159.5 -115t101.5 -168t37 -202q0 -142 -62.5 -261
t-178 -190t-259.5 -71q-221 0 -363.5 153t-142.5 377q0 143 63.5 261.5t179.5 188.5t261 70zM532 618h637v226h-637v-226z" />
    <glyph glyph-name="Iota" unicode="&#x399;" horiz-adv-x="542" 
d="M397 0v1440h-250v-1440h250z" />
    <glyph glyph-name="Kappa" unicode="&#x39a;" horiz-adv-x="1267" 
d="M397 842v598h-250v-1440h250v700l572 -700h305l-639 784l596 656h-307z" />
    <glyph glyph-name="Lambda" unicode="&#x39b;" horiz-adv-x="1415" 
d="M1157 0l-452 1151l-455 -1151h-262l608 1444h221l608 -1444h-268z" />
    <glyph glyph-name="Mu" unicode="&#x39c;" horiz-adv-x="1585" 
d="M295 1044l496 -747l495 750v-1047h246v1434h-250l-489 -760l-490 760h-254v-1434h246v1044z" />
    <glyph glyph-name="Nu" unicode="&#x39d;" horiz-adv-x="1548" 
d="M1157 397l-770 1037h-240v-1434h246v1051l776 -1051h232v1440h-244v-1043z" />
    <glyph glyph-name="Xi" unicode="&#x39e;" horiz-adv-x="1282" 
d="M143 1202h996v238h-996v-238zM125 0h1032v238h-1032v-238zM207 616h868v228h-868v-228z" />
    <glyph glyph-name="Omicron" unicode="&#x39f;" horiz-adv-x="1701" 
d="M850 -29q211 0 385.5 100t273.5 273t99 381q0 202 -96.5 372t-270.5 270.5t-387 100.5q-160 0 -301.5 -59t-241.5 -160t-157.5 -239t-57.5 -291q0 -154 57 -292t156 -238.5t240 -159t301 -58.5zM852 1245q109 0 204 -43t159.5 -115t101.5 -168t37 -202q0 -142 -63.5 -261
t-179.5 -190t-259 -71q-145 0 -261 71t-179.5 191.5t-63.5 267.5q0 143 63.5 261.5t179.5 188.5t261 70z" />
    <glyph glyph-name="Pi" unicode="&#x3a0;" horiz-adv-x="1447" 
d="M147 1442v-1442h250v1217h656v-1217h247v1444z" />
    <glyph glyph-name="Rho" unicode="&#x3a1;" horiz-adv-x="1261" 
d="M147 1440v-1444h250v522h250q159 0 284 53.5t199 161.5t74 256q0 212 -146 331.5t-394 119.5h-517zM397 725v502h246q152 0 231.5 -62.5t79.5 -187.5q0 -120 -81.5 -186t-229.5 -66h-246z" />
    <glyph glyph-name="Sigma" unicode="&#x3a3;" horiz-adv-x="1280" 
d="M41 1245l457 -522l-482 -528v-195h1190v215h-858l459 508l-442 502h827v215h-1151v-195z" />
    <glyph glyph-name="Tau" unicode="&#x3a4;" horiz-adv-x="1144" 
d="M696 0v1221h430v219h-1108v-219h431v-1221h247z" />
    <glyph glyph-name="Upsilon" unicode="&#x3a5;" horiz-adv-x="1333" 
d="M793 0v563l548 877h-276l-393 -647l-393 647h-287l551 -879v-561h250z" />
    <glyph glyph-name="Phi" unicode="&#x3a6;" horiz-adv-x="1837" 
d="M1042 1450h-241v-113q-44 0 -80 -8q-152 -14 -273 -67t-199 -134.5t-119.5 -185t-41.5 -221.5q0 -119 41 -222.5t119.5 -184t199.5 -133t273 -66.5q21 -5 80 -9v-116h241v116q60 4 82 9q198 21 341.5 106.5t214.5 214.5t71 289q0 116 -41.5 218.5t-119 183.5
t-197.5 134.5t-269 67.5q-36 8 -82 8v113zM1042 1118q218 -12 335.5 -120t117.5 -279q0 -172 -117.5 -278t-335.5 -119v796zM801 322q-217 13 -339 120t-122 281q0 172 122.5 279t338.5 116v-796z" />
    <glyph glyph-name="Chi" unicode="&#x3a7;" horiz-adv-x="1341" 
d="M326 1440h-289l489 -705l-514 -735h285l373 549l372 -549h285l-510 739l483 701h-278l-346 -514z" />
    <glyph glyph-name="Psi" unicode="&#x3a8;" horiz-adv-x="1726" 
d="M1346 905q0 -188 -91.5 -297.5t-269.5 -109.5v942h-248v-942q-177 0 -267.5 109.5t-90.5 297.5v535h-246v-529q0 -308 162 -473.5t442 -165.5v-272h248v272q286 0 446 165t160 476v527h-245v-535z" />
    <glyph glyph-name="uni03A9" unicode="&#x3a9;" horiz-adv-x="1775" 
d="M1006 0h641v217h-355q147 86 230.5 240t83.5 327q0 205 -94 362t-256 239.5t-365 82.5q-149 0 -281 -48t-230 -134.5t-155 -214.5t-57 -280q0 -173 84 -330.5t229 -243.5h-352v-217h647v225q-166 84 -259 220.5t-93 314.5q0 215 126.5 350t338.5 135q213 0 338 -135
t125 -350q0 -343 -346 -535v-225z" />
    <glyph glyph-name="Iotadieresis" unicode="&#x3aa;" horiz-adv-x="577" 
d="M412 0v1440h-250v-1440h250zM70 1898q-62 0 -102 -38t-40 -99q0 -62 40.5 -100.5t101.5 -38.5q60 0 101.5 38.5t41.5 100.5q0 60 -41.5 98.5t-101.5 38.5zM483 1898q-60 0 -98.5 -38.5t-38.5 -98.5q0 -62 39 -100.5t98 -38.5q63 0 102.5 38t39.5 101q0 61 -39.5 99
t-102.5 38z" />
    <glyph glyph-name="Upsilondieresis" unicode="&#x3ab;" horiz-adv-x="1333" 
d="M793 0v563l548 877h-276l-393 -647l-393 647h-287l551 -879v-561h250zM465 1898q-62 0 -101.5 -38t-39.5 -99q0 -62 40 -100.5t101 -38.5q60 0 101.5 38.5t41.5 100.5q0 60 -41.5 98.5t-101.5 38.5zM879 1898q-60 0 -99 -38.5t-39 -98.5q0 -62 39.5 -100.5t98.5 -38.5
q63 0 102 38t39 101q0 61 -39 99t-102 38z" />
    <glyph glyph-name="alphatonos" unicode="&#x3ac;" horiz-adv-x="1290" 
d="M307 514q0 143 84.5 238.5t222.5 95.5q135 0 224.5 -98.5t89.5 -233.5t-90 -234.5t-224 -99.5q-133 0 -220 98.5t-87 233.5zM1159 0v1028h-241v-166q-74 95 -160.5 143t-200.5 48q-147 0 -260 -75.5t-171 -197t-58 -266.5q0 -144 59 -266t172 -196.5t258 -74.5
q117 0 198 46.5t163 144.5zM688 1675l-194 -329h170l344 329h-320z" />
    <glyph glyph-name="epsilontonos" unicode="&#x3ad;" horiz-adv-x="991" 
d="M307 311q0 -35 22.5 -62t58 -40.5t70.5 -20t68 -6.5q126 0 277 72l47 -201q-168 -76 -342 -76q-182 0 -311 87t-129 223q0 91 61.5 157.5t173.5 92.5q-95 34 -143.5 97.5t-48.5 143.5q0 130 112.5 202.5t282.5 72.5q163 0 323 -80l-61 -201q-115 76 -248 76
q-75 0 -122.5 -27t-47.5 -76q0 -55 58 -85.5t157 -30.5h84v-185h-100q-121 0 -181.5 -38t-60.5 -95zM588 1675l-195 -329h170l344 329h-319z" />
    <glyph glyph-name="etatonos" unicode="&#x3ae;" horiz-adv-x="1187" 
d="M1059 655q0 182 -95.5 289t-269.5 107q-194 0 -323 -160l-246 137v-1028h242v582q0 68 22 119.5t58 80t75.5 42.5t81.5 14q88 0 150.5 -62.5t62.5 -193.5v-582h242v655zM711 1675l-195 -329h170l344 329h-319z" />
    <glyph glyph-name="iotatonos" unicode="&#x3af;" horiz-adv-x="485" 
d="M367 0v1028h-242v-1028h242zM360 1675l-194 -329h170l344 329h-320z" />
    <glyph glyph-name="upsilondieresistonos" unicode="&#x3b0;" horiz-adv-x="1161" 
d="M1047 1030h-242v-598q0 -105 -60 -175.5t-163 -70.5q-111 0 -167.5 68t-56.5 178v598h-241v-571q0 -237 118 -359.5t349 -122.5q227 0 345 126t118 362v565zM281 1593q-56 0 -95 -38t-39 -95t39 -95t95 -38q54 0 94.5 38.5t40.5 94.5t-40.5 94.5t-94.5 38.5zM584 1663
l-166 -330h162l303 330h-299zM805 1464q0 -56 36.5 -94.5t92.5 -38.5q59 0 96 38t37 95q0 54 -37.5 93.5t-95.5 39.5q-56 0 -92.5 -39.5t-36.5 -93.5z" />
    <glyph glyph-name="alpha" unicode="&#x3b1;" horiz-adv-x="1290" 
d="M307 514q0 143 84.5 238.5t222.5 95.5q135 0 224.5 -98.5t89.5 -233.5t-90 -234.5t-224 -99.5q-133 0 -220 98.5t-87 233.5zM1159 0v1028h-241v-166q-74 95 -160.5 143t-200.5 48q-147 0 -260 -75.5t-171 -197t-58 -266.5q0 -144 59 -266t172 -196.5t258 -74.5
q117 0 198 46.5t163 144.5z" />
    <glyph glyph-name="beta" unicode="&#x3b2;" horiz-adv-x="1267" 
d="M367 514q0 -143 99 -236.5t241 -93.5q109 0 180 71.5t71 180.5q0 116 -85 184.5t-259 77.5v152q126 17 195.5 79t69.5 158q0 102 -67.5 156.5t-172.5 54.5q-130 0 -201 -81.5t-71 -204.5v-498zM1200 416q0 -187 -133 -311.5t-319 -124.5q-119 0 -216.5 49.5t-164.5 134.5
v-529h-242v1379q0 104 33.5 193t96.5 156t162.5 105.5t223.5 38.5q217 0 347 -108t130 -279q0 -220 -246 -325q153 -20 240.5 -122t87.5 -257z" />
    <glyph glyph-name="gamma" unicode="&#x3b3;" horiz-adv-x="1056" 
d="M651 -365v381l416 1010h-254l-281 -750l-282 750h-258l418 -1014v-377h241z" />
    <glyph glyph-name="delta" unicode="&#x3b4;" horiz-adv-x="1243" 
d="M631 805q136 0 221.5 -86t85.5 -219q0 -126 -89 -222t-226 -96q-140 0 -228 95t-88 227q0 130 91 215.5t233 85.5zM535 1307h491v200h-852v-200l426 -322q-143 13 -265.5 -47.5t-194.5 -176.5t-72 -259q0 -145 72.5 -265.5t199.5 -190t281 -69.5q236 0 396.5 151.5
t160.5 375.5q0 84 -24 159.5t-69.5 140.5t-97 116.5t-121.5 107.5z" />
    <glyph glyph-name="epsilon" unicode="&#x3b5;" horiz-adv-x="933" 
d="M307 311q0 -35 22.5 -62t58 -40.5t70.5 -20t68 -6.5q126 0 277 72l47 -201q-168 -76 -342 -76q-182 0 -311 87t-129 223q0 91 61.5 157.5t173.5 92.5q-95 34 -143.5 97.5t-48.5 143.5q0 130 112.5 202.5t282.5 72.5q163 0 323 -80l-61 -201q-115 76 -248 76
q-75 0 -122.5 -27t-47.5 -76q0 -55 58 -85.5t157 -30.5h84v-185h-100q-121 0 -181.5 -38t-60.5 -95z" />
    <glyph glyph-name="zeta" unicode="&#x3b6;" horiz-adv-x="878" 
d="M879 1294q-251 -158 -411.5 -383.5t-160.5 -439.5q0 -120 65 -194.5t210 -104.5q288 -58 288 -295q0 -104 -53 -219l-217 20q41 80 41 156q0 56 -32.5 93.5t-123.5 56.5q-196 37 -306.5 154t-110.5 321q0 224 140 442.5t408 407.5h-454v198h717v-213z" />
    <glyph glyph-name="eta" unicode="&#x3b7;" horiz-adv-x="1173" 
d="M1059 655q0 182 -95.5 289t-269.5 107q-194 0 -323 -160l-246 137v-1028h242v582q0 68 22 119.5t58 80t75.5 42.5t81.5 14q88 0 150.5 -62.5t62.5 -193.5v-582h242v655z" />
    <glyph glyph-name="theta" unicode="&#x3b8;" horiz-adv-x="1241" 
d="M1167 752q0 108 -17.5 211t-58.5 203t-102 174.5t-155.5 120.5t-210.5 46q-115 0 -209 -44t-156 -117.5t-104.5 -174t-61 -210t-18.5 -228.5q0 -107 17 -209.5t57.5 -203t101.5 -175.5t156.5 -121.5t214.5 -46.5q103 0 187.5 33t143 91t101.5 132.5t67 163.5t35.5 176.5
t11.5 178.5zM322 864q4 70 21 140t50 141t92 115.5t136 44.5q75 0 134.5 -44t93 -114t52 -141t23.5 -142h-602zM924 668q-3 -59 -12.5 -119.5t-32.5 -128t-55.5 -119t-86 -85.5t-119.5 -34q-125 0 -206 133.5t-93 352.5h605z" />
    <glyph glyph-name="iota" unicode="&#x3b9;" horiz-adv-x="485" 
d="M367 0v1028h-242v-1028h242z" />
    <glyph glyph-name="kappa" unicode="&#x3ba;" horiz-adv-x="1036" 
d="M367 629v399h-242v-1028h242v487l378 -487h281l-442 569l426 459h-291z" />
    <glyph glyph-name="lambda" unicode="&#x3bb;" horiz-adv-x="1079" 
d="M416 1057l-412 -1057h260l275 784l295 -784h251l-485 1188q-18 44 -28 67t-30 62.5t-36 61.5t-41.5 50t-52 42.5t-62 25t-76.5 10.5q-94 0 -206 -41l53 -190q73 43 125 43q33 0 73 -57t64.5 -114.5t32.5 -88.5v-2z" />
    <glyph glyph-name="uni03BC" unicode="&#x3bc;" horiz-adv-x="1204" 
d="M375 -365h-242v1395h242v-584q0 -125 61.5 -190.5t147.5 -65.5q103 0 170 66.5t67 189.5v584h242v-1030l-244 135q-41 -72 -103 -113.5t-136 -41.5q-67 0 -121 33.5t-84 97.5v-476z" />
    <glyph glyph-name="nu" unicode="&#x3bd;" horiz-adv-x="1073" 
d="M649 -4l426 1030h-254l-280 -750l-283 750h-258l422 -1030h227z" />
    <glyph glyph-name="xi" unicode="&#x3be;" horiz-adv-x="878" 
d="M68 393q0 -86 32 -158t87.5 -122t126 -82.5t151.5 -46.5q44 -8 76.5 -23.5t48.5 -31t25 -37t10.5 -34.5t1.5 -30q0 -60 -39 -150l217 -20q49 114 49 221q0 235 -287 293q-127 23 -193.5 86.5t-66.5 163.5q0 138 108.5 196t309.5 58v198q-167 0 -245.5 51.5t-78.5 143.5
q0 47 18 84.5t51.5 62t74.5 41t94.5 25.5t103.5 12.5t109 3.5v209h-717v-200h240q-101 -34 -156 -102t-55 -156q0 -90 59 -160.5t164 -112.5q-142 -31 -230.5 -137t-88.5 -246z" />
    <glyph glyph-name="omicron" unicode="&#x3bf;" horiz-adv-x="1249" 
d="M621 -23q153 0 281.5 70t204 194.5t75.5 274.5q0 147 -72 270t-200.5 195t-286.5 72t-285.5 -72.5t-198.5 -196.5t-71 -272q0 -147 71 -269.5t198.5 -194t283.5 -71.5zM621 848q140 0 230.5 -98t90.5 -236q0 -136 -91 -234t-228 -98q-133 0 -224.5 96.5t-91.5 237.5
t87 236.5t227 95.5z" />
    <glyph glyph-name="pi" unicode="&#x3c0;" horiz-adv-x="1153" 
d="M1038 1028h-913v-1028h242v831h430v-831h241v1028z" />
    <glyph glyph-name="rho" unicode="&#x3c1;" horiz-adv-x="1277" 
d="M668 182q137 0 220 98t83 236t-87.5 233t-224.5 95q-132 0 -220.5 -95.5t-88.5 -242.5q0 -138 91 -231t227 -93zM117 516q0 237 155.5 387t393.5 150q155 0 279 -66.5t195.5 -189.5t71.5 -281q0 -108 -34.5 -205t-96.5 -170.5t-155.5 -117t-204.5 -43.5q-229 0 -363 180
v-525h-241v881z" />
    <glyph glyph-name="uni03C2" unicode="&#x3c2;" horiz-adv-x="1046" 
d="M817 -342q57 129 57 215q0 107 -66.5 175.5t-189.5 117.5q-63 24 -111 53.5t-90.5 72.5t-65.5 103t-23 135q0 128 73 222t197 94q59 0 121.5 -19.5t109.5 -52.5l78 174q-130 101 -317 101q-223 0 -361.5 -152t-138.5 -379q0 -195 98.5 -328.5t272.5 -197.5
q96 -34 142 -68t46 -86q0 -77 -51 -160z" />
    <glyph glyph-name="sigma" unicode="&#x3c3;" horiz-adv-x="1318" 
d="M997 827q91 -55 138 -143.5t47 -191.5q0 -108 -47.5 -205t-126 -164.5t-180 -106.5t-207.5 -39q-118 0 -221.5 41.5t-176 112t-114 166.5t-41.5 203q0 104 40.5 199t113.5 168.5t185 117t246 43.5h639v-201h-295zM623 182q137 0 228 92.5t91 227.5q0 143 -86 232t-229 89
t-231.5 -91.5t-88.5 -227.5q0 -129 92 -225.5t224 -96.5z" />
    <glyph glyph-name="tau" unicode="&#x3c4;" horiz-adv-x="821" 
d="M27 1028h768v-201h-269v-518q0 -127 103 -127q53 0 96 29v-199q-68 -35 -158 -35q-129 0 -203.5 78t-74.5 224v548h-262v201z" />
    <glyph glyph-name="upsilon" unicode="&#x3c5;" horiz-adv-x="1161" 
d="M1047 1030h-242v-598q0 -105 -60 -175.5t-163 -70.5q-111 0 -167.5 68t-56.5 178v598h-241v-571q0 -237 118 -359.5t349 -122.5q227 0 345 126t118 362v565z" />
    <glyph glyph-name="phi" unicode="&#x3c6;" horiz-adv-x="1574" 
d="M907 182q180 11 270.5 103.5t94.5 275.5q1 51 -8 100t-29.5 95.5t-61.5 75t-96 28.5q-167 0 -170 -309v-369zM668 -16q-169 13 -301.5 81.5t-212.5 197.5t-80 302q0 139 58.5 268t168.5 228h250q-242 -242 -242 -473q0 -178 93 -288.5t266 -119.5v293q0 69 3 124
t13.5 119t28 112t48 94.5t72.5 76.5t103 48t137 18q206 0 320 -133.5t114 -353.5q0 -255 -164.5 -416t-435.5 -176v-346h-239v344z" />
    <glyph glyph-name="chi" unicode="&#x3c7;" horiz-adv-x="1062" 
d="M772 1026l-237 -432l-236 432h-270l372 -657l-391 -734h258l260 506l256 -506h271l-396 742l373 649h-260z" />
    <glyph glyph-name="psi" unicode="&#x3c8;" horiz-adv-x="1564" 
d="M664 -365h241v345q91 0 170.5 17.5t149 56t119 96t78 142.5t28.5 191v547h-242v-549q0 -79 -26.5 -138t-71 -92t-96.5 -49t-109 -16v1313h-241v-1313q-306 0 -306 299v545h-241v-551q0 -243 149.5 -371t397.5 -128v-345z" />
    <glyph glyph-name="omega" unicode="&#x3c9;" horiz-adv-x="1660" 
d="M950 778h-243v-268q0 -57 -9 -112.5t-29.5 -109t-60 -86t-92.5 -32.5q-94 0 -151.5 100.5t-57.5 253.5q0 139 58 266t192 271h-256q-233 -236 -233 -541q0 -154 51 -276t152 -194.5t237 -72.5q215 0 323 179q47 -82 128 -130.5t192 -48.5q205 0 324.5 151.5t119.5 391.5
q0 311 -233 541h-258q135 -143 193.5 -271t58.5 -266q0 -157 -57.5 -255.5t-153.5 -98.5q-85 0 -140 82t-55 258v268z" />
    <glyph glyph-name="iotadieresis" unicode="&#x3ca;" horiz-adv-x="565" 
d="M387 0v1028h-242v-1028h242zM68 1546q-57 0 -95.5 -37t-38.5 -94q0 -58 37.5 -94.5t96.5 -36.5q55 0 95 37t40 94q0 56 -40 93.5t-95 37.5zM471 1546q-55 0 -92 -37.5t-37 -93.5q0 -58 37 -94.5t92 -36.5q59 0 96 36.5t37 94.5q0 57 -37.5 94t-95.5 37z" />
    <glyph glyph-name="upsilondieresis" unicode="&#x3cb;" horiz-adv-x="1161" 
d="M379 1546q-57 0 -95 -37t-38 -94q0 -58 37 -94.5t96 -36.5q55 0 95 37t40 94q0 56 -40 93.5t-95 37.5zM782 1546q-55 0 -92 -37.5t-37 -93.5q0 -58 37 -94.5t92 -36.5q59 0 96 36.5t37 94.5q0 57 -37.5 94t-95.5 37zM1047 1030h-242v-598q0 -105 -60 -175.5t-163 -70.5
q-111 0 -167.5 68t-56.5 178v598h-241v-571q0 -237 118 -359.5t349 -122.5q227 0 345 126t118 362v565z" />
    <glyph glyph-name="omicrontonos" unicode="&#x3cc;" horiz-adv-x="1249" 
d="M621 -23q153 0 281.5 70t204 194.5t75.5 274.5q0 147 -72 270t-200.5 195t-286.5 72t-285.5 -72.5t-198.5 -196.5t-71 -272q0 -147 71 -269.5t198.5 -194t283.5 -71.5zM621 848q140 0 230.5 -98t90.5 -236q0 -136 -91 -234t-228 -98q-133 0 -224.5 96.5t-91.5 237.5
t87 236.5t227 95.5zM758 1675l-195 -329h170l344 329h-319z" />
    <glyph glyph-name="upsilontonos" unicode="&#x3cd;" horiz-adv-x="1161" 
d="M1047 1030h-242v-598q0 -105 -60 -175.5t-163 -70.5q-111 0 -167.5 68t-56.5 178v598h-241v-571q0 -237 118 -359.5t349 -122.5q227 0 345 126t118 362v565zM680 1675l-195 -329h170l344 329h-319z" />
    <glyph glyph-name="omegatonos" unicode="&#x3ce;" horiz-adv-x="1660" 
d="M950 778h-243v-268q0 -57 -9 -112.5t-29.5 -109t-60 -86t-92.5 -32.5q-94 0 -151.5 100.5t-57.5 253.5q0 139 58 266t192 271h-256q-233 -236 -233 -541q0 -154 51 -276t152 -194.5t237 -72.5q215 0 323 179q47 -82 128 -130.5t192 -48.5q205 0 324.5 151.5t119.5 391.5
q0 311 -233 541h-258q135 -143 193.5 -271t58.5 -266q0 -157 -57.5 -255.5t-153.5 -98.5q-85 0 -140 82t-55 258v268zM934 1675l-195 -329h170l344 329h-319z" />
    <glyph glyph-name="uni03CF" unicode="&#x3cf;" horiz-adv-x="1267" 
d="M207 -119q99 -60 225 -101.5t227 -41.5q144 0 250.5 64.5t106.5 138.5l-619 759v-700h-250v1440h250v-598l527 598h307l-596 -656l639 -784q0 -119 -81 -222.5t-223.5 -166t-310.5 -62.5q-213 0 -452 107v225z" />
    <glyph glyph-name="uni03D7" unicode="&#x3d7;" horiz-adv-x="1036" 
d="M367 487v-487h-242v1028h242v-399l352 399h291l-426 -459l442 -569q0 -178 -145.5 -294t-358.5 -116q-97 0 -183.5 23t-188.5 70v225q80 -57 178.5 -93t195.5 -36q107 0 180.5 50t73.5 126z" />
    <glyph glyph-name="Wgrave" unicode="&#x1e80;" horiz-adv-x="2095" 
d="M610 373l-342 1067h-264l481 -1444h230l329 1069l342 -1069h226l479 1444h-258l-336 -1067l-334 1069h-225zM719 1843l274 -264h178l-202 330z" />
    <glyph glyph-name="wgrave" unicode="&#x1e81;" horiz-adv-x="1558" 
d="M238 1028h-244l338 -1032h217l227 731l228 -731h223l338 1032h-244l-213 -709l-215 711h-223l-217 -713zM422 1526l274 -264h178l-202 329z" />
    <glyph glyph-name="Wacute" unicode="&#x1e82;" horiz-adv-x="2095" 
d="M610 373l-342 1067h-264l481 -1444h230l329 1069l342 -1069h226l479 1444h-258l-336 -1067l-334 1069h-225zM1161 1909l-194 -330h172l276 264z" />
    <glyph glyph-name="wacute" unicode="&#x1e83;" horiz-adv-x="1558" 
d="M238 1028h-244l338 -1032h217l227 731l228 -731h223l338 1032h-244l-213 -709l-215 711h-223l-217 -713zM893 1571l-195 -330h172l277 264z" />
    <glyph glyph-name="Wdieresis" unicode="&#x1e84;" horiz-adv-x="2095" 
d="M610 373l-342 1067h-264l481 -1444h230l329 1069l342 -1069h226l479 1444h-258l-336 -1067l-334 1069h-225zM838 1898q-62 0 -102 -38t-40 -99q0 -62 40.5 -100.5t101.5 -38.5q60 0 101.5 38.5t41.5 100.5q0 60 -41.5 98.5t-101.5 38.5zM1251 1898q-60 0 -98.5 -38.5
t-38.5 -98.5q0 -62 39 -100.5t98 -38.5q63 0 102.5 38t39.5 101q0 61 -39.5 99t-102.5 38z" />
    <glyph glyph-name="wdieresis" unicode="&#x1e85;" horiz-adv-x="1558" 
d="M238 1028h-244l338 -1032h217l227 731l228 -731h223l338 1032h-244l-213 -709l-215 711h-223l-217 -713zM575 1546q-57 0 -95 -37t-38 -94q0 -58 37 -94.5t96 -36.5q56 0 96 37t40 94q0 56 -40.5 93.5t-95.5 37.5zM979 1546q-55 0 -92 -37.5t-37 -93.5q0 -58 37 -94.5
t92 -36.5q59 0 96 36.5t37 94.5q0 57 -37.5 94t-95.5 37z" />
    <glyph glyph-name="uni1E9E" unicode="&#x1e9e;" horiz-adv-x="1214" 
d="M571 698q336 -23 336 -262q0 -260 -413 -260v-182q114 -3 211.5 11t179.5 48t140 86.5t90 128t32 170.5q0 160 -102.5 263t-274.5 120l289 283q0 197 -137 313.5t-359 116.5q-134 0 -239 -39t-170.5 -108t-99.5 -161t-34 -202v-1024h238v1018q0 135 77.5 220t219.5 85
q119 0 192.5 -55.5t73.5 -153.5l-250 -262v-154z" />
    <glyph glyph-name="Ygrave" unicode="&#x1ef2;" horiz-adv-x="1333" 
d="M793 0v563l548 877h-276l-393 -647l-393 647h-287l551 -879v-561h250zM328 1925l274 -264h178l-202 330z" />
    <glyph glyph-name="ygrave" unicode="&#x1ef3;" horiz-adv-x="1062" 
d="M-8 1026l450 -1030l-133 -361h215l547 1391h-250l-274 -760l-299 760h-256zM190 1526l275 -264h178l-203 329z" />
    <glyph glyph-name="endash" unicode="&#x2013;" horiz-adv-x="897" 
d="M901 449v213h-905v-213h905z" />
    <glyph glyph-name="emdash" unicode="&#x2014;" horiz-adv-x="1486" 
d="M1489 467v213h-1491v-213h1491z" />
    <glyph glyph-name="uni2015" unicode="&#x2015;" horiz-adv-x="1617" 
d="M1567 467v213h-1491v-213h1491z" />
    <glyph glyph-name="quoteleft" unicode="&#x2018;" horiz-adv-x="565" 
d="M276 1530l-172 -586h246l107 586h-181z" />
    <glyph glyph-name="quoteright" unicode="&#x2019;" horiz-adv-x="565" 
d="M287 944l174 586h-246l-102 -586h174z" />
    <glyph glyph-name="quotesinglbase" unicode="&#x201a;" horiz-adv-x="612" 
d="M303 -324l174 582h-248l-100 -582h174z" />
    <glyph glyph-name="quotereversed" unicode="&#x201b;" horiz-adv-x="565" 
d="M352 1530h-248l175 -586h178z" />
    <glyph glyph-name="quotedblleft" unicode="&#x201c;" horiz-adv-x="976" 
d="M688 1501l-174 -581h248l102 581h-176zM274 1501l-170 -581h246l103 581h-179z" />
    <glyph glyph-name="quotedblright" unicode="&#x201d;" horiz-adv-x="976" 
d="M287 920l174 581h-246l-102 -581h174zM700 920l172 581h-245l-103 -581h176z" />
    <glyph glyph-name="quotedblbase" unicode="&#x201e;" horiz-adv-x="1021" 
d="M303 -334l174 582h-246l-102 -582h174zM717 -334l172 582h-246l-102 -582h176z" />
    <glyph glyph-name="dagger" unicode="&#x2020;" horiz-adv-x="950" 
d="M541 1143l20 332h-174l16 -332l-278 16v-158l283 17l-17 -864h166l-20 864l286 -17v158z" />
    <glyph glyph-name="daggerdbl" unicode="&#x2021;" horiz-adv-x="944" 
d="M401 299l-12 -309h168l-18 309l278 -14v157l-278 -14q14 342 0 684l278 -16v157l-278 -14l18 326h-168l12 -326l-276 14v-157l278 16q-7 -342 0 -684l-278 14v-157z" />
    <glyph glyph-name="bullet" unicode="&#x2022;" horiz-adv-x="950" 
d="M475 1061q-131 0 -224 -94.5t-93 -223.5q0 -130 93 -222.5t224 -92.5t223.5 92.5t92.5 222.5q0 132 -92.5 225t-223.5 93z" />
    <glyph glyph-name="ellipsis" unicode="&#x2026;" horiz-adv-x="1720" 
d="M317 291q-70 0 -114.5 -43t-44.5 -113t45.5 -114t113.5 -44q66 0 112 44.5t46 113.5q0 68 -46 112t-112 44zM860 291q-70 0 -115 -43t-45 -113t46 -114t114 -44q66 0 112 44.5t46 113.5q0 68 -46 112t-112 44zM1407 291q-70 0 -115 -43t-45 -113t46 -114t114 -44
q66 0 112 44.5t46 113.5q0 68 -46 112t-112 44z" />
    <glyph glyph-name="perthousand" unicode="&#x2030;" horiz-adv-x="2471" 
d="M430 717q152 0 247 109t95 261q0 156 -95.5 261.5t-244.5 105.5q-150 0 -248 -108t-98 -261q0 -155 95.5 -261.5t248.5 -106.5zM426 1298q85 0 128.5 -61.5t43.5 -151.5q0 -93 -46 -154t-120 -61t-124 62t-50 155q0 95 45.5 153t122.5 58zM1266 -23q153 0 247.5 108.5
t94.5 262.5q0 156 -95.5 261.5t-244.5 105.5q-151 0 -247.5 -106t-96.5 -263q0 -155 96 -262t246 -107zM1266 557q85 0 126.5 -63.5t41.5 -153.5q0 -94 -44 -149.5t-122 -55.5q-75 0 -123.5 59t-48.5 154q0 94 47 151.5t123 57.5zM2046 -23q151 0 245.5 110t94.5 261
q0 156 -95.5 261.5t-242.5 105.5q-151 0 -248.5 -106t-97.5 -263q0 -155 97 -262t247 -107zM2046 557q84 0 126 -64t42 -153q0 -94 -44 -149.5t-122 -55.5q-75 0 -124.5 59t-49.5 154q0 94 47 151.5t125 57.5zM1272 1436l-1032 -1436h209l1028 1436h-205z" />
    <glyph glyph-name="minute" unicode="&#x2032;" horiz-adv-x="532" 
d="M168 1446l-51 -608h145l156 532l16 74v2h-266z" />
    <glyph glyph-name="second" unicode="&#x2033;" horiz-adv-x="948" 
d="M98 838h142l155 532l17 74v2h-265zM567 1446l-49 -608h141l156 532l16 74v2h-264z" />
    <glyph glyph-name="guilsinglleft" unicode="&#x2039;" horiz-adv-x="704" 
d="M600 147l-264 363l266 369l-190 73l-326 -448l326 -441z" />
    <glyph glyph-name="guilsinglright" unicode="&#x203a;" horiz-adv-x="706" 
d="M369 510l-260 -363l186 -84l323 441l-325 448l-191 -73z" />
    <glyph glyph-name="exclamdbl" unicode="&#x203c;" horiz-adv-x="1112" 
d="M457 1440h-281l4 -172l66 -836h143l62 836zM317 272q-64 0 -109.5 -41t-45.5 -104q0 -69 44 -109.5t111 -40.5q68 0 111 40.5t43 109.5q0 63 -44 104t-110 41zM938 1440h-281l5 -172l65 -836h143l62 836zM799 272q-65 0 -110.5 -41t-45.5 -104q0 -69 44.5 -109.5
t111.5 -40.5t110 40.5t43 109.5q0 63 -43.5 104t-109.5 41z" />
    <glyph glyph-name="fraction" unicode="&#x2044;" horiz-adv-x="516" 
d="M-96 -131l925 1737h-213l-921 -1737h209z" />
    <glyph glyph-name="uni2070" unicode="&#x2070;" horiz-adv-x="710" 
d="M162 1024q0 52 9 102.5t29 101t61 82t97 31.5q95 0 147 -87t52 -236q0 -143 -51.5 -231.5t-143.5 -88.5q-97 0 -148.5 87t-51.5 239zM715 1020q0 89 -20.5 168t-62 144t-111.5 103t-161 38q-166 0 -260 -125.5t-94 -327.5q0 -205 93 -330t259 -125t261.5 127.5
t95.5 327.5z" />
    <glyph glyph-name="uni2074" unicode="&#x2074;" horiz-adv-x="710" 
d="M199 872q37 59 112.5 174t91.5 142l3 2v-12v-306h-107h-100zM0 735q148 0 406 4l-5 -151h177v151q50 -4 69 -4l25 139l-94 -2v592h-158l-420 -628v-101z" />
    <glyph glyph-name="uni2075" unicode="&#x2075;" horiz-adv-x="710" 
d="M182 989q67 31 125 31q82 0 133.5 -43t51.5 -111q0 -74 -47 -117.5t-130 -43.5q-112 0 -209 94l-83 -97q66 -63 134 -93.5t160 -30.5q143 0 231.5 80t88.5 210q0 124 -84.5 197.5t-206.5 73.5q-55 0 -133 -33l20 215h367l6 125h-489l-33 -404z" />
    <glyph glyph-name="uni2076" unicode="&#x2076;" horiz-adv-x="710" 
d="M522 1450h-162l-192 -289q-73 -113 -102 -176.5t-29 -124.5q0 -133 90 -212t233 -79q133 0 222.5 81.5t89.5 209.5q0 120 -74 191t-190 71q-80 0 -142 -41zM358 690q-69 0 -120.5 45.5t-51.5 114.5t47 114.5t125 45.5q74 0 121 -44t47 -112q0 -72 -47 -118t-121 -46z" />
    <glyph glyph-name="uni2077" unicode="&#x2077;" horiz-adv-x="710" 
d="M322 586l405 741v123h-612v-129h452l-407 -735h162z" />
    <glyph glyph-name="uni2078" unicode="&#x2078;" horiz-adv-x="710" 
d="M535 1038q65 37 99 83t34 114q0 103 -83.5 170.5t-207.5 67.5q-125 0 -209 -66.5t-84 -169.5q0 -133 137 -197q-170 -74 -170 -219q0 -107 94 -180.5t232 -73.5q140 0 231.5 72t91.5 184q0 75 -44 130t-121 85zM377 1090q-60 0 -105 37.5t-45 95.5q0 57 42.5 94t107.5 37
q66 0 108.5 -36.5t42.5 -92.5q0 -58 -43.5 -96.5t-107.5 -38.5zM377 690q-71 0 -122.5 38t-51.5 106q0 62 48 102.5t126 40.5q76 0 126 -40t50 -103q0 -62 -48 -103t-128 -41z" />
    <glyph glyph-name="uni2079" unicode="&#x2079;" horiz-adv-x="710" 
d="M233 573h160l217 326q57 83 86 147.5t29 131.5q0 134 -91.5 215.5t-240.5 81.5q-134 0 -225.5 -83t-91.5 -214q0 -123 77 -198t195 -75q77 0 141 47zM399 1350q72 0 122 -45t50 -117q0 -69 -48.5 -115.5t-121.5 -46.5q-79 0 -126.5 45.5t-47.5 116.5q0 70 47.5 116
t124.5 46z" />
    <glyph glyph-name="uni207F" unicode="&#x207f;" horiz-adv-x="806" 
d="M741 1255q0 127 -64.5 202t-189.5 75q-135 0 -225 -111l-166 95v-715h166v405q0 91 50 134.5t114 43.5q61 0 105 -43.5t44 -134.5v-405h166v454z" />
    <glyph glyph-name="Euro" unicode="&#x20ac;" horiz-adv-x="1183" 
d="M317 760q2 74 19 144.5t50 135t78.5 112.5t109.5 76.5t139 28.5q86 0 148.5 -32.5t119.5 -100.5l170 144q-82 102 -185.5 154.5t-252.5 52.5q-129 0 -235.5 -42.5t-179.5 -115.5t-123.5 -171t-73.5 -207.5t-23 -227.5q0 -151 40.5 -284.5t115.5 -236.5t193.5 -163
t264.5 -60q294 0 461 213l-168 142q-112 -138 -280 -138q-87 0 -157.5 35.5t-114.5 96t-70 132.5t-33 152h448v160h-461z" />
    <glyph glyph-name="uni2113" unicode="&#x2113;" horiz-adv-x="1064" 
d="M598 -29q150 0 295 125l-80 123q-116 -90 -192 -90q-53 0 -79 37t-26 104v281q156 171 242 324.5t86 302.5q0 125 -67 205.5t-175 80.5q-73 0 -128 -32.5t-85.5 -87t-45.5 -117.5t-15 -133v-500l-176 -172l84 -111l92 88v-123q0 -154 71.5 -229.5t198.5 -75.5zM602 1317
q27 0 45 -27.5t23.5 -60t5.5 -68.5q0 -89 -40 -196t-120 -211v362q0 102 23.5 151.5t62.5 49.5z" />
    <glyph glyph-name="trademark" unicode="&#x2122;" horiz-adv-x="1806" 
d="M717 1282v164h-707v-164h266v-684h177v684h264zM1761 598v848h-225l-236 -547l-231 547h-231v-848h178v549l227 -549h113l227 549v-549h178z" />
    <glyph glyph-name="uni2126" unicode="&#x2126;" horiz-adv-x="1652" 
d="M930 0h641v217h-354q147 86 230 240t83 327q0 205 -94 362t-256 239.5t-365 82.5q-149 0 -281 -48t-230 -134.5t-155 -214.5t-57 -280q0 -173 84.5 -330.5t229.5 -243.5h-353v-217h647v225q-166 84 -259 220.5t-93 314.5q0 215 126.5 350t338.5 135q213 0 338 -135
t125 -350q0 -343 -346 -535v-225z" />
    <glyph glyph-name="estimated" unicode="&#x212e;" horiz-adv-x="1380" 
d="M1227 508q0 266 -149 432t-388 166q-159 0 -282.5 -75.5t-188.5 -204t-65 -287.5q0 -160 65 -290t188.5 -207t282.5 -77q160 0 274 72t216 235l-125 74q-77 -134 -163.5 -192t-201.5 -58q-144 0 -256 101v311h793zM946 639h-512v244q104 98 254 98q149 0 258 -100v-242z
" />
    <glyph glyph-name="oneeighth" unicode="&#x215b;" horiz-adv-x="1560" 
d="M301 -131l926 1737h-213l-922 -1737h209zM154 586h180v872h-135q-21 -18 -49 -37.5t-63 -43t-54 -36.5v-161q62 27 121 77v-671zM1309 449q65 37 99 82.5t34 113.5q0 103 -83.5 170.5t-207.5 67.5q-125 0 -209 -66.5t-84 -169.5q0 -132 137 -196q-170 -74 -170 -220
q0 -107 94 -180.5t232 -73.5q140 0 232 72t92 184q0 75 -44.5 130.5t-121.5 85.5zM1151 500q-60 0 -105 37.5t-45 95.5q0 57 42.5 94t107.5 37q66 0 109 -36.5t43 -92.5q0 -58 -44 -96.5t-108 -38.5zM1151 100q-71 0 -122.5 38t-51.5 106q0 62 48 102.5t126 40.5
q76 0 126 -40t50 -103q0 -62 -48 -103t-128 -41z" />
    <glyph glyph-name="threeeighths" unicode="&#x215c;" horiz-adv-x="1818" 
d="M553 -131l926 1737h-213l-922 -1737h209zM1565 449q65 37 99 82.5t34 113.5q0 103 -83.5 170.5t-207.5 67.5q-125 0 -209 -66.5t-84 -169.5q0 -132 137 -196q-170 -74 -170 -220q0 -107 94 -180.5t232 -73.5q140 0 232 72t92 184q0 75 -44.5 130.5t-121.5 85.5zM1407 500
q-60 0 -105 37.5t-45 95.5q0 57 42.5 94t107.5 37q66 0 109 -36.5t43 -92.5q0 -58 -44 -96.5t-108 -38.5zM1407 100q-71 0 -122.5 38t-51.5 106q0 62 48 102.5t126 40.5q76 0 126 -40t50 -103q0 -62 -48 -103t-128 -41zM47 815q29 -246 299 -246q144 0 240 77.5t96 205.5
q0 79 -40.5 129.5t-135.5 83.5q133 65 133 192q0 104 -79.5 164t-199.5 60q-117 0 -190 -58.5t-90 -181.5h170q15 54 40.5 77t69.5 23q47 0 77 -27.5t30 -70.5q0 -57 -43 -91t-109 -34h-32v-127q5 0 23.5 1t23.5 1q93 0 135.5 -39t42.5 -94q0 -65 -43.5 -108t-110.5 -43
q-57 0 -88 24.5t-41 81.5h-178z" />
    <glyph glyph-name="fiveeighths" unicode="&#x215d;" horiz-adv-x="1783" 
d="M528 -131l926 1737h-213l-922 -1737h209zM219 1001q67 31 125 31q82 0 133 -42.5t51 -110.5q0 -74 -47 -118t-129 -44q-112 0 -209 94l-84 -96q66 -63 134.5 -94t160.5 -31q143 0 231.5 80.5t88.5 210.5q0 124 -84.5 197t-206.5 73q-55 0 -133 -33l20 215h367l6 125h-489
l-33 -403zM1530 449q65 37 99 82.5t34 113.5q0 103 -83.5 170.5t-207.5 67.5q-125 0 -209 -66.5t-84 -169.5q0 -132 138 -196q-170 -74 -170 -220q0 -107 93.5 -180.5t231.5 -73.5q140 0 232 72t92 184q0 75 -44.5 130.5t-121.5 85.5zM1372 500q-59 0 -104 37.5t-45 95.5
q0 57 42 94t107 37q66 0 109 -36.5t43 -92.5q0 -58 -44 -96.5t-108 -38.5zM1372 100q-71 0 -122.5 38t-51.5 106q0 62 48 102.5t126 40.5q76 0 126 -40t50 -103q0 -62 -48 -103t-128 -41z" />
    <glyph glyph-name="seveneighths" unicode="&#x215e;" horiz-adv-x="1581" 
d="M295 -131l926 1737h-213l-922 -1737h209zM1329 449q65 37 99 82.5t34 113.5q0 103 -83.5 170.5t-207.5 67.5t-208 -66.5t-84 -169.5q0 -132 137 -196q-170 -74 -170 -220q0 -107 93.5 -180.5t231.5 -73.5q140 0 232 72t92 184q0 75 -44.5 130.5t-121.5 85.5zM1171 500
q-59 0 -104 37.5t-45 95.5q0 57 42 94t107 37q66 0 109 -36.5t43 -92.5q0 -58 -44 -96.5t-108 -38.5zM1171 100q-71 0 -122.5 38t-51.5 106q0 62 48 102.5t126 40.5q76 0 126.5 -40.5t50.5 -102.5t-48.5 -103t-128.5 -41zM248 598l405 741v123h-612v-129h453l-408 -735h162z
" />
    <glyph glyph-name="partialdiff" unicode="&#x2202;" horiz-adv-x="1058" 
d="M496 -23q84 0 153 26.5t117 70t84.5 106t58 128.5t35.5 144.5t18.5 146t4.5 140.5q0 84 -10.5 165.5t-32.5 166t-62 155.5t-94 127t-133 88t-174 32t-173.5 -34t-152.5 -110l107 -123q97 97 221 97q77 0 137 -35.5t94 -90.5t55.5 -129t28 -142.5t4.5 -139.5
q-128 125 -297 125q-125 0 -219 -62t-141 -162.5t-47 -222.5q0 -124 48.5 -229t145.5 -171.5t224 -66.5zM498 721q154 0 274 -156q-3 -54 -12 -108t-29.5 -113t-50 -103t-77 -73t-105.5 -29q-74 0 -129.5 46.5t-81 113.5t-25.5 141q0 117 63 199t173 82z" />
    <glyph glyph-name="uni2206" unicode="&#x2206;" horiz-adv-x="1511" 
d="M47 0h1419l-592 1454h-243zM1124 211h-743l369 969z" />
    <glyph glyph-name="product" unicode="&#x220f;" horiz-adv-x="1464" 
d="M1128 -539h191v2036h-1174v-2036h191v1860h792v-1860z" />
    <glyph glyph-name="summation" unicode="&#x2211;" horiz-adv-x="1214" 
d="M35 -535h1147v179h-903l622 850l-588 829h846v178h-1098v-145l613 -860l-639 -885v-146z" />
    <glyph glyph-name="minus" unicode="&#x2212;" horiz-adv-x="1296" 
d="M1178 633v176h-1057v-176h1057z" />
    <glyph glyph-name="radical" unicode="&#x221a;" horiz-adv-x="987" 
d="M647 -14l350 1704h-188l-287 -1416l-280 592l-250 -112l71 -154l91 43l315 -657h178z" />
    <glyph glyph-name="infinity" unicode="&#x221e;" horiz-adv-x="1468" 
d="M1110 408q134 0 217.5 90.5t83.5 222.5q0 137 -82 230t-213 93q-190 0 -381 -215q-204 213 -379 213q-131 0 -215 -93.5t-84 -227.5q0 -135 84.5 -224t218.5 -89q55 0 106.5 16t100.5 48.5t82.5 60.5t81.5 73q47 -43 82.5 -72t85.5 -61t103 -48.5t108 -16.5zM1106 870
q65 0 98 -40.5t33 -106.5q0 -65 -33 -103t-94 -38q-115 0 -258 135q6 5 29.5 27t34 31t33.5 27.5t38.5 27.5t36.5 20t41.5 15.5t40.5 4.5zM356 868q26 0 52 -7.5t45 -15.5t46 -27.5t39 -29t41.5 -35.5t36.5 -32q-146 -139 -254 -139q-63 0 -97 37.5t-34 103.5q0 63 33 104
t92 41z" />
    <glyph glyph-name="integral" unicode="&#x222b;" horiz-adv-x="706" 
d="M193 -471q247 0 247 496v1183q0 195 41 195q13 0 25.5 -9.5t21 -21.5t25 -21.5t37.5 -9.5q40 0 67 27t27 68q0 64 -56 95.5t-128 31.5q-54 0 -96 -20t-68.5 -56t-45 -78t-27 -94.5t-12 -95.5t-3.5 -91v-1234q0 -112 -8.5 -162.5t-34.5 -50.5q-18 0 -46 30.5t-55 30.5
q-38 0 -62 -25.5t-24 -64.5q0 -40 30.5 -69.5t69 -41.5t75.5 -12z" />
    <glyph glyph-name="approxequal" unicode="&#x2248;" horiz-adv-x="1298" 
d="M1049 1065q-24 -158 -140 -158q-62 0 -154.5 36.5t-190.5 73t-173 36.5q-68 0 -121.5 -28t-87 -77.5t-53.5 -105.5t-29 -123h148q12 72 49 116t104 44q45 0 111.5 -23t125.5 -50t134 -50t133 -23q70 0 125.5 28.5t89 77t52.5 105.5t24 121h-147zM1049 688
q-25 -160 -140 -160q-62 0 -154.5 36.5t-190.5 73t-173 36.5q-68 0 -121.5 -27.5t-87 -76t-53.5 -104.5t-29 -122h148q12 70 49 114t104 44q45 0 111.5 -23t125.5 -50t134 -50t133 -23q70 0 125.5 28.5t89 77t52.5 105.5t24 121h-147z" />
    <glyph glyph-name="notequal" unicode="&#x2260;" horiz-adv-x="1269" 
d="M588 444h573v172h-475l111 218h370v174h-278l110 206l-153 86l-154 -292h-565v-174h469l-109 -218h-366v-172h272l-110 -206l155 -84z" />
    <glyph glyph-name="lessequal" unicode="&#x2264;" horiz-adv-x="1296" 
d="M1149 1114v229l-993 -446v-215l993 -446v227l-752 328zM1178 2v176h-1057v-176h1057z" />
    <glyph glyph-name="greaterequal" unicode="&#x2265;" horiz-adv-x="1296" 
d="M176 1343v-231l752 -324l-752 -321v-231l991 444v219zM1178 2v176h-1057v-176h1057z" />
    <glyph glyph-name="lozenge" unicode="&#x25ca;" horiz-adv-x="970" 
d="M565 -72l348 799l-348 799h-164l-344 -799l344 -799h164zM483 1284l238 -555l-238 -561l-233 559z" />
    <glyph glyph-name="uni25CC" unicode="&#x25cc;" horiz-adv-x="1808" 
d="M920 1538q-38 0 -65.5 -25.5t-27.5 -62.5q0 -38 27 -64t66 -26q37 0 62.5 26t25.5 64q0 39 -25.5 63.5t-62.5 24.5zM1268 1442q-38 0 -65 -25t-27 -63t26.5 -63t65.5 -25q37 0 62.5 25t25.5 63t-25.5 63t-62.5 25zM1501 1176q-38 0 -63 -25.5t-25 -63.5q0 -39 25.5 -64.5
t62.5 -25.5q39 0 64.5 25.5t25.5 64.5q0 38 -26 63.5t-64 25.5zM1622 838q-37 0 -62.5 -25t-25.5 -63t25.5 -63t62.5 -25q38 0 64 25t26 63t-26 63t-64 25zM1526 473q-40 0 -65 -24t-25 -64q0 -38 26 -63t64 -25t64 25t26 63q0 40 -25.5 64t-64.5 24zM1257 221
q-38 0 -65 -25t-27 -63t26.5 -63t65.5 -25t65 25t26 63q0 39 -26 63.5t-65 24.5zM920 98q-39 0 -66 -24.5t-27 -63.5q0 -38 27 -63t66 -25q37 0 62.5 25t25.5 63q0 40 -25 64t-63 24zM539 199q-38 0 -65.5 -25.5t-27.5 -62.5q0 -38 27 -63t66 -25q37 0 62.5 25t25.5 63
t-25.5 63t-62.5 25zM254 463q-37 0 -63.5 -25t-26.5 -63q0 -39 26.5 -64.5t63.5 -25.5q36 0 62 25.5t26 64.5q0 38 -26 63t-62 25zM184 838q-38 0 -63 -25t-25 -63t25.5 -63t62.5 -25q38 0 64 25t26 63t-26 63t-64 25zM281 1186q-38 0 -65.5 -25.5t-27.5 -62.5
q0 -39 27 -65.5t66 -26.5q37 0 62.5 26.5t25.5 65.5q0 38 -25.5 63t-62.5 25zM532 1462q-39 0 -65.5 -24.5t-26.5 -63.5q0 -38 26.5 -63t65.5 -25q36 0 61 25t25 63q0 40 -25 64t-61 24z" />
    <glyph glyph-name="caroncommaaccent" horiz-adv-x="1024" 
d="M535 1167l112 389h-198l-68 -389h154z" />
    <glyph glyph-name="commaaccentrotate" horiz-adv-x="403" 
d="M199 1583l-160 -418h248l90 418h-178z" />
    <glyph glyph-name="f_t" horiz-adv-x="1296" 
d="M719 1483q-64 24 -164 24q-342 0 -342 -370v-111l-193 -197h193v-829h236v829h247v195h-270v104q0 95 44 144t126 49q59 0 123 -23v185zM768 281q0 -137 74 -219t207 -82q94 0 155 34v197q-52 -27 -100 -27q-96 0 -96 111v534h260v201h-260v342l-445 -543h205v-548z" />
    <glyph glyph-name="w_w_w" horiz-adv-x="4804" 
d="M274 1028h-243l338 -1032h217l227 731l227 -731h224l338 1032h-244l-213 -709l-215 711h-223l-218 -713zM1862 1028h-244l338 -1032h217l227 731l228 -731h223l338 1032h-244l-213 -709l-215 711h-223l-217 -713zM3451 1028h-244l338 -1032h217l228 731l227 -731h223
l338 1032h-244l-213 -709l-215 711h-223l-217 -713z" />
    <glyph glyph-name="t_t" horiz-adv-x="1329" 
d="M768 279q0 -137 74 -219.5t207 -82.5q92 0 155 35v197q-52 -27 -100 -27q-96 0 -96 111v534h260v201h-260v342l-445 -543h205v-548zM242 279q0 -138 73.5 -220t206.5 -82q93 0 156 35v197q-52 -27 -100 -27q-50 0 -73.5 30t-23.5 81v534h260v201h-260v342l-444 -543h205
v-548z" />
    <glyph glyph-name="Upsilondieresis_alt" horiz-adv-x="1380" 
d="M831 0v563l549 877h-276l-393 -647l-394 647h-286l551 -879v-561h249zM504 1898q-62 0 -102 -38t-40 -99q0 -62 40.5 -100.5t101.5 -38.5q60 0 101.5 38.5t41.5 100.5q0 60 -41.5 98.5t-101.5 38.5zM918 1898q-60 0 -99 -38.5t-39 -98.5q0 -62 39.5 -100.5t98.5 -38.5
q63 0 102 38t39 101q0 61 -39 99t-102 38z" />
    <glyph glyph-name=".null.1" horiz-adv-x="569" 
 />
    <glyph glyph-name="ogonek.1" horiz-adv-x="561" 
d="M455 -270q-65 -23 -99 -23q-46 0 -72 27.5t-26 70.5q0 64 100 187l-116 71q-85 -89 -122.5 -156t-37.5 -132q0 -94 67 -150.5t170 -56.5q82 0 164 39z" />
    <glyph glyph-name="ogonek.2" horiz-adv-x="561" 
d="M455 -270q-65 -23 -99 -23q-44 0 -71 26t-27 70q0 105 201 287l-269 -90q-108 -108 -108 -229q0 -93 66.5 -148t170.5 -55q82 0 164 39z" />
    <glyph glyph-name="periodcentered.loclCAT" horiz-adv-x="585" 
d="M317 895q-69 0 -114 -43.5t-45 -112.5q0 -70 45.5 -114.5t113.5 -44.5q66 0 112 45t46 114q0 68 -46 112t-112 44z" />
    <glyph glyph-name="i.loclTRK" horiz-adv-x="518" 
d="M350 0v1028h-241v-1028h241zM229 1485q-67 0 -110 -40.5t-43 -107.5q0 -64 44.5 -105.5t108.5 -41.5q68 0 112 41.5t44 105.5q0 68 -43.5 108t-112.5 40z" />
    <glyph glyph-name="periodcentered.loclCAT.case" horiz-adv-x="585" 
d="M317 895q-69 0 -114 -43.5t-45 -112.5q0 -70 45.5 -114.5t113.5 -44.5q66 0 112 45t46 114q0 68 -46 112t-112 44z" />
    <glyph glyph-name="uni004A0301" horiz-adv-x="827" 
d="M0 57q119 -80 254 -80q208 0 323 126.5t115 357.5v979h-250v-983q0 -136 -49.5 -197t-144.5 -61q-65 0 -121.5 25.5t-126.5 74.5v-242zM641 1929l-195 -330h172l277 265z" />
    <glyph glyph-name="uni006A0301" horiz-adv-x="442" 
d="M352 1591l-194 -329h172l276 264zM-51 -362q69 -15 121 -15q82 0 138.5 23.5t88.5 70t45.5 106.5t13.5 142v1063h-239v-1089q0 -63 -22.5 -96t-76.5 -33q-32 0 -69 12v-184z" />
    <glyph glyph-name="tonos.case" horiz-adv-x="901" 
d="M395 1675l-194 -329h170l344 329h-320z" />
    <glyph glyph-name="uni030C.alt" 
d="M700 1565h-190l-143 -160l-146 160h-194l252 -324h170z" />
    <glyph glyph-name="Delta" horiz-adv-x="1495" 
d="M1149 207h-803l402 952zM-2 0h1501l-639 1444h-225z" />
    <glyph glyph-name="uni0394.1" horiz-adv-x="1511" 
d="M47 0h1419l-592 1454h-243zM381 211l369 969l374 -969h-743z" />
    <glyph glyph-name="uni03BC.001" horiz-adv-x="1204" 
d="M375 -365h-242v1395h242v-584q0 -125 61.5 -190.5t147.5 -65.5q103 0 170 66.5t67 189.5v584h242v-1030l-244 135q-41 -72 -103 -113.5t-136 -41.5q-67 0 -121 33.5t-84 97.5v-476z" />
    </font>
</defs>
</svg>
