<?xml version="1.0" standalone="no"?>
<!DOCTYPE svg PUBLIC "-//W3C//DTD SVG 1.1//EN" "http://www.w3.org/Graphics/SVG/1.1/DTD/svg11.dtd" >
<svg xmlns="http://www.w3.org/2000/svg" xmlns:xlink="http://www.w3.org/1999/xlink" version="1.1">
<metadata>
Created by FontForge 20201107 at Thu Dec 18 19:34:30 2025
 By 
Copyright 2022 The Geom Project Authors (https://github.com/ThanosPoulakidas/Geom)
</metadata>
<defs>
<font id="Geom-SemiBold" horiz-adv-x="0" >
  <font-face 
    font-family="Geom SemiBold"
    font-weight="600"
    font-stretch="normal"
    units-per-em="2048"
    panose-1="0 0 0 0 0 0 0 0 0 0"
    ascent="1638"
    descent="-410"
    x-height="1047"
    cap-height="1438"
    bbox="-369 -537 4880 2079"
    underline-thickness="102"
    underline-position="-255"
    unicode-range="U+000D-FB02"
  />
<missing-glyph horiz-adv-x="1140" 
d="M33 1475v-1475h1079v1475h-1079zM905 1358l-334 -498l-335 498h669zM973 258l-322 479l322 484v-963zM905 117h-669l335 501zM170 258v965l324 -486z" />
    <glyph glyph-name="fi" unicode="fi" horiz-adv-x="1323" 
d="M758 1483q-74 24 -183 24q-358 0 -358 -372v-91l-186 -223h186v-821h275v821h247v221h-280v84q0 84 45 128t121 44q65 0 133 -22v207zM1155 0v1049h-278v-1049h278zM1014 1513q-75 0 -122.5 -42.5t-47.5 -116.5q0 -72 49 -116t121 -44q75 0 123.5 44t48.5 116
q0 75 -48 117t-124 42z" />
    <glyph glyph-name="fl" unicode="fl" horiz-adv-x="1271" 
d="M758 1483q-74 24 -183 24q-358 0 -358 -372v-91l-186 -223h186v-821h275v821h247v221h-280v84q0 84 45 128t121 44q65 0 133 -22v207zM1137 0v1497h-279v-1497h279z" />
    <glyph glyph-name="f_f_i" unicode="ffi" horiz-adv-x="2070" 
d="M1901 0v1049h-279v-1049h279zM1759 1513q-75 0 -122.5 -42.5t-47.5 -116.5q0 -72 49 -116t121 -44q75 0 123.5 44t48.5 116q0 75 -48 117t-124 42zM1503 1483q-74 24 -182 24q-358 0 -358 -372v-91l-187 -223h187v-821h274v821h248v221h-281v84q0 84 45 128t121 44
q65 0 133 -22v207zM758 1483q-74 24 -183 24q-358 0 -358 -372v-91l-186 -223h186v-821h275v821h247v221h-280v84q0 84 45 128t121 44q65 0 133 -22v207z" />
    <glyph glyph-name="f_f_l" unicode="ffl" horiz-adv-x="1871" 
d="M758 1483q-74 24 -183 24q-358 0 -358 -372v-91l-186 -223h186v-821h275v821h247v221h-280v84q0 84 45 128t121 44q65 0 133 -22v207zM1421 1483q-73 24 -182 24q-358 0 -358 -372v-91l-187 -223h187v-821h274v821h248v221h-281v84q0 84 45 128t121 44q65 0 133 -22v207z
M1800 0v1497h-278v-1497h278z" />
    <glyph glyph-name="f_f" unicode="ff" horiz-adv-x="1486" 
d="M1421 1483q-73 24 -182 24q-358 0 -358 -372v-91l-187 -223h187v-821h274v821h248v221h-281v84q0 84 45 128t121 44q65 0 133 -22v207zM758 1483q-74 24 -183 24q-358 0 -358 -372v-91l-186 -223h186v-821h275v821h247v221h-280v84q0 84 45 128t121 44q65 0 133 -22v207z
" />
    <glyph glyph-name=".notdef" horiz-adv-x="1140" 
d="M33 1475v-1475h1079v1475h-1079zM905 1358l-334 -498l-335 498h669zM973 258l-322 479l322 484v-963zM905 117h-669l335 501zM170 258v965l324 -486z" />
    <glyph glyph-name=".null" 
 />
    <glyph glyph-name="nonmarkingreturn" horiz-adv-x="682" 
 />
    <glyph glyph-name="CR" unicode="&#xd;" horiz-adv-x="626" 
 />
    <glyph glyph-name="space" unicode=" " horiz-adv-x="573" 
 />
    <glyph glyph-name="exclam" unicode="!" horiz-adv-x="647" 
d="M485 1438h-321l4 -172l78 -826h157l78 826zM324 297q-71 0 -120.5 -44t-49.5 -116q0 -74 48.5 -118t121.5 -44q75 0 123.5 43.5t48.5 118.5q0 71 -49 115.5t-123 44.5z" />
    <glyph glyph-name="quotedbl" unicode="&#x22;" horiz-adv-x="1122" 
d="M164 803h158l180 581l12 58h-301zM659 1442l-49 -639h158l180 581l13 58h-302z" />
    <glyph glyph-name="numbersign" unicode="#" horiz-adv-x="1351" 
d="M244 338l-54 -338h224l53 336h297l-53 -336h223l53 336h242v239h-203l49 299h221v240h-182l51 326h-223l-51 -326h-297l53 326h-223l-51 -326h-248v-240h209l-49 -299h-228v-237h187zM551 879h305l-49 -308h-305z" />
    <glyph glyph-name="dollar" unicode="$" horiz-adv-x="1239" 
d="M545 -199h174v195q200 21 323 133.5t123 284.5q0 161 -108 259.5t-344 166.5v381q148 -19 235 -131l152 163q-145 167 -379 191v129h-174v-127q-202 -17 -322.5 -127.5t-120.5 -280.5q0 -165 110 -264.5t337 -165.5v-393q-98 9 -185 57t-153 123l-162 -176
q100 -105 227 -163t267 -58v-197zM715 571q39 -14 68 -28t58.5 -35.5t45.5 -52t16 -68.5q0 -68 -46.5 -113t-141.5 -57v354zM551 881q-38 14 -65.5 27.5t-56.5 35t-44.5 51.5t-15.5 68q0 67 45.5 110t136.5 52v-344z" />
    <glyph glyph-name="percent" unicode="%" horiz-adv-x="1783" 
d="M438 711q158 0 256.5 112t98.5 271q0 157 -98.5 265.5t-254.5 108.5t-256 -109t-100 -267q0 -161 99 -271t255 -110zM438 1294q80 0 121 -62.5t41 -146.5q0 -88 -43 -144t-117 -56q-72 0 -118 58t-46 149q0 89 44.5 145.5t117.5 56.5zM1348 -23q104 0 185.5 53t124 139.5
t42.5 188.5q0 159 -98 266t-254 107q-154 0 -254.5 -108.5t-100.5 -266.5q0 -159 98.5 -269t256.5 -110zM1346 559q79 0 120 -60t41 -143q0 -88 -43.5 -145t-115.5 -57q-69 0 -115.5 56t-46.5 146q0 91 43.5 147t116.5 56zM469 -20l1047 1464l-207 12l-1045 -1460z" />
    <glyph glyph-name="ampersand" unicode="&#x26;" horiz-adv-x="1466" 
d="M866 319q-123 -126 -252 -126q-99 0 -163 61t-64 152q0 152 178 239zM1182 774q-65 -136 -154 -270l-237 258q144 64 222.5 154t78.5 217q0 144 -108 242t-279 98q-180 0 -292 -102t-112 -255q0 -145 117 -303q-318 -129 -318 -420q0 -127 64 -222.5t173 -144.5t247 -49
q236 0 432 177l158 -164l274 57l-266 293q93 128 211 365zM551 1110q0 68 42 112t112 44q64 0 105.5 -40t41.5 -106q0 -68 -52.5 -124t-146.5 -95q-53 67 -77.5 114t-24.5 95z" />
    <glyph glyph-name="quotesingle" unicode="'" horiz-adv-x="684" 
d="M252 1442l-49 -639h162l180 581l12 58h-305z" />
    <glyph glyph-name="parenleft" unicode="(" horiz-adv-x="890" 
d="M803 -141q-189 157 -284 328.5t-95 398.5q0 220 92 392.5t289 334.5l-141 166q-252 -179 -383 -394.5t-131 -498.5q0 -558 512 -887z" />
    <glyph glyph-name="parenright" unicode=")" horiz-adv-x="892" 
d="M86 1313q193 -151 289 -324.5t96 -402.5q0 -218 -91.5 -391t-291.5 -336l145 -160q252 166 382 383t130 504q0 281 -129.5 497t-384.5 396z" />
    <glyph glyph-name="asterisk" unicode="*" horiz-adv-x="788" 
d="M133 1386l146 -196l-232 -80l45 -137l232 78v-252h145v250l229 -76l45 137l-227 78l141 201l-118 81l-144 -194l-141 194z" />
    <glyph glyph-name="plus" unicode="+" horiz-adv-x="1290" 
d="M772 838v387h-256v-387h-385v-248h385v-389h256v389h385v248h-385z" />
    <glyph glyph-name="comma" unicode="," horiz-adv-x="544" 
d="M248 -309l180 635h-276l-109 -635h205z" />
    <glyph glyph-name="hyphen" unicode="-" horiz-adv-x="720" 
d="M668 434v250h-613v-250h613z" />
    <glyph glyph-name="period" unicode="." horiz-adv-x="655" 
d="M328 324q-79 0 -128.5 -47.5t-49.5 -124.5q0 -80 50.5 -128.5t127.5 -48.5q74 0 125 48.5t51 128.5q0 77 -51 124.5t-125 47.5z" />
    <glyph glyph-name="slash" unicode="/" horiz-adv-x="1124" 
d="M236 -211l894 1831h-235l-893 -1831h234z" />
    <glyph glyph-name="zero" unicode="0" horiz-adv-x="1374" 
d="M373 725q0 52 6.5 104.5t20 109t38.5 104.5t58 86.5t82 60.5t108 22q146 0 232 -136t86 -357q0 -219 -84.5 -356.5t-229.5 -137.5q-147 0 -232 137t-85 363zM1292 721q0 116 -22.5 223t-71 202.5t-118 166.5t-170 112t-220.5 41q-141 0 -256 -57t-191 -157t-117.5 -236.5
t-41.5 -294.5q0 -217 69.5 -385.5t207.5 -266.5t325 -98q141 0 256.5 58t191.5 159.5t117 238t41 294.5z" />
    <glyph glyph-name="one" unicode="1" horiz-adv-x="761" 
d="M573 0v1448h-550v-266h270v-1182h280z" />
    <glyph glyph-name="two" unicode="2" horiz-adv-x="1208" 
d="M1069 1042q0 102 -41.5 184t-111.5 133t-157.5 78t-183.5 27q-220 0 -362 -121.5t-160 -353.5h277q9 105 75 165t166 60q101 0 155 -51.5t54 -130.5q0 -145 -196 -379l-549 -653h1057v240h-517l228 280q146 181 206 294.5t60 227.5z" />
    <glyph glyph-name="three" unicode="3" horiz-adv-x="1282" 
d="M1120 1233v219h-938v-238h586l-381 -383l41 -147q37 6 156 6q141 0 221 -58t80 -175q0 -106 -71.5 -171t-184.5 -65q-207 0 -330 213l-209 -162q85 -140 224 -219.5t325 -79.5q232 0 379 136.5t147 347.5q0 187 -115 296.5t-298 127.5z" />
    <glyph glyph-name="four" unicode="4" horiz-adv-x="1345" 
d="M1092 1452h-330l-725 -936l47 -221h731v-295h277v295h192v223h-192v934zM815 1143v-625h-471z" />
    <glyph glyph-name="five" unicode="5" horiz-adv-x="1224" 
d="M338 647q109 53 215 53q126 0 207.5 -64.5t81.5 -170.5q0 -111 -75 -178.5t-204 -67.5q-94 0 -178 39t-172 117l-164 -191q113 -105 235 -158t283 -53q250 0 402.5 135.5t152.5 362.5q0 142 -69 247t-179.5 156.5t-244.5 51.5q-94 0 -226 -47l31 319h625l8 240h-860
l-53 -695z" />
    <glyph glyph-name="six" unicode="6" horiz-adv-x="1269" 
d="M930 1446h-305l-308 -461q-131 -196 -181 -307.5t-50 -220.5q0 -219 155 -352.5t402 -133.5q152 0 274.5 61t193.5 174.5t71 258.5q0 205 -120.5 323.5t-313.5 118.5q-84 0 -136 -15.5t-110 -57.5zM639 199q-110 0 -187 71.5t-77 180.5q0 104 71.5 173.5t190.5 69.5
q118 0 190 -67.5t72 -173.5q0 -112 -71.5 -183t-188.5 -71z" />
    <glyph glyph-name="seven" unicode="7" horiz-adv-x="1097" 
d="M446 0l666 1212v226h-1042v-242h731l-668 -1196h313z" />
    <glyph glyph-name="eight" unicode="8" horiz-adv-x="1327" 
d="M948 750q213 112 213 319q0 171 -142.5 283t-354.5 112q-213 0 -354.5 -111.5t-141.5 -279.5q0 -218 211 -321q-262 -114 -262 -357q0 -182 155.5 -301t391.5 -119q239 0 393.5 117t154.5 305q0 121 -69 211t-195 142zM664 838q-94 0 -162 57.5t-68 148.5q0 85 65.5 142
t164.5 57q100 0 165.5 -57.5t65.5 -141.5q0 -88 -66 -147t-165 -59zM664 197q-109 0 -189 60t-80 163q0 94 76 154.5t193 60.5q118 0 194 -60.5t76 -154.5q0 -93 -74.5 -158t-195.5 -65z" />
    <glyph glyph-name="nine" unicode="9" horiz-adv-x="1265" 
d="M338 -2h303l356 541q96 146 139.5 246t43.5 202q0 219 -155.5 353.5t-408.5 134.5q-147 0 -267.5 -61t-191.5 -175t-71 -258q0 -203 121.5 -326t314.5 -123q75 0 127.5 18.5t112.5 61.5zM627 1245q109 0 186.5 -71.5t77.5 -178.5q0 -104 -73 -174.5t-189 -70.5
q-117 0 -189.5 70.5t-72.5 176.5t72 177t188 71z" />
    <glyph glyph-name="colon" unicode=":" horiz-adv-x="657" 
d="M328 326q-81 0 -129.5 -46.5t-48.5 -127.5t49.5 -129t128.5 -48q74 0 125 48.5t51 128.5q0 78 -51 126t-125 48zM328 1067q-81 0 -129.5 -45.5t-48.5 -126.5q0 -80 49.5 -127t128.5 -47q75 0 125.5 47.5t50.5 126.5t-50.5 125.5t-125.5 46.5z" />
    <glyph glyph-name="semicolon" unicode=";" horiz-adv-x="563" 
d="M272 1067q-78 0 -127 -47t-49 -125q0 -80 49.5 -127t126.5 -47q76 0 127.5 47.5t51.5 126.5t-51.5 125.5t-127.5 46.5zM248 -309l180 635h-276l-109 -635h205z" />
    <glyph glyph-name="less" unicode="&#x3c;" horiz-adv-x="1290" 
d="M1145 1010v264l-998 -436v-254l998 -437v263l-731 303z" />
    <glyph glyph-name="equal" unicode="=" horiz-adv-x="1249" 
d="M1120 1110h-989v-250h989v250zM1120 586h-989v-248h989v248z" />
    <glyph glyph-name="greater" unicode="&#x3e;" horiz-adv-x="1290" 
d="M147 1274v-266l730 -297l-730 -299v-262l998 434v254z" />
    <glyph glyph-name="question" unicode="?" horiz-adv-x="989" 
d="M92 1032q162 185 336 185q81 0 134.5 -44.5t53.5 -109.5q0 -53 -33.5 -100t-93.5 -97q-42 -37 -67.5 -64t-56 -69.5t-45.5 -94t-15 -112.5v-108h262v65q0 79 26 126t95 108q103 83 156 165t53 201q0 172 -121 274.5t-303 102.5q-120 0 -218.5 -43t-162.5 -125v-260z
M449 297q-72 0 -121 -44t-49 -116q0 -74 48.5 -117t121.5 -43q75 0 123.5 43t48.5 117q0 71 -49.5 115.5t-122.5 44.5z" />
    <glyph glyph-name="at" unicode="@" horiz-adv-x="1898" 
d="M702 586q0 109 70 192.5t176 83.5q84 0 134.5 -54t50.5 -144q0 -115 -72 -201t-174 -86q-85 0 -135 57t-50 152zM1483 -29q-117 -72 -235 -104.5t-263 -32.5q-176 0 -324.5 58.5t-249.5 161t-157.5 243t-56.5 303.5q0 162 57.5 305.5t158.5 246.5t243.5 162.5t306.5 59.5
q214 0 384 -91t263.5 -247.5t93.5 -347.5q0 -185 -65 -293t-166 -108q-70 0 -101.5 53t-23.5 135l84 537l-230 30l-22 -129q-98 156 -273 156q-120 0 -223 -68t-163 -183t-60 -249q0 -175 104 -285t262 -110q172 0 303 162q70 -166 273 -166q82 0 155 34.5t129 99
t88.5 166.5t32.5 228q0 157 -65.5 298.5t-177.5 244.5t-268.5 164t-331.5 61q-183 0 -345.5 -68.5t-278.5 -185t-183.5 -276.5t-67.5 -338t67 -337t183 -274t281.5 -182t353.5 -67q299 0 553 166z" />
    <glyph glyph-name="A" unicode="A" horiz-adv-x="1478" 
d="M428 330h619l137 -330h309l-623 1444h-262l-622 -1444h303zM518 561l219 545l219 -545h-438z" />
    <glyph glyph-name="B" unicode="B" horiz-adv-x="1388" 
d="M141 1438v-1438h602q276 0 420 109t144 288q0 141 -80 231.5t-234 121.5q103 40 159 124t56 203q0 121 -67.5 204t-176.5 120t-251 37h-572zM422 836v368h258q117 0 180.5 -45.5t63.5 -134.5q0 -87 -63.5 -137.5t-184.5 -50.5h-254zM422 236v387h278q320 0 320 -193
q0 -194 -285 -194h-313z" />
    <glyph glyph-name="C" unicode="C" horiz-adv-x="1402" 
d="M1300 432q-112 -99 -215.5 -150t-230.5 -51q-140 0 -248 66t-164.5 177t-56.5 247q0 134 57 244.5t165 176.5t247 66q258 0 426 -182v301q-190 139 -438 139q-160 0 -300 -58.5t-239 -158t-156 -237.5t-57 -293q0 -209 98 -381t267.5 -269.5t373.5 -97.5
q140 0 252.5 41.5t218.5 122.5v297z" />
    <glyph glyph-name="D" unicode="D" horiz-adv-x="1525" 
d="M141 1438v-1438h498q180 0 330 54.5t251.5 150.5t157.5 229t56 289q0 321 -216.5 518t-572.5 197h-504zM428 254v930h264q135 0 238.5 -64.5t156 -169.5t52.5 -231q0 -212 -132.5 -338.5t-363.5 -126.5h-215z" />
    <glyph glyph-name="E" unicode="E" horiz-adv-x="1325" 
d="M426 248v364h698v234h-698v346h764v246h-1049v-1438h1065v248h-780z" />
    <glyph glyph-name="F" unicode="F" horiz-adv-x="1277" 
d="M428 -2v580h688v241h-688v369h756v250h-1043v-1440h287z" />
    <glyph glyph-name="G" unicode="G" horiz-adv-x="1628" 
d="M1268 602q0 -118 -59.5 -207t-152.5 -132.5t-204 -43.5q-199 0 -335 143t-136 357q0 132 67 245.5t183 180.5t254 67q242 0 411 -159v307q-176 106 -428 106q-216 0 -394.5 -99t-281 -270.5t-102.5 -377.5q0 -210 98 -382t269.5 -270t380.5 -98q156 0 283.5 50.5
t220.5 148t144.5 248.5t51.5 344v67h-629v-225h359z" />
    <glyph glyph-name="H" unicode="H" horiz-adv-x="1499" 
d="M141 1440v-1440h285v600h647v-600h285v1440h-285v-584h-647v584h-285z" />
    <glyph glyph-name="I" unicode="I" horiz-adv-x="567" 
d="M428 0v1438h-287v-1438h287z" />
    <glyph glyph-name="J" unicode="J" horiz-adv-x="864" 
d="M0 63q133 -86 270 -86q218 0 341.5 132.5t123.5 367.5v961h-286v-963q0 -246 -191 -246q-48 0 -97.5 19t-80.5 39t-80 57v-281z" />
    <glyph glyph-name="K" unicode="K" horiz-adv-x="1320" 
d="M426 844v594h-285v-1438h285v715l555 -715h350l-620 793l581 645h-346z" />
    <glyph glyph-name="L" unicode="L" horiz-adv-x="1161" 
d="M428 252v1186h-287v-1438h987v252h-700z" />
    <glyph glyph-name="M" unicode="M" horiz-adv-x="1589" 
d="M328 989l465 -700l462 702v-991h285v1434h-293l-452 -709l-453 709h-295v-1434h281v989z" />
    <glyph glyph-name="N" unicode="N" horiz-adv-x="1560" 
d="M1139 467l-725 967h-273v-1434h281v985l737 -985h260v1438h-280v-971z" />
    <glyph glyph-name="O" unicode="O" horiz-adv-x="1699" 
d="M850 -29q211 0 386 99.5t275.5 272t100.5 380.5q0 122 -36.5 234.5t-105 204.5t-161 160.5t-210.5 106t-247 37.5q-161 0 -303.5 -59t-242.5 -159t-158 -238t-58 -291q0 -154 57.5 -292t157.5 -238.5t242 -159t303 -58.5zM850 1210q136 0 244.5 -68.5t166.5 -180.5
t58 -244t-59 -243t-166.5 -178t-241.5 -67q-135 0 -243 66.5t-167 179.5t-59 248q0 133 58.5 244t166 177t242.5 66z" />
    <glyph glyph-name="P" unicode="P" horiz-adv-x="1290" 
d="M141 1438v-1440h287v494h236q165 0 293 55t203 165.5t75 262.5q0 218 -149 340.5t-404 122.5h-541zM428 725v469h229q142 0 216.5 -58.5t74.5 -174.5q0 -111 -76.5 -173.5t-214.5 -62.5h-229z" />
    <glyph glyph-name="Q" unicode="Q" horiz-adv-x="1753" 
d="M1665 -233v317l-207 190q154 193 154 447q0 153 -57.5 290t-157.5 237t-242 159t-303 59t-303.5 -59t-242.5 -159.5t-158 -238.5t-58 -292q0 -153 57.5 -290.5t157.5 -238t242 -159t303 -58.5q122 0 235.5 35t198.5 96zM850 1210q136 0 244.5 -68.5t166.5 -180.5t58 -244
q0 -204 -132.5 -346t-334.5 -142q-203 0 -336 143.5t-133 348.5q0 134 58.5 245.5t166 177.5t242.5 66z" />
    <glyph glyph-name="R" unicode="R" horiz-adv-x="1310" 
d="M141 0h289v524h178l369 -524h334l-406 561q162 45 254 154.5t92 271.5q0 205 -145 328t-401 123h-564v-1438zM430 750v440h254q281 0 281 -217q0 -110 -80 -166.5t-217 -56.5h-238z" />
    <glyph glyph-name="S" unicode="S" horiz-adv-x="1222" 
d="M860 377q0 -47 -23.5 -80t-62.5 -49.5t-78 -23.5t-82 -7q-141 0 -290.5 61.5t-272.5 174.5v-273q221 -205 559 -205q108 0 203 24.5t170.5 73t119.5 129t44 183.5q0 105 -42 187t-109 132.5t-148 89.5t-162 68t-148 58t-109 69.5t-42 93.5q0 66 60.5 106t166.5 40
q115 0 237.5 -54t217.5 -151v287q-184 153 -469 153q-100 0 -189 -25.5t-159 -74t-111 -125.5t-41 -172q0 -99 42 -176t109 -125t148 -86.5t162 -68.5t148 -60.5t109 -74t42 -99.5z" />
    <glyph glyph-name="T" unicode="T" horiz-adv-x="1185" 
d="M735 0v1188h430v250h-1145v-250h431v-1188h284z" />
    <glyph glyph-name="U" unicode="U" horiz-adv-x="1495" 
d="M127 606q0 -307 161 -471t457 -164q298 0 459.5 163.5t161.5 477.5v828h-287v-834q0 -188 -85.5 -281.5t-245.5 -93.5q-164 0 -249 98t-85 285v826h-287v-834z" />
    <glyph glyph-name="V" unicode="V" horiz-adv-x="1413" 
d="M307 1438h-319l575 -1444h287l571 1444h-311l-401 -1086z" />
    <glyph glyph-name="W" unicode="W" horiz-adv-x="2123" 
d="M625 430l-320 1008h-303l481 -1444h258l320 1010l328 -1010h256l479 1444h-297l-314 -1008l-319 1012h-256z" />
    <glyph glyph-name="X" unicode="X" horiz-adv-x="1370" 
d="M362 1438h-329l485 -705l-508 -733h324l348 520l348 -520h328l-504 737l479 701h-319l-324 -486z" />
    <glyph glyph-name="Y" unicode="Y" horiz-adv-x="1366" 
d="M827 0v559l547 879h-317l-369 -615l-369 615h-329l551 -883v-555h286z" />
    <glyph glyph-name="Z" unicode="Z" horiz-adv-x="1296" 
d="M397 246l865 975v217h-1211v-244h830l-871 -975v-219h1229v246h-842z" />
    <glyph glyph-name="bracketleft" unicode="[" horiz-adv-x="856" 
d="M752 1260v200h-600v-1755h600v199h-346v1356h346z" />
    <glyph glyph-name="backslash" unicode="\" horiz-adv-x="1085" 
d="M2 1587l862 -1839l221 33l-864 1837z" />
    <glyph glyph-name="bracketright" unicode="]" horiz-adv-x="860" 
d="M106 -96v-199h603v1755h-603v-200h349v-1356h-349z" />
    <glyph glyph-name="asciicircum" unicode="^" horiz-adv-x="978" 
d="M387 1440l-332 -506h211l221 328l222 -328h215l-332 506h-205z" />
    <glyph glyph-name="underscore" unicode="_" horiz-adv-x="1191" 
d="M0 -129v-184h1192v184h-1192z" />
    <glyph glyph-name="grave" unicode="`" horiz-adv-x="518" 
d="M8 1505l281 -264h200l-204 342z" />
    <glyph glyph-name="a" unicode="a" horiz-adv-x="1187" 
d="M791 268q-92 -100 -238 -100q-91 0 -153 45.5t-62 126.5q0 82 68.5 128t166.5 46q114 0 218 -53v-193zM1063 635q0 211 -132.5 321.5t-369.5 110.5q-202 0 -414 -86v-219q164 84 359 84q285 0 285 -197v-31q-113 58 -293 58q-89 0 -164.5 -19.5t-136.5 -58.5t-96 -106.5
t-35 -155.5q0 -111 56.5 -194.5t145 -124t193.5 -40.5q193 0 325 129l277 -118v647z" />
    <glyph glyph-name="b" unicode="b" horiz-adv-x="1312" 
d="M410 139q134 -162 348 -162q99 0 188.5 39t156 108.5t105.5 173.5t39 226q0 123 -39 227t-105.5 174t-155 109t-187.5 39q-214 0 -359 -188v612h-278v-1507zM682 836q130 0 210.5 -91.5t80.5 -220.5q0 -137 -83 -225t-208 -88q-120 0 -203.5 89t-83.5 224t83.5 223.5
t203.5 88.5z" />
    <glyph glyph-name="c" unicode="c" horiz-adv-x="966" 
d="M872 1012q-95 57 -254 57q-160 0 -287.5 -75t-196 -199.5t-68.5 -272.5q0 -150 71 -275t196 -197.5t277 -72.5q142 0 273 64v274q-105 -102 -244 -102q-126 0 -212.5 92t-86.5 223t83 219.5t210 88.5q131 0 239 -105v281z" />
    <glyph glyph-name="d" unicode="d" horiz-adv-x="1312" 
d="M1188 -10v1507h-279v-602q-136 178 -356 178q-98 0 -186.5 -39t-155 -109t-106 -174t-39.5 -227q0 -124 39.5 -228t106 -173t155.5 -107.5t188 -38.5q114 0 194 45.5t152 129.5zM625 213q-127 0 -205 92t-78 219q0 138 82.5 226t200.5 88q120 0 205 -89.5t85 -222.5
q0 -136 -84 -224.5t-206 -88.5z" />
    <glyph glyph-name="e" unicode="e" horiz-adv-x="1169" 
d="M1006 330q-70 -68 -177 -107t-211 -39q-183 0 -260 148l748 186q-6 111 -43 210t-100 175.5t-159 121t-212 44.5q-152 0 -272.5 -72t-187 -197.5t-66.5 -279.5q0 -238 154.5 -393.5t391.5 -155.5q103 0 208 30t186 87v242zM334 535q0 81 25.5 151t84 118t140.5 48
q93 0 157 -54.5t88 -146.5l-493 -127z" />
    <glyph glyph-name="f" unicode="f" horiz-adv-x="739" 
d="M745 1483q-74 24 -182 24q-358 0 -358 -372v-91l-187 -223h187v-821h274v821h248v221h-281v84q0 84 45 128t121 44q65 0 133 -22v207z" />
    <glyph glyph-name="g" unicode="g" horiz-adv-x="1323" 
d="M637 293q-123 0 -203 78.5t-80 199.5q0 122 79 200.5t202 78.5q125 0 208 -79t83 -200q0 -120 -83 -199t-206 -79zM926 168q0 -322 -353 -322q-232 0 -440 148v-246q208 -113 442 -113q185 0 324 61t220 188.5t81 308.5v856l-291 -138q-70 78 -152 120t-196 42
q-99 0 -187.5 -36.5t-154.5 -101t-104.5 -160.5t-38.5 -208q0 -220 139.5 -358.5t345.5 -138.5q117 0 204 47.5t161 134.5v-84z" />
    <glyph glyph-name="h" unicode="h" horiz-adv-x="1206" 
d="M1094 674q0 183 -95 290t-270 107q-205 0 -338 -166v592h-270v-1497h278v586q0 109 65.5 169t160.5 60q91 0 140.5 -57.5t49.5 -171.5v-586h279v674z" />
    <glyph glyph-name="i" unicode="i" horiz-adv-x="532" 
d="M406 0v1049h-279v-1049h279zM264 1513q-75 0 -122.5 -42.5t-47.5 -116.5q0 -72 49 -116t121 -44q75 0 123.5 44t48.5 116q0 75 -48 117t-124 42z" />
    <glyph glyph-name="j" unicode="j" horiz-adv-x="661" 
d="M94 -352q73 -15 129 -15q168 0 242 88.5t74 264.5v1063h-279v-1080q0 -129 -94 -129q-25 0 -72 15v-207zM395 1513q-75 0 -123.5 -43t-48.5 -116q0 -72 48.5 -116t123.5 -44q71 0 121.5 44.5t50.5 115.5q0 74 -50 116.5t-122 42.5z" />
    <glyph glyph-name="k" unicode="k" horiz-adv-x="1081" 
d="M399 655v842h-278v-1497h278v510l365 -510h317l-432 592l418 457h-330z" />
    <glyph glyph-name="l" unicode="l" horiz-adv-x="522" 
d="M399 0v1497h-278v-1497h278z" />
    <glyph glyph-name="m" unicode="m" horiz-adv-x="1851" 
d="M1462 0h279v676q0 112 -39.5 200t-122.5 141.5t-197 53.5q-228 0 -356 -182q-41 93 -122 137.5t-185 44.5q-202 0 -322 -160l-276 136v-1047h278v588q0 105 55.5 171t149.5 66q92 0 139.5 -63.5t47.5 -173.5v-588h278v588q0 99 55 168t152 69q88 0 137 -59t49 -178v-588z
" />
    <glyph glyph-name="n" unicode="n" horiz-adv-x="1206" 
d="M1094 674q0 181 -96.5 289t-270.5 108q-191 0 -326 -164l-280 142v-1049h278v586q0 120 65.5 179.5t151.5 59.5q85 0 142 -59t57 -180v-586h279v674z" />
    <glyph glyph-name="o" unicode="o" horiz-adv-x="1273" 
d="M633 -25q156 0 288 71.5t209.5 198.5t77.5 281q0 150 -73 275t-204.5 198.5t-293.5 73.5t-293.5 -74.5t-204.5 -200.5t-73 -276t72.5 -275t203 -198.5t291.5 -73.5zM633 838q131 0 216 -92.5t85 -221.5t-84.5 -220t-212.5 -91q-127 0 -212 90t-85 223q0 132 81 222
t212 90z" />
    <glyph glyph-name="p" unicode="p" horiz-adv-x="1312" 
d="M401 154q140 -177 359 -177q97 0 185 39t155 109t107 174t40 227q0 122 -39.5 226t-106 173.5t-155 108.5t-186.5 39q-115 0 -195.5 -46t-152.5 -130l-289 152v-1405h278v510zM684 836q130 0 209.5 -90t79.5 -220q0 -139 -82.5 -227t-204.5 -88q-120 0 -205.5 89.5
t-85.5 223.5q0 135 83.5 223.5t205.5 88.5z" />
    <glyph glyph-name="q" unicode="q" horiz-adv-x="1312" 
d="M909 -356h279v1405l-287 -142q-72 79 -152.5 122.5t-193.5 43.5q-100 0 -189 -39t-155.5 -109t-105.5 -174t-39 -227q0 -161 67 -287t178 -193t244 -67q209 0 354 187v-520zM629 211q-126 0 -206.5 94.5t-80.5 222.5q0 135 82 222.5t205 87.5q120 0 205.5 -89.5
t85.5 -222.5t-85.5 -224t-205.5 -91z" />
    <glyph glyph-name="r" unicode="r" horiz-adv-x="778" 
d="M772 1061q-24 6 -53 6q-103 0 -184 -48.5t-134 -137.5l-280 168v-1049h278v451q0 86 25 152t68.5 105.5t98.5 59.5t120 20q41 0 61 -10v283z" />
    <glyph glyph-name="s" unicode="s" horiz-adv-x="901" 
d="M582 291q0 -56 -46.5 -81.5t-109.5 -25.5q-87 0 -188 43t-185 109v-250q106 -53 194.5 -81t194.5 -28q179 0 287.5 90t108.5 236q0 71 -29.5 128t-76 92.5t-103 64t-113.5 49.5t-103.5 41t-76 46t-29.5 58q0 35 32 58.5t89 23.5q69 0 158 -35.5t168 -87.5v248
q-152 82 -326 82q-170 0 -273.5 -81.5t-103.5 -221.5q0 -71 29.5 -126.5t76 -90t103 -61t113.5 -46.5t103.5 -40.5t76 -48.5t29.5 -64z" />
    <glyph glyph-name="t" unicode="t" horiz-adv-x="794" 
d="M231 295q0 -151 80.5 -234.5t225.5 -83.5q105 0 184 43v224q-59 -29 -113 -29q-98 0 -98 111v493h258v230h-258v342l-485 -572h206v-524z" />
    <glyph glyph-name="u" unicode="u" horiz-adv-x="1193" 
d="M113 375q0 -184 92.5 -291t273.5 -107q204 0 326 150l278 -139v1061h-278v-586q0 -120 -63.5 -179t-151.5 -59q-86 0 -142.5 58.5t-56.5 179.5v586h-278v-674z" />
    <glyph glyph-name="v" unicode="v" horiz-adv-x="1097" 
d="M678 -4l428 1051h-291l-264 -723l-264 723h-297l428 -1051h260z" />
    <glyph glyph-name="w" unicode="w" horiz-adv-x="1587" 
d="M268 1049h-278l338 -1053h245l218 692l215 -692h251l340 1053h-276l-199 -672l-204 674h-246l-207 -674z" />
    <glyph glyph-name="x" unicode="x" horiz-adv-x="1093" 
d="M393 535l-385 -535h299l238 338l235 -338h305l-383 539l365 508h-299l-219 -314l-217 314h-307z" />
    <glyph glyph-name="y" unicode="y" horiz-adv-x="1099" 
d="M-10 1047l456 -1053l-127 -350h246l545 1403h-289l-256 -748l-280 748h-295z" />
    <glyph glyph-name="z" unicode="z" horiz-adv-x="1064" 
d="M385 227l635 623v199h-961v-226h603l-633 -624v-199h985v227h-629z" />
    <glyph glyph-name="braceleft" unicode="{" horiz-adv-x="890" 
d="M80 487q78 0 128.5 -20t76 -63t34.5 -94.5t7 -127.5q-2 -96 6.5 -164t31.5 -120.5t56 -85.5t90 -56.5t123.5 -36.5t165.5 -22l12 178q-73 14 -118.5 37t-69 62.5t-31 85.5t-6.5 120q1 65 -2.5 111t-16 94.5t-35.5 83.5t-62 66.5t-95 54.5q47 18 82.5 40.5t58 44.5
t37.5 54.5t21.5 58t9 66.5t2 69t-2 77.5t-1.5 80.5q0 58 15 97.5t48.5 63.5t69.5 36t96 25l-12 180q-262 -20 -367.5 -132t-105.5 -364q0 -45 -0.5 -70.5t-4 -59.5t-10 -52t-18.5 -40.5t-30 -33.5t-43.5 -22t-60 -15t-79.5 -4v-203z" />
    <glyph glyph-name="bar" unicode="|" horiz-adv-x="1284" 
d="M756 1602h-224v-1905h224v1905z" />
    <glyph glyph-name="braceright" unicode="}" horiz-adv-x="890" 
d="M811 690q-45 0 -80.5 5.5t-61 14.5t-44.5 24.5t-30.5 32t-19 41t-10 45.5t-3 52.5t0.5 56t2.5 61t1.5 62.5q0 91 -23.5 158t-62.5 109t-102 70t-129.5 40.5t-157.5 20.5l-12 -180q73 -13 118.5 -35.5t69.5 -62t32 -86t7 -120.5q-1 -67 2 -111.5t15 -94t34.5 -83.5
t62.5 -65.5t97 -54.5q-57 -23 -96.5 -55t-62 -66.5t-34.5 -84t-15.5 -94.5t-2.5 -110q2 -73 -6 -120t-32.5 -86t-70 -62t-118.5 -37l12 -178q138 10 227.5 40.5t145.5 91.5t79 150t23 224q0 37 1 62t3.5 53.5t7.5 46t13.5 37.5t21.5 31.5t31 23t42 17.5t54.5 9.5t69.5 3.5
v203z" />
    <glyph glyph-name="asciitilde" unicode="~" horiz-adv-x="1044" 
d="M807 788q-51 -108 -131 -108q-39 0 -93 24t-116.5 48t-120.5 24q-93 0 -151.5 -59t-98.5 -193l142 -63q26 56 54.5 82t72.5 26q42 0 101.5 -24t123 -48t115.5 -24q172 0 241 248z" />
    <glyph glyph-name="uni00A0" unicode="&#xa0;" horiz-adv-x="573" 
 />
    <glyph glyph-name="exclamdown" unicode="&#xa1;" horiz-adv-x="647" 
d="M162 -367h321l-4 215l-76 785h-159l-76 -785zM324 776q73 0 121.5 43.5t48.5 116.5q0 74 -49 117t-121 43q-73 0 -122.5 -43t-49.5 -117q0 -73 49.5 -116.5t122.5 -43.5z" />
    <glyph glyph-name="cent" unicode="&#xa2;" horiz-adv-x="1011" 
d="M489 449q-167 90 -167 299q0 138 67 222t186 95zM930 1200q-68 48 -148 68l23 176h-182l-21 -154q-156 -5 -277.5 -77t-188 -195t-66.5 -275q0 -180 104 -322.5t272 -191.5l-28 -198h184l25 170q183 6 305 102v256q-56 -61 -129.5 -98t-155.5 -37l88 633q55 -7 106.5 -38
t88.5 -75v256z" />
    <glyph glyph-name="sterling" unicode="&#xa3;" horiz-adv-x="1167" 
d="M965 582v209h-478v157q0 116 55.5 187t166.5 71q77 0 132.5 -29t108.5 -92l189 177q-163 200 -441 200q-234 0 -365.5 -140.5t-131.5 -373.5v-157h-146v-209h146v-582h923v231h-637v351h478z" />
    <glyph glyph-name="currency" unicode="&#xa4;" horiz-adv-x="1445" 
d="M1352 1161l-135 133l-191 -188q-127 92 -301 92t-305 -94l-193 190l-131 -133l191 -188q-90 -124 -90 -301q0 -173 94 -301l-195 -195l131 -133l199 195q143 -93 299 -93q152 0 299 91l195 -193l133 133l-193 189q98 140 98 307q0 155 -94 305zM406 672q0 142 90.5 238
t228.5 96q141 0 230 -95.5t89 -238.5q0 -139 -89.5 -234.5t-229.5 -95.5t-229.5 95.5t-89.5 234.5z" />
    <glyph glyph-name="yen" unicode="&#xa5;" horiz-adv-x="1306" 
d="M516 436h-379v-192h377v-244h279v244h376v192h-372l16 144h356v190h-288l432 668h-318l-336 -576l-340 576h-325l432 -668h-289v-190h359z" />
    <glyph glyph-name="brokenbar" unicode="&#xa6;" horiz-adv-x="1310" 
d="M780 1380h-248v-714h248v714zM780 354h-248v-710h248v710z" />
    <glyph glyph-name="section" unicode="&#xa7;" horiz-adv-x="1177" 
d="M905 1380q-144 90 -327 90q-194 0 -309 -86t-115 -221q0 -136 122 -225q-105 -30 -162 -92t-57 -150q0 -112 105.5 -188t314.5 -131q132 -36 195 -76t63 -90q0 -111 -160 -111q-188 0 -339 136v-244q148 -94 337 -94q195 0 309.5 89.5t114.5 229.5q0 130 -120 221
q217 67 217 242q0 111 -100 182t-324 137q-139 42 -196.5 81.5t-57.5 82.5q0 105 164 105q160 0 325 -127v239zM440 848q44 -6 107.5 -21.5t139 -41t127.5 -66t52 -84.5q0 -47 -42 -78t-111 -31q-73 8 -145 25t-137 42.5t-105.5 62t-40.5 77.5q0 51 41 80t114 35z" />
    <glyph glyph-name="dieresis" unicode="&#xa8;" horiz-adv-x="780" 
d="M176 1581q-66 0 -107.5 -40.5t-41.5 -106.5q0 -68 42 -108t107 -40t109.5 40.5t44.5 107.5q0 66 -44.5 106.5t-109.5 40.5zM602 1581q-64 0 -105.5 -41.5t-41.5 -105.5q0 -67 42 -107.5t105 -40.5q67 0 109.5 40t42.5 108q0 67 -42.5 107t-109.5 40z" />
    <glyph glyph-name="copyright" unicode="&#xa9;" horiz-adv-x="1662" 
d="M61 729q0 -159 61 -303.5t164 -249t245.5 -166t299.5 -61.5q127 0 245 39.5t212.5 112t165.5 168.5t109.5 214t38.5 244q0 157 -61 300.5t-163.5 247.5t-245.5 166t-301 62q-157 0 -299.5 -62.5t-245.5 -167t-164 -247t-61 -297.5zM1493 727q0 -136 -52.5 -259.5
t-141 -212.5t-211 -141.5t-257.5 -52.5q-181 0 -333 90t-239 243.5t-87 334.5q0 179 87.5 331t240 241.5t334.5 89.5t334 -89t238.5 -241.5t86.5 -333.5zM1081 575q-100 -90 -219 -90q-102 0 -167.5 72.5t-65.5 179.5q0 106 67 178t166 72q61 0 118.5 -25t100.5 -67v215
q-110 66 -229 66q-191 0 -316.5 -127t-125.5 -312t125 -313.5t309 -128.5q129 0 237 76v204z" />
    <glyph glyph-name="ordfeminine" unicode="&#xaa;" horiz-adv-x="690" 
d="M51 1047q0 -87 61.5 -138t149.5 -51q114 0 189 88v-76h157v353q0 256 -276 256q-119 0 -230 -52l37 -120q84 41 170 41q142 0 142 -121v-13q-80 25 -154 25q-114 0 -180 -48.5t-66 -143.5zM45 731v-127h573v127h-573zM451 1092q0 -56 -41.5 -89.5t-98.5 -33.5
q-47 0 -75.5 23t-28.5 63q0 44 33.5 69t93.5 25q62 0 117 -25v-32z" />
    <glyph glyph-name="guillemotleft" unicode="&#xab;" horiz-adv-x="1220" 
d="M629 174l-267 361l267 362l-215 88l-332 -455l332 -448zM1124 174l-266 361l266 362l-215 88l-331 -455l331 -448z" />
    <glyph glyph-name="logicalnot" unicode="&#xac;" horiz-adv-x="1308" 
d="M1186 260v588h-1063v-215h842v-373h221z" />
    <glyph glyph-name="uni00AD" unicode="&#xad;" horiz-adv-x="720" 
d="M668 434v250h-613v-250h613z" />
    <glyph glyph-name="registered" unicode="&#xae;" horiz-adv-x="1560" 
d="M786 1464q-152 0 -290 -58t-237.5 -156.5t-158.5 -234.5t-59 -286t58.5 -286.5t157 -235.5t236 -158t289.5 -59q149 0 286 59.5t236 159t157.5 236t58.5 284.5q0 149 -58 284.5t-155.5 234.5t-234 157.5t-286.5 58.5zM782 92q-131 0 -248.5 50.5t-201.5 136t-133 202.5
t-49 246q0 174 83 319.5t229.5 230.5t323.5 85q171 0 315.5 -84.5t228 -229.5t83.5 -315q0 -172 -82.5 -319t-228.5 -234.5t-320 -87.5zM487 1155v-831h183v305h61l225 -305h211l-249 331q85 26 138.5 90.5t53.5 153.5q0 115 -81 185.5t-216 70.5h-326zM670 780v219h127
q65 0 101 -31.5t36 -78.5q0 -49 -38 -79t-99 -30h-127z" />
    <glyph glyph-name="macron" unicode="&#xaf;" horiz-adv-x="845" 
d="M770 1219v178h-690v-178h690z" />
    <glyph glyph-name="degree" unicode="&#xb0;" horiz-adv-x="813" 
d="M408 844q138 0 237.5 98t99.5 234q0 137 -99 233t-238 96q-136 0 -237 -97.5t-101 -233.5q0 -135 100.5 -232.5t237.5 -97.5zM408 1358q76 0 128 -53t52 -129q0 -79 -51.5 -131t-128.5 -52q-76 0 -127.5 53.5t-51.5 129.5q0 74 52.5 128t126.5 54z" />
    <glyph glyph-name="plusminus" unicode="&#xb1;" horiz-adv-x="1257" 
d="M131 881v-203h395v-316h207v316h393v203h-393v317h-207v-317h-395zM131 238v-203h995v203h-995z" />
    <glyph glyph-name="uni00B2" unicode="&#xb2;" horiz-adv-x="780" 
d="M33 584h655l31 161l-330 -8l98 99q125 123 175.5 197.5t50.5 166.5q0 121 -89 197t-221 76q-120 0 -190.5 -53t-112.5 -167l174 -49q43 109 123 109q51 0 83 -33t32 -86q0 -15 -3 -30t-10.5 -32t-14.5 -30.5t-21.5 -34t-24 -33.5t-30 -37t-31.5 -36.5t-36 -40.5t-36 -41z
" />
    <glyph glyph-name="uni00B3" unicode="&#xb3;" horiz-adv-x="731" 
d="M18 827q13 -130 97.5 -194t222.5 -64q146 0 245 76.5t99 206.5q0 75 -39 126.5t-127 84.5q125 60 125 188q0 106 -84.5 167t-206.5 61q-123 0 -203 -61t-94 -185h191q21 96 104 96q44 0 72.5 -26.5t28.5 -67.5q0 -53 -39 -85t-99 -32h-30v-131q5 0 23 1t24 1
q80 0 119.5 -36t39.5 -89q0 -62 -40 -102.5t-103 -40.5q-110 0 -127 106h-199z" />
    <glyph glyph-name="acute" unicode="&#xb4;" horiz-adv-x="514" 
d="M227 1583l-198 -342h198l281 264z" />
    <glyph glyph-name="uni00B5" unicode="&#xb5;" horiz-adv-x="1226" 
d="M401 -356h-278v1405h278v-586q0 -117 57 -178.5t140 -61.5q95 0 157 62.5t62 177.5v586h279v-1049l-281 139q-37 -77 -95 -119.5t-128 -42.5q-62 0 -112.5 33.5t-78.5 91.5v-458z" />
    <glyph glyph-name="paragraph" unicode="&#xb6;" horiz-adv-x="1304" 
d="M446 -223h197v1483h160v-1483h196v1483h88v186h-573q-206 0 -321 -101.5t-115 -285.5q0 -86 28.5 -154t80.5 -112t116 -70.5t143 -38.5v-907z" />
    <glyph glyph-name="periodcentered" unicode="&#xb7;" horiz-adv-x="655" 
d="M328 922q-79 0 -128.5 -47.5t-49.5 -126.5q0 -78 51 -126.5t127 -48.5q74 0 125 48.5t51 126.5t-51 126t-125 48z" />
    <glyph glyph-name="cedilla" unicode="&#xb8;" horiz-adv-x="661" 
d="M365 -141l86 141h-140l-133 -203l49 -41q46 19 78 19q38 0 60 -15t22 -43q0 -38 -39 -56.5t-82 -18.5q-62 0 -123 26l-39 -98q92 -47 195 -47q44 0 86.5 10t80.5 30.5t61.5 57.5t23.5 86q0 76 -53 114t-123 38h-10z" />
    <glyph glyph-name="uni00B9" unicode="&#xb9;" horiz-adv-x="579" 
d="M197 586h200v870l-147 -2q-13 -6 -81 -38t-97 -50v-174q58 19 125 61v-667z" />
    <glyph glyph-name="ordmasculine" unicode="&#xba;" horiz-adv-x="722" 
d="M45 1169q0 -132 91.5 -221.5t223.5 -89.5q135 0 226.5 92.5t91.5 223.5q0 126 -90 216.5t-223 90.5q-136 0 -228 -91.5t-92 -220.5zM68 735v-127h589v127h-589zM518 1169q0 -73 -41.5 -121.5t-111.5 -48.5t-115 50.5t-45 124.5q0 70 42 117.5t113 47.5q69 0 113.5 -48
t44.5 -122z" />
    <glyph glyph-name="guillemotright" unicode="&#xbb;" horiz-adv-x="1222" 
d="M356 535l-266 -361l215 -92l332 448l-332 455l-215 -88zM852 535l-264 -361l213 -92l334 448l-334 455l-215 -88z" />
    <glyph glyph-name="onequarter" unicode="&#xbc;" horiz-adv-x="1515" 
d="M981 301q28 43 103.5 156.5t97.5 150.5h4l-2 -12q-2 -24 -2 -295h-103h-96h-2zM768 154q75 0 212 1t202 1l-4 -154h194l-2 154q14 0 40 -1t42 -1l18 151l-98 -4v578h-190l-414 -615v-110zM356 -152l922 1778h-240l-917 -1778h235zM158 586h200v870l-147 -2
q-13 -6 -81 -38t-97 -50v-174q58 19 125 61v-667z" />
    <glyph glyph-name="onehalf" unicode="&#xbd;" horiz-adv-x="1624" 
d="M344 -152l922 1778h-240l-917 -1778h235zM162 586h200v870l-147 -2q-13 -6 -81 -38t-97 -50v-174q58 19 125 61v-667zM858 -2h655l31 162l-330 -8l99 98q124 122 174.5 197t50.5 167q0 121 -89 197t-220 76q-120 0 -190.5 -53t-112.5 -166l174 -50q43 109 123 109
q51 0 82.5 -33t31.5 -86q0 -15 -3 -30t-10.5 -32t-14.5 -30.5t-21.5 -34t-24 -33.5t-30 -37t-31.5 -36.5t-36 -40.5t-36 -41z" />
    <glyph glyph-name="threequarters" unicode="&#xbe;" horiz-adv-x="1779" 
d="M49 827q13 -130 97.5 -194t222.5 -64q146 0 245 76.5t99 206.5q0 75 -39 126.5t-127 84.5q125 60 125 188q0 106 -84.5 167t-206.5 61q-123 0 -203 -61t-94 -185h190q21 96 105 96q44 0 72 -26.5t28 -67.5q0 -53 -38.5 -85t-98.5 -32h-31v-131q5 0 23 1t24 1
q81 0 120.5 -36.5t39.5 -88.5q0 -62 -40 -102.5t-103 -40.5q-110 0 -127 106h-199zM623 -152l921 1778h-239l-918 -1778h236zM1245 301q28 43 103.5 156.5t97.5 150.5h4l-2 -12q-2 -24 -2 -295h-103h-96h-2zM1032 154q75 0 212 1t202 1l-4 -154h194l-2 154q14 0 40 -1t42 -1
l19 151l-99 -4v578h-190l-414 -615v-110z" />
    <glyph glyph-name="questiondown" unicode="&#xbf;" horiz-adv-x="985" 
d="M895 37q-158 -184 -334 -184q-83 0 -136.5 43t-53.5 108q0 54 33.5 100.5t93.5 96.5q41 35 68.5 64t56.5 71t44 94t15 113v108h-262v-65q0 -82 -25.5 -129t-95.5 -105q-50 -41 -83.5 -75.5t-63.5 -79t-45 -97t-15 -114.5q0 -173 120 -276t302 -103q119 0 218 43.5
t163 124.5v262zM539 772q73 0 122.5 43.5t49.5 116.5t-49.5 116.5t-122.5 43.5q-74 0 -123 -43.5t-49 -116.5q0 -72 49 -116t123 -44z" />
    <glyph glyph-name="Agrave" unicode="&#xc0;" horiz-adv-x="1478" 
d="M428 330h619l137 -330h309l-623 1444h-262l-622 -1444h303zM518 561l219 545l219 -545h-438zM356 1843l281 -264h201l-205 342z" />
    <glyph glyph-name="Aacute" unicode="&#xc1;" horiz-adv-x="1478" 
d="M428 330h619l137 -330h309l-623 1444h-262l-622 -1444h303zM518 561l219 545l219 -545h-438zM858 1921l-199 -342h199l281 264z" />
    <glyph glyph-name="Acircumflex" unicode="&#xc2;" horiz-adv-x="1478" 
d="M428 330h619l137 -330h309l-623 1444h-262l-622 -1444h303zM518 561l219 545l219 -545h-438zM1077 1606l-250 336h-178l-252 -336h203l137 147l142 -147h198z" />
    <glyph glyph-name="Atilde" unicode="&#xc3;" horiz-adv-x="1478" 
d="M428 330h619l137 -330h309l-623 1444h-262l-622 -1444h303zM518 561l219 545l219 -545h-438zM539 1565q31 94 96 94q32 0 113 -37t131 -37q81 0 135 65.5t90 188.5l-160 31q-15 -50 -33 -71t-47 -21t-112 36.5t-136 36.5q-165 0 -237 -260z" />
    <glyph glyph-name="Adieresis" unicode="&#xc4;" horiz-adv-x="1478" 
d="M428 330h619l137 -330h309l-623 1444h-262l-622 -1444h303zM518 561l219 545l219 -545h-438zM526 1919q-66 0 -107.5 -40.5t-41.5 -106.5q0 -68 42 -108t107 -40t109.5 40.5t44.5 107.5q0 66 -44.5 106.5t-109.5 40.5zM952 1919q-64 0 -105.5 -41.5t-41.5 -105.5
q0 -67 42 -107.5t105 -40.5q67 0 109.5 40t42.5 108q0 67 -42.5 107t-109.5 40z" />
    <glyph glyph-name="Aring" unicode="&#xc5;" horiz-adv-x="1478" 
d="M428 330h619l137 -330h309l-623 1444h-262l-622 -1444h303zM518 561l219 545l219 -545h-438zM737 1382q96 0 164 65t68 159q0 95 -68 160t-164 65q-92 0 -160.5 -65.5t-68.5 -159.5t68.5 -159t160.5 -65zM737 1690q37 0 60.5 -23.5t23.5 -60.5q0 -36 -22.5 -59t-61.5 -23
q-35 0 -58.5 23.5t-23.5 60.5q0 34 24 58t58 24z" />
    <glyph glyph-name="AE" unicode="&#xc6;" horiz-adv-x="1980" 
d="M737 1438l-751 -1438h303l182 330h451v-330h1067v248h-783v364h701v234h-701v346h766v246h-1235zM922 561h-344l344 651v-651z" />
    <glyph glyph-name="Ccedilla" unicode="&#xc7;" horiz-adv-x="1402" 
d="M1300 432q-112 -99 -215.5 -150t-230.5 -51q-140 0 -248 66t-164.5 177t-56.5 247q0 134 57 244.5t165 176.5t247 66q258 0 426 -182v301q-190 139 -438 139q-160 0 -300 -58.5t-239 -158t-156 -237.5t-57 -293q0 -209 98 -381t267.5 -269.5t373.5 -97.5
q140 0 252.5 41.5t218.5 122.5v297zM786 -141l86 141h-139l-133 -203l49 -41q46 19 78 19q38 0 60 -15t22 -43q0 -38 -39 -56.5t-82 -18.5q-62 0 -123 26l-39 -98q92 -47 195 -47q44 0 86.5 10t80.5 30.5t61.5 57.5t23.5 86q0 76 -53 114t-123 38h-11z" />
    <glyph glyph-name="Egrave" unicode="&#xc8;" horiz-adv-x="1325" 
d="M426 248v364h698v234h-698v346h764v246h-1049v-1438h1065v248h-780zM340 1843l281 -264h200l-205 342z" />
    <glyph glyph-name="Eacute" unicode="&#xc9;" horiz-adv-x="1325" 
d="M426 248v364h698v234h-698v346h764v246h-1049v-1438h1065v248h-780zM725 1921l-199 -342h199l281 264z" />
    <glyph glyph-name="Ecircumflex" unicode="&#xca;" horiz-adv-x="1325" 
d="M426 248v364h698v234h-698v346h764v246h-1049v-1438h1065v248h-780zM1012 1606l-250 336h-178l-252 -336h203l137 147l141 -147h199z" />
    <glyph glyph-name="Edieresis" unicode="&#xcb;" horiz-adv-x="1325" 
d="M426 248v364h698v234h-698v346h764v246h-1049v-1438h1065v248h-780zM453 1919q-66 0 -108 -40.5t-42 -106.5q0 -67 42.5 -107.5t107.5 -40.5t109 40.5t44 107.5q0 66 -44 106.5t-109 40.5zM879 1919q-65 0 -106.5 -41.5t-41.5 -105.5q0 -67 42.5 -107.5t105.5 -40.5
q67 0 109 40t42 108q0 67 -42 107t-109 40z" />
    <glyph glyph-name="Igrave" unicode="&#xcc;" horiz-adv-x="567" 
d="M428 0v1438h-287v-1438h287zM-90 1903l280 -265h201l-205 342z" />
    <glyph glyph-name="Iacute" unicode="&#xcd;" horiz-adv-x="567" 
d="M428 0v1438h-287v-1438h287zM367 1921l-199 -342h199l280 264z" />
    <glyph glyph-name="Icircumflex" unicode="&#xce;" horiz-adv-x="567" 
d="M428 0v1438h-287v-1438h287zM629 1606l-250 336h-178l-252 -336h203l137 147l141 -147h199z" />
    <glyph glyph-name="Idieresis" unicode="&#xcf;" horiz-adv-x="567" 
d="M428 0v1438h-287v-1438h287zM78 1919q-66 0 -108 -40.5t-42 -106.5q0 -67 42.5 -107.5t107.5 -40.5t109 40.5t44 107.5q0 66 -44 106.5t-109 40.5zM504 1919q-65 0 -106.5 -41.5t-41.5 -105.5q0 -67 42.5 -107.5t105.5 -40.5q67 0 109 40t42 108q0 67 -42 107t-109 40z
" />
    <glyph glyph-name="Eth" unicode="&#xd0;" horiz-adv-x="1583" 
d="M199 1438v-1438h497q180 0 329.5 54.5t251 150.5t157 229t55.5 289q0 321 -216.5 518t-572.5 197h-501zM483 254v930h265q135 0 238 -64.5t155.5 -169.5t52.5 -231q0 -212 -132.5 -338.5t-363.5 -126.5h-215zM637 582v249h-612v-249h612z" />
    <glyph glyph-name="Ntilde" unicode="&#xd1;" horiz-adv-x="1560" 
d="M1139 467l-725 967h-273v-1434h281v985l737 -985h260v1438h-280v-971zM594 1565q31 94 96 94q32 0 113 -37t131 -37q81 0 135 65.5t90 188.5l-160 31q-15 -50 -32.5 -71t-46.5 -21t-112 36.5t-136 36.5q-166 0 -238 -260z" />
    <glyph glyph-name="Ograve" unicode="&#xd2;" horiz-adv-x="1699" 
d="M850 -29q211 0 386 99.5t275.5 272t100.5 380.5q0 122 -36.5 234.5t-105 204.5t-161 160.5t-210.5 106t-247 37.5q-161 0 -303.5 -59t-242.5 -159t-158 -238t-58 -291q0 -154 57.5 -292t157.5 -238.5t242 -159t303 -58.5zM850 1210q136 0 244.5 -68.5t166.5 -180.5
t58 -244t-59 -243t-166.5 -178t-241.5 -67q-135 0 -243 66.5t-167 179.5t-59 248q0 133 58.5 244t166 177t242.5 66zM465 1843l280 -264h201l-205 342z" />
    <glyph glyph-name="Oacute" unicode="&#xd3;" horiz-adv-x="1699" 
d="M850 -29q211 0 386 99.5t275.5 272t100.5 380.5q0 122 -36.5 234.5t-105 204.5t-161 160.5t-210.5 106t-247 37.5q-161 0 -303.5 -59t-242.5 -159t-158 -238t-58 -291q0 -154 57.5 -292t157.5 -238.5t242 -159t303 -58.5zM850 1210q136 0 244.5 -68.5t166.5 -180.5
t58 -244t-59 -243t-166.5 -178t-241.5 -67q-135 0 -243 66.5t-167 179.5t-59 248q0 133 58.5 244t166 177t242.5 66zM1004 1921l-199 -342h199l280 264z" />
    <glyph glyph-name="Ocircumflex" unicode="&#xd4;" horiz-adv-x="1699" 
d="M850 -29q211 0 386 99.5t275.5 272t100.5 380.5q0 122 -36.5 234.5t-105 204.5t-161 160.5t-210.5 106t-247 37.5q-161 0 -303.5 -59t-242.5 -159t-158 -238t-58 -291q0 -154 57.5 -292t157.5 -238.5t242 -159t303 -58.5zM850 1210q136 0 244.5 -68.5t166.5 -180.5
t58 -244t-59 -243t-166.5 -178t-241.5 -67q-135 0 -243 66.5t-167 179.5t-59 248q0 133 58.5 244t166 177t242.5 66zM1190 1606l-250 336h-178l-252 -336h203l137 147l141 -147h199z" />
    <glyph glyph-name="Otilde" unicode="&#xd5;" horiz-adv-x="1699" 
d="M850 -29q211 0 386 99.5t275.5 272t100.5 380.5q0 122 -36.5 234.5t-105 204.5t-161 160.5t-210.5 106t-247 37.5q-161 0 -303.5 -59t-242.5 -159t-158 -238t-58 -291q0 -154 57.5 -292t157.5 -238.5t242 -159t303 -58.5zM850 1210q136 0 244.5 -68.5t166.5 -180.5
t58 -244t-59 -243t-166.5 -178t-241.5 -67q-135 0 -243 66.5t-167 179.5t-59 248q0 133 58.5 244t166 177t242.5 66zM649 1565q31 94 96 94q32 0 113 -37t131 -37q81 0 135 65.5t90 188.5l-159 31q-15 -50 -33 -71t-47 -21t-112 36.5t-136 36.5q-166 0 -238 -260z" />
    <glyph glyph-name="Odieresis" unicode="&#xd6;" horiz-adv-x="1699" 
d="M850 -29q211 0 386 99.5t275.5 272t100.5 380.5q0 122 -36.5 234.5t-105 204.5t-161 160.5t-210.5 106t-247 37.5q-161 0 -303.5 -59t-242.5 -159t-158 -238t-58 -291q0 -154 57.5 -292t157.5 -238.5t242 -159t303 -58.5zM850 1210q136 0 244.5 -68.5t166.5 -180.5
t58 -244t-59 -243t-166.5 -178t-241.5 -67q-135 0 -243 66.5t-167 179.5t-59 248q0 133 58.5 244t166 177t242.5 66zM641 1919q-66 0 -107.5 -40.5t-41.5 -106.5q0 -68 42 -108t107 -40t109.5 40.5t44.5 107.5q0 66 -44.5 106.5t-109.5 40.5zM1067 1919q-65 0 -106 -41.5
t-41 -105.5q0 -67 42 -107.5t105 -40.5q67 0 109.5 40t42.5 108q0 67 -42.5 107t-109.5 40z" />
    <glyph glyph-name="multiply" unicode="&#xd7;" horiz-adv-x="1370" 
d="M528 719l-348 -348l160 -158l346 346l344 -346l160 160l-344 346l344 344l-160 160l-344 -349l-346 349l-158 -160z" />
    <glyph glyph-name="Oslash" unicode="&#xd8;" horiz-adv-x="1691" 
d="M207 -31l168 -106l137 205q151 -97 334 -97q214 0 389 101.5t273 273.5t98 377q0 164 -63.5 304.5t-182.5 242.5l129 176l-172 104l-127 -182q-156 98 -342 98q-161 0 -303.5 -59t-242.5 -159t-158 -238t-58 -291q0 -169 65.5 -311t188.5 -246zM485 401
q-106 132 -106 322q0 132 57 242.5t162 176.5t236 66q124 0 215 -65zM1212 1026q101 -138 101 -309q0 -132 -56 -242.5t-160.5 -177t-236.5 -66.5q-110 0 -207 66z" />
    <glyph glyph-name="Ugrave" unicode="&#xd9;" horiz-adv-x="1495" 
d="M127 606q0 -307 161 -471t457 -164q298 0 459.5 163.5t161.5 477.5v828h-287v-834q0 -188 -85.5 -281.5t-245.5 -93.5q-164 0 -249 98t-85 285v826h-287v-834zM389 1843l281 -264h200l-204 342z" />
    <glyph glyph-name="Uacute" unicode="&#xda;" horiz-adv-x="1495" 
d="M127 606q0 -307 161 -471t457 -164q298 0 459.5 163.5t161.5 477.5v828h-287v-834q0 -188 -85.5 -281.5t-245.5 -93.5q-164 0 -249 98t-85 285v826h-287v-834zM838 1921l-199 -342h199l280 264z" />
    <glyph glyph-name="Ucircumflex" unicode="&#xdb;" horiz-adv-x="1495" 
d="M127 606q0 -307 161 -471t457 -164q298 0 459.5 163.5t161.5 477.5v828h-287v-834q0 -188 -85.5 -281.5t-245.5 -93.5q-164 0 -249 98t-85 285v826h-287v-834zM1092 1606l-250 336h-178l-252 -336h202l138 147l141 -147h199z" />
    <glyph glyph-name="Udieresis" unicode="&#xdc;" horiz-adv-x="1495" 
d="M127 606q0 -307 161 -471t457 -164q298 0 459.5 163.5t161.5 477.5v828h-287v-834q0 -188 -85.5 -281.5t-245.5 -93.5q-164 0 -249 98t-85 285v826h-287v-834zM528 1919q-66 0 -107.5 -40.5t-41.5 -106.5q0 -68 42 -108t107 -40t109.5 40.5t44.5 107.5q0 66 -44.5 106.5
t-109.5 40.5zM954 1919q-64 0 -105.5 -41.5t-41.5 -105.5q0 -67 42 -107.5t105 -40.5q67 0 109.5 40t42.5 108q0 67 -42.5 107t-109.5 40z" />
    <glyph glyph-name="Yacute" unicode="&#xdd;" horiz-adv-x="1366" 
d="M827 0v559l547 879h-317l-369 -615l-369 615h-329l551 -883v-555h286zM762 1921l-199 -342h199l280 264z" />
    <glyph glyph-name="Thorn" unicode="&#xde;" horiz-adv-x="1110" 
d="M141 1446v-1446h277v322h162q218 0 347.5 110t129.5 326q0 121 -41 209.5t-116 139.5t-168.5 75t-209.5 24h-104v240h-277zM418 545v428h57q54 0 91.5 -3t81 -15t69.5 -34t43.5 -61.5t17.5 -95.5q0 -65 -21 -109t-60.5 -67.5t-86.5 -33t-110 -9.5h-82z" />
    <glyph glyph-name="germandbls" unicode="&#xdf;" horiz-adv-x="1138" 
d="M295 1026q0 115 58.5 189.5t166.5 74.5q88 0 142.5 -52t54.5 -144t-61 -150t-171 -104v-166q152 -20 231 -75.5t79 -164.5q0 -114 -86.5 -172.5t-233.5 -60.5v-207q91 -4 176.5 9t162.5 45.5t134.5 81.5t91 122t33.5 162q0 144 -92 240t-225 126q107 51 170 137.5
t63 210.5q0 174 -128 287t-335 113q-247 0 -377.5 -140t-130.5 -366v-1022h277v1026z" />
    <glyph glyph-name="agrave" unicode="&#xe0;" horiz-adv-x="1187" 
d="M791 268q-92 -100 -238 -100q-91 0 -153 45.5t-62 126.5q0 82 68.5 128t166.5 46q114 0 218 -53v-193zM1063 635q0 211 -132.5 321.5t-369.5 110.5q-202 0 -414 -86v-219q164 84 359 84q285 0 285 -197v-31q-113 58 -293 58q-89 0 -164.5 -19.5t-136.5 -58.5t-96 -106.5
t-35 -155.5q0 -111 56.5 -194.5t145 -124t193.5 -40.5q193 0 325 129l277 -118v647zM244 1526l280 -264h201l-205 342z" />
    <glyph glyph-name="aacute" unicode="&#xe1;" horiz-adv-x="1187" 
d="M791 268q-92 -100 -238 -100q-91 0 -153 45.5t-62 126.5q0 82 68.5 128t166.5 46q114 0 218 -53v-193zM1063 635q0 211 -132.5 321.5t-369.5 110.5q-202 0 -414 -86v-219q164 84 359 84q285 0 285 -197v-31q-113 58 -293 58q-89 0 -164.5 -19.5t-136.5 -58.5t-96 -106.5
t-35 -155.5q0 -111 56.5 -194.5t145 -124t193.5 -40.5q193 0 325 129l277 -118v647zM676 1604l-199 -342h199l280 264z" />
    <glyph glyph-name="acircumflex" unicode="&#xe2;" horiz-adv-x="1187" 
d="M791 268q-92 -100 -238 -100q-91 0 -153 45.5t-62 126.5q0 82 68.5 128t166.5 46q114 0 218 -53v-193zM1063 635q0 211 -132.5 321.5t-369.5 110.5q-202 0 -414 -86v-219q164 84 359 84q285 0 285 -197v-31q-113 58 -293 58q-89 0 -164.5 -19.5t-136.5 -58.5t-96 -106.5
t-35 -155.5q0 -111 56.5 -194.5t145 -124t193.5 -40.5q193 0 325 129l277 -118v647zM938 1268l-250 336h-178l-252 -336h203l137 147l141 -147h199z" />
    <glyph glyph-name="atilde" unicode="&#xe3;" horiz-adv-x="1187" 
d="M791 268q-92 -100 -238 -100q-91 0 -153 45.5t-62 126.5q0 82 68.5 128t166.5 46q114 0 218 -53v-193zM1063 635q0 211 -132.5 321.5t-369.5 110.5q-202 0 -414 -86v-219q164 84 359 84q285 0 285 -197v-31q-113 58 -293 58q-89 0 -164.5 -19.5t-136.5 -58.5t-96 -106.5
t-35 -155.5q0 -111 56.5 -194.5t145 -124t193.5 -40.5q193 0 325 129l277 -118v647zM406 1227q31 94 96 94q32 0 112.5 -37t130.5 -37q152 0 226 254l-160 31q-15 -50 -33 -71t-47 -21t-112 36.5t-136 36.5q-165 0 -237 -260z" />
    <glyph glyph-name="adieresis" unicode="&#xe4;" horiz-adv-x="1187" 
d="M791 268q-92 -100 -238 -100q-91 0 -153 45.5t-62 126.5q0 82 68.5 128t166.5 46q114 0 218 -53v-193zM1063 635q0 211 -132.5 321.5t-369.5 110.5q-202 0 -414 -86v-219q164 84 359 84q285 0 285 -197v-31q-113 58 -293 58q-89 0 -164.5 -19.5t-136.5 -58.5t-96 -106.5
t-35 -155.5q0 -111 56.5 -194.5t145 -124t193.5 -40.5q193 0 325 129l277 -118v647zM389 1569q-63 0 -104 -39.5t-41 -102.5q0 -64 40.5 -103.5t104.5 -39.5q61 0 103.5 40t42.5 103t-42 102.5t-104 39.5zM807 1569q-61 0 -101 -40t-40 -102q0 -63 40.5 -103t100.5 -40
q64 0 104.5 39.5t40.5 103.5t-40.5 103t-104.5 39z" />
    <glyph glyph-name="aring" unicode="&#xe5;" horiz-adv-x="1187" 
d="M791 268q-92 -100 -238 -100q-91 0 -153 45.5t-62 126.5q0 82 68.5 128t166.5 46q114 0 218 -53v-193zM1063 635q0 211 -132.5 321.5t-369.5 110.5q-202 0 -414 -86v-219q164 84 359 84q285 0 285 -197v-31q-113 58 -293 58q-89 0 -164.5 -19.5t-136.5 -58.5t-96 -106.5
t-35 -155.5q0 -111 56.5 -194.5t145 -124t193.5 -40.5q193 0 325 129l277 -118v647zM582 1198q96 0 163.5 64.5t67.5 158.5q0 95 -67.5 160.5t-163.5 65.5q-92 0 -161 -66t-69 -160t69 -158.5t161 -64.5zM582 1505q37 0 60.5 -23.5t23.5 -60.5q0 -36 -22.5 -59t-61.5 -23
q-35 0 -58.5 23.5t-23.5 60.5q0 34 24 58t58 24z" />
    <glyph glyph-name="ae" unicode="&#xe6;" horiz-adv-x="1900" 
d="M1737 330q-71 -68 -176.5 -107t-208.5 -39q-185 0 -262 148l747 186q-6 111 -42.5 209.5t-99.5 175.5t-158.5 121.5t-211.5 44.5q-220 0 -364 -154q-63 73 -175.5 111.5t-238.5 38.5q-199 0 -408 -84v-219q167 84 361 84q282 0 282 -197v-31q-113 58 -290 58
q-85 0 -160 -19.5t-137.5 -59t-99 -108t-36.5 -157.5q0 -110 60.5 -192.5t156 -122.5t209.5 -40q276 0 467 154q147 -160 400 -160q219 0 385 117v242zM782 268q-92 -100 -237 -100q-91 0 -152 45.5t-61 126.5q0 82 68 128t167 46q115 0 215 -53v-193zM1065 530
q-2 82 24 153.5t85.5 120t142.5 48.5q93 0 157.5 -54.5t88.5 -146.5z" />
    <glyph glyph-name="ccedilla" unicode="&#xe7;" horiz-adv-x="966" 
d="M872 1012q-95 57 -254 57q-160 0 -287.5 -75t-196 -199.5t-68.5 -272.5q0 -150 71 -275t196 -197.5t277 -72.5q142 0 273 64v274q-105 -102 -244 -102q-126 0 -212.5 92t-86.5 223t83 219.5t210 88.5q131 0 239 -105v281zM575 -141l87 141h-140l-133 -203l49 -41
q46 19 78 19q38 0 60 -15t22 -43q0 -38 -39 -56.5t-82 -18.5q-62 0 -123 26l-39 -98q92 -47 195 -47q44 0 86.5 10t80.5 30.5t61.5 57.5t23.5 86q0 76 -53 114t-123 38h-11z" />
    <glyph glyph-name="egrave" unicode="&#xe8;" horiz-adv-x="1169" 
d="M1006 330q-70 -68 -177 -107t-211 -39q-183 0 -260 148l748 186q-6 111 -43 210t-100 175.5t-159 121t-212 44.5q-152 0 -272.5 -72t-187 -197.5t-66.5 -279.5q0 -238 154.5 -393.5t391.5 -155.5q103 0 208 30t186 87v242zM334 535q0 81 25.5 151t84 118t140.5 48
q93 0 157 -54.5t88 -146.5l-493 -127zM195 1526l280 -264h201l-205 342z" />
    <glyph glyph-name="eacute" unicode="&#xe9;" horiz-adv-x="1169" 
d="M1006 330q-70 -68 -177 -107t-211 -39q-183 0 -260 148l748 186q-6 111 -43 210t-100 175.5t-159 121t-212 44.5q-152 0 -272.5 -72t-187 -197.5t-66.5 -279.5q0 -238 154.5 -393.5t391.5 -155.5q103 0 208 30t186 87v242zM334 535q0 81 25.5 151t84 118t140.5 48
q93 0 157 -54.5t88 -146.5l-493 -127zM713 1604l-199 -342h199l280 264z" />
    <glyph glyph-name="ecircumflex" unicode="&#xea;" horiz-adv-x="1169" 
d="M1006 330q-70 -68 -177 -107t-211 -39q-183 0 -260 148l748 186q-6 111 -43 210t-100 175.5t-159 121t-212 44.5q-152 0 -272.5 -72t-187 -197.5t-66.5 -279.5q0 -238 154.5 -393.5t391.5 -155.5q103 0 208 30t186 87v242zM334 535q0 81 25.5 151t84 118t140.5 48
q93 0 157 -54.5t88 -146.5l-493 -127zM944 1268l-250 336h-178l-252 -336h203l137 147l141 -147h199z" />
    <glyph glyph-name="edieresis" unicode="&#xeb;" horiz-adv-x="1169" 
d="M1006 330q-70 -68 -177 -107t-211 -39q-183 0 -260 148l748 186q-6 111 -43 210t-100 175.5t-159 121t-212 44.5q-152 0 -272.5 -72t-187 -197.5t-66.5 -279.5q0 -238 154.5 -393.5t391.5 -155.5q103 0 208 30t186 87v242zM334 535q0 81 25.5 151t84 118t140.5 48
q93 0 157 -54.5t88 -146.5l-493 -127zM389 1569q-63 0 -104 -39.5t-41 -102.5q0 -64 40.5 -103.5t104.5 -39.5q61 0 103.5 40t42.5 103t-42 102.5t-104 39.5zM807 1569q-61 0 -101 -40t-40 -102q0 -63 40.5 -103t100.5 -40q64 0 104.5 39.5t40.5 103.5t-40.5 103t-104.5 39z
" />
    <glyph glyph-name="igrave" unicode="&#xec;" horiz-adv-x="524" 
d="M399 0v1049h-278v-1049h278zM-94 1526l280 -264h201l-205 342z" />
    <glyph glyph-name="iacute" unicode="&#xed;" horiz-adv-x="542" 
d="M373 0v1049h-279v-1049h279zM317 1604l-198 -342h198l281 264z" />
    <glyph glyph-name="icircumflex" unicode="&#xee;" horiz-adv-x="522" 
d="M399 0v1049h-278v-1049h278zM598 1268l-250 336h-178l-252 -336h203l137 147l141 -147h199z" />
    <glyph glyph-name="idieresis" unicode="&#xef;" horiz-adv-x="546" 
d="M412 0v1049h-279v-1049h279zM63 1569q-63 0 -104 -39.5t-41 -102.5q0 -64 40.5 -103.5t104.5 -39.5q61 0 103.5 40t42.5 103t-42 102.5t-104 39.5zM481 1569q-61 0 -101 -40t-40 -102q0 -63 40.5 -103t100.5 -40q64 0 105 39.5t41 103.5t-41 103t-105 39z" />
    <glyph glyph-name="eth" unicode="&#xf0;" horiz-adv-x="1161" 
d="M197 1479q121 -79 211 -158l-240 -145l98 -101l246 154q180 -171 262 -348q-69 44 -117 59q-53 16 -114 16q-131 0 -240 -62.5t-173 -174.5t-64 -250q0 -111 43 -205.5t115 -156.5t165 -97t193 -35q72 0 142.5 18.5t138 61t119 104t83 155t31.5 206.5q0 445 -394 821
l238 150l-94 98l-248 -155q-111 97 -233 170zM512 301q-71 30 -97 107.5t7 146.5q33 70 98.5 93t132.5 -9q71 -32 96.5 -106.5t-6.5 -141.5q-32 -71 -96 -96t-135 6z" />
    <glyph glyph-name="ntilde" unicode="&#xf1;" horiz-adv-x="1206" 
d="M1094 674q0 181 -96.5 289t-270.5 108q-191 0 -326 -164l-280 142v-1049h278v586q0 120 65.5 179.5t151.5 59.5q85 0 142 -59t57 -180v-586h279v674zM436 1227q31 94 96 94q32 0 113 -37t131 -37q81 0 135 65.5t90 188.5l-159 31q-15 -50 -33 -71t-47 -21t-112 36.5
t-136 36.5q-166 0 -238 -260z" />
    <glyph glyph-name="ograve" unicode="&#xf2;" horiz-adv-x="1273" 
d="M633 -25q156 0 288 71.5t209.5 198.5t77.5 281q0 150 -73 275t-204.5 198.5t-293.5 73.5t-293.5 -74.5t-204.5 -200.5t-73 -276t72.5 -275t203 -198.5t291.5 -73.5zM633 838q131 0 216 -92.5t85 -221.5t-84.5 -220t-212.5 -91q-127 0 -212 90t-85 223q0 132 81 222
t212 90zM248 1526l280 -264h201l-205 342z" />
    <glyph glyph-name="oacute" unicode="&#xf3;" horiz-adv-x="1273" 
d="M633 -25q156 0 288 71.5t209.5 198.5t77.5 281q0 150 -73 275t-204.5 198.5t-293.5 73.5t-293.5 -74.5t-204.5 -200.5t-73 -276t72.5 -275t203 -198.5t291.5 -73.5zM633 838q131 0 216 -92.5t85 -221.5t-84.5 -220t-212.5 -91q-127 0 -212 90t-85 223q0 132 81 222
t212 90zM743 1604l-198 -342h198l281 264z" />
    <glyph glyph-name="ocircumflex" unicode="&#xf4;" horiz-adv-x="1273" 
d="M633 -25q156 0 288 71.5t209.5 198.5t77.5 281q0 150 -73 275t-204.5 198.5t-293.5 73.5t-293.5 -74.5t-204.5 -200.5t-73 -276t72.5 -275t203 -198.5t291.5 -73.5zM633 838q131 0 216 -92.5t85 -221.5t-84.5 -220t-212.5 -91q-127 0 -212 90t-85 223q0 132 81 222
t212 90zM979 1268l-250 336h-178l-252 -336h203l137 147l141 -147h199z" />
    <glyph glyph-name="otilde" unicode="&#xf5;" horiz-adv-x="1273" 
d="M633 -25q156 0 288 71.5t209.5 198.5t77.5 281q0 150 -73 275t-204.5 198.5t-293.5 73.5t-293.5 -74.5t-204.5 -200.5t-73 -276t72.5 -275t203 -198.5t291.5 -73.5zM633 838q131 0 216 -92.5t85 -221.5t-84.5 -220t-212.5 -91q-127 0 -212 90t-85 223q0 132 81 222
t212 90zM446 1227q31 94 97 94q32 0 112.5 -37t130.5 -37q152 0 226 254l-160 31q-15 -50 -33 -71t-47 -21t-112 36.5t-136 36.5q-165 0 -237 -260z" />
    <glyph glyph-name="odieresis" unicode="&#xf6;" horiz-adv-x="1273" 
d="M633 -25q156 0 288 71.5t209.5 198.5t77.5 281q0 150 -73 275t-204.5 198.5t-293.5 73.5t-293.5 -74.5t-204.5 -200.5t-73 -276t72.5 -275t203 -198.5t291.5 -73.5zM633 838q131 0 216 -92.5t85 -221.5t-84.5 -220t-212.5 -91q-127 0 -212 90t-85 223q0 132 81 222
t212 90zM426 1569q-63 0 -104 -39.5t-41 -102.5q0 -64 40.5 -103.5t104.5 -39.5q61 0 103 40t42 103t-42 102.5t-103 39.5zM844 1569q-62 0 -102 -40.5t-40 -101.5q0 -63 41 -103t101 -40q64 0 104.5 39.5t40.5 103.5t-40.5 103t-104.5 39z" />
    <glyph glyph-name="divide" unicode="&#xf7;" horiz-adv-x="1320" 
d="M1190 637v170h-1059v-170h1059zM659 911q58 0 98 36t40 95q0 55 -39 94.5t-99 39.5q-59 0 -97 -39.5t-38 -94.5q0 -56 38 -93.5t97 -37.5zM659 270q59 0 98.5 39t39.5 97q0 56 -38.5 93.5t-99.5 37.5q-59 0 -97 -37.5t-38 -93.5t38 -96t97 -40z" />
    <glyph glyph-name="oslash" unicode="&#xf8;" horiz-adv-x="1267" 
d="M899 682q41 -71 41 -164q0 -136 -84 -227.5t-219 -91.5q-88 0 -152 43zM381 352q-41 61 -41 166q0 135 83 227.5t216 92.5q94 0 154 -45zM49 0l115 -111l160 177q136 -91 313 -91q161 0 291.5 72.5t203 196.5t72.5 274q0 202 -129 354l127 142l-112 110l-138 -151
q-127 88 -313 88q-161 0 -290.5 -73t-201 -197t-71.5 -273q0 -200 129 -354z" />
    <glyph glyph-name="ugrave" unicode="&#xf9;" horiz-adv-x="1193" 
d="M113 375q0 -184 92.5 -291t273.5 -107q204 0 326 150l278 -139v1061h-278v-586q0 -120 -63.5 -179t-151.5 -59q-86 0 -142.5 58.5t-56.5 179.5v586h-278v-674zM274 1526l281 -264h201l-205 342z" />
    <glyph glyph-name="uacute" unicode="&#xfa;" horiz-adv-x="1193" 
d="M113 375q0 -184 92.5 -291t273.5 -107q204 0 326 150l278 -139v1061h-278v-586q0 -120 -63.5 -179t-151.5 -59q-86 0 -142.5 58.5t-56.5 179.5v586h-278v-674zM702 1604l-198 -342h198l281 264z" />
    <glyph glyph-name="ucircumflex" unicode="&#xfb;" horiz-adv-x="1193" 
d="M113 375q0 -184 92.5 -291t273.5 -107q204 0 326 150l278 -139v1061h-278v-586q0 -120 -63.5 -179t-151.5 -59q-86 0 -142.5 58.5t-56.5 179.5v586h-278v-674zM936 1268l-250 336h-178l-252 -336h203l137 147l141 -147h199z" />
    <glyph glyph-name="udieresis" unicode="&#xfc;" horiz-adv-x="1193" 
d="M113 375q0 -184 92.5 -291t273.5 -107q204 0 326 150l278 -139v1061h-278v-586q0 -120 -63.5 -179t-151.5 -59q-86 0 -142.5 58.5t-56.5 179.5v586h-278v-674zM385 1569q-63 0 -104 -39.5t-41 -102.5q0 -64 40.5 -103.5t104.5 -39.5q61 0 103 40t42 103t-42 102.5
t-103 39.5zM803 1569q-61 0 -101 -40t-40 -102q0 -63 40.5 -103t100.5 -40q64 0 104.5 39.5t40.5 103.5t-40.5 103t-104.5 39z" />
    <glyph glyph-name="yacute" unicode="&#xfd;" horiz-adv-x="1099" 
d="M-10 1047l456 -1053l-127 -350h246l545 1403h-289l-256 -748l-280 748h-295zM645 1604l-199 -342h199l281 264z" />
    <glyph glyph-name="thorn" unicode="&#xfe;" horiz-adv-x="1181" 
d="M375 477q0 105 65 183.5t168 78.5q107 0 173.5 -77.5t66.5 -184.5q0 -117 -67 -195.5t-173 -78.5t-169.5 81t-63.5 193zM123 1585v-2068h266v450l-6 154h8q41 -61 108.5 -98t145.5 -43q44 -6 86 0q118 11 207.5 84.5t133.5 180.5t44 228q0 120 -44.5 226t-133 179
t-205.5 85q-19 2 -92 -2q-78 -12 -144.5 -50.5t-111.5 -95.5h-2q0 58 4 172q0 119 2 178v420h-266z" />
    <glyph glyph-name="ydieresis" unicode="&#xff;" horiz-adv-x="1099" 
d="M-10 1047l456 -1053l-127 -350h246l545 1403h-289l-256 -748l-280 748h-295zM352 1569q-63 0 -104 -39.5t-41 -102.5q0 -64 40.5 -103.5t104.5 -39.5q61 0 103.5 40t42.5 103t-42 102.5t-104 39.5zM770 1569q-61 0 -101 -40t-40 -102q0 -63 40.5 -103t100.5 -40
q64 0 104.5 39.5t40.5 103.5t-40.5 103t-104.5 39z" />
    <glyph glyph-name="Amacron" unicode="&#x100;" horiz-adv-x="1478" 
d="M428 330h619l137 -330h309l-623 1444h-262l-622 -1444h303zM518 561l219 545l219 -545h-438zM1083 1556v179h-690v-179h690z" />
    <glyph glyph-name="amacron" unicode="&#x101;" horiz-adv-x="1187" 
d="M791 268q-92 -100 -238 -100q-91 0 -153 45.5t-62 126.5q0 82 68.5 128t166.5 46q114 0 218 -53v-193zM1063 635q0 211 -132.5 321.5t-369.5 110.5q-202 0 -414 -86v-219q164 84 359 84q285 0 285 -197v-31q-113 58 -293 58q-89 0 -164.5 -19.5t-136.5 -58.5t-96 -106.5
t-35 -155.5q0 -111 56.5 -194.5t145 -124t193.5 -40.5q193 0 325 129l277 -118v647zM924 1219v178h-691v-178h691z" />
    <glyph glyph-name="Abreve" unicode="&#x102;" horiz-adv-x="1478" 
d="M428 330h619l137 -330h309l-623 1444h-262l-622 -1444h303zM518 561l219 545l219 -545h-438zM903 1872q-19 -68 -60.5 -104.5t-101.5 -36.5q-62 0 -105.5 37t-62.5 104h-161q15 -149 103.5 -239.5t221.5 -90.5q134 0 225 91.5t103 238.5h-162z" />
    <glyph glyph-name="abreve" unicode="&#x103;" horiz-adv-x="1187" 
d="M791 268q-92 -100 -238 -100q-91 0 -153 45.5t-62 126.5q0 82 68.5 128t166.5 46q114 0 218 -53v-193zM1063 635q0 211 -132.5 321.5t-369.5 110.5q-202 0 -414 -86v-219q164 84 359 84q285 0 285 -197v-31q-113 58 -293 58q-89 0 -164.5 -19.5t-136.5 -58.5t-96 -106.5
t-35 -155.5q0 -111 56.5 -194.5t145 -124t193.5 -40.5q193 0 325 129l277 -118v647zM766 1534q-19 -68 -60.5 -104.5t-101.5 -36.5q-62 0 -105.5 37t-62.5 104h-162q15 -148 104 -239t222 -91q134 0 225 91.5t103 238.5h-162z" />
    <glyph glyph-name="Aogonek" unicode="&#x104;" horiz-adv-x="1478" 
d="M428 330h619l137 -330h309l-623 1444h-262l-622 -1444h303zM518 561l219 545l219 -545h-438zM1456 -264q-60 -23 -102 -23q-39 0 -63.5 22t-24.5 58q0 35 23.5 80.5t84.5 126.5h-190q-35 -44 -55.5 -73.5t-40 -75.5t-19.5 -89q0 -96 69.5 -152t176.5 -56q86 0 176 43z
" />
    <glyph glyph-name="aogonek" unicode="&#x105;" horiz-adv-x="1187" 
d="M791 268q-92 -100 -238 -100q-91 0 -153 45.5t-62 126.5q0 82 68.5 128t166.5 46q114 0 218 -53v-193zM1063 635q0 211 -132.5 321.5t-369.5 110.5q-202 0 -414 -86v-219q164 84 359 84q285 0 285 -197v-31q-113 58 -293 58q-89 0 -164.5 -19.5t-136.5 -58.5t-96 -106.5
t-35 -155.5q0 -111 56.5 -194.5t145 -124t193.5 -40.5q193 0 325 129l277 -118v647zM1145 -264q-60 -23 -103 -23q-41 0 -64.5 23.5t-23.5 60.5q0 69 109 191l-137 73q-89 -92 -128.5 -159.5t-39.5 -134.5q0 -96 70 -154.5t176 -58.5q86 0 176 43z" />
    <glyph glyph-name="Cacute" unicode="&#x106;" horiz-adv-x="1402" 
d="M1300 432q-112 -99 -215.5 -150t-230.5 -51q-140 0 -248 66t-164.5 177t-56.5 247q0 134 57 244.5t165 176.5t247 66q258 0 426 -182v301q-190 139 -438 139q-160 0 -300 -58.5t-239 -158t-156 -237.5t-57 -293q0 -209 98 -381t267.5 -269.5t373.5 -97.5
q140 0 252.5 41.5t218.5 122.5v297zM920 1921l-199 -342h199l280 264z" />
    <glyph glyph-name="cacute" unicode="&#x107;" horiz-adv-x="1011" 
d="M872 1012q-95 57 -254 57q-160 0 -287.5 -75t-196 -199.5t-68.5 -272.5q0 -150 71 -275t196 -197.5t277 -72.5q142 0 273 64v274q-105 -102 -244 -102q-126 0 -212.5 92t-86.5 223t83 219.5t210 88.5q131 0 239 -105v281zM684 1604l-199 -342h199l281 264z" />
    <glyph glyph-name="Ccircumflex" unicode="&#x108;" horiz-adv-x="1402" 
d="M1300 432q-112 -99 -215.5 -150t-230.5 -51q-140 0 -248 66t-164.5 177t-56.5 247q0 134 57 244.5t165 176.5t247 66q258 0 426 -182v301q-190 139 -438 139q-160 0 -300 -58.5t-239 -158t-156 -237.5t-57 -293q0 -209 98 -381t267.5 -269.5t373.5 -97.5
q140 0 252.5 41.5t218.5 122.5v297zM1149 1606l-250 336h-178l-252 -336h203l137 147l141 -147h199z" />
    <glyph glyph-name="ccircumflex" unicode="&#x109;" horiz-adv-x="966" 
d="M872 1012q-95 57 -254 57q-160 0 -287.5 -75t-196 -199.5t-68.5 -272.5q0 -150 71 -275t196 -197.5t277 -72.5q142 0 273 64v274q-105 -102 -244 -102q-126 0 -212.5 92t-86.5 223t83 219.5t210 88.5q131 0 239 -105v281zM911 1268l-249 336h-179l-252 -336h203l137 147
l142 -147h198z" />
    <glyph glyph-name="Cdotaccent" unicode="&#x10a;" horiz-adv-x="1402" 
d="M1300 432q-112 -99 -215.5 -150t-230.5 -51q-140 0 -248 66t-164.5 177t-56.5 247q0 134 57 244.5t165 176.5t247 66q258 0 426 -182v301q-190 139 -438 139q-160 0 -300 -58.5t-239 -158t-156 -237.5t-57 -293q0 -209 98 -381t267.5 -269.5t373.5 -97.5
q140 0 252.5 41.5t218.5 122.5v297zM825 1890q-75 0 -123.5 -43t-48.5 -116q0 -72 50 -117t122 -45q73 0 122.5 45t49.5 117q0 73 -49 116t-123 43z" />
    <glyph glyph-name="cdotaccent" unicode="&#x10b;" horiz-adv-x="921" 
d="M870 1012q-95 57 -254 57q-160 0 -287.5 -75t-196.5 -199.5t-69 -272.5q0 -112 42 -212.5t114 -173.5t173.5 -116t215.5 -43q142 0 273 64v274q-105 -102 -244 -102q-126 0 -212.5 92t-86.5 223t83 219.5t210 88.5q131 0 239 -105v281zM588 1552q-75 0 -123.5 -43
t-48.5 -116q0 -72 50 -117t122 -45q73 0 122.5 45t49.5 117q0 73 -49 116t-123 43z" />
    <glyph glyph-name="Ccaron" unicode="&#x10c;" horiz-adv-x="1402" 
d="M1300 432q-112 -99 -215.5 -150t-230.5 -51q-140 0 -248 66t-164.5 177t-56.5 247q0 134 57 244.5t165 176.5t247 66q258 0 426 -182v301q-190 139 -438 139q-160 0 -300 -58.5t-239 -158t-156 -237.5t-57 -293q0 -209 98 -381t267.5 -269.5t373.5 -97.5
q140 0 252.5 41.5t218.5 122.5v297zM1202 1917h-213l-137 -152l-137 152h-217l262 -338h180z" />
    <glyph glyph-name="ccaron" unicode="&#x10d;" horiz-adv-x="966" 
d="M872 1012q-95 57 -254 57q-160 0 -287.5 -75t-196 -199.5t-68.5 -272.5q0 -150 71 -275t196 -197.5t277 -72.5q142 0 273 64v274q-105 -102 -244 -102q-126 0 -212.5 92t-86.5 223t83 219.5t210 88.5q131 0 239 -105v281zM936 1563h-213l-137 -152l-137 152h-218
l263 -338h180z" />
    <glyph glyph-name="Dcaron" unicode="&#x10e;" horiz-adv-x="1525" 
d="M141 1438v-1438h498q180 0 330 54.5t251.5 150.5t157.5 229t56 289q0 321 -216.5 518t-572.5 197h-504zM428 254v930h264q135 0 238.5 -64.5t156 -169.5t52.5 -231q0 -212 -132.5 -338.5t-363.5 -126.5h-215zM1067 1917h-213l-137 -152l-137 152h-218l263 -338h180z" />
    <glyph glyph-name="dcaron" unicode="&#x10f;" horiz-adv-x="1267" 
d="M1188 -10v1507h-279v-602q-136 178 -356 178q-98 0 -186.5 -39t-155 -109t-106 -174t-39.5 -227q0 -124 39.5 -228t106 -173t155.5 -107.5t188 -38.5q114 0 194 45.5t152 129.5zM625 213q-127 0 -205 92t-78 219q0 138 82.5 226t200.5 88q120 0 205 -89.5t85 -222.5
q0 -136 -84 -224.5t-206 -88.5zM1425 1206l119 412h-213l-71 -412h165z" />
    <glyph glyph-name="Dcroat" unicode="&#x110;" horiz-adv-x="1583" 
d="M199 1438v-1438h497q180 0 329.5 54.5t251 150.5t157 229t55.5 289q0 321 -216.5 518t-572.5 197h-501zM483 254v930h265q135 0 238 -64.5t155.5 -169.5t52.5 -231q0 -212 -132.5 -338.5t-363.5 -126.5h-215zM637 582v249h-612v-249h612z" />
    <glyph glyph-name="dcroat" unicode="&#x111;" horiz-adv-x="1294" 
d="M1190 -10v1507h-279v-602q-140 178 -358 178q-98 0 -186.5 -39t-155 -109t-106 -174t-39.5 -227q0 -124 39.5 -228t106.5 -173t156 -107.5t189 -38.5q113 0 192.5 45.5t151.5 129.5zM625 213q-126 0 -203.5 92t-77.5 219q0 138 82 226t199 88q120 0 206.5 -89.5
t86.5 -222.5q0 -136 -85 -224.5t-208 -88.5zM1303 1153v250h-613v-250h613z" />
    <glyph glyph-name="Emacron" unicode="&#x112;" horiz-adv-x="1325" 
d="M426 248v364h698v234h-698v346h764v246h-1049v-1438h1065v248h-780zM1018 1556v179h-690v-179h690z" />
    <glyph glyph-name="emacron" unicode="&#x113;" horiz-adv-x="1169" 
d="M1006 330q-70 -68 -177 -107t-211 -39q-183 0 -260 148l748 186q-6 111 -43 210t-100 175.5t-159 121t-212 44.5q-152 0 -272.5 -72t-187 -197.5t-66.5 -279.5q0 -238 154.5 -393.5t391.5 -155.5q103 0 208 30t186 87v242zM334 535q0 81 25.5 151t84 118t140.5 48
q93 0 157 -54.5t88 -146.5l-493 -127zM940 1219v178h-690v-178h690z" />
    <glyph glyph-name="Ebreve" unicode="&#x114;" horiz-adv-x="1325" 
d="M426 248v364h698v234h-698v346h764v246h-1049v-1438h1065v248h-780zM852 1872q-19 -68 -60.5 -104.5t-101.5 -36.5q-62 0 -105.5 37t-62.5 104h-162q15 -148 104 -239t222 -91q134 0 225 91.5t103 238.5h-162z" />
    <glyph glyph-name="ebreve" unicode="&#x115;" horiz-adv-x="1169" 
d="M1006 330q-70 -68 -177 -107t-211 -39q-183 0 -260 148l748 186q-6 111 -43 210t-100 175.5t-159 121t-212 44.5q-152 0 -272.5 -72t-187 -197.5t-66.5 -279.5q0 -238 154.5 -393.5t391.5 -155.5q103 0 208 30t186 87v242zM334 535q0 81 25.5 151t84 118t140.5 48
q93 0 157 -54.5t88 -146.5l-493 -127zM774 1534q-19 -68 -60.5 -104.5t-101.5 -36.5q-62 0 -105.5 37t-62.5 104h-161q15 -149 103.5 -239.5t221.5 -90.5q134 0 225 91.5t103 238.5h-162z" />
    <glyph glyph-name="Edotaccent" unicode="&#x116;" horiz-adv-x="1325" 
d="M426 248v364h698v234h-698v346h764v246h-1049v-1438h1065v248h-780zM688 1890q-75 0 -123.5 -43t-48.5 -116q0 -72 50 -117t122 -45q73 0 122.5 45t49.5 117q0 73 -49 116t-123 43z" />
    <glyph glyph-name="edotaccent" unicode="&#x117;" horiz-adv-x="1169" 
d="M1006 330q-70 -68 -177 -107t-211 -39q-183 0 -260 148l748 186q-6 111 -43 210t-100 175.5t-159 121t-212 44.5q-152 0 -272.5 -72t-187 -197.5t-66.5 -279.5q0 -238 154.5 -393.5t391.5 -155.5q103 0 208 30t186 87v242zM334 535q0 81 25.5 151t84 118t140.5 48
q93 0 157 -54.5t88 -146.5l-493 -127zM602 1552q-75 0 -123.5 -43t-48.5 -116q0 -72 50 -117t122 -45q73 0 122.5 45t49.5 117q0 73 -49 116t-123 43z" />
    <glyph glyph-name="Eogonek" unicode="&#x118;" horiz-adv-x="1325" 
d="M426 248v364h698v234h-698v346h764v246h-1049v-1438h1065v248h-780zM1288 -264q-60 -23 -102 -23q-39 0 -63.5 22t-24.5 58q0 35 23.5 80.5t84.5 126.5h-190q-35 -44 -55.5 -73.5t-40 -75.5t-19.5 -89q0 -96 69.5 -152t176.5 -56q86 0 176 43z" />
    <glyph glyph-name="eogonek" unicode="&#x119;" horiz-adv-x="1169" 
d="M1006 330q-70 -68 -177 -107t-211 -39q-183 0 -260 148l748 186q-6 111 -43 210t-100 175.5t-159 121t-212 44.5q-152 0 -272.5 -72t-187 -197.5t-66.5 -279.5q0 -238 154.5 -393.5t391.5 -155.5q103 0 208 30t186 87v242zM334 535q0 81 25.5 151t84 118t140.5 48
q93 0 157 -54.5t88 -146.5l-493 -127zM997 -262q-60 -23 -102 -23q-39 0 -63.5 23t-24.5 63q0 104 201 289l-283 -88q-115 -123 -115 -238q0 -96 69.5 -152t176.5 -56q86 0 176 43z" />
    <glyph glyph-name="Ecaron" unicode="&#x11a;" horiz-adv-x="1325" 
d="M426 248v364h698v234h-698v346h764v246h-1049v-1438h1065v248h-780zM1044 1917h-213l-137 -152l-137 152h-217l262 -338h180z" />
    <glyph glyph-name="ecaron" unicode="&#x11b;" horiz-adv-x="1169" 
d="M1006 330q-70 -68 -177 -107t-211 -39q-183 0 -260 148l748 186q-6 111 -43 210t-100 175.5t-159 121t-212 44.5q-152 0 -272.5 -72t-187 -197.5t-66.5 -279.5q0 -238 154.5 -393.5t391.5 -155.5q103 0 208 30t186 87v242zM334 535q0 81 25.5 151t84 118t140.5 48
q93 0 157 -54.5t88 -146.5l-493 -127zM942 1563h-213l-137 -152l-137 152h-217l262 -338h180z" />
    <glyph glyph-name="Gcircumflex" unicode="&#x11c;" horiz-adv-x="1628" 
d="M1268 602q0 -118 -59.5 -207t-152.5 -132.5t-204 -43.5q-199 0 -335 143t-136 357q0 132 67 245.5t183 180.5t254 67q242 0 411 -159v307q-176 106 -428 106q-216 0 -394.5 -99t-281 -270.5t-102.5 -377.5q0 -210 98 -382t269.5 -270t380.5 -98q156 0 283.5 50.5
t220.5 148t144.5 248.5t51.5 344v67h-629v-225h359zM1194 1606l-250 336h-178l-252 -336h203l137 147l141 -147h199z" />
    <glyph glyph-name="gcircumflex" unicode="&#x11d;" horiz-adv-x="1323" 
d="M637 293q-123 0 -203 78.5t-80 199.5q0 122 79 200.5t202 78.5q125 0 208 -79t83 -200q0 -120 -83 -199t-206 -79zM926 168q0 -322 -353 -322q-232 0 -440 148v-246q208 -113 442 -113q185 0 324 61t220 188.5t81 308.5v856l-291 -138q-70 78 -152 120t-196 42
q-99 0 -187.5 -36.5t-154.5 -101t-104.5 -160.5t-38.5 -208q0 -220 139.5 -358.5t345.5 -138.5q117 0 204 47.5t161 134.5v-84zM991 1268l-250 336h-178l-252 -336h203l137 147l142 -147h198z" />
    <glyph glyph-name="Gbreve" unicode="&#x11e;" horiz-adv-x="1628" 
d="M1268 602q0 -118 -59.5 -207t-152.5 -132.5t-204 -43.5q-199 0 -335 143t-136 357q0 132 67 245.5t183 180.5t254 67q242 0 411 -159v307q-176 106 -428 106q-216 0 -394.5 -99t-281 -270.5t-102.5 -377.5q0 -210 98 -382t269.5 -270t380.5 -98q156 0 283.5 50.5
t220.5 148t144.5 248.5t51.5 344v67h-629v-225h359zM1026 1872q-19 -68 -60.5 -104.5t-101.5 -36.5q-62 0 -105.5 37t-62.5 104h-161q15 -149 103.5 -239.5t221.5 -90.5q134 0 225 91.5t103 238.5h-162z" />
    <glyph glyph-name="gbreve" unicode="&#x11f;" horiz-adv-x="1323" 
d="M637 293q-123 0 -203 78.5t-80 199.5q0 122 79 200.5t202 78.5q125 0 208 -79t83 -200q0 -120 -83 -199t-206 -79zM926 168q0 -322 -353 -322q-232 0 -440 148v-246q208 -113 442 -113q185 0 324 61t220 188.5t81 308.5v856l-291 -138q-70 78 -152 120t-196 42
q-99 0 -187.5 -36.5t-154.5 -101t-104.5 -160.5t-38.5 -208q0 -220 139.5 -358.5t345.5 -138.5q117 0 204 47.5t161 134.5v-84zM848 1534q-19 -68 -60.5 -104.5t-101.5 -36.5q-62 0 -105.5 37t-62.5 104h-162q15 -148 104 -239t222 -91q134 0 225 91.5t103 238.5h-162z" />
    <glyph glyph-name="Gdotaccent" unicode="&#x120;" horiz-adv-x="1628" 
d="M1268 602q0 -118 -59.5 -207t-152.5 -132.5t-204 -43.5q-199 0 -335 143t-136 357q0 132 67 245.5t183 180.5t254 67q242 0 411 -159v307q-176 106 -428 106q-216 0 -394.5 -99t-281 -270.5t-102.5 -377.5q0 -210 98 -382t269.5 -270t380.5 -98q156 0 283.5 50.5
t220.5 148t144.5 248.5t51.5 344v67h-629v-225h359zM815 1903q-75 0 -123.5 -43.5t-48.5 -116.5q0 -72 50 -117t122 -45q73 0 122.5 45t49.5 117q0 73 -49 116.5t-123 43.5z" />
    <glyph glyph-name="gdotaccent" unicode="&#x121;" horiz-adv-x="1298" 
d="M629 293q-123 0 -203 78.5t-80 199.5q0 122 79 200.5t202 78.5q125 0 208 -79t83 -200q0 -120 -83 -199t-206 -79zM918 168q0 -322 -353 -322q-232 0 -440 148v-246q208 -113 442 -113q185 0 324 61t220 188.5t81 308.5v856l-291 -138q-70 78 -152 120t-196 42
q-99 0 -187.5 -36.5t-154.5 -101t-104.5 -160.5t-38.5 -208q0 -220 139.5 -358.5t345.5 -138.5q117 0 204 47.5t161 134.5v-84zM655 1552q-75 0 -123.5 -43t-48.5 -116q0 -72 50 -117t122 -45q73 0 122.5 45t49.5 117q0 73 -49 116t-123 43z" />
    <glyph glyph-name="uni0122" unicode="&#x122;" horiz-adv-x="1628" 
d="M1268 602q0 -118 -59.5 -207t-152.5 -132.5t-204 -43.5q-199 0 -335 143t-136 357q0 132 67 245.5t183 180.5t254 67q242 0 411 -159v307q-176 106 -428 106q-216 0 -394.5 -99t-281 -270.5t-102.5 -377.5q0 -210 98 -382t269.5 -270t380.5 -98q156 0 283.5 50.5
t220.5 148t144.5 248.5t51.5 344v67h-629v-225h359zM784 -528l117 411h-213l-72 -411h168z" />
    <glyph glyph-name="uni0123" unicode="&#x123;" horiz-adv-x="1327" 
d="M637 293q-123 0 -203 78.5t-80 199.5q0 122 79 200.5t202 78.5q125 0 208 -79t83 -200q0 -120 -83 -199t-206 -79zM926 168q0 -322 -353 -322q-232 0 -440 148v-246q208 -113 442 -113q185 0 324 61t220 188.5t81 308.5v856l-291 -138q-70 78 -152 120t-196 42
q-99 0 -187.5 -36.5t-154.5 -101t-104.5 -160.5t-38.5 -208q0 -220 139.5 -358.5t345.5 -138.5q117 0 204 47.5t161 134.5v-84zM717 1620l-178 -428h288l91 428h-201z" />
    <glyph glyph-name="Hcircumflex" unicode="&#x124;" horiz-adv-x="1499" 
d="M141 1440v-1440h285v600h647v-600h285v1440h-285v-584h-647v584h-285zM1090 1606l-250 336h-178l-252 -336h202l138 147l141 -147h199z" />
    <glyph glyph-name="hcircumflex" unicode="&#x125;" horiz-adv-x="1433" 
d="M1225 674q0 183 -95 290t-270 107q-205 0 -338 -166v592h-270v-1497h278v586q0 109 65.5 169t160.5 60q91 0 140.5 -57.5t49.5 -171.5v-586h279v674zM731 1638l-250 336h-178l-252 -336h203l137 148l141 -148h199z" />
    <glyph glyph-name="Hbar" unicode="&#x126;" horiz-adv-x="1552" 
d="M168 1440v-1440h285v600h647v-600h284v1440h-284v-584h-647v584h-285zM61 1069h1430v178h-1430v-178z" />
    <glyph glyph-name="hbar" unicode="&#x127;" horiz-adv-x="1200" 
d="M1087 674q0 184 -94.5 290.5t-269.5 106.5q-205 0 -338 -166v592h-270v-1497h278v586q0 109 65 169t160 60q91 0 141 -58t50 -171v-586h278v674zM653 1219v178h-690v-178h690z" />
    <glyph glyph-name="Itilde" unicode="&#x128;" horiz-adv-x="567" 
d="M428 0v1438h-287v-1438h287zM80 1565q31 94 96 94q32 0 113 -37t131 -37q81 0 135 65.5t90 188.5l-160 31q-15 -50 -32.5 -71t-46.5 -21t-112 36.5t-136 36.5q-166 0 -238 -260z" />
    <glyph glyph-name="itilde" unicode="&#x129;" horiz-adv-x="522" 
d="M399 0v1049h-278v-1049h278zM66 1227q31 94 96 94q32 0 113 -37t131 -37q81 0 135 65.5t90 188.5l-160 31q-15 -50 -33 -71t-47 -21t-112 36.5t-136 36.5q-165 0 -237 -260z" />
    <glyph glyph-name="Imacron" unicode="&#x12a;" horiz-adv-x="567" 
d="M428 0v1438h-287v-1438h287zM627 1556v179h-690v-179h690z" />
    <glyph glyph-name="imacron" unicode="&#x12b;" horiz-adv-x="522" 
d="M399 0v1049h-278v-1049h278zM606 1219v178h-690v-178h690z" />
    <glyph glyph-name="Ibreve" unicode="&#x12c;" horiz-adv-x="567" 
d="M428 0v1438h-287v-1438h287zM449 1876q-19 -68 -60.5 -104.5t-101.5 -36.5q-62 0 -105.5 37t-62.5 104h-162q15 -148 104 -239t222 -91q134 0 224.5 91t102.5 239h-161z" />
    <glyph glyph-name="ibreve" unicode="&#x12d;" horiz-adv-x="522" 
d="M399 0v1049h-278v-1049h278zM426 1534q-19 -68 -60.5 -104.5t-101.5 -36.5q-62 0 -105.5 37t-62.5 104h-162q15 -148 104 -239t222 -91q134 0 225 91.5t103 238.5h-162z" />
    <glyph glyph-name="Iogonek" unicode="&#x12e;" horiz-adv-x="567" 
d="M428 0v1438h-287v-1438h287zM510 -264q-60 -23 -102 -23q-39 0 -64 22t-25 58q0 35 23.5 80t85.5 127h-190q-35 -44 -55.5 -73.5t-40 -75.5t-19.5 -89q0 -96 69.5 -152t176.5 -56q86 0 176 43z" />
    <glyph glyph-name="iogonek" unicode="&#x12f;" horiz-adv-x="532" 
d="M406 0v1049h-279v-1049h279zM264 1513q-75 0 -122.5 -42.5t-47.5 -116.5q0 -72 49 -116t121 -44q75 0 123.5 44t48.5 116q0 75 -48 117t-124 42zM487 -264q-60 -23 -102 -23q-39 0 -63.5 22t-24.5 58q0 35 23.5 80t85.5 127h-191q-35 -44 -55.5 -73.5t-40 -75.5
t-19.5 -89q0 -96 69.5 -152t176.5 -56q86 0 176 43z" />
    <glyph glyph-name="Idotaccent" unicode="&#x130;" horiz-adv-x="567" 
d="M428 0v1438h-287v-1438h287zM285 1890q-75 0 -123.5 -43t-48.5 -116q0 -72 50 -117t122 -45q73 0 122.5 45t49.5 117q0 73 -49 116t-123 43z" />
    <glyph glyph-name="dotlessi" unicode="&#x131;" horiz-adv-x="522" 
d="M399 0v1049h-278v-1049h278z" />
    <glyph glyph-name="IJ" unicode="&#x132;" horiz-adv-x="1429" 
d="M428 0v1438h-287v-1438h287zM567 63q133 -86 271 -86q218 0 341.5 132.5t123.5 367.5v961h-287v-963q0 -246 -191 -246q-48 0 -97.5 19t-80.5 39t-80 57v-281z" />
    <glyph glyph-name="ij" unicode="&#x133;" horiz-adv-x="1038" 
d="M406 0v1049h-279v-1049h279zM264 1513q-75 0 -122.5 -42.5t-47.5 -116.5q0 -72 49 -116t121 -44q75 0 123.5 44t48.5 116q0 75 -48 117t-124 42zM471 -352q73 -15 129 -15q168 0 241.5 88t73.5 265v1063h-278v-1080q0 -129 -94 -129q-25 0 -72 15v-207zM772 1513
q-75 0 -123.5 -43t-48.5 -116q0 -72 48.5 -116t123.5 -44q71 0 121.5 44.5t50.5 115.5q0 74 -50 116.5t-122 42.5z" />
    <glyph glyph-name="Jcircumflex" unicode="&#x134;" horiz-adv-x="864" 
d="M0 63q133 -86 270 -86q218 0 341.5 132.5t123.5 367.5v961h-286v-963q0 -246 -191 -246q-48 0 -97.5 19t-80.5 39t-80 57v-281zM940 1606l-250 336h-178l-252 -336h203l137 147l141 -147h199z" />
    <glyph glyph-name="jcircumflex" unicode="&#x135;" horiz-adv-x="477" 
d="M-51 -352q77 -15 131 -15q168 0 241.5 88t73.5 265v1063h-278v-1080q0 -129 -94 -129q-23 0 -74 15v-207zM590 1268l-250 336h-178l-252 -336h203l137 147l141 -147h199z" />
    <glyph glyph-name="uni0136" unicode="&#x136;" horiz-adv-x="1320" 
d="M426 844v594h-285v-1438h285v715l555 -715h350l-620 793l581 645h-346zM627 -535l116 412h-213l-71 -412h168z" />
    <glyph glyph-name="uni0137" unicode="&#x137;" horiz-adv-x="1081" 
d="M399 655v842h-278v-1497h278v510l365 -510h317l-432 592l418 457h-330zM496 -535l116 412h-213l-71 -412h168z" />
    <glyph glyph-name="kgreenlandic" unicode="&#x138;" horiz-adv-x="1089" 
d="M399 655v394h-278v-1049h278v510l365 -510h317l-432 592l418 457h-330z" />
    <glyph glyph-name="Lacute" unicode="&#x139;" horiz-adv-x="1148" 
d="M416 252v1186h-287v-1438h987v252h-700zM383 1921l-199 -342h199l281 264z" />
    <glyph glyph-name="lacute" unicode="&#x13a;" horiz-adv-x="567" 
d="M428 0v1438h-287v-1438h287zM367 1921l-199 -342h199l280 264z" />
    <glyph glyph-name="uni013B" unicode="&#x13b;" horiz-adv-x="1185" 
d="M436 252v1186h-286v-1438h987v252h-701zM590 -535l117 412h-213l-72 -412h168z" />
    <glyph glyph-name="uni013C" unicode="&#x13c;" horiz-adv-x="567" 
d="M428 0v1438h-287v-1438h287zM217 -535l117 412h-213l-72 -412h168z" />
    <glyph glyph-name="Lcaron" unicode="&#x13d;" horiz-adv-x="1136" 
d="M428 252v1186h-287v-1438h987v252h-700zM909 1206l119 412h-213l-72 -412h166z" />
    <glyph glyph-name="lcaron" unicode="&#x13e;" horiz-adv-x="522" 
d="M399 0v1497h-278v-1497h278zM668 1206l118 412h-213l-71 -412h166z" />
    <glyph glyph-name="Ldot" unicode="&#x13f;" horiz-adv-x="1132" 
d="M428 252v1186h-287v-1438h987v252h-700zM874 918q-75 0 -123.5 -43.5t-48.5 -116.5q0 -72 50 -117t122 -45q74 0 123.5 45t49.5 117q0 73 -49.5 116.5t-123.5 43.5z" />
    <glyph glyph-name="ldot" unicode="&#x140;" horiz-adv-x="774" 
d="M399 0v1497h-278v-1497h278zM672 918q-75 0 -123.5 -43.5t-48.5 -116.5q0 -72 50 -117t122 -45q73 0 122.5 45t49.5 117q0 73 -49 116.5t-123 43.5z" />
    <glyph glyph-name="Lslash" unicode="&#x141;" horiz-adv-x="1148" 
d="M428 252v1186h-287v-1438h987v252h-700zM911 399v244h-909v-244h909z" />
    <glyph glyph-name="lslash" unicode="&#x142;" horiz-adv-x="706" 
d="M418 0v1497h-279v-1497h279zM680 373v243h-680v-243h680z" />
    <glyph glyph-name="Nacute" unicode="&#x143;" horiz-adv-x="1560" 
d="M1139 467l-725 967h-273v-1434h281v985l737 -985h260v1438h-280v-971zM842 1921l-199 -342h199l280 264z" />
    <glyph glyph-name="nacute" unicode="&#x144;" horiz-adv-x="1206" 
d="M1094 674q0 181 -96.5 289t-270.5 108q-191 0 -326 -164l-280 142v-1049h278v586q0 120 65.5 179.5t151.5 59.5q85 0 142 -59t57 -180v-586h279v674zM735 1604l-198 -342h198l281 264z" />
    <glyph glyph-name="uni0145" unicode="&#x145;" horiz-adv-x="1574" 
d="M1147 467l-725 967h-272v-1434h280v985l737 -985h260v1438h-280v-971zM739 -535l117 412h-213l-72 -412h168z" />
    <glyph glyph-name="uni0146" unicode="&#x146;" horiz-adv-x="1234" 
d="M1106 674q0 181 -96.5 289t-270.5 108q-190 0 -325 -164l-281 142v-1049h279v586q0 120 65.5 179.5t151.5 59.5q84 0 141 -59t57 -180v-586h279v674zM549 -535l117 412h-213l-72 -412h168z" />
    <glyph glyph-name="Ncaron" unicode="&#x147;" horiz-adv-x="1560" 
d="M1139 467l-725 967h-273v-1434h281v985l737 -985h260v1438h-280v-971zM1141 1917h-213l-137 -152l-138 152h-217l262 -338h181z" />
    <glyph glyph-name="ncaron" unicode="&#x148;" horiz-adv-x="1206" 
d="M1094 674q0 181 -96.5 289t-270.5 108q-191 0 -326 -164l-280 142v-1049h278v586q0 120 65.5 179.5t151.5 59.5q85 0 142 -59t57 -180v-586h279v674zM971 1563h-213l-137 -152l-138 152h-217l262 -338h181z" />
    <glyph glyph-name="Eng" unicode="&#x14a;" horiz-adv-x="1560" 
d="M141 1434v-1434h281v985l719 -962v-62q0 -121 -94 -121q-23 0 -74 15v-207q73 -15 131 -15q167 0 241 88.5t74 264.5v98v1354h-280v-971l-725 967h-273z" />
    <glyph glyph-name="eng" unicode="&#x14b;" horiz-adv-x="1206" 
d="M121 1049v-1049h278v586q0 120 65.5 179.5t151.5 59.5q85 0 142 -59t57 -180v-617q0 -129 -94 -129q-23 0 -74 15v-207q73 -15 131 -15q167 0 241.5 88.5t74.5 264.5v688q0 186 -100.5 291.5t-266.5 105.5q-191 0 -326 -164z" />
    <glyph glyph-name="Omacron" unicode="&#x14c;" horiz-adv-x="1699" 
d="M850 -29q211 0 386 99.5t275.5 272t100.5 380.5q0 122 -36.5 234.5t-105 204.5t-161 160.5t-210.5 106t-247 37.5q-161 0 -303.5 -59t-242.5 -159t-158 -238t-58 -291q0 -154 57.5 -292t157.5 -238.5t242 -159t303 -58.5zM850 1210q136 0 244.5 -68.5t166.5 -180.5
t58 -244t-59 -243t-166.5 -178t-241.5 -67q-135 0 -243 66.5t-167 179.5t-59 248q0 133 58.5 244t166 177t242.5 66zM1198 1556v179h-690v-179h690z" />
    <glyph glyph-name="omacron" unicode="&#x14d;" horiz-adv-x="1273" 
d="M633 -25q156 0 288 71.5t209.5 198.5t77.5 281q0 150 -73 275t-204.5 198.5t-293.5 73.5t-293.5 -74.5t-204.5 -200.5t-73 -276t72.5 -275t203 -198.5t291.5 -73.5zM633 838q131 0 216 -92.5t85 -221.5t-84.5 -220t-212.5 -91q-127 0 -212 90t-85 223q0 132 81 222
t212 90zM981 1219v178h-690v-178h690z" />
    <glyph glyph-name="Obreve" unicode="&#x14e;" horiz-adv-x="1699" 
d="M850 -29q211 0 386 99.5t275.5 272t100.5 380.5q0 122 -36.5 234.5t-105 204.5t-161 160.5t-210.5 106t-247 37.5q-161 0 -303.5 -59t-242.5 -159t-158 -238t-58 -291q0 -154 57.5 -292t157.5 -238.5t242 -159t303 -58.5zM850 1210q136 0 244.5 -68.5t166.5 -180.5
t58 -244t-59 -243t-166.5 -178t-241.5 -67q-135 0 -243 66.5t-167 179.5t-59 248q0 133 58.5 244t166 177t242.5 66zM1010 1872q-19 -68 -60.5 -104.5t-101.5 -36.5q-62 0 -105.5 37t-62.5 104h-162q15 -148 104 -239t222 -91q134 0 224.5 91t102.5 239h-161z" />
    <glyph glyph-name="obreve" unicode="&#x14f;" horiz-adv-x="1273" 
d="M633 -25q156 0 288 71.5t209.5 198.5t77.5 281q0 150 -73 275t-204.5 198.5t-293.5 73.5t-293.5 -74.5t-204.5 -200.5t-73 -276t72.5 -275t203 -198.5t291.5 -73.5zM633 838q131 0 216 -92.5t85 -221.5t-84.5 -220t-212.5 -91q-127 0 -212 90t-85 223q0 132 81 222
t212 90zM811 1534q-19 -68 -60.5 -104.5t-101.5 -36.5q-62 0 -105.5 37t-62.5 104h-162q15 -148 104 -239t222 -91q134 0 225 91.5t103 238.5h-162z" />
    <glyph glyph-name="Ohungarumlaut" unicode="&#x150;" horiz-adv-x="1699" 
d="M850 -29q211 0 386 99.5t275.5 272t100.5 380.5q0 122 -36.5 234.5t-105 204.5t-161 160.5t-210.5 106t-247 37.5q-161 0 -303.5 -59t-242.5 -159t-158 -238t-58 -291q0 -154 57.5 -292t157.5 -238.5t242 -159t303 -58.5zM850 1210q136 0 244.5 -68.5t166.5 -180.5
t58 -244t-59 -243t-166.5 -178t-241.5 -67q-135 0 -243 66.5t-167 179.5t-59 248q0 133 58.5 244t166 177t242.5 66zM750 1573l290 307l-249 47l-240 -354h199zM1143 1573l291 305l-250 49l-238 -354h197z" />
    <glyph glyph-name="ohungarumlaut" unicode="&#x151;" horiz-adv-x="1296" 
d="M633 -25q156 0 288 71.5t209.5 198.5t77.5 281q0 150 -73 275t-204.5 198.5t-293.5 73.5t-293.5 -74.5t-204.5 -200.5t-73 -276t72.5 -275t203 -198.5t291.5 -73.5zM633 838q131 0 216 -92.5t85 -221.5t-84.5 -220t-212.5 -91q-127 0 -212 90t-85 223q0 132 81 222
t212 90zM535 1235l290 307l-250 47l-239 -354h199zM928 1235l291 305l-250 49l-238 -354h197z" />
    <glyph glyph-name="OE" unicode="&#x152;" horiz-adv-x="2228" 
d="M1047 1163q-96 47 -191 47q-207 0 -340 -139.5t-133 -347.5q0 -147 69 -259.5t185.5 -171.5t261.5 -59q71 0 148 41v889zM1331 612v-364h778v-248h-1032q-102 -27 -215 -27q-213 0 -390 97.5t-279.5 269t-102.5 379.5q0 153 58 291t158 238t242.5 159t303.5 59
q108 0 217 -28h1024v-246h-762v-346h697v-234h-697z" />
    <glyph glyph-name="oe" unicode="&#x153;" horiz-adv-x="2068" 
d="M1903 330q-71 -68 -177 -107t-210 -39q-171 0 -248 148l735 186q-6 111 -43 210t-100 175.5t-159 121t-212 44.5q-134 0 -236.5 -56.5t-165.5 -158.5q-75 102 -191.5 160.5t-258.5 58.5q-162 0 -293.5 -74.5t-204.5 -200.5t-73 -276t72.5 -275t203 -198.5t291.5 -73.5
q140 0 256.5 58t191.5 160q67 -107 176 -164.5t252 -57.5q103 0 208 30t186 87v242zM633 838q131 0 216 -92.5t85 -221.5t-84.5 -220t-212.5 -91q-127 0 -212 90t-85 223q0 132 81 222t212 90zM1237 537q-2 83 18 151.5t73 116t134 47.5q93 0 158.5 -55t87.5 -146z" />
    <glyph glyph-name="Racute" unicode="&#x154;" horiz-adv-x="1310" 
d="M141 0h289v524h178l369 -524h334l-406 561q162 45 254 154.5t92 271.5q0 205 -145 328t-401 123h-564v-1438zM430 750v440h254q281 0 281 -217q0 -110 -80 -166.5t-217 -56.5h-238zM754 1921l-199 -342h199l280 264z" />
    <glyph glyph-name="racute" unicode="&#x155;" horiz-adv-x="823" 
d="M772 1061q-24 6 -53 6q-103 0 -184 -48.5t-134 -137.5l-280 168v-1049h278v451q0 86 25 152t68.5 105.5t98.5 59.5t120 20q41 0 61 -10v283zM537 1604l-199 -342h199l280 264z" />
    <glyph glyph-name="uni0156" unicode="&#x156;" horiz-adv-x="1310" 
d="M141 0h289v524h178l369 -524h334l-406 561q162 45 254 154.5t92 271.5q0 205 -145 328t-401 123h-564v-1438zM430 750v440h254q281 0 281 -217q0 -110 -80 -166.5t-217 -56.5h-238zM631 -535l117 412h-213l-72 -412h168z" />
    <glyph glyph-name="uni0157" unicode="&#x157;" horiz-adv-x="778" 
d="M772 1061q-24 6 -53 6q-103 0 -184 -48.5t-134 -137.5l-280 168v-1049h278v451q0 86 25 152t68.5 105.5t98.5 59.5t120 20q41 0 61 -10v283zM215 -535l117 412h-213l-72 -412h168z" />
    <glyph glyph-name="Rcaron" unicode="&#x158;" horiz-adv-x="1310" 
d="M141 0h289v524h178l369 -524h334l-406 561q162 45 254 154.5t92 271.5q0 205 -145 328t-401 123h-564v-1438zM430 750v440h254q281 0 281 -217q0 -110 -80 -166.5t-217 -56.5h-238zM995 1917h-213l-137 -152l-137 152h-217l262 -338h180z" />
    <glyph glyph-name="rcaron" unicode="&#x159;" horiz-adv-x="778" 
d="M772 1061q-24 6 -53 6q-103 0 -184 -48.5t-134 -137.5l-280 168v-1049h278v451q0 86 25 152t68.5 105.5t98.5 59.5t120 20q41 0 61 -10v283zM799 1563h-213l-137 -152l-138 152h-217l262 -338h181z" />
    <glyph glyph-name="Sacute" unicode="&#x15a;" horiz-adv-x="1222" 
d="M860 377q0 -47 -23.5 -80t-62.5 -49.5t-78 -23.5t-82 -7q-141 0 -290.5 61.5t-272.5 174.5v-273q221 -205 559 -205q108 0 203 24.5t170.5 73t119.5 129t44 183.5q0 105 -42 187t-109 132.5t-148 89.5t-162 68t-148 58t-109 69.5t-42 93.5q0 66 60.5 106t166.5 40
q115 0 237.5 -54t217.5 -151v287q-184 153 -469 153q-100 0 -189 -25.5t-159 -74t-111 -125.5t-41 -172q0 -99 42 -176t109 -125t148 -86.5t162 -68.5t148 -60.5t109 -74t42 -99.5zM692 1921l-198 -342h198l281 264z" />
    <glyph glyph-name="sacute" unicode="&#x15b;" horiz-adv-x="901" 
d="M582 291q0 -56 -46.5 -81.5t-109.5 -25.5q-87 0 -188 43t-185 109v-250q106 -53 194.5 -81t194.5 -28q179 0 287.5 90t108.5 236q0 71 -29.5 128t-76 92.5t-103 64t-113.5 49.5t-103.5 41t-76 46t-29.5 58q0 35 32 58.5t89 23.5q69 0 158 -35.5t168 -87.5v248
q-152 82 -326 82q-170 0 -273.5 -81.5t-103.5 -221.5q0 -71 29.5 -126.5t76 -90t103 -61t113.5 -46.5t103.5 -40.5t76 -48.5t29.5 -64zM522 1604l-198 -342h198l281 264z" />
    <glyph glyph-name="Scircumflex" unicode="&#x15c;" horiz-adv-x="1222" 
d="M860 377q0 -47 -23.5 -80t-62.5 -49.5t-78 -23.5t-82 -7q-141 0 -290.5 61.5t-272.5 174.5v-273q221 -205 559 -205q108 0 203 24.5t170.5 73t119.5 129t44 183.5q0 105 -42 187t-109 132.5t-148 89.5t-162 68t-148 58t-109 69.5t-42 93.5q0 66 60.5 106t166.5 40
q115 0 237.5 -54t217.5 -151v287q-184 153 -469 153q-100 0 -189 -25.5t-159 -74t-111 -125.5t-41 -172q0 -99 42 -176t109 -125t148 -86.5t162 -68.5t148 -60.5t109 -74t42 -99.5zM948 1606l-250 336h-178l-252 -336h203l137 147l142 -147h198z" />
    <glyph glyph-name="scircumflex" unicode="&#x15d;" horiz-adv-x="901" 
d="M582 291q0 -56 -46.5 -81.5t-109.5 -25.5q-87 0 -188 43t-185 109v-250q106 -53 194.5 -81t194.5 -28q179 0 287.5 90t108.5 236q0 71 -29.5 128t-76 92.5t-103 64t-113.5 49.5t-103.5 41t-76 46t-29.5 58q0 35 32 58.5t89 23.5q69 0 158 -35.5t168 -87.5v248
q-152 82 -326 82q-170 0 -273.5 -81.5t-103.5 -221.5q0 -71 29.5 -126.5t76 -90t103 -61t113.5 -46.5t103.5 -40.5t76 -48.5t29.5 -64zM758 1268l-250 336h-178l-252 -336h203l137 147l141 -147h199z" />
    <glyph glyph-name="Scedilla" unicode="&#x15e;" horiz-adv-x="1222" 
d="M860 377q0 -47 -23.5 -80t-62.5 -49.5t-78 -23.5t-82 -7q-141 0 -290.5 61.5t-272.5 174.5v-273q221 -205 559 -205q108 0 203 24.5t170.5 73t119.5 129t44 183.5q0 105 -42 187t-109 132.5t-148 89.5t-162 68t-148 58t-109 69.5t-42 93.5q0 66 60.5 106t166.5 40
q115 0 237.5 -54t217.5 -151v287q-184 153 -469 153q-100 0 -189 -25.5t-159 -74t-111 -125.5t-41 -172q0 -99 42 -176t109 -125t148 -86.5t162 -68.5t148 -60.5t109 -74t42 -99.5zM596 -141l86 141h-139l-133 -203l49 -41q46 19 78 19q81 0 81 -58q0 -38 -38.5 -56.5
t-81.5 -18.5q-62 0 -123 26l-39 -98q92 -47 194 -47q44 0 86.5 10t80.5 30.5t61.5 57.5t23.5 86q0 76 -53 114t-123 38h-10z" />
    <glyph glyph-name="scedilla" unicode="&#x15f;" horiz-adv-x="901" 
d="M582 291q0 -56 -46.5 -81.5t-109.5 -25.5q-87 0 -188 43t-185 109v-250q106 -53 194.5 -81t194.5 -28q179 0 287.5 90t108.5 236q0 71 -29.5 128t-76 92.5t-103 64t-113.5 49.5t-103.5 41t-76 46t-29.5 58q0 35 32 58.5t89 23.5q69 0 158 -35.5t168 -87.5v248
q-152 82 -326 82q-170 0 -273.5 -81.5t-103.5 -221.5q0 -71 29.5 -126.5t76 -90t103 -61t113.5 -46.5t103.5 -40.5t76 -48.5t29.5 -64zM430 -141l86 141h-139l-133 -203l49 -41q46 19 78 19q38 0 60 -15t22 -43q0 -38 -39 -56.5t-82 -18.5q-62 0 -123 26l-39 -98
q92 -47 195 -47q44 0 86.5 10t80.5 30.5t61 57.5t23 86q0 76 -53 114t-123 38h-10z" />
    <glyph glyph-name="Scaron" unicode="&#x160;" horiz-adv-x="1222" 
d="M860 377q0 -47 -23.5 -80t-62.5 -49.5t-78 -23.5t-82 -7q-141 0 -290.5 61.5t-272.5 174.5v-273q221 -205 559 -205q108 0 203 24.5t170.5 73t119.5 129t44 183.5q0 105 -42 187t-109 132.5t-148 89.5t-162 68t-148 58t-109 69.5t-42 93.5q0 66 60.5 106t166.5 40
q115 0 237.5 -54t217.5 -151v287q-184 153 -469 153q-100 0 -189 -25.5t-159 -74t-111 -125.5t-41 -172q0 -99 42 -176t109 -125t148 -86.5t162 -68.5t148 -60.5t109 -74t42 -99.5zM961 1917h-213l-138 -152l-137 152h-217l262 -338h180z" />
    <glyph glyph-name="scaron" unicode="&#x161;" horiz-adv-x="901" 
d="M582 291q0 -56 -46.5 -81.5t-109.5 -25.5q-87 0 -188 43t-185 109v-250q106 -53 194.5 -81t194.5 -28q179 0 287.5 90t108.5 236q0 71 -29.5 128t-76 92.5t-103 64t-113.5 49.5t-103.5 41t-76 46t-29.5 58q0 35 32 58.5t89 23.5q69 0 158 -35.5t168 -87.5v248
q-152 82 -326 82q-170 0 -273.5 -81.5t-103.5 -221.5q0 -71 29.5 -126.5t76 -90t103 -61t113.5 -46.5t103.5 -40.5t76 -48.5t29.5 -64zM805 1579h-213l-137 -152l-138 152h-217l262 -338h181z" />
    <glyph glyph-name="uni0162" unicode="&#x162;" horiz-adv-x="1185" 
d="M735 0v1188h430v250h-1145v-250h431v-1188h284zM586 -141l86 141h-140l-133 -203l50 -41q46 19 77 19q38 0 60 -15t22 -43q0 -38 -39 -56.5t-82 -18.5q-61 0 -122 26l-39 -98q92 -47 194 -47q44 0 86.5 10t80.5 30.5t61.5 57.5t23.5 86q0 76 -53 114t-123 38h-10z" />
    <glyph glyph-name="uni0163" unicode="&#x163;" horiz-adv-x="794" 
d="M231 295q0 -151 80.5 -234.5t225.5 -83.5q105 0 184 43v224q-59 -29 -113 -29q-98 0 -98 111v493h258v230h-258v342l-485 -572h206v-524zM516 -141l86 141h-139l-133 -203l49 -41q46 19 78 19q38 0 60 -15t22 -43q0 -38 -39 -56.5t-82 -18.5q-62 0 -123 26l-39 -98
q92 -47 195 -47q44 0 86.5 10t80.5 30.5t61 57.5t23 86q0 76 -53 114t-123 38h-10z" />
    <glyph glyph-name="Tcaron" unicode="&#x164;" horiz-adv-x="1185" 
d="M735 0v1188h430v250h-1145v-250h431v-1188h284zM944 1917h-213l-137 -152l-137 152h-217l262 -338h180z" />
    <glyph glyph-name="tcaron" unicode="&#x165;" horiz-adv-x="794" 
d="M231 295q0 -151 80.5 -234.5t225.5 -83.5q105 0 184 43v224q-59 -29 -113 -29q-98 0 -98 111v493h258v230h-258v342l-485 -572h206v-524zM758 1206l119 412h-213l-72 -412h166z" />
    <glyph glyph-name="Tbar" unicode="&#x166;" horiz-adv-x="1185" 
d="M735 0v1188h430v250h-1145v-250h431v-1188h284zM938 690v178h-690v-178h690z" />
    <glyph glyph-name="tbar" unicode="&#x167;" horiz-adv-x="794" 
d="M231 295q0 -151 80.5 -234.5t225.5 -83.5q105 0 184 43v224q-59 -29 -113 -29q-98 0 -98 111v493h258v230h-258v342l-485 -572h206v-524zM752 502v178h-699v-178h699z" />
    <glyph glyph-name="Utilde" unicode="&#x168;" horiz-adv-x="1495" 
d="M127 606q0 -307 161 -471t457 -164q298 0 459.5 163.5t161.5 477.5v828h-287v-834q0 -188 -85.5 -281.5t-245.5 -93.5q-164 0 -249 98t-85 285v826h-287v-834zM565 1565q31 94 97 94q32 0 112.5 -37t130.5 -37q81 0 135 65.5t90 188.5l-159 31q-15 -50 -33 -71t-47 -21
t-112 36.5t-136 36.5q-165 0 -237 -260z" />
    <glyph glyph-name="utilde" unicode="&#x169;" horiz-adv-x="1193" 
d="M113 375q0 -184 92.5 -291t273.5 -107q204 0 326 150l278 -139v1061h-278v-586q0 -120 -63.5 -179t-151.5 -59q-86 0 -142.5 58.5t-56.5 179.5v586h-278v-674zM408 1227q31 94 96 94q32 0 113 -37t131 -37q81 0 135 65.5t90 188.5l-160 31q-15 -50 -33 -71t-47 -21
t-112 36.5t-136 36.5q-165 0 -237 -260z" />
    <glyph glyph-name="Umacron" unicode="&#x16a;" horiz-adv-x="1495" 
d="M127 606q0 -307 161 -471t457 -164q298 0 459.5 163.5t161.5 477.5v828h-287v-834q0 -188 -85.5 -281.5t-245.5 -93.5q-164 0 -249 98t-85 285v826h-287v-834zM1102 1556v179h-690v-179h690z" />
    <glyph glyph-name="umacron" unicode="&#x16b;" horiz-adv-x="1193" 
d="M113 375q0 -184 92.5 -291t273.5 -107q204 0 326 150l278 -139v1061h-278v-586q0 -120 -63.5 -179t-151.5 -59q-86 0 -142.5 58.5t-56.5 179.5v586h-278v-674zM954 1219v178h-690v-178h690z" />
    <glyph glyph-name="Ubreve" unicode="&#x16c;" horiz-adv-x="1495" 
d="M127 606q0 -307 161 -471t457 -164q298 0 459.5 163.5t161.5 477.5v828h-287v-834q0 -188 -85.5 -281.5t-245.5 -93.5q-164 0 -249 98t-85 285v826h-287v-834zM915 1872q-19 -68 -60 -104.5t-101 -36.5q-62 0 -105.5 37t-62.5 104h-162q15 -148 104 -239t222 -91
q134 0 224.5 91t102.5 239h-162z" />
    <glyph glyph-name="ubreve" unicode="&#x16d;" horiz-adv-x="1193" 
d="M113 375q0 -184 92.5 -291t273.5 -107q204 0 326 150l278 -139v1061h-278v-586q0 -120 -63.5 -179t-151.5 -59q-86 0 -142.5 58.5t-56.5 179.5v586h-278v-674zM760 1534q-19 -68 -60.5 -104.5t-101.5 -36.5q-62 0 -105.5 37t-62.5 104h-162q15 -148 104 -239t222 -91
q134 0 225 91.5t103 238.5h-162z" />
    <glyph glyph-name="Uring" unicode="&#x16e;" horiz-adv-x="1495" 
d="M127 606q0 -307 161 -471t457 -164q298 0 459.5 163.5t161.5 477.5v828h-287v-834q0 -188 -85.5 -281.5t-245.5 -93.5q-164 0 -249 98t-85 285v826h-287v-834zM750 1571q96 0 163.5 64.5t67.5 158.5q0 95 -67.5 160t-163.5 65q-92 0 -161 -65.5t-69 -159.5t69 -158.5
t161 -64.5zM750 1878q37 0 60.5 -23.5t23.5 -60.5q0 -36 -22.5 -59t-61.5 -23q-35 0 -58.5 23.5t-23.5 60.5q0 34 24 58t58 24z" />
    <glyph glyph-name="uring" unicode="&#x16f;" horiz-adv-x="1193" 
d="M113 375q0 -184 92.5 -291t273.5 -107q204 0 326 150l278 -139v1061h-278v-586q0 -120 -63.5 -179t-151.5 -59q-86 0 -142.5 58.5t-56.5 179.5v586h-278v-674zM598 1198q96 0 163.5 64.5t67.5 158.5q0 95 -67.5 160.5t-163.5 65.5q-92 0 -160.5 -66t-68.5 -160
t68.5 -158.5t160.5 -64.5zM598 1505q37 0 60.5 -23.5t23.5 -60.5q0 -36 -22.5 -59t-61.5 -23q-35 0 -58.5 23.5t-23.5 60.5q0 34 24 58t58 24z" />
    <glyph glyph-name="Uhungarumlaut" unicode="&#x170;" horiz-adv-x="1495" 
d="M127 606q0 -307 161 -471t457 -164q298 0 459.5 163.5t161.5 477.5v828h-287v-834q0 -188 -85.5 -281.5t-245.5 -93.5q-164 0 -249 98t-85 285v826h-287v-834zM631 1573l291 307l-250 47l-240 -354h199zM1024 1573l291 305l-250 49l-238 -354h197z" />
    <glyph glyph-name="uhungarumlaut" unicode="&#x171;" horiz-adv-x="1280" 
d="M113 375q0 -184 92.5 -291t273.5 -107q204 0 326 150l278 -139v1061h-278v-586q0 -120 -63.5 -179t-151.5 -59q-86 0 -142.5 58.5t-56.5 179.5v586h-278v-674zM485 1235l291 307l-250 47l-239 -354h198zM879 1235l290 305l-249 49l-238 -354h197z" />
    <glyph glyph-name="Uogonek" unicode="&#x172;" horiz-adv-x="1495" 
d="M127 606q0 -307 161 -471t457 -164q298 0 459.5 163.5t161.5 477.5v828h-287v-834q0 -188 -85.5 -281.5t-245.5 -93.5q-164 0 -249 98t-85 285v826h-287v-834zM934 -264q-60 -23 -103 -23q-39 0 -63.5 22t-24.5 58q0 35 23.5 80t85.5 127h-190q-35 -44 -55.5 -73.5
t-40 -75.5t-19.5 -89q0 -96 69.5 -152t176.5 -56q86 0 176 43z" />
    <glyph glyph-name="uogonek" unicode="&#x173;" horiz-adv-x="1193" 
d="M113 375q0 -184 92.5 -291t273.5 -107q204 0 326 150l278 -139v1061h-278v-586q0 -120 -63.5 -179t-151.5 -59q-86 0 -142.5 58.5t-56.5 179.5v586h-278v-674zM1165 -264q-60 -23 -102 -23q-41 0 -64.5 23.5t-23.5 60.5q0 70 108 191l-137 73q-89 -92 -128.5 -159.5
t-39.5 -134.5q0 -96 70 -154.5t176 -58.5q86 0 176 43z" />
    <glyph glyph-name="Wcircumflex" unicode="&#x174;" horiz-adv-x="2123" 
d="M625 430l-320 1008h-303l481 -1444h258l320 1010l328 -1010h256l479 1444h-297l-314 -1008l-319 1012h-256zM1401 1606l-250 336h-178l-252 -336h203l137 147l141 -147h199z" />
    <glyph glyph-name="wcircumflex" unicode="&#x175;" horiz-adv-x="1587" 
d="M268 1049h-278l338 -1053h245l218 692l215 -692h251l340 1053h-276l-199 -672l-204 674h-246l-207 -674zM1130 1268l-249 336h-179l-251 -336h202l138 147l141 -147h198z" />
    <glyph glyph-name="Ycircumflex" unicode="&#x176;" horiz-adv-x="1366" 
d="M827 0v559l547 879h-317l-369 -615l-369 615h-329l551 -883v-555h286zM1028 1606l-250 336h-178l-252 -336h203l137 147l141 -147h199z" />
    <glyph glyph-name="ycircumflex" unicode="&#x177;" horiz-adv-x="1099" 
d="M-10 1047l456 -1053l-127 -350h246l545 1403h-289l-256 -748l-280 748h-295zM901 1268l-250 336h-178l-252 -336h203l137 147l141 -147h199z" />
    <glyph glyph-name="Ydieresis" unicode="&#x178;" horiz-adv-x="1366" 
d="M827 0v559l547 879h-317l-369 -615l-369 615h-329l551 -883v-555h286zM473 1919q-66 0 -107.5 -40.5t-41.5 -106.5q0 -68 42 -108t107 -40t109.5 40.5t44.5 107.5q0 66 -44.5 106.5t-109.5 40.5zM899 1919q-65 0 -106 -41.5t-41 -105.5q0 -67 42 -107.5t105 -40.5
q67 0 109.5 40t42.5 108q0 67 -42.5 107t-109.5 40z" />
    <glyph glyph-name="Zacute" unicode="&#x179;" horiz-adv-x="1296" 
d="M397 246l865 975v217h-1211v-244h830l-871 -975v-219h1229v246h-842zM745 1921l-198 -342h198l281 264z" />
    <glyph glyph-name="zacute" unicode="&#x17a;" horiz-adv-x="1064" 
d="M385 227l635 623v199h-961v-226h603l-633 -624v-199h985v227h-629zM643 1604l-199 -342h199l281 264z" />
    <glyph glyph-name="Zdotaccent" unicode="&#x17b;" horiz-adv-x="1296" 
d="M397 246l865 975v217h-1211v-244h830l-871 -975v-219h1229v246h-842zM666 1890q-75 0 -123.5 -43t-48.5 -116q0 -72 50 -117t122 -45q73 0 122.5 45t49.5 117q0 73 -49 116t-123 43z" />
    <glyph glyph-name="zdotaccent" unicode="&#x17c;" horiz-adv-x="1064" 
d="M385 227l635 623v199h-961v-226h603l-633 -624v-199h985v227h-629zM551 1552q-75 0 -123.5 -43t-48.5 -116q0 -72 50 -117t122 -45q73 0 122.5 45t49.5 117q0 73 -49 116t-123 43z" />
    <glyph glyph-name="Zcaron" unicode="&#x17d;" horiz-adv-x="1296" 
d="M397 246l865 975v217h-1211v-244h830l-871 -975v-219h1229v246h-842zM1032 1917h-213l-137 -152l-137 152h-217l262 -338h180z" />
    <glyph glyph-name="zcaron" unicode="&#x17e;" horiz-adv-x="1064" 
d="M385 227l635 623v199h-961v-226h603l-633 -624v-199h985v227h-629zM899 1563h-213l-137 -152l-137 152h-217l262 -338h180z" />
    <glyph glyph-name="florin" unicode="&#x192;" horiz-adv-x="866" 
d="M162 717l-199 -989h275l204 989h217l43 217h-221l27 127q22 116 69 162.5t128 46.5q49 0 83 -15l39 213q-77 23 -174 23q-160 0 -264 -85.5t-145 -277.5l-41 -194h-146l-43 -217h148z" />
    <glyph glyph-name="uni01CD" unicode="&#x1cd;" horiz-adv-x="1478" 
d="M428 330h619l137 -330h309l-623 1444h-262l-622 -1444h303zM518 561l219 545l219 -545h-438zM1092 1929h-213l-138 -151l-137 151h-217l262 -338h180z" />
    <glyph glyph-name="uni01CE" unicode="&#x1ce;" horiz-adv-x="1187" 
d="M791 268q-92 -100 -238 -100q-91 0 -153 45.5t-62 126.5q0 82 68.5 128t166.5 46q114 0 218 -53v-193zM1063 635q0 211 -132.5 321.5t-369.5 110.5q-202 0 -414 -86v-219q164 84 359 84q285 0 285 -197v-31q-113 58 -293 58q-89 0 -164.5 -19.5t-136.5 -58.5t-96 -106.5
t-35 -155.5q0 -111 56.5 -194.5t145 -124t193.5 -40.5q193 0 325 129l277 -118v647zM946 1563h-213l-137 -152l-137 152h-217l262 -338h180z" />
    <glyph glyph-name="Aringacute" unicode="&#x1fa;" horiz-adv-x="1458" 
d="M733 1389q-37 0 -60.5 22.5t-23.5 58.5q0 34 24 58t60 24t60 -25t24 -59t-23.5 -56.5t-60.5 -22.5zM-14 0h303l117 268h641l116 -268h310l-601 1296q91 64 91 172q0 95 -68.5 160.5t-165.5 65.5q-92 0 -160.5 -66t-68.5 -160q0 -105 86 -168zM950 500h-446l223 518z
M842 2079l-199 -342h199l280 264z" />
    <glyph glyph-name="Aringacute" unicode="&#x1fb;" horiz-adv-x="1458" 
d="M733 1389q-37 0 -60.5 22.5t-23.5 58.5q0 34 24 58t60 24t60 -25t24 -59t-23.5 -56.5t-60.5 -22.5zM-14 0h303l117 268h641l116 -268h310l-601 1296q91 64 91 172q0 95 -68.5 160.5t-165.5 65.5q-92 0 -160.5 -66t-68.5 -160q0 -105 86 -168zM950 500h-446l223 518z
M842 2079l-199 -342h199l280 264z" />
    <glyph glyph-name="AEacute" unicode="&#x1fc;" horiz-adv-x="1980" 
d="M737 1438l-751 -1438h303l182 330h451v-330h1067v248h-783v364h701v234h-701v346h766v246h-1235zM922 561h-344l344 651v-651zM1255 1921l-198 -342h198l281 264z" />
    <glyph glyph-name="aeacute" unicode="&#x1fd;" horiz-adv-x="1900" 
d="M1737 330q-71 -68 -176.5 -107t-208.5 -39q-185 0 -262 148l747 186q-6 111 -42.5 209.5t-99.5 175.5t-158.5 121.5t-211.5 44.5q-220 0 -364 -154q-63 73 -175.5 111.5t-238.5 38.5q-199 0 -408 -84v-219q167 84 361 84q282 0 282 -197v-31q-113 58 -290 58
q-85 0 -160 -19.5t-137.5 -59t-99 -108t-36.5 -157.5q0 -110 60.5 -192.5t156 -122.5t209.5 -40q276 0 467 154q147 -160 400 -160q219 0 385 117v242zM782 268q-92 -100 -237 -100q-91 0 -152 45.5t-61 126.5q0 82 68 128t167 46q115 0 215 -53v-193zM1065 530
q-2 82 24 153.5t85.5 120t142.5 48.5q93 0 157.5 -54.5t88.5 -146.5zM1053 1583l-199 -342h199l280 264z" />
    <glyph glyph-name="Oslashacute" unicode="&#x1fe;" horiz-adv-x="1691" 
d="M207 -31l168 -106l137 205q151 -97 334 -97q214 0 389 101.5t273 273.5t98 377q0 164 -63.5 304.5t-182.5 242.5l129 176l-172 104l-127 -182q-156 98 -342 98q-161 0 -303.5 -59t-242.5 -159t-158 -238t-58 -291q0 -169 65.5 -311t188.5 -246zM485 401
q-106 132 -106 322q0 132 57 242.5t162 176.5t236 66q124 0 215 -65zM1212 1026q101 -138 101 -309q0 -132 -56 -242.5t-160.5 -177t-236.5 -66.5q-110 0 -207 66zM987 1921l-199 -342h199l281 264z" />
    <glyph glyph-name="oslashacute" unicode="&#x1ff;" horiz-adv-x="1267" 
d="M899 682q41 -71 41 -164q0 -136 -84 -227.5t-219 -91.5q-88 0 -152 43zM381 352q-41 61 -41 166q0 135 83 227.5t216 92.5q94 0 154 -45zM49 0l115 -111l160 177q136 -91 313 -91q161 0 291.5 72.5t203 196.5t72.5 274q0 202 -129 354l127 142l-112 110l-138 -151
q-127 88 -313 88q-161 0 -290.5 -73t-201 -197t-71.5 -273q0 -200 129 -354zM756 1583l-199 -342h199l280 264z" />
    <glyph glyph-name="uni0218" unicode="&#x218;" horiz-adv-x="1271" 
d="M911 377q0 -47 -23 -80t-62 -49.5t-78 -23.5t-82 -7q-142 0 -291.5 62t-272.5 174v-273q221 -205 560 -205q108 0 202.5 24.5t170 73t119.5 129t44 183.5q0 105 -42 187t-109 132.5t-148 89.5t-162 68t-148 58t-109 69.5t-42 93.5q0 66 61 106t167 40q115 0 237 -53.5
t217 -151.5v287q-184 153 -469 153q-135 0 -246 -43.5t-182 -135.5t-71 -218q0 -99 42 -176t109 -125t147.5 -86.5t161.5 -68.5t148 -60.5t109 -74t42 -99.5zM578 -535l116 412h-213l-71 -412h168z" />
    <glyph glyph-name="uni0219" unicode="&#x219;" horiz-adv-x="944" 
d="M633 291q0 -56 -46.5 -81.5t-109.5 -25.5q-87 0 -188 43t-185 109v-250q105 -53 194.5 -81t195.5 -28q179 0 287 90t108 236q0 71 -29.5 128t-76 92.5t-103 64t-113.5 49.5t-103.5 41t-76 46t-29.5 58q0 35 32 58.5t89 23.5q69 0 158 -35.5t168 -87.5v248
q-152 82 -326 82q-170 0 -273.5 -81.5t-103.5 -221.5q0 -71 29.5 -126.5t76 -90t103.5 -61t113.5 -46.5t103 -40.5t76 -48.5t29.5 -64zM406 -535l116 412h-213l-71 -412h168z" />
    <glyph glyph-name="uni021A" unicode="&#x21a;" horiz-adv-x="1185" 
d="M735 0v1188h430v250h-1145v-250h431v-1188h284zM539 -535l116 412h-213l-71 -412h168z" />
    <glyph glyph-name="uni021B" unicode="&#x21b;" horiz-adv-x="794" 
d="M231 295q0 -151 80.5 -234.5t225.5 -83.5q105 0 184 43v224q-59 -29 -113 -29q-98 0 -98 111v493h258v230h-258v342l-485 -572h206v-524zM430 -535l117 412h-213l-72 -412h168z" />
    <glyph glyph-name="uni0237" unicode="&#x237;" horiz-adv-x="477" 
d="M-51 -352q77 -15 131 -15q168 0 241.5 88t73.5 265v1063h-278v-1080q0 -129 -94 -129q-23 0 -74 15v-207z" />
    <glyph glyph-name="circumflex" unicode="&#x2c6;" horiz-adv-x="731" 
d="M705 1268l-250 336h-179l-251 -336h202l138 147l141 -147h199z" />
    <glyph glyph-name="caron" unicode="&#x2c7;" horiz-adv-x="737" 
d="M721 1579h-213l-137 -152l-138 152h-217l263 -338h180z" />
    <glyph glyph-name="uni02C9" unicode="&#x2c9;" horiz-adv-x="845" 
d="M770 1219v178h-690v-178h690z" />
    <glyph glyph-name="breve" unicode="&#x2d8;" horiz-adv-x="702" 
d="M516 1534q-19 -68 -60.5 -104.5t-101.5 -36.5q-62 0 -105.5 37t-62.5 104h-161q15 -149 103.5 -239.5t221.5 -90.5q134 0 225 91.5t103 238.5h-162z" />
    <glyph glyph-name="dotaccent" unicode="&#x2d9;" horiz-adv-x="454" 
d="M227 1552q-75 0 -123.5 -43t-48.5 -116q0 -72 50 -117t122 -45q73 0 122.5 45t49.5 117q0 73 -49 116t-123 43z" />
    <glyph glyph-name="ring" unicode="&#x2da;" horiz-adv-x="571" 
d="M285 1233q96 0 163.5 64.5t67.5 158.5q0 95 -67.5 160t-163.5 65q-92 0 -161 -65.5t-69 -159.5t69 -158.5t161 -64.5zM285 1540q37 0 60.5 -23.5t23.5 -60.5q0 -36 -22.5 -59t-61.5 -23q-35 0 -58.5 23.5t-23.5 60.5q0 34 24 58t58 24z" />
    <glyph glyph-name="ogonek" unicode="&#x2db;" horiz-adv-x="788" 
d="M567 -264q-60 -23 -102 -23q-39 0 -63.5 22t-24.5 58q0 35 23.5 80.5t84.5 126.5h-190q-35 -44 -55.5 -73.5t-40 -75.5t-19.5 -89q0 -96 69.5 -152t176.5 -56q86 0 176 43z" />
    <glyph glyph-name="tilde" unicode="&#x2dc;" horiz-adv-x="776" 
d="M186 1227q31 94 97 94q32 0 112.5 -37t130.5 -37q152 0 226 254l-160 31q-15 -50 -33 -71t-47 -21t-112 36.5t-136 36.5q-165 0 -237 -260z" />
    <glyph glyph-name="hungarumlaut" unicode="&#x2dd;" horiz-adv-x="876" 
d="M203 1235l291 307l-250 47l-240 -354h199zM596 1235l291 305l-250 49l-238 -354h197z" />
    <glyph glyph-name="gravecomb" unicode="&#x300;" 
d="M8 1526l281 -264h200l-204 342z" />
    <glyph glyph-name="acutecomb" unicode="&#x301;" 
d="M227 1604l-198 -342h198l281 264z" />
    <glyph glyph-name="uni0302" unicode="&#x302;" 
d="M705 1268l-250 336h-179l-251 -336h202l138 147l141 -147h199z" />
    <glyph glyph-name="tildecomb" unicode="&#x303;" 
d="M186 1227q31 94 97 94q32 0 112.5 -37t130.5 -37q152 0 226 254l-160 31q-15 -50 -33 -71t-47 -21t-112 36.5t-136 36.5q-165 0 -237 -260z" />
    <glyph glyph-name="uni0304" unicode="&#x304;" 
d="M770 1219v178h-690v-178h690z" />
    <glyph glyph-name="uni0306" unicode="&#x306;" 
d="M516 1534q-19 -68 -60.5 -104.5t-101.5 -36.5q-62 0 -105.5 37t-62.5 104h-161q15 -149 103.5 -239.5t221.5 -90.5q134 0 225 91.5t103 238.5h-162z" />
    <glyph glyph-name="uni0307" unicode="&#x307;" 
d="M227 1552q-75 0 -123.5 -43t-48.5 -116q0 -72 50 -117t122 -45q73 0 122.5 45t49.5 117q0 73 -49 116t-123 43z" />
    <glyph glyph-name="uni0308" unicode="&#x308;" 
d="M178 1569q-63 0 -104 -39.5t-41 -102.5q0 -64 40.5 -103.5t104.5 -39.5q61 0 103.5 40t42.5 103t-42 102.5t-104 39.5zM596 1569q-61 0 -101 -40t-40 -102q0 -63 40.5 -103t100.5 -40q64 0 104.5 39.5t40.5 103.5t-40.5 103t-104.5 39z" />
    <glyph glyph-name="uni030A" unicode="&#x30a;" 
d="M285 1233q96 0 163.5 64.5t67.5 158.5q0 95 -67.5 160t-163.5 65q-92 0 -161 -65.5t-69 -159.5t69 -158.5t161 -64.5zM285 1540q37 0 60.5 -23.5t23.5 -60.5q0 -36 -22.5 -59t-61.5 -23q-35 0 -58.5 23.5t-23.5 60.5q0 34 24 58t58 24z" />
    <glyph glyph-name="uni030B" unicode="&#x30b;" 
d="M203 1235l291 307l-250 47l-240 -354h199zM596 1235l291 305l-250 49l-238 -354h197z" />
    <glyph glyph-name="uni030C" unicode="&#x30c;" 
d="M721 1563h-213l-137 -152l-138 152h-217l263 -338h180z" />
    <glyph glyph-name="uni030F" unicode="&#x30f;" 
d="M8 1526l281 -264h200l-204 342zM397 1526l281 -264h201l-205 342z" />
    <glyph glyph-name="uni0311" unicode="&#x311;" 
d="M186 1204q19 68 60.5 105t101.5 37q61 0 105 -37t63 -105h162q-15 148 -104 239t-222 91q-134 0 -224.5 -91t-102.5 -239h161z" />
    <glyph glyph-name="uni0312" unicode="&#x312;" 
d="M270 1767l-180 -634h277l108 634h-205z" />
    <glyph glyph-name="uni0326" unicode="&#x326;" 
d="M315 -504l117 412h-213l-72 -412h168z" />
    <glyph glyph-name="uni0327" unicode="&#x327;" 
d="M365 -141l86 141h-140l-133 -203l49 -41q46 19 78 19q38 0 60 -15t22 -43q0 -38 -39 -56.5t-82 -18.5q-62 0 -123 26l-39 -98q92 -47 195 -47q44 0 86.5 10t80.5 30.5t61.5 57.5t23.5 86q0 76 -53 114t-123 38h-10z" />
    <glyph glyph-name="uni0328" unicode="&#x328;" 
d="M567 -264q-60 -23 -102 -23q-39 0 -63.5 22t-24.5 58q0 35 23.5 80.5t84.5 126.5h-190q-35 -44 -55.5 -73.5t-40 -75.5t-19.5 -89q0 -96 69.5 -152t176.5 -56q86 0 176 43z" />
    <glyph glyph-name="uni0374" unicode="&#x374;" horiz-adv-x="927" 
d="M391 1688l-198 -465h196l365 465h-363z" />
    <glyph glyph-name="uni0375" unicode="&#x375;" horiz-adv-x="927" 
d="M522 -410l201 467h-199l-362 -467h360z" />
    <glyph glyph-name="uni037E" unicode="&#x37e;" horiz-adv-x="563" 
d="M272 1067q-78 0 -127 -47t-49 -125q0 -80 49.5 -127t126.5 -47q76 0 127.5 47.5t51.5 126.5t-51.5 125.5t-127.5 46.5zM248 -309l180 635h-276l-109 -635h205z" />
    <glyph glyph-name="tonos" unicode="&#x384;" horiz-adv-x="927" 
d="M391 1688l-198 -342h196l365 342h-363z" />
    <glyph glyph-name="dieresistonos" unicode="&#x385;" horiz-adv-x="1124" 
d="M217 1606q-57 0 -98 -40t-41 -98q0 -60 41 -99.5t98 -39.5t99 39.5t42 99.5q0 58 -42.5 98t-98.5 40zM518 1675l-156 -342h185l303 342h-332zM772 1470q0 -58 38.5 -98.5t96.5 -40.5q61 0 100.5 41t39.5 98q0 58 -39.5 100t-100.5 42q-57 0 -96 -42.5t-39 -99.5z" />
    <glyph glyph-name="Alphatonos" unicode="&#x386;" horiz-adv-x="1581" 
d="M530 330h619l137 -330h309l-622 1444h-262l-623 -1444h303zM621 561l219 545l219 -545h-438zM154 1583l-199 -342h197l364 342h-362z" />
    <glyph glyph-name="anoteleia" unicode="&#x387;" horiz-adv-x="655" 
d="M328 895q-79 0 -128.5 -47.5t-49.5 -126.5q0 -78 50.5 -126t127.5 -48q74 0 125 48t51 126t-51 126t-125 48z" />
    <glyph glyph-name="Epsilontonos" unicode="&#x388;" horiz-adv-x="1460" 
d="M561 248v364h699v234h-699v346h764v246h-1049v-1438h1065v248h-780zM-76 1583l-198 -342h196l365 342h-363z" />
    <glyph glyph-name="Etatonos" unicode="&#x389;" horiz-adv-x="1646" 
d="M291 1440v-1440h284v600h648v-600h284v1440h-284v-584h-648v584h-284zM-76 1583l-198 -342h196l365 342h-363z" />
    <glyph glyph-name="Iotatonos" unicode="&#x38a;" horiz-adv-x="567" 
d="M428 0v1438h-287v-1438h287zM-170 1583l-199 -342h197l365 342h-363z" />
    <glyph glyph-name="Omicrontonos" unicode="&#x38c;" horiz-adv-x="1742" 
d="M893 -29q211 0 386 99.5t275.5 272t100.5 380.5q0 122 -36.5 234.5t-105 204.5t-161 160.5t-210.5 106t-247 37.5q-161 0 -303.5 -59t-242.5 -159t-158 -238t-58 -291q0 -154 57.5 -292t157.5 -238.5t242 -159t303 -58.5zM893 1210q136 0 244.5 -68.5t166.5 -180.5
t58 -244t-59 -243t-166.5 -178t-241.5 -67q-135 0 -243 66.5t-167 179.5t-59 248q0 133 58.5 244t166 177t242.5 66zM41 1583l-199 -342h197l364 342h-362z" />
    <glyph glyph-name="Upsilontonos" unicode="&#x38e;" horiz-adv-x="1593" 
d="M1051 0v559l546 879h-317l-369 -615l-368 615h-330l551 -883v-555h287zM-152 1583l-198 -342h196l365 342h-363z" />
    <glyph glyph-name="Omegatonos" unicode="&#x38f;" horiz-adv-x="1775" 
d="M993 2h660v246h-348q141 80 222 231t81 318q0 153 -55.5 280t-152 211.5t-227.5 131t-282 46.5q-149 0 -280 -46.5t-229 -130.5t-155 -210t-57 -278q0 -167 81.5 -320t221.5 -233h-348v-246h666v258q-155 73 -241.5 201.5t-86.5 296.5q0 199 114.5 325.5t311.5 126.5
t311.5 -125.5t114.5 -326.5q0 -167 -84 -292.5t-238 -205.5v-258zM63 1583l-198 -342h196l365 342h-363z" />
    <glyph glyph-name="iotadieresistonos" unicode="&#x390;" horiz-adv-x="786" 
d="M506 0v1049h-279v-1049h279zM43 1606q-57 0 -98 -40t-41 -98q0 -60 41 -99.5t98 -39.5t99 39.5t42 99.5q0 58 -42.5 98t-98.5 40zM344 1675l-156 -342h185l303 342h-332zM598 1470q0 -58 38.5 -98.5t96.5 -40.5q61 0 100 41t39 98q0 58 -39 100t-100 42q-57 0 -96 -42.5
t-39 -99.5z" />
    <glyph glyph-name="Alpha" unicode="&#x391;" horiz-adv-x="1478" 
d="M428 330h619l137 -330h309l-623 1444h-262l-622 -1444h303zM518 561l219 545l219 -545h-438z" />
    <glyph glyph-name="Beta" unicode="&#x392;" horiz-adv-x="1388" 
d="M141 1438v-1438h602q276 0 420 109t144 288q0 141 -80 231.5t-234 121.5q103 40 159 124t56 203q0 121 -67.5 204t-176.5 120t-251 37h-572zM422 836v368h258q117 0 180.5 -45.5t63.5 -134.5q0 -87 -63.5 -137.5t-184.5 -50.5h-254zM422 236v387h278q320 0 320 -193
q0 -194 -285 -194h-313z" />
    <glyph glyph-name="Gamma" unicode="&#x393;" horiz-adv-x="1204" 
d="M428 0v1188h756v250h-1043v-1438h287z" />
    <glyph glyph-name="Epsilon" unicode="&#x395;" horiz-adv-x="1325" 
d="M426 248v364h698v234h-698v346h764v246h-1049v-1438h1065v248h-780z" />
    <glyph glyph-name="Zeta" unicode="&#x396;" horiz-adv-x="1296" 
d="M397 246l865 975v217h-1211v-244h830l-871 -975v-219h1229v246h-842z" />
    <glyph glyph-name="Eta" unicode="&#x397;" horiz-adv-x="1499" 
d="M141 1440v-1440h285v600h647v-600h285v1440h-285v-584h-647v584h-285z" />
    <glyph glyph-name="Theta" unicode="&#x398;" horiz-adv-x="1699" 
d="M850 -29q211 0 386 99.5t275.5 272t100.5 380.5q0 152 -57.5 289t-157.5 236.5t-241.5 158.5t-301.5 59q-161 0 -303.5 -59t-243 -159t-159 -238t-58.5 -291q0 -154 57.5 -292t157.5 -238.5t242 -159t303 -58.5zM850 1210q136 0 244.5 -68.5t166.5 -180.5t58 -244
t-58.5 -243t-165.5 -178t-241 -67q-137 0 -245.5 67t-167 179t-58.5 248q0 133 58.5 244t166 177t242.5 66zM557 604h588v254h-588v-254z" />
    <glyph glyph-name="Iota" unicode="&#x399;" horiz-adv-x="567" 
d="M428 0v1438h-287v-1438h287z" />
    <glyph glyph-name="Kappa" unicode="&#x39a;" horiz-adv-x="1320" 
d="M426 844v594h-285v-1438h285v715l555 -715h350l-620 793l581 645h-346z" />
    <glyph glyph-name="Lambda" unicode="&#x39b;" horiz-adv-x="1447" 
d="M1153 0l-432 1106l-432 -1106h-303l606 1444h262l606 -1444h-307z" />
    <glyph glyph-name="Mu" unicode="&#x39c;" horiz-adv-x="1589" 
d="M328 989l465 -700l462 702v-991h285v1434h-293l-452 -709l-453 709h-295v-1434h281v989z" />
    <glyph glyph-name="Nu" unicode="&#x39d;" horiz-adv-x="1560" 
d="M1139 467l-725 967h-273v-1434h281v985l737 -985h260v1438h-280v-971z" />
    <glyph glyph-name="Xi" unicode="&#x39e;" horiz-adv-x="1302" 
d="M135 1171h1032v267h-1032v-267zM119 0h1065v268h-1065v-268zM201 602h901v254h-901v-254z" />
    <glyph glyph-name="Omicron" unicode="&#x39f;" horiz-adv-x="1699" 
d="M850 -29q211 0 386 99.5t275.5 272t100.5 380.5q0 122 -36.5 234.5t-105 204.5t-161 160.5t-210.5 106t-247 37.5q-161 0 -303.5 -59t-242.5 -159t-158 -238t-58 -291q0 -154 57.5 -292t157.5 -238.5t242 -159t303 -58.5zM850 1210q136 0 244.5 -68.5t166.5 -180.5
t58 -244t-59 -243t-166.5 -178t-241.5 -67q-135 0 -243 66.5t-167 179.5t-59 248q0 133 58.5 244t166 177t242.5 66z" />
    <glyph glyph-name="Pi" unicode="&#x3a0;" horiz-adv-x="1466" 
d="M141 1440v-1440h285v1184h614v-1184h287v1444z" />
    <glyph glyph-name="Rho" unicode="&#x3a1;" horiz-adv-x="1290" 
d="M141 1438v-1440h287v494h236q165 0 293 55t203 165.5t75 262.5q0 218 -149 340.5t-404 122.5h-541zM428 725v469h229q142 0 216.5 -58.5t74.5 -174.5q0 -111 -76.5 -173.5t-214.5 -62.5h-229z" />
    <glyph glyph-name="Sigma" unicode="&#x3a3;" horiz-adv-x="1273" 
d="M35 1221l432 -498l-457 -504v-219h1190v246h-803l430 477l-413 471h768v244h-1147v-217z" />
    <glyph glyph-name="Tau" unicode="&#x3a4;" horiz-adv-x="1185" 
d="M735 0v1188h430v250h-1145v-250h431v-1188h284z" />
    <glyph glyph-name="Upsilon" unicode="&#x3a5;" horiz-adv-x="1366" 
d="M827 0v559l547 879h-317l-369 -615l-369 615h-329l551 -883v-555h286z" />
    <glyph glyph-name="Phi" unicode="&#x3a6;" horiz-adv-x="1873" 
d="M1077 1448h-274v-107q-33 0 -68 -6q-308 -23 -479.5 -192t-171.5 -420q0 -123 43 -229t124 -187t205 -132t279 -62q40 -7 68 -7v-116h274v116q28 0 68 7q305 24 475 193t170 421q0 246 -171 415.5t-474 192.5q-34 6 -68 6v107zM1077 1092q197 -10 309.5 -111.5
t112.5 -261.5q0 -159 -113.5 -258.5t-308.5 -108.5v740zM803 352q-198 9 -314 108.5t-116 264.5q0 161 116.5 260t313.5 107v-740z" />
    <glyph glyph-name="Chi" unicode="&#x3a7;" horiz-adv-x="1370" 
d="M362 1438h-329l485 -705l-508 -733h324l348 520l348 -520h328l-504 737l479 701h-319l-324 -486z" />
    <glyph glyph-name="Psi" unicode="&#x3a8;" horiz-adv-x="1781" 
d="M1370 909q0 -178 -87 -279.5t-251 -101.5v910h-284v-910q-164 0 -250 101.5t-86 279.5v529h-285v-527q0 -308 165.5 -475.5t452.5 -167.5v-268h287v268q295 0 459 167.5t164 482.5v520h-285v-529z" />
    <glyph glyph-name="uni03A9" unicode="&#x3a9;" horiz-adv-x="1773" 
d="M991 2h660v246h-348q141 80 222 231t81 318q0 153 -55.5 280t-152 211.5t-227.5 131t-282 46.5q-149 0 -280 -46.5t-229 -130.5t-155 -210t-57 -278q0 -167 81.5 -320t221.5 -233h-348v-246h665v258q-155 73 -241 201.5t-86 296.5q0 199 114.5 325.5t311.5 126.5
t311.5 -125.5t114.5 -326.5q0 -167 -84 -292.5t-238 -205.5v-258z" />
    <glyph glyph-name="Iotadieresis" unicode="&#x3aa;" horiz-adv-x="587" 
d="M436 0v1438h-286v-1438h286zM72 1919q-66 0 -108 -40.5t-42 -106.5q0 -67 42.5 -107.5t107.5 -40.5t109 40.5t44 107.5q0 66 -44 106.5t-109 40.5zM498 1919q-65 0 -106.5 -41.5t-41.5 -105.5q0 -67 42.5 -107.5t105.5 -40.5q67 0 109 40t42 108q0 67 -42 107t-109 40z
" />
    <glyph glyph-name="Upsilondieresis" unicode="&#x3ab;" horiz-adv-x="1366" 
d="M827 0v559l547 879h-317l-369 -615l-369 615h-329l551 -883v-555h286zM473 1919q-66 0 -107.5 -40.5t-41.5 -106.5q0 -68 42 -108t107 -40t109.5 40.5t44.5 107.5q0 66 -44.5 106.5t-109.5 40.5zM899 1919q-65 0 -106 -41.5t-41 -105.5q0 -67 42 -107.5t105 -40.5
q67 0 109.5 40t42.5 108q0 67 -42.5 107t-109.5 40z" />
    <glyph glyph-name="alphatonos" unicode="&#x3ac;" horiz-adv-x="1312" 
d="M342 522q0 134 79 225t208 91q126 0 208.5 -92.5t82.5 -219.5q0 -128 -83 -221.5t-208 -93.5q-124 0 -205.5 93t-81.5 218zM1188 0v1049h-279v-162q-72 93 -157 139.5t-197 46.5t-205.5 -45t-154.5 -121t-95 -175t-34 -208q0 -145 58 -268.5t171.5 -201t259.5 -77.5
q115 0 193 45t161 142zM700 1688l-198 -342h196l365 342h-363z" />
    <glyph glyph-name="epsilontonos" unicode="&#x3ad;" horiz-adv-x="1038" 
d="M340 324q0 -32 22 -55t56 -34.5t65.5 -16.5t61.5 -5q133 0 297 76l51 -230q-178 -84 -369 -84q-122 0 -225.5 38t-168 112t-64.5 168q0 92 60.5 158t172.5 94q-92 35 -140 98.5t-48 144.5q0 91 56.5 156.5t148.5 97t208 31.5q177 0 350 -90l-71 -225q-124 80 -258 80
q-71 0 -115.5 -24t-44.5 -66q0 -50 54 -76.5t147 -26.5h94v-209h-119q-112 0 -166.5 -31.5t-54.5 -80.5zM596 1688l-199 -342h197l364 342h-362z" />
    <glyph glyph-name="etatonos" unicode="&#x3ae;" horiz-adv-x="1226" 
d="M1094 674q0 181 -96.5 289t-270.5 108q-191 0 -326 -164l-280 142v-1049h278v586q0 120 65.5 179.5t151.5 59.5q85 0 142 -59t57 -180v-586h279v674zM723 1688l-199 -342h197l364 342h-362z" />
    <glyph glyph-name="iotatonos" unicode="&#x3af;" horiz-adv-x="512" 
d="M399 0v1049h-278v-1049h278zM360 1688l-198 -342h196l365 342h-363z" />
    <glyph glyph-name="upsilondieresistonos" unicode="&#x3b0;" horiz-adv-x="1193" 
d="M1083 1049h-278v-600q0 -99 -55.5 -165.5t-151.5 -66.5q-104 0 -155.5 64.5t-51.5 169.5v598h-278v-584q0 -242 124 -365t363 -123q233 0 358 126.5t125 369.5v576zM272 1606q-57 0 -98 -40t-41 -98q0 -60 41 -99.5t98 -39.5t99.5 39.5t42.5 99.5q0 57 -42.5 97.5
t-99.5 40.5zM573 1675l-155 -342h184l303 342h-332zM827 1470q0 -58 39 -98.5t97 -40.5q61 0 100 41t39 98q0 58 -39 100t-100 42q-57 0 -96.5 -42.5t-39.5 -99.5z" />
    <glyph glyph-name="alpha" unicode="&#x3b1;" horiz-adv-x="1312" 
d="M342 522q0 134 79 225t208 91q126 0 208.5 -92.5t82.5 -219.5q0 -128 -83 -221.5t-208 -93.5q-124 0 -205.5 93t-81.5 218zM1188 0v1049h-279v-162q-72 93 -157 139.5t-197 46.5t-205.5 -45t-154.5 -121t-95 -175t-34 -208q0 -145 58 -268.5t171.5 -201t259.5 -77.5
q115 0 193 45t161 142z" />
    <glyph glyph-name="beta" unicode="&#x3b2;" horiz-adv-x="1288" 
d="M399 524q0 -132 91 -221.5t221 -89.5q101 0 168 66t67 165q0 106 -79.5 170t-239.5 70v166q118 12 178.5 72t60.5 149q0 95 -62.5 147t-156.5 52q-116 0 -182 -75t-66 -191v-480zM1223 414q0 -187 -133.5 -312t-319.5 -125q-225 0 -371 181v-514h-278v1360
q0 108 35 199.5t100.5 159.5t167 106t227.5 38q224 0 358 -111t134 -284q0 -219 -238 -319q148 -25 233 -125.5t85 -253.5z" />
    <glyph glyph-name="gamma" unicode="&#x3b3;" horiz-adv-x="1097" 
d="M688 -356v379l418 1024h-291l-264 -723l-264 723h-297l420 -1031v-372h278z" />
    <glyph glyph-name="delta" unicode="&#x3b4;" horiz-adv-x="1265" 
d="M639 788q127 0 208 -79.5t81 -202.5q0 -117 -82.5 -205t-210.5 -88q-130 0 -212.5 86.5t-82.5 208.5q0 119 83.5 199.5t215.5 80.5zM588 1280h454v227h-866v-227l416 -291q-139 13 -260 -46t-193.5 -175.5t-72.5 -261.5q0 -146 73 -267.5t203 -192.5t289 -71
q245 0 408 153.5t163 381.5q0 165 -82 290t-233 238z" />
    <glyph glyph-name="epsilon" unicode="&#x3b5;" horiz-adv-x="974" 
d="M340 324q0 -32 22 -55t56 -34.5t65.5 -16.5t61.5 -5q133 0 297 76l51 -230q-178 -84 -369 -84q-122 0 -225.5 38t-168 112t-64.5 168q0 92 60.5 158t172.5 94q-92 35 -140 98.5t-48 144.5q0 91 56.5 156.5t148.5 97t208 31.5q177 0 350 -90l-71 -225q-124 80 -258 80
q-71 0 -115.5 -24t-44.5 -66q0 -50 54 -76.5t147 -26.5h94v-209h-119q-112 0 -166.5 -31.5t-54.5 -80.5z" />
    <glyph glyph-name="zeta" unicode="&#x3b6;" horiz-adv-x="905" 
d="M905 1276q-253 -158 -410 -374t-157 -419q0 -113 63.5 -184t206.5 -102q289 -64 289 -299q0 -111 -59 -240l-246 23q47 83 47 161q0 52 -31.5 87.5t-118.5 54.5q-198 42 -310.5 160.5t-112.5 322.5q0 215 133.5 424t388.5 391h-426v225h743v-231z" />
    <glyph glyph-name="eta" unicode="&#x3b7;" horiz-adv-x="1206" 
d="M1094 674q0 181 -96.5 289t-270.5 108q-191 0 -326 -164l-280 142v-1049h278v586q0 120 65.5 179.5t151.5 59.5q85 0 142 -59t57 -180v-586h279v674z" />
    <glyph glyph-name="theta" unicode="&#x3b8;" horiz-adv-x="1257" 
d="M1184 752q0 110 -18 213.5t-60 203t-104 173.5t-157.5 119.5t-213.5 45.5q-114 0 -207.5 -41.5t-158 -113t-108.5 -170.5t-64.5 -211t-20.5 -236q0 -109 17.5 -212.5t59.5 -204t104 -176t159 -121.5t217 -46q103 0 188.5 32.5t145 91t103.5 132.5t69 163.5t37 177.5
t12 180zM354 874q5 65 21 128t46.5 127.5t84 104.5t123.5 40q56 0 102 -27t75.5 -69t51 -97t31.5 -105.5t14 -101.5h-549zM905 649q-3 -53 -12 -107t-30 -115t-51 -107t-78 -76.5t-107 -30.5q-117 0 -188.5 123t-84.5 313h551z" />
    <glyph glyph-name="iota" unicode="&#x3b9;" horiz-adv-x="512" 
d="M399 0v1049h-278v-1049h278z" />
    <glyph glyph-name="kappa" unicode="&#x3ba;" horiz-adv-x="1089" 
d="M399 655v394h-278v-1049h278v510l365 -510h317l-432 592l418 457h-330z" />
    <glyph glyph-name="lambda" unicode="&#x3bb;" horiz-adv-x="1114" 
d="M418 1065l-416 -1065h295l262 756l275 -756h288l-467 1161q-15 37 -23 57t-24 54.5t-27.5 54t-30 48t-35.5 44.5t-41 35.5t-49 29t-56 16.5t-66 7q-115 0 -242 -55l60 -215q88 53 145 53q46 0 95 -85t57 -138v-2z" />
    <glyph glyph-name="uni03BC" unicode="&#x3bc;" horiz-adv-x="1226" 
d="M401 -356h-278v1405h278v-586q0 -117 57 -178.5t140 -61.5q95 0 157 62.5t62 177.5v586h279v-1049l-281 139q-37 -77 -95 -119.5t-128 -42.5q-62 0 -112.5 33.5t-78.5 91.5v-458z" />
    <glyph glyph-name="nu" unicode="&#x3bd;" horiz-adv-x="1110" 
d="M684 -4l428 1051h-291l-264 -723l-264 723h-297l428 -1051h260z" />
    <glyph glyph-name="xi" unicode="&#x3be;" horiz-adv-x="901" 
d="M66 393q0 -86 31.5 -158t87 -122t125.5 -83t151 -48q53 -9 88.5 -28t49.5 -42.5t18 -40.5t4 -37q0 -62 -48 -153l244 -23q60 131 60 240q0 240 -287 297q-250 51 -250 233q0 66 29.5 112t86.5 71.5t129.5 36.5t170.5 11v226q-165 0 -242.5 48.5t-77.5 131.5
q0 62 36 104.5t103.5 63.5t139 29t164.5 8v237h-748v-229h225q-90 -33 -141 -95.5t-51 -144.5q0 -89 61 -155.5t168 -108.5q-149 -34 -238 -138t-89 -243z" />
    <glyph glyph-name="omicron" unicode="&#x3bf;" horiz-adv-x="1273" 
d="M633 -25q156 0 288 71.5t209.5 198.5t77.5 281q0 150 -73 275t-204.5 198.5t-293.5 73.5t-293.5 -74.5t-204.5 -200.5t-73 -276t72.5 -275t203 -198.5t291.5 -73.5zM633 838q131 0 216 -92.5t85 -221.5t-84.5 -220t-212.5 -91q-127 0 -212 90t-85 223q0 132 81 222
t212 90z" />
    <glyph glyph-name="pi" unicode="&#x3c0;" horiz-adv-x="1185" 
d="M1073 1049h-952v-1049h278v823h396v-823h278v1049z" />
    <glyph glyph-name="rho" unicode="&#x3c1;" horiz-adv-x="1302" 
d="M676 211q130 0 207.5 92t77.5 223q0 129 -80.5 219.5t-208.5 90.5q-122 0 -205.5 -90.5t-83.5 -227.5q0 -131 83 -219t210 -88zM113 526q0 244 159 395.5t404 151.5q158 0 285.5 -67.5t201.5 -193t74 -286.5q0 -146 -57.5 -269.5t-171.5 -201.5t-263 -78q-217 0 -354 177
v-510h-278v882z" />
    <glyph glyph-name="uni03C2" unicode="&#x3c2;" horiz-adv-x="1069" 
d="M823 -342q24 52 35 78.5t23 72t12 85.5q0 191 -260 296q-279 115 -279 353q0 119 70 206t186 87q61 0 121.5 -22.5t104.5 -61.5l108 196q-142 121 -348 121q-152 0 -269.5 -73t-180 -196.5t-62.5 -275.5q0 -202 98.5 -334.5t270.5 -197.5q91 -34 136.5 -68t45.5 -88
q0 -77 -60 -155z" />
    <glyph glyph-name="sigma" unicode="&#x3c3;" horiz-adv-x="1349" 
d="M1030 819q87 -54 132.5 -137.5t45.5 -185.5q0 -147 -83 -268.5t-214 -187t-278 -65.5q-121 0 -227.5 42.5t-180.5 114.5t-116.5 170.5t-42.5 207.5q0 108 41.5 205.5t116.5 171.5t188 118t247 44h666v-230h-295zM637 213q128 0 212.5 86t84.5 213q0 133 -81.5 217
t-215.5 84q-133 0 -215 -84.5t-82 -214.5q0 -120 85.5 -210.5t211.5 -90.5z" />
    <glyph glyph-name="tau" unicode="&#x3c4;" horiz-adv-x="851" 
d="M25 1049h802v-230h-266v-483q0 -61 25 -91t80 -30t108 29v-224q-81 -43 -186 -43q-142 0 -221.5 80t-79.5 238v524h-262v230z" />
    <glyph glyph-name="upsilon" unicode="&#x3c5;" horiz-adv-x="1193" 
d="M1083 1049h-278v-600q0 -99 -55.5 -165.5t-151.5 -66.5q-104 0 -155.5 64.5t-51.5 169.5v598h-278v-584q0 -242 124 -365t363 -123q233 0 358 126.5t125 369.5v576z" />
    <glyph glyph-name="phi" unicode="&#x3c6;" horiz-adv-x="1634" 
d="M950 211q171 8 257 94.5t93 259.5q2 49 -6.5 95.5t-27.5 90t-57.5 70.5t-90.5 27q-162 0 -168 -283v-354zM678 -14q-129 9 -238.5 52.5t-192 117t-129 183t-46.5 243.5t57 262t168 235h278q-235 -249 -235 -471q0 -176 84.5 -284t253.5 -115v285q0 53 2.5 99t9 95.5
t17.5 91t28.5 83t41 73.5t55.5 60.5t71.5 47t91 29t111.5 10.5q219 0 341 -137t122 -358q0 -250 -171.5 -417.5t-447.5 -182.5v-340h-272v338z" />
    <glyph glyph-name="chi" unicode="&#x3c7;" horiz-adv-x="1091" 
d="M768 1047l-219 -412l-217 412h-307l372 -668l-389 -735h297l238 473l235 -473h307l-391 741l373 662h-299z" />
    <glyph glyph-name="psi" unicode="&#x3c8;" horiz-adv-x="1636" 
d="M680 -356h278v333q117 0 217 29t180 88.5t125.5 159.5t45.5 231v564h-279v-564q0 -71 -24 -124.5t-65.5 -84t-91.5 -45t-108 -14.5v1280h-280v-1280q-287 0 -287 270v562h-278v-568q0 -165 75.5 -280.5t201 -169.5t290.5 -54v-333z" />
    <glyph glyph-name="omega" unicode="&#x3c9;" horiz-adv-x="1716" 
d="M995 809h-278v-295q0 -56 -9 -108t-28.5 -99t-56 -75.5t-84.5 -28.5q-90 0 -144.5 94.5t-54.5 243.5q0 135 56 260t192 278h-289q-233 -242 -233 -547q0 -157 53 -282t159.5 -200t249.5 -75q216 0 330 177q117 -177 330 -177q216 0 340.5 154.5t124.5 402.5
q0 307 -234 547h-291q136 -153 193 -278.5t57 -259.5q0 -152 -54 -245t-146 -93q-80 0 -131.5 76t-51.5 235v295z" />
    <glyph glyph-name="iotadieresis" unicode="&#x3ca;" horiz-adv-x="589" 
d="M422 0v1049h-279v-1049h279zM74 1569q-63 0 -104.5 -39.5t-41.5 -102.5q0 -64 41 -103.5t105 -39.5q61 0 103 40t42 103t-42 102.5t-103 39.5zM492 1569q-62 0 -102 -40.5t-40 -101.5q0 -63 41 -103t101 -40q64 0 104.5 39.5t40.5 103.5t-40.5 103t-104.5 39z" />
    <glyph glyph-name="upsilondieresis" unicode="&#x3cb;" horiz-adv-x="1193" 
d="M389 1569q-63 0 -104 -39.5t-41 -102.5q0 -64 40.5 -103.5t104.5 -39.5q61 0 103.5 40t42.5 103t-42 102.5t-104 39.5zM807 1569q-61 0 -101 -40t-40 -102q0 -63 40.5 -103t100.5 -40q64 0 104.5 39.5t40.5 103.5t-40.5 103t-104.5 39zM1083 1049h-278v-600
q0 -99 -55.5 -165.5t-151.5 -66.5q-104 0 -155.5 64.5t-51.5 169.5v598h-278v-584q0 -242 124 -365t363 -123q233 0 358 126.5t125 369.5v576z" />
    <glyph glyph-name="omicrontonos" unicode="&#x3cc;" horiz-adv-x="1273" 
d="M633 -25q156 0 288 71.5t209.5 198.5t77.5 281q0 150 -73 275t-204.5 198.5t-293.5 73.5t-293.5 -74.5t-204.5 -200.5t-73 -276t72.5 -275t203 -198.5t291.5 -73.5zM633 838q131 0 216 -92.5t85 -221.5t-84.5 -220t-212.5 -91q-127 0 -212 90t-85 223q0 132 81 222
t212 90zM766 1688l-199 -342h197l364 342h-362z" />
    <glyph glyph-name="upsilontonos" unicode="&#x3cd;" horiz-adv-x="1193" 
d="M1083 1049h-278v-600q0 -99 -55.5 -165.5t-151.5 -66.5q-104 0 -155.5 64.5t-51.5 169.5v598h-278v-584q0 -242 124 -365t363 -123q233 0 358 126.5t125 369.5v576zM684 1688l-199 -342h197l365 342h-363z" />
    <glyph glyph-name="omegatonos" unicode="&#x3ce;" horiz-adv-x="1716" 
d="M995 809h-278v-295q0 -56 -9 -108t-28.5 -99t-56 -75.5t-84.5 -28.5q-90 0 -144.5 94.5t-54.5 243.5q0 135 56 260t192 278h-289q-233 -242 -233 -547q0 -157 53 -282t159.5 -200t249.5 -75q216 0 330 177q117 -177 330 -177q216 0 340.5 154.5t124.5 402.5
q0 307 -234 547h-291q136 -153 193 -278.5t57 -259.5q0 -152 -54 -245t-146 -93q-80 0 -131.5 76t-51.5 235v295zM954 1688l-198 -342h196l365 342h-363z" />
    <glyph glyph-name="uni03CF" unicode="&#x3cf;" horiz-adv-x="1320" 
d="M203 -111q99 -60 231 -102.5t240 -42.5q141 0 248.5 63.5t107.5 131.5l-604 776v-715h-285v1438h285v-594l520 594h346l-581 -645l620 -793q0 -123 -89 -231t-241 -172t-327 -64q-227 0 -471 111v245z" />
    <glyph glyph-name="uni03D7" unicode="&#x3d7;" horiz-adv-x="1089" 
d="M399 510v-510h-278v1049h278v-394l338 394h330l-418 -457l432 -592q0 -185 -154.5 -305.5t-381.5 -120.5q-105 0 -197 24.5t-201 75.5v246q86 -58 191 -96.5t205 -38.5q109 0 181.5 48t72.5 118z" />
    <glyph glyph-name="Wgrave" unicode="&#x1e80;" horiz-adv-x="2123" 
d="M625 430l-320 1008h-303l481 -1444h258l320 1010l328 -1010h256l479 1444h-297l-314 -1008l-319 1012h-256zM713 1843l280 -264h201l-205 342z" />
    <glyph glyph-name="wgrave" unicode="&#x1e81;" horiz-adv-x="1587" 
d="M268 1049h-278l338 -1053h245l218 692l215 -692h251l340 1053h-276l-199 -672l-204 674h-246l-207 -674zM416 1526l280 -264h201l-205 342z" />
    <glyph glyph-name="Wacute" unicode="&#x1e82;" horiz-adv-x="2123" 
d="M625 430l-320 1008h-303l481 -1444h258l320 1010l328 -1010h256l479 1444h-297l-314 -1008l-319 1012h-256zM1169 1921l-198 -342h198l281 264z" />
    <glyph glyph-name="wacute" unicode="&#x1e83;" horiz-adv-x="1587" 
d="M268 1049h-278l338 -1053h245l218 692l215 -692h251l340 1053h-276l-199 -672l-204 674h-246l-207 -674zM899 1583l-199 -342h199l281 264z" />
    <glyph glyph-name="Wdieresis" unicode="&#x1e84;" horiz-adv-x="2123" 
d="M625 430l-320 1008h-303l481 -1444h258l320 1010l328 -1010h256l479 1444h-297l-314 -1008l-319 1012h-256zM848 1919q-66 0 -108 -40.5t-42 -106.5q0 -67 42.5 -107.5t107.5 -40.5t109 40.5t44 107.5q0 66 -44 106.5t-109 40.5zM1274 1919q-65 0 -106.5 -41.5
t-41.5 -105.5q0 -67 42.5 -107.5t105.5 -40.5q67 0 109 40t42 108q0 67 -42 107t-109 40z" />
    <glyph glyph-name="wdieresis" unicode="&#x1e85;" horiz-adv-x="1587" 
d="M268 1049h-278l338 -1053h245l218 692l215 -692h251l340 1053h-276l-199 -672l-204 674h-246l-207 -674zM582 1569q-63 0 -104.5 -39.5t-41.5 -102.5q0 -64 41 -103.5t105 -39.5q61 0 103 40t42 103t-42 102.5t-103 39.5zM999 1569q-61 0 -101 -40t-40 -102
q0 -63 40.5 -103t100.5 -40q64 0 105 39.5t41 103.5t-41 103t-105 39z" />
    <glyph glyph-name="uni1E9E" unicode="&#x1e9e;" horiz-adv-x="1251" 
d="M598 680q148 -11 228.5 -70t80.5 -170q0 -236 -385 -239v-207q140 -5 258 17.5t210 74t144 140t52 206.5q0 158 -100 260t-265 121l281 277q0 200 -142.5 319t-375.5 119q-277 0 -421.5 -142.5t-144.5 -381.5v-1004h277v995q0 136 73 215.5t207 79.5q113 0 183.5 -52
t70.5 -144l-231 -248v-166z" />
    <glyph glyph-name="Ygrave" unicode="&#x1ef2;" horiz-adv-x="1366" 
d="M827 0v559l547 879h-317l-369 -615l-369 615h-329l551 -883v-555h286zM330 1905l280 -265h201l-205 342z" />
    <glyph glyph-name="ygrave" unicode="&#x1ef3;" horiz-adv-x="1099" 
d="M-10 1047l456 -1053l-127 -350h246l545 1403h-289l-256 -748l-280 748h-295zM193 1526l280 -264h201l-205 342z" />
    <glyph glyph-name="endash" unicode="&#x2013;" horiz-adv-x="901" 
d="M905 438v244h-909v-244h909z" />
    <glyph glyph-name="emdash" unicode="&#x2014;" horiz-adv-x="1533" 
d="M1536 469v244h-1538v-244h1538z" />
    <glyph glyph-name="uni2015" unicode="&#x2015;" horiz-adv-x="1665" 
d="M1628 469v244h-1538v-244h1538z" />
    <glyph glyph-name="quoteleft" unicode="&#x2018;" horiz-adv-x="585" 
d="M279 1559l-187 -623h287l100 623h-200z" />
    <glyph glyph-name="quoteright" unicode="&#x2019;" horiz-adv-x="587" 
d="M307 936l189 623h-287l-100 -623h198z" />
    <glyph glyph-name="quotesinglbase" unicode="&#x201a;" horiz-adv-x="636" 
d="M322 -348l188 620h-289l-98 -620h199z" />
    <glyph glyph-name="quotereversed" unicode="&#x201b;" horiz-adv-x="585" 
d="M381 1559h-289l189 -623h200z" />
    <glyph glyph-name="quotedblleft" unicode="&#x201c;" horiz-adv-x="1030" 
d="M725 1520l-188 -621h286l99 621h-197zM279 1520l-187 -621h285l100 621h-198z" />
    <glyph glyph-name="quotedblright" unicode="&#x201d;" horiz-adv-x="1032" 
d="M307 899l189 621h-287l-100 -621h198zM754 899l186 621h-287l-98 -621h199z" />
    <glyph glyph-name="quotedblbase" unicode="&#x201e;" horiz-adv-x="1081" 
d="M322 -367l188 621h-287l-100 -621h199zM768 -367l186 621h-286l-99 -621h199z" />
    <glyph glyph-name="dagger" unicode="&#x2020;" horiz-adv-x="946" 
d="M543 1147l22 326h-186l20 -326l-272 18v-172l274 19l-16 -860h174l-18 860l278 -19v172z" />
    <glyph glyph-name="daggerdbl" unicode="&#x2021;" horiz-adv-x="942" 
d="M397 295l-18 -305h184l-20 305l270 -16v170l-272 -17q5 128 5 338.5t-5 337.5l272 -18v172l-270 -19l20 322h-184l18 -322l-270 19v-172l272 18q-8 -338 0 -676l-272 17v-170z" />
    <glyph glyph-name="bullet" unicode="&#x2022;" horiz-adv-x="950" 
d="M475 1067q-134 0 -229.5 -96.5t-95.5 -229.5q0 -132 95.5 -226.5t229.5 -94.5t229 94t95 229q0 133 -96 228.5t-228 95.5z" />
    <glyph glyph-name="ellipsis" unicode="&#x2026;" horiz-adv-x="1755" 
d="M328 324q-79 0 -128.5 -47.5t-49.5 -124.5q0 -80 50.5 -128.5t127.5 -48.5q74 0 125 48.5t51 128.5q0 77 -51 124.5t-125 47.5zM879 324q-79 0 -129 -47.5t-50 -124.5q0 -80 51 -128.5t128 -48.5q74 0 125 48.5t51 128.5q0 77 -51 124.5t-125 47.5zM1430 324
q-79 0 -129 -47.5t-50 -124.5q0 -80 51 -128.5t128 -48.5q74 0 125 48.5t51 128.5q0 77 -51 124.5t-125 47.5z" />
    <glyph glyph-name="perthousand" unicode="&#x2030;" horiz-adv-x="2521" 
d="M434 709q155 0 252.5 110t97.5 264q0 157 -97.5 264t-250.5 107t-252.5 -109t-99.5 -264q0 -156 97.5 -264t252.5 -108zM430 1282q79 0 119.5 -59t40.5 -142q0 -88 -42 -144t-112 -56q-68 0 -114 57.5t-46 144.5q0 89 41.5 144t112.5 55zM1300 -23q155 0 253 110.5
t98 266.5q0 157 -98 263t-250 106q-153 0 -252 -107t-99 -266q0 -156 98 -264.5t250 -108.5zM1300 549q54 0 90.5 -31t51 -75.5t14.5 -96.5q0 -88 -40.5 -141t-112.5 -53q-69 0 -114.5 56.5t-45.5 145.5q0 87 43.5 141t113.5 54zM2089 -23q102 0 183 53t123 138.5t42 185.5
q0 157 -97 263t-249 106q-155 0 -253.5 -107t-98.5 -266q0 -155 99 -264t251 -109zM2089 549q54 0 90.5 -31t51 -75.5t14.5 -96.5q0 -87 -41.5 -140.5t-112.5 -53.5q-70 0 -116 56t-46 146q0 87 43.5 141t116.5 54zM1288 1436l-1050 -1436h227l1046 1436h-223z" />
    <glyph glyph-name="minute" unicode="&#x2032;" horiz-adv-x="571" 
d="M178 1442l-49 -639h162l180 581l12 58h-305z" />
    <glyph glyph-name="second" unicode="&#x2033;" horiz-adv-x="1013" 
d="M90 803h158l180 581l12 58h-301zM586 1442l-49 -639h157l180 581l13 58h-301z" />
    <glyph glyph-name="guilsinglleft" unicode="&#x2039;" horiz-adv-x="724" 
d="M629 150l-267 360l267 362l-215 89l-332 -455l332 -449z" />
    <glyph glyph-name="guilsinglright" unicode="&#x203a;" horiz-adv-x="724" 
d="M362 510l-262 -360l213 -93l330 449l-332 455l-215 -89z" />
    <glyph glyph-name="exclamdbl" unicode="&#x203c;" horiz-adv-x="1146" 
d="M485 1438h-321l4 -172l78 -826h157l78 826zM324 297q-71 0 -120.5 -44t-49.5 -116q0 -74 48.5 -118t121.5 -44q75 0 123.5 43.5t48.5 118.5q0 71 -49 115.5t-123 44.5zM985 1438h-321l4 -172l77 -826h158l78 826zM823 297q-71 0 -120.5 -44t-49.5 -116q0 -74 48.5 -118
t121.5 -44q75 0 123.5 43.5t48.5 118.5q0 71 -49 115.5t-123 44.5z" />
    <glyph glyph-name="fraction" unicode="&#x2044;" horiz-adv-x="479" 
d="M-100 -152l921 1778h-239l-918 -1778h236z" />
    <glyph glyph-name="uni2070" unicode="&#x2070;" horiz-adv-x="710" 
d="M176 1024q0 49 8 96t27 95.5t57.5 78t91.5 29.5q89 0 138 -82.5t49 -220.5q0 -136 -48 -218.5t-134 -82.5q-91 0 -140 81.5t-49 223.5zM729 1022q0 90 -22 169.5t-65.5 144t-115.5 102t-164 37.5q-171 0 -268.5 -126.5t-97.5 -328.5t97 -327.5t267 -125.5
q171 0 270 127.5t99 327.5z" />
    <glyph glyph-name="uni2074" unicode="&#x2074;" horiz-adv-x="710" 
d="M199 887q25 39 101.5 154.5t98.5 152.5h4l-2 -12q-2 -24 -2 -295h-102h-96h-2zM-14 739q75 0 211.5 1t201.5 1l-4 -153h195l-2 153q14 0 40 -1t42 -1l18 152l-98 -4v577h-191l-413 -614v-111z" />
    <glyph glyph-name="uni2075" unicode="&#x2075;" horiz-adv-x="710" 
d="M182 975q68 35 129 35q74 0 122 -39.5t48 -100.5q0 -68 -44 -107.5t-120 -39.5q-106 0 -211 94l-96 -112q68 -65 140 -97.5t169 -32.5q147 0 237.5 81.5t90.5 215.5q0 126 -84.5 198.5t-206.5 72.5q-55 0 -135 -37l19 199h370l6 143h-512l-32 -414z" />
    <glyph glyph-name="uni2076" unicode="&#x2076;" horiz-adv-x="710" 
d="M532 1450h-182l-184 -274q-78 -123 -107.5 -188.5t-29.5 -127.5q0 -132 92 -211.5t241 -79.5q137 0 228.5 82t91.5 213q0 122 -71.5 193t-186.5 71q-80 0 -148 -45zM360 707q-66 0 -112.5 41t-46.5 106q0 64 42.5 105.5t114.5 41.5q71 0 113.5 -40t42.5 -103
q0 -66 -42.5 -108.5t-111.5 -42.5z" />
    <glyph glyph-name="uni2077" unicode="&#x2077;" horiz-adv-x="710" 
d="M338 586l399 727v137h-626v-147h440l-401 -717h188z" />
    <glyph glyph-name="uni2078" unicode="&#x2078;" horiz-adv-x="710" 
d="M557 1038q133 77 133 197q0 104 -86 172t-217 68q-129 0 -215 -67.5t-86 -170.5q0 -68 36 -118t99 -79q-166 -70 -166 -217q0 -109 95.5 -181.5t236.5 -72.5q147 0 240.5 71t93.5 185q0 73 -44 128t-120 85zM387 1094q-54 0 -95.5 35.5t-41.5 89.5q0 53 38.5 86.5
t98.5 33.5q62 0 101.5 -34t39.5 -86q0 -53 -40 -89t-101 -36zM387 707q-66 0 -114 35t-48 98q0 56 45.5 93.5t116.5 37.5q72 0 119 -37t47 -94q0 -58 -45.5 -95.5t-120.5 -37.5z" />
    <glyph glyph-name="uni2079" unicode="&#x2079;" horiz-adv-x="710" 
d="M227 575h183l217 330q110 159 110 275q0 132 -93.5 213.5t-248.5 81.5q-138 0 -230.5 -83.5t-92.5 -217.5q0 -123 74.5 -198t191.5 -75q45 0 77 11.5t68 37.5zM401 1335q69 0 114.5 -41.5t45.5 -109.5q0 -63 -44.5 -105.5t-113.5 -42.5q-72 0 -115.5 42t-43.5 108
q0 65 43 107t114 42z" />
    <glyph glyph-name="uni207F" unicode="&#x207f;" horiz-adv-x="806" 
d="M760 1266q0 126 -65 201t-189 75q-136 0 -225 -115l-193 99v-725h193v405q0 83 45 124.5t104 41.5q58 0 98.5 -41.5t40.5 -124.5v-405h191v465z" />
    <glyph glyph-name="Euro" unicode="&#x20ac;" horiz-adv-x="1202" 
d="M358 776q5 123 49.5 224.5t126.5 163t187 61.5q151 0 254 -127l196 159q-83 105 -191 160.5t-259 55.5q-129 0 -236 -42.5t-180.5 -115t-124.5 -170t-74.5 -207t-23.5 -227.5q0 -214 74 -382t216.5 -265t332.5 -97q295 0 471 221l-195 158q-107 -131 -262 -131
q-80 0 -145 34t-106 91t-65 123.5t-32 140.5h424v172h-437z" />
    <glyph glyph-name="uni2113" unicode="&#x2113;" horiz-adv-x="1064" 
d="M600 -27q145 0 303 129l-90 138q-38 -29 -59 -43.5t-59.5 -32t-69.5 -17.5q-97 0 -97 129v269q153 170 237.5 324t84.5 302q0 125 -67.5 209t-178.5 84q-74 0 -130.5 -32.5t-88.5 -87.5t-47.5 -118.5t-15.5 -133.5v-496l-175 -170l95 -127l80 80v-105q0 -148 74 -224.5
t204 -76.5zM602 1300q33 0 48.5 -43.5t15.5 -95.5q0 -84 -35 -189t-103 -196v338q0 94 20 140t54 46z" />
    <glyph glyph-name="trademark" unicode="&#x2122;" horiz-adv-x="1816" 
d="M727 1266v180h-715v-180h260v-668h197v668h258zM1765 598v848h-239l-223 -514l-222 514h-247v-848h196v498l209 -498h123l209 496v-496h194z" />
    <glyph glyph-name="uni2126" unicode="&#x2126;" horiz-adv-x="1667" 
d="M911 2h660v246h-348q141 80 222 231t81 318q0 153 -55.5 280t-152 211.5t-227.5 131t-282 46.5q-149 0 -280 -46.5t-229 -130.5t-155 -210t-57 -278q0 -167 81.5 -320t221.5 -233h-348v-246h666v258q-155 73 -241.5 201.5t-86.5 296.5q0 199 114.5 325.5t311.5 126.5
t311.5 -125.5t114.5 -326.5q0 -167 -84 -292.5t-238 -205.5v-258z" />
    <glyph glyph-name="estimated" unicode="&#x212e;" horiz-adv-x="1386" 
d="M1233 502q0 269 -149 438.5t-390 169.5q-160 0 -284.5 -76t-190 -205t-65.5 -288q0 -119 38.5 -224t108 -182.5t171.5 -122.5t222 -45q160 0 275.5 74.5t222.5 241.5l-141 82q-78 -134 -163.5 -192t-193.5 -58q-138 0 -241 92v295h780zM936 649h-483v225q101 93 239 93
q140 0 244 -95v-223z" />
    <glyph glyph-name="oneeighth" unicode="&#x215b;" horiz-adv-x="1607" 
d="M342 -152l922 1778h-240l-918 -1778h236zM158 586h200v870l-147 -2q-13 -6 -81 -38t-97 -50v-174q58 19 125 61v-667zM1360 449q64 37 98.5 83.5t34.5 112.5q0 104 -86 172t-217 68q-129 0 -215 -67.5t-86 -170.5q0 -134 135 -196q-166 -70 -166 -218q0 -108 95.5 -180.5
t236.5 -72.5q147 0 240.5 71t93.5 185q0 73 -44 128t-120 85zM1190 504q-54 0 -95.5 35.5t-41.5 89.5q0 53 38.5 87t98.5 34q62 0 101.5 -34.5t39.5 -86.5q0 -53 -40 -89t-101 -36zM1190 117q-66 0 -114 35t-48 98q0 56 45.5 93.5t116.5 37.5q72 0 119 -37t47 -94
q0 -58 -45.5 -95.5t-120.5 -37.5z" />
    <glyph glyph-name="threeeighths" unicode="&#x215c;" horiz-adv-x="1865" 
d="M596 -152l922 1778h-240l-918 -1778h236zM1616 449q64 37 98.5 83.5t34.5 112.5q0 104 -86 172t-217 68q-129 0 -215 -67.5t-86 -170.5q0 -134 135 -196q-166 -70 -166 -218q0 -108 95.5 -180.5t236.5 -72.5q147 0 240.5 71t93.5 185q0 73 -44 128t-120 85zM1446 504
q-54 0 -95.5 35.5t-41.5 89.5q0 53 38.5 87t98.5 34q62 0 101.5 -34.5t39.5 -86.5q0 -53 -40 -89t-101 -36zM1446 117q-66 0 -114 35t-48 98q0 56 45.5 93.5t116.5 37.5q72 0 119 -37t47 -94q0 -58 -45.5 -95.5t-120.5 -37.5zM49 827q13 -130 97.5 -194t222.5 -64
q146 0 245 76.5t99 206.5q0 75 -39 126.5t-127 84.5q125 60 125 188q0 106 -84.5 167t-206.5 61q-123 0 -203 -61t-94 -185h190q21 96 105 96q44 0 72 -26.5t28 -67.5q0 -53 -38.5 -85t-98.5 -32h-31v-131q5 0 23 1t24 1q81 0 120.5 -36.5t39.5 -88.5q0 -62 -40 -102.5
t-103 -40.5q-110 0 -127 106h-199z" />
    <glyph glyph-name="fiveeighths" unicode="&#x215d;" horiz-adv-x="1828" 
d="M565 -152l922 1778h-240l-917 -1778h235zM231 983q68 35 129 35q74 0 122 -39t48 -100q0 -68 -43.5 -108t-119.5 -40q-106 0 -211 94l-97 -112q68 -64 140 -96.5t170 -32.5q147 0 237 81.5t90 215.5q0 126 -84 198t-206 72q-56 0 -136 -37l19 199h370l7 143h-512
l-33 -414zM1579 449q64 37 98.5 83.5t34.5 112.5q0 104 -86 172t-217 68q-129 0 -215 -67.5t-86 -170.5q0 -134 135 -196q-166 -70 -166 -218q0 -108 95.5 -180.5t236.5 -72.5q147 0 240.5 71t93.5 185q0 73 -44 128t-120 85zM1409 504q-54 0 -95.5 35.5t-41.5 89.5
q0 53 38.5 87t98.5 34q62 0 101.5 -34.5t39.5 -86.5q0 -53 -40 -89t-101 -36zM1409 117q-66 0 -114 35t-48 98q0 56 45.5 93.5t116.5 37.5q72 0 119 -37t47 -94q0 -58 -45.5 -95.5t-120.5 -37.5z" />
    <glyph glyph-name="seveneighths" unicode="&#x215e;" horiz-adv-x="1626" 
d="M336 -152l921 1778h-239l-918 -1778h236zM1378 449q64 37 98.5 83.5t34.5 112.5q0 104 -86 172t-217 68q-129 0 -215 -67.5t-86 -170.5q0 -134 135 -196q-165 -70 -165 -218q0 -109 95 -181t236 -72q147 0 240.5 71t93.5 185q0 73 -44 128t-120 85zM1208 504
q-54 0 -95.5 35.5t-41.5 89.5q0 53 38.5 87t98.5 34q62 0 102 -34.5t40 -86.5q0 -53 -40.5 -89t-101.5 -36zM1208 117q-65 0 -113 34.5t-48 98.5q0 56 45 93.5t116 37.5q72 0 119 -37t47 -94q0 -58 -45.5 -95.5t-120.5 -37.5zM268 598l400 727v137h-627v-147h440l-401 -717
h188z" />
    <glyph glyph-name="partialdiff" unicode="&#x2202;" horiz-adv-x="1071" 
d="M506 -23q84 0 154 26t118 69.5t85 106t59 128.5t35.5 144.5t18.5 146.5t5 141q0 102 -14.5 199t-51 195.5t-92.5 171.5t-146 119t-204 46q-194 0 -340 -149l119 -135q98 98 221 98q71 0 126.5 -32.5t88.5 -82.5t54 -118.5t28.5 -132.5t7.5 -132q-126 113 -282 113
q-127 0 -222.5 -62.5t-143.5 -164.5t-48 -226t49 -229.5t147.5 -172.5t227.5 -67zM508 713q143 0 260 -148q-3 -53 -12.5 -105t-29.5 -108t-48 -98t-72 -69t-98 -27q-103 0 -163 87.5t-60 198.5q0 112 59.5 190.5t163.5 78.5z" />
    <glyph glyph-name="uni2206" unicode="&#x2206;" horiz-adv-x="1544" 
d="M43 0h1458l-594 1454h-276zM1106 242h-676l336 888z" />
    <glyph glyph-name="product" unicode="&#x220f;" horiz-adv-x="1456" 
d="M1110 -537h209v2034h-1180v-2034h209v1840h762v-1840z" />
    <glyph glyph-name="summation" unicode="&#x2211;" horiz-adv-x="1218" 
d="M33 -535h1153v195h-883l608 836l-573 811h825v194h-1106v-155l602 -848l-626 -875v-158z" />
    <glyph glyph-name="minus" unicode="&#x2212;" horiz-adv-x="1327" 
d="M1196 623v192h-1065v-192h1065z" />
    <glyph glyph-name="radical" unicode="&#x221a;" horiz-adv-x="1001" 
d="M659 -14l355 1716h-209l-281 -1389l-266 564l-268 -119l80 -170l90 41l307 -643h192z" />
    <glyph glyph-name="infinity" unicode="&#x221e;" horiz-adv-x="1472" 
d="M1108 401q135 0 220 92.5t85 227.5q0 138 -85 232t-220 94q-108 0 -197.5 -56t-175.5 -151q-191 204 -373 204q-134 0 -219.5 -94.5t-85.5 -230.5q0 -137 86.5 -227.5t223.5 -90.5q55 0 105.5 15t98.5 46.5t80.5 58t81.5 71.5q46 -41 81.5 -69t85 -59t102 -47t106.5 -16z
M1102 858q60 0 89.5 -38.5t29.5 -100.5q0 -59 -30 -94t-85 -35q-101 0 -240 125q83 78 122 103q61 40 114 40zM365 856q23 0 47.5 -7.5t40.5 -14t43 -26t35.5 -26.5t39 -33.5t33.5 -29.5q-129 -129 -235 -129q-58 0 -88.5 35t-30.5 96q0 57 30 96t85 39z" />
    <glyph glyph-name="integral" unicode="&#x222b;" horiz-adv-x="716" 
d="M197 -471q55 0 98.5 22.5t70.5 63.5t45.5 87t27 104t11.5 103t3 95v1198q0 174 34 174q16 0 45 -26.5t60 -26.5q43 0 72.5 29.5t29.5 74.5q0 47 -30.5 79t-71.5 44.5t-88 12.5q-64 0 -112.5 -29t-76 -72.5t-45 -103.5t-23 -113.5t-5.5 -111.5v-1237q0 -99 -6 -143
t-29 -44q-16 0 -43.5 26.5t-52.5 26.5q-41 0 -70 -29.5t-29 -70.5q0 -64 58.5 -98.5t126.5 -34.5z" />
    <glyph glyph-name="approxequal" unicode="&#x2248;" horiz-adv-x="1298" 
d="M1034 1079q-23 -157 -131 -157q-48 0 -116 22.5t-126.5 49t-133 49t-134.5 22.5q-70 0 -124.5 -29t-88.5 -80.5t-54 -110t-30 -128.5h166q26 157 146 157q42 0 107 -22.5t123 -49t132.5 -49t134.5 -22.5q72 0 128 30t90 81.5t52.5 110.5t24.5 126h-166zM1034 686
q-24 -156 -131 -156q-48 0 -116 22.5t-126.5 49.5t-133 49.5t-134.5 22.5q-70 0 -124.5 -29t-88.5 -80.5t-54 -110t-30 -128.5h166q26 157 146 157q52 0 139.5 -35.5t184.5 -71.5t173 -36q72 0 128 30t90 81t52.5 109.5t24.5 125.5h-166z" />
    <glyph glyph-name="notequal" unicode="&#x2260;" horiz-adv-x="1304" 
d="M610 434h570v191h-463l100 198h371v195h-266l102 194l-170 95l-154 -289h-559v-195h455l-100 -198h-365v-191h262l-104 -192l172 -92z" />
    <glyph glyph-name="lessequal" unicode="&#x2264;" horiz-adv-x="1327" 
d="M1165 1122v264l-997 -436v-254l997 -436v262l-731 303zM1196 0v193h-1065v-193h1065z" />
    <glyph glyph-name="greaterequal" unicode="&#x2265;" horiz-adv-x="1327" 
d="M186 1384v-266l729 -297l-729 -299v-262l998 434v254zM1196 0v193h-1065v-193h1065z" />
    <glyph glyph-name="lozenge" unicode="&#x25ca;" horiz-adv-x="980" 
d="M578 -72l346 799l-346 799h-177l-344 -799l344 -799h177zM489 1251l224 -524l-224 -524l-219 524z" />
    <glyph glyph-name="uni25CC" unicode="&#x25cc;" horiz-adv-x="1818" 
d="M926 1550q-41 0 -69 -26t-28 -66q0 -42 27.5 -69t69.5 -27q40 0 67 27t27 69t-26.5 67t-67.5 25zM1278 1456q-42 0 -70 -25.5t-28 -66.5q0 -42 28 -68t70 -26q40 0 67 26t27 68t-26.5 67t-67.5 25zM1511 1182q-40 0 -67 -25.5t-27 -66.5q0 -42 27 -68.5t67 -26.5
q42 0 69.5 26.5t27.5 68.5q0 41 -27.5 66.5t-69.5 25.5zM1634 842q-41 0 -67.5 -25.5t-26.5 -66.5q0 -42 27 -68.5t67 -26.5t67.5 26.5t27.5 68.5t-27 67t-68 25zM1536 475q-41 0 -67.5 -25.5t-26.5 -66.5q0 -42 27 -68t67 -26t67 26t27 68t-26.5 67t-67.5 25zM1270 221
q-41 0 -68.5 -25t-27.5 -67q0 -41 27.5 -66.5t68.5 -25.5q40 0 67 25.5t27 66.5q0 42 -26.5 67t-67.5 25zM926 100q-42 0 -69.5 -25.5t-27.5 -66.5q0 -42 27.5 -68t69.5 -26q40 0 67 26t27 68t-26.5 67t-67.5 25zM539 205q-41 0 -69 -26t-28 -66q0 -42 27.5 -68.5
t69.5 -26.5q40 0 67 26.5t27 68.5t-26.5 67t-67.5 25zM256 467q-42 0 -69 -25.5t-27 -66.5q0 -42 27.5 -68t68.5 -26q39 0 65.5 26t26.5 68q0 41 -26.5 66.5t-65.5 25.5zM184 842q-40 0 -67 -25.5t-27 -66.5q0 -42 27 -68.5t67 -26.5q42 0 69.5 26.5t27.5 68.5t-27.5 67
t-69.5 25zM281 1188q-41 0 -69 -26t-28 -66q0 -42 27.5 -68.5t69.5 -26.5q40 0 67 26.5t27 68.5t-26.5 67t-67.5 25zM532 1473q-40 0 -68 -26t-28 -67q0 -42 27.5 -68t68.5 -26q39 0 67 26t28 68t-27.5 67.5t-67.5 25.5z" />
    <glyph glyph-name="caroncommaaccent" horiz-adv-x="1024" 
d="M539 1145l118 411h-213l-71 -411h166z" />
    <glyph glyph-name="commaaccentrotate" horiz-adv-x="403" 
d="M199 1589l-179 -428h289l90 428h-200z" />
    <glyph glyph-name="f_t" horiz-adv-x="1351" 
d="M745 1483q-74 24 -182 24q-358 0 -358 -372v-91l-187 -223h187v-821h274v821h248v221h-281v84q0 84 45 128t121 44q65 0 133 -22v207zM791 295q0 -151 80 -234.5t225 -83.5q105 0 184 43v224q-59 -29 -113 -29q-98 0 -98 111v493h258v230h-258v342l-485 -572h207v-524z
" />
    <glyph glyph-name="w_w_w" horiz-adv-x="4904" 
d="M305 1049h-278l338 -1053h245l217 692l215 -692h252l340 1053h-276l-199 -672l-205 674h-245l-207 -674zM1929 1049h-278l338 -1053h245l217 692l215 -692h252l340 1053h-276l-199 -672l-205 674h-245l-207 -674zM3551 1049h-278l338 -1053h245l217 692l216 -692h251
l340 1053h-276l-199 -672l-205 674h-245l-207 -674z" />
    <glyph glyph-name="t_t" horiz-adv-x="1417" 
d="M821 295q0 -151 80 -234.5t225 -83.5q106 0 185 43v224q-59 -29 -113 -29q-98 0 -98 111v493h258v230h-258v342l-486 -572h207v-524zM244 295q0 -151 80 -234.5t225 -83.5q105 0 184 43v224q-59 -29 -112 -29q-99 0 -99 111v493h258v230h-258v342l-485 -572h207v-524z
" />
    <glyph glyph-name="Upsilondieresis_alt" horiz-adv-x="1415" 
d="M872 0v559l547 879h-317l-369 -615l-368 615h-330l551 -883v-555h286zM518 1919q-66 0 -107.5 -40.5t-41.5 -106.5q0 -68 42 -108t107 -40t109.5 40.5t44.5 107.5q0 66 -44.5 106.5t-109.5 40.5zM944 1919q-64 0 -105.5 -41.5t-41.5 -105.5q0 -67 42 -107.5t105 -40.5
q67 0 109.5 40t42.5 108q0 67 -42.5 107t-109.5 40z" />
    <glyph glyph-name=".null.1" horiz-adv-x="569" 
 />
    <glyph glyph-name="ogonek.1" horiz-adv-x="522" 
d="M440 -264q-60 -23 -102 -23q-41 0 -64.5 23.5t-23.5 60.5q0 70 108 191l-137 73q-89 -92 -128.5 -159.5t-39.5 -134.5q0 -96 70 -154.5t176 -58.5q86 0 176 43z" />
    <glyph glyph-name="ogonek.2" horiz-adv-x="522" 
d="M440 -264q-60 -23 -102 -23q-39 0 -63.5 23t-24.5 63q0 104 201 289l-283 -88q-115 -123 -115 -238q0 -96 69.5 -152t176.5 -56q86 0 176 43z" />
    <glyph glyph-name="periodcentered.loclCAT" horiz-adv-x="604" 
d="M328 922q-79 0 -128.5 -47.5t-49.5 -126.5q0 -78 51 -126.5t127 -48.5q74 0 125 48.5t51 126.5t-51 126t-125 48z" />
    <glyph glyph-name="i.loclTRK" horiz-adv-x="538" 
d="M381 0v1049h-279v-1049h279zM242 1516q-75 0 -123.5 -43.5t-48.5 -116.5q0 -72 50 -117t122 -45q73 0 122.5 45t49.5 117q0 73 -49 116.5t-123 43.5z" />
    <glyph glyph-name="periodcentered.loclCAT.case" horiz-adv-x="604" 
d="M328 922q-79 0 -128.5 -47.5t-49.5 -126.5q0 -78 51 -126.5t127 -48.5q74 0 125 48.5t51 126.5t-51 126t-125 48z" />
    <glyph glyph-name="uni004A0301" horiz-adv-x="864" 
d="M0 63q133 -86 270 -86q218 0 341.5 132.5t123.5 367.5v961h-286v-963q0 -246 -191 -246q-48 0 -97.5 19t-80.5 39t-80 57v-281zM647 1942l-198 -343h198l281 265z" />
    <glyph glyph-name="uni006A0301" horiz-adv-x="477" 
d="M362 1604l-198 -342h198l281 264zM-51 -352q77 -15 131 -15q168 0 241.5 88t73.5 265v1063h-278v-1080q0 -129 -94 -129q-23 0 -74 15v-207z" />
    <glyph glyph-name="tonos.case" horiz-adv-x="927" 
d="M391 1688l-198 -342h196l365 342h-363z" />
    <glyph glyph-name="uni030C.alt" 
d="M721 1579h-213l-137 -152l-138 152h-217l263 -338h180z" />
    <glyph glyph-name="Delta" horiz-adv-x="1529" 
d="M1135 231h-742l371 887zM-4 0h1538l-637 1444h-264z" />
    <glyph glyph-name="uni0394.1" horiz-adv-x="1544" 
d="M43 0h1458l-594 1454h-276zM430 242l336 888l340 -888h-676z" />
    <glyph glyph-name="uni03BC.001" horiz-adv-x="1226" 
d="M401 -356h-278v1405h278v-586q0 -117 57 -178.5t140 -61.5q95 0 157 62.5t62 177.5v586h279v-1049l-281 139q-37 -77 -95 -119.5t-128 -42.5q-62 0 -112.5 33.5t-78.5 91.5v-458z" />
    </font>
</defs>
</svg>
