<?xml version="1.0" standalone="no"?>
<!DOCTYPE svg PUBLIC "-//W3C//DTD SVG 1.1//EN" "http://www.w3.org/Graphics/SVG/1.1/DTD/svg11.dtd" >
<svg xmlns="http://www.w3.org/2000/svg" xmlns:xlink="http://www.w3.org/1999/xlink" version="1.1">
<metadata>
Created by FontForge 20201107 at Thu Dec 18 19:34:33 2025
 By 
Copyright 2022 The Geom Project Authors (https://github.com/ThanosPoulakidas/Geom)
</metadata>
<defs>
<font id="Geom-Bold" horiz-adv-x="0" >
  <font-face 
    font-family="Geom"
    font-weight="700"
    font-stretch="normal"
    units-per-em="2048"
    panose-1="0 0 0 0 0 0 0 0 0 0"
    ascent="1638"
    descent="-410"
    x-height="1067"
    cap-height="1438"
    bbox="-410 -561 4983 2107"
    underline-thickness="102"
    underline-position="-255"
    unicode-range="U+000D-FB02"
  />
<missing-glyph horiz-adv-x="1171" 
d="M45 1475v-1475h1081v1475h-1081zM920 1358l-332 -498l-336 498h668zM987 258l-321 479l321 482v-961zM920 117h-668l336 499zM186 258v963l320 -484z" />
    <glyph glyph-name="fi" unicode="fi" horiz-adv-x="1380" 
d="M782 1481q-93 28 -200 28q-178 0 -274.5 -92.5t-96.5 -286.5v-69l-180 -248h180v-813h311v813h248v246h-293v67q0 71 47 109.5t119 38.5q68 0 139 -23v230zM1221 0v1067h-314v-1067h314zM1061 1542q-81 0 -134 -46.5t-53 -127.5q0 -79 53.5 -125.5t133.5 -46.5
q82 0 136 46.5t54 125.5q0 82 -53.5 128t-136.5 46z" />
    <glyph glyph-name="fl" unicode="fl" horiz-adv-x="1339" 
d="M782 1481q-93 28 -200 28q-178 0 -274.5 -92.5t-96.5 -286.5v-69l-180 -248h180v-813h311v813h248v246h-293v67q0 71 47 109.5t119 38.5q68 0 139 -23v230zM1208 0v1497h-315v-1497h315z" />
    <glyph glyph-name="f_f_i" unicode="ffi" horiz-adv-x="2160" 
d="M2001 0v1067h-313v-1067h313zM1841 1542q-81 0 -133.5 -46.5t-52.5 -127.5q0 -79 53.5 -125.5t132.5 -46.5q82 0 136.5 46.5t54.5 125.5q0 82 -54 128t-137 46zM1563 1481q-93 28 -201 28q-178 0 -274.5 -92.5t-96.5 -286.5v-69l-180 -248h180v-813h312v813h247v246h-293
v67q0 71 47 109.5t119 38.5q69 0 140 -23v230zM782 1481q-93 28 -200 28q-178 0 -274.5 -92.5t-96.5 -286.5v-69l-180 -248h180v-813h311v813h248v246h-293v67q0 71 47 109.5t119 38.5q68 0 139 -23v230z" />
    <glyph glyph-name="f_f_l" unicode="ffl" horiz-adv-x="1990" 
d="M782 1481q-93 28 -200 28q-178 0 -274.5 -92.5t-96.5 -286.5v-69l-180 -248h180v-813h311v813h248v246h-293v67q0 71 47 109.5t119 38.5q68 0 139 -23v230zM1481 1481q-93 28 -201 28q-178 0 -274.5 -92.5t-96.5 -286.5v-69l-180 -248h180v-813h312v813h247v246h-292v67
q0 71 46.5 109.5t118.5 38.5q69 0 140 -23v230zM1907 0v1497h-316v-1497h316z" />
    <glyph glyph-name="f_f" unicode="ff" horiz-adv-x="1519" 
d="M1477 1481q-93 28 -201 28q-178 0 -274.5 -92.5t-96.5 -286.5v-69l-180 -248h180v-813h312v813h247v246h-293v67q0 71 47 109.5t119 38.5q69 0 140 -23v230zM782 1481q-93 28 -200 28q-178 0 -274.5 -92.5t-96.5 -286.5v-69l-180 -248h180v-813h311v813h248v246h-293v67
q0 71 47 109.5t119 38.5q68 0 139 -23v230z" />
    <glyph glyph-name=".notdef" horiz-adv-x="1171" 
d="M45 1475v-1475h1081v1475h-1081zM920 1358l-332 -498l-336 498h668zM987 258l-321 479l321 482v-961zM920 117h-668l336 499zM186 258v963l320 -484z" />
    <glyph glyph-name=".null" 
 />
    <glyph glyph-name="nonmarkingreturn" horiz-adv-x="682" 
 />
    <glyph glyph-name="CR" unicode="&#xd;" horiz-adv-x="417" 
 />
    <glyph glyph-name="space" unicode=" " horiz-adv-x="573" 
 />
    <glyph glyph-name="exclam" unicode="!" horiz-adv-x="663" 
d="M512 1438h-360l2 -174l92 -813h174l90 813zM332 319q-81 0 -135 -45t-54 -124q0 -82 54 -128.5t135 -46.5t133.5 46.5t52.5 128.5q0 79 -52.5 124t-133.5 45z" />
    <glyph glyph-name="quotedbl" unicode="&#x22;" horiz-adv-x="1200" 
d="M170 768h172l209 631l8 39v2h-342zM690 1440l-49 -672h174l209 631l8 39v2h-342z" />
    <glyph glyph-name="numbersign" unicode="#" horiz-adv-x="1386" 
d="M240 317l-54 -317h248l51 317h285l-51 -317h248l51 317h244v269h-199l45 276h221v268h-174l47 308h-248l-47 -308h-284l49 308h-248l-49 -308h-246v-268h201l-45 -276h-224v-269h179zM573 866h293l-47 -286h-295z" />
    <glyph glyph-name="dollar" unicode="$" horiz-adv-x="1267" 
d="M553 -199h186v197q208 21 333.5 133t125.5 289q0 169 -111 268t-352 164v342q148 -23 232 -133l168 182q-145 172 -394 195v127h-186v-123q-210 -17 -334.5 -129.5t-124.5 -284.5q0 -173 114 -273t351 -163v-350q-92 9 -179 57.5t-153 122.5l-184 -199
q105 -107 236.5 -165t271.5 -58v-199zM733 555q35 -11 62 -23t54 -31t41.5 -46.5t14.5 -61.5q0 -126 -172 -149v311zM563 891q-35 12 -60.5 24t-53 31.5t-42 47t-14.5 61.5q0 57 43 94.5t127 44.5v-303z" />
    <glyph glyph-name="percent" unicode="%" horiz-adv-x="1806" 
d="M440 700q161 0 261 113t100 272t-100.5 268t-258.5 109t-259 -109.5t-101 -269.5q0 -162 100 -272.5t258 -110.5zM440 1272q72 0 110 -57.5t38 -133.5q0 -82 -39.5 -135t-106.5 -53q-65 0 -106 53.5t-41 138.5q0 81 40 134t105 53zM1366 -20q105 0 188.5 53t127.5 139
t44 188q0 161 -99.5 270t-258.5 109t-259.5 -110t-100.5 -271q0 -159 100 -268.5t258 -109.5zM1366 547q73 0 110 -56t37 -133q0 -81 -40 -134.5t-105 -53.5q-64 0 -105.5 53t-41.5 137t39 135.5t106 51.5zM483 -12l1067 1452l-229 10l-1067 -1452z" />
    <glyph glyph-name="ampersand" unicode="&#x26;" horiz-adv-x="1488" 
d="M852 322q-117 -105 -225 -105q-91 0 -149 54t-58 137q0 134 153 213zM1178 778q-67 -136 -146 -256l-213 228q295 133 295 370q0 152 -110 252.5t-289 100.5q-188 0 -304 -105.5t-116 -261.5q0 -145 111 -299q-312 -131 -312 -414q0 -191 139 -304.5t355 -113.5
q234 0 432 168l145 -153l301 65l-262 289q93 132 209 358zM573 1096q0 64 38.5 106.5t101.5 42.5q61 0 99 -37t38 -100q0 -124 -182 -205q-49 60 -72 104t-23 89z" />
    <glyph glyph-name="quotesingle" unicode="'" horiz-adv-x="733" 
d="M274 1440l-47 -672h179l208 631l9 39v2h-349z" />
    <glyph glyph-name="parenleft" unicode="(" horiz-adv-x="917" 
d="M838 -109q-125 97 -205.5 194t-128 224t-47.5 277q0 213 91.5 377.5t289.5 320.5l-160 182q-127 -84 -220.5 -172.5t-165.5 -196t-108.5 -235.5t-36.5 -276q0 -293 135 -507.5t392 -367.5z" />
    <glyph glyph-name="parenright" unicode=")" horiz-adv-x="919" 
d="M82 1284q191 -146 286 -310.5t95 -387.5q0 -212 -90.5 -377.5t-290.5 -317.5l164 -180q260 157 393 370.5t133 504.5q0 289 -133 501t-397 379z" />
    <glyph glyph-name="asterisk" unicode="*" horiz-adv-x="811" 
d="M135 1376l150 -205l-242 -84l47 -141l242 82v-264h153v260l236 -78l47 141l-233 80l143 211l-125 86l-145 -202l-150 202z" />
    <glyph glyph-name="plus" unicode="+" horiz-adv-x="1318" 
d="M805 856v377h-291v-377h-371v-281h371v-376h291v376h373v281h-373z" />
    <glyph glyph-name="comma" unicode="," horiz-adv-x="555" 
d="M258 -319l191 669h-302l-114 -669h225z" />
    <glyph glyph-name="hyphen" unicode="-" horiz-adv-x="733" 
d="M684 418v280h-633v-280h633z" />
    <glyph glyph-name="period" unicode="." horiz-adv-x="675" 
d="M336 356q-87 0 -140 -51t-53 -139t54 -139.5t139 -51.5t139.5 51.5t54.5 139.5q0 89 -54 139.5t-140 50.5z" />
    <glyph glyph-name="slash" unicode="/" horiz-adv-x="1155" 
d="M260 -227l901 1851h-264l-897 -1851h260z" />
    <glyph glyph-name="zero" unicode="0" horiz-adv-x="1409" 
d="M408 725q0 59 9 118.5t30.5 121t54.5 108.5t85.5 77t117.5 30q135 0 217 -128.5t82 -332.5q0 -203 -79.5 -332t-215.5 -129q-138 0 -219.5 129t-81.5 338zM1329 721q0 117 -24.5 226t-75.5 203.5t-123.5 164.5t-175 110.5t-223.5 40.5q-190 0 -334 -100.5t-217.5 -269
t-73.5 -377.5q0 -212 73 -380.5t216 -268t334 -99.5t334.5 101.5t216.5 270t73 378.5z" />
    <glyph glyph-name="one" unicode="1" horiz-adv-x="804" 
d="M629 0v1446h-604v-301h284v-1145h320z" />
    <glyph glyph-name="two" unicode="2" horiz-adv-x="1210" 
d="M1087 1028q0 106 -43.5 191t-116.5 136.5t-163 79t-189 27.5q-110 0 -204.5 -31.5t-167 -91.5t-116 -155t-50.5 -215h305q7 101 70.5 156t156.5 55q91 0 141 -47.5t50 -122.5q0 -136 -180 -351l-555 -659h1081v268h-473l194 244q141 178 200.5 289.5t59.5 226.5z" />
    <glyph glyph-name="three" unicode="3" horiz-adv-x="1292" 
d="M1149 1206v240h-973v-266h576l-365 -353l45 -170q65 7 162 7q129 0 202.5 -52t73.5 -153q0 -95 -64.5 -152t-170.5 -57q-192 0 -322 190l-231 -184q93 -134 236.5 -209.5t330.5 -75.5q238 0 388.5 136t150.5 348q0 183 -111 287.5t-291 129.5z" />
    <glyph glyph-name="four" unicode="4" horiz-adv-x="1372" 
d="M1124 1448h-354l-731 -918l55 -239h717v-291h313v291h189v248h-189v909zM811 1090v-551h-428z" />
    <glyph glyph-name="five" unicode="5" horiz-adv-x="1251" 
d="M358 623q115 61 220 61q115 0 188.5 -59t73.5 -156q0 -100 -68 -160.5t-186 -60.5q-171 0 -350 158l-187 -218q117 -107 244.5 -162t296.5 -55q254 0 409.5 137t155.5 367q0 110 -39.5 198t-108 143t-156 84.5t-187.5 29.5q-113 0 -226 -47l23 284h633l4 271h-893
l-49 -707z" />
    <glyph glyph-name="six" unicode="6" horiz-adv-x="1288" 
d="M956 1446h-342l-290 -438q-139 -211 -191.5 -326.5t-52.5 -224.5q0 -218 159 -352t418 -134q237 0 393 139.5t156 364.5q0 207 -117 325t-309 118q-87 0 -140 -18t-110 -62zM651 227q-103 0 -174 65t-71 165q0 96 65.5 160.5t175.5 64.5q109 0 176.5 -63t67.5 -160
q0 -101 -65.5 -166.5t-174.5 -65.5z" />
    <glyph glyph-name="seven" unicode="7" horiz-adv-x="1112" 
d="M475 0l653 1186v252h-1062v-275h708l-655 -1163h356z" />
    <glyph glyph-name="eight" unicode="8" horiz-adv-x="1335" 
d="M971 748q209 112 209 317q0 172 -145.5 284.5t-366.5 112.5t-366.5 -112.5t-145.5 -282.5q0 -210 206 -319q-258 -107 -258 -353q0 -184 159.5 -302t404.5 -118q246 0 403.5 117t157.5 307q0 119 -68 208t-190 141zM668 844q-86 0 -148.5 53t-62.5 135q0 78 59 130
t152 52t152 -52t59 -130q0 -79 -60 -133.5t-151 -54.5zM668 223q-100 0 -174 54.5t-74 148.5q0 86 69.5 141.5t178.5 55.5q107 0 177 -55.5t70 -141.5q0 -85 -67.5 -144t-179.5 -59z" />
    <glyph glyph-name="nine" unicode="9" horiz-adv-x="1286" 
d="M330 -2h342l358 549q94 144 135 244.5t41 195.5q0 220 -158 354t-423 134q-151 0 -275 -61.5t-197 -177t-73 -263.5q0 -207 118 -328t310 -121q80 0 135 19.5t113 64.5zM635 1219q102 0 174 -64.5t72 -163.5q0 -97 -67.5 -162t-174.5 -65q-108 0 -175 65t-67 162
t65.5 162.5t172.5 65.5z" />
    <glyph glyph-name="colon" unicode=":" horiz-adv-x="675" 
d="M338 356q-89 0 -142 -50t-53 -138q0 -89 53.5 -141t141.5 -52q84 0 139 52t55 141q0 88 -54.5 138t-139.5 50zM338 1090q-89 0 -142 -51.5t-53 -139.5q0 -91 53.5 -141.5t141.5 -50.5q85 0 139.5 51t54.5 141q0 88 -55 139.5t-139 51.5z" />
    <glyph glyph-name="semicolon" unicode=";" horiz-adv-x="579" 
d="M281 1090q-88 0 -141.5 -52t-53.5 -139q0 -90 54 -141t141 -51q85 0 139.5 51t54.5 141q0 88 -55 139.5t-139 51.5zM258 -319l193 669h-304l-114 -669h225z" />
    <glyph glyph-name="less" unicode="&#x3c;" horiz-adv-x="1314" 
d="M1161 989v295l-1005 -426v-289l1005 -426v297l-710 275z" />
    <glyph glyph-name="equal" unicode="=" horiz-adv-x="1280" 
d="M1137 1128h-994v-278h994v278zM1137 596h-994v-279h994v279z" />
    <glyph glyph-name="greater" unicode="&#x3e;" horiz-adv-x="1314" 
d="M156 1284v-297l710 -274l-710 -273v-297l1003 424v293z" />
    <glyph glyph-name="question" unicode="?" horiz-adv-x="1017" 
d="M88 997q171 187 344 187q76 0 128 -38.5t52 -98.5q0 -86 -118 -185q-43 -37 -68 -62.5t-56 -67.5t-46 -92.5t-15 -111.5v-100h295v64q0 71 23.5 111t87.5 95q70 55 113 101.5t72.5 115.5t29.5 152q0 120 -60.5 210.5t-160.5 135.5t-222 45q-125 0 -228.5 -44.5
t-170.5 -133.5v-283zM469 319q-80 0 -133 -45t-53 -124q0 -82 53 -128.5t133 -46.5q83 0 136.5 46.5t53.5 128.5q0 79 -53.5 124t-136.5 45z" />
    <glyph glyph-name="at" unicode="@" horiz-adv-x="1912" 
d="M725 575q0 103 64 183t163 80q79 0 126.5 -50.5t47.5 -134.5q0 -108 -67.5 -188t-161.5 -80q-79 0 -125.5 50.5t-46.5 139.5zM1485 -57q-115 -69 -233 -99t-267 -30q-176 0 -325 58.5t-251 161.5t-159 246t-57 308q0 164 58 308.5t159.5 248.5t247 164.5t313.5 60.5
q163 0 304 -53.5t238.5 -145.5t153 -219.5t55.5 -271.5q0 -189 -63 -297.5t-164 -108.5q-72 0 -103.5 57t-21.5 140l88 533l-260 36l-22 -127q-98 154 -275 154q-119 0 -222.5 -68.5t-164.5 -186t-61 -255.5q0 -179 104.5 -290t263.5 -111q173 0 303 157q80 -161 287 -161
q84 0 158.5 34.5t132.5 100t91.5 169t33.5 232.5q0 158 -66 301.5t-179 248.5t-272.5 166.5t-338.5 61.5q-185 0 -349.5 -69.5t-281.5 -188t-185.5 -281t-68.5 -341.5q0 -180 67.5 -340.5t184.5 -277.5t283.5 -185t357.5 -68q297 0 551 160z" />
    <glyph glyph-name="A" unicode="A" horiz-adv-x="1509" 
d="M453 305h596l127 -305h348l-619 1444h-303l-616 -1444h340zM553 563l199 500l198 -500h-397z" />
    <glyph glyph-name="B" unicode="B" horiz-adv-x="1415" 
d="M133 1438v-1438h647q270 0 413.5 108.5t143.5 290.5q0 139 -77.5 228t-225.5 123q103 41 160 123.5t57 201.5q0 176 -135 269.5t-358 93.5h-625zM449 846v328h258q107 0 165 -40.5t58 -121.5q0 -77 -58.5 -121.5t-171.5 -44.5h-251zM449 264v344h286q281 0 281 -170
q0 -84 -64.5 -129t-189.5 -45h-313z" />
    <glyph glyph-name="C" unicode="C" horiz-adv-x="1390" 
d="M1290 459q-103 -95 -206 -144t-226 -49q-199 0 -319.5 129.5t-120.5 325.5q0 124 53 226t154.5 163t232.5 61q254 0 416 -176v334q-188 137 -436 137q-159 0 -299 -58.5t-239.5 -158.5t-156.5 -238.5t-57 -293.5q0 -209 98 -380.5t267 -268.5t374 -97q256 0 465 156v332z
" />
    <glyph glyph-name="D" unicode="D" horiz-adv-x="1536" 
d="M133 1438v-1438h514q184 0 336 54.5t254 151t157.5 230t55.5 289.5q0 157 -56 289t-158.5 226t-252 146t-330.5 52h-520zM457 287v862h229q195 0 312.5 -122t117.5 -308q0 -199 -124 -315.5t-339 -116.5h-196z" />
    <glyph glyph-name="E" unicode="E" horiz-adv-x="1343" 
d="M455 276v320h694v260h-694v303h762v279h-1084v-1438h1098v276h-776z" />
    <glyph glyph-name="F" unicode="F" horiz-adv-x="1302" 
d="M457 -2v557h684v272h-684v326h753v285h-1077v-1440h324z" />
    <glyph glyph-name="G" unicode="G" horiz-adv-x="1603" 
d="M1212 584q0 -80 -31.5 -144.5t-83.5 -104.5t-116 -61.5t-133 -21.5q-183 0 -307.5 132t-124.5 333q0 126 60.5 231.5t168 167.5t236.5 62q229 0 397 -152v344q-170 96 -418 96q-216 0 -394 -99t-279 -270.5t-101 -377.5q0 -210 98.5 -382.5t269 -270t375.5 -97.5
q116 0 218 28.5t189 90.5t149.5 153t97.5 223t35 294v73h-637v-247h331z" />
    <glyph glyph-name="H" unicode="H" horiz-adv-x="1513" 
d="M133 1438v-1438h324v582h600v-582h321v1438h-321v-568h-600v568h-324z" />
    <glyph glyph-name="I" unicode="I" horiz-adv-x="589" 
d="M457 0v1438h-324v-1438h324z" />
    <glyph glyph-name="J" unicode="J" horiz-adv-x="899" 
d="M0 72q141 -97 285 -97q231 0 362 139t131 378v946h-321v-946q0 -116 -51 -173t-140 -57q-71 0 -131.5 33.5t-134.5 95.5v-319z" />
    <glyph glyph-name="K" unicode="K" horiz-adv-x="1376" 
d="M457 848v590h-324v-1438h324v727l538 -727h391l-600 801l570 637h-389z" />
    <glyph glyph-name="L" unicode="L" horiz-adv-x="1187" 
d="M457 285v1153h-324v-1438h1022v285h-698z" />
    <glyph glyph-name="M" unicode="M" horiz-adv-x="1591" 
d="M360 932l433 -653l434 655v-934h319v1434h-336l-415 -658l-416 658h-336v-1434h317v932z" />
    <glyph glyph-name="N" unicode="N" horiz-adv-x="1570" 
d="M1118 537l-680 897h-305v-1434h320v918l694 -918h289v1438h-318v-901z" />
    <glyph glyph-name="O" unicode="O" horiz-adv-x="1699" 
d="M848 -29q158 0 300 58.5t244 158.5t162 239.5t60 295.5q0 151 -58 288t-158 237t-242.5 159t-303.5 59q-162 0 -305 -59t-243.5 -160t-159 -239t-58.5 -291t57.5 -290t157.5 -237.5t242.5 -159.5t304.5 -59zM850 1174q125 0 225 -63.5t153.5 -167.5t53.5 -226
q0 -123 -54 -226.5t-153.5 -166t-224.5 -62.5q-188 0 -311 135t-123 326q0 188 122 319.5t312 131.5z" />
    <glyph glyph-name="P" unicode="P" horiz-adv-x="1318" 
d="M133 1438v-1440h324v465h223q170 0 301.5 56.5t209 169.5t77.5 269q0 225 -154.5 352.5t-415.5 127.5h-565zM457 723v440h217q130 0 200 -55.5t70 -163.5q0 -103 -72 -162t-198 -59h-217z" />
    <glyph glyph-name="Q" unicode="Q" horiz-adv-x="1771" 
d="M1690 -256v348l-215 201q139 182 139 426q0 153 -58 291t-158 238t-242.5 159t-303.5 59q-162 0 -305 -59t-243.5 -160t-159 -239t-58.5 -291q0 -205 98 -375.5t273 -270.5t391 -100q126 0 243.5 36t196.5 97zM850 1174q125 0 225 -63.5t153.5 -167.5t53.5 -226
q0 -190 -122 -322.5t-310 -132.5t-311 133.5t-123 323.5q0 191 122 323t312 132z" />
    <glyph glyph-name="R" unicode="R" horiz-adv-x="1349" 
d="M133 0h326v494h178l340 -494h377l-385 541q155 48 242 159t87 273q0 213 -147 339t-416 126h-602v-1438zM459 748v407h256q124 0 191 -50t67 -151q0 -99 -72 -152.5t-196 -53.5h-246z" />
    <glyph glyph-name="S" unicode="S" horiz-adv-x="1263" 
d="M868 385q0 -41 -21.5 -70.5t-58 -43.5t-71.5 -19.5t-74 -5.5q-150 0 -310 66t-288 180v-302q118 -110 272.5 -162.5t325.5 -52.5q113 0 210.5 25.5t174 75.5t120.5 131.5t44 185.5q0 86 -26 156.5t-70.5 118t-101.5 85t-120.5 62.5t-127 46.5t-120.5 41.5t-101.5 41.5
t-70.5 52.5t-26 70q0 59 55 95t158 36q122 0 254 -57.5t233 -155.5v311q-202 166 -510 166q-102 0 -194 -26.5t-165 -77t-116 -132t-43 -182.5t42.5 -179t110 -125t149.5 -83t164 -62.5t149.5 -53.5t110 -66t42.5 -90z" />
    <glyph glyph-name="T" unicode="T" horiz-adv-x="1224" 
d="M772 0v1153h430v285h-1182v-285h431v-1153h321z" />
    <glyph glyph-name="U" unicode="U" horiz-adv-x="1513" 
d="M119 612q0 -313 166 -477t469 -164t470 165t167 487v815h-326v-826q0 -175 -80 -261.5t-229 -86.5q-151 0 -230.5 92t-79.5 265v817h-327v-826z" />
    <glyph glyph-name="V" unicode="V" horiz-adv-x="1441" 
d="M346 1438h-360l577 -1444h316l575 1444h-354l-375 -1026z" />
    <glyph glyph-name="W" unicode="W" horiz-adv-x="2154" 
d="M637 489l-297 949h-342l481 -1444h287l309 946l316 -946h284l479 1444h-333l-293 -949l-305 951h-283z" />
    <glyph glyph-name="X" unicode="X" horiz-adv-x="1396" 
d="M401 1438h-372l479 -705l-502 -733h367l323 489l324 -489h371l-502 737l479 701h-364l-302 -461z" />
    <glyph glyph-name="Y" unicode="Y" horiz-adv-x="1396" 
d="M860 0v553l549 885h-362l-345 -586l-344 586h-368l547 -889v-549h323z" />
    <glyph glyph-name="Z" unicode="Z" horiz-adv-x="1290" 
d="M444 274l818 920v244h-1223v-277h786l-821 -919v-242h1243v274h-803z" />
    <glyph glyph-name="bracketleft" unicode="[" horiz-adv-x="884" 
d="M782 1231v221h-637v-1737h637v222h-352v1294h352z" />
    <glyph glyph-name="backslash" unicode="\" horiz-adv-x="1114" 
d="M0 1587l870 -1841l244 37l-870 1839z" />
    <glyph glyph-name="bracketright" unicode="]" horiz-adv-x="886" 
d="M104 -63v-224h639v1739h-639v-223h353v-1292h-353z" />
    <glyph glyph-name="asciicircum" unicode="^" horiz-adv-x="966" 
d="M371 1436l-318 -478h228l200 285l201 -285h233l-321 478h-223z" />
    <glyph glyph-name="underscore" unicode="_" horiz-adv-x="1208" 
d="M0 -117v-202h1208v202h-1208z" />
    <glyph glyph-name="grave" unicode="`" horiz-adv-x="528" 
d="M-6 1503l287 -262h227l-207 354z" />
    <glyph glyph-name="a" unicode="a" horiz-adv-x="1208" 
d="M780 272q-91 -88 -217 -88q-80 0 -135 43t-55 115q0 73 61 116.5t154 43.5q111 0 192 -45v-185zM1090 635q0 221 -133 335.5t-386 114.5q-203 0 -421 -86v-235q170 76 352 76q278 0 278 -193v-24q-118 51 -282 51q-92 0 -169.5 -20t-137.5 -60.5t-94 -107.5t-34 -154
q0 -110 55 -192.5t142.5 -123.5t192.5 -41q192 0 325 136l312 -127v651z" />
    <glyph glyph-name="b" unicode="b" horiz-adv-x="1335" 
d="M438 139q131 -162 344 -162q100 0 189 39.5t156 110.5t106 177t39 231t-39 230.5t-106 176.5t-156 110.5t-189 39.5q-114 0 -197.5 -48.5t-152.5 -134.5v588h-315v-1513zM692 825q121 0 195 -84.5t74 -205.5q0 -129 -77 -211t-192 -82q-111 0 -188.5 82.5t-77.5 207.5
q0 127 77 210t189 83z" />
    <glyph glyph-name="c" unicode="c" horiz-adv-x="966" 
d="M877 1042q-99 48 -246 48q-164 0 -294.5 -77t-200.5 -204t-70 -277q0 -153 73 -280.5t201 -202t283 -74.5q145 0 264 58v303q-104 -94 -230 -94q-119 0 -200.5 86.5t-81.5 208.5q0 124 77.5 205t198.5 81q124 0 226 -94v313z" />
    <glyph glyph-name="d" unicode="d" horiz-adv-x="1335" 
d="M1219 -16v1513h-316v-577q-140 172 -352 172q-98 0 -186.5 -39.5t-155.5 -110.5t-106.5 -177.5t-39.5 -232.5q0 -125 39.5 -230.5t107 -176t156.5 -109.5t189 -39q113 0 192.5 46t147.5 129zM639 242q-117 0 -190.5 87t-73.5 206q0 127 77.5 209.5t186.5 82.5
q111 0 190.5 -83t79.5 -207q0 -128 -79 -211.5t-191 -83.5z" />
    <glyph glyph-name="e" unicode="e" horiz-adv-x="1196" 
d="M1030 350q-71 -67 -183.5 -106t-217.5 -39q-161 0 -238 117l742 188q-4 116 -40 219t-100.5 183t-164 126.5t-220.5 46.5q-157 0 -281 -72.5t-192.5 -199t-68.5 -283.5q0 -245 155.5 -403t399.5 -158q104 0 213.5 29.5t195.5 89.5v262zM365 545q0 75 22.5 141t76 113
t130.5 47q87 0 147 -52.5t80 -142.5l-452 -116z" />
    <glyph glyph-name="f" unicode="f" horiz-adv-x="763" 
d="M770 1481q-93 28 -201 28q-178 0 -274 -92.5t-96 -286.5v-69l-181 -248h181v-813h311v813h248v246h-293v67q0 71 47 109.5t119 38.5q68 0 139 -23v230z" />
    <glyph glyph-name="g" unicode="g" horiz-adv-x="1345" 
d="M651 328q-114 0 -189 73t-75 183q0 114 73.5 186t190.5 72q115 0 191 -72t76 -184t-76 -185t-191 -73zM918 186q0 -157 -89.5 -231t-250.5 -74q-119 0 -240 42.5t-215 105.5v-267q114 -58 220 -87t237 -29q143 0 261 36t205 106t135 179.5t48 249.5v850l-322 -135
q-70 76 -151.5 118t-192.5 42q-100 0 -189 -36t-155.5 -101t-105.5 -161t-39 -210q0 -112 38 -207.5t104 -160.5t155 -101.5t190 -36.5q116 0 200.5 46.5t156.5 131.5v-70z" />
    <glyph glyph-name="h" unicode="h" horiz-adv-x="1236" 
d="M1130 690q0 183 -96.5 292.5t-271.5 109.5q-200 0 -336 -170v575h-311v-1497h315v592q0 101 60 157t145 56t132.5 -54.5t47.5 -158.5v-592h315v690z" />
    <glyph glyph-name="i" unicode="i" horiz-adv-x="552" 
d="M434 0v1067h-313v-1067h313zM274 1542q-81 0 -133.5 -46.5t-52.5 -127.5q0 -79 53.5 -125.5t132.5 -46.5q82 0 136.5 46.5t54.5 125.5q0 82 -54 128t-137 46z" />
    <glyph glyph-name="j" unicode="j" horiz-adv-x="686" 
d="M88 -340q72 -14 141 -14q176 0 258 88t82 274v1059h-313v-1065q0 -129 -94 -129q-33 0 -74 14v-227zM408 1542q-81 0 -134 -46t-53 -128q0 -79 53 -125.5t134 -46.5t134.5 46.5t53.5 125.5q0 82 -53.5 128t-134.5 46z" />
    <glyph glyph-name="k" unicode="k" horiz-adv-x="1134" 
d="M430 684v813h-315v-1497h315v535l350 -535h355l-418 616l405 451h-364z" />
    <glyph glyph-name="l" unicode="l" horiz-adv-x="548" 
d="M430 0v1497h-315v-1497h315z" />
    <glyph glyph-name="m" unicode="m" horiz-adv-x="1896" 
d="M1477 0h315v692q0 172 -98 286t-269 114q-225 0 -360 -181q-41 90 -124 135.5t-187 45.5q-194 0 -326 -164l-313 139v-1067h315v592q0 100 52.5 159.5t138.5 59.5q85 0 129.5 -58t44.5 -161v-592h315v592q0 93 50 156t140 63q82 0 129.5 -55t47.5 -164v-592z" />
    <glyph glyph-name="n" unicode="n" horiz-adv-x="1236" 
d="M1130 690q0 178 -99.5 290t-270.5 112q-195 0 -328 -170l-317 145v-1067h315v592q0 107 60 163t141 56q78 0 131 -55t53 -164v-592h315v690z" />
    <glyph glyph-name="o" unicode="o" horiz-adv-x="1296" 
d="M647 -25q159 0 293.5 72.5t213.5 202t79 287.5q0 114 -44 216t-120.5 176.5t-186 118.5t-233.5 44q-165 0 -299.5 -75.5t-209 -203.5t-74.5 -281q0 -152 74 -279.5t208 -202.5t299 -75zM647 825q119 0 198 -86.5t79 -206.5q0 -119 -77.5 -204.5t-197.5 -85.5
q-117 0 -195.5 86t-78.5 209q0 122 75 205t197 83z" />
    <glyph glyph-name="p" unicode="p" horiz-adv-x="1335" 
d="M432 147q138 -170 352 -170q98 0 186.5 39.5t156 110t107.5 177t40 231.5q0 126 -39.5 232t-107.5 176.5t-157 109.5t-188 39q-114 0 -194 -45.5t-148 -128.5l-323 149v-1413h315v493zM692 825q121 0 196 -83.5t75 -204.5q0 -131 -77 -213t-192 -82q-111 0 -189.5 83
t-78.5 207q0 127 77.5 210t188.5 83z" />
    <glyph glyph-name="q" unicode="q" horiz-adv-x="1335" 
d="M903 -346h316v1413l-324 -139q-67 77 -147 120.5t-195 43.5q-99 0 -188 -39.5t-156 -110.5t-106.5 -177.5t-39.5 -232.5q0 -123 39.5 -228.5t106.5 -176.5t157 -111.5t189 -40.5q113 0 196 48.5t152 134.5v-504zM641 242q-117 0 -191.5 88.5t-74.5 206.5q0 127 77 208.5
t189 81.5t190 -83t78 -207q0 -126 -78 -210.5t-190 -84.5z" />
    <glyph glyph-name="r" unicode="r" horiz-adv-x="802" 
d="M795 1083q-12 2 -41 2q-214 0 -322 -202l-317 184v-1067h315v414q0 175 86 262.5t227 87.5q40 0 52 -6v325z" />
    <glyph glyph-name="s" unicode="s" horiz-adv-x="942" 
d="M590 297q0 -47 -45.5 -69.5t-98.5 -22.5q-86 0 -193.5 42.5t-195.5 106.5v-270q114 -53 206.5 -80t199.5 -27q189 0 302.5 92t113.5 246q0 73 -30 131t-78 93.5t-105.5 63t-115.5 47.5t-106 38.5t-78 43.5t-30 56q0 32 28 53t80 21q71 0 169.5 -35.5t179.5 -87.5v271
q-92 43 -171 61.5t-176 18.5q-180 0 -289.5 -87t-109.5 -237q0 -74 30 -131.5t78 -92.5t105.5 -61.5t115.5 -45.5t106 -37t78 -43t30 -58z" />
    <glyph glyph-name="t" unicode="t" horiz-adv-x="831" 
d="M233 311q0 -164 86 -249t240 -85q127 0 213 50v249q-72 -30 -125 -30q-100 0 -100 110v455h260v256h-260v342l-522 -598h208v-500z" />
    <glyph glyph-name="u" unicode="u" horiz-adv-x="1226" 
d="M106 379q0 -186 94.5 -294t276.5 -108q209 0 328 150l317 -143v1085h-315v-592q0 -109 -58 -165t-141 -56q-82 0 -134 55.5t-52 165.5v592h-316v-690z" />
    <glyph glyph-name="v" unicode="v" horiz-adv-x="1138" 
d="M713 -6l434 1073h-328l-248 -698l-247 698h-334l432 -1073h291z" />
    <glyph glyph-name="w" unicode="w" horiz-adv-x="1613" 
d="M297 1067h-311l338 -1073h276l205 653l205 -653h278l340 1073h-309l-180 -635l-195 639h-272l-193 -637z" />
    <glyph glyph-name="x" unicode="x" horiz-adv-x="1122" 
d="M387 543l-381 -543h336l215 322l215 -322h342l-379 545l365 522h-336l-201 -301l-201 301h-344z" />
    <glyph glyph-name="y" unicode="y" horiz-adv-x="1138" 
d="M-10 1067l459 -1075l-117 -338h272l543 1413h-324l-241 -733l-260 733h-332z" />
    <glyph glyph-name="z" unicode="z" horiz-adv-x="1075" 
d="M438 254l594 596v217h-977v-252h568l-594 -598v-217h999v254h-590z" />
    <glyph glyph-name="braceleft" unicode="{" horiz-adv-x="909" 
d="M76 477q143 0 202 -63.5t54 -206.5q-3 -100 5 -170.5t32.5 -124.5t59 -88.5t95 -59t130 -38.5t173.5 -25l9 201q-52 9 -89.5 24t-61 35.5t-37.5 47.5t-19.5 60t-7.5 72t0 84q3 142 -45.5 229.5t-172.5 135.5q48 17 84 38t59.5 42t39 52t22.5 55t9.5 64t2 67t-2 75
t-1.5 78q0 56 14.5 94.5t46 62t67 36.5t92.5 24l-9 199q-123 -11 -210 -38.5t-154 -79t-100 -135.5t-33 -202v-40v-58.5t-2 -52t-6.5 -45t-12.5 -38t-21 -31.5t-32 -25t-44.5 -18t-59.5 -10.5t-76 -3.5v-223z" />
    <glyph glyph-name="bar" unicode="|" horiz-adv-x="1325" 
d="M786 1614h-247v-1903h247v1903z" />
    <glyph glyph-name="braceright" unicode="}" horiz-adv-x="909" 
d="M836 700q-58 -1 -101 7t-70.5 20t-45.5 36t-26.5 45t-11.5 59t-2 65t3 75.5t2 79.5q0 64 -14.5 116t-38 90t-61.5 67t-78 48t-94 33t-102.5 22t-111.5 14l-8 -199q52 -9 90 -24.5t61.5 -36t37.5 -47.5t19.5 -60t7 -72t-0.5 -84q-3 -144 44.5 -230.5t172.5 -133.5
q-125 -47 -172.5 -135t-44.5 -230q2 -62 0 -101t-13.5 -80.5t-34.5 -66t-64.5 -45t-102.5 -30.5l8 -201q128 11 216 38t154 80.5t97 140t31 212.5q0 138 9 178q16 78 84 105q56 22 161 22v223z" />
    <glyph glyph-name="asciitilde" unicode="~" horiz-adv-x="1036" 
d="M788 799q-23 -53 -51 -78t-71 -25q-37 0 -90.5 22.5t-115.5 45t-120 22.5q-93 0 -151.5 -60.5t-96.5 -197.5l154 -71q27 56 52.5 80t68.5 24t154.5 -45t176.5 -45q178 0 244 254z" />
    <glyph glyph-name="uni00A0" unicode="&#xa0;" horiz-adv-x="573" 
 />
    <glyph glyph-name="exclamdown" unicode="&#xa1;" horiz-adv-x="663" 
d="M150 -367h362l-4 203l-90 785h-174l-90 -785zM332 752q81 0 134.5 45.5t53.5 124.5q0 82 -53 127t-135 45t-135.5 -45t-53.5 -127q0 -80 53.5 -125t135.5 -45z" />
    <glyph glyph-name="cent" unicode="&#xa2;" horiz-adv-x="1015" 
d="M500 463q-152 84 -152 278q0 129 64.5 210.5t175.5 95.5zM936 1210q-60 43 -123 58l27 178h-201l-23 -152q-160 -3 -285.5 -76.5t-194 -199.5t-68.5 -281q0 -182 104.5 -325.5t273.5 -196.5l-30 -199h200l27 170q175 6 297 93v284q-120 -131 -274 -131l92 604
q100 -15 178 -106v280z" />
    <glyph glyph-name="sterling" unicode="&#xa3;" horiz-adv-x="1187" 
d="M989 567v232h-465v139q0 106 52.5 171t150.5 65q66 0 118 -27.5t105 -85.5l215 196q-173 205 -454 205q-240 0 -374 -142t-134 -380v-141h-148v-232h148v-567h946v258h-625v309h465z" />
    <glyph glyph-name="currency" unicode="&#xa4;" horiz-adv-x="1454" 
d="M1360 1157l-143 141l-189 -184q-138 88 -299 88q-166 0 -299 -90l-194 186l-140 -141l189 -188q-88 -129 -88 -295q0 -168 92 -299l-193 -195l140 -141l200 194q137 -88 293 -88q157 0 295 86l195 -192l141 141l-189 189q93 142 93 305q0 157 -90 297zM422 674
q0 136 86.5 227.5t220.5 91.5q136 0 221.5 -92t85.5 -229q0 -135 -86 -227.5t-221 -92.5q-136 0 -221.5 93t-85.5 229z" />
    <glyph glyph-name="yen" unicode="&#xa5;" horiz-adv-x="1341" 
d="M512 436h-379v-209h379v-227h317v227h377v209h-377l19 129h358v211h-288l432 662h-361l-315 -543l-316 543h-366l430 -662h-289v-211h359z" />
    <glyph glyph-name="brokenbar" unicode="&#xa6;" horiz-adv-x="1355" 
d="M819 1376h-280v-714h280v714zM819 354l-280 2v-710h280v708z" />
    <glyph glyph-name="section" unicode="&#xa7;" horiz-adv-x="1189" 
d="M915 1386q-144 80 -329 80q-205 0 -323 -88t-118 -225q0 -67 31.5 -124t85.5 -97q-100 -30 -155.5 -89.5t-55.5 -144.5q0 -113 112.5 -189t323.5 -126q123 -31 181.5 -65t58.5 -78q0 -95 -143 -95q-181 0 -340 131v-268q146 -84 334 -84q207 0 323.5 91t116.5 231
q0 131 -113 217q207 65 207 233q0 114 -106 184t-332 132q-128 35 -181 69.5t-53 73.5q0 43 37.5 65.5t108.5 22.5q162 0 329 -125v268zM442 840q39 -4 102 -18t137 -37t126.5 -59.5t52.5 -76.5q0 -42 -36.5 -68t-98.5 -26q-89 7 -180.5 28t-166.5 63.5t-75 94.5q0 44 37 69
t102 30z" />
    <glyph glyph-name="dieresis" unicode="&#xa8;" horiz-adv-x="788" 
d="M176 1599q-72 0 -117 -42t-45 -113q0 -72 45.5 -115t116.5 -43q68 0 114 43t46 115q0 71 -46 113t-114 42zM614 1599q-71 0 -115 -42.5t-44 -112.5q0 -72 45 -115t114 -43q70 0 115 43t45 115t-44.5 113.5t-115.5 41.5z" />
    <glyph glyph-name="copyright" unicode="&#xa9;" horiz-adv-x="1632" 
d="M57 727q0 -211 101.5 -388t276 -279.5t382.5 -102.5q157 0 298.5 61.5t243 165.5t161 246t59.5 297q0 154 -60 295t-161.5 243.5t-242.5 163t-296 60.5q-156 0 -297.5 -61.5t-243 -164.5t-161.5 -243.5t-60 -292.5zM1477 727q0 -184 -88 -338t-239.5 -243t-332.5 -89
q-182 0 -334 90t-238.5 243.5t-86.5 334.5q0 179 86.5 330.5t239 241t335.5 89.5q182 0 333.5 -89t238 -240t86.5 -330zM1061 592q-95 -86 -207 -86q-92 0 -154.5 66t-62.5 163q0 95 62.5 159t156.5 64q111 0 201 -86v232q-88 57 -213 57q-188 0 -315.5 -124.5
t-127.5 -301.5q0 -179 127 -305.5t308 -126.5q120 0 225 66v223z" />
    <glyph glyph-name="ordfeminine" unicode="&#xaa;" horiz-adv-x="702" 
d="M51 1042q0 -89 60 -138.5t149 -49.5q113 0 184 84v-72h179v351q0 260 -285 260q-123 0 -236 -50l39 -131q79 39 170 39q135 0 135 -114v-11q-73 25 -151 25q-114 0 -179 -48.5t-65 -144.5zM45 735v-137h588v137h-588zM449 1087q0 -52 -38.5 -83t-93.5 -31q-41 0 -66.5 22
t-25.5 60q0 39 31 62.5t84 23.5q44 0 109 -21v-33z" />
    <glyph glyph-name="guillemotleft" unicode="&#xab;" horiz-adv-x="1261" 
d="M655 182l-264 357l266 358l-239 100l-342 -460l340 -457zM1174 182l-265 357l267 358l-240 100l-342 -460l340 -457z" />
    <glyph glyph-name="logicalnot" unicode="&#xac;" horiz-adv-x="1339" 
d="M1206 258v590h-1071v-238h823v-352h248z" />
    <glyph glyph-name="uni00AD" unicode="&#xad;" horiz-adv-x="733" 
d="M684 418v280h-633v-280h633z" />
    <glyph glyph-name="registered" unicode="&#xae;" horiz-adv-x="1560" 
d="M784 1468q-152 0 -289.5 -59t-237 -158t-158 -235.5t-58.5 -286.5t58 -286.5t156 -236.5t235.5 -159t289.5 -59q151 0 288.5 59.5t236.5 159.5t158 236.5t59 285.5q0 150 -58 286.5t-156.5 235.5t-235.5 158t-288 59zM780 84q-177 0 -324 86.5t-231 233.5t-84 321
q0 176 84 324.5t232 235.5t327 87q176 0 322 -86.5t229.5 -233.5t83.5 -321q0 -175 -83.5 -323.5t-231 -236t-324.5 -87.5zM475 1151v-817h195v282h73l203 -282h225l-227 311q81 29 130.5 93t49.5 153q0 118 -81.5 189t-225.5 71h-342zM670 774v209h133q61 0 96 -29t35 -75
t-36.5 -75.5t-94.5 -29.5h-133z" />
    <glyph glyph-name="macron" unicode="&#xaf;" horiz-adv-x="860" 
d="M786 1208v199h-710v-199h710z" />
    <glyph glyph-name="degree" unicode="&#xb0;" horiz-adv-x="833" 
d="M418 831q143 0 245.5 101t102.5 242q0 140 -104 241t-244 101t-245 -101.5t-105 -240.5q0 -141 103.5 -242t246.5 -101zM418 1352q75 0 125.5 -51.5t50.5 -126.5q0 -77 -50.5 -129t-125.5 -52q-76 0 -127 52.5t-51 128.5q0 74 51.5 126t126.5 52z" />
    <glyph glyph-name="plusminus" unicode="&#xb1;" horiz-adv-x="1271" 
d="M143 897v-225h381v-312h228v312h376v225h-376v307h-228v-307h-381zM143 248v-225h985v225h-985z" />
    <glyph glyph-name="uni00B2" unicode="&#xb2;" horiz-adv-x="815" 
d="M33 584h698l21 176l-328 -10l92 81q119 104 174 184t55 177q0 123 -94 200.5t-231 77.5q-138 0 -214.5 -62.5t-109.5 -193.5l203 -32q16 54 42 85t73 31q49 0 79.5 -32t30.5 -80q0 -16 -3.5 -32t-12 -34t-16 -32.5t-23 -35.5t-25 -33.5t-30.5 -36t-30.5 -34t-34 -36.5
t-32.5 -35z" />
    <glyph glyph-name="uni00B3" unicode="&#xb3;" horiz-adv-x="757" 
d="M20 842q10 -133 101 -202t235 -69q96 0 175.5 31t129.5 95.5t50 152.5q0 150 -158 209q117 60 117 184q0 111 -88.5 173.5t-214.5 62.5q-128 0 -214.5 -64.5t-99.5 -191.5h213q17 96 99 96q42 0 67 -25.5t25 -64.5q0 -51 -34.5 -80t-88.5 -29h-29v-139q7 0 24 1t23 1
q70 0 106 -33t36 -84q0 -58 -37.5 -96.5t-94.5 -38.5q-53 0 -84.5 29t-37.5 82h-220z" />
    <glyph glyph-name="acute" unicode="&#xb4;" horiz-adv-x="526" 
d="M227 1595l-204 -354h223l289 262z" />
    <glyph glyph-name="uni00B5" unicode="&#xb5;" horiz-adv-x="1251" 
d="M430 -346h-315v1415h315v-592q0 -107 52 -164t132 -57q87 0 143 58t56 163v592h315v-1069l-315 143q-75 -166 -209 -166q-58 0 -103.5 31t-70.5 84v-438z" />
    <glyph glyph-name="paragraph" unicode="&#xb6;" horiz-adv-x="1306" 
d="M455 -225h207v1476h149v-1476h207v1476h98v195h-586q-214 0 -331 -105t-117 -292q0 -86 29 -154.5t80.5 -114t117.5 -73.5t146 -39v-893z" />
    <glyph glyph-name="periodcentered" unicode="&#xb7;" horiz-adv-x="673" 
d="M336 946q-87 0 -140 -50.5t-53 -137.5q0 -89 54 -141t139 -52t139.5 52t54.5 141q0 88 -54 138t-140 50z" />
    <glyph glyph-name="cedilla" unicode="&#xb8;" horiz-adv-x="694" 
d="M383 -141l86 141h-139l-137 -211l53 -43q47 18 84 18t58.5 -14.5t21.5 -40.5q0 -36 -38 -53.5t-79 -17.5q-62 0 -131 28l-43 -104q104 -49 205 -49q44 0 86 10t81 31t63 59.5t24 89.5q0 77 -55 116.5t-126 39.5h-14z" />
    <glyph glyph-name="uni00B9" unicode="&#xb9;" horiz-adv-x="622" 
d="M207 584h221v870l-160 -2q-173 -52 -188 -59v-187q21 5 40 10.5t46.5 16t40.5 14.5v-663z" />
    <glyph glyph-name="ordmasculine" unicode="&#xba;" horiz-adv-x="735" 
d="M45 1167q0 -132 94.5 -222.5t225.5 -90.5q138 0 231.5 92.5t93.5 224.5q0 128 -92 220t-229 92t-230.5 -93t-93.5 -223zM72 739v-137h590v137h-590zM514 1167q0 -66 -39 -111.5t-106 -45.5q-64 0 -106 46.5t-42 114.5q0 65 40 110.5t104 45.5q65 0 107 -46t42 -114z" />
    <glyph glyph-name="guillemotright" unicode="&#xbb;" horiz-adv-x="1263" 
d="M350 539l-264 -357l240 -102l340 457l-342 460l-240 -100zM868 539l-264 -357l240 -102l340 457l-342 460l-240 -100z" />
    <glyph glyph-name="onequarter" unicode="&#xbc;" horiz-adv-x="1591" 
d="M1042 315q26 41 98.5 148t96.5 149h4v-12q-4 -37 -4 -283q-65 0 -98 -2q-74 0 -97 -2v2zM811 156q148 0 426 4l-4 -158h211l-2 158q66 -4 90 -4l12 163l-100 -2v560h-221l-412 -596v-125zM401 -170l918 1815h-264l-916 -1815h262zM162 584h221v870l-160 -2
q-173 -52 -188 -59v-187q21 5 40 10.5t46.5 16t40.5 14.5v-663z" />
    <glyph glyph-name="onehalf" unicode="&#xbd;" horiz-adv-x="1697" 
d="M393 -170l918 1815h-264l-916 -1815h262zM164 584h221v870l-160 -2q-173 -52 -188 -59v-187q21 5 40 10.5t46.5 16t40.5 14.5v-663zM903 -2h699l20 176l-328 -10l92 82q120 105 175 184t55 176q0 123 -94.5 201t-231.5 78q-138 0 -214 -62.5t-109 -193.5l202 -33
q16 54 42 85.5t73 31.5q49 0 80 -32.5t31 -80.5q0 -16 -3.5 -32t-12 -34t-16 -32.5t-23 -35.5t-25 -33.5t-30.5 -36t-30.5 -34t-34 -36.5t-32.5 -35z" />
    <glyph glyph-name="threequarters" unicode="&#xbe;" horiz-adv-x="1878" 
d="M53 842q10 -133 101 -202t235 -69q96 0 175 31t129 95.5t50 152.5q0 150 -157 209q116 59 116 184q0 111 -88.5 173.5t-214.5 62.5q-128 0 -214 -64.5t-99 -191.5h213q17 96 98 96q42 0 67 -25.5t25 -64.5q0 -51 -34 -80t-88 -29h-29v-139q7 0 24 1t23 1q70 0 105.5 -33
t35.5 -84q0 -59 -37 -97t-94 -38q-54 0 -85.5 29t-37.5 82h-219zM686 -170l918 1815h-265l-915 -1815h262zM1329 315q26 41 98.5 148t96.5 149h4v-12q-4 -37 -4 -283q-66 0 -99 -2q-73 0 -96 -2v2zM1098 156q148 0 426 4l-4 -158h211l-2 158q66 -4 90 -4l12 163l-100 -2v560
h-222l-411 -596v-125z" />
    <glyph glyph-name="questiondown" unicode="&#xbf;" horiz-adv-x="1013" 
d="M928 68q-175 -187 -344 -187q-76 0 -128.5 39t-52.5 100q0 86 119 185q41 33 69 61.5t57 69t44 92t15 111.5v100h-295v-64q0 -74 -22.5 -114.5t-88.5 -93.5q-53 -42 -87 -75t-66 -78t-47 -97.5t-15 -116.5q0 -179 127 -285t315 -106q125 0 229 44.5t171 133.5v281z
M547 745q80 0 133 46.5t53 126.5q0 82 -53 127t-133 45q-83 0 -137 -45t-54 -127q0 -80 54.5 -126.5t136.5 -46.5z" />
    <glyph glyph-name="Agrave" unicode="&#xc0;" horiz-adv-x="1509" 
d="M453 305h596l127 -305h348l-619 1444h-303l-616 -1444h340zM553 563l199 500l198 -500h-397zM360 1841l287 -262h227l-206 354z" />
    <glyph glyph-name="Aacute" unicode="&#xc1;" horiz-adv-x="1509" 
d="M453 305h596l127 -305h348l-619 1444h-303l-616 -1444h340zM553 563l199 500l198 -500h-397zM870 1933l-204 -354h223l289 262z" />
    <glyph glyph-name="Acircumflex" unicode="&#xc2;" horiz-adv-x="1509" 
d="M453 305h596l127 -305h348l-619 1444h-303l-616 -1444h340zM553 563l199 500l198 -500h-397zM1108 1602l-264 350h-185l-264 -350h223l134 139l133 -139h223z" />
    <glyph glyph-name="Atilde" unicode="&#xc3;" horiz-adv-x="1509" 
d="M453 305h596l127 -305h348l-619 1444h-303l-616 -1444h340zM553 563l199 500l198 -500h-397zM561 1556q17 53 37 75t49 22t110 -37t132 -37q160 0 235 268l-174 33q-13 -49 -31 -70.5t-45 -21.5q-25 0 -108 37t-137 37q-171 0 -246 -273z" />
    <glyph glyph-name="Adieresis" unicode="&#xc4;" horiz-adv-x="1509" 
d="M453 305h596l127 -305h348l-619 1444h-303l-616 -1444h340zM553 563l199 500l198 -500h-397zM539 1937q-72 0 -117 -42t-45 -113q0 -72 45.5 -115t116.5 -43q68 0 113.5 43t45.5 115q0 71 -45.5 113t-113.5 42zM977 1937q-71 0 -115.5 -42.5t-44.5 -112.5
q0 -72 45.5 -115t114.5 -43q70 0 115 43t45 115t-44.5 113.5t-115.5 41.5z" />
    <glyph glyph-name="Aring" unicode="&#xc5;" horiz-adv-x="1509" 
d="M453 305h596l127 -305h348l-619 1444h-303l-616 -1444h340zM553 563l199 500l198 -500h-397zM752 1372q100 0 169.5 67t69.5 165q0 97 -70.5 165t-168.5 68q-95 0 -165.5 -68t-70.5 -165t70.5 -164.5t165.5 -67.5zM754 1675q31 0 51 -20t20 -51t-19.5 -50.5t-51.5 -19.5
q-31 0 -51.5 19.5t-20.5 52.5q0 28 21 48.5t51 20.5z" />
    <glyph glyph-name="AE" unicode="&#xc6;" horiz-adv-x="2007" 
d="M690 1438l-704 -1438h340l163 305h429v-305h1099v276h-778v320h696v260h-696v303h764v279h-1313zM918 563h-320l320 643v-643z" />
    <glyph glyph-name="Ccedilla" unicode="&#xc7;" horiz-adv-x="1390" 
d="M1290 459q-103 -95 -206 -144t-226 -49q-199 0 -319.5 129.5t-120.5 325.5q0 124 53 226t154.5 163t232.5 61q254 0 416 -176v334q-188 137 -436 137q-159 0 -299 -58.5t-239.5 -158.5t-156.5 -238.5t-57 -293.5q0 -209 98 -380.5t267 -268.5t374 -97q256 0 465 156v332z
M778 -141l86 141h-139l-137 -211l53 -43q47 18 84 18t58.5 -14.5t21.5 -40.5q0 -36 -38 -53.5t-79 -17.5q-62 0 -131 28l-43 -104q104 -49 205 -49q44 0 86 10t81 31t63 59.5t24 89.5q0 77 -55 116.5t-125 39.5h-15z" />
    <glyph glyph-name="Egrave" unicode="&#xc8;" horiz-adv-x="1343" 
d="M455 276v320h694v260h-694v303h762v279h-1084v-1438h1098v276h-776zM328 1841l286 -262h228l-207 354z" />
    <glyph glyph-name="Eacute" unicode="&#xc9;" horiz-adv-x="1343" 
d="M455 276v320h694v260h-694v303h762v279h-1084v-1438h1098v276h-776zM725 1933l-205 -354h223l289 262z" />
    <glyph glyph-name="Ecircumflex" unicode="&#xca;" horiz-adv-x="1343" 
d="M455 276v320h694v260h-694v303h762v279h-1084v-1438h1098v276h-776zM1042 1602l-264 350h-184l-264 -350h223l133 139l133 -139h223z" />
    <glyph glyph-name="Edieresis" unicode="&#xcb;" horiz-adv-x="1343" 
d="M455 276v320h694v260h-694v303h762v279h-1084v-1438h1098v276h-776zM455 1937q-72 0 -117 -42t-45 -113q0 -72 45.5 -115t116.5 -43q68 0 113.5 43t45.5 115q0 71 -45.5 113t-113.5 42zM893 1937q-71 0 -115.5 -42.5t-44.5 -112.5q0 -72 45.5 -115t114.5 -43q70 0 115 43
t45 115t-44.5 113.5t-115.5 41.5z" />
    <glyph glyph-name="Igrave" unicode="&#xcc;" horiz-adv-x="589" 
d="M457 0v1438h-324v-1438h324zM-92 1882l287 -262h227l-207 354z" />
    <glyph glyph-name="Iacute" unicode="&#xcd;" horiz-adv-x="589" 
d="M457 0v1438h-324v-1438h324zM367 1933l-205 -354h223l289 262z" />
    <glyph glyph-name="Icircumflex" unicode="&#xce;" horiz-adv-x="589" 
d="M457 0v1438h-324v-1438h324zM659 1602l-264 350h-184l-264 -350h223l133 139l133 -139h223z" />
    <glyph glyph-name="Idieresis" unicode="&#xcf;" horiz-adv-x="589" 
d="M457 0v1438h-324v-1438h324zM82 1937q-72 0 -117 -42t-45 -113q0 -72 45.5 -115t116.5 -43q68 0 114 43t46 115q0 71 -46 113t-114 42zM520 1937q-71 0 -115.5 -42.5t-44.5 -112.5q0 -72 45.5 -115t114.5 -43q70 0 115 43t45 115t-44.5 113.5t-115.5 41.5z" />
    <glyph glyph-name="Eth" unicode="&#xd0;" horiz-adv-x="1589" 
d="M186 1438v-1438h514q184 0 336 54.5t254 151t157.5 230t55.5 289.5q0 157 -56 289t-158 226t-251.5 146t-330.5 52h-521zM510 287v862h229q195 0 312.5 -122t117.5 -308q0 -199 -124 -315.5t-338 -116.5h-197zM653 557v281h-633v-281h633z" />
    <glyph glyph-name="Ntilde" unicode="&#xd1;" horiz-adv-x="1570" 
d="M1118 537l-680 897h-305v-1434h320v918l694 -918h289v1438h-318v-901zM608 1556q17 53 37 75t49 22q30 0 111 -37t131 -37q160 0 235 268l-174 33q-13 -49 -31 -70.5t-44 -21.5q-25 0 -108.5 37t-137.5 37q-171 0 -246 -273z" />
    <glyph glyph-name="Ograve" unicode="&#xd2;" horiz-adv-x="1699" 
d="M848 -29q158 0 300 58.5t244 158.5t162 239.5t60 295.5q0 151 -58 288t-158 237t-242.5 159t-303.5 59q-162 0 -305 -59t-243.5 -160t-159 -239t-58.5 -291t57.5 -290t157.5 -237.5t242.5 -159.5t304.5 -59zM850 1174q125 0 225 -63.5t153.5 -167.5t53.5 -226
q0 -123 -54 -226.5t-153.5 -166t-224.5 -62.5q-188 0 -311 135t-123 326q0 188 122 319.5t312 131.5zM442 1841l287 -262h227l-206 354z" />
    <glyph glyph-name="Oacute" unicode="&#xd3;" horiz-adv-x="1699" 
d="M848 -29q158 0 300 58.5t244 158.5t162 239.5t60 295.5q0 151 -58 288t-158 237t-242.5 159t-303.5 59q-162 0 -305 -59t-243.5 -160t-159 -239t-58.5 -291t57.5 -290t157.5 -237.5t242.5 -159.5t304.5 -59zM850 1174q125 0 225 -63.5t153.5 -167.5t53.5 -226
q0 -123 -54 -226.5t-153.5 -166t-224.5 -62.5q-188 0 -311 135t-123 326q0 188 122 319.5t312 131.5zM1008 1933l-205 -354h223l289 262z" />
    <glyph glyph-name="Ocircumflex" unicode="&#xd4;" horiz-adv-x="1699" 
d="M848 -29q158 0 300 58.5t244 158.5t162 239.5t60 295.5q0 151 -58 288t-158 237t-242.5 159t-303.5 59q-162 0 -305 -59t-243.5 -160t-159 -239t-58.5 -291t57.5 -290t157.5 -237.5t242.5 -159.5t304.5 -59zM850 1174q125 0 225 -63.5t153.5 -167.5t53.5 -226
q0 -123 -54 -226.5t-153.5 -166t-224.5 -62.5q-188 0 -311 135t-123 326q0 188 122 319.5t312 131.5zM1204 1602l-264 350h-184l-264 -350h223l133 139l133 -139h223z" />
    <glyph glyph-name="Otilde" unicode="&#xd5;" horiz-adv-x="1699" 
d="M848 -29q158 0 300 58.5t244 158.5t162 239.5t60 295.5q0 151 -58 288t-158 237t-242.5 159t-303.5 59q-162 0 -305 -59t-243.5 -160t-159 -239t-58.5 -291t57.5 -290t157.5 -237.5t242.5 -159.5t304.5 -59zM850 1174q125 0 225 -63.5t153.5 -167.5t53.5 -226
q0 -123 -54 -226.5t-153.5 -166t-224.5 -62.5q-188 0 -311 135t-123 326q0 188 122 319.5t312 131.5zM655 1556q17 53 37 75t49 22t110 -37t132 -37q161 0 236 268l-175 33q-13 -49 -31 -70.5t-44 -21.5q-25 0 -108.5 37t-137.5 37q-171 0 -246 -273z" />
    <glyph glyph-name="Odieresis" unicode="&#xd6;" horiz-adv-x="1699" 
d="M848 -29q158 0 300 58.5t244 158.5t162 239.5t60 295.5q0 151 -58 288t-158 237t-242.5 159t-303.5 59q-162 0 -305 -59t-243.5 -160t-159 -239t-58.5 -291t57.5 -290t157.5 -237.5t242.5 -159.5t304.5 -59zM850 1174q125 0 225 -63.5t153.5 -167.5t53.5 -226
q0 -123 -54 -226.5t-153.5 -166t-224.5 -62.5q-188 0 -311 135t-123 326q0 188 122 319.5t312 131.5zM635 1937q-72 0 -117 -42t-45 -113q0 -72 45.5 -115t116.5 -43q68 0 114 43t46 115q0 71 -46 113t-114 42zM1073 1937q-71 0 -115.5 -42.5t-44.5 -112.5q0 -72 45.5 -115
t114.5 -43q70 0 115 43t45 115t-44.5 113.5t-115.5 41.5z" />
    <glyph glyph-name="multiply" unicode="&#xd7;" horiz-adv-x="1390" 
d="M520 717l-338 -336l178 -178l336 338l336 -338l176 178l-334 336l334 336l-176 178l-336 -338l-336 338l-178 -178z" />
    <glyph glyph-name="Oslash" unicode="&#xd8;" horiz-adv-x="1685" 
d="M231 -68l201 -110l131 219q130 -70 279 -70q161 0 304 59.5t244 161t159.5 240t58.5 291.5q0 169 -70 314t-199 249l117 182l-199 111l-118 -186q-140 73 -295 73q-162 0 -305 -59t-243.5 -160t-159 -239t-58.5 -291q0 -176 73.5 -324.5t206.5 -251.5zM512 420
q-102 125 -102 303q0 123 53.5 226t152 164t220.5 61q85 0 155 -46zM1184 1001q92 -125 92 -284q0 -124 -52.5 -227t-150.5 -164.5t-221 -61.5q-79 0 -141 43z" />
    <glyph glyph-name="Ugrave" unicode="&#xd9;" horiz-adv-x="1513" 
d="M119 612q0 -313 166 -477t469 -164t470 165t167 487v815h-326v-826q0 -175 -80 -261.5t-229 -86.5q-151 0 -230.5 92t-79.5 265v817h-327v-826zM377 1841l287 -262h227l-207 354z" />
    <glyph glyph-name="Uacute" unicode="&#xda;" horiz-adv-x="1513" 
d="M119 612q0 -313 166 -477t469 -164t470 165t167 487v815h-326v-826q0 -175 -80 -261.5t-229 -86.5q-151 0 -230.5 92t-79.5 265v817h-327v-826zM840 1933l-205 -354h223l289 262z" />
    <glyph glyph-name="Ucircumflex" unicode="&#xdb;" horiz-adv-x="1513" 
d="M119 612q0 -313 166 -477t469 -164t470 165t167 487v815h-326v-826q0 -175 -80 -261.5t-229 -86.5q-151 0 -230.5 92t-79.5 265v817h-327v-826zM1114 1602l-264 350h-184l-265 -350h224l133 139l133 -139h223z" />
    <glyph glyph-name="Udieresis" unicode="&#xdc;" horiz-adv-x="1513" 
d="M119 612q0 -313 166 -477t469 -164t470 165t167 487v815h-326v-826q0 -175 -80 -261.5t-229 -86.5q-151 0 -230.5 92t-79.5 265v817h-327v-826zM535 1937q-72 0 -117 -42t-45 -113q0 -72 45.5 -115t116.5 -43q68 0 113.5 43t45.5 115q0 71 -45.5 113t-113.5 42zM973 1937
q-71 0 -115.5 -42.5t-44.5 -112.5q0 -72 45.5 -115t114.5 -43q70 0 115 43t45 115t-44.5 113.5t-115.5 41.5z" />
    <glyph glyph-name="Yacute" unicode="&#xdd;" horiz-adv-x="1396" 
d="M860 0v553l549 885h-362l-345 -586l-344 586h-368l547 -889v-549h323zM776 1933l-205 -354h224l288 262z" />
    <glyph glyph-name="Thorn" unicode="&#xde;" horiz-adv-x="1150" 
d="M133 1446v-1446h318v305h174q219 0 347 114.5t128 332.5q0 123 -40.5 214.5t-115 145.5t-169.5 79.5t-212 25.5h-112v229h-318zM451 555v401h53q50 0 84.5 -3t74 -14.5t63.5 -31.5t40 -57.5t16 -89.5q0 -62 -19.5 -103.5t-57 -63t-81 -30t-102.5 -8.5h-71z" />
    <glyph glyph-name="germandbls" unicode="&#xdf;" horiz-adv-x="1163" 
d="M330 1014q0 108 55 174.5t150 66.5q81 0 129.5 -48t48.5 -132q0 -87 -56 -144.5t-153 -99.5v-180q282 -30 282 -217q0 -99 -78.5 -153.5t-211.5 -57.5v-229q111 -7 216 14.5t193 70t141.5 134t53.5 195.5q0 141 -89 235.5t-218 126.5q104 47 165.5 134t61.5 210
q0 177 -131.5 293.5t-347.5 116.5q-253 0 -388 -141.5t-135 -372.5v-1010h312v1014z" />
    <glyph glyph-name="agrave" unicode="&#xe0;" horiz-adv-x="1208" 
d="M780 272q-91 -88 -217 -88q-80 0 -135 43t-55 115q0 73 61 116.5t154 43.5q111 0 192 -45v-185zM1090 635q0 221 -133 335.5t-386 114.5q-203 0 -421 -86v-235q170 76 352 76q278 0 278 -193v-24q-118 51 -282 51q-92 0 -169.5 -20t-137.5 -60.5t-94 -107.5t-34 -154
q0 -110 55 -192.5t142.5 -123.5t192.5 -41q192 0 325 136l312 -127v651zM227 1524l287 -262h227l-206 354z" />
    <glyph glyph-name="aacute" unicode="&#xe1;" horiz-adv-x="1208" 
d="M780 272q-91 -88 -217 -88q-80 0 -135 43t-55 115q0 73 61 116.5t154 43.5q111 0 192 -45v-185zM1090 635q0 221 -133 335.5t-386 114.5q-203 0 -421 -86v-235q170 76 352 76q278 0 278 -193v-24q-118 51 -282 51q-92 0 -169.5 -20t-137.5 -60.5t-94 -107.5t-34 -154
q0 -110 55 -192.5t142.5 -123.5t192.5 -41q192 0 325 136l312 -127v651zM684 1616l-205 -354h223l289 262z" />
    <glyph glyph-name="acircumflex" unicode="&#xe2;" horiz-adv-x="1208" 
d="M780 272q-91 -88 -217 -88q-80 0 -135 43t-55 115q0 73 61 116.5t154 43.5q111 0 192 -45v-185zM1090 635q0 221 -133 335.5t-386 114.5q-203 0 -421 -86v-235q170 76 352 76q278 0 278 -193v-24q-118 51 -282 51q-92 0 -169.5 -20t-137.5 -60.5t-94 -107.5t-34 -154
q0 -110 55 -192.5t142.5 -123.5t192.5 -41q192 0 325 136l312 -127v651zM967 1264l-265 350h-184l-264 -350h223l133 139l133 -139h224z" />
    <glyph glyph-name="atilde" unicode="&#xe3;" horiz-adv-x="1208" 
d="M780 272q-91 -88 -217 -88q-80 0 -135 43t-55 115q0 73 61 116.5t154 43.5q111 0 192 -45v-185zM1090 635q0 221 -133 335.5t-386 114.5q-203 0 -421 -86v-235q170 76 352 76q278 0 278 -193v-24q-118 51 -282 51q-92 0 -169.5 -20t-137.5 -60.5t-94 -107.5t-34 -154
q0 -110 55 -192.5t142.5 -123.5t192.5 -41q192 0 325 136l312 -127v651zM426 1219q17 53 37 74.5t49 21.5q30 0 111 -37t131 -37q160 0 235 268l-174 33q-13 -49 -31 -70.5t-45 -21.5q-25 0 -108 37t-137 37q-171 0 -246 -273z" />
    <glyph glyph-name="adieresis" unicode="&#xe4;" horiz-adv-x="1208" 
d="M780 272q-91 -88 -217 -88q-80 0 -135 43t-55 115q0 73 61 116.5t154 43.5q111 0 192 -45v-185zM1090 635q0 221 -133 335.5t-386 114.5q-203 0 -421 -86v-235q170 76 352 76q278 0 278 -193v-24q-118 51 -282 51q-92 0 -169.5 -20t-137.5 -60.5t-94 -107.5t-34 -154
q0 -110 55 -192.5t142.5 -123.5t192.5 -41q192 0 325 136l312 -127v651zM397 1593q-68 0 -111.5 -42.5t-43.5 -110.5q0 -71 43.5 -112.5t111.5 -41.5q67 0 112.5 42t45.5 112q0 69 -46 111t-112 42zM831 1593q-68 0 -111.5 -42.5t-43.5 -110.5q0 -71 43.5 -112.5
t111.5 -41.5t112 42t44 112q0 69 -44.5 111t-111.5 42z" />
    <glyph glyph-name="aring" unicode="&#xe5;" horiz-adv-x="1208" 
d="M780 272q-91 -88 -217 -88q-80 0 -135 43t-55 115q0 73 61 116.5t154 43.5q111 0 192 -45v-185zM1090 635q0 221 -133 335.5t-386 114.5q-203 0 -421 -86v-235q170 76 352 76q278 0 278 -193v-24q-118 51 -282 51q-92 0 -169.5 -20t-137.5 -60.5t-94 -107.5t-34 -154
q0 -110 55 -192.5t142.5 -123.5t192.5 -41q192 0 325 136l312 -127v651zM592 1190q100 0 169.5 66.5t69.5 164.5q0 97 -70.5 165.5t-168.5 68.5q-95 0 -165.5 -68.5t-70.5 -165.5t70.5 -164t165.5 -67zM594 1493q31 0 51.5 -20.5t20.5 -51.5t-20 -50t-52 -19t-52 19t-20 52
q0 28 21 49t51 21z" />
    <glyph glyph-name="ae" unicode="&#xe6;" horiz-adv-x="1925" 
d="M1759 350q-71 -67 -184.5 -106t-218.5 -39q-159 0 -236 117l742 188q-4 116 -40.5 219t-101 183t-164.5 126.5t-221 46.5q-218 0 -362 -141q-63 70 -171.5 105.5t-242.5 35.5q-213 0 -416 -86v-235q168 76 351 76q139 0 209.5 -46.5t70.5 -146.5v-24q-118 51 -285 51
q-86 0 -161 -19.5t-137 -59t-98 -108.5t-36 -159q0 -109 61 -190.5t158 -122t213 -40.5q270 0 472 146q149 -152 395 -152q226 0 403 119v262zM774 272q-91 -88 -217 -88q-80 0 -136 43t-56 115q0 73 62 116.5t155 43.5q107 0 192 -45v-185zM1094 541q-3 76 20 143.5
t77.5 114.5t131.5 47q86 0 145.5 -52t81.5 -143z" />
    <glyph glyph-name="ccedilla" unicode="&#xe7;" horiz-adv-x="966" 
d="M877 1042q-99 48 -246 48q-164 0 -294.5 -77t-200.5 -204t-70 -277q0 -153 73 -280.5t201 -202t283 -74.5q145 0 264 58v303q-104 -94 -230 -94q-119 0 -200.5 86.5t-81.5 208.5q0 124 77.5 205t198.5 81q124 0 226 -94v313zM586 -141l86 141h-140l-137 -211l54 -43
q47 18 83 18q37 0 58.5 -14.5t21.5 -40.5q0 -36 -37.5 -53.5t-78.5 -17.5q-62 0 -131 28l-43 -104q104 -49 204 -49q44 0 86 10t81 31t63 59.5t24 89.5q0 77 -55 116.5t-125 39.5h-14z" />
    <glyph glyph-name="egrave" unicode="&#xe8;" horiz-adv-x="1196" 
d="M1030 350q-71 -67 -183.5 -106t-217.5 -39q-161 0 -238 117l742 188q-4 116 -40 219t-100.5 183t-164 126.5t-220.5 46.5q-157 0 -281 -72.5t-192.5 -199t-68.5 -283.5q0 -245 155.5 -403t399.5 -158q104 0 213.5 29.5t195.5 89.5v262zM365 545q0 75 22.5 141t76 113
t130.5 47q87 0 147 -52.5t80 -142.5l-452 -116zM182 1524l287 -262h227l-207 354z" />
    <glyph glyph-name="eacute" unicode="&#xe9;" horiz-adv-x="1196" 
d="M1030 350q-71 -67 -183.5 -106t-217.5 -39q-161 0 -238 117l742 188q-4 116 -40 219t-100.5 183t-164 126.5t-220.5 46.5q-157 0 -281 -72.5t-192.5 -199t-68.5 -283.5q0 -245 155.5 -403t399.5 -158q104 0 213.5 29.5t195.5 89.5v262zM365 545q0 75 22.5 141t76 113
t130.5 47q87 0 147 -52.5t80 -142.5l-452 -116zM733 1616l-205 -354h224l288 262z" />
    <glyph glyph-name="ecircumflex" unicode="&#xea;" horiz-adv-x="1196" 
d="M1030 350q-71 -67 -183.5 -106t-217.5 -39q-161 0 -238 117l742 188q-4 116 -40 219t-100.5 183t-164 126.5t-220.5 46.5q-157 0 -281 -72.5t-192.5 -199t-68.5 -283.5q0 -245 155.5 -403t399.5 -158q104 0 213.5 29.5t195.5 89.5v262zM365 545q0 75 22.5 141t76 113
t130.5 47q87 0 147 -52.5t80 -142.5l-452 -116zM971 1264l-264 350h-185l-264 -350h223l133 139l134 -139h223z" />
    <glyph glyph-name="edieresis" unicode="&#xeb;" horiz-adv-x="1196" 
d="M1030 350q-71 -67 -183.5 -106t-217.5 -39q-161 0 -238 117l742 188q-4 116 -40 219t-100.5 183t-164 126.5t-220.5 46.5q-157 0 -281 -72.5t-192.5 -199t-68.5 -283.5q0 -245 155.5 -403t399.5 -158q104 0 213.5 29.5t195.5 89.5v262zM365 545q0 75 22.5 141t76 113
t130.5 47q87 0 147 -52.5t80 -142.5l-452 -116zM387 1593q-68 0 -112 -42.5t-44 -110.5q0 -70 44 -112t112 -42q67 0 112.5 42t45.5 112q0 69 -46 111t-112 42zM821 1593q-68 0 -111.5 -42.5t-43.5 -110.5q0 -71 43.5 -112.5t111.5 -41.5t112 42t44 112q0 69 -44.5 111
t-111.5 42z" />
    <glyph glyph-name="igrave" unicode="&#xec;" horiz-adv-x="561" 
d="M438 0v1067h-315v-1067h315zM-86 1524l287 -262h227l-207 354z" />
    <glyph glyph-name="iacute" unicode="&#xed;" horiz-adv-x="585" 
d="M422 0v1067h-316v-1067h316zM340 1616l-205 -354h223l289 262z" />
    <glyph glyph-name="icircumflex" unicode="&#xee;" horiz-adv-x="548" 
d="M430 0v1067h-315v-1067h315zM627 1264l-265 350h-184l-264 -350h223l133 139l133 -139h224z" />
    <glyph glyph-name="idieresis" unicode="&#xef;" horiz-adv-x="569" 
d="M440 0v1067h-315v-1067h315zM68 1593q-68 0 -112 -42.5t-44 -110.5q0 -70 44 -112t112 -42q67 0 112 42t45 112q0 69 -45.5 111t-111.5 42zM502 1593q-68 0 -112 -42.5t-44 -110.5q0 -70 44 -112t112 -42t111.5 41.5t43.5 112.5q0 69 -44 111t-111 42z" />
    <glyph glyph-name="eth" unicode="&#xf0;" horiz-adv-x="1185" 
d="M203 1468q137 -95 198 -149l-233 -141l102 -107l244 148q164 -154 240 -312q-31 18 -47.5 26.5t-63 21t-94.5 12.5q-131 0 -241 -61t-176 -174t-66 -255q0 -116 44.5 -212.5t119 -159t168 -96.5t194.5 -34q74 0 146.5 18.5t142 61.5t122 105t85 158t32.5 212
q0 126 -31.5 247t-88 222.5t-123 185.5t-146.5 158l234 144l-103 104l-244 -147q-113 99 -223 162zM487 365q-48 46 -48.5 117.5t48.5 119.5q51 45 109.5 39.5t105.5 -53.5q48 -47 47.5 -117t-49.5 -115q-48 -47 -107.5 -44t-105.5 53z" />
    <glyph glyph-name="ntilde" unicode="&#xf1;" horiz-adv-x="1236" 
d="M1130 690q0 178 -99.5 290t-270.5 112q-195 0 -328 -170l-317 145v-1067h315v592q0 107 60 163t141 56q78 0 131 -55t53 -164v-592h315v690zM469 1219q17 53 37 74.5t49 21.5t110 -37t132 -37q160 0 235 268l-174 33q-13 -49 -31 -70.5t-45 -21.5q-25 0 -108 37t-137 37
q-171 0 -246 -273z" />
    <glyph glyph-name="ograve" unicode="&#xf2;" horiz-adv-x="1296" 
d="M647 -25q159 0 293.5 72.5t213.5 202t79 287.5q0 114 -44 216t-120.5 176.5t-186 118.5t-233.5 44q-165 0 -299.5 -75.5t-209 -203.5t-74.5 -281q0 -152 74 -279.5t208 -202.5t299 -75zM647 825q119 0 198 -86.5t79 -206.5q0 -119 -77.5 -204.5t-197.5 -85.5
q-117 0 -195.5 86t-78.5 209q0 122 75 205t197 83zM240 1524l286 -262h228l-207 354z" />
    <glyph glyph-name="oacute" unicode="&#xf3;" horiz-adv-x="1296" 
d="M647 -25q159 0 293.5 72.5t213.5 202t79 287.5q0 114 -44 216t-120.5 176.5t-186 118.5t-233.5 44q-165 0 -299.5 -75.5t-209 -203.5t-74.5 -281q0 -152 74 -279.5t208 -202.5t299 -75zM647 825q119 0 198 -86.5t79 -206.5q0 -119 -77.5 -204.5t-197.5 -85.5
q-117 0 -195.5 86t-78.5 209q0 122 75 205t197 83zM750 1616l-205 -354h223l289 262z" />
    <glyph glyph-name="ocircumflex" unicode="&#xf4;" horiz-adv-x="1296" 
d="M647 -25q159 0 293.5 72.5t213.5 202t79 287.5q0 114 -44 216t-120.5 176.5t-186 118.5t-233.5 44q-165 0 -299.5 -75.5t-209 -203.5t-74.5 -281q0 -152 74 -279.5t208 -202.5t299 -75zM647 825q119 0 198 -86.5t79 -206.5q0 -119 -77.5 -204.5t-197.5 -85.5
q-117 0 -195.5 86t-78.5 209q0 122 75 205t197 83zM1008 1264l-265 350h-184l-264 -350h223l133 139l133 -139h224z" />
    <glyph glyph-name="otilde" unicode="&#xf5;" horiz-adv-x="1296" 
d="M647 -25q159 0 293.5 72.5t213.5 202t79 287.5q0 114 -44 216t-120.5 176.5t-186 118.5t-233.5 44q-165 0 -299.5 -75.5t-209 -203.5t-74.5 -281q0 -152 74 -279.5t208 -202.5t299 -75zM647 825q119 0 198 -86.5t79 -206.5q0 -119 -77.5 -204.5t-197.5 -85.5
q-117 0 -195.5 86t-78.5 209q0 122 75 205t197 83zM467 1219q17 53 37 74.5t49 21.5t110 -37t132 -37q160 0 235 268l-174 33q-13 -49 -31 -70.5t-45 -21.5q-25 0 -108 37t-137 37q-171 0 -246 -273z" />
    <glyph glyph-name="odieresis" unicode="&#xf6;" horiz-adv-x="1296" 
d="M647 -25q159 0 293.5 72.5t213.5 202t79 287.5q0 114 -44 216t-120.5 176.5t-186 118.5t-233.5 44q-165 0 -299.5 -75.5t-209 -203.5t-74.5 -281q0 -152 74 -279.5t208 -202.5t299 -75zM647 825q119 0 198 -86.5t79 -206.5q0 -119 -77.5 -204.5t-197.5 -85.5
q-117 0 -195.5 86t-78.5 209q0 122 75 205t197 83zM432 1593q-68 0 -112 -42.5t-44 -110.5q0 -70 44 -112t112 -42q67 0 112.5 42t45.5 112q0 69 -46 111t-112 42zM866 1593q-68 0 -111.5 -42.5t-43.5 -110.5q0 -71 43.5 -112.5t111.5 -41.5t112 42t44 112q0 69 -44.5 111
t-111.5 42z" />
    <glyph glyph-name="divide" unicode="&#xf7;" horiz-adv-x="1347" 
d="M1204 631v182h-1061v-182h1061zM674 901q60 0 100.5 38.5t40.5 98.5q0 57 -40 98.5t-101 41.5t-101.5 -41.5t-40.5 -98.5t40 -97t102 -40zM674 268q60 0 100.5 39.5t40.5 100.5q0 59 -39 97t-102 38t-102.5 -38t-39.5 -97q0 -58 40 -99t102 -41z" />
    <glyph glyph-name="oslash" unicode="&#xf8;" horiz-adv-x="1312" 
d="M909 674q35 -65 35 -144q0 -129 -79 -216t-206 -87q-72 0 -131 35zM412 385q-35 60 -35 145q0 128 78 214.5t204 86.5q84 0 134 -36zM53 -4l125 -119l168 184q139 -88 313 -88q124 0 232.5 44t185 118.5t120.5 177.5t44 217q0 208 -131 361l135 149l-127 123l-143 -164
q-128 86 -313 86q-123 0 -231.5 -44t-184.5 -118.5t-120 -176.5t-44 -216q0 -207 131 -360z" />
    <glyph glyph-name="ugrave" unicode="&#xf9;" horiz-adv-x="1226" 
d="M106 379q0 -186 94.5 -294t276.5 -108q209 0 328 150l317 -143v1085h-315v-592q0 -109 -58 -165t-141 -56q-82 0 -134 55.5t-52 165.5v592h-316v-690zM270 1524l287 -262h227l-206 354z" />
    <glyph glyph-name="uacute" unicode="&#xfa;" horiz-adv-x="1226" 
d="M106 379q0 -186 94.5 -294t276.5 -108q209 0 328 150l317 -143v1085h-315v-592q0 -109 -58 -165t-141 -56q-82 0 -134 55.5t-52 165.5v592h-316v-690zM713 1616l-205 -354h223l289 262z" />
    <glyph glyph-name="ucircumflex" unicode="&#xfb;" horiz-adv-x="1226" 
d="M106 379q0 -186 94.5 -294t276.5 -108q209 0 328 150l317 -143v1085h-315v-592q0 -109 -58 -165t-141 -56q-82 0 -134 55.5t-52 165.5v592h-316v-690zM969 1264l-264 350h-185l-264 -350h223l133 139l133 -139h224z" />
    <glyph glyph-name="udieresis" unicode="&#xfc;" horiz-adv-x="1226" 
d="M106 379q0 -186 94.5 -294t276.5 -108q209 0 328 150l317 -143v1085h-315v-592q0 -109 -58 -165t-141 -56q-82 0 -134 55.5t-52 165.5v592h-316v-690zM395 1593q-68 0 -111.5 -42.5t-43.5 -110.5q0 -71 43.5 -112.5t111.5 -41.5q67 0 112.5 42t45.5 112q0 69 -46 111
t-112 42zM829 1593q-68 0 -111.5 -42.5t-43.5 -110.5q0 -71 43.5 -112.5t111.5 -41.5t112 42t44 112q0 69 -44.5 111t-111.5 42z" />
    <glyph glyph-name="yacute" unicode="&#xfd;" horiz-adv-x="1138" 
d="M-10 1067l459 -1075l-117 -338h272l543 1413h-324l-241 -733l-260 733h-332zM659 1616l-204 -354h223l289 262z" />
    <glyph glyph-name="thorn" unicode="&#xfe;" horiz-adv-x="1204" 
d="M403 481q0 96 60 170t153 74q98 0 159 -72.5t61 -171.5q0 -104 -61.5 -178t-156.5 -74q-96 0 -155.5 75t-59.5 177zM117 1587v-2062h305v440l-6 152h6q38 -55 101.5 -90.5t135.5 -44.5q52 -7 82 -5q123 8 216.5 83.5t139.5 186t46 234.5t-45.5 232.5t-138.5 182.5
t-216 81q-44 3 -90 -6q-74 -14 -135.5 -53t-101.5 -91h-2q1 26 2 79t2 79q0 123 4 180v422h-305z" />
    <glyph glyph-name="ydieresis" unicode="&#xff;" horiz-adv-x="1138" 
d="M-10 1067l459 -1075l-117 -338h272l543 1413h-324l-241 -733l-260 733h-332zM362 1593q-68 0 -111.5 -42.5t-43.5 -110.5q0 -71 43.5 -112.5t111.5 -41.5q67 0 112.5 42t45.5 112q0 69 -46 111t-112 42zM797 1593q-68 0 -112 -42.5t-44 -110.5q0 -70 44 -112t112 -42
t111.5 41.5t43.5 112.5q0 69 -44 111t-111 42z" />
    <glyph glyph-name="Amacron" unicode="&#x100;" horiz-adv-x="1509" 
d="M453 305h596l127 -305h348l-619 1444h-303l-616 -1444h340zM553 563l199 500l198 -500h-397zM1108 1546v199h-711v-199h711z" />
    <glyph glyph-name="amacron" unicode="&#x101;" horiz-adv-x="1208" 
d="M780 272q-91 -88 -217 -88q-80 0 -135 43t-55 115q0 73 61 116.5t154 43.5q111 0 192 -45v-185zM1090 635q0 221 -133 335.5t-386 114.5q-203 0 -421 -86v-235q170 76 352 76q278 0 278 -193v-24q-118 51 -282 51q-92 0 -169.5 -20t-137.5 -60.5t-94 -107.5t-34 -154
q0 -110 55 -192.5t142.5 -123.5t192.5 -41q192 0 325 136l312 -127v651zM946 1208v199h-710v-199h710z" />
    <glyph glyph-name="Abreve" unicode="&#x102;" horiz-adv-x="1509" 
d="M453 305h596l127 -305h348l-619 1444h-303l-616 -1444h340zM553 563l199 500l198 -500h-397zM909 1878q-19 -68 -58 -104.5t-93 -36.5q-56 0 -97.5 37t-60.5 104h-180q14 -154 105.5 -250t226.5 -96q137 0 230 96t105 250h-178z" />
    <glyph glyph-name="abreve" unicode="&#x103;" horiz-adv-x="1208" 
d="M780 272q-91 -88 -217 -88q-80 0 -135 43t-55 115q0 73 61 116.5t154 43.5q111 0 192 -45v-185zM1090 635q0 221 -133 335.5t-386 114.5q-203 0 -421 -86v-235q170 76 352 76q278 0 278 -193v-24q-118 51 -282 51q-92 0 -169.5 -20t-137.5 -60.5t-94 -107.5t-34 -154
q0 -110 55 -192.5t142.5 -123.5t192.5 -41q192 0 325 136l312 -127v651zM770 1540q-19 -67 -58.5 -104t-93.5 -37q-56 0 -97 37t-60 104h-180q14 -154 105 -250t226 -96q137 0 230.5 96t105.5 250h-178z" />
    <glyph glyph-name="Aogonek" unicode="&#x104;" horiz-adv-x="1509" 
d="M453 305h596l127 -305h348l-619 1444h-303l-616 -1444h340zM553 563l199 500l198 -500h-397zM1458 -256q-72 -27 -106 -27q-36 0 -59 19.5t-23 52.5q0 60 119 211h-213q-55 -66 -87 -124t-32 -122q0 -98 70 -155.5t180 -57.5q99 0 188 47z" />
    <glyph glyph-name="aogonek" unicode="&#x105;" horiz-adv-x="1208" 
d="M780 272q-91 -88 -217 -88q-80 0 -135 43t-55 115q0 73 61 116.5t154 43.5q111 0 192 -45v-185zM1090 635q0 221 -133 335.5t-386 114.5q-203 0 -421 -86v-235q170 76 352 76q278 0 278 -193v-24q-118 51 -282 51q-92 0 -169.5 -20t-137.5 -60.5t-94 -107.5t-34 -154
q0 -110 55 -192.5t142.5 -123.5t192.5 -41q192 0 325 136l312 -127v651zM1159 -256q-72 -27 -106 -27q-37 0 -59.5 20t-22.5 54q0 64 119 193l-160 77q-91 -99 -131.5 -167.5t-40.5 -137.5q0 -98 70.5 -156.5t179.5 -58.5q99 0 188 47z" />
    <glyph glyph-name="Cacute" unicode="&#x106;" horiz-adv-x="1390" 
d="M1290 459q-103 -95 -206 -144t-226 -49q-199 0 -319.5 129.5t-120.5 325.5q0 124 53 226t154.5 163t232.5 61q254 0 416 -176v334q-188 137 -436 137q-159 0 -299 -58.5t-239.5 -158.5t-156.5 -238.5t-57 -293.5q0 -209 98 -380.5t267 -268.5t374 -97q256 0 465 156v332z
M903 1933l-205 -354h224l288 262z" />
    <glyph glyph-name="cacute" unicode="&#x107;" horiz-adv-x="1028" 
d="M877 1042q-99 48 -246 48q-164 0 -294.5 -77t-200.5 -204t-70 -277q0 -153 73 -280.5t201 -202t283 -74.5q145 0 264 58v303q-104 -94 -230 -94q-119 0 -200.5 86.5t-81.5 208.5q0 124 77.5 205t198.5 81q124 0 226 -94v313zM684 1616l-205 -354h223l289 262z" />
    <glyph glyph-name="Ccircumflex" unicode="&#x108;" horiz-adv-x="1390" 
d="M1290 459q-103 -95 -206 -144t-226 -49q-199 0 -319.5 129.5t-120.5 325.5q0 124 53 226t154.5 163t232.5 61q254 0 416 -176v334q-188 137 -436 137q-159 0 -299 -58.5t-239.5 -158.5t-156.5 -238.5t-57 -293.5q0 -209 98 -380.5t267 -268.5t374 -97q256 0 465 156v332z
M1165 1602l-264 350h-184l-264 -350h223l133 139l133 -139h223z" />
    <glyph glyph-name="ccircumflex" unicode="&#x109;" horiz-adv-x="966" 
d="M877 1042q-99 48 -246 48q-164 0 -294.5 -77t-200.5 -204t-70 -277q0 -153 73 -280.5t201 -202t283 -74.5q145 0 264 58v303q-104 -94 -230 -94q-119 0 -200.5 86.5t-81.5 208.5q0 124 77.5 205t198.5 81q124 0 226 -94v313zM934 1264l-264 350h-185l-264 -350h223
l134 139l133 -139h223z" />
    <glyph glyph-name="Cdotaccent" unicode="&#x10a;" horiz-adv-x="1390" 
d="M1290 459q-103 -95 -206 -144t-226 -49q-199 0 -319.5 129.5t-120.5 325.5q0 124 53 226t154.5 163t232.5 61q254 0 416 -176v334q-188 137 -436 137q-159 0 -299 -58.5t-239.5 -158.5t-156.5 -238.5t-57 -293.5q0 -209 98 -380.5t267 -268.5t374 -97q256 0 465 156v332z
M829 1903q-81 0 -133.5 -45.5t-52.5 -126.5q0 -80 52.5 -126t133.5 -46q82 0 135.5 46t53.5 126q0 82 -53 127t-136 45z" />
    <glyph glyph-name="cdotaccent" unicode="&#x10b;" horiz-adv-x="925" 
d="M874 1042q-99 48 -245 48q-164 0 -294.5 -77t-201 -204t-70.5 -277q0 -152 73 -280t201.5 -202.5t283.5 -74.5q145 0 264 58v303q-104 -94 -230 -94q-119 0 -200.5 86.5t-81.5 208.5q0 124 77.5 205t198.5 81q123 0 225 -94v313zM602 1565q-81 0 -133.5 -45.5
t-52.5 -126.5q0 -80 52.5 -126t133.5 -46q82 0 135.5 46t53.5 126q0 82 -53 127t-136 45z" />
    <glyph glyph-name="Ccaron" unicode="&#x10c;" horiz-adv-x="1390" 
d="M1290 459q-103 -95 -206 -144t-226 -49q-199 0 -319.5 129.5t-120.5 325.5q0 124 53 226t154.5 163t232.5 61q254 0 416 -176v334q-188 137 -436 137q-159 0 -299 -58.5t-239.5 -158.5t-156.5 -238.5t-57 -293.5q0 -209 98 -380.5t267 -268.5t374 -97q256 0 465 156v332z
M1214 1933h-235l-129 -145l-133 145h-240l277 -354h186z" />
    <glyph glyph-name="ccaron" unicode="&#x10d;" horiz-adv-x="966" 
d="M877 1042q-99 48 -246 48q-164 0 -294.5 -77t-200.5 -204t-70 -277q0 -153 73 -280.5t201 -202t283 -74.5q145 0 264 58v303q-104 -94 -230 -94q-119 0 -200.5 86.5t-81.5 208.5q0 124 77.5 205t198.5 81q124 0 226 -94v313zM961 1573h-236l-129 -146l-133 146h-240
l277 -354h186z" />
    <glyph glyph-name="Dcaron" unicode="&#x10e;" horiz-adv-x="1536" 
d="M133 1438v-1438h514q184 0 336 54.5t254 151t157.5 230t55.5 289.5q0 157 -56 289t-158.5 226t-252 146t-330.5 52h-520zM457 287v862h229q195 0 312.5 -122t117.5 -308q0 -199 -124 -315.5t-339 -116.5h-196zM1096 1933h-236l-129 -145l-133 145h-240l277 -354h186z" />
    <glyph glyph-name="dcaron" unicode="&#x10f;" horiz-adv-x="1280" 
d="M1219 -16v1513h-316v-577q-140 172 -352 172q-98 0 -186.5 -39.5t-155.5 -110.5t-106.5 -177.5t-39.5 -232.5q0 -125 39.5 -230.5t107 -176t156.5 -109.5t189 -39q113 0 192.5 46t147.5 129zM639 242q-117 0 -190.5 87t-73.5 206q0 127 77.5 209.5t186.5 82.5
q111 0 190.5 -83t79.5 -207q0 -128 -79 -211.5t-191 -83.5zM1466 1204l125 434h-227l-76 -434h178z" />
    <glyph glyph-name="Dcroat" unicode="&#x110;" horiz-adv-x="1589" 
d="M186 1438v-1438h514q184 0 336 54.5t254 151t157.5 230t55.5 289.5q0 157 -56 289t-158 226t-251.5 146t-330.5 52h-521zM510 287v862h229q195 0 312.5 -122t117.5 -308q0 -199 -124 -315.5t-338 -116.5h-197zM653 557v281h-633v-281h633z" />
    <glyph glyph-name="dcroat" unicode="&#x111;" horiz-adv-x="1327" 
d="M1219 -16v1513h-316v-577q-136 172 -350 172q-98 0 -186.5 -39.5t-155.5 -110.5t-106 -177.5t-39 -232.5q0 -125 39.5 -230.5t106 -176t155.5 -109.5t188 -39q114 0 194 46t148 129zM641 242q-117 0 -190.5 87.5t-73.5 205.5q0 128 77 210t187 82q111 0 189.5 -83
t78.5 -207q0 -128 -78 -211.5t-190 -83.5zM1335 1139v280h-633v-280h633z" />
    <glyph glyph-name="Emacron" unicode="&#x112;" horiz-adv-x="1343" 
d="M455 276v320h694v260h-694v303h762v279h-1084v-1438h1098v276h-776zM1038 1546v199h-710v-199h710z" />
    <glyph glyph-name="emacron" unicode="&#x113;" horiz-adv-x="1196" 
d="M1030 350q-71 -67 -183.5 -106t-217.5 -39q-161 0 -238 117l742 188q-4 116 -40 219t-100.5 183t-164 126.5t-220.5 46.5q-157 0 -281 -72.5t-192.5 -199t-68.5 -283.5q0 -245 155.5 -403t399.5 -158q104 0 213.5 29.5t195.5 89.5v262zM365 545q0 75 22.5 141t76 113
t130.5 47q87 0 147 -52.5t80 -142.5l-452 -116zM961 1208v199h-711v-199h711z" />
    <glyph glyph-name="Ebreve" unicode="&#x114;" horiz-adv-x="1343" 
d="M455 276v320h694v260h-694v303h762v279h-1084v-1438h1098v276h-776zM848 1878q-19 -67 -58.5 -104t-93.5 -37q-56 0 -97 37t-60 104h-181q14 -154 105.5 -250t226.5 -96q137 0 230.5 96t105.5 250h-178z" />
    <glyph glyph-name="ebreve" unicode="&#x115;" horiz-adv-x="1196" 
d="M1030 350q-71 -67 -183.5 -106t-217.5 -39q-161 0 -238 117l742 188q-4 116 -40 219t-100.5 183t-164 126.5t-220.5 46.5q-157 0 -281 -72.5t-192.5 -199t-68.5 -283.5q0 -245 155.5 -403t399.5 -158q104 0 213.5 29.5t195.5 89.5v262zM365 545q0 75 22.5 141t76 113
t130.5 47q87 0 147 -52.5t80 -142.5l-452 -116zM778 1540q-19 -68 -58 -104.5t-93 -36.5q-56 0 -97.5 37t-60.5 104h-180q14 -154 105.5 -250t226.5 -96q137 0 230 96t105 250h-178z" />
    <glyph glyph-name="Edotaccent" unicode="&#x116;" horiz-adv-x="1343" 
d="M455 276v320h694v260h-694v303h762v279h-1084v-1438h1098v276h-776zM696 1903q-81 0 -133.5 -45.5t-52.5 -126.5q0 -80 52.5 -126t133.5 -46q82 0 135.5 46t53.5 126q0 82 -53 127t-136 45z" />
    <glyph glyph-name="edotaccent" unicode="&#x117;" horiz-adv-x="1196" 
d="M1030 350q-71 -67 -183.5 -106t-217.5 -39q-161 0 -238 117l742 188q-4 116 -40 219t-100.5 183t-164 126.5t-220.5 46.5q-157 0 -281 -72.5t-192.5 -199t-68.5 -283.5q0 -245 155.5 -403t399.5 -158q104 0 213.5 29.5t195.5 89.5v262zM365 545q0 75 22.5 141t76 113
t130.5 47q87 0 147 -52.5t80 -142.5l-452 -116zM608 1565q-81 0 -133.5 -45.5t-52.5 -126.5q0 -80 52.5 -126t133.5 -46q82 0 135.5 46t53.5 126q0 82 -53 127t-136 45z" />
    <glyph glyph-name="Eogonek" unicode="&#x118;" horiz-adv-x="1343" 
d="M455 276v320h694v260h-694v303h762v279h-1084v-1438h1098v276h-776zM1300 -256q-72 -27 -106 -27q-36 0 -59 19.5t-23 52.5q0 60 119 211h-213q-55 -66 -87 -124t-32 -122q0 -98 70 -155.5t180 -57.5q99 0 188 47z" />
    <glyph glyph-name="eogonek" unicode="&#x119;" horiz-adv-x="1196" 
d="M1030 350q-71 -67 -183.5 -106t-217.5 -39q-161 0 -238 117l742 188q-4 116 -40 219t-100.5 183t-164 126.5t-220.5 46.5q-157 0 -281 -72.5t-192.5 -199t-68.5 -283.5q0 -245 155.5 -403t399.5 -158q104 0 213.5 29.5t195.5 89.5v262zM365 545q0 75 22.5 141t76 113
t130.5 47q87 0 147 -52.5t80 -142.5l-452 -116zM1018 -256q-72 -27 -107 -27q-37 0 -59.5 19.5t-22.5 56.5q0 103 201 295l-295 -88q-119 -129 -119 -246q0 -98 70 -155.5t180 -57.5q100 0 189 47z" />
    <glyph glyph-name="Ecaron" unicode="&#x11a;" horiz-adv-x="1343" 
d="M455 276v320h694v260h-694v303h762v279h-1084v-1438h1098v276h-776zM1073 1933h-235l-129 -145l-134 145h-239l276 -354h187z" />
    <glyph glyph-name="ecaron" unicode="&#x11b;" horiz-adv-x="1196" 
d="M1030 350q-71 -67 -183.5 -106t-217.5 -39q-161 0 -238 117l742 188q-4 116 -40 219t-100.5 183t-164 126.5t-220.5 46.5q-157 0 -281 -72.5t-192.5 -199t-68.5 -283.5q0 -245 155.5 -403t399.5 -158q104 0 213.5 29.5t195.5 89.5v262zM365 545q0 75 22.5 141t76 113
t130.5 47q87 0 147 -52.5t80 -142.5l-452 -116zM973 1573h-236l-129 -146l-133 146h-239l276 -354h186z" />
    <glyph glyph-name="Gcircumflex" unicode="&#x11c;" horiz-adv-x="1603" 
d="M1212 584q0 -80 -31.5 -144.5t-83.5 -104.5t-116 -61.5t-133 -21.5q-183 0 -307.5 132t-124.5 333q0 126 60.5 231.5t168 167.5t236.5 62q229 0 397 -152v344q-170 96 -418 96q-216 0 -394 -99t-279 -270.5t-101 -377.5q0 -210 98.5 -382.5t269 -270t375.5 -97.5
q116 0 218 28.5t189 90.5t149.5 153t97.5 223t35 294v73h-637v-247h331zM1204 1602l-264 350h-184l-264 -350h223l133 139l133 -139h223z" />
    <glyph glyph-name="gcircumflex" unicode="&#x11d;" horiz-adv-x="1345" 
d="M651 328q-114 0 -189 73t-75 183q0 114 73.5 186t190.5 72q115 0 191 -72t76 -184t-76 -185t-191 -73zM918 186q0 -157 -89.5 -231t-250.5 -74q-119 0 -240 42.5t-215 105.5v-267q114 -58 220 -87t237 -29q143 0 261 36t205 106t135 179.5t48 249.5v850l-322 -135
q-70 76 -151.5 118t-192.5 42q-100 0 -189 -36t-155.5 -101t-105.5 -161t-39 -210q0 -112 38 -207.5t104 -160.5t155 -101.5t190 -36.5q116 0 200.5 46.5t156.5 131.5v-70zM1022 1264l-264 350h-185l-264 -350h223l134 139l133 -139h223z" />
    <glyph glyph-name="Gbreve" unicode="&#x11e;" horiz-adv-x="1603" 
d="M1212 584q0 -80 -31.5 -144.5t-83.5 -104.5t-116 -61.5t-133 -21.5q-183 0 -307.5 132t-124.5 333q0 126 60.5 231.5t168 167.5t236.5 62q229 0 397 -152v344q-170 96 -418 96q-216 0 -394 -99t-279 -270.5t-101 -377.5q0 -210 98.5 -382.5t269 -270t375.5 -97.5
q116 0 218 28.5t189 90.5t149.5 153t97.5 223t35 294v73h-637v-247h331zM997 1878q-19 -68 -58 -104.5t-93 -36.5q-56 0 -97.5 37t-60.5 104h-180q14 -154 105.5 -250t226.5 -96q137 0 230.5 96t105.5 250h-179z" />
    <glyph glyph-name="gbreve" unicode="&#x11f;" horiz-adv-x="1345" 
d="M651 328q-114 0 -189 73t-75 183q0 114 73.5 186t190.5 72q115 0 191 -72t76 -184t-76 -185t-191 -73zM918 186q0 -157 -89.5 -231t-250.5 -74q-119 0 -240 42.5t-215 105.5v-267q114 -58 220 -87t237 -29q143 0 261 36t205 106t135 179.5t48 249.5v850l-322 -135
q-70 76 -151.5 118t-192.5 42q-100 0 -189 -36t-155.5 -101t-105.5 -161t-39 -210q0 -112 38 -207.5t104 -160.5t155 -101.5t190 -36.5q116 0 200.5 46.5t156.5 131.5v-70zM858 1540q-19 -68 -58 -104.5t-93 -36.5q-56 0 -97.5 37t-60.5 104h-180q14 -154 105 -250t226 -96
q137 0 230.5 96t105.5 250h-178z" />
    <glyph glyph-name="Gdotaccent" unicode="&#x120;" horiz-adv-x="1603" 
d="M1212 584q0 -80 -31.5 -144.5t-83.5 -104.5t-116 -61.5t-133 -21.5q-183 0 -307.5 132t-124.5 333q0 126 60.5 231.5t168 167.5t236.5 62q229 0 397 -152v344q-170 96 -418 96q-216 0 -394 -99t-279 -270.5t-101 -377.5q0 -210 98.5 -382.5t269 -270t375.5 -97.5
q116 0 218 28.5t189 90.5t149.5 153t97.5 223t35 294v73h-637v-247h331zM801 1911q-81 0 -134 -45.5t-53 -126.5q0 -79 53 -125.5t134 -46.5q82 0 135 46t53 126q0 82 -52.5 127t-135.5 45z" />
    <glyph glyph-name="gdotaccent" unicode="&#x121;" horiz-adv-x="1331" 
d="M647 328q-114 0 -189 73t-75 183q0 114 73.5 186t190.5 72q115 0 190.5 -72t75.5 -184t-76 -185t-190 -73zM913 186q0 -157 -89.5 -231t-250.5 -74q-119 0 -239.5 42.5t-214.5 105.5v-267q114 -58 220 -87t236 -29q143 0 261 36t205 106t135.5 179.5t48.5 249.5v850
l-322 -135q-70 76 -151.5 118t-192.5 42q-100 0 -189 -36t-155.5 -101t-105.5 -161t-39 -210q0 -112 38 -207.5t104 -160.5t155 -101.5t190 -36.5q116 0 200 46.5t156 131.5v-70zM668 1565q-81 0 -134 -45.5t-53 -126.5q0 -79 53 -125.5t134 -46.5q82 0 135 46t53 126
q0 82 -52.5 127t-135.5 45z" />
    <glyph glyph-name="uni0122" unicode="&#x122;" horiz-adv-x="1603" 
d="M1212 584q0 -80 -31.5 -144.5t-83.5 -104.5t-116 -61.5t-133 -21.5q-183 0 -307.5 132t-124.5 333q0 126 60.5 231.5t168 167.5t236.5 62q229 0 397 -152v344q-170 96 -418 96q-216 0 -394 -99t-279 -270.5t-101 -377.5q0 -210 98.5 -382.5t269 -270t375.5 -97.5
q116 0 218 28.5t189 90.5t149.5 153t97.5 223t35 294v73h-637v-247h331zM743 -557l125 434h-227l-76 -434h178z" />
    <glyph glyph-name="uni0123" unicode="&#x123;" horiz-adv-x="1349" 
d="M651 328q-114 0 -189 73t-75 183q0 114 73.5 186t190.5 72q115 0 191 -72t76 -184t-76 -185t-191 -73zM918 186q0 -157 -89.5 -231t-250.5 -74q-119 0 -240 42.5t-215 105.5v-267q114 -58 220 -87t237 -29q143 0 261 36t205 106t135 179.5t48 249.5v850l-322 -135
q-70 76 -151.5 118t-192.5 42q-100 0 -189 -36t-155.5 -101t-105.5 -161t-39 -210q0 -112 38 -207.5t104 -160.5t155 -101.5t190 -36.5q116 0 200.5 46.5t156.5 131.5v-70zM735 1636l-194 -436h325l90 436h-221z" />
    <glyph glyph-name="Hcircumflex" unicode="&#x124;" horiz-adv-x="1513" 
d="M133 1438v-1438h324v582h600v-582h321v1438h-321v-568h-600v568h-324zM1114 1602l-264 350h-184l-265 -350h224l133 139l133 -139h223z" />
    <glyph glyph-name="hcircumflex" unicode="&#x125;" horiz-adv-x="1472" 
d="M1223 690q0 182 -97 292t-272 110q-200 0 -336 -170v575h-311v-1497h315v592q0 101 60 157t145 56t132.5 -54.5t47.5 -158.5v-592h316v690zM725 1624l-264 350h-185l-264 -350h224l133 139l133 -139h223z" />
    <glyph glyph-name="Hbar" unicode="&#x126;" horiz-adv-x="1564" 
d="M160 1438v-1438h323v582h600v-582h322v1438h-322v-568h-600v568h-323zM57 1059h1452v198h-1452v-198z" />
    <glyph glyph-name="hbar" unicode="&#x127;" horiz-adv-x="1230" 
d="M1122 690q0 183 -96.5 292.5t-271.5 109.5q-200 0 -336 -170v575h-312v-1497h316v592q0 101 60 157t145 56t132.5 -54.5t47.5 -158.5v-592h315v690zM655 1208v199h-710v-199h710z" />
    <glyph glyph-name="Itilde" unicode="&#x128;" horiz-adv-x="589" 
d="M457 0v1438h-324v-1438h324zM100 1556q17 53 37 75t49 22t110.5 -37t131.5 -37q161 0 236 268l-175 33q-13 -49 -31 -70.5t-44 -21.5q-25 0 -108.5 37t-137.5 37q-171 0 -246 -273z" />
    <glyph glyph-name="itilde" unicode="&#x129;" horiz-adv-x="548" 
d="M430 0v1067h-315v-1067h315zM90 1219q17 53 37 74.5t49 21.5t110.5 -37t131.5 -37q160 0 235 268l-174 33q-13 -49 -31 -70.5t-45 -21.5q-25 0 -108 37t-137 37q-171 0 -246 -273z" />
    <glyph glyph-name="Imacron" unicode="&#x12a;" horiz-adv-x="589" 
d="M457 0v1438h-324v-1438h324zM649 1546v199h-710v-199h710z" />
    <glyph glyph-name="imacron" unicode="&#x12b;" horiz-adv-x="548" 
d="M430 0v1067h-315v-1067h315zM629 1208v199h-711v-199h711z" />
    <glyph glyph-name="Ibreve" unicode="&#x12c;" horiz-adv-x="589" 
d="M457 0v1438h-324v-1438h324zM449 1880q-19 -67 -58.5 -104t-93.5 -37q-56 0 -97.5 37t-60.5 104h-180q14 -154 105.5 -250t226.5 -96q137 0 230.5 96t105.5 250h-178z" />
    <glyph glyph-name="ibreve" unicode="&#x12d;" horiz-adv-x="548" 
d="M430 0v1067h-315v-1067h315zM430 1540q-19 -68 -58 -104.5t-93 -36.5q-56 0 -97.5 37t-60.5 104h-180q14 -154 105 -250t226 -96q137 0 230.5 96t105.5 250h-178z" />
    <glyph glyph-name="Iogonek" unicode="&#x12e;" horiz-adv-x="589" 
d="M457 0v1438h-324v-1438h324zM526 -256q-72 -27 -106 -27q-36 0 -59 19.5t-23 52.5q0 60 119 211h-213q-55 -66 -87 -124t-32 -122q0 -98 70 -155.5t180 -57.5q99 0 188 47z" />
    <glyph glyph-name="iogonek" unicode="&#x12f;" horiz-adv-x="552" 
d="M434 0v1067h-313v-1067h313zM274 1542q-81 0 -133.5 -46.5t-52.5 -127.5q0 -79 53.5 -125.5t132.5 -46.5q82 0 136.5 46.5t54.5 125.5q0 82 -54 128t-137 46zM504 -256q-72 -27 -107 -27q-36 0 -59 19.5t-23 52.5q0 60 119 211h-213q-55 -66 -87 -124t-32 -122
q0 -98 70 -155.5t180 -57.5q100 0 189 47z" />
    <glyph glyph-name="Idotaccent" unicode="&#x130;" horiz-adv-x="589" 
d="M457 0v1438h-324v-1438h324zM293 1903q-81 0 -134 -45.5t-53 -126.5q0 -79 53 -125.5t134 -46.5q82 0 135 46t53 126q0 82 -52.5 127t-135.5 45z" />
    <glyph glyph-name="dotlessi" unicode="&#x131;" horiz-adv-x="548" 
d="M430 0v1067h-315v-1067h315z" />
    <glyph glyph-name="IJ" unicode="&#x132;" horiz-adv-x="1490" 
d="M457 0v1438h-324v-1438h324zM590 72q141 -97 284 -97q231 0 362.5 139t131.5 378v946h-321v-946q0 -116 -51 -173t-140 -57q-71 0 -131.5 33.5t-134.5 95.5v-319z" />
    <glyph glyph-name="ij" unicode="&#x133;" horiz-adv-x="1091" 
d="M434 0v1067h-313v-1067h313zM274 1542q-81 0 -133.5 -46.5t-52.5 -127.5q0 -79 53.5 -125.5t132.5 -46.5q82 0 136.5 46.5t54.5 125.5q0 82 -54 128t-137 46zM494 -340q72 -14 141 -14q176 0 258 88t82 274v1059h-313v-1065q0 -129 -95 -129q-32 0 -73 14v-227zM813 1542
q-81 0 -133.5 -46t-52.5 -128q0 -80 52.5 -126t133.5 -46t134.5 46.5t53.5 125.5q0 82 -53.5 128t-134.5 46z" />
    <glyph glyph-name="Jcircumflex" unicode="&#x134;" horiz-adv-x="899" 
d="M0 72q141 -97 285 -97q231 0 362 139t131 378v946h-321v-946q0 -116 -51 -173t-140 -57q-71 0 -131.5 33.5t-134.5 95.5v-319zM985 1602l-264 350h-184l-265 -350h224l133 139l133 -139h223z" />
    <glyph glyph-name="jcircumflex" unicode="&#x135;" horiz-adv-x="514" 
d="M-49 -340q72 -14 141 -14q176 0 258 88t82 274v1059h-313v-1065q0 -129 -94 -129q-33 0 -74 14v-227zM625 1264l-265 350h-184l-264 -350h223l133 139l133 -139h224z" />
    <glyph glyph-name="uni0136" unicode="&#x136;" horiz-adv-x="1376" 
d="M457 848v590h-324v-1438h324v727l538 -727h391l-600 801l570 637h-389zM629 -561l125 434h-228l-75 -434h178z" />
    <glyph glyph-name="uni0137" unicode="&#x137;" horiz-adv-x="1134" 
d="M430 684v813h-315v-1497h315v535l350 -535h355l-418 616l405 451h-364zM494 -561l124 434h-227l-76 -434h179z" />
    <glyph glyph-name="kgreenlandic" unicode="&#x138;" horiz-adv-x="1140" 
d="M430 684v383h-315v-1067h315v535l350 -535h355l-418 616l405 451h-364z" />
    <glyph glyph-name="Lacute" unicode="&#x139;" horiz-adv-x="1171" 
d="M440 285v1153h-323v-1438h1022v285h-699zM383 1933l-205 -354h223l289 262z" />
    <glyph glyph-name="lacute" unicode="&#x13a;" horiz-adv-x="589" 
d="M457 0v1438h-324v-1438h324zM365 1933l-205 -354h223l289 262z" />
    <glyph glyph-name="uni013B" unicode="&#x13b;" horiz-adv-x="1216" 
d="M467 285v1153h-324v-1438h1022v285h-698zM573 -561l125 434h-227l-76 -434h178z" />
    <glyph glyph-name="uni013C" unicode="&#x13c;" horiz-adv-x="589" 
d="M457 0v1438h-324v-1438h324zM201 -561l125 434h-228l-75 -434h178z" />
    <glyph glyph-name="Lcaron" unicode="&#x13d;" horiz-adv-x="1155" 
d="M457 285v1153h-324v-1438h1022v285h-698zM938 1204l125 434h-227l-76 -434h178z" />
    <glyph glyph-name="lcaron" unicode="&#x13e;" horiz-adv-x="548" 
d="M430 0v1497h-315v-1497h315zM705 1204l124 434h-227l-76 -434h179z" />
    <glyph glyph-name="Ldot" unicode="&#x13f;" horiz-adv-x="1153" 
d="M457 285v1153h-324v-1438h1022v285h-698zM905 940q-81 0 -133.5 -45.5t-52.5 -126.5q0 -80 52.5 -126t133.5 -46q82 0 135.5 46t53.5 126q0 82 -53 127t-136 45z" />
    <glyph glyph-name="ldot" unicode="&#x140;" horiz-adv-x="823" 
d="M430 0v1497h-315v-1497h315zM711 940q-81 0 -134 -45.5t-53 -126.5q0 -79 53 -125.5t134 -46.5q82 0 135 46t53 126q0 82 -52.5 127t-135.5 45z" />
    <glyph glyph-name="Lslash" unicode="&#x141;" horiz-adv-x="1167" 
d="M453 285v1153h-324v-1438h1022v285h-698zM907 408v274h-909v-274h909z" />
    <glyph glyph-name="lslash" unicode="&#x142;" horiz-adv-x="724" 
d="M440 0v1497h-315v-1497h315zM680 367v274h-680v-274h680z" />
    <glyph glyph-name="Nacute" unicode="&#x143;" horiz-adv-x="1570" 
d="M1118 537l-680 897h-305v-1434h320v918l694 -918h289v1438h-318v-901zM842 1933l-205 -354h223l289 262z" />
    <glyph glyph-name="nacute" unicode="&#x144;" horiz-adv-x="1236" 
d="M1130 690q0 178 -99.5 290t-270.5 112q-195 0 -328 -170l-317 145v-1067h315v592q0 107 60 163t141 56q78 0 131 -55t53 -164v-592h315v690zM750 1616l-205 -354h223l289 262z" />
    <glyph glyph-name="uni0145" unicode="&#x145;" horiz-adv-x="1589" 
d="M1128 537l-679 897h-306v-1434h320v918l694 -918h289v1438h-318v-901zM717 -561l125 434h-228l-75 -434h178z" />
    <glyph glyph-name="uni0146" unicode="&#x146;" horiz-adv-x="1263" 
d="M1143 690q0 178 -99.5 290t-271.5 112q-195 0 -328 -170l-317 145v-1067h315v592q0 107 60 163t141 56q78 0 131 -55t53 -164v-592h316v690zM532 -561l125 434h-227l-76 -434h178z" />
    <glyph glyph-name="Ncaron" unicode="&#x147;" horiz-adv-x="1570" 
d="M1118 537l-680 897h-305v-1434h320v918l694 -918h289v1438h-318v-901zM1165 1933h-235l-129 -145l-133 145h-240l277 -354h186z" />
    <glyph glyph-name="ncaron" unicode="&#x148;" horiz-adv-x="1236" 
d="M1130 690q0 178 -99.5 290t-270.5 112q-195 0 -328 -170l-317 145v-1067h315v592q0 107 60 163t141 56q78 0 131 -55t53 -164v-592h315v690zM997 1573h-235l-129 -146l-133 146h-240l277 -354h186z" />
    <glyph glyph-name="Eng" unicode="&#x14a;" horiz-adv-x="1570" 
d="M133 1434v-1434h320v918l669 -885v-41q0 -119 -94 -119q-33 0 -74 14v-227q72 -14 142 -14q176 0 258 88t82 274v103v1327h-318v-901l-680 897h-305z" />
    <glyph glyph-name="eng" unicode="&#x14b;" horiz-adv-x="1236" 
d="M115 1067v-1067h315v592q0 107 60 163t141 56q78 0 131 -55t53 -164v-590q0 -129 -94 -129q-33 0 -74 14v-227q72 -14 141 -14q176 0 259 88.5t83 273.5v682q0 187 -102 294.5t-268 107.5q-195 0 -328 -170z" />
    <glyph glyph-name="Omacron" unicode="&#x14c;" horiz-adv-x="1699" 
d="M848 -29q158 0 300 58.5t244 158.5t162 239.5t60 295.5q0 151 -58 288t-158 237t-242.5 159t-303.5 59q-162 0 -305 -59t-243.5 -160t-159 -239t-58.5 -291t57.5 -290t157.5 -237.5t242.5 -159.5t304.5 -59zM850 1174q125 0 225 -63.5t153.5 -167.5t53.5 -226
q0 -123 -54 -226.5t-153.5 -166t-224.5 -62.5q-188 0 -311 135t-123 326q0 188 122 319.5t312 131.5zM1206 1546v199h-710v-199h710z" />
    <glyph glyph-name="omacron" unicode="&#x14d;" horiz-adv-x="1296" 
d="M647 -25q159 0 293.5 72.5t213.5 202t79 287.5q0 114 -44 216t-120.5 176.5t-186 118.5t-233.5 44q-165 0 -299.5 -75.5t-209 -203.5t-74.5 -281q0 -152 74 -279.5t208 -202.5t299 -75zM647 825q119 0 198 -86.5t79 -206.5q0 -119 -77.5 -204.5t-197.5 -85.5
q-117 0 -195.5 86t-78.5 209q0 122 75 205t197 83zM1006 1208v199h-711v-199h711z" />
    <glyph glyph-name="Obreve" unicode="&#x14e;" horiz-adv-x="1699" 
d="M848 -29q158 0 300 58.5t244 158.5t162 239.5t60 295.5q0 151 -58 288t-158 237t-242.5 159t-303.5 59q-162 0 -305 -59t-243.5 -160t-159 -239t-58.5 -291t57.5 -290t157.5 -237.5t242.5 -159.5t304.5 -59zM850 1174q125 0 225 -63.5t153.5 -167.5t53.5 -226
q0 -123 -54 -226.5t-153.5 -166t-224.5 -62.5q-188 0 -311 135t-123 326q0 188 122 319.5t312 131.5zM1001 1878q-19 -68 -58 -104.5t-93 -36.5q-56 0 -97.5 37t-60.5 104h-180q14 -154 105.5 -250t226.5 -96q137 0 230.5 96t105.5 250h-179z" />
    <glyph glyph-name="obreve" unicode="&#x14f;" horiz-adv-x="1296" 
d="M647 -25q159 0 293.5 72.5t213.5 202t79 287.5q0 114 -44 216t-120.5 176.5t-186 118.5t-233.5 44q-165 0 -299.5 -75.5t-209 -203.5t-74.5 -281q0 -152 74 -279.5t208 -202.5t299 -75zM647 825q119 0 198 -86.5t79 -206.5q0 -119 -77.5 -204.5t-197.5 -85.5
q-117 0 -195.5 86t-78.5 209q0 122 75 205t197 83zM815 1540q-19 -68 -58 -104.5t-93 -36.5q-56 0 -97.5 37t-60.5 104h-180q14 -154 105 -250t226 -96q137 0 230.5 96t105.5 250h-178z" />
    <glyph glyph-name="Ohungarumlaut" unicode="&#x150;" horiz-adv-x="1699" 
d="M848 -29q158 0 300 58.5t244 158.5t162 239.5t60 295.5q0 151 -58 288t-158 237t-242.5 159t-303.5 59q-162 0 -305 -59t-243.5 -160t-159 -239t-58.5 -291t57.5 -290t157.5 -237.5t242.5 -159.5t304.5 -59zM850 1174q125 0 225 -63.5t153.5 -167.5t53.5 -226
q0 -123 -54 -226.5t-153.5 -166t-224.5 -62.5q-188 0 -311 135t-123 326q0 188 122 319.5t312 131.5zM748 1571l301 319l-271 49l-252 -368h222zM1167 1571l303 319l-272 49l-250 -368h219z" />
    <glyph glyph-name="ohungarumlaut" unicode="&#x151;" horiz-adv-x="1327" 
d="M647 -25q159 0 293.5 72.5t213.5 202t79 287.5q0 114 -44 216t-120.5 176.5t-186 118.5t-233.5 44q-165 0 -299.5 -75.5t-209 -203.5t-74.5 -281q0 -152 74 -279.5t208 -202.5t299 -75zM647 825q119 0 198 -86.5t79 -206.5q0 -119 -77.5 -204.5t-197.5 -85.5
q-117 0 -195.5 86t-78.5 209q0 122 75 205t197 83zM549 1233l301 319l-270 50l-252 -369h221zM969 1233l303 319l-273 50l-249 -369h219z" />
    <glyph glyph-name="OE" unicode="&#x152;" horiz-adv-x="2254" 
d="M1044 1124q-86 50 -192 50q-191 0 -313.5 -129.5t-122.5 -321.5q0 -201 136.5 -329t340.5 -128q79 0 151 45v813zM1366 596v-320h776v-276h-1071q-106 -29 -215 -29q-161 0 -304 58t-245 157.5t-161.5 238t-59.5 292.5q0 153 58.5 291t159 239t243.5 160t305 59
q109 0 215 -28h1061v-279h-762v-303h694v-260h-694z" />
    <glyph glyph-name="oe" unicode="&#x153;" horiz-adv-x="2082" 
d="M1915 350q-71 -67 -184 -106t-218 -39q-152 0 -229 117l733 188q-4 116 -40 219t-100 183t-163.5 126.5t-220.5 46.5q-258 0 -399 -190q-76 92 -192 144.5t-253 52.5q-165 0 -299.5 -75.5t-209 -203.5t-74.5 -281q0 -152 74 -279.5t208 -202.5t299 -75q133 0 246.5 51.5
t191.5 143.5q69 -97 175.5 -149t244.5 -52q104 0 214 29.5t196 89.5v262zM647 825q120 0 198.5 -86.5t78.5 -206.5q0 -119 -77.5 -204.5t-197.5 -85.5q-117 0 -195.5 86t-78.5 209q0 122 75 205t197 83zM1255 543q-2 57 8.5 109t34 96.5t67.5 71t103 26.5q87 0 146.5 -52
t81.5 -143z" />
    <glyph glyph-name="Racute" unicode="&#x154;" horiz-adv-x="1349" 
d="M133 0h326v494h178l340 -494h377l-385 541q155 48 242 159t87 273q0 213 -147 339t-416 126h-602v-1438zM459 748v407h256q124 0 191 -50t67 -151q0 -99 -72 -152.5t-196 -53.5h-246zM774 1933l-205 -354h224l288 262z" />
    <glyph glyph-name="racute" unicode="&#x155;" horiz-adv-x="851" 
d="M795 1083q-12 2 -41 2q-214 0 -322 -202l-317 184v-1067h315v414q0 175 86 262.5t227 87.5q40 0 52 -6v325zM537 1616l-205 -354h223l289 262z" />
    <glyph glyph-name="uni0156" unicode="&#x156;" horiz-adv-x="1349" 
d="M133 0h326v494h178l340 -494h377l-385 541q155 48 242 159t87 273q0 213 -147 339t-416 126h-602v-1438zM459 748v407h256q124 0 191 -50t67 -151q0 -99 -72 -152.5t-196 -53.5h-246zM625 -561l125 434h-228l-76 -434h179z" />
    <glyph glyph-name="uni0157" unicode="&#x157;" horiz-adv-x="802" 
d="M795 1083q-12 2 -41 2q-214 0 -322 -202l-317 184v-1067h315v414q0 175 86 262.5t227 87.5q40 0 52 -6v325zM199 -561l125 434h-228l-76 -434h179z" />
    <glyph glyph-name="Rcaron" unicode="&#x158;" horiz-adv-x="1349" 
d="M133 0h326v494h178l340 -494h377l-385 541q155 48 242 159t87 273q0 213 -147 339t-416 126h-602v-1438zM459 748v407h256q124 0 191 -50t67 -151q0 -99 -72 -152.5t-196 -53.5h-246zM1028 1933h-235l-129 -145l-134 145h-239l276 -354h187z" />
    <glyph glyph-name="rcaron" unicode="&#x159;" horiz-adv-x="802" 
d="M795 1083q-12 2 -41 2q-214 0 -322 -202l-317 184v-1067h315v414q0 175 86 262.5t227 87.5q40 0 52 -6v325zM825 1573h-235l-129 -146l-133 146h-240l277 -354h186z" />
    <glyph glyph-name="Sacute" unicode="&#x15a;" horiz-adv-x="1263" 
d="M868 385q0 -41 -21.5 -70.5t-58 -43.5t-71.5 -19.5t-74 -5.5q-150 0 -310 66t-288 180v-302q118 -110 272.5 -162.5t325.5 -52.5q113 0 210.5 25.5t174 75.5t120.5 131.5t44 185.5q0 86 -26 156.5t-70.5 118t-101.5 85t-120.5 62.5t-127 46.5t-120.5 41.5t-101.5 41.5
t-70.5 52.5t-26 70q0 59 55 95t158 36q122 0 254 -57.5t233 -155.5v311q-202 166 -510 166q-102 0 -194 -26.5t-165 -77t-116 -132t-43 -182.5t42.5 -179t110 -125t149.5 -83t164 -62.5t149.5 -53.5t110 -66t42.5 -90zM715 1933l-205 -354h223l289 262z" />
    <glyph glyph-name="sacute" unicode="&#x15b;" horiz-adv-x="942" 
d="M590 297q0 -47 -45.5 -69.5t-98.5 -22.5q-86 0 -193.5 42.5t-195.5 106.5v-270q114 -53 206.5 -80t199.5 -27q189 0 302.5 92t113.5 246q0 73 -30 131t-78 93.5t-105.5 63t-115.5 47.5t-106 38.5t-78 43.5t-30 56q0 32 28 53t80 21q71 0 169.5 -35.5t179.5 -87.5v271
q-92 43 -171 61.5t-176 18.5q-180 0 -289.5 -87t-109.5 -237q0 -74 30 -131.5t78 -92.5t105.5 -61.5t115.5 -45.5t106 -37t78 -43t30 -58zM526 1616l-204 -354h223l289 262z" />
    <glyph glyph-name="Scircumflex" unicode="&#x15c;" horiz-adv-x="1263" 
d="M868 385q0 -41 -21.5 -70.5t-58 -43.5t-71.5 -19.5t-74 -5.5q-150 0 -310 66t-288 180v-302q118 -110 272.5 -162.5t325.5 -52.5q113 0 210.5 25.5t174 75.5t120.5 131.5t44 185.5q0 86 -26 156.5t-70.5 118t-101.5 85t-120.5 62.5t-127 46.5t-120.5 41.5t-101.5 41.5
t-70.5 52.5t-26 70q0 59 55 95t158 36q122 0 254 -57.5t233 -155.5v311q-202 166 -510 166q-102 0 -194 -26.5t-165 -77t-116 -132t-43 -182.5t42.5 -179t110 -125t149.5 -83t164 -62.5t149.5 -53.5t110 -66t42.5 -90zM993 1602l-264 350h-184l-264 -350h223l133 139
l133 -139h223z" />
    <glyph glyph-name="scircumflex" unicode="&#x15d;" horiz-adv-x="942" 
d="M590 297q0 -47 -45.5 -69.5t-98.5 -22.5q-86 0 -193.5 42.5t-195.5 106.5v-270q114 -53 206.5 -80t199.5 -27q189 0 302.5 92t113.5 246q0 73 -30 131t-78 93.5t-105.5 63t-115.5 47.5t-106 38.5t-78 43.5t-30 56q0 32 28 53t80 21q71 0 169.5 -35.5t179.5 -87.5v271
q-92 43 -171 61.5t-176 18.5q-180 0 -289.5 -87t-109.5 -237q0 -74 30 -131.5t78 -92.5t105.5 -61.5t115.5 -45.5t106 -37t78 -43t30 -58zM793 1264l-265 350h-184l-264 -350h223l133 139l133 -139h224z" />
    <glyph glyph-name="Scedilla" unicode="&#x15e;" horiz-adv-x="1261" 
d="M868 385q0 -41 -21.5 -70.5t-58 -43.5t-71.5 -19.5t-74 -5.5q-150 0 -310 66t-288 180v-302q118 -110 272.5 -162.5t325.5 -52.5q113 0 210.5 25.5t174 75.5t120.5 131.5t44 185.5q0 86 -26 156.5t-70.5 118t-101.5 85t-120.5 62.5t-127 46.5t-120.5 41.5t-101.5 41.5
t-70.5 52.5t-26 70q0 59 55 95t158 36q122 0 254 -57.5t233 -155.5v311q-202 166 -510 166q-102 0 -194 -26.5t-165 -77t-116 -132t-43 -182.5t42.5 -179t110 -125t149.5 -83t164 -62.5t149.5 -53.5t110 -66t42.5 -90zM623 -141l86 141h-140l-137 -211l53 -43q47 18 84 18
t58.5 -14.5t21.5 -40.5q0 -36 -38 -53.5t-79 -17.5q-62 0 -131 28l-43 -104q104 -49 205 -49q44 0 86 10t81 31t63 59.5t24 89.5q0 77 -55 116.5t-125 39.5h-14z" />
    <glyph glyph-name="scedilla" unicode="&#x15f;" horiz-adv-x="942" 
d="M590 297q0 -47 -45.5 -69.5t-98.5 -22.5q-86 0 -193.5 42.5t-195.5 106.5v-270q114 -53 206.5 -80t199.5 -27q189 0 302.5 92t113.5 246q0 73 -30 131t-78 93.5t-105.5 63t-115.5 47.5t-106 38.5t-78 43.5t-30 56q0 32 28 53t80 21q71 0 169.5 -35.5t179.5 -87.5v271
q-92 43 -171 61.5t-176 18.5q-180 0 -289.5 -87t-109.5 -237q0 -74 30 -131.5t78 -92.5t105.5 -61.5t115.5 -45.5t106 -37t78 -43t30 -58zM451 -141l86 141h-140l-137 -211l53 -43q46 18 84 18q37 0 58.5 -14.5t21.5 -40.5q0 -36 -38 -53.5t-79 -17.5q-62 0 -131 28
l-43 -104q104 -49 205 -49q44 0 86 10t81 31t63 59.5t24 89.5q0 77 -55 116.5t-125 39.5h-14z" />
    <glyph glyph-name="Scaron" unicode="&#x160;" horiz-adv-x="1263" 
d="M868 385q0 -41 -21.5 -70.5t-58 -43.5t-71.5 -19.5t-74 -5.5q-150 0 -310 66t-288 180v-302q118 -110 272.5 -162.5t325.5 -52.5q113 0 210.5 25.5t174 75.5t120.5 131.5t44 185.5q0 86 -26 156.5t-70.5 118t-101.5 85t-120.5 62.5t-127 46.5t-120.5 41.5t-101.5 41.5
t-70.5 52.5t-26 70q0 59 55 95t158 36q122 0 254 -57.5t233 -155.5v311q-202 166 -510 166q-102 0 -194 -26.5t-165 -77t-116 -132t-43 -182.5t42.5 -179t110 -125t149.5 -83t164 -62.5t149.5 -53.5t110 -66t42.5 -90zM1001 1933h-235l-129 -145l-133 145h-240l277 -354h186
z" />
    <glyph glyph-name="scaron" unicode="&#x161;" horiz-adv-x="942" 
d="M590 297q0 -47 -45.5 -69.5t-98.5 -22.5q-86 0 -193.5 42.5t-195.5 106.5v-270q114 -53 206.5 -80t199.5 -27q189 0 302.5 92t113.5 246q0 73 -30 131t-78 93.5t-105.5 63t-115.5 47.5t-106 38.5t-78 43.5t-30 56q0 32 28 53t80 21q71 0 169.5 -35.5t179.5 -87.5v271
q-92 43 -171 61.5t-176 18.5q-180 0 -289.5 -87t-109.5 -237q0 -74 30 -131.5t78 -92.5t105.5 -61.5t115.5 -45.5t106 -37t78 -43t30 -58zM840 1595h-236l-129 -145l-133 145h-240l277 -354h186z" />
    <glyph glyph-name="uni0162" unicode="&#x162;" horiz-adv-x="1224" 
d="M772 0v1153h430v285h-1182v-285h431v-1153h321zM610 -141l86 141h-139l-137 -211l53 -43q47 18 84 18t58.5 -14.5t21.5 -40.5q0 -36 -38 -53.5t-79 -17.5q-62 0 -131 28l-43 -104q104 -49 205 -49q44 0 86 10t81 31t63 59.5t24 89.5q0 77 -55 116.5t-125 39.5h-15z" />
    <glyph glyph-name="uni0163" unicode="&#x163;" horiz-adv-x="831" 
d="M233 311q0 -164 86 -249t240 -85q127 0 213 50v249q-72 -30 -125 -30q-100 0 -100 110v455h260v256h-260v342l-522 -598h208v-500zM541 -141l86 141h-140l-137 -211l53 -43q47 18 84 18t58.5 -14.5t21.5 -40.5q0 -36 -37.5 -53.5t-78.5 -17.5q-63 0 -132 28l-43 -104
q104 -49 205 -49q44 0 86 10t81 31t63 59.5t24 89.5q0 77 -55 116.5t-125 39.5h-14z" />
    <glyph glyph-name="Tcaron" unicode="&#x164;" horiz-adv-x="1224" 
d="M772 0v1153h430v285h-1182v-285h431v-1153h321zM979 1933h-236l-129 -145l-133 145h-239l276 -354h187z" />
    <glyph glyph-name="tcaron" unicode="&#x165;" horiz-adv-x="831" 
d="M233 311q0 -164 86 -249t240 -85q127 0 213 50v249q-72 -30 -125 -30q-100 0 -100 110v455h260v256h-260v342l-522 -598h208v-500zM805 1204l125 434h-228l-75 -434h178z" />
    <glyph glyph-name="Tbar" unicode="&#x166;" horiz-adv-x="1224" 
d="M772 0v1153h430v285h-1182v-285h431v-1153h321zM967 655v199h-711v-199h711z" />
    <glyph glyph-name="tbar" unicode="&#x167;" horiz-adv-x="831" 
d="M233 311q0 -164 86 -249t240 -85q127 0 213 50v249q-72 -30 -125 -30q-100 0 -100 110v455h260v256h-260v342l-522 -598h208v-500zM778 483v199h-719v-199h719z" />
    <glyph glyph-name="Utilde" unicode="&#x168;" horiz-adv-x="1513" 
d="M119 612q0 -313 166 -477t469 -164t470 165t167 487v815h-326v-826q0 -175 -80 -261.5t-229 -86.5q-151 0 -230.5 92t-79.5 265v817h-327v-826zM578 1556q17 53 37 75t49 22q30 0 110 -37t131 -37q161 0 236 268l-174 33q-13 -49 -31 -70.5t-45 -21.5q-25 0 -108.5 37
t-137.5 37q-171 0 -246 -273z" />
    <glyph glyph-name="utilde" unicode="&#x169;" horiz-adv-x="1226" 
d="M106 379q0 -186 94.5 -294t276.5 -108q209 0 328 150l317 -143v1085h-315v-592q0 -109 -58 -165t-141 -56q-82 0 -134 55.5t-52 165.5v592h-316v-690zM430 1219q17 53 37 74.5t49 21.5q30 0 111 -37t131 -37q160 0 235 268l-174 33q-13 -49 -31 -70.5t-45 -21.5
q-25 0 -108 37t-137 37q-171 0 -246 -273z" />
    <glyph glyph-name="Umacron" unicode="&#x16a;" horiz-adv-x="1513" 
d="M119 612q0 -313 166 -477t469 -164t470 165t167 487v815h-326v-826q0 -175 -80 -261.5t-229 -86.5q-151 0 -230.5 92t-79.5 265v817h-327v-826zM1120 1546v199h-710v-199h710z" />
    <glyph glyph-name="umacron" unicode="&#x16b;" horiz-adv-x="1226" 
d="M106 379q0 -186 94.5 -294t276.5 -108q209 0 328 150l317 -143v1085h-315v-592q0 -109 -58 -165t-141 -56q-82 0 -134 55.5t-52 165.5v592h-316v-690zM979 1208v199h-711v-199h711z" />
    <glyph glyph-name="Ubreve" unicode="&#x16c;" horiz-adv-x="1513" 
d="M119 612q0 -313 166 -477t469 -164t470 165t167 487v815h-326v-826q0 -175 -80 -261.5t-229 -86.5q-151 0 -230.5 92t-79.5 265v817h-327v-826zM913 1878q-19 -68 -58 -104.5t-93 -36.5q-56 0 -97.5 37t-60.5 104h-180q14 -154 105.5 -250t226.5 -96q137 0 230.5 96
t105.5 250h-179z" />
    <glyph glyph-name="ubreve" unicode="&#x16d;" horiz-adv-x="1226" 
d="M106 379q0 -186 94.5 -294t276.5 -108q209 0 328 150l317 -143v1085h-315v-592q0 -109 -58 -165t-141 -56q-82 0 -134 55.5t-52 165.5v592h-316v-690zM768 1540q-19 -67 -58.5 -104t-93.5 -37q-56 0 -97 37t-60 104h-180q14 -154 105 -250t226 -96q137 0 230.5 96
t105.5 250h-178z" />
    <glyph glyph-name="Uring" unicode="&#x16e;" horiz-adv-x="1513" 
d="M119 612q0 -313 166 -477t469 -164t470 165t167 487v815h-326v-826q0 -175 -80 -261.5t-229 -86.5q-151 0 -230.5 92t-79.5 265v817h-327v-826zM758 1563q100 0 169.5 66.5t69.5 164.5q0 97 -70.5 165.5t-168.5 68.5q-95 0 -165.5 -68.5t-70.5 -165.5t70.5 -164
t165.5 -67zM760 1866q31 0 51 -20.5t20 -51.5t-19.5 -50.5t-51.5 -19.5q-31 0 -51.5 19.5t-20.5 52.5q0 28 21 49t51 21z" />
    <glyph glyph-name="uring" unicode="&#x16f;" horiz-adv-x="1226" 
d="M106 379q0 -186 94.5 -294t276.5 -108q209 0 328 150l317 -143v1085h-315v-592q0 -109 -58 -165t-141 -56q-82 0 -134 55.5t-52 165.5v592h-316v-690zM612 1190q100 0 170 66.5t70 164.5q0 97 -71 165.5t-169 68.5q-95 0 -165 -68.5t-70 -165.5t70 -164t165 -67z
M614 1493q31 0 51.5 -20.5t20.5 -51.5t-20 -50t-52 -19q-31 0 -51 19t-20 52q0 28 20.5 49t50.5 21z" />
    <glyph glyph-name="Uhungarumlaut" unicode="&#x170;" horiz-adv-x="1513" 
d="M119 612q0 -313 166 -477t469 -164t470 165t167 487v815h-326v-826q0 -175 -80 -261.5t-229 -86.5q-151 0 -230.5 92t-79.5 265v817h-327v-826zM633 1571l301 319l-270 49l-252 -368h221zM1053 1571l303 319l-273 49l-249 -368h219z" />
    <glyph glyph-name="uhungarumlaut" unicode="&#x171;" horiz-adv-x="1327" 
d="M106 379q0 -186 94.5 -294t276.5 -108q209 0 328 150l317 -143v1085h-315v-592q0 -109 -58 -165t-141 -56q-82 0 -134 55.5t-52 165.5v592h-316v-690zM500 1233l301 319l-271 50l-251 -369h221zM920 1233l303 319l-273 50l-250 -369h220z" />
    <glyph glyph-name="Uogonek" unicode="&#x172;" horiz-adv-x="1513" 
d="M119 612q0 -313 166 -477t469 -164t470 165t167 487v815h-326v-826q0 -175 -80 -261.5t-229 -86.5q-151 0 -230.5 92t-79.5 265v817h-327v-826zM944 -256q-72 -27 -106 -27q-36 0 -59 19.5t-23 52.5q0 61 118 211h-212q-55 -66 -87 -124t-32 -122q0 -98 70 -155.5
t180 -57.5q99 0 188 47z" />
    <glyph glyph-name="uogonek" unicode="&#x173;" horiz-adv-x="1226" 
d="M106 379q0 -186 94.5 -294t276.5 -108q209 0 328 150l317 -143v1085h-315v-592q0 -109 -58 -165t-141 -56q-82 0 -134 55.5t-52 165.5v592h-316v-690zM1192 -256q-72 -27 -107 -27q-37 0 -59 20t-22 54q0 65 118 193l-159 77q-91 -99 -131.5 -167.5t-40.5 -137.5
q0 -98 70 -156.5t179 -58.5q100 0 189 47z" />
    <glyph glyph-name="Wcircumflex" unicode="&#x174;" horiz-adv-x="2154" 
d="M637 489l-297 949h-342l481 -1444h287l309 946l316 -946h284l479 1444h-333l-293 -949l-305 951h-283zM1432 1602l-265 350h-184l-264 -350h223l133 139l133 -139h224z" />
    <glyph glyph-name="wcircumflex" unicode="&#x175;" horiz-adv-x="1613" 
d="M297 1067h-311l338 -1073h276l205 653l205 -653h278l340 1073h-309l-180 -635l-195 639h-272l-193 -637zM1161 1264l-264 350h-184l-264 -350h223l133 139l133 -139h223z" />
    <glyph glyph-name="Ycircumflex" unicode="&#x176;" horiz-adv-x="1396" 
d="M860 0v553l549 885h-362l-345 -586l-344 586h-368l547 -889v-549h323zM1061 1602l-264 350h-185l-264 -350h223l134 139l133 -139h223z" />
    <glyph glyph-name="ycircumflex" unicode="&#x177;" horiz-adv-x="1138" 
d="M-10 1067l459 -1075l-117 -338h272l543 1413h-324l-241 -733l-260 733h-332zM936 1264l-264 350h-185l-264 -350h223l134 139l133 -139h223z" />
    <glyph glyph-name="Ydieresis" unicode="&#x178;" horiz-adv-x="1396" 
d="M860 0v553l549 885h-362l-345 -586l-344 586h-368l547 -889v-549h323zM483 1937q-72 0 -116.5 -42t-44.5 -113q0 -72 45.5 -115t115.5 -43q68 0 114 43t46 115q0 71 -46 113t-114 42zM922 1937q-71 0 -115.5 -42.5t-44.5 -112.5q0 -72 45.5 -115t114.5 -43q70 0 114.5 43
t44.5 115t-44 113.5t-115 41.5z" />
    <glyph glyph-name="Zacute" unicode="&#x179;" horiz-adv-x="1290" 
d="M444 274l818 920v244h-1223v-277h786l-821 -919v-242h1243v274h-803zM743 1933l-204 -354h223l289 262z" />
    <glyph glyph-name="zacute" unicode="&#x17a;" horiz-adv-x="1075" 
d="M438 254l594 596v217h-977v-252h568l-594 -598v-217h999v254h-590zM641 1616l-205 -354h223l289 262z" />
    <glyph glyph-name="Zdotaccent" unicode="&#x17b;" horiz-adv-x="1290" 
d="M444 274l818 920v244h-1223v-277h786l-821 -919v-242h1243v274h-803zM662 1903q-81 0 -134 -45.5t-53 -126.5q0 -79 53 -125.5t134 -46.5q82 0 135 46t53 126q0 82 -52.5 127t-135.5 45z" />
    <glyph glyph-name="zdotaccent" unicode="&#x17c;" horiz-adv-x="1075" 
d="M438 254l594 596v217h-977v-252h568l-594 -598v-217h999v254h-590zM555 1565q-81 0 -133.5 -45.5t-52.5 -126.5q0 -80 52.5 -126t133.5 -46q82 0 135 46t53 126q0 82 -52.5 127t-135.5 45z" />
    <glyph glyph-name="Zcaron" unicode="&#x17d;" horiz-adv-x="1290" 
d="M444 274l818 920v244h-1223v-277h786l-821 -919v-242h1243v274h-803zM1044 1933h-235l-129 -145l-133 145h-240l277 -354h186z" />
    <glyph glyph-name="zcaron" unicode="&#x17e;" horiz-adv-x="1075" 
d="M438 254l594 596v217h-977v-252h568l-594 -598v-217h999v254h-590zM922 1573h-236l-129 -146l-133 146h-240l277 -354h186z" />
    <glyph glyph-name="florin" unicode="&#x192;" horiz-adv-x="892" 
d="M162 702l-195 -995h314l196 995h219l49 244h-223l29 127q20 100 62 141t120 41q46 0 82 -10l45 234q-83 22 -188 22q-173 0 -277.5 -85t-144.5 -273l-45 -197h-133l-52 -244h142z" />
    <glyph glyph-name="uni01CD" unicode="&#x1cd;" horiz-adv-x="1509" 
d="M453 305h596l127 -305h348l-619 1444h-303l-616 -1444h340zM553 563l199 500l198 -500h-397zM1124 1942h-235l-129 -146l-133 146h-240l277 -355h186z" />
    <glyph glyph-name="uni01CE" unicode="&#x1ce;" horiz-adv-x="1208" 
d="M780 272q-91 -88 -217 -88q-80 0 -135 43t-55 115q0 73 61 116.5t154 43.5q111 0 192 -45v-185zM1090 635q0 221 -133 335.5t-386 114.5q-203 0 -421 -86v-235q170 76 352 76q278 0 278 -193v-24q-118 51 -282 51q-92 0 -169.5 -20t-137.5 -60.5t-94 -107.5t-34 -154
q0 -110 55 -192.5t142.5 -123.5t192.5 -41q192 0 325 136l312 -127v651zM973 1573h-236l-129 -146l-133 146h-239l276 -354h186z" />
    <glyph glyph-name="Aringacute" unicode="&#x1fa;" horiz-adv-x="1495" 
d="M752 1403q-31 0 -51.5 20.5t-20.5 51.5q0 30 20.5 49.5t53.5 19.5q29 0 49 -20t20 -49q0 -32 -20 -52t-51 -20zM-14 0h340l104 244h629l104 -244h346l-602 1307q80 66 80 166q0 97 -70.5 165t-168.5 68q-95 0 -165.5 -68t-70.5 -165q0 -99 76 -166zM948 502h-407l202 475
zM850 2107l-205 -354h223l289 262z" />
    <glyph glyph-name="Aringacute" unicode="&#x1fb;" horiz-adv-x="1495" 
d="M752 1403q-31 0 -51.5 20.5t-20.5 51.5q0 30 20.5 49.5t53.5 19.5q29 0 49 -20t20 -49q0 -32 -20 -52t-51 -20zM-14 0h340l104 244h629l104 -244h346l-602 1307q80 66 80 166q0 97 -70.5 165t-168.5 68q-95 0 -165.5 -68t-70.5 -165q0 -99 76 -166zM948 502h-407l202 475
zM850 2107l-205 -354h223l289 262z" />
    <glyph glyph-name="AEacute" unicode="&#x1fc;" horiz-adv-x="2007" 
d="M690 1438l-704 -1438h340l163 305h429v-305h1099v276h-778v320h696v260h-696v303h764v279h-1313zM918 563h-320l320 643v-643zM1239 1933l-205 -354h223l289 262z" />
    <glyph glyph-name="aeacute" unicode="&#x1fd;" horiz-adv-x="1925" 
d="M1759 350q-71 -67 -184.5 -106t-218.5 -39q-159 0 -236 117l742 188q-4 116 -40.5 219t-101 183t-164.5 126.5t-221 46.5q-218 0 -362 -141q-63 70 -171.5 105.5t-242.5 35.5q-213 0 -416 -86v-235q168 76 351 76q139 0 209.5 -46.5t70.5 -146.5v-24q-118 51 -285 51
q-86 0 -161 -19.5t-137 -59t-98 -108.5t-36 -159q0 -109 61 -190.5t158 -122t213 -40.5q270 0 472 146q149 -152 395 -152q226 0 403 119v262zM774 272q-91 -88 -217 -88q-80 0 -136 43t-56 115q0 73 62 116.5t155 43.5q107 0 192 -45v-185zM1094 541q-3 76 20 143.5
t77.5 114.5t131.5 47q86 0 145.5 -52t81.5 -143zM1057 1595l-205 -354h223l289 262z" />
    <glyph glyph-name="Oslashacute" unicode="&#x1fe;" horiz-adv-x="1685" 
d="M231 -68l201 -110l131 219q130 -70 279 -70q161 0 304 59.5t244 161t159.5 240t58.5 291.5q0 169 -70 314t-199 249l117 182l-199 111l-118 -186q-140 73 -295 73q-162 0 -305 -59t-243.5 -160t-159 -239t-58.5 -291q0 -176 73.5 -324.5t206.5 -251.5zM512 420
q-102 125 -102 303q0 123 53.5 226t152 164t220.5 61q85 0 155 -46zM1184 1001q92 -125 92 -284q0 -124 -52.5 -227t-150.5 -164.5t-221 -61.5q-79 0 -141 43zM977 1933l-205 -354h223l289 262z" />
    <glyph glyph-name="oslashacute" unicode="&#x1ff;" horiz-adv-x="1312" 
d="M909 674q35 -65 35 -144q0 -129 -79 -216t-206 -87q-72 0 -131 35zM412 385q-35 60 -35 145q0 128 78 214.5t204 86.5q84 0 134 -36zM53 -4l125 -119l168 184q139 -88 313 -88q124 0 232.5 44t185 118.5t120.5 177.5t44 217q0 208 -131 361l135 149l-127 123l-143 -164
q-128 86 -313 86q-123 0 -231.5 -44t-184.5 -118.5t-120 -176.5t-44 -216q0 -207 131 -360zM772 1595l-205 -354h224l288 262z" />
    <glyph glyph-name="uni0218" unicode="&#x218;" horiz-adv-x="1318" 
d="M928 385q0 -41 -22 -70.5t-58.5 -43.5t-71.5 -19.5t-74 -5.5q-150 0 -310 66t-288 180v-302q118 -110 272.5 -162.5t325.5 -52.5q113 0 210.5 25.5t174 75.5t120.5 131.5t44 185.5q0 86 -26 156.5t-70.5 118t-101.5 85t-120.5 62.5t-127 46.5t-120.5 41.5t-101.5 41.5
t-70.5 52.5t-26 70q0 59 55 95t158 36q122 0 254.5 -57.5t233.5 -155.5v311q-202 166 -510 166q-102 0 -194 -26.5t-165 -77t-116 -132t-43 -182.5t42.5 -179t110 -125t149.5 -83t164 -62.5t149.5 -53.5t110 -66t42.5 -90zM575 -561l125 434h-227l-76 -434h178z" />
    <glyph glyph-name="uni0219" unicode="&#x219;" horiz-adv-x="978" 
d="M645 297q0 -47 -45 -69.5t-98 -22.5q-86 0 -193.5 42.5t-195.5 106.5v-270q115 -53 206.5 -80t198.5 -27q189 0 302.5 92t113.5 246q0 73 -30 131t-78 93.5t-106 63t-115.5 47.5t-105.5 38.5t-78 43.5t-30 56q0 32 28.5 53t80.5 21q71 0 168.5 -35.5t179.5 -87.5v271
q-92 43 -170.5 61.5t-175.5 18.5q-180 0 -290 -87t-110 -237q0 -74 30 -131.5t78 -92.5t105.5 -61.5t115.5 -45.5t106 -37t78 -43t30 -58zM401 -561l125 434h-227l-76 -434h178z" />
    <glyph glyph-name="uni021A" unicode="&#x21a;" horiz-adv-x="1224" 
d="M772 0v1153h430v285h-1182v-285h431v-1153h321zM535 -561l124 434h-227l-76 -434h179z" />
    <glyph glyph-name="uni021B" unicode="&#x21b;" horiz-adv-x="831" 
d="M233 311q0 -164 86 -249t240 -85q127 0 213 50v249q-72 -30 -125 -30q-100 0 -100 110v455h260v256h-260v342l-522 -598h208v-500zM428 -561l125 434h-227l-76 -434h178z" />
    <glyph glyph-name="uni0237" unicode="&#x237;" horiz-adv-x="514" 
d="M-49 -340q72 -14 141 -14q176 0 258 88t82 274v1059h-313v-1065q0 -129 -94 -129q-33 0 -74 14v-227z" />
    <glyph glyph-name="circumflex" unicode="&#x2c6;" horiz-adv-x="737" 
d="M725 1264l-264 350h-185l-264 -350h224l133 139l133 -139h223z" />
    <glyph glyph-name="caron" unicode="&#x2c7;" horiz-adv-x="745" 
d="M741 1595h-235l-129 -145l-133 145h-240l277 -354h186z" />
    <glyph glyph-name="uni02C9" unicode="&#x2c9;" horiz-adv-x="860" 
d="M786 1208v199h-710v-199h710z" />
    <glyph glyph-name="breve" unicode="&#x2d8;" horiz-adv-x="696" 
d="M504 1540q-19 -67 -58.5 -104t-93.5 -37q-56 0 -97 37t-60 104h-181q14 -154 105.5 -250t226.5 -96q137 0 230.5 96t105.5 250h-178z" />
    <glyph glyph-name="dotaccent" unicode="&#x2d9;" horiz-adv-x="466" 
d="M231 1565q-81 0 -133.5 -45.5t-52.5 -126.5q0 -80 52.5 -126t133.5 -46q82 0 135.5 46t53.5 126q0 82 -53 127t-136 45z" />
    <glyph glyph-name="ring" unicode="&#x2da;" horiz-adv-x="581" 
d="M289 1225q100 0 169.5 66.5t69.5 164.5q0 97 -70.5 165.5t-168.5 68.5q-95 0 -165.5 -68.5t-70.5 -165.5t70.5 -164t165.5 -67zM291 1528q31 0 51 -20.5t20 -51.5t-19.5 -50.5t-51.5 -19.5q-31 0 -51.5 19.5t-20.5 52.5q0 28 21 49t51 21z" />
    <glyph glyph-name="ogonek" unicode="&#x2db;" horiz-adv-x="798" 
d="M578 -256q-72 -27 -107 -27q-36 0 -59 19.5t-23 52.5q0 60 119 211h-213q-55 -66 -87 -124t-32 -122q0 -98 70 -155.5t180 -57.5q99 0 188 47z" />
    <glyph glyph-name="tilde" unicode="&#x2dc;" horiz-adv-x="768" 
d="M190 1219q17 53 37 74.5t49 21.5q30 0 111 -37t131 -37q161 0 236 268l-174 33q-13 -49 -31 -70.5t-45 -21.5q-25 0 -108.5 37t-137.5 37q-171 0 -246 -273z" />
    <glyph glyph-name="hungarumlaut" unicode="&#x2dd;" horiz-adv-x="905" 
d="M211 1233l301 319l-270 50l-252 -369h221zM631 1233l303 319l-272 50l-250 -369h219z" />
    <glyph glyph-name="gravecomb" unicode="&#x300;" 
d="M-6 1524l287 -262h227l-207 354z" />
    <glyph glyph-name="acutecomb" unicode="&#x301;" 
d="M227 1616l-204 -354h223l289 262z" />
    <glyph glyph-name="uni0302" unicode="&#x302;" 
d="M725 1264l-264 350h-185l-264 -350h224l133 139l133 -139h223z" />
    <glyph glyph-name="tildecomb" unicode="&#x303;" 
d="M190 1219q17 53 37 74.5t49 21.5q30 0 111 -37t131 -37q161 0 236 268l-174 33q-13 -49 -31 -70.5t-45 -21.5q-25 0 -108.5 37t-137.5 37q-171 0 -246 -273z" />
    <glyph glyph-name="uni0304" unicode="&#x304;" 
d="M786 1208v199h-710v-199h710z" />
    <glyph glyph-name="uni0306" unicode="&#x306;" 
d="M504 1540q-19 -67 -58.5 -104t-93.5 -37q-56 0 -97 37t-60 104h-181q14 -154 105.5 -250t226.5 -96q137 0 230.5 96t105.5 250h-178z" />
    <glyph glyph-name="uni0307" unicode="&#x307;" 
d="M231 1565q-81 0 -133.5 -45.5t-52.5 -126.5q0 -80 52.5 -126t133.5 -46q82 0 135.5 46t53.5 126q0 82 -53 127t-136 45z" />
    <glyph glyph-name="uni0308" unicode="&#x308;" 
d="M176 1593q-68 0 -112 -42.5t-44 -110.5q0 -70 44 -112t112 -42q67 0 112.5 42t45.5 112q0 69 -46 111t-112 42zM610 1593q-68 0 -111.5 -42.5t-43.5 -110.5q0 -71 43.5 -112.5t111.5 -41.5t112 42t44 112q0 69 -44.5 111t-111.5 42z" />
    <glyph glyph-name="uni030A" unicode="&#x30a;" 
d="M289 1225q100 0 169.5 66.5t69.5 164.5q0 97 -70.5 165.5t-168.5 68.5q-95 0 -165.5 -68.5t-70.5 -165.5t70.5 -164t165.5 -67zM291 1528q31 0 51 -20.5t20 -51.5t-19.5 -50.5t-51.5 -19.5q-31 0 -51.5 19.5t-20.5 52.5q0 28 21 49t51 21z" />
    <glyph glyph-name="uni030B" unicode="&#x30b;" 
d="M211 1233l301 319l-270 50l-252 -369h221zM631 1233l303 319l-272 50l-250 -369h219z" />
    <glyph glyph-name="uni030C" unicode="&#x30c;" 
d="M741 1573h-235l-129 -146l-133 146h-240l277 -354h186z" />
    <glyph glyph-name="uni030F" unicode="&#x30f;" 
d="M-6 1524l287 -262h227l-207 354zM424 1524l287 -262h227l-207 354z" />
    <glyph glyph-name="uni0311" unicode="&#x311;" 
d="M193 1192q19 68 58 104.5t93 36.5q56 0 97.5 -37t60.5 -104h180q-14 154 -105.5 250t-226.5 96q-137 0 -230.5 -96t-105.5 -250h179z" />
    <glyph glyph-name="uni0312" unicode="&#x312;" 
d="M270 1812l-192 -669h301l115 669h-224z" />
    <glyph glyph-name="uni0326" unicode="&#x326;" 
d="M293 -520l125 434h-228l-75 -434h178z" />
    <glyph glyph-name="uni0327" unicode="&#x327;" 
d="M383 -141l86 141h-139l-137 -211l53 -43q47 18 84 18t58.5 -14.5t21.5 -40.5q0 -36 -38 -53.5t-79 -17.5q-62 0 -131 28l-43 -104q104 -49 205 -49q44 0 86 10t81 31t63 59.5t24 89.5q0 77 -55 116.5t-126 39.5h-14z" />
    <glyph glyph-name="uni0328" unicode="&#x328;" 
d="M578 -256q-72 -27 -107 -27q-36 0 -59 19.5t-23 52.5q0 60 119 211h-213q-55 -66 -87 -124t-32 -122q0 -98 70 -155.5t180 -57.5q99 0 188 47z" />
    <glyph glyph-name="uni0374" unicode="&#x374;" horiz-adv-x="956" 
d="M387 1700l-205 -479h224l385 479h-404z" />
    <glyph glyph-name="uni0375" unicode="&#x375;" horiz-adv-x="956" 
d="M565 -420l205 479h-223l-385 -479h403z" />
    <glyph glyph-name="uni037E" unicode="&#x37e;" horiz-adv-x="579" 
d="M281 1090q-88 0 -141.5 -52t-53.5 -139q0 -90 54 -141t141 -51q85 0 139.5 51t54.5 141q0 88 -55 139.5t-139 51.5zM258 -319l193 669h-304l-114 -669h225z" />
    <glyph glyph-name="tonos" unicode="&#x384;" horiz-adv-x="956" 
d="M387 1700l-205 -354h224l385 354h-404z" />
    <glyph glyph-name="dieresistonos" unicode="&#x385;" horiz-adv-x="1191" 
d="M233 1618q-60 0 -102.5 -41.5t-42.5 -101.5q0 -63 42.5 -104.5t102.5 -41.5q58 0 103 42t45 104q0 61 -45 102t-103 41zM530 1688l-143 -355h203l303 355h-363zM819 1479q0 -59 41.5 -102.5t100.5 -43.5q64 0 104.5 43t40.5 103q0 58 -40.5 101.5t-104.5 43.5
q-61 0 -101.5 -43.5t-40.5 -101.5z" />
    <glyph glyph-name="Alphatonos" unicode="&#x386;" horiz-adv-x="1605" 
d="M549 305h596l127 -305h348l-619 1444h-303l-616 -1444h340zM649 563l199 500l199 -500h-398zM147 1597l-204 -354h223l385 354h-404z" />
    <glyph glyph-name="anoteleia" unicode="&#x387;" horiz-adv-x="675" 
d="M336 909q-87 0 -140 -50.5t-53 -137.5q0 -89 54 -141t139 -52t139.5 52t54.5 141q0 88 -54 138t-140 50z" />
    <glyph glyph-name="Epsilontonos" unicode="&#x388;" horiz-adv-x="1492" 
d="M604 276v320h694v260h-694v303h762v279h-1083v-1438h1097v276h-776zM-104 1597l-205 -354h223l385 354h-403z" />
    <glyph glyph-name="Etatonos" unicode="&#x389;" horiz-adv-x="1675" 
d="M295 1438v-1438h323v582h601v-582h321v1438h-321v-568h-601v568h-323zM-104 1597l-205 -354h223l385 354h-403z" />
    <glyph glyph-name="Iotatonos" unicode="&#x38a;" horiz-adv-x="589" 
d="M457 0v1438h-324v-1438h324zM-205 1597l-205 -354h224l385 354h-404z" />
    <glyph glyph-name="Omicrontonos" unicode="&#x38c;" horiz-adv-x="1724" 
d="M872 -29q158 0 300 58.5t244 158.5t162 239.5t60 295.5q0 202 -98 372t-273.5 270.5t-389.5 100.5q-162 0 -305 -59t-243.5 -160t-159 -239t-58.5 -291t57.5 -290t157.5 -237.5t242 -159.5t304 -59zM874 1174q125 0 225.5 -63.5t154 -167.5t53.5 -226q0 -123 -54 -226.5
t-154 -166t-225 -62.5q-188 0 -311 135t-123 326q0 188 122 319.5t312 131.5zM18 1597l-204 -354h223l385 354h-404z" />
    <glyph glyph-name="Upsilontonos" unicode="&#x38e;" horiz-adv-x="1626" 
d="M1083 0v553l549 885h-362l-344 -586l-344 586h-369l547 -889v-549h323zM-178 1597l-205 -354h223l385 354h-403z" />
    <glyph glyph-name="Omegatonos" unicode="&#x38f;" horiz-adv-x="1769" 
d="M975 2h680v279h-344q135 70 214 218.5t79 307.5q0 154 -56 279.5t-153 208t-227.5 127t-280.5 44.5q-119 0 -227 -28t-198 -83.5t-156 -133.5t-103 -183.5t-37 -228.5q0 -158 79.5 -308t213.5 -220h-344v-279h684v291q-143 66 -222 186.5t-79 276.5q0 185 102.5 301.5
t282.5 116.5q184 0 286.5 -115.5t102.5 -302.5q0 -311 -297 -463v-291zM33 1597l-205 -354h223l385 354h-403z" />
    <glyph glyph-name="iotadieresistonos" unicode="&#x390;" horiz-adv-x="825" 
d="M537 0v1067h-316v-1067h316zM47 1618q-60 0 -102.5 -41.5t-42.5 -101.5q0 -63 42.5 -104.5t102.5 -41.5q58 0 103 42t45 104q0 61 -45 102t-103 41zM344 1688l-143 -355h202l304 355h-363zM633 1479q0 -59 41 -102.5t100 -43.5q64 0 105 43t41 103q0 58 -41 101.5
t-105 43.5q-61 0 -101 -43.5t-40 -101.5z" />
    <glyph glyph-name="Alpha" unicode="&#x391;" horiz-adv-x="1509" 
d="M453 305h596l127 -305h348l-619 1444h-303l-616 -1444h340zM553 563l199 500l198 -500h-397z" />
    <glyph glyph-name="Beta" unicode="&#x392;" horiz-adv-x="1415" 
d="M133 1438v-1438h647q270 0 413.5 108.5t143.5 290.5q0 139 -77.5 228t-225.5 123q103 41 160 123.5t57 201.5q0 176 -135 269.5t-358 93.5h-625zM449 846v328h258q107 0 165 -40.5t58 -121.5q0 -77 -58.5 -121.5t-171.5 -44.5h-251zM449 264v344h286q281 0 281 -170
q0 -84 -64.5 -129t-189.5 -45h-313z" />
    <glyph glyph-name="Gamma" unicode="&#x393;" horiz-adv-x="1232" 
d="M457 0v1153h753v285h-1077v-1438h324z" />
    <glyph glyph-name="Epsilon" unicode="&#x395;" horiz-adv-x="1343" 
d="M455 276v320h694v260h-694v303h762v279h-1084v-1438h1098v276h-776z" />
    <glyph glyph-name="Zeta" unicode="&#x396;" horiz-adv-x="1290" 
d="M444 274l818 920v244h-1223v-277h786l-821 -919v-242h1243v274h-803z" />
    <glyph glyph-name="Eta" unicode="&#x397;" horiz-adv-x="1513" 
d="M133 1438v-1438h324v582h600v-582h321v1438h-321v-568h-600v568h-324z" />
    <glyph glyph-name="Theta" unicode="&#x398;" horiz-adv-x="1699" 
d="M848 -29q158 0 300 58.5t244 158.5t162 239.5t60 295.5q0 151 -58 288t-158 237t-242.5 159t-303.5 59q-162 0 -305 -59t-243.5 -160t-159 -239t-58.5 -291t57.5 -290t157.5 -237.5t242.5 -159.5t304.5 -59zM850 1174q125 0 225 -63.5t153.5 -167.5t53.5 -226
q0 -189 -120.5 -322t-309.5 -133q-126 0 -226.5 63t-155 168t-54.5 230q0 188 122 319.5t312 131.5zM580 592h540v278h-540v-278z" />
    <glyph glyph-name="Iota" unicode="&#x399;" horiz-adv-x="589" 
d="M457 0v1438h-324v-1438h324z" />
    <glyph glyph-name="Kappa" unicode="&#x39a;" horiz-adv-x="1376" 
d="M457 848v590h-324v-1438h324v727l538 -727h391l-600 801l570 637h-389z" />
    <glyph glyph-name="Lambda" unicode="&#x39b;" horiz-adv-x="1482" 
d="M1149 0l-410 1063l-413 -1063h-340l604 1444h303l604 -1444h-348z" />
    <glyph glyph-name="Mu" unicode="&#x39c;" horiz-adv-x="1591" 
d="M360 932l433 -653l434 655v-934h319v1434h-336l-415 -658l-416 658h-336v-1434h317v932z" />
    <glyph glyph-name="Nu" unicode="&#x39d;" horiz-adv-x="1570" 
d="M1118 537l-680 897h-305v-1434h320v918l694 -918h289v1438h-318v-901z" />
    <glyph glyph-name="Xi" unicode="&#x39e;" horiz-adv-x="1323" 
d="M127 1139h1069v299h-1069v-299zM113 0h1097v297h-1097v-297zM195 586h933v280h-933v-280z" />
    <glyph glyph-name="Omicron" unicode="&#x39f;" horiz-adv-x="1699" 
d="M848 -29q158 0 300 58.5t244 158.5t162 239.5t60 295.5q0 151 -58 288t-158 237t-242.5 159t-303.5 59q-162 0 -305 -59t-243.5 -160t-159 -239t-58.5 -291t57.5 -290t157.5 -237.5t242.5 -159.5t304.5 -59zM850 1174q125 0 225 -63.5t153.5 -167.5t53.5 -226
q0 -123 -54 -226.5t-153.5 -166t-224.5 -62.5q-188 0 -311 135t-123 326q0 188 122 319.5t312 131.5z" />
    <glyph glyph-name="Pi" unicode="&#x3a0;" horiz-adv-x="1484" 
d="M133 1438v-1438h324v1149h573v-1149h322v1444z" />
    <glyph glyph-name="Rho" unicode="&#x3a1;" horiz-adv-x="1318" 
d="M133 1438v-1440h324v465h223q170 0 301.5 56.5t209 169.5t77.5 269q0 225 -154.5 352.5t-415.5 127.5h-565zM457 723v440h217q130 0 200 -55.5t70 -163.5q0 -103 -72 -162t-198 -59h-217z" />
    <glyph glyph-name="Sigma" unicode="&#x3a3;" horiz-adv-x="1269" 
d="M27 1194l411 -473l-434 -479v-242h1188v274h-748l402 447l-383 440h711v277h-1147v-244z" />
    <glyph glyph-name="Tau" unicode="&#x3a4;" horiz-adv-x="1224" 
d="M772 0v1153h430v285h-1182v-285h431v-1153h321z" />
    <glyph glyph-name="Upsilon" unicode="&#x3a5;" horiz-adv-x="1396" 
d="M860 0v553l549 885h-362l-345 -586l-344 586h-368l547 -889v-549h323z" />
    <glyph glyph-name="Phi" unicode="&#x3a6;" horiz-adv-x="1908" 
d="M1112 1448h-309v-105q-15 0 -51 -4q-158 -7 -286 -57t-212.5 -132.5t-130 -191.5t-45.5 -235q0 -256 180 -427.5t494 -186.5q9 -1 25.5 -2.5t25.5 -2.5v-114h309v114q8 1 25 2.5t26 2.5q157 8 283.5 58.5t210.5 132.5t129 191t45 236q0 125 -45 233.5t-128.5 190.5
t-211 131.5t-283.5 56.5q-32 4 -51 4v105zM1112 1063q176 -6 282.5 -100t106.5 -242q0 -147 -107.5 -239.5t-281.5 -100.5v682zM803 381q-177 8 -286 99t-109 245q0 151 109.5 242t285.5 96v-682z" />
    <glyph glyph-name="Chi" unicode="&#x3a7;" horiz-adv-x="1396" 
d="M401 1438h-372l479 -705l-502 -733h367l323 489l324 -489h371l-502 737l479 701h-364l-302 -461z" />
    <glyph glyph-name="Psi" unicode="&#x3a8;" horiz-adv-x="1839" 
d="M1393 915q0 -170 -81.5 -264t-232.5 -94v881h-323v-881q-151 0 -232.5 94t-81.5 264v523h-323v-525q0 -310 169.5 -478.5t465.5 -168.5v-266h323v266q306 0 472.5 168t166.5 486v518h-323v-523z" />
    <glyph glyph-name="uni03A9" unicode="&#x3a9;" horiz-adv-x="1769" 
d="M975 2h680v279h-344q135 70 214 218.5t79 307.5q0 154 -56 279.5t-153 208t-227.5 127t-280.5 44.5q-119 0 -227 -28t-198 -83.5t-156 -133.5t-103 -183.5t-37 -228.5q0 -158 79.5 -308t213.5 -220h-344v-279h684v291q-143 66 -222 186.5t-79 276.5q0 185 102.5 301.5
t282.5 116.5q184 0 286.5 -115.5t102.5 -302.5q0 -311 -297 -463v-291z" />
    <glyph glyph-name="Iotadieresis" unicode="&#x3aa;" horiz-adv-x="595" 
d="M457 0v1438h-324v-1438h324zM74 1937q-72 0 -117 -42t-45 -113q0 -72 45.5 -115t116.5 -43q68 0 113.5 43t45.5 115q0 71 -45.5 113t-113.5 42zM512 1937q-71 0 -115.5 -42.5t-44.5 -112.5q0 -72 45.5 -115t114.5 -43q70 0 115 43t45 115t-44.5 113.5t-115.5 41.5z" />
    <glyph glyph-name="Upsilondieresis" unicode="&#x3ab;" horiz-adv-x="1396" 
d="M860 0v553l549 885h-362l-345 -586l-344 586h-368l547 -889v-549h323zM483 1937q-72 0 -116.5 -42t-44.5 -113q0 -72 45.5 -115t115.5 -43q68 0 114 43t46 115q0 71 -46 113t-114 42zM922 1937q-71 0 -115.5 -42.5t-44.5 -112.5q0 -72 45.5 -115t114.5 -43q70 0 114.5 43
t44.5 115t-44 113.5t-115 41.5z" />
    <glyph glyph-name="alphatonos" unicode="&#x3ac;" horiz-adv-x="1337" 
d="M375 532q0 124 73 209.5t193 85.5q118 0 193 -85.5t75 -204.5q0 -120 -75 -207.5t-193 -87.5q-115 0 -190.5 87t-75.5 203zM1219 0v1067h-316v-156q-71 91 -154.5 136t-193.5 45q-150 0 -264 -80t-171 -206t-57 -274q0 -146 57 -271.5t171 -205.5t264 -80q114 0 189.5 44
t158.5 139zM713 1700l-205 -354h223l385 354h-403z" />
    <glyph glyph-name="epsilontonos" unicode="&#x3ad;" horiz-adv-x="1083" 
d="M375 334q0 -27 21 -46.5t53.5 -28.5t61 -13t54.5 -4q146 0 314 82l57 -258q-195 -91 -397 -91q-126 0 -232.5 37.5t-173.5 112.5t-67 174q0 93 59.5 160t171.5 96q-92 35 -140 97.5t-48 144.5q0 97 60.5 165t156 99t215.5 31q204 0 377 -101l-78 -250q-136 84 -273 84
q-66 0 -107.5 -20t-41.5 -57q0 -84 186 -84h105v-234h-138q-101 0 -148.5 -26.5t-47.5 -69.5zM602 1700l-205 -354h224l385 354h-404z" />
    <glyph glyph-name="etatonos" unicode="&#x3ae;" horiz-adv-x="1263" 
d="M1130 690q0 178 -99.5 290t-270.5 112q-195 0 -328 -170l-317 145v-1067h315v592q0 107 60 163t141 56q78 0 131 -55t53 -164v-592h315v690zM733 1700l-205 -354h224l385 354h-404z" />
    <glyph glyph-name="iotatonos" unicode="&#x3af;" horiz-adv-x="538" 
d="M430 0v1067h-315v-1067h315zM358 1700l-204 -354h223l385 354h-404z" />
    <glyph glyph-name="upsilondieresistonos" unicode="&#x3b0;" horiz-adv-x="1226" 
d="M1122 1069h-315v-602q0 -95 -51 -158t-144 -63q-95 0 -142.5 61.5t-47.5 159.5v602h-316v-596q0 -246 131 -372t377 -126q242 0 375 127.5t133 376.5v590zM268 1618q-60 0 -102.5 -41.5t-42.5 -101.5q0 -63 42.5 -104.5t102.5 -41.5q58 0 103 42t45 104q0 61 -45 102
t-103 41zM565 1688l-143 -355h203l303 355h-363zM854 1479q0 -59 41 -102.5t100 -43.5q64 0 105 43t41 103q0 58 -41 101.5t-105 43.5q-61 0 -101 -43.5t-40 -101.5z" />
    <glyph glyph-name="alpha" unicode="&#x3b1;" horiz-adv-x="1337" 
d="M375 532q0 124 73 209.5t193 85.5q118 0 193 -85.5t75 -204.5q0 -120 -75 -207.5t-193 -87.5q-115 0 -190.5 87t-75.5 203zM1219 0v1067h-316v-156q-71 91 -154.5 136t-193.5 45q-150 0 -264 -80t-171 -206t-57 -274q0 -146 57 -271.5t171 -205.5t264 -80q114 0 189.5 44
t158.5 139z" />
    <glyph glyph-name="beta" unicode="&#x3b2;" horiz-adv-x="1306" 
d="M430 532q0 -122 83 -205t204 -83q93 0 154 59.5t61 149.5q0 97 -71.5 156t-219.5 63v180q110 7 162.5 65.5t52.5 137.5q0 90 -58 137t-143 47q-102 0 -163.5 -67.5t-61.5 -174.5v-465zM1243 412q0 -189 -131 -312t-317 -123q-221 0 -365 177v-500h-315v1341
q0 229 144.5 371.5t399.5 142.5q232 0 369 -114.5t137 -292.5q0 -114 -61 -192t-168 -122q144 -30 225.5 -127t81.5 -249z" />
    <glyph glyph-name="gamma" unicode="&#x3b3;" horiz-adv-x="1136" 
d="M727 -346v373l420 1040h-328l-248 -698l-247 698h-334l422 -1044v-369h315z" />
    <glyph glyph-name="delta" unicode="&#x3b4;" horiz-adv-x="1290" 
d="M647 774q118 0 193 -74t75 -190q0 -108 -75 -188t-195 -80t-195 80t-75 192q0 108 75 184t197 76zM641 1251h420v254h-885v-254l406 -260q-133 13 -251.5 -43.5t-191.5 -172.5t-73 -263q0 -110 43 -208.5t118 -171t183.5 -115t232.5 -42.5q167 0 300.5 70.5t207.5 193.5
t74 275q0 168 -82 296.5t-234 236.5z" />
    <glyph glyph-name="epsilon" unicode="&#x3b5;" horiz-adv-x="1013" 
d="M375 334q0 -27 21 -46.5t53.5 -28.5t61 -13t54.5 -4q146 0 314 82l57 -258q-195 -91 -397 -91q-126 0 -232.5 37.5t-173.5 112.5t-67 174q0 93 59.5 160t171.5 96q-92 35 -140 97.5t-48 144.5q0 97 60.5 165t156 99t215.5 31q204 0 377 -101l-78 -250q-136 84 -273 84
q-66 0 -107.5 -20t-41.5 -57q0 -84 186 -84h105v-234h-138q-101 0 -148.5 -26.5t-47.5 -69.5z" />
    <glyph glyph-name="zeta" unicode="&#x3b6;" horiz-adv-x="929" 
d="M930 1257q-254 -157 -406.5 -363t-152.5 -400q0 -108 62.5 -175t199.5 -100q293 -63 293 -303q0 -111 -70 -258l-270 23q53 104 53 167q0 50 -31 84.5t-114 53.5q-200 44 -314 163t-114 324t126.5 405.5t368.5 374.5h-401v252h770v-248z" />
    <glyph glyph-name="eta" unicode="&#x3b7;" horiz-adv-x="1236" 
d="M1130 690q0 178 -99.5 290t-270.5 112q-195 0 -328 -170l-317 145v-1067h315v592q0 107 60 163t141 56q78 0 131 -55t53 -164v-592h315v690z" />
    <glyph glyph-name="theta" unicode="&#x3b8;" horiz-adv-x="1271" 
d="M1202 752q0 111 -18.5 215t-61 204t-106 174t-160.5 119t-217 45q-140 0 -249.5 -60.5t-178 -167t-104 -245.5t-35.5 -301q0 -111 17.5 -215t60 -204.5t105.5 -175t161 -120t219 -45.5q105 0 192 32.5t147.5 90t105.5 131.5t71 163t38.5 178t12.5 182zM389 883
q5 46 14 90t28 94.5t45 87.5t67.5 61.5t91.5 24.5q62 0 110.5 -35.5t76 -93.5t42.5 -114t21 -115h-496zM885 631q-3 -61 -17 -122.5t-41.5 -124.5t-77.5 -102.5t-116 -39.5q-56 0 -101 32.5t-74 88.5t-47 123.5t-24 144.5h498z" />
    <glyph glyph-name="iota" unicode="&#x3b9;" horiz-adv-x="538" 
d="M430 0v1067h-315v-1067h315z" />
    <glyph glyph-name="kappa" unicode="&#x3ba;" horiz-adv-x="1140" 
d="M430 684v383h-315v-1067h315v535l350 -535h355l-418 616l405 451h-364z" />
    <glyph glyph-name="lambda" unicode="&#x3bb;" horiz-adv-x="1150" 
d="M422 1071l-424 -1071h334l248 725l251 -725h326l-444 1135q-62 155 -103 217q-93 144 -250 156q-15 1 -30 1q-130 0 -275 -69l68 -244q97 64 162 64q46 0 87.5 -67.5t49.5 -119.5v-2z" />
    <glyph glyph-name="uni03BC" unicode="&#x3bc;" horiz-adv-x="1251" 
d="M430 -346h-315v1415h315v-592q0 -107 52 -164t132 -57q87 0 143 58t56 163v592h315v-1069l-315 143q-75 -166 -209 -166q-58 0 -103.5 31t-70.5 84v-438z" />
    <glyph glyph-name="nu" unicode="&#x3bd;" horiz-adv-x="1144" 
d="M717 -6l434 1073h-328l-248 -698l-247 698h-334l432 -1073h291z" />
    <glyph glyph-name="xi" unicode="&#x3be;" horiz-adv-x="925" 
d="M66 391q0 -112 54.5 -200t140.5 -138.5t194 -70.5q53 -9 88 -27.5t48 -41.5t17 -38t4 -33q0 -61 -51 -161l270 -23q68 143 68 256q0 248 -285 305q-243 48 -243 213q0 61 29.5 102.5t86.5 64.5t128.5 32.5t168.5 9.5v256q-162 0 -238.5 45t-76.5 119q0 38 15.5 67.5
t46.5 48.5t68.5 31.5t90 19t101.5 9t112 2.5v266h-774v-254h211q-82 -33 -130 -91t-48 -134q0 -85 63 -148t172 -104q-153 -37 -242 -140.5t-89 -242.5z" />
    <glyph glyph-name="omicron" unicode="&#x3bf;" horiz-adv-x="1296" 
d="M647 -25q159 0 293.5 72.5t213.5 202t79 287.5q0 114 -44 216t-120.5 176.5t-186 118.5t-233.5 44q-165 0 -299.5 -75.5t-209 -203.5t-74.5 -281q0 -152 74 -279.5t208 -202.5t299 -75zM647 825q119 0 198 -86.5t79 -206.5q0 -119 -77.5 -204.5t-197.5 -85.5
q-117 0 -195.5 86t-78.5 209q0 122 75 205t197 83z" />
    <glyph glyph-name="pi" unicode="&#x3c0;" horiz-adv-x="1216" 
d="M1110 1067h-995v-1067h315v815h365v-815h315v1067z" />
    <glyph glyph-name="rho" unicode="&#x3c1;" horiz-adv-x="1325" 
d="M686 242q121 0 193.5 87t72.5 208t-75.5 204.5t-194.5 83.5q-114 0 -190 -84t-76 -213q0 -121 76.5 -203.5t193.5 -82.5zM106 535q0 166 76 294t207.5 195.5t296.5 67.5q163 0 294 -68t207.5 -196t76.5 -293q0 -146 -56.5 -271.5t-170.5 -206t-265 -80.5q-216 0 -350 170
v-493h-316v881z" />
    <glyph glyph-name="uni03C2" unicode="&#x3c2;" horiz-adv-x="1089" 
d="M827 -342q4 9 19 40.5t20 43t16 38.5t15 44t8 41t4 47q0 188 -260 305q-39 15 -73 34.5t-70.5 49.5t-62.5 65t-43 83.5t-17 103.5q0 110 66 190t172 80q63 0 122.5 -24.5t100.5 -67.5l135 215q-71 71 -169 107.5t-206 36.5q-157 0 -278.5 -76t-185.5 -203.5t-64 -282.5
q0 -387 366 -538q43 -17 69.5 -29.5t55 -31.5t42.5 -42t14 -51q0 -71 -72 -155z" />
    <glyph glyph-name="sigma" unicode="&#x3c3;" horiz-adv-x="1380" 
d="M1061 811q82 -50 127 -130t45 -181q0 -115 -50 -214.5t-132 -166.5t-187.5 -105.5t-216.5 -38.5q-126 0 -235 43t-184.5 116.5t-118.5 173.5t-43 212t43 211.5t119.5 174t189.5 118t246 43.5h694v-256h-297zM649 242q120 0 197.5 80.5t77.5 197.5q0 126 -75 203.5
t-200 77.5q-124 0 -199 -77.5t-75 -199.5q0 -113 78 -197.5t196 -84.5z" />
    <glyph glyph-name="tau" unicode="&#x3c4;" horiz-adv-x="884" 
d="M25 1067h835v-256h-262v-446q0 -61 24.5 -90t77.5 -29q62 0 123 33v-252q-95 -50 -213 -50q-156 0 -241.5 82.5t-85.5 251.5v500h-258v256z" />
    <glyph glyph-name="upsilon" unicode="&#x3c5;" horiz-adv-x="1226" 
d="M1122 1069h-315v-602q0 -95 -51 -158t-144 -63q-95 0 -142.5 61.5t-47.5 159.5v602h-316v-596q0 -246 131 -372t377 -126q242 0 375 127.5t133 376.5v590z" />
    <glyph glyph-name="phi" unicode="&#x3c6;" horiz-adv-x="1691" 
d="M995 238q160 6 241 86t91 243q2 47 -4.5 91t-24 85t-54 66t-87.5 25q-153 0 -162 -256v-340zM688 -10q-131 9 -242.5 53t-195 119t-131 186.5t-47.5 247.5q0 276 219 504h307q-229 -262 -229 -469q0 -85 17.5 -153.5t54.5 -122.5t99.5 -84.5t147.5 -32.5v276
q0 99 11 179.5t41.5 158.5t79.5 131t131 85t190 32q154 0 266 -66.5t166.5 -178.5t54.5 -255q0 -121 -46.5 -229.5t-128.5 -190.5t-200.5 -132.5t-257.5 -57.5v-334h-307v334z" />
    <glyph glyph-name="chi" unicode="&#x3c7;" horiz-adv-x="1120" 
d="M764 1067l-201 -393l-201 393h-344l373 -680l-385 -733h334l217 436l213 -436h344l-387 741l373 672h-336z" />
    <glyph glyph-name="psi" unicode="&#x3c8;" horiz-adv-x="1705" 
d="M694 -346h316v323q97 0 182.5 18t160.5 58t129.5 99t85.5 145t31 192v580h-315v-582q0 -121 -76.5 -181t-197.5 -60v1251h-316v-1251q-272 0 -272 243v580h-316v-588q0 -126 46.5 -224t128 -158.5t186.5 -91t227 -30.5v-323z" />
    <glyph glyph-name="omega" unicode="&#x3c9;" horiz-adv-x="1771" 
d="M1042 838h-317v-322q0 -117 -41 -197.5t-125 -80.5q-85 0 -134.5 87t-49.5 230q0 132 54 256t192 289h-324q-231 -250 -231 -557q0 -160 55 -287t166 -204t262 -77q113 0 194.5 41.5t143.5 128.5q118 -170 336 -170q226 0 355.5 156.5t129.5 411.5q0 156 -54.5 291
t-176.5 266h-324q138 -165 192 -289.5t54 -255.5q0 -144 -50 -230.5t-137 -86.5q-76 0 -123 69t-47 209v322z" />
    <glyph glyph-name="iotadieresis" unicode="&#x3ca;" horiz-adv-x="614" 
d="M457 0v1067h-316v-1067h316zM82 1593q-68 0 -112 -42.5t-44 -110.5q0 -70 44 -112t112 -42q67 0 112.5 42t45.5 112q0 69 -46 111t-112 42zM516 1593q-68 0 -112 -42.5t-44 -110.5q0 -70 44 -112t112 -42t112 42t44 112q0 69 -44.5 111t-111.5 42z" />
    <glyph glyph-name="upsilondieresis" unicode="&#x3cb;" horiz-adv-x="1226" 
d="M401 1593q-68 0 -111.5 -42.5t-43.5 -110.5q0 -71 43.5 -112.5t111.5 -41.5q67 0 112.5 42t45.5 112q0 69 -46 111t-112 42zM836 1593q-68 0 -112 -42.5t-44 -110.5q0 -70 44 -112t112 -42t111.5 41.5t43.5 112.5q0 69 -44 111t-111 42zM1122 1069h-315v-602
q0 -95 -51 -158t-144 -63q-95 0 -142.5 61.5t-47.5 159.5v602h-316v-596q0 -246 131 -372t377 -126q242 0 375 127.5t133 376.5v590z" />
    <glyph glyph-name="omicrontonos" unicode="&#x3cc;" horiz-adv-x="1296" 
d="M647 -25q159 0 293.5 72.5t213.5 202t79 287.5q0 114 -44 216t-120.5 176.5t-186 118.5t-233.5 44q-165 0 -299.5 -75.5t-209 -203.5t-74.5 -281q0 -152 74 -279.5t208 -202.5t299 -75zM647 825q119 0 198 -86.5t79 -206.5q0 -119 -77.5 -204.5t-197.5 -85.5
q-117 0 -195.5 86t-78.5 209q0 122 75 205t197 83zM772 1700l-205 -354h224l385 354h-404z" />
    <glyph glyph-name="upsilontonos" unicode="&#x3cd;" horiz-adv-x="1226" 
d="M1122 1069h-315v-602q0 -95 -51 -158t-144 -63q-95 0 -142.5 61.5t-47.5 159.5v602h-316v-596q0 -246 131 -372t377 -126q242 0 375 127.5t133 376.5v590zM690 1700l-205 -354h224l385 354h-404z" />
    <glyph glyph-name="omegatonos" unicode="&#x3ce;" horiz-adv-x="1771" 
d="M1042 838h-317v-322q0 -117 -41 -197.5t-125 -80.5q-85 0 -134.5 87t-49.5 230q0 132 54 256t192 289h-324q-231 -250 -231 -557q0 -160 55 -287t166 -204t262 -77q113 0 194.5 41.5t143.5 128.5q118 -170 336 -170q226 0 355.5 156.5t129.5 411.5q0 156 -54.5 291
t-176.5 266h-324q138 -165 192 -289.5t54 -255.5q0 -144 -50 -230.5t-137 -86.5q-76 0 -123 69t-47 209v322zM973 1700l-205 -354h223l385 354h-403z" />
    <glyph glyph-name="uni03CF" unicode="&#x3cf;" horiz-adv-x="1376" 
d="M199 -100q97 -59 236 -103.5t251 -44.5q95 0 179 29.5t130.5 71t46.5 81.5l-585 793v-727h-324v1438h324v-590l510 590h389l-570 -637l600 -801q0 -127 -95.5 -238.5t-256.5 -178t-344 -66.5q-250 0 -491 116v267z" />
    <glyph glyph-name="uni03D7" unicode="&#x3d7;" horiz-adv-x="1140" 
d="M430 535v-535h-315v1067h315v-383l328 383h364l-405 -451l418 -616q0 -127 -75 -228.5t-205 -157.5t-290 -56q-111 0 -208 27t-212 83v266q89 -60 199 -100.5t219 -40.5q110 0 181 46.5t71 109.5z" />
    <glyph glyph-name="Wgrave" unicode="&#x1e80;" horiz-adv-x="2154" 
d="M637 489l-297 949h-342l481 -1444h287l309 946l316 -946h284l479 1444h-333l-293 -949l-305 951h-283zM705 1841l286 -262h228l-207 354z" />
    <glyph glyph-name="wgrave" unicode="&#x1e81;" horiz-adv-x="1613" 
d="M297 1067h-311l338 -1073h276l205 653l205 -653h278l340 1073h-309l-180 -635l-195 639h-272l-193 -637zM410 1524l286 -262h228l-207 354z" />
    <glyph glyph-name="Wacute" unicode="&#x1e82;" horiz-adv-x="2154" 
d="M637 489l-297 949h-342l481 -1444h287l309 946l316 -946h284l479 1444h-333l-293 -949l-305 951h-283zM1180 1933l-205 -354h223l289 262z" />
    <glyph glyph-name="wacute" unicode="&#x1e83;" horiz-adv-x="1613" 
d="M297 1067h-311l338 -1073h276l205 653l205 -653h278l340 1073h-309l-180 -635l-195 639h-272l-193 -637zM907 1595l-205 -354h224l288 262z" />
    <glyph glyph-name="Wdieresis" unicode="&#x1e84;" horiz-adv-x="2154" 
d="M637 489l-297 949h-342l481 -1444h287l309 946l316 -946h284l479 1444h-333l-293 -949l-305 951h-283zM858 1937q-72 0 -117 -42t-45 -113q0 -72 45.5 -115t116.5 -43q68 0 114 43t46 115q0 71 -46 113t-114 42zM1296 1937q-71 0 -115 -42.5t-44 -112.5q0 -72 45 -115
t114 -43q70 0 115 43t45 115t-44.5 113.5t-115.5 41.5z" />
    <glyph glyph-name="wdieresis" unicode="&#x1e85;" horiz-adv-x="1613" 
d="M297 1067h-311l338 -1073h276l205 653l205 -653h278l340 1073h-309l-180 -635l-195 639h-272l-193 -637zM588 1593q-68 0 -112 -42.5t-44 -110.5q0 -70 44 -112t112 -42q67 0 112 42t45 112q0 69 -45.5 111t-111.5 42zM1022 1593q-68 0 -112 -42.5t-44 -110.5
q0 -70 44 -112t112 -42t112 42t44 112q0 69 -44.5 111t-111.5 42z" />
    <glyph glyph-name="uni1E9E" unicode="&#x1e9e;" horiz-adv-x="1286" 
d="M627 659q133 -9 207.5 -63.5t74.5 -153.5q0 -213 -356 -219v-229q136 -7 254 14.5t212.5 71.5t149 139t54.5 209q0 155 -97 256.5t-252 120.5l269 270q0 204 -148 326.5t-393 122.5q-288 0 -436 -145.5t-148 -397.5v-981h312v973q0 135 70 208.5t196 73.5
q108 0 174 -48.5t66 -131.5l-209 -235v-181z" />
    <glyph glyph-name="Ygrave" unicode="&#x1ef2;" horiz-adv-x="1396" 
d="M860 0v553l549 885h-362l-345 -586l-344 586h-368l547 -889v-549h323zM328 1882l286 -262h228l-207 354z" />
    <glyph glyph-name="ygrave" unicode="&#x1ef3;" horiz-adv-x="1138" 
d="M-10 1067l459 -1075l-117 -338h272l543 1413h-324l-241 -733l-260 733h-332zM190 1524l287 -262h228l-207 354z" />
    <glyph glyph-name="endash" unicode="&#x2013;" horiz-adv-x="905" 
d="M907 430v275h-909v-275h909z" />
    <glyph glyph-name="emdash" unicode="&#x2014;" horiz-adv-x="1579" 
d="M1581 469v274h-1583v-274h1583z" />
    <glyph glyph-name="uni2015" unicode="&#x2015;" horiz-adv-x="1710" 
d="M1686 469v274h-1584v-274h1584z" />
    <glyph glyph-name="quoteleft" unicode="&#x2018;" horiz-adv-x="606" 
d="M283 1589l-203 -663h326l98 663h-221z" />
    <glyph glyph-name="quoteright" unicode="&#x2019;" horiz-adv-x="608" 
d="M326 926l202 663h-325l-97 -663h220z" />
    <glyph glyph-name="quotesinglbase" unicode="&#x201a;" horiz-adv-x="661" 
d="M338 -375l203 664h-326l-96 -664h219z" />
    <glyph glyph-name="quotereversed" unicode="&#x201b;" horiz-adv-x="608" 
d="M408 1589h-326l203 -663h219z" />
    <glyph glyph-name="quotedblleft" unicode="&#x201c;" horiz-adv-x="1085" 
d="M760 1540l-203 -663h326l98 663h-221zM281 1540l-201 -663h326l96 663h-221z" />
    <glyph glyph-name="quotedblright" unicode="&#x201d;" horiz-adv-x="1087" 
d="M326 877l202 663h-325l-97 -663h220zM805 877l201 663h-324l-98 -663h221z" />
    <glyph glyph-name="quotedblbase" unicode="&#x201e;" horiz-adv-x="1138" 
d="M338 -403l203 663h-326l-96 -663h219zM817 -403l201 663h-324l-98 -663h221z" />
    <glyph glyph-name="dagger" unicode="&#x2020;" horiz-adv-x="944" 
d="M547 1149l24 324h-202l24 -324l-266 20v-184l270 23l-20 -856h186l-20 856l270 -23v184z" />
    <glyph glyph-name="daggerdbl" unicode="&#x2021;" horiz-adv-x="937" 
d="M391 291l-20 -301h198l-24 301l266 -21v187l-268 -23q3 114 3 335t-3 335l268 -23v187l-266 -21l24 318h-198l20 -318l-264 21v-187l268 23q-4 -335 0 -670l-268 23v-187z" />
    <glyph glyph-name="bullet" unicode="&#x2022;" horiz-adv-x="948" 
d="M473 1075q-135 0 -232.5 -99.5t-97.5 -234.5q0 -136 97.5 -232.5t232.5 -96.5q137 0 234.5 96.5t97.5 232.5q0 138 -97.5 236t-234.5 98z" />
    <glyph glyph-name="ellipsis" unicode="&#x2026;" horiz-adv-x="1787" 
d="M336 356q-87 0 -140 -51t-53 -139t54 -139.5t139 -51.5t139.5 51.5t54.5 139.5q0 89 -54 139.5t-140 50.5zM893 356q-87 0 -140 -51t-53 -139t54 -139.5t139 -51.5t139.5 51.5t54.5 139.5q0 89 -54 139.5t-140 50.5zM1452 356q-87 0 -139.5 -51t-52.5 -139t53.5 -139.5
t138.5 -51.5t140 52t55 139q0 89 -54.5 139.5t-140.5 50.5z" />
    <glyph glyph-name="perthousand" unicode="&#x2030;" horiz-adv-x="2568" 
d="M438 698q157 0 257 112t100 269q0 158 -99.5 266.5t-255.5 108.5q-157 0 -257.5 -109.5t-100.5 -267.5q0 -159 99 -269t257 -110zM436 1264q73 0 110.5 -56t37.5 -131q0 -81 -40 -134.5t-104 -53.5q-63 0 -105 54t-42 136q0 81 39 133t104 52zM1335 -20
q158 0 257.5 110.5t99.5 267.5q0 159 -99.5 267t-255.5 108q-157 0 -257.5 -109t-100.5 -268q0 -158 99.5 -267t256.5 -109zM1335 543q72 0 109 -56.5t37 -132.5q0 -81 -39.5 -132.5t-104.5 -51.5q-63 0 -104 53t-41 135q0 83 39 134t104 51zM2130 -20q158 0 257 111t99 267
q0 159 -99 267t-255 108t-257 -109t-101 -268q0 -158 100 -267t256 -109zM2130 543q72 0 108.5 -56.5t36.5 -132.5q0 -81 -38.5 -132.5t-104.5 -51.5q-62 0 -103.5 53.5t-41.5 134.5q0 83 39 134t104 51zM1307 1434l-1069 -1434h241l1069 1434h-241z" />
    <glyph glyph-name="minute" unicode="&#x2032;" horiz-adv-x="610" 
d="M184 1440l-47 -672h178l209 631l8 39v2h-348z" />
    <glyph glyph-name="second" unicode="&#x2033;" horiz-adv-x="1077" 
d="M80 768h172l209 631l8 39v2h-342zM600 1440l-49 -672h174l209 631l8 39v2h-342z" />
    <glyph glyph-name="guilsinglleft" unicode="&#x2039;" horiz-adv-x="743" 
d="M655 154l-264 354l266 360l-239 99l-342 -461l340 -457z" />
    <glyph glyph-name="guilsinglright" unicode="&#x203a;" horiz-adv-x="745" 
d="M354 508l-264 -354l240 -105l340 457l-342 461l-240 -99z" />
    <glyph glyph-name="exclamdbl" unicode="&#x203c;" horiz-adv-x="1179" 
d="M512 1438h-360l2 -174l92 -813h174l90 813zM332 319q-81 0 -135 -45t-54 -124q0 -82 54 -128.5t135 -46.5t133.5 46.5t52.5 128.5q0 79 -52.5 124t-133.5 45zM1028 1438h-360l2 -174l92 -813h174l90 813zM848 319q-81 0 -135 -45t-54 -124q0 -82 54 -128.5t135 -46.5
t133.5 46.5t52.5 128.5q0 79 -52.5 124t-133.5 45z" />
    <glyph glyph-name="fraction" unicode="&#x2044;" horiz-adv-x="440" 
d="M-106 -170l917 1815h-264l-916 -1815h263z" />
    <glyph glyph-name="uni2070" unicode="&#x2070;" horiz-adv-x="710" 
d="M188 1024q0 46 8 91t26 89.5t53.5 72.5t84.5 28q85 0 132 -77.5t47 -207.5q0 -128 -45.5 -205.5t-128.5 -77.5q-84 0 -130.5 77.5t-46.5 209.5zM741 1022q0 123 -40 223.5t-127 165t-209 64.5q-175 0 -278 -127.5t-103 -325.5q0 -201 101 -328t275 -127q117 0 204.5 60.5
t132 163t44.5 231.5z" />
    <glyph glyph-name="uni2074" unicode="&#x2074;" horiz-adv-x="710" 
d="M201 901q25 39 97.5 146.5t96.5 150.5h4v-12q-4 -37 -4 -283q-65 0 -98 -2q-73 0 -96 -2v2zM-31 741q148 0 426 4l-4 -157h211l-2 157q66 -4 90 -4l12 164l-100 -2v559h-221l-412 -596v-125z" />
    <glyph glyph-name="uni2075" unicode="&#x2075;" horiz-adv-x="710" 
d="M180 963q64 36 133 36t112.5 -35.5t43.5 -91.5q0 -62 -41 -97.5t-111 -35.5q-102 0 -208 95l-113 -129q71 -64 147 -97t176 -33q151 0 245.5 82t94.5 217q0 129 -85 200t-209 71q-58 0 -138 -37l17 178h379l2 162h-535l-29 -420z" />
    <glyph glyph-name="uni2076" unicode="&#x2076;" horiz-adv-x="710" 
d="M545 1450h-207l-172 -262q-83 -127 -114.5 -196t-31.5 -134q0 -129 95 -208t250 -79q141 0 234 82.5t93 216.5q0 122 -71 194.5t-183 72.5q-75 0 -149 -50zM360 723q-60 0 -102.5 38.5t-42.5 98.5q0 58 39.5 96.5t105.5 38.5q65 0 104.5 -38.5t39.5 -96.5
q0 -60 -40 -98.5t-104 -38.5z" />
    <glyph glyph-name="uni2077" unicode="&#x2077;" horiz-adv-x="710" 
d="M352 584l393 714v152h-639v-164h426l-393 -702h213z" />
    <glyph glyph-name="uni2078" unicode="&#x2078;" horiz-adv-x="710" 
d="M580 1040q131 69 131 193q0 104 -88.5 173t-223.5 69t-222 -68t-87 -172q0 -130 133 -195q-78 -34 -122 -88t-44 -127q0 -110 97 -183t245 -73q150 0 247 72t97 186q0 72 -44.5 127t-118.5 86zM399 1100q-50 0 -89.5 31.5t-39.5 80.5q0 51 36 82t93 31q59 0 95 -32
t36 -79q0 -48 -37.5 -81t-93.5 -33zM399 721q-60 0 -104.5 32.5t-44.5 90.5q0 53 41 86t108 33q66 0 109 -33.5t43 -85.5q0 -53 -41 -88t-111 -35z" />
    <glyph glyph-name="uni2079" unicode="&#x2079;" horiz-adv-x="710" 
d="M219 580h205l221 333q56 87 81.5 148t25.5 119q0 133 -96.5 215t-258.5 82q-140 0 -235.5 -85t-95.5 -221q0 -126 72 -199t188 -73q49 0 81.5 11.5t69.5 39.5zM406 1319q63 0 105 -37t42 -100q0 -58 -41 -98t-104 -40q-69 0 -109.5 39t-40.5 99q0 61 40 99t108 38z" />
    <glyph glyph-name="uni207F" unicode="&#x207f;" horiz-adv-x="806" 
d="M776 1274q0 124 -66 200t-188 76q-131 0 -225 -116l-215 100v-733h215v407q0 74 41 112t96 38q54 0 90.5 -37.5t36.5 -112.5v-407h215v473z" />
    <glyph glyph-name="Euro" unicode="&#x20ac;" horiz-adv-x="1218" 
d="M397 791q9 183 102 291t228 108q143 0 244 -119l221 178q-171 219 -465 219q-129 0 -236.5 -42t-181.5 -113.5t-125.5 -168.5t-75.5 -205.5t-24 -225.5q0 -341 175 -542.5t456 -201.5q307 0 481 230l-217 172q-103 -123 -246 -123q-59 0 -109 21t-86 55.5t-63 81.5
t-42.5 96.5t-22.5 103.5h399v185h-412z" />
    <glyph glyph-name="uni2113" unicode="&#x2113;" horiz-adv-x="1064" 
d="M600 -27q76 0 148.5 30t162.5 103l-100 156q-113 -98 -184 -98q-40 0 -63 29.5t-23 87.5v260q151 168 234 321.5t83 300.5q0 127 -68.5 214t-185.5 87q-61 0 -110 -22t-81.5 -58.5t-54.5 -86t-31.5 -102t-9.5 -108.5v-487l-176 -172l107 -139l69 67v-82q0 -146 75 -223.5
t208 -77.5zM602 1282q28 0 39.5 -37t11.5 -84q0 -80 -28.5 -181t-83.5 -179v309q0 172 61 172z" />
    <glyph glyph-name="trademark" unicode="&#x2122;" horiz-adv-x="1824" 
d="M739 1247v199h-727v-199h258v-649h213v649h256zM1772 598v848h-259l-210 -479l-211 479h-261v-848h213v444l189 -444h135l188 444v-444h216z" />
    <glyph glyph-name="uni2126" unicode="&#x2126;" horiz-adv-x="1681" 
d="M889 2h680v279h-344q135 70 214 218.5t79 307.5q0 154 -56 279.5t-153 208t-227.5 127t-280.5 44.5q-119 0 -227 -28t-198 -83.5t-156 -133.5t-103 -183.5t-37 -228.5q0 -158 79.5 -308t213.5 -220h-344v-279h684v291q-143 66 -222 186.5t-79 276.5q0 185 102.5 301.5
t282.5 116.5q184 0 286.5 -115.5t102.5 -302.5q0 -311 -297 -463v-291z" />
    <glyph glyph-name="estimated" unicode="&#x212e;" horiz-adv-x="1394" 
d="M1241 494q0 276 -151 448t-394 172q-161 0 -285.5 -76.5t-190.5 -205.5t-66 -289q0 -161 66 -291.5t190.5 -207.5t285.5 -77q163 0 280.5 76t225.5 248l-158 92q-77 -133 -160 -191.5t-188 -58.5q-128 0 -227 86v275h772zM924 659h-455v209q95 82 225 82t230 -84v-207z
" />
    <glyph glyph-name="oneeighth" unicode="&#x215b;" horiz-adv-x="1656" 
d="M379 -170l917 1815h-264l-915 -1815h262zM162 584h221v870l-160 -2q-173 -52 -188 -59v-187q21 5 40 10.5t46.5 16t40.5 14.5v-663zM1411 451q131 69 131 192q0 104 -88 173t-223 69t-222 -68t-87 -172q0 -129 133 -194q-78 -34 -122 -88t-44 -127q0 -110 97 -183
t245 -73q150 0 247 72t97 186q0 72 -45 127t-119 86zM1231 510q-50 0 -89.5 32t-39.5 81q0 51 36 81.5t93 30.5q59 0 95 -31.5t36 -78.5q0 -48 -37.5 -81.5t-93.5 -33.5zM1231 131q-60 0 -105 32.5t-45 90.5q0 53 41.5 86t108.5 33q66 0 108.5 -33.5t42.5 -85.5
q0 -53 -40.5 -88t-110.5 -35z" />
    <glyph glyph-name="threeeighths" unicode="&#x215c;" horiz-adv-x="1912" 
d="M639 -170l917 1815h-264l-915 -1815h262zM1669 451q131 69 131 192q0 104 -88 173t-223 69t-222 -68t-87 -172q0 -129 133 -194q-78 -34 -122 -88t-44 -127q0 -110 97 -183t245 -73q150 0 247 72t97 186q0 72 -45 127t-119 86zM1489 510q-50 0 -89.5 32t-39.5 81
q0 51 36 81.5t93 30.5q59 0 95 -31.5t36 -78.5q0 -48 -37.5 -81.5t-93.5 -33.5zM1489 131q-60 0 -105 32.5t-45 90.5q0 53 41.5 86t108.5 33q66 0 108.5 -33.5t42.5 -85.5q0 -53 -40.5 -88t-110.5 -35zM53 842q10 -133 101 -202t235 -69q96 0 175 31t129 95.5t50 152.5
q0 150 -157 209q116 59 116 184q0 111 -88.5 173.5t-214.5 62.5q-128 0 -214 -64.5t-99 -191.5h213q17 96 98 96q42 0 67 -25.5t25 -64.5q0 -51 -34 -80t-88 -29h-29v-139q7 0 24 1t23 1q70 0 105.5 -33t35.5 -84q0 -59 -37 -97t-94 -38q-54 0 -85.5 29t-37.5 82h-219z" />
    <glyph glyph-name="fiveeighths" unicode="&#x215d;" horiz-adv-x="1871" 
d="M602 -170l918 1815h-265l-915 -1815h262zM244 969q66 37 133 37q69 0 112 -35.5t43 -91.5q0 -62 -40.5 -98t-110.5 -36q-103 0 -209 95l-113 -129q70 -64 146.5 -96.5t177.5 -32.5q151 0 245.5 82t94.5 217q0 129 -85 199.5t-210 70.5q-57 0 -137 -37l16 178h379l2 162
h-534l-29 -420zM1626 451q131 69 131 192q0 104 -88 173t-223 69t-222 -68t-87 -172q0 -129 133 -194q-78 -34 -122 -88t-44 -127q0 -110 97 -183t245 -73q150 0 247 72t97 186q0 72 -45 127t-119 86zM1446 510q-50 0 -89.5 32t-39.5 81q0 51 36 81.5t93 30.5q59 0 95 -31.5
t36 -78.5q0 -48 -37.5 -81.5t-93.5 -33.5zM1446 131q-60 0 -105 32.5t-45 90.5q0 53 41.5 86t108.5 33q66 0 108.5 -33.5t42.5 -85.5q0 -53 -40.5 -88t-110.5 -35z" />
    <glyph glyph-name="seveneighths" unicode="&#x215e;" horiz-adv-x="1669" 
d="M373 -170l917 1815h-264l-915 -1815h262zM1425 451q131 69 131 192q0 104 -88 173t-223 69t-222 -68t-87 -172q0 -129 133 -194q-78 -34 -122 -88t-44 -127q0 -110 97 -183t245 -73q150 0 247 72t97 186q0 72 -45 127t-119 86zM1245 510q-50 0 -89.5 32t-39.5 81
q0 51 36 81.5t93 30.5q59 0 95 -31.5t36 -78.5q0 -48 -37.5 -81.5t-93.5 -33.5zM1245 131q-60 0 -104.5 32.5t-44.5 90.5q0 53 41 86t108 33q66 0 109 -33.5t43 -85.5q0 -53 -41 -88t-111 -35zM289 596l393 715v151h-639v-164h426l-393 -702h213z" />
    <glyph glyph-name="partialdiff" unicode="&#x2202;" horiz-adv-x="1085" 
d="M514 -23q85 0 155 26t118.5 69t86 105.5t59.5 128t36 144t19 147t5 142.5q0 71 -7.5 140.5t-25 143t-44 137.5t-67.5 122t-92 99t-121.5 65t-152.5 24q-102 0 -186 -37t-164 -120l129 -150q102 105 219 105q66 0 117.5 -30t82.5 -75.5t51.5 -109t29 -122t10.5 -122.5
q-120 96 -268 96q-128 0 -224.5 -62t-145 -164.5t-48.5 -227.5t49.5 -231.5t149 -174.5t229.5 -68zM516 702q71 0 134.5 -38.5t111.5 -100.5q-5 -66 -19 -127.5t-41 -124t-75 -100t-111 -37.5q-66 0 -115 42t-71.5 102.5t-22.5 127.5q0 107 55.5 181.5t153.5 74.5z" />
    <glyph glyph-name="uni2206" unicode="&#x2206;" horiz-adv-x="1579" 
d="M37 0h1501l-596 1454h-313zM1090 274h-613l305 807z" />
    <glyph glyph-name="product" unicode="&#x220f;" horiz-adv-x="1445" 
d="M1090 -537h227v2036h-1186v-2036h227v1823h732v-1823z" />
    <glyph glyph-name="summation" unicode="&#x2211;" horiz-adv-x="1220" 
d="M29 -535h1163v213h-862l590 818l-560 792h809v213h-1114v-168l592 -835l-618 -865v-168z" />
    <glyph glyph-name="minus" unicode="&#x2212;" horiz-adv-x="1355" 
d="M1212 614v209h-1069v-209h1069z" />
    <glyph glyph-name="radical" unicode="&#x221a;" horiz-adv-x="1013" 
d="M674 -16l354 1732h-229l-273 -1366l-254 537l-282 -127l88 -187l86 43l303 -632h207z" />
    <glyph glyph-name="infinity" unicode="&#x221e;" horiz-adv-x="1474" 
d="M1104 393q140 0 226.5 94t86.5 232q0 142 -88 237t-227 95q-107 0 -193 -53t-172 -146q-188 197 -366 197q-138 0 -226 -97t-88 -237q0 -138 89 -230t229 -92q54 0 103 14.5t96 44.5t79.5 56t79.5 70q63 -55 109.5 -89.5t119 -65t142.5 -30.5zM1098 844q54 0 81 -36
t27 -91q0 -54 -27.5 -85.5t-78.5 -31.5q-94 0 -217 115q4 3 21.5 19t24.5 22t24.5 20.5t28 21.5t27.5 17.5t30 15.5t28.5 9t30.5 4zM371 842q26 0 49.5 -6.5t50.5 -24t40 -27t45 -37t38 -32.5q-128 -115 -217 -115q-52 0 -80.5 32t-28.5 85q0 54 26.5 89.5t76.5 35.5z" />
    <glyph glyph-name="integral" unicode="&#x222b;" horiz-adv-x="724" 
d="M201 -471q65 0 114.5 31.5t77.5 78.5t45.5 111.5t23 120.5t5.5 115v1212v20v28t0.5 28.5t2.5 29.5t5 24t8.5 18t12.5 6q14 0 41 -22.5t55 -22.5q47 0 80 31.5t33 80.5t-32 83t-75 47.5t-92 13.5q-64 0 -113 -28t-78 -71t-47 -102.5t-24 -113t-6 -111.5v-1237v-15
q0 -40 -0.5 -59.5t-3 -44t-9 -35t-16.5 -10.5q-15 0 -42 22.5t-52 22.5q-45 0 -76 -32t-31 -79q0 -48 32 -81.5t74 -46.5t87 -13z" />
    <glyph glyph-name="approxequal" unicode="&#x2248;" horiz-adv-x="1298" 
d="M1022 1092q-13 -76 -42 -115t-85 -39q-47 0 -113 22t-123.5 48.5t-130.5 48.5t-131 22q-72 0 -127.5 -30.5t-90.5 -84.5t-56 -115.5t-31 -133.5h187q12 70 42.5 111.5t92.5 41.5q41 0 104.5 -22t120.5 -48.5t131 -48.5t135 -22q75 0 131.5 31.5t90 86.5t52 115.5
t25.5 131.5h-182zM1022 686q-13 -76 -42.5 -116t-84.5 -40q-58 0 -146.5 35.5t-183.5 71t-168 35.5q-72 0 -127.5 -30.5t-90.5 -84t-56 -115t-31 -133.5h187q12 70 42.5 112t92.5 42q41 0 104.5 -22t120.5 -48.5t131 -48.5t135 -22q75 0 131.5 31.5t90 86.5t52 115t25.5 131
h-182z" />
    <glyph glyph-name="notequal" unicode="&#x2260;" horiz-adv-x="1339" 
d="M631 426h565v207h-448l92 182h370v211h-258l99 182l-189 105l-151 -287h-555v-211h442l-92 -182h-363v-207h252l-98 -182l188 -101z" />
    <glyph glyph-name="lessequal" unicode="&#x2264;" horiz-adv-x="1355" 
d="M1182 1133v294l-1006 -426v-288l1006 -426v297l-711 274zM1212 2v209h-1069v-209h1069z" />
    <glyph glyph-name="greaterequal" unicode="&#x2265;" horiz-adv-x="1355" 
d="M197 1425v-297l710 -274l-710 -272v-297l1003 424v292zM1212 2v209h-1069v-209h1069z" />
    <glyph glyph-name="lozenge" unicode="&#x25ca;" horiz-adv-x="993" 
d="M588 -70l348 797l-348 799h-189l-342 -799l342 -797h189zM494 1217l208 -490l-208 -491l-205 493z" />
    <glyph glyph-name="uni25CC" unicode="&#x25cc;" horiz-adv-x="1830" 
d="M930 1561q-44 0 -72.5 -26.5t-28.5 -70.5t29 -71t72 -27q44 0 72 26.5t28 71.5t-28 71t-72 26zM1286 1470q-44 0 -72 -25.5t-28 -70.5t28.5 -71.5t71.5 -26.5q44 0 72 26.5t28 71.5t-28 70.5t-72 25.5zM1524 1186q-45 0 -73 -26t-28 -70q0 -45 28.5 -72t72.5 -27
q42 0 71 27t29 72t-28.5 70.5t-71.5 25.5zM1645 848q-43 0 -72 -27t-29 -71q0 -45 28.5 -72t72.5 -27t72 27t28 72t-28 71.5t-72 26.5zM1546 475q-45 0 -72.5 -25.5t-27.5 -70.5t28 -71.5t72 -26.5t72.5 26.5t28.5 71.5q0 46 -28.5 71t-72.5 25zM1282 223q-45 0 -73.5 -26
t-28.5 -70q0 -46 29 -73t73 -27t72 27t28 73q0 45 -28 70.5t-72 25.5zM930 100q-44 0 -72.5 -25.5t-28.5 -70.5q0 -44 29 -71t72 -27q44 0 72 26.5t28 71.5q0 46 -28 71t-72 25zM537 211q-44 0 -72.5 -26.5t-28.5 -69.5q0 -45 29 -72t72 -27q44 0 72 27t28 72t-28 70.5
t-72 25.5zM256 469q-44 0 -73 -26t-29 -70q0 -45 29 -72t73 -27q42 0 71 27t29 72t-28.5 70.5t-71.5 25.5zM186 848q-44 0 -72 -27t-28 -71q0 -45 28 -72t72 -27q42 0 70.5 27t28.5 72t-28.5 71.5t-70.5 26.5zM279 1192q-44 0 -72.5 -26.5t-28.5 -69.5q0 -45 29.5 -73
t71.5 -28q43 0 71.5 28t28.5 73t-28 70.5t-72 25.5zM535 1481q-45 0 -73 -26t-28 -71t28.5 -71.5t72.5 -26.5q42 0 70 26.5t28 71.5q0 46 -27.5 71.5t-70.5 25.5z" />
    <glyph glyph-name="caroncommaaccent" horiz-adv-x="1024" 
d="M541 1122l125 434h-228l-76 -434h179z" />
    <glyph glyph-name="commaaccentrotate" horiz-adv-x="403" 
d="M199 1595l-195 -436h326l90 436h-221z" />
    <glyph glyph-name="f_t" horiz-adv-x="1409" 
d="M770 1481q-93 28 -201 28q-178 0 -274 -92.5t-96 -286.5v-69l-181 -248h181v-813h311v813h248v246h-293v67q0 71 47 109.5t119 38.5q68 0 139 -23v230zM813 311q0 -164 86 -249t240 -85q127 0 213 50v249q-72 -30 -125 -30q-101 0 -101 110v455h260v256h-260v342
l-522 -598h209v-500z" />
    <glyph glyph-name="w_w_w" horiz-adv-x="5005" 
d="M336 1067h-311l337 -1073h277l205 653l205 -653h278l340 1073h-309l-180 -635l-195 639h-272l-193 -637zM1993 1067h-312l338 -1073h277l205 653l204 -653h279l340 1073h-309l-181 -635l-194 639h-273l-192 -637zM3652 1067h-312l338 -1073h277l204 653l205 -653h279
l340 1073h-309l-181 -635l-194 639h-273l-192 -637z" />
    <glyph glyph-name="t_t" horiz-adv-x="1507" 
d="M874 311q0 -164 86 -249t240 -85q127 0 213 50v249q-72 -30 -125 -30q-100 0 -100 110v455h260v256h-260v342l-522 -598h208v-500zM246 311q0 -164 85.5 -249t239.5 -85q127 0 213 50v249q-72 -30 -125 -30q-100 0 -100 110v455h260v256h-260v342l-522 -598h209v-500z
" />
    <glyph glyph-name="Upsilondieresis_alt" horiz-adv-x="1452" 
d="M909 0v553l549 885h-362l-344 -586l-344 586h-369l547 -889v-549h323zM532 1937q-72 0 -116.5 -42t-44.5 -113q0 -72 45.5 -115t115.5 -43q68 0 114 43t46 115q0 71 -46 113t-114 42zM971 1937q-71 0 -115.5 -42.5t-44.5 -112.5q0 -72 45.5 -115t114.5 -43q70 0 114.5 43
t44.5 115t-44 113.5t-115 41.5z" />
    <glyph glyph-name=".null.1" horiz-adv-x="569" 
 />
    <glyph glyph-name="ogonek.1" horiz-adv-x="481" 
d="M428 -256q-72 -27 -106 -27q-37 0 -59.5 20t-22.5 54q0 65 118 193l-159 77q-91 -99 -131.5 -167.5t-40.5 -137.5q0 -98 70 -156.5t179 -58.5q100 0 189 47z" />
    <glyph glyph-name="ogonek.2" horiz-adv-x="481" 
d="M428 -256q-72 -27 -106 -27q-37 0 -59.5 19.5t-22.5 56.5q0 104 200 295l-295 -88q-118 -128 -118 -246q0 -98 69.5 -155.5t179.5 -57.5q100 0 189 47z" />
    <glyph glyph-name="periodcentered.loclCAT" horiz-adv-x="622" 
d="M336 946q-87 0 -140 -50.5t-53 -137.5q0 -89 54 -141t139 -52t139.5 52t54.5 141q0 88 -54 138t-140 50z" />
    <glyph glyph-name="i.loclTRK" horiz-adv-x="557" 
d="M412 0v1067h-316v-1067h316zM254 1546q-81 0 -133.5 -45.5t-52.5 -126.5q0 -80 52.5 -126t133.5 -46q82 0 135 46t53 126q0 82 -52.5 127t-135.5 45z" />
    <glyph glyph-name="periodcentered.loclCAT.case" horiz-adv-x="622" 
d="M336 946q-87 0 -140 -50.5t-53 -137.5q0 -89 54 -141t139 -52t139.5 52t54.5 141q0 88 -54 138t-140 50z" />
    <glyph glyph-name="uni004A0301" horiz-adv-x="899" 
d="M0 72q141 -97 285 -97q231 0 362 139t131 378v946h-321v-946q0 -116 -51 -173t-140 -57q-71 0 -131.5 33.5t-134.5 95.5v-319zM653 1954l-204 -355h223l289 263z" />
    <glyph glyph-name="uni006A0301" horiz-adv-x="514" 
d="M377 1616l-205 -354h223l289 262zM-49 -340q72 -14 141 -14q176 0 258 88t82 274v1059h-313v-1065q0 -129 -94 -129q-33 0 -74 14v-227z" />
    <glyph glyph-name="tonos.case" horiz-adv-x="956" 
d="M387 1700l-205 -354h224l385 354h-404z" />
    <glyph glyph-name="uni030C.alt" 
d="M741 1595h-235l-129 -145l-133 145h-240l277 -354h186z" />
    <glyph glyph-name="Delta" horiz-adv-x="1562" 
d="M1118 258h-680l340 817zM-4 0h1571l-635 1444h-303z" />
    <glyph glyph-name="uni0394.1" horiz-adv-x="1579" 
d="M37 0h1501l-596 1454h-313zM477 274l305 807l308 -807h-613z" />
    <glyph glyph-name="uni03BC.001" horiz-adv-x="1251" 
d="M430 -346h-315v1415h315v-592q0 -107 52 -164t132 -57q87 0 143 58t56 163v592h315v-1069l-315 143q-75 -166 -209 -166q-58 0 -103.5 31t-70.5 84v-438z" />
    </font>
</defs>
</svg>
