<?xml version="1.0" standalone="no"?>
<!DOCTYPE svg PUBLIC "-//W3C//DTD SVG 1.1//EN" "http://www.w3.org/Graphics/SVG/1.1/DTD/svg11.dtd" >
<svg xmlns="http://www.w3.org/2000/svg" xmlns:xlink="http://www.w3.org/1999/xlink" version="1.1">
<metadata>
Created by FontForge 20201107 at Thu Dec 18 19:34:31 2025
 By 
Copyright 2022 The Geom Project Authors (https://github.com/ThanosPoulakidas/Geom)
</metadata>
<defs>
<font id="Geom-Black" horiz-adv-x="0" >
  <font-face 
    font-family="Geom Black"
    font-weight="900"
    font-stretch="normal"
    units-per-em="2048"
    panose-1="0 0 0 0 0 0 0 0 0 0"
    ascent="1638"
    descent="-410"
    x-height="1108"
    cap-height="1434"
    bbox="-489 -610 5188 2163"
    underline-thickness="102"
    underline-position="-255"
    unicode-range="U+000D-FB02"
  />
<missing-glyph horiz-adv-x="1228" 
d="M74 1475v-1475h1083v1475h-1083zM946 1358l-330 -496l-333 496h663zM1014 262l-318 475l318 477v-952zM946 117h-663l333 497zM217 262v955l318 -480z" />
    <glyph glyph-name="fi" unicode="fi" horiz-adv-x="1497" 
d="M838 1479q-105 30 -238 30q-192 0 -295.5 -93.5t-103.5 -289.5v-30l-170 -299h170v-797h387v797h248v299h-316v26q0 50 49.5 77.5t110.5 27.5q81 0 158 -23v275zM1356 0v1108h-389v-1108h389zM1159 1597q-97 0 -158 -50.5t-61 -145.5t61.5 -147t157.5 -52t158.5 52
t62.5 147q0 94 -62 145t-159 51z" />
    <glyph glyph-name="fl" unicode="fl" horiz-adv-x="1472" 
d="M838 1479q-105 30 -238 30q-192 0 -295.5 -93.5t-103.5 -289.5v-30l-170 -299h170v-797h387v797h248v299h-316v26q0 50 49.5 77.5t110.5 27.5q81 0 158 -23v275zM1356 0v1495h-389v-1495h389z" />
    <glyph glyph-name="f_f_i" unicode="ffi" horiz-adv-x="2342" 
d="M2202 0v1108h-390v-1108h390zM2005 1597q-97 0 -158 -50.5t-61 -145.5t61.5 -147t157.5 -52t158.5 52t62.5 147q0 94 -62 145t-159 51zM1683 1479q-105 30 -237 30q-192 0 -295.5 -93.5t-103.5 -289.5v-30l-170 -299h170v-797h387v797h247v299h-315v26q0 50 49.5 77.5
t110.5 27.5q80 0 157 -23v275zM838 1479q-105 30 -238 30q-192 0 -295.5 -93.5t-103.5 -289.5v-30l-170 -299h170v-797h387v797h248v299h-316v26q0 50 49.5 77.5t110.5 27.5q81 0 158 -23v275z" />
    <glyph glyph-name="f_f_l" unicode="ffl" horiz-adv-x="2226" 
d="M838 1479q-105 30 -238 30q-192 0 -295.5 -93.5t-103.5 -289.5v-30l-170 -299h170v-797h387v797h248v299h-316v26q0 50 49.5 77.5t110.5 27.5q81 0 158 -23v275zM1602 1479q-105 30 -238 30q-192 0 -295.5 -93.5t-103.5 -289.5v-30l-170 -299h170v-797h387v797h247v299
h-315v26q0 50 49.5 77.5t110.5 27.5q81 0 158 -23v275zM2120 0v1495h-389v-1495h389z" />
    <glyph glyph-name="f_f" unicode="ff" horiz-adv-x="1585" 
d="M1593 1479q-105 30 -237 30q-192 0 -296 -94t-104 -289v-30l-170 -299h170v-797h387v797h248v299h-315v26q0 50 49.5 77.5t110.5 27.5q80 0 157 -23v275zM838 1479q-105 30 -238 30q-192 0 -295.5 -93.5t-103.5 -289.5v-30l-170 -299h170v-797h387v797h248v299h-316v26
q0 50 49.5 77.5t110.5 27.5q81 0 158 -23v275z" />
    <glyph glyph-name=".notdef" horiz-adv-x="1228" 
d="M74 1475v-1475h1083v1475h-1083zM946 1358l-330 -496l-333 496h663zM1014 262l-318 475l318 477v-952zM946 117h-663l333 497zM217 262v955l318 -480z" />
    <glyph glyph-name=".null" 
 />
    <glyph glyph-name="nonmarkingreturn" horiz-adv-x="682" 
 />
    <glyph glyph-name="CR" unicode="&#xd;" 
 />
    <glyph glyph-name="space" unicode=" " horiz-adv-x="573" 
 />
    <glyph glyph-name="exclam" unicode="!" horiz-adv-x="698" 
d="M569 1434h-442v-174l119 -793h205l118 793v174zM346 369q-96 0 -157.5 -51t-61.5 -146t61.5 -147t157.5 -52t158.5 52t62.5 147t-62 146t-159 51z" />
    <glyph glyph-name="quotedbl" unicode="&#x22;" horiz-adv-x="1351" 
d="M182 698h203l260 729v5v2h-418zM754 1434l-47 -736h204l260 729v5v2h-417z" />
    <glyph glyph-name="numbersign" unicode="#" horiz-adv-x="1458" 
d="M227 276l-47 -276h297l47 276h260l-49 -276h297l49 276h244v330h-188l39 230h217v329h-160l45 269h-297l-45 -269h-260l47 269h-297l-45 -269h-246v-329h189l-39 -230h-217v-330h159zM614 844h273l-41 -246h-275z" />
    <glyph glyph-name="dollar" unicode="$" horiz-adv-x="1323" 
d="M569 -201h213v201q221 21 352.5 135t131.5 299q0 183 -118 285.5t-372 161.5v256q145 -26 232 -131l198 221q-75 83 -184 136.5t-236 66.5v122h-213v-116q-231 -17 -360 -133.5t-129 -298.5q0 -94 31 -166t96 -124.5t154.5 -89.5t216.5 -67v-260q-86 11 -172 60t-146 122
l-227 -243q114 -114 253 -173t279 -59v-205zM774 524q29 -9 46.5 -16t42 -21t36.5 -34t12 -45q0 -43 -34 -72.5t-103 -36.5v225zM584 915q-140 32 -140 119q0 41 34.5 69t105.5 34v-222z" />
    <glyph glyph-name="percent" unicode="%" horiz-adv-x="1851" 
d="M446 682q164 0 267.5 113.5t103.5 275.5q0 159 -103 271t-265 112q-164 0 -267.5 -111.5t-103.5 -273.5t103 -274.5t265 -112.5zM446 1229q60 0 90.5 -48.5t30.5 -111.5q0 -69 -32.5 -115.5t-85.5 -46.5q-51 0 -86 47.5t-35 116.5t32.5 113.5t85.5 44.5zM1407 -20
q160 0 264.5 115t104.5 274q0 163 -103 273t-266 110q-164 0 -267.5 -111.5t-103.5 -273.5q0 -161 104 -274t267 -113zM1405 526q60 0 90.5 -48t30.5 -111q0 -69 -33 -115.5t-86 -46.5q-51 0 -86 48t-35 116q0 70 32 113.5t87 43.5zM512 0l1106 1434h-277l-1105 -1434h276z
" />
    <glyph glyph-name="ampersand" unicode="&#x26;" horiz-adv-x="1531" 
d="M821 330q-87 -62 -170 -62q-74 0 -121 39.5t-47 102.5q0 97 103 159zM1174 788q-66 -125 -136 -227l-159 166q280 132 280 373q0 163 -116.5 268t-309.5 105q-102 0 -188 -32t-142.5 -85.5t-88 -124t-31.5 -148.5q0 -151 94 -288q-291 -130 -291 -402q0 -194 143.5 -306
t368.5 -112q231 0 426 146l123 -131l358 80l-258 284q63 85 203 344zM618 1069q0 56 30 93.5t85 37.5q50 0 80.5 -31t30.5 -84q0 -105 -152 -180q-74 95 -74 164z" />
    <glyph glyph-name="quotesingle" unicode="'" horiz-adv-x="835" 
d="M324 1434l-45 -736h210l261 729v5v2h-426z" />
    <glyph glyph-name="parenleft" unicode="(" horiz-adv-x="970" 
d="M903 -47q-124 86 -203.5 171.5t-127.5 203t-48 260.5q0 200 89.5 348.5t289.5 286.5l-194 223q-105 -59 -189 -122t-156 -141.5t-119.5 -166.5t-74.5 -196.5t-27 -231.5q0 -205 68 -367.5t188 -278t301 -208.5z" />
    <glyph glyph-name="parenright" unicode=")" horiz-adv-x="970" 
d="M70 1223q124 -86 203.5 -171.5t127.5 -203t48 -260.5q0 -200 -89.5 -348.5t-289.5 -286.5l202 -219q184 95 304.5 211t186.5 277.5t66 365.5q0 202 -68 363.5t-190 279t-307 215.5z" />
    <glyph glyph-name="asterisk" unicode="*" horiz-adv-x="854" 
d="M135 1358l160 -223l-258 -91l49 -153l260 88v-283h168v279l254 -84l51 153l-252 86l154 228l-135 96l-158 -221l-158 221z" />
    <glyph glyph-name="plus" unicode="+" horiz-adv-x="1380" 
d="M868 893v352h-356v-352h-346v-344h346v-352h356v352h346v344h-346z" />
    <glyph glyph-name="comma" unicode="," horiz-adv-x="573" 
d="M281 -336l211 739h-351l-127 -739h267z" />
    <glyph glyph-name="hyphen" unicode="-" horiz-adv-x="759" 
d="M717 387v342h-672v-342h672z" />
    <glyph glyph-name="period" unicode="." horiz-adv-x="716" 
d="M356 422q-105 0 -167 -59t-62 -164q0 -107 63.5 -166.5t165.5 -59.5t167 59.5t65 166.5t-65 165t-167 58z" />
    <glyph glyph-name="slash" unicode="/" horiz-adv-x="1218" 
d="M313 -262l908 1896h-316l-907 -1896h315z" />
    <glyph glyph-name="zero" unicode="0" horiz-adv-x="1480" 
d="M477 721q0 51 8 102.5t27.5 104t48.5 92.5t75 65t103 25q118 0 192.5 -111t74.5 -282q0 -172 -72 -282.5t-191 -110.5q-118 0 -192 112t-74 285zM1405 721q0 120 -29 230.5t-86 203t-135.5 161.5t-184.5 107.5t-227 38.5q-198 0 -351.5 -102t-233.5 -270.5t-80 -372.5
t78.5 -372.5t231 -271t351.5 -102.5q150 0 276.5 60.5t211 163.5t131.5 239t47 287z" />
    <glyph glyph-name="one" unicode="1" horiz-adv-x="890" 
d="M737 0v1444h-708v-371h317v-1073h391z" />
    <glyph glyph-name="two" unicode="2" horiz-adv-x="1218" 
d="M1120 1001q0 114 -46.5 203.5t-125 143.5t-175 82t-202.5 28q-113 0 -214 -35t-179.5 -100t-124 -167t-45.5 -228h363q0 91 56.5 137.5t133.5 46.5q71 0 115.5 -39t44.5 -106q0 -120 -148 -295l-573 -672h1135v324h-385l129 172q132 173 186.5 279.5t54.5 225.5z" />
    <glyph glyph-name="three" unicode="3" horiz-adv-x="1314" 
d="M1202 1149v285h-1036v-322h549l-330 -297l57 -207h168q112 0 173 -39t61 -108q0 -67 -52.5 -108.5t-142.5 -41.5q-164 0 -305 138l-276 -224q108 -121 260.5 -187.5t343.5 -66.5q253 0 406 132.5t153 349.5q0 89 -28.5 159.5t-80.5 118t-117 78t-145 47.5z" />
    <glyph glyph-name="four" unicode="4" horiz-adv-x="1423" 
d="M1190 1444h-402l-743 -883l66 -282h694v-279h385v279h182v296h-182v869zM805 985v-410h-342z" />
    <glyph glyph-name="five" unicode="5" horiz-adv-x="1300" 
d="M397 575q119 72 230 72q95 0 153 -44.5t58 -121.5q0 -79 -56.5 -125.5t-154.5 -46.5q-88 0 -171.5 39t-176.5 117l-228 -266q120 -111 259.5 -169.5t322.5 -58.5q175 0 308.5 61.5t208.5 178.5t75 274q0 113 -40.5 202t-110 143t-156.5 82t-185 28q-120 0 -229 -51
l12 217h645v328h-958l-41 -727z" />
    <glyph glyph-name="six" unicode="6" horiz-adv-x="1329" 
d="M1014 1446h-416l-262 -391q-155 -232 -210.5 -358t-55.5 -242q0 -215 165.5 -349.5t446.5 -134.5q164 0 295 62.5t207 182t76 276.5q0 213 -110.5 329.5t-301.5 116.5q-96 0 -148 -20.5t-116 -69.5zM674 281q-88 0 -145.5 52.5t-57.5 137.5q0 79 54 130.5t145 51.5
q92 0 147 -52t55 -132q0 -82 -53.5 -135t-144.5 -53z" />
    <glyph glyph-name="seven" unicode="7" horiz-adv-x="1142" 
d="M530 0l633 1135v299h-1104v-334h664l-631 -1100h438z" />
    <glyph glyph-name="eight" unicode="8" horiz-adv-x="1347" 
d="M1018 743q196 107 196 314q0 174 -150.5 287.5t-389.5 113.5t-390 -114t-151 -287q0 -206 197 -314q-246 -104 -246 -344q0 -188 165.5 -306t424.5 -118q171 0 305 52.5t209.5 150t75.5 223.5q0 113 -66 201t-180 141zM674 852q-71 0 -123.5 45.5t-52.5 114.5
q0 63 48 106t128 43q79 0 127.5 -43.5t48.5 -107.5t-49.5 -111t-126.5 -47zM674 272q-82 0 -144.5 44t-62.5 122q0 69 58 112.5t149 43.5t149 -43.5t58 -112.5q0 -68 -56 -117t-151 -49z" />
    <glyph glyph-name="nine" unicode="9" horiz-adv-x="1329" 
d="M315 0h416l365 567q93 147 128.5 243.5t35.5 180.5q0 216 -166.5 350t-454.5 134q-117 0 -221 -36.5t-181 -102t-122 -163.5t-45 -215q0 -213 110 -331.5t301 -118.5q86 0 143.5 21.5t120.5 68.5zM655 1165q87 0 145 -51t58 -135q0 -80 -54 -133t-145 -53t-146.5 54.5
t-55.5 133.5q0 80 53.5 132t144.5 52z" />
    <glyph glyph-name="colon" unicode=":" horiz-adv-x="716" 
d="M356 422q-105 0 -167 -59t-62 -164q0 -107 63.5 -166.5t165.5 -59.5t167 59.5t65 166.5t-65 165t-167 58zM356 1130q-105 0 -167 -59t-62 -164q0 -107 63.5 -166t165.5 -59t167 59t65 166t-65 165t-167 58z" />
    <glyph glyph-name="semicolon" unicode=";" horiz-adv-x="608" 
d="M293 1130q-105 0 -167.5 -59t-62.5 -164q0 -107 64 -166t166 -59t166.5 59t64.5 166t-64.5 165t-166.5 58zM281 -336l211 739h-351l-127 -739h267z" />
    <glyph glyph-name="less" unicode="&#x3c;" horiz-adv-x="1363" 
d="M1192 944v363l-1018 -406v-362l1018 -406v365l-670 223z" />
    <glyph glyph-name="equal" unicode="=" horiz-adv-x="1337" 
d="M1171 1167h-1005v-342h1005v342zM1171 616h-1005v-342h1005v342z" />
    <glyph glyph-name="greater" unicode="&#x3e;" horiz-adv-x="1366" 
d="M174 1307v-365l670 -223l-670 -223v-363l1018 406v362z" />
    <glyph glyph-name="question" unicode="?" horiz-adv-x="1073" 
d="M76 932q201 188 366 188q66 0 115 -27.5t49 -80.5q0 -77 -108 -158q-41 -33 -66 -57.5t-54.5 -64t-44 -89t-14.5 -108.5v-89h357v64q0 55 17.5 83.5t72.5 72.5q48 36 77 60.5t62 60t50.5 69.5t29.5 80t12 100q0 129 -69 225.5t-177 143.5t-237 47q-288 0 -438 -197v-323z
M512 369q-96 0 -157.5 -51t-61.5 -146t61.5 -147t157.5 -52t158.5 52t62.5 147t-62 146t-159 51z" />
    <glyph glyph-name="at" unicode="@" horiz-adv-x="1941" 
d="M766 557q0 90 55 160.5t142 70.5q67 0 108 -42t41 -113q0 -98 -57.5 -167t-139.5 -69q-68 0 -108.5 42t-40.5 118zM1491 -113q-112 -65 -229.5 -90.5t-272.5 -25.5q-144 0 -270.5 38t-224 109t-168 168.5t-107.5 219t-37 257.5q0 168 59 316t163 255.5t254 169.5t325 62
q172 0 318 -54.5t246 -148t156 -222.5t56 -275q0 -200 -59.5 -308t-161.5 -108q-79 0 -108.5 62t-16.5 149l94 528l-317 49l-25 -125q-100 152 -274 152q-120 0 -224.5 -71.5t-166.5 -194.5t-62 -267q0 -185 106.5 -298t268.5 -113q93 0 164.5 39t136.5 112
q90 -155 316 -155q85 0 162.5 34.5t139 100t98 173t36.5 241.5q0 161 -67 307t-183 254t-281.5 171.5t-351.5 63.5q-190 0 -359 -71.5t-288.5 -192.5t-189.5 -286.5t-70 -348.5q0 -184 69 -349.5t189 -285.5t290.5 -190t364.5 -70q290 0 543 154z" />
    <glyph glyph-name="A" unicode="A" horiz-adv-x="1570" 
d="M504 256h553l104 -256h426l-610 1444h-383l-610 -1444h417zM621 565l161 408l160 -408h-321z" />
    <glyph glyph-name="B" unicode="B" horiz-adv-x="1470" 
d="M119 1434v-1434h735q258 0 402.5 106.5t144.5 292.5q0 267 -285 351q221 93 221 323q0 170 -130 265.5t-357 95.5h-731zM506 862v252h256q178 0 178 -123q0 -63 -47.5 -96t-138.5 -33h-248zM506 319v265h301q96 0 146.5 -34.5t50.5 -94.5q0 -63 -50.5 -99.5t-142.5 -36.5
h-305z" />
    <glyph glyph-name="C" unicode="C" horiz-adv-x="1361" 
d="M1274 508q-189 -174 -406 -174q-178 0 -280.5 109t-102.5 278q0 162 103.5 270.5t279.5 108.5q117 0 220 -46t176 -122v403q-183 127 -433 127q-160 0 -300.5 -58t-240 -157.5t-157 -237t-57.5 -292.5q0 -210 99 -381.5t268 -268t372 -96.5q257 0 459 140v397z" />
    <glyph glyph-name="D" unicode="D" horiz-adv-x="1558" 
d="M119 1434v-1434h545q190 0 345 55t258 152t158.5 230t55.5 288q0 156 -54.5 286.5t-156.5 224t-255.5 146t-342.5 52.5h-553zM516 352v729h162q180 0 287.5 -96.5t107.5 -265.5q0 -171 -107.5 -269t-287.5 -98h-162z" />
    <glyph glyph-name="E" unicode="E" horiz-adv-x="1382" 
d="M512 338v227h688v314h-688v217h760v338h-1153v-1434h1163v338h-770z" />
    <glyph glyph-name="F" unicode="F" horiz-adv-x="1349" 
d="M516 0v512h678v330h-678v243h750v349h-1147v-1434h397z" />
    <glyph glyph-name="G" unicode="G" horiz-adv-x="1554" 
d="M1102 547q0 -61 -25.5 -108.5t-66.5 -73.5t-85 -39t-89 -13q-147 0 -250 114t-103 288q0 166 109.5 279.5t277.5 113.5q207 0 367 -135v420q-75 32 -179.5 50.5t-209.5 18.5q-164 0 -307.5 -58t-245.5 -157.5t-160.5 -237t-58.5 -292.5q0 -212 100 -384t268.5 -267
t370.5 -95q71 0 137 11t133 37t124.5 66.5t108 103t85.5 142t55.5 188t20.5 237.5v82h-660v-291h283z" />
    <glyph glyph-name="H" unicode="H" horiz-adv-x="1544" 
d="M119 1434v-1434h397v545h510v-545h397v1434h-397v-537h-510v537h-397z" />
    <glyph glyph-name="I" unicode="I" horiz-adv-x="636" 
d="M518 0v1434h-399v-1434h399z" />
    <glyph glyph-name="J" unicode="J" horiz-adv-x="972" 
d="M0 84q159 -109 315 -109q254 0 401.5 150t147.5 399v910h-395v-908q0 -96 -51.5 -148t-132.5 -52q-55 0 -110 25.5t-89.5 53t-85.5 76.5v-397z" />
    <glyph glyph-name="K" unicode="K" horiz-adv-x="1482" 
d="M516 852v582h-397v-1434h397v754l506 -754h477l-561 817l543 617h-471z" />
    <glyph glyph-name="L" unicode="L" horiz-adv-x="1243" 
d="M516 348v1086h-397v-1434h1091v348h-694z" />
    <glyph glyph-name="M" unicode="M" horiz-adv-x="1597" 
d="M426 819l369 -557l370 561v-823h396v1434h-420l-342 -555l-342 555h-420v-1434h389v819z" />
    <glyph glyph-name="N" unicode="N" horiz-adv-x="1593" 
d="M1079 676l-590 758h-370v-1434h393v786l612 -786h349v1434h-394v-758z" />
    <glyph glyph-name="O" unicode="O" horiz-adv-x="1695" 
d="M846 -29q157 0 300 58t247 157.5t165.5 239t61.5 295.5q0 203 -100 372.5t-277.5 269t-394.5 99.5q-163 0 -307 -59t-245.5 -159t-160.5 -237.5t-59 -289.5q0 -153 58.5 -290.5t160 -237.5t245.5 -159t306 -59zM846 1104q159 0 262.5 -114.5t103.5 -272.5
q0 -103 -44.5 -191t-129 -142t-190.5 -54q-104 0 -189 54.5t-130.5 144t-45.5 192.5q0 159 102 271t261 112z" />
    <glyph glyph-name="P" unicode="P" horiz-adv-x="1376" 
d="M119 1434v-1434h397v410h197q180 0 317.5 58.5t218 177.5t80.5 284q0 237 -161 370.5t-435 133.5h-614zM516 721v379h186q111 0 170.5 -48.5t59.5 -140.5q0 -87 -61 -138.5t-166 -51.5h-189z" />
    <glyph glyph-name="Q" unicode="Q" horiz-adv-x="1810" 
d="M1735 -303v409l-226 228q60 87 85.5 176t25.5 207q0 154 -59 291.5t-161 237t-245.5 158t-306.5 58.5t-307 -59t-245.5 -159t-160.5 -237.5t-59 -289.5q0 -206 99.5 -376.5t276.5 -270t394 -99.5q131 0 258.5 39t195.5 103zM846 1104q159 0 262.5 -114.5t103.5 -272.5
q0 -162 -101.5 -274.5t-262.5 -112.5q-104 0 -189 54t-130.5 142.5t-45.5 190.5q0 162 102 274.5t261 112.5z" />
    <glyph glyph-name="R" unicode="R" horiz-adv-x="1423" 
d="M119 0h399v434h174l287 -434h459l-342 500q140 59 217.5 171t77.5 273q0 228 -151 359t-443 131h-678v-1434zM518 745v345h258q102 0 158.5 -43t56.5 -127q0 -79 -56.5 -127t-156.5 -48h-260z" />
    <glyph glyph-name="S" unicode="S" horiz-adv-x="1345" 
d="M887 403q0 -33 -18 -54.5t-50.5 -30t-57.5 -11t-59 -2.5q-166 0 -347.5 74.5t-317.5 189.5v-356q130 -119 307 -178.5t365 -59.5q163 0 291 47.5t206 148t78 241.5q0 92 -26.5 165.5t-71.5 120.5t-103.5 82.5t-123 56.5t-129 37.5t-123 30.5t-103.5 30t-71.5 41t-26.5 60
q0 41 46.5 72t137.5 31q134 0 288.5 -67.5t270.5 -166.5v363q-237 190 -590 190q-88 0 -169 -17.5t-151.5 -54.5t-122.5 -90.5t-82 -129.5t-30 -167q0 -84 27 -151.5t72 -111.5t104 -77.5t124 -54t129.5 -37.5t123.5 -31.5t104 -31t72 -42t27 -59.5z" />
    <glyph glyph-name="T" unicode="T" horiz-adv-x="1304" 
d="M850 0v1085h430v349h-1257v-349h430v-1085h397z" />
    <glyph glyph-name="U" unicode="U" horiz-adv-x="1552" 
d="M106 629q0 -327 173.5 -491.5t490.5 -164.5q155 0 277.5 39.5t211.5 119.5t136 208t47 299v795h-404v-807q0 -150 -68.5 -222.5t-195.5 -72.5q-126 0 -195 76.5t-69 228.5v797h-404v-805z" />
    <glyph glyph-name="V" unicode="V" horiz-adv-x="1501" 
d="M428 1434h-444l581 -1444h369l582 1444h-437l-325 -908z" />
    <glyph glyph-name="W" unicode="W" horiz-adv-x="2213" 
d="M664 604l-250 830h-420l479 -1444h346l287 825l289 -825h346l479 1444h-412l-249 -830l-277 834h-342z" />
    <glyph glyph-name="X" unicode="X" horiz-adv-x="1454" 
d="M477 1434h-457l472 -705l-492 -729h446l277 432l274 -432h457l-491 733l471 701h-447l-256 -404z" />
    <glyph glyph-name="Y" unicode="Y" horiz-adv-x="1460" 
d="M930 0v543l545 891h-445l-297 -523l-295 523h-452l544 -897v-537h400z" />
    <glyph glyph-name="Z" unicode="Z" horiz-adv-x="1277" 
d="M541 336l719 809v289h-1244v-336h695l-719 -809v-289h1268v336h-719z" />
    <glyph glyph-name="bracketleft" unicode="[" horiz-adv-x="940" 
d="M842 1169v265h-709v-1700h709v264h-361v1171h361z" />
    <glyph glyph-name="backslash" unicode="\" horiz-adv-x="1171" 
d="M-2 1589l885 -1851l291 51l-883 1845z" />
    <glyph glyph-name="bracketright" unicode="]" horiz-adv-x="942" 
d="M102 -2v-264h709v1700h-709v-265h361v-1171h-361z" />
    <glyph glyph-name="asciicircum" unicode="^" horiz-adv-x="940" 
d="M340 1432l-295 -422h268l156 198l156 -198h272l-295 422h-262z" />
    <glyph glyph-name="underscore" unicode="_" horiz-adv-x="1236" 
d="M0 -90v-238h1237v238h-1237z" />
    <glyph glyph-name="grave" unicode="`" horiz-adv-x="550" 
d="M-33 1503l301 -262h275l-213 379z" />
    <glyph glyph-name="a" unicode="a" horiz-adv-x="1251" 
d="M764 285q-77 -66 -178 -66q-61 0 -104.5 36.5t-43.5 92.5q0 58 48 95.5t132 37.5q85 0 146 -28v-168zM1143 637q0 242 -132.5 364.5t-416.5 122.5q-126 0 -227.5 -21.5t-210.5 -64.5v-274q165 63 336 63q139 0 205.5 -43.5t66.5 -138.5v-18q-118 43 -270 43
q-198 0 -316.5 -90.5t-118.5 -257.5q0 -162 106.5 -254.5t272.5 -92.5q197 0 324 140l381 -140v662z" />
    <glyph glyph-name="b" unicode="b" horiz-adv-x="1382" 
d="M496 135q130 -160 338 -160q98 0 187 40.5t156 114t106.5 184t39.5 241.5t-40 241t-108 183t-157 113.5t-187 40.5q-114 0 -191 -45.5t-144 -126.5v534h-390v-1520zM713 807q102 0 164.5 -73.5t62.5 -176.5q0 -114 -65 -185t-162 -71q-95 0 -159.5 71.5t-64.5 180.5
q0 111 64.5 182.5t159.5 71.5z" />
    <glyph glyph-name="c" unicode="c" horiz-adv-x="968" 
d="M885 1100q-82 30 -230 30q-170 0 -307.5 -79.5t-212 -211t-74.5 -286.5q0 -117 45.5 -224t123.5 -185t188 -124.5t233 -46.5q138 0 244 39v363q-91 -74 -203 -74q-106 0 -179 73t-73 179t69.5 178t176.5 72q104 0 199 -76v373z" />
    <glyph glyph-name="d" unicode="d" horiz-adv-x="1382" 
d="M1276 -25v1520h-389v-522q-65 74 -144.5 117t-193.5 43q-98 0 -187 -40.5t-156.5 -114t-107 -184t-39.5 -241.5t40 -241t108 -183t157 -113.5t187 -40.5q113 0 191 45.5t145 126.5zM668 301q-99 0 -162.5 76t-63.5 176q0 111 66.5 182.5t159.5 71.5q95 0 160 -71t65 -179
q0 -113 -64.5 -184.5t-160.5 -71.5z" />
    <glyph glyph-name="e" unicode="e" horiz-adv-x="1247" 
d="M1079 389q-71 -64 -197.5 -102.5t-236.5 -38.5q-118 0 -184 55l727 189q0 125 -36 237.5t-103 200.5t-173 140t-237 52q-251 0 -414.5 -162t-163.5 -409q0 -255 161.5 -420.5t416.5 -165.5q105 0 224 29t216 92v303zM430 563q0 49 9.5 94t30 86t58.5 66t88 25
q72 0 122 -47.5t69 -133.5l-377 -96v6z" />
    <glyph glyph-name="f" unicode="f" horiz-adv-x="817" 
d="M821 1479q-105 30 -237 30q-192 0 -296 -94t-104 -289v-30l-170 -299h170v-797h387v797h248v299h-315v26q0 50 49.5 77.5t110.5 27.5q80 0 157 -23v275z" />
    <glyph glyph-name="g" unicode="g" horiz-adv-x="1392" 
d="M680 401q-97 0 -161 58.5t-64 152.5t63 155.5t162 61.5q98 0 161.5 -60t63.5 -151q0 -94 -63.5 -155.5t-161.5 -61.5zM905 223q0 -140 -87 -207t-232 -67q-122 0 -253.5 46t-230.5 107v-307q131 -67 239.5 -97t248.5 -30q122 0 227.5 23.5t192.5 72t148.5 119t95.5 168.5
t34 217v840l-389 -131q-72 75 -150 115.5t-186 40.5q-100 0 -189.5 -36.5t-156.5 -102t-106 -163.5t-39 -215t38.5 -215t105 -164t156 -102.5t189.5 -36.5q115 0 195 44t149 124v-43z" />
    <glyph glyph-name="h" unicode="h" horiz-adv-x="1300" 
d="M1202 725q0 181 -101.5 294.5t-275.5 113.5q-192 0 -331 -177v539h-390v-1495h390v600q0 87 47 136.5t116 49.5t112.5 -48.5t43.5 -137.5v-600h389v725z" />
    <glyph glyph-name="i" unicode="i" horiz-adv-x="595" 
d="M494 0v1108h-390v-1108h390zM297 1597q-97 0 -158 -50.5t-61 -145.5t61.5 -147t157.5 -52t158.5 52t62.5 147q0 94 -62 145t-159 51z" />
    <glyph glyph-name="j" unicode="j" horiz-adv-x="735" 
d="M78 -319q88 -15 160 -15q196 0 295.5 89.5t99.5 293.5v1059h-389v-1042q0 -129 -88 -129q-28 0 -78 16v-272zM436 1597q-97 0 -158 -50.5t-61 -145.5t61.5 -147t157.5 -52t158.5 52t62.5 147q0 94 -62 145t-159 51z" />
    <glyph glyph-name="k" unicode="k" horiz-adv-x="1245" 
d="M494 737v758h-390v-1495h390v580l323 -580h428l-395 664l385 444h-440z" />
    <glyph glyph-name="l" unicode="l" horiz-adv-x="600" 
d="M494 0v1495h-390v-1495h390z" />
    <glyph glyph-name="m" unicode="m" horiz-adv-x="1988" 
d="M1503 0h389v727q0 171 -102.5 288.5t-273.5 117.5q-119 0 -208.5 -45.5t-164.5 -135.5q-43 89 -128 135t-188 46q-190 0 -333 -177l-390 152v-1108h390v602q0 88 44 136t113 48q68 0 110 -48t42 -136v-602h389v602q0 76 42.5 130t117.5 54q68 0 109.5 -47.5t41.5 -136.5
v-602z" />
    <glyph glyph-name="n" unicode="n" horiz-adv-x="1300" 
d="M1202 725q0 177 -103 292.5t-274 115.5q-189 0 -331 -181l-390 156v-1108h390v600q0 87 47 136.5t116 49.5q68 0 112 -49t44 -137v-600h389v725z" />
    <glyph glyph-name="o" unicode="o" horiz-adv-x="1345" 
d="M672 -27q124 0 236.5 44.5t196 121t132.5 186t49 232.5q0 157 -78 289t-218.5 209.5t-313.5 77.5q-130 0 -245 -46.5t-195.5 -124.5t-127.5 -185t-47 -224q0 -118 46 -224.5t126 -184.5t194.5 -124.5t244.5 -46.5zM672 803q100 0 167.5 -74.5t67.5 -175.5
q0 -103 -64 -176.5t-167 -73.5q-101 0 -168.5 74.5t-67.5 179.5q0 103 64.5 174.5t167.5 71.5z" />
    <glyph glyph-name="p" unicode="p" horiz-adv-x="1382" 
d="M496 135q64 -74 142.5 -117t195.5 -43q98 0 187 40.5t156 114t106.5 184t39.5 241.5t-40 241t-108 183t-157 113.5t-187 40.5q-114 0 -191 -45.5t-144 -126.5l-390 147v-1436h390v463zM713 807q102 0 164.5 -73.5t62.5 -176.5q0 -114 -65 -185t-162 -71
q-95 0 -159.5 71.5t-64.5 180.5q0 111 64.5 182.5t159.5 71.5z" />
    <glyph glyph-name="q" unicode="q" horiz-adv-x="1382" 
d="M887 -328h389v1436l-389 -135q-65 74 -144.5 117t-193.5 43q-98 0 -187 -40.5t-156.5 -114t-107 -184t-39.5 -241.5q0 -129 40 -239t107.5 -183.5t157 -114.5t187.5 -41q113 0 191 45.5t145 126.5v-475zM668 301q-99 0 -162.5 78t-63.5 178q0 108 66.5 179t159.5 71
q95 0 160 -71t65 -179q0 -109 -65.5 -182.5t-159.5 -73.5z" />
    <glyph glyph-name="r" unicode="r" horiz-adv-x="854" 
d="M844 1126h-19q-124 0 -202.5 -61.5t-128.5 -179.5l-390 223v-1108h390v344q0 188 81 280.5t236 92.5h33v409z" />
    <glyph glyph-name="s" unicode="s" horiz-adv-x="1024" 
d="M608 311q0 -23 -24.5 -38.5t-50.5 -20t-50 -4.5q-85 0 -202 41.5t-213 105.5v-317q130 -52 230.5 -77.5t209.5 -25.5q205 0 329 96.5t124 264.5q0 78 -31.5 138.5t-82 96.5t-111.5 63t-122 45t-111.5 34t-82 37.5t-31.5 50.5q0 27 23 42t67 15q68 0 184.5 -36.5
t202.5 -84.5v314q-113 44 -193 61.5t-190 17.5q-197 0 -321.5 -97.5t-124.5 -268.5q0 -71 24.5 -127.5t64.5 -92.5t91.5 -64t105 -44t105 -31t91.5 -26t64.5 -28.5t24.5 -39.5z" />
    <glyph glyph-name="t" unicode="t" horiz-adv-x="903" 
d="M233 344q0 -367 373 -367q153 0 271 64v305q-82 -37 -148 -37q-55 0 -80.5 26t-25.5 85v375h258v313h-258v342l-603 -655h213v-451z" />
    <glyph glyph-name="u" unicode="u" horiz-adv-x="1292" 
d="M98 383q0 -187 96.5 -297.5t280.5 -110.5q112 0 196.5 42t135.5 110l389 -152v1133h-389v-600q0 -88 -45.5 -137t-116.5 -49q-72 0 -115 48.5t-43 137.5v600h-389v-725z" />
    <glyph glyph-name="v" unicode="v" horiz-adv-x="1218" 
d="M784 -8l443 1116h-404l-213 -647l-213 647h-409l442 -1116h354z" />
    <glyph glyph-name="w" unicode="w" horiz-adv-x="1669" 
d="M358 1108h-381l338 -1116h334l185 575l180 -575h336l342 1116h-375l-150 -561l-172 565h-321l-170 -561z" />
    <glyph glyph-name="x" unicode="x" horiz-adv-x="1179" 
d="M375 559l-373 -559h410l174 285l172 -285h418l-373 561l364 547h-411l-164 -272l-164 272h-420z" />
    <glyph glyph-name="y" unicode="y" horiz-adv-x="1214" 
d="M-12 1108l467 -1120l-101 -316h330l541 1436h-400l-209 -709l-221 709h-407z" />
    <glyph glyph-name="z" unicode="z" horiz-adv-x="1097" 
d="M545 309l514 543v256h-1010v-309h494l-512 -543v-256h1028v309h-514z" />
    <glyph glyph-name="braceleft" unicode="{" horiz-adv-x="950" 
d="M72 459q52 0 87 -3t75 -14.5t63 -32.5t37.5 -59t11.5 -92q-4 -108 4 -184t35 -134t64 -94t104 -63t140.5 -42t187.5 -30v240q-35 6 -63 15.5t-48 20t-35 26.5t-24.5 30.5t-15 36.5t-7.5 39.5t-2 44.5t1 46t2.5 51t2.5 52q8 208 -229 275q50 14 87 32.5t61.5 37t40.5 47
t24 50t11 59.5t2.5 62.5t-2 72t-1.5 75.5q0 97 47 139.5t148 61.5v239q-206 -30 -300 -64q-230 -84 -241 -288v-20q0 -30 1.5 -68.5t3 -63t1 -55t-3.5 -49.5t-10 -41t-20.5 -35.5t-33.5 -26.5t-49 -20t-68 -11.5t-89 -4.5v-258z" />
    <glyph glyph-name="bar" unicode="|" horiz-adv-x="1402" 
d="M850 1634h-297v-1896h297v1896z" />
    <glyph glyph-name="braceright" unicode="}" horiz-adv-x="950" 
d="M881 717q-55 0 -97 4.5t-71.5 16t-49.5 23.5t-31.5 34.5t-17.5 41.5t-6.5 52.5t0 59t2.5 68.5t2 75q0 61 -18.5 111.5t-48 85.5t-74 62.5t-89.5 44.5t-102 31t-104 21.5t-102 15.5h-2v-239q39 -6 69.5 -16t51 -25t35 -30t22.5 -38t12.5 -41t4.5 -48t-1 -50.5t-3 -56.5
t-3 -58q-8 -208 229 -274q-237 -68 -229 -275q8 -137 7 -159q-4 -109 -69 -157q-45 -32 -126 -46v-240q50 7 85.5 12t84 15t83 21t76 28t70 37t57 48.5t46 62t28 77t10.5 94.5q0 28 -1 66t-2 60.5t0 52t5 46.5t12 38.5t21.5 33t33.5 24t48.5 18.5t66 10t85.5 4v258z" />
    <glyph glyph-name="asciitilde" unicode="~" horiz-adv-x="1017" 
d="M754 821q-22 -51 -44 -72.5t-61 -21.5q-35 0 -87.5 20t-114 40t-117.5 20q-96 0 -153.5 -62t-92.5 -213l180 -81q22 52 43 73t60 21t147.5 -40t173.5 -40q188 0 244 266z" />
    <glyph glyph-name="uni00A0" unicode="&#xa0;" horiz-adv-x="573" 
 />
    <glyph glyph-name="exclamdown" unicode="&#xa1;" horiz-adv-x="698" 
d="M127 -367h442v174l-118 793h-205l-119 -793v-174zM350 698q96 0 157.5 51t61.5 146t-61.5 147t-157.5 52t-158.5 -52t-62.5 -147t62 -146t159 -51z" />
    <glyph glyph-name="cent" unicode="&#xa2;" horiz-adv-x="1024" 
d="M518 487q-115 73 -115 240q0 113 56.5 189.5t150.5 89.5zM950 1235q-40 22 -73 33l30 178h-235l-25 -143q-167 0 -301 -77.5t-207 -208.5t-73 -290q0 -186 106 -334t277 -205l-35 -200h235l29 166q168 9 280 75v340q-45 -51 -109.5 -83.5t-141.5 -32.5l98 544
q76 -16 145 -100v338z" />
    <glyph glyph-name="sterling" unicode="&#xa3;" horiz-adv-x="1224" 
d="M1042 539v278h-442v105q0 86 43.5 134t120.5 48q98 0 186 -92l264 239q-178 207 -477 207q-251 0 -391.5 -144t-140.5 -392v-105h-154v-278h154v-539h995v313h-600v226h442z" />
    <glyph glyph-name="currency" unicode="&#xa4;" horiz-adv-x="1472" 
d="M1378 1147l-164 162l-186 -183q-129 80 -289 80q-156 0 -290 -82l-193 185l-160 -162l187 -186q-82 -122 -82 -287q0 -161 86 -289l-191 -192l160 -162l199 192q134 -82 284 -82q148 0 285 80l193 -190l161 162l-186 186q86 133 86 295q0 155 -84 289zM457 674
q0 126 79.5 211.5t202.5 85.5q125 0 204 -85.5t79 -211.5t-79 -211.5t-204 -85.5t-203.5 85.5t-78.5 211.5z" />
    <glyph glyph-name="yen" unicode="&#xa5;" horiz-adv-x="1406" 
d="M506 436h-377v-246h377v-190h393v190h377v246h-377l21 103h356v245h-285l428 650h-442l-270 -471l-271 471h-450l426 -650h-283v-245h356z" />
    <glyph glyph-name="brokenbar" unicode="&#xa6;" horiz-adv-x="1447" 
d="M895 1366h-342v-709h342v709zM895 354l-342 2v-710h342v708z" />
    <glyph glyph-name="section" unicode="&#xa7;" horiz-adv-x="1216" 
d="M932 1395q-145 65 -328 65q-227 0 -350 -93t-123 -237q0 -133 98 -206q-88 -30 -138 -86.5t-50 -130.5q0 -216 469 -310q197 -41 197 -98q0 -61 -111 -61q-165 0 -334 120v-321q151 -64 328 -64q226 0 348.5 94.5t122.5 237.5q0 62 -25.5 115.5t-70.5 89.5
q85 31 135.5 86.5t50.5 130.5q0 44 -16 81t-49 66t-72.5 52.5t-96.5 43.5t-109.5 35t-123.5 31q-107 24 -152 47.5t-45 51.5q0 61 109 61q166 0 336 -121v320zM444 825q42 0 134.5 -16.5t183 -52t90.5 -76.5q0 -31 -28.5 -51.5t-75.5 -20.5q-42 0 -106.5 9.5t-134 27
t-118.5 48.5t-49 67q0 32 28 48.5t76 16.5z" />
    <glyph glyph-name="dieresis" unicode="&#xa8;" horiz-adv-x="806" 
d="M172 1638q-81 0 -130.5 -46.5t-49.5 -127.5q0 -83 51 -129.5t129 -46.5t129 46.5t51 129.5t-50.5 128.5t-129.5 45.5zM635 1638q-81 0 -130.5 -46.5t-49.5 -127.5q0 -83 51 -129.5t129 -46.5t129 46.5t51 129.5t-50.5 128.5t-129.5 45.5z" />
    <glyph glyph-name="copyright" unicode="&#xa9;" horiz-adv-x="1574" 
d="M47 719q0 -152 58.5 -291t157.5 -239t236 -159t287 -59q153 0 292 61t237.5 163.5t156.5 240.5t58 287q0 148 -57.5 284t-155.5 236t-235.5 159.5t-290.5 59.5t-292 -60t-237.5 -160.5t-156.5 -237.5t-58 -285zM1444 723q0 -184 -87 -338t-238.5 -243t-332.5 -89
q-136 0 -258 53t-208 143t-136.5 212.5t-50.5 257.5q0 178 85.5 329.5t237.5 241.5t335 90t333.5 -89t235 -239.5t84.5 -328.5zM1018 623q-82 -74 -184 -74q-72 0 -125.5 52t-53.5 126t53.5 125t131.5 51q90 0 172 -74v265q-77 41 -183 41q-184 0 -313 -121t-129 -287
q0 -109 58.5 -203.5t158 -150.5t213.5 -56q99 0 201 48v258z" />
    <glyph glyph-name="ordfeminine" unicode="&#xaa;" horiz-adv-x="724" 
d="M53 1036q0 -91 57.5 -140.5t147.5 -49.5q110 0 178 78v-66h213v348q0 138 -71 204.5t-228 66.5q-137 0 -246 -47l43 -152q84 35 168 35q123 0 123 -101v-8q-57 23 -145 23q-114 0 -177 -47.5t-63 -143.5zM47 743v-157h612v157h-612zM440 1081q0 -44 -30.5 -72t-75.5 -28
q-32 0 -53 19.5t-21 50.5q0 33 26 53t70 20q38 0 84 -16v-27z" />
    <glyph glyph-name="guillemotleft" unicode="&#xab;" horiz-adv-x="1345" 
d="M711 201l-267 348l267 350l-289 125l-356 -475l354 -473zM1274 201l-266 348l266 350l-289 125l-356 -475l354 -473z" />
    <glyph glyph-name="logicalnot" unicode="&#xac;" horiz-adv-x="1404" 
d="M1243 256v596h-1081v-285h780v-311h301z" />
    <glyph glyph-name="uni00AD" unicode="&#xad;" horiz-adv-x="759" 
d="M717 387v342h-672v-342h672z" />
    <glyph glyph-name="registered" unicode="&#xae;" horiz-adv-x="1560" 
d="M782 1473q-152 0 -290 -60t-237 -160.5t-157.5 -238t-58.5 -287.5q0 -151 57.5 -288.5t155.5 -237.5t235.5 -159.5t290.5 -59.5t292 60t237.5 161t156.5 238t58 286q0 201 -97.5 372.5t-268 272.5t-374.5 101zM778 63q-182 0 -332.5 89.5t-235.5 241t-85 329.5
q0 136 50.5 259t137 213t209 143t260.5 53q183 0 333.5 -89t235.5 -240.5t85 -330.5q0 -182 -85.5 -335t-237 -243t-335.5 -90zM455 1143v-789h219v240h96l160 -240h252l-189 275q76 33 119 95t43 146q0 123 -86 198t-248 75h-366zM674 764v190h141q55 0 88 -26t33 -68
t-32.5 -69t-86.5 -27h-143z" />
    <glyph glyph-name="macron" unicode="&#xaf;" horiz-adv-x="884" 
d="M823 1186v239h-760v-239h760z" />
    <glyph glyph-name="degree" unicode="&#xb0;" horiz-adv-x="870" 
d="M436 805q151 0 262 107.5t111 256.5q0 148 -112 255.5t-261 107.5t-261 -107.5t-112 -255.5q0 -149 110.5 -256.5t262.5 -107.5zM436 1343q73 0 122.5 -50.5t49.5 -123.5t-49.5 -124.5t-122.5 -51.5t-122.5 51.5t-49.5 124.5t50 123.5t122 50.5z" />
    <glyph glyph-name="plusminus" unicode="&#xb1;" horiz-adv-x="1302" 
d="M166 926v-264h352v-308h273v308h346v264h-346v295h-273v-295h-352zM166 264v-264h971v264h-971z" />
    <glyph glyph-name="uni00B2" unicode="&#xb2;" horiz-adv-x="880" 
d="M37 584h782v207l-323 -17l82 53q110 74 171.5 157.5t61.5 191.5q0 130 -105.5 211t-248.5 81q-176 0 -265.5 -83.5t-103.5 -247.5h264q0 54 22.5 92.5t76.5 38.5q44 0 71 -29t27 -74q0 -20 -7 -42t-15.5 -40t-26 -42t-29.5 -38.5t-35 -38t-32.5 -32.5t-33 -30.5
t-26.5 -24.5z" />
    <glyph glyph-name="uni00B3" unicode="&#xb3;" horiz-adv-x="815" 
d="M20 868q7 -142 112.5 -219.5t264.5 -77.5q97 0 179 28.5t137 93t55 155.5q0 67 -36.5 122.5t-102.5 84.5q49 25 75.5 72.5t26.5 103.5q0 78 -49.5 135.5t-122.5 84t-156 26.5q-66 0 -125 -17t-107 -49.5t-79 -85t-37 -119.5h256q0 35 21 61.5t65 26.5q36 0 58 -23t22 -59
q0 -42 -27 -67t-67 -25h-25v-149q8 0 24 1t24 1q45 0 74.5 -27.5t29.5 -73.5q0 -51 -31.5 -83.5t-79.5 -32.5q-52 0 -83 31.5t-33 80.5h-263z" />
    <glyph glyph-name="acute" unicode="&#xb4;" horiz-adv-x="550" 
d="M223 1620l-213 -379h275l301 262z" />
    <glyph glyph-name="uni00B5" unicode="&#xb5;" horiz-adv-x="1298" 
d="M485 -328h-389v1436h389v-600q0 -89 43 -137.5t115 -48.5q71 0 116.5 49t45.5 137v600h389v-1108l-389 152q-62 -177 -176 -177q-48 0 -86.5 29t-57.5 70v-402z" />
    <glyph glyph-name="paragraph" unicode="&#xb6;" horiz-adv-x="1312" 
d="M471 -231h229v1468h127v-1468h230v1468h112v209h-610q-226 0 -348.5 -111.5t-122.5 -306.5q0 -166 106 -271t277 -126v-862z" />
    <glyph glyph-name="periodcentered" unicode="&#xb7;" horiz-adv-x="714" 
d="M356 999q-105 0 -167 -59t-62 -164q0 -107 63.5 -166t165.5 -59t167 59t65 166t-65 165t-167 58z" />
    <glyph glyph-name="cedilla" unicode="&#xb8;" horiz-adv-x="761" 
d="M422 -139l86 139h-143l-144 -225l64 -54q49 21 92 21q37 0 58.5 -13.5t21.5 -37.5q0 -29 -35.5 -44.5t-73.5 -15.5q-74 0 -147 33l-54 -115q109 -53 222 -53q46 0 88.5 10t82 31.5t63.5 61.5t24 94q0 79 -57.5 123.5t-131.5 44.5h-16z" />
    <glyph glyph-name="uni00B9" unicode="&#xb9;" horiz-adv-x="710" 
d="M229 584h263v866l-185 -4q-49 0 -127 -2t-84 -2v-209q26 1 66.5 2t66.5 2v-653z" />
    <glyph glyph-name="ordmasculine" unicode="&#xba;" horiz-adv-x="757" 
d="M47 1165q0 -135 97.5 -226t232.5 -91q143 0 238.5 93.5t95.5 225.5t-94.5 224t-235.5 92t-237.5 -93.5t-96.5 -224.5zM84 750v-158h590v158h-590zM502 1165q0 -55 -33 -95t-88 -40q-54 0 -89.5 40t-35.5 97t33.5 95t87.5 38q55 0 90 -39t35 -96z" />
    <glyph glyph-name="guillemotright" unicode="&#xbb;" horiz-adv-x="1349" 
d="M340 549l-266 -348l291 -125l354 473l-357 475l-288 -125zM905 549l-266 -348l291 -125l354 473l-356 475l-289 -125z" />
    <glyph glyph-name="onequarter" unicode="&#xbc;" horiz-adv-x="1744" 
d="M1163 344q17 26 85.5 124.5t99.5 154.5q2 -2 6 -2l-2 -13q-3 -26 -5 -67t-2 -71t0.5 -73.5t0.5 -50.5q-60 0 -91 -2q-61 0 -92 -2v2zM901 162q145 0 445 4l-7 -164h248l-4 164q78 -4 113 -4v188l-109 -4v531h-287l-399 -566v-149zM494 -211l907 1897h-316l-907 -1897h316
zM168 584h262v866l-184 -4q-49 0 -127 -2t-84 -2v-209q26 1 66.5 2t66.5 2v-653z" />
    <glyph glyph-name="onehalf" unicode="&#xbd;" horiz-adv-x="1849" 
d="M498 -211l907 1897h-315l-908 -1897h316zM168 584h262v866l-184 -4q-49 0 -127 -2t-84 -2v-209q26 1 66.5 2t66.5 2v-653zM995 -2h783v207l-324 -17l82 54q110 74 171.5 157.5t61.5 190.5q0 130 -105.5 211.5t-248.5 81.5q-176 0 -265 -84t-103 -248h264q0 54 22 92.5
t76 38.5q44 0 71 -28.5t27 -73.5q0 -18 -4.5 -36.5t-14.5 -38t-19.5 -35.5t-26.5 -36.5t-27.5 -33t-31 -33t-28.5 -28t-29 -27t-23 -21.5z" />
    <glyph glyph-name="threequarters" unicode="&#xbe;" horiz-adv-x="2072" 
d="M57 868q7 -142 112.5 -219.5t264.5 -77.5q97 0 179 28.5t137 93t55 155.5q0 67 -36.5 122.5t-102.5 84.5q49 25 75.5 72.5t26.5 103.5q0 78 -49.5 135.5t-122.5 84t-156 26.5q-66 0 -125 -17t-107 -49.5t-79 -85t-37 -119.5h256q0 35 21 61.5t65 26.5q36 0 58 -23t22 -59
q0 -42 -27 -67t-67 -25h-25v-149q8 0 23.5 1t23.5 1q45 0 75 -27.5t30 -73.5q0 -51 -31.5 -83.5t-79.5 -32.5q-53 0 -84 31.5t-33 80.5h-262zM813 -211l907 1897h-315l-907 -1897h315zM1491 344q16 24 84.5 123.5t99.5 155.5q2 -2 6 -2l-2 -13q-3 -26 -5 -67t-2 -71
t0.5 -73.5t0.5 -50.5q-59 0 -90 -2q-61 0 -92 -2v2zM1229 162q144 0 444 4l-6 -164h248l-4 164q78 -4 112 -4v188l-108 -4v531h-287l-399 -566v-149z" />
    <glyph glyph-name="questiondown" unicode="&#xbf;" horiz-adv-x="1073" 
d="M997 131q-201 -188 -366 -188q-66 0 -115 27.5t-49 80.5q0 77 108 158q40 31 67 57.5t55 65.5t42.5 88t14.5 108v88h-357v-63q0 -57 -17.5 -86t-72.5 -70q-62 -49 -94 -77.5t-69 -74.5t-52.5 -98.5t-15.5 -119.5q0 -129 69 -225.5t177 -143.5t237 -47q289 0 438 196v324z
M561 694q96 0 157.5 51t61.5 146t-61.5 147t-157.5 52t-158.5 -52t-62.5 -147t62 -146t159 -51z" />
    <glyph glyph-name="Agrave" unicode="&#xc0;" horiz-adv-x="1570" 
d="M504 256h553l104 -256h426l-610 1444h-383l-610 -1444h417zM621 565l161 408l160 -408h-321zM371 1841l301 -262h274l-213 379z" />
    <glyph glyph-name="Aacute" unicode="&#xc1;" horiz-adv-x="1570" 
d="M504 256h553l104 -256h426l-610 1444h-383l-610 -1444h417zM621 565l161 408l160 -408h-321zM889 1958l-213 -379h274l301 262z" />
    <glyph glyph-name="Acircumflex" unicode="&#xc2;" horiz-adv-x="1570" 
d="M504 256h553l104 -256h426l-610 1444h-383l-610 -1444h417zM621 565l161 408l160 -408h-321zM1167 1593l-286 381h-203l-287 -381h268l121 125l121 -125h266z" />
    <glyph glyph-name="Atilde" unicode="&#xc3;" horiz-adv-x="1570" 
d="M504 256h553l104 -256h426l-610 1444h-383l-610 -1444h417zM621 565l161 408l160 -408h-321zM608 1544q17 56 32 76t38 20q22 0 101.5 -35.5t133.5 -35.5q174 0 258 297l-208 39q-22 -93 -64 -93q-21 0 -105 36t-139 36q-179 0 -258 -303z" />
    <glyph glyph-name="Adieresis" unicode="&#xc4;" horiz-adv-x="1570" 
d="M504 256h553l104 -256h426l-610 1444h-383l-610 -1444h417zM621 565l161 408l160 -408h-321zM555 1976q-81 0 -130.5 -46.5t-49.5 -127.5q0 -83 51 -129.5t129 -46.5t129 46.5t51 129.5t-50.5 128.5t-129.5 45.5zM1018 1976q-81 0 -130.5 -46.5t-49.5 -127.5
q0 -83 51 -129.5t129 -46.5t129 46.5t51 129.5t-50.5 128.5t-129.5 45.5z" />
    <glyph glyph-name="Aring" unicode="&#xc5;" horiz-adv-x="1570" 
d="M504 256h553l104 -256h426l-610 1444h-383l-610 -1444h417zM621 565l161 408l160 -408h-321zM784 1358q106 0 180 72t74 176q0 101 -74.5 172t-179.5 71q-101 0 -176.5 -72t-75.5 -173q0 -103 75.5 -174.5t176.5 -71.5zM784 1653q22 0 36 -13.5t14 -35.5
q0 -23 -13.5 -36.5t-36.5 -13.5q-20 0 -33.5 14.5t-13.5 37.5q0 19 13.5 33t33.5 14z" />
    <glyph glyph-name="AE" unicode="&#xc6;" horiz-adv-x="2062" 
d="M594 1434l-610 -1434h417l121 256h389v-256h1168v338h-774v227h692v314h-692v217h763v338h-1474zM911 565h-272l272 627v-627z" />
    <glyph glyph-name="Ccedilla" unicode="&#xc7;" horiz-adv-x="1361" 
d="M1274 508q-189 -174 -406 -174q-178 0 -280.5 109t-102.5 278q0 162 103.5 270.5t279.5 108.5q117 0 220 -46t176 -122v403q-183 127 -433 127q-160 0 -300.5 -58t-240 -157.5t-157 -237t-57.5 -292.5q0 -210 99 -381.5t268 -268t372 -96.5q257 0 459 140v397zM762 -139
l86 139h-143l-144 -225l64 -54q50 21 92 21q37 0 58.5 -13.5t21.5 -37.5q0 -29 -35.5 -44.5t-73.5 -15.5q-74 0 -147 33l-54 -115q109 -53 222 -53q46 0 88.5 10t82 31.5t63.5 61.5t24 94q0 79 -57.5 123.5t-131.5 44.5h-16z" />
    <glyph glyph-name="Egrave" unicode="&#xc8;" horiz-adv-x="1382" 
d="M512 338v227h688v314h-688v217h760v338h-1153v-1434h1163v338h-770zM305 1841l301 -262h275l-213 379z" />
    <glyph glyph-name="Eacute" unicode="&#xc9;" horiz-adv-x="1382" 
d="M512 338v227h688v314h-688v217h760v338h-1153v-1434h1163v338h-770zM717 1958l-213 -379h274l301 262z" />
    <glyph glyph-name="Ecircumflex" unicode="&#xca;" horiz-adv-x="1382" 
d="M512 338v227h688v314h-688v217h760v338h-1153v-1434h1163v338h-770zM1096 1593l-287 381h-203l-287 -381h269l121 125l120 -125h267z" />
    <glyph glyph-name="Edieresis" unicode="&#xcb;" horiz-adv-x="1382" 
d="M512 338v227h688v314h-688v217h760v338h-1153v-1434h1163v338h-770zM457 1976q-81 0 -131 -47t-50 -127q0 -83 51.5 -129.5t129.5 -46.5t129 46.5t51 129.5t-50.5 128.5t-129.5 45.5zM920 1976q-81 0 -131 -47t-50 -127q0 -83 51.5 -129.5t129.5 -46.5t129 46.5t51 129.5
t-50.5 128.5t-129.5 45.5z" />
    <glyph glyph-name="Igrave" unicode="&#xcc;" horiz-adv-x="636" 
d="M518 0v1434h-399v-1434h399zM-90 1841l301 -262h274l-213 379z" />
    <glyph glyph-name="Iacute" unicode="&#xcd;" horiz-adv-x="636" 
d="M518 0v1434h-399v-1434h399zM360 1958l-213 -379h275l301 262z" />
    <glyph glyph-name="Icircumflex" unicode="&#xce;" horiz-adv-x="636" 
d="M518 0v1434h-399v-1434h399zM713 1593l-287 381h-203l-286 -381h268l121 125l120 -125h267z" />
    <glyph glyph-name="Idieresis" unicode="&#xcf;" horiz-adv-x="636" 
d="M518 0v1434h-399v-1434h399zM88 1976q-81 0 -130.5 -46.5t-49.5 -127.5q0 -83 51 -129.5t129 -46.5t129 46.5t51 129.5t-50.5 128.5t-129.5 45.5zM551 1976q-81 0 -130.5 -46.5t-49.5 -127.5q0 -83 51 -129.5t129 -46.5t129 46.5t51 129.5t-50.5 128.5t-129.5 45.5z" />
    <glyph glyph-name="Eth" unicode="&#xd0;" horiz-adv-x="1605" 
d="M166 1434v-1434h545q190 0 345 55t258 152t158.5 230t55.5 288q0 156 -54.5 286.5t-156.5 224t-255.5 146t-342.5 52.5h-553zM563 352v729h162q180 0 287.5 -96.5t107.5 -265.5q0 -171 -107.5 -269t-287.5 -98h-162zM686 510v342h-672v-342h672z" />
    <glyph glyph-name="Ntilde" unicode="&#xd1;" horiz-adv-x="1593" 
d="M1079 676l-590 758h-370v-1434h393v786l612 -786h349v1434h-394v-758zM635 1544q17 56 32 76t38 20q22 0 101.5 -35.5t133.5 -35.5q174 0 258 297l-209 39q-22 -93 -63 -93q-21 0 -105 36t-139 36q-179 0 -258 -303z" />
    <glyph glyph-name="Ograve" unicode="&#xd2;" horiz-adv-x="1695" 
d="M846 -29q157 0 300 58t247 157.5t165.5 239t61.5 295.5q0 203 -100 372.5t-277.5 269t-394.5 99.5q-163 0 -307 -59t-245.5 -159t-160.5 -237.5t-59 -289.5q0 -153 58.5 -290.5t160 -237.5t245.5 -159t306 -59zM846 1104q159 0 262.5 -114.5t103.5 -272.5
q0 -103 -44.5 -191t-129 -142t-190.5 -54q-104 0 -189 54.5t-130.5 144t-45.5 192.5q0 159 102 271t261 112zM403 1841l302 -262h274l-213 379z" />
    <glyph glyph-name="Oacute" unicode="&#xd3;" horiz-adv-x="1695" 
d="M846 -29q157 0 300 58t247 157.5t165.5 239t61.5 295.5q0 203 -100 372.5t-277.5 269t-394.5 99.5q-163 0 -307 -59t-245.5 -159t-160.5 -237.5t-59 -289.5q0 -153 58.5 -290.5t160 -237.5t245.5 -159t306 -59zM846 1104q159 0 262.5 -114.5t103.5 -272.5
q0 -103 -44.5 -191t-129 -142t-190.5 -54q-104 0 -189 54.5t-130.5 144t-45.5 192.5q0 159 102 271t261 112zM1010 1958l-213 -379h274l301 262z" />
    <glyph glyph-name="Ocircumflex" unicode="&#xd4;" horiz-adv-x="1695" 
d="M846 -29q157 0 300 58t247 157.5t165.5 239t61.5 295.5q0 203 -100 372.5t-277.5 269t-394.5 99.5q-163 0 -307 -59t-245.5 -159t-160.5 -237.5t-59 -289.5q0 -153 58.5 -290.5t160 -237.5t245.5 -159t306 -59zM846 1104q159 0 262.5 -114.5t103.5 -272.5
q0 -103 -44.5 -191t-129 -142t-190.5 -54q-104 0 -189 54.5t-130.5 144t-45.5 192.5q0 159 102 271t261 112zM1231 1593l-287 381h-203l-286 -381h268l121 125l121 -125h266z" />
    <glyph glyph-name="Otilde" unicode="&#xd5;" horiz-adv-x="1695" 
d="M846 -29q157 0 300 58t247 157.5t165.5 239t61.5 295.5q0 203 -100 372.5t-277.5 269t-394.5 99.5q-163 0 -307 -59t-245.5 -159t-160.5 -237.5t-59 -289.5q0 -153 58.5 -290.5t160 -237.5t245.5 -159t306 -59zM846 1104q159 0 262.5 -114.5t103.5 -272.5
q0 -103 -44.5 -191t-129 -142t-190.5 -54q-104 0 -189 54.5t-130.5 144t-45.5 192.5q0 159 102 271t261 112zM670 1544q17 56 31.5 76t37.5 20q22 0 102 -35.5t134 -35.5q174 0 258 297l-209 39q-22 -93 -63 -93q-21 0 -105 36t-139 36q-179 0 -258 -303z" />
    <glyph glyph-name="Odieresis" unicode="&#xd6;" horiz-adv-x="1695" 
d="M846 -29q157 0 300 58t247 157.5t165.5 239t61.5 295.5q0 203 -100 372.5t-277.5 269t-394.5 99.5q-163 0 -307 -59t-245.5 -159t-160.5 -237.5t-59 -289.5q0 -153 58.5 -290.5t160 -237.5t245.5 -159t306 -59zM846 1104q159 0 262.5 -114.5t103.5 -272.5
q0 -103 -44.5 -191t-129 -142t-190.5 -54q-104 0 -189 54.5t-130.5 144t-45.5 192.5q0 159 102 271t261 112zM616 1976q-81 0 -130.5 -46.5t-49.5 -127.5q0 -83 51 -129.5t129 -46.5t129.5 46.5t51.5 129.5t-51 128.5t-130 45.5zM1079 1976q-81 0 -130.5 -46.5t-49.5 -127.5
q0 -83 51 -129.5t129 -46.5t129.5 46.5t51.5 129.5t-51 128.5t-130 45.5z" />
    <glyph glyph-name="multiply" unicode="&#xd7;" horiz-adv-x="1433" 
d="M504 717l-320 -318l217 -215l318 318l315 -318l215 215l-315 318l315 317l-215 215l-315 -317l-318 317l-217 -215z" />
    <glyph glyph-name="Oslash" unicode="&#xd8;" horiz-adv-x="1675" 
d="M285 -141l258 -121l119 252q104 -19 174 -19q162 0 306 59.5t246.5 160.5t162 239.5t59.5 290.5q0 185 -81.5 340t-230.5 260l93 192l-256 121l-95 -196q-99 24 -202 24q-163 0 -307 -59t-245.5 -159t-160.5 -237.5t-59 -289.5q0 -193 88 -354t245 -267zM569 453
q-96 110 -96 268q0 162 102.5 272.5t260.5 110.5q29 0 43 -2zM1124 956q78 -108 78 -239q0 -163 -102.5 -275t-261.5 -112h-13z" />
    <glyph glyph-name="Ugrave" unicode="&#xd9;" horiz-adv-x="1552" 
d="M106 629q0 -327 173.5 -491.5t490.5 -164.5q155 0 277.5 39.5t211.5 119.5t136 208t47 299v795h-404v-807q0 -150 -68.5 -222.5t-195.5 -72.5q-126 0 -195 76.5t-69 228.5v797h-404v-805zM356 1841l301 -262h275l-213 379z" />
    <glyph glyph-name="Uacute" unicode="&#xda;" horiz-adv-x="1552" 
d="M106 629q0 -327 173.5 -491.5t490.5 -164.5q155 0 277.5 39.5t211.5 119.5t136 208t47 299v795h-404v-807q0 -150 -68.5 -222.5t-195.5 -72.5q-126 0 -195 76.5t-69 228.5v797h-404v-805zM842 1958l-213 -379h274l301 262z" />
    <glyph glyph-name="Ucircumflex" unicode="&#xdb;" horiz-adv-x="1552" 
d="M106 629q0 -327 173.5 -491.5t490.5 -164.5q155 0 277.5 39.5t211.5 119.5t136 208t47 299v795h-404v-807q0 -150 -68.5 -222.5t-195.5 -72.5q-126 0 -195 76.5t-69 228.5v797h-404v-805zM1159 1593l-287 381h-202l-287 -381h268l121 125l121 -125h266z" />
    <glyph glyph-name="Udieresis" unicode="&#xdc;" horiz-adv-x="1552" 
d="M106 629q0 -327 173.5 -491.5t490.5 -164.5q155 0 277.5 39.5t211.5 119.5t136 208t47 299v795h-404v-807q0 -150 -68.5 -222.5t-195.5 -72.5q-126 0 -195 76.5t-69 228.5v797h-404v-805zM541 1976q-81 0 -131 -47t-50 -127q0 -83 51.5 -129.5t129.5 -46.5t129 46.5
t51 129.5t-50.5 128.5t-129.5 45.5zM1004 1976q-81 0 -131 -47t-50 -127q0 -83 51.5 -129.5t129.5 -46.5t129 46.5t51 129.5t-50.5 128.5t-129.5 45.5z" />
    <glyph glyph-name="Yacute" unicode="&#xdd;" horiz-adv-x="1460" 
d="M930 0v543l545 891h-445l-297 -523l-295 523h-452l544 -897v-537h400zM803 1958l-213 -379h274l301 262z" />
    <glyph glyph-name="Thorn" unicode="&#xde;" horiz-adv-x="1234" 
d="M119 1446v-1446h393v276h205q223 0 347 121.5t124 345.5q0 126 -40 221.5t-113.5 154t-171.5 87.5t-220 29h-131v211h-393zM512 575v345h51q42 0 71.5 -2.5t62 -12.5t52 -27.5t32 -48.5t12.5 -75q0 -56 -16.5 -92.5t-49 -55t-69.5 -25t-91 -6.5h-55z" />
    <glyph glyph-name="germandbls" unicode="&#xdf;" horiz-adv-x="1214" 
d="M401 989q0 94 46 146.5t118 52.5q64 0 103 -41.5t39 -112.5q0 -72 -47 -128t-121 -91v-207q106 -8 167.5 -52.5t61.5 -117.5t-62 -117t-167 -49v-278q81 -8 165 1t165 38.5t144.5 76.5t102.5 121.5t39 165.5q0 71 -24.5 131t-67 101.5t-91.5 70t-104 45.5q99 47 157 132
t58 208q0 183 -140 305.5t-372 122.5q-266 0 -411.5 -144t-145.5 -388v-981h387v989z" />
    <glyph glyph-name="agrave" unicode="&#xe0;" horiz-adv-x="1251" 
d="M764 285q-77 -66 -178 -66q-61 0 -104.5 36.5t-43.5 92.5q0 58 48 95.5t132 37.5q85 0 146 -28v-168zM1143 637q0 242 -132.5 364.5t-416.5 122.5q-126 0 -227.5 -21.5t-210.5 -64.5v-274q165 63 336 63q139 0 205.5 -43.5t66.5 -138.5v-18q-118 43 -270 43
q-198 0 -316.5 -90.5t-118.5 -257.5q0 -162 106.5 -254.5t272.5 -92.5q197 0 324 140l381 -140v662zM195 1524l301 -262h274l-213 378z" />
    <glyph glyph-name="aacute" unicode="&#xe1;" horiz-adv-x="1251" 
d="M764 285q-77 -66 -178 -66q-61 0 -104.5 36.5t-43.5 92.5q0 58 48 95.5t132 37.5q85 0 146 -28v-168zM1143 637q0 242 -132.5 364.5t-416.5 122.5q-126 0 -227.5 -21.5t-210.5 -64.5v-274q165 63 336 63q139 0 205.5 -43.5t66.5 -138.5v-18q-118 43 -270 43
q-198 0 -316.5 -90.5t-118.5 -257.5q0 -162 106.5 -254.5t272.5 -92.5q197 0 324 140l381 -140v662zM692 1640l-213 -378h275l301 262z" />
    <glyph glyph-name="acircumflex" unicode="&#xe2;" horiz-adv-x="1251" 
d="M764 285q-77 -66 -178 -66q-61 0 -104.5 36.5t-43.5 92.5q0 58 48 95.5t132 37.5q85 0 146 -28v-168zM1143 637q0 242 -132.5 364.5t-416.5 122.5q-126 0 -227.5 -21.5t-210.5 -64.5v-274q165 63 336 63q139 0 205.5 -43.5t66.5 -138.5v-18q-118 43 -270 43
q-198 0 -316.5 -90.5t-118.5 -257.5q0 -162 106.5 -254.5t272.5 -92.5q197 0 324 140l381 -140v662zM1024 1255l-287 381h-202l-287 -381h268l121 125l121 -125h266z" />
    <glyph glyph-name="atilde" unicode="&#xe3;" horiz-adv-x="1251" 
d="M764 285q-77 -66 -178 -66q-61 0 -104.5 36.5t-43.5 92.5q0 58 48 95.5t132 37.5q85 0 146 -28v-168zM1143 637q0 242 -132.5 364.5t-416.5 122.5q-126 0 -227.5 -21.5t-210.5 -64.5v-274q165 63 336 63q139 0 205.5 -43.5t66.5 -138.5v-18q-118 43 -270 43
q-198 0 -316.5 -90.5t-118.5 -257.5q0 -162 106.5 -254.5t272.5 -92.5q197 0 324 140l381 -140v662zM465 1206q17 56 32 76.5t38 20.5q22 0 101.5 -36t133.5 -36q174 0 258 297l-209 39q-22 -92 -63 -92q-21 0 -105 35.5t-139 35.5q-179 0 -258 -303z" />
    <glyph glyph-name="adieresis" unicode="&#xe4;" horiz-adv-x="1251" 
d="M764 285q-77 -66 -178 -66q-61 0 -104.5 36.5t-43.5 92.5q0 58 48 95.5t132 37.5q85 0 146 -28v-168zM1143 637q0 242 -132.5 364.5t-416.5 122.5q-126 0 -227.5 -21.5t-210.5 -64.5v-274q165 63 336 63q139 0 205.5 -43.5t66.5 -138.5v-18q-118 43 -270 43
q-198 0 -316.5 -90.5t-118.5 -257.5q0 -162 106.5 -254.5t272.5 -92.5q197 0 324 140l381 -140v662zM416 1638q-81 0 -130.5 -46.5t-49.5 -127.5q0 -83 51 -129.5t129 -46.5t129 46.5t51 129.5t-50.5 128.5t-129.5 45.5zM879 1638q-81 0 -131 -47t-50 -127
q0 -83 51.5 -129.5t129.5 -46.5t129 46.5t51 129.5t-50.5 128.5t-129.5 45.5z" />
    <glyph glyph-name="aring" unicode="&#xe5;" horiz-adv-x="1251" 
d="M764 285q-77 -66 -178 -66q-61 0 -104.5 36.5t-43.5 92.5q0 58 48 95.5t132 37.5q85 0 146 -28v-168zM1143 637q0 242 -132.5 364.5t-416.5 122.5q-126 0 -227.5 -21.5t-210.5 -64.5v-274q165 63 336 63q139 0 205.5 -43.5t66.5 -138.5v-18q-118 43 -270 43
q-198 0 -316.5 -90.5t-118.5 -257.5q0 -162 106.5 -254.5t272.5 -92.5q197 0 324 140l381 -140v662zM610 1176q106 0 180 71.5t74 175.5q0 101 -74.5 172.5t-179.5 71.5q-101 0 -176.5 -72t-75.5 -174q0 -103 75.5 -174t176.5 -71zM610 1470q22 0 35.5 -13.5t13.5 -35.5
q0 -49 -49 -49q-21 0 -34 14t-13 37q0 19 13.5 33t33.5 14z" />
    <glyph glyph-name="ae" unicode="&#xe6;" horiz-adv-x="1970" 
d="M1800 389q-71 -64 -197.5 -102.5t-236.5 -38.5q-118 0 -184 55l727 189q0 125 -36 237.5t-103 200.5t-173 140t-237 52q-211 0 -361 -116q-130 118 -411 118q-227 0 -438 -86v-274q165 63 335 63q139 0 206 -43.5t67 -138.5v-18q-118 43 -271 43q-89 0 -165 -19
t-137.5 -59t-96.5 -109t-35 -161q0 -107 61.5 -187t160.5 -120t219 -40q141 0 254.5 28t228.5 95q155 -133 383 -133q116 0 231 31t209 90v303zM758 285q-77 -66 -178 -66q-61 0 -104.5 36.5t-43.5 92.5q0 58 48 95.5t132 37.5q85 0 146 -28v-168zM1151 557q-5 66 11 127
t62 105.5t113 44.5q72 0 122 -47.5t69 -133.5z" />
    <glyph glyph-name="ccedilla" unicode="&#xe7;" horiz-adv-x="968" 
d="M885 1100q-82 30 -230 30q-170 0 -307.5 -79.5t-212 -211t-74.5 -286.5q0 -117 45.5 -224t123.5 -185t188 -124.5t233 -46.5q138 0 244 39v363q-91 -74 -203 -74q-106 0 -179 73t-73 179t69.5 178t176.5 72q104 0 199 -76v373zM610 -139l86 139h-143l-143 -225l63 -54
q49 21 92 21q37 0 58.5 -13.5t21.5 -37.5q0 -29 -35 -44.5t-73 -15.5q-75 0 -148 33l-53 -115q109 -53 221 -53q46 0 88.5 10t82 31.5t63.5 61.5t24 94q0 79 -57 123.5t-131 44.5h-17z" />
    <glyph glyph-name="egrave" unicode="&#xe8;" horiz-adv-x="1247" 
d="M1079 389q-71 -64 -197.5 -102.5t-236.5 -38.5q-118 0 -184 55l727 189q0 125 -36 237.5t-103 200.5t-173 140t-237 52q-251 0 -414.5 -162t-163.5 -409q0 -255 161.5 -420.5t416.5 -165.5q105 0 224 29t216 92v303zM430 563q0 49 9.5 94t30 86t58.5 66t88 25
q72 0 122 -47.5t69 -133.5l-377 -96v6zM158 1524l301 -262h274l-213 378z" />
    <glyph glyph-name="eacute" unicode="&#xe9;" horiz-adv-x="1247" 
d="M1079 389q-71 -64 -197.5 -102.5t-236.5 -38.5q-118 0 -184 55l727 189q0 125 -36 237.5t-103 200.5t-173 140t-237 52q-251 0 -414.5 -162t-163.5 -409q0 -255 161.5 -420.5t416.5 -165.5q105 0 224 29t216 92v303zM430 563q0 49 9.5 94t30 86t58.5 66t88 25
q72 0 122 -47.5t69 -133.5l-377 -96v6zM774 1640l-213 -378h275l301 262z" />
    <glyph glyph-name="ecircumflex" unicode="&#xea;" horiz-adv-x="1247" 
d="M1079 389q-71 -64 -197.5 -102.5t-236.5 -38.5q-118 0 -184 55l727 189q0 125 -36 237.5t-103 200.5t-173 140t-237 52q-251 0 -414.5 -162t-163.5 -409q0 -255 161.5 -420.5t416.5 -165.5q105 0 224 29t216 92v303zM430 563q0 49 9.5 94t30 86t58.5 66t88 25
q72 0 122 -47.5t69 -133.5l-377 -96v6zM1016 1255l-287 381h-203l-286 -381h268l121 125l121 -125h266z" />
    <glyph glyph-name="edieresis" unicode="&#xeb;" horiz-adv-x="1247" 
d="M1079 389q-71 -64 -197.5 -102.5t-236.5 -38.5q-118 0 -184 55l727 189q0 125 -36 237.5t-103 200.5t-173 140t-237 52q-251 0 -414.5 -162t-163.5 -409q0 -255 161.5 -420.5t416.5 -165.5q105 0 224 29t216 92v303zM430 563q0 49 9.5 94t30 86t58.5 66t88 25
q72 0 122 -47.5t69 -133.5l-377 -96v6zM385 1638q-81 0 -130.5 -46.5t-49.5 -127.5q0 -83 51 -129.5t129 -46.5t129 46.5t51 129.5t-50.5 128.5t-129.5 45.5zM848 1638q-81 0 -130.5 -46.5t-49.5 -127.5q0 -83 51 -129.5t129 -46.5t129 46.5t51 129.5t-50.5 128.5
t-129.5 45.5z" />
    <glyph glyph-name="igrave" unicode="&#xec;" horiz-adv-x="636" 
d="M520 0v1108h-389v-1108h389zM-66 1524l302 -262h274l-213 378z" />
    <glyph glyph-name="iacute" unicode="&#xed;" horiz-adv-x="675" 
d="M520 0v1108h-389v-1108h389zM377 1640l-213 -378h274l301 262z" />
    <glyph glyph-name="icircumflex" unicode="&#xee;" horiz-adv-x="600" 
d="M494 0v1108h-390v-1108h390zM682 1255l-287 381h-202l-287 -381h268l121 125l121 -125h266z" />
    <glyph glyph-name="idieresis" unicode="&#xef;" horiz-adv-x="614" 
d="M502 0v1108h-389v-1108h389zM76 1638q-81 0 -130.5 -46.5t-49.5 -127.5q0 -83 51 -129.5t129 -46.5t129 46.5t51 129.5t-50.5 128.5t-129.5 45.5zM539 1638q-81 0 -131 -47t-50 -127q0 -83 51.5 -129.5t129.5 -46.5t129 46.5t51 129.5t-50.5 128.5t-129.5 45.5z" />
    <glyph glyph-name="eth" unicode="&#xf0;" horiz-adv-x="1234" 
d="M211 1450q14 -11 44.5 -33t47 -34.5t41.5 -32.5t47 -39l-227 -127l117 -121l239 137q120 -117 197 -237q-76 26 -160 26q-130 0 -241.5 -57.5t-183 -173.5t-71.5 -269q0 -101 32 -187t86 -145.5t126 -101.5t150.5 -62t160.5 -20q78 0 154 18.5t150 62.5t129.5 108.5
t90 164.5t34.5 222q0 450 -386 801l222 129l-115 118l-233 -135q-120 102 -203 150zM438 487q0 81 51 144t129 63q80 0 130.5 -62.5t50.5 -144.5q0 -81 -51.5 -140.5t-129.5 -59.5t-129 59t-51 141z" />
    <glyph glyph-name="ntilde" unicode="&#xf1;" horiz-adv-x="1300" 
d="M1202 725q0 177 -103 292.5t-274 115.5q-189 0 -331 -181l-390 156v-1108h390v600q0 87 47 136.5t116 49.5q68 0 112 -49t44 -137v-600h389v725zM532 1206q17 56 32 76.5t38 20.5q22 0 102 -36t134 -36q174 0 258 297l-209 39q-22 -92 -64 -92q-21 0 -104.5 35.5
t-138.5 35.5q-179 0 -258 -303z" />
    <glyph glyph-name="ograve" unicode="&#xf2;" horiz-adv-x="1345" 
d="M672 -27q124 0 236.5 44.5t196 121t132.5 186t49 232.5q0 157 -78 289t-218.5 209.5t-313.5 77.5q-130 0 -245 -46.5t-195.5 -124.5t-127.5 -185t-47 -224q0 -118 46 -224.5t126 -184.5t194.5 -124.5t244.5 -46.5zM672 803q100 0 167.5 -74.5t67.5 -175.5
q0 -103 -64 -176.5t-167 -73.5q-101 0 -168.5 74.5t-67.5 179.5q0 103 64.5 174.5t167.5 71.5zM223 1524l301 -262h275l-213 378z" />
    <glyph glyph-name="oacute" unicode="&#xf3;" horiz-adv-x="1345" 
d="M672 -27q124 0 236.5 44.5t196 121t132.5 186t49 232.5q0 157 -78 289t-218.5 209.5t-313.5 77.5q-130 0 -245 -46.5t-195.5 -124.5t-127.5 -185t-47 -224q0 -118 46 -224.5t126 -184.5t194.5 -124.5t244.5 -46.5zM672 803q100 0 167.5 -74.5t67.5 -175.5
q0 -103 -64 -176.5t-167 -73.5q-101 0 -168.5 74.5t-67.5 179.5q0 103 64.5 174.5t167.5 71.5zM762 1640l-213 -378h274l301 262z" />
    <glyph glyph-name="ocircumflex" unicode="&#xf4;" horiz-adv-x="1345" 
d="M672 -27q124 0 236.5 44.5t196 121t132.5 186t49 232.5q0 157 -78 289t-218.5 209.5t-313.5 77.5q-130 0 -245 -46.5t-195.5 -124.5t-127.5 -185t-47 -224q0 -118 46 -224.5t126 -184.5t194.5 -124.5t244.5 -46.5zM672 803q100 0 167.5 -74.5t67.5 -175.5
q0 -103 -64 -176.5t-167 -73.5q-101 0 -168.5 74.5t-67.5 179.5q0 103 64.5 174.5t167.5 71.5zM1063 1255l-287 381h-203l-286 -381h268l121 125l121 -125h266z" />
    <glyph glyph-name="otilde" unicode="&#xf5;" horiz-adv-x="1345" 
d="M672 -27q124 0 236.5 44.5t196 121t132.5 186t49 232.5q0 157 -78 289t-218.5 209.5t-313.5 77.5q-130 0 -245 -46.5t-195.5 -124.5t-127.5 -185t-47 -224q0 -118 46 -224.5t126 -184.5t194.5 -124.5t244.5 -46.5zM672 803q100 0 167.5 -74.5t67.5 -175.5
q0 -103 -64 -176.5t-167 -73.5q-101 0 -168.5 74.5t-67.5 179.5q0 103 64.5 174.5t167.5 71.5zM508 1206q17 56 32 76.5t38 20.5q22 0 101.5 -36t133.5 -36q174 0 258 297l-209 39q-22 -92 -63 -92q-21 0 -105 35.5t-139 35.5q-179 0 -258 -303z" />
    <glyph glyph-name="odieresis" unicode="&#xf6;" horiz-adv-x="1345" 
d="M672 -27q124 0 236.5 44.5t196 121t132.5 186t49 232.5q0 157 -78 289t-218.5 209.5t-313.5 77.5q-130 0 -245 -46.5t-195.5 -124.5t-127.5 -185t-47 -224q0 -118 46 -224.5t126 -184.5t194.5 -124.5t244.5 -46.5zM672 803q100 0 167.5 -74.5t67.5 -175.5
q0 -103 -64 -176.5t-167 -73.5q-101 0 -168.5 74.5t-67.5 179.5q0 103 64.5 174.5t167.5 71.5zM442 1638q-81 0 -130.5 -46.5t-49.5 -127.5q0 -83 51 -129.5t129 -46.5t129.5 46.5t51.5 129.5t-51 128.5t-130 45.5zM905 1638q-81 0 -130.5 -46.5t-49.5 -127.5
q0 -83 51 -129.5t129 -46.5t129 46.5t51 129.5t-50.5 128.5t-129.5 45.5z" />
    <glyph glyph-name="divide" unicode="&#xf7;" horiz-adv-x="1402" 
d="M1237 618v205h-1071v-205h1071zM702 885q64 0 108 41.5t44 105.5q0 62 -43 106t-109 44t-109.5 -44.5t-43.5 -105.5t43.5 -104t109.5 -43zM702 262q66 0 109 43t43 109q0 61 -43 103t-109 42q-67 0 -110 -42t-43 -103q0 -63 43.5 -107.5t109.5 -44.5z" />
    <glyph glyph-name="oslash" unicode="&#xf8;" horiz-adv-x="1406" 
d="M934 659q20 -47 20 -106q0 -112 -68.5 -189t-178.5 -77q-48 0 -91 16zM475 446q-20 47 -20 107q0 112 68.5 189t178.5 77q58 0 93 -18zM61 -10l150 -140l180 201q143 -78 311 -78q130 0 245 46.5t195.5 124.5t127.5 185t47 224q0 219 -139 377l151 168l-153 147
l-160 -190q-140 78 -309 78q-130 0 -245 -46.5t-195.5 -124.5t-127.5 -185t-47 -224q0 -217 139 -375z" />
    <glyph glyph-name="ugrave" unicode="&#xf9;" horiz-adv-x="1292" 
d="M98 383q0 -187 96.5 -297.5t280.5 -110.5q112 0 196.5 42t135.5 110l389 -152v1133h-389v-600q0 -88 -45.5 -137t-116.5 -49q-72 0 -115 48.5t-43 137.5v600h-389v-725zM262 1524l301 -262h275l-213 378z" />
    <glyph glyph-name="uacute" unicode="&#xfa;" horiz-adv-x="1292" 
d="M98 383q0 -187 96.5 -297.5t280.5 -110.5q112 0 196.5 42t135.5 110l389 -152v1133h-389v-600q0 -88 -45.5 -137t-116.5 -49q-72 0 -115 48.5t-43 137.5v600h-389v-725zM733 1640l-213 -378h275l301 262z" />
    <glyph glyph-name="ucircumflex" unicode="&#xfb;" horiz-adv-x="1292" 
d="M98 383q0 -187 96.5 -297.5t280.5 -110.5q112 0 196.5 42t135.5 110l389 -152v1133h-389v-600q0 -88 -45.5 -137t-116.5 -49q-72 0 -115 48.5t-43 137.5v600h-389v-725zM1032 1255l-287 381h-202l-287 -381h268l121 125l121 -125h266z" />
    <glyph glyph-name="udieresis" unicode="&#xfc;" horiz-adv-x="1292" 
d="M98 383q0 -187 96.5 -297.5t280.5 -110.5q112 0 196.5 42t135.5 110l389 -152v1133h-389v-600q0 -88 -45.5 -137t-116.5 -49q-72 0 -115 48.5t-43 137.5v600h-389v-725zM412 1638q-81 0 -131 -47t-50 -127q0 -83 51.5 -129.5t129.5 -46.5t129 46.5t51 129.5t-50.5 128.5
t-129.5 45.5zM874 1638q-81 0 -130.5 -46.5t-49.5 -127.5q0 -83 51 -129.5t129 -46.5t129.5 46.5t51.5 129.5t-51 128.5t-130 45.5z" />
    <glyph glyph-name="yacute" unicode="&#xfd;" horiz-adv-x="1214" 
d="M-12 1108l467 -1120l-101 -316h330l541 1436h-400l-209 -709l-221 709h-407zM688 1640l-213 -378h275l301 262z" />
    <glyph glyph-name="thorn" unicode="&#xfe;" horiz-adv-x="1253" 
d="M463 492q0 78 49 140t125 62q78 0 127 -61t49 -139q0 -81 -50.5 -144t-125.5 -63q-77 0 -125.5 61.5t-48.5 143.5zM106 1589v-2050h381v420l-10 154h8q28 -46 83.5 -80.5t117.5 -48.5q50 -11 76 -11q101 0 184.5 46.5t136.5 122.5t82 168.5t29 187.5q0 96 -28.5 186
t-80.5 163t-135 117t-184 44q-32 0 -90 -15q-62 -22 -115.5 -60t-85.5 -77q2 41 6 127q0 127 6 186v420h-381z" />
    <glyph glyph-name="ydieresis" unicode="&#xff;" horiz-adv-x="1214" 
d="M-12 1108l467 -1120l-101 -316h330l541 1436h-400l-209 -709l-221 709h-407zM385 1638q-81 0 -130.5 -46.5t-49.5 -127.5q0 -83 51 -129.5t129 -46.5t129 46.5t51 129.5t-50.5 128.5t-129.5 45.5zM848 1638q-81 0 -130.5 -46.5t-49.5 -127.5q0 -83 51 -129.5t129 -46.5
t129 46.5t51 129.5t-50.5 128.5t-129.5 45.5z" />
    <glyph glyph-name="Amacron" unicode="&#x100;" horiz-adv-x="1570" 
d="M504 256h553l104 -256h426l-610 1444h-383l-610 -1444h417zM621 565l161 408l160 -408h-321zM1163 1524v239h-760v-239h760z" />
    <glyph glyph-name="amacron" unicode="&#x101;" horiz-adv-x="1251" 
d="M764 285q-77 -66 -178 -66q-61 0 -104.5 36.5t-43.5 92.5q0 58 48 95.5t132 37.5q85 0 146 -28v-168zM1143 637q0 242 -132.5 364.5t-416.5 122.5q-126 0 -227.5 -21.5t-210.5 -64.5v-274q165 63 336 63q139 0 205.5 -43.5t66.5 -138.5v-18q-118 43 -270 43
q-198 0 -316.5 -90.5t-118.5 -257.5q0 -162 106.5 -254.5t272.5 -92.5q197 0 324 140l381 -140v662zM991 1186v239h-760v-239h760z" />
    <glyph glyph-name="Abreve" unicode="&#x102;" horiz-adv-x="1570" 
d="M504 256h553l104 -256h426l-610 1444h-383l-610 -1444h417zM621 565l161 408l160 -408h-321zM920 1888q-19 -64 -53.5 -99.5t-78.5 -35.5t-81 36t-56 99h-213q12 -165 109 -270t237 -105q141 0 239 105t110 270h-213z" />
    <glyph glyph-name="abreve" unicode="&#x103;" horiz-adv-x="1251" 
d="M764 285q-77 -66 -178 -66q-61 0 -104.5 36.5t-43.5 92.5q0 58 48 95.5t132 37.5q85 0 146 -28v-168zM1143 637q0 242 -132.5 364.5t-416.5 122.5q-126 0 -227.5 -21.5t-210.5 -64.5v-274q165 63 336 63q139 0 205.5 -43.5t66.5 -138.5v-18q-118 43 -270 43
q-198 0 -316.5 -90.5t-118.5 -257.5q0 -162 106.5 -254.5t272.5 -92.5q197 0 324 140l381 -140v662zM772 1550q-19 -64 -53 -99.5t-78 -35.5t-81 36t-56 99h-213q12 -165 109 -269.5t237 -104.5q141 0 238.5 104.5t109.5 269.5h-213z" />
    <glyph glyph-name="Aogonek" unicode="&#x104;" horiz-adv-x="1570" 
d="M504 256h553l104 -256h426l-610 1444h-383l-610 -1444h417zM621 565l161 408l160 -408h-321zM1460 -242q-71 -30 -114 -30q-27 0 -44.5 12t-17.5 37q0 62 135 223h-258q-60 -68 -94.5 -130t-34.5 -132q0 -102 73.5 -163.5t188.5 -61.5q111 0 213 55z" />
    <glyph glyph-name="aogonek" unicode="&#x105;" horiz-adv-x="1251" 
d="M764 285q-77 -66 -178 -66q-61 0 -104.5 36.5t-43.5 92.5q0 58 48 95.5t132 37.5q85 0 146 -28v-168zM1143 637q0 242 -132.5 364.5t-416.5 122.5q-126 0 -227.5 -21.5t-210.5 -64.5v-274q165 63 336 63q139 0 205.5 -43.5t66.5 -138.5v-18q-118 43 -270 43
q-198 0 -316.5 -90.5t-118.5 -257.5q0 -162 106.5 -254.5t272.5 -92.5q197 0 324 140l381 -140v662zM1184 -242q-71 -30 -115 -30q-61 0 -61 49q0 65 135 198l-203 84q-99 -107 -141.5 -177t-42.5 -144q0 -102 73.5 -163.5t188.5 -61.5q111 0 213 55z" />
    <glyph glyph-name="Cacute" unicode="&#x106;" horiz-adv-x="1361" 
d="M1274 508q-189 -174 -406 -174q-178 0 -280.5 109t-102.5 278q0 162 103.5 270.5t279.5 108.5q117 0 220 -46t176 -122v403q-183 127 -433 127q-160 0 -300.5 -58t-240 -157.5t-157 -237t-57.5 -292.5q0 -210 99 -381.5t268 -268t372 -96.5q257 0 459 140v397zM864 1958
l-213 -379h275l301 262z" />
    <glyph glyph-name="cacute" unicode="&#x107;" horiz-adv-x="1060" 
d="M885 1100q-82 30 -230 30q-170 0 -307.5 -79.5t-212 -211t-74.5 -286.5q0 -117 45.5 -224t123.5 -185t188 -124.5t233 -46.5q138 0 244 39v363q-91 -74 -203 -74q-106 0 -179 73t-73 179t69.5 178t176.5 72q104 0 199 -76v373zM682 1640l-213 -378h274l301 262z" />
    <glyph glyph-name="Ccircumflex" unicode="&#x108;" horiz-adv-x="1361" 
d="M1274 508q-189 -174 -406 -174q-178 0 -280.5 109t-102.5 278q0 162 103.5 270.5t279.5 108.5q117 0 220 -46t176 -122v403q-183 127 -433 127q-160 0 -300.5 -58t-240 -157.5t-157 -237t-57.5 -292.5q0 -210 99 -381.5t268 -268t372 -96.5q257 0 459 140v397zM1190 1593
l-287 381h-203l-286 -381h268l121 125l121 -125h266z" />
    <glyph glyph-name="ccircumflex" unicode="&#x109;" horiz-adv-x="968" 
d="M885 1100q-82 30 -230 30q-170 0 -307.5 -79.5t-212 -211t-74.5 -286.5q0 -117 45.5 -224t123.5 -185t188 -124.5t233 -46.5q138 0 244 39v363q-91 -74 -203 -74q-106 0 -179 73t-73 179t69.5 178t176.5 72q104 0 199 -76v373zM971 1255l-287 381h-203l-286 -381h268
l121 125l121 -125h266z" />
    <glyph glyph-name="Cdotaccent" unicode="&#x10a;" horiz-adv-x="1361" 
d="M1274 508q-189 -174 -406 -174q-178 0 -280.5 109t-102.5 278q0 162 103.5 270.5t279.5 108.5q117 0 220 -46t176 -122v403q-183 127 -433 127q-160 0 -300.5 -58t-240 -157.5t-157 -237t-57.5 -292.5q0 -210 99 -381.5t268 -268t372 -96.5q257 0 459 140v397zM836 1929
q-97 0 -158.5 -50.5t-61.5 -145.5t62 -147t158 -52t158.5 52t62.5 147q0 94 -62 145t-159 51z" />
    <glyph glyph-name="cdotaccent" unicode="&#x10b;" horiz-adv-x="937" 
d="M885 1100q-82 30 -230 30q-170 0 -307.5 -79.5t-212 -211t-74.5 -286.5q0 -117 45.5 -224t123.5 -185t188 -124.5t233 -46.5q138 0 244 39v363q-91 -74 -203 -74q-106 0 -179 73t-73 179t69.5 178t176.5 72q104 0 199 -76v373zM635 1591q-97 0 -158 -50.5t-61 -145.5
t61.5 -147t157.5 -52t158.5 52t62.5 147q0 94 -62 145t-159 51z" />
    <glyph glyph-name="Ccaron" unicode="&#x10c;" horiz-adv-x="1361" 
d="M1274 508q-189 -174 -406 -174q-178 0 -280.5 109t-102.5 278q0 162 103.5 270.5t279.5 108.5q117 0 220 -46t176 -122v403q-183 127 -433 127q-160 0 -300.5 -58t-240 -157.5t-157 -237t-57.5 -292.5q0 -210 99 -381.5t268 -268t372 -96.5q257 0 459 140v397zM1237 1962
h-281l-114 -129l-119 129h-287l299 -383h205z" />
    <glyph glyph-name="ccaron" unicode="&#x10d;" horiz-adv-x="968" 
d="M885 1100q-82 30 -230 30q-170 0 -307.5 -79.5t-212 -211t-74.5 -286.5q0 -117 45.5 -224t123.5 -185t188 -124.5t233 -46.5q138 0 244 39v363q-91 -74 -203 -74q-106 0 -179 73t-73 179t69.5 178t176.5 72q104 0 199 -76v373zM1006 1591h-281l-115 -129l-118 129h-287
l299 -383h205z" />
    <glyph glyph-name="Dcaron" unicode="&#x10e;" horiz-adv-x="1558" 
d="M119 1434v-1434h545q190 0 345 55t258 152t158.5 230t55.5 288q0 156 -54.5 286.5t-156.5 224t-255.5 146t-342.5 52.5h-553zM516 352v729h162q180 0 287.5 -96.5t107.5 -265.5q0 -171 -107.5 -269t-287.5 -98h-162zM1157 1962h-280l-115 -129l-119 129h-287l299 -383
h205z" />
    <glyph glyph-name="dcaron" unicode="&#x10f;" horiz-adv-x="1308" 
d="M1276 -25v1520h-389v-522q-65 74 -144.5 117t-193.5 43q-98 0 -187 -40.5t-156.5 -114t-107 -184t-39.5 -241.5t40 -241t108 -183t157 -113.5t187 -40.5q113 0 191 45.5t145 126.5zM668 301q-99 0 -162.5 76t-63.5 176q0 111 66.5 182.5t159.5 71.5q95 0 160 -71t65 -179
q0 -113 -64.5 -184.5t-160.5 -71.5zM1548 1200l138 479h-256l-84 -479h202z" />
    <glyph glyph-name="Dcroat" unicode="&#x110;" horiz-adv-x="1605" 
d="M166 1434v-1434h545q190 0 345 55t258 152t158.5 230t55.5 288q0 156 -54.5 286.5t-156.5 224t-255.5 146t-342.5 52.5h-553zM563 352v729h162q180 0 287.5 -96.5t107.5 -265.5q0 -171 -107.5 -269t-287.5 -98h-162zM686 510v342h-672v-342h672z" />
    <glyph glyph-name="dcroat" unicode="&#x111;" horiz-adv-x="1394" 
d="M1278 -25v1520h-389v-522q-65 74 -144.5 117t-193.5 43q-98 0 -187 -40.5t-156.5 -114t-107 -184t-39.5 -241.5t40 -241t108 -183t157 -113.5t187 -40.5q113 0 191 45.5t145 126.5zM670 301q-99 0 -162.5 76t-63.5 176q0 111 66.5 182.5t159.5 71.5q95 0 160 -71t65 -179
q0 -113 -64.5 -184.5t-160.5 -71.5zM1401 1110v342h-672v-342h672z" />
    <glyph glyph-name="Emacron" unicode="&#x112;" horiz-adv-x="1382" 
d="M512 338v227h688v314h-688v217h760v338h-1153v-1434h1163v338h-770zM1085 1524v239h-759v-239h759z" />
    <glyph glyph-name="emacron" unicode="&#x113;" horiz-adv-x="1247" 
d="M1079 389q-71 -64 -197.5 -102.5t-236.5 -38.5q-118 0 -184 55l727 189q0 125 -36 237.5t-103 200.5t-173 140t-237 52q-251 0 -414.5 -162t-163.5 -409q0 -255 161.5 -420.5t416.5 -165.5q105 0 224 29t216 92v303zM430 563q0 49 9.5 94t30 86t58.5 66t88 25
q72 0 122 -47.5t69 -133.5l-377 -96v6zM1006 1186v239h-760v-239h760z" />
    <glyph glyph-name="Ebreve" unicode="&#x114;" horiz-adv-x="1382" 
d="M512 338v227h688v314h-688v217h760v338h-1153v-1434h1163v338h-770zM834 1888q-19 -64 -53.5 -99.5t-78.5 -35.5t-81 36t-56 99h-213q12 -165 109 -270t237 -105q141 0 239 105t110 270h-213z" />
    <glyph glyph-name="ebreve" unicode="&#x115;" horiz-adv-x="1247" 
d="M1079 389q-71 -64 -197.5 -102.5t-236.5 -38.5q-118 0 -184 55l727 189q0 125 -36 237.5t-103 200.5t-173 140t-237 52q-251 0 -414.5 -162t-163.5 -409q0 -255 161.5 -420.5t416.5 -165.5q105 0 224 29t216 92v303zM430 563q0 49 9.5 94t30 86t58.5 66t88 25
q72 0 122 -47.5t69 -133.5l-377 -96v6zM784 1550q-19 -64 -53 -99.5t-78 -35.5t-81 36t-56 99h-213q12 -165 109 -269.5t237 -104.5q141 0 238.5 104.5t109.5 269.5h-213z" />
    <glyph glyph-name="Edotaccent" unicode="&#x116;" horiz-adv-x="1382" 
d="M512 338v227h688v314h-688v217h760v338h-1153v-1434h1163v338h-770zM711 1929q-97 0 -158 -50.5t-61 -145.5t61.5 -147t157.5 -52t158.5 52t62.5 147q0 94 -62 145t-159 51z" />
    <glyph glyph-name="edotaccent" unicode="&#x117;" horiz-adv-x="1247" 
d="M1079 389q-71 -64 -197.5 -102.5t-236.5 -38.5q-118 0 -184 55l727 189q0 125 -36 237.5t-103 200.5t-173 140t-237 52q-251 0 -414.5 -162t-163.5 -409q0 -255 161.5 -420.5t416.5 -165.5q105 0 224 29t216 92v303zM430 563q0 49 9.5 94t30 86t58.5 66t88 25
q72 0 122 -47.5t69 -133.5l-377 -96v6zM618 1591q-97 0 -158 -50.5t-61 -145.5t61.5 -147t157.5 -52q97 0 159.5 52t62.5 147q0 94 -62.5 145t-159.5 51z" />
    <glyph glyph-name="Eogonek" unicode="&#x118;" horiz-adv-x="1382" 
d="M512 338v227h688v314h-688v217h760v338h-1153v-1434h1163v338h-770zM1323 -242q-71 -30 -115 -30q-61 0 -61 49q0 62 135 223h-258q-60 -68 -94.5 -130t-34.5 -132q0 -102 73.5 -163.5t188.5 -61.5q111 0 213 55z" />
    <glyph glyph-name="eogonek" unicode="&#x119;" horiz-adv-x="1247" 
d="M1079 389q-71 -64 -197.5 -102.5t-236.5 -38.5q-118 0 -184 55l727 189q0 125 -36 237.5t-103 200.5t-173 140t-237 52q-251 0 -414.5 -162t-163.5 -409q0 -255 161.5 -420.5t416.5 -165.5q105 0 224 29t216 92v303zM430 563q0 49 9.5 94t30 86t58.5 66t88 25
q72 0 122 -47.5t69 -133.5l-377 -96v6zM1057 -242q-71 -30 -115 -30q-61 0 -61 57q0 103 198 301l-321 -86q-60 -68 -94.5 -130t-34.5 -132q0 -102 73.5 -163.5t188.5 -61.5q111 0 213 55z" />
    <glyph glyph-name="Ecaron" unicode="&#x11a;" horiz-adv-x="1382" 
d="M512 338v227h688v314h-688v217h760v338h-1153v-1434h1163v338h-770zM1126 1962h-280l-115 -129l-119 129h-286l299 -383h204z" />
    <glyph glyph-name="ecaron" unicode="&#x11b;" horiz-adv-x="1247" 
d="M1079 389q-71 -64 -197.5 -102.5t-236.5 -38.5q-118 0 -184 55l727 189q0 125 -36 237.5t-103 200.5t-173 140t-237 52q-251 0 -414.5 -162t-163.5 -409q0 -255 161.5 -420.5t416.5 -165.5q105 0 224 29t216 92v303zM430 563q0 49 9.5 94t30 86t58.5 66t88 25
q72 0 122 -47.5t69 -133.5l-377 -96v6zM1030 1591h-280l-115 -129l-119 129h-287l299 -383h205z" />
    <glyph glyph-name="Gcircumflex" unicode="&#x11c;" horiz-adv-x="1554" 
d="M1102 547q0 -61 -25.5 -108.5t-66.5 -73.5t-85 -39t-89 -13q-147 0 -250 114t-103 288q0 166 109.5 279.5t277.5 113.5q207 0 367 -135v420q-75 32 -179.5 50.5t-209.5 18.5q-164 0 -307.5 -58t-245.5 -157.5t-160.5 -237t-58.5 -292.5q0 -212 100 -384t268.5 -267
t370.5 -95q71 0 137 11t133 37t124.5 66.5t108 103t85.5 142t55.5 188t20.5 237.5v82h-660v-291h283zM1217 1593l-287 381h-203l-287 -381h269l120 125l121 -125h267z" />
    <glyph glyph-name="gcircumflex" unicode="&#x11d;" horiz-adv-x="1392" 
d="M680 401q-97 0 -161 58.5t-64 152.5t63 155.5t162 61.5q98 0 161.5 -60t63.5 -151q0 -94 -63.5 -155.5t-161.5 -61.5zM905 223q0 -140 -87 -207t-232 -67q-122 0 -253.5 46t-230.5 107v-307q131 -67 239.5 -97t248.5 -30q122 0 227.5 23.5t192.5 72t148.5 119t95.5 168.5
t34 217v840l-389 -131q-72 75 -150 115.5t-186 40.5q-100 0 -189.5 -36.5t-156.5 -102t-106 -163.5t-39 -215t38.5 -215t105 -164t156 -102.5t189.5 -36.5q115 0 195 44t149 124v-43zM1079 1255l-286 381h-203l-287 -381h268l121 125l121 -125h266z" />
    <glyph glyph-name="Gbreve" unicode="&#x11e;" horiz-adv-x="1554" 
d="M1102 547q0 -61 -25.5 -108.5t-66.5 -73.5t-85 -39t-89 -13q-147 0 -250 114t-103 288q0 166 109.5 279.5t277.5 113.5q207 0 367 -135v420q-75 32 -179.5 50.5t-209.5 18.5q-164 0 -307.5 -58t-245.5 -157.5t-160.5 -237t-58.5 -292.5q0 -212 100 -384t268.5 -267
t370.5 -95q71 0 137 11t133 37t124.5 66.5t108 103t85.5 142t55.5 188t20.5 237.5v82h-660v-291h283zM942 1888q-19 -64 -53 -99.5t-78 -35.5t-81 36t-56 99h-213q12 -165 109 -270t237 -105q141 0 238.5 104.5t109.5 270.5h-213z" />
    <glyph glyph-name="gbreve" unicode="&#x11f;" horiz-adv-x="1392" 
d="M680 401q-97 0 -161 58.5t-64 152.5t63 155.5t162 61.5q98 0 161.5 -60t63.5 -151q0 -94 -63.5 -155.5t-161.5 -61.5zM905 223q0 -140 -87 -207t-232 -67q-122 0 -253.5 46t-230.5 107v-307q131 -67 239.5 -97t248.5 -30q122 0 227.5 23.5t192.5 72t148.5 119t95.5 168.5
t34 217v840l-389 -131q-72 75 -150 115.5t-186 40.5q-100 0 -189.5 -36.5t-156.5 -102t-106 -163.5t-39 -215t38.5 -215t105 -164t156 -102.5t189.5 -36.5q115 0 195 44t149 124v-43zM872 1550q-19 -64 -53 -99.5t-78 -35.5t-81 36t-56 99h-213q12 -165 109 -269.5
t237 -104.5q141 0 238.5 104.5t109.5 269.5h-213z" />
    <glyph glyph-name="Gdotaccent" unicode="&#x120;" horiz-adv-x="1554" 
d="M1102 547q0 -61 -25.5 -108.5t-66.5 -73.5t-85 -39t-89 -13q-147 0 -250 114t-103 288q0 166 109.5 279.5t277.5 113.5q207 0 367 -135v420q-75 32 -179.5 50.5t-209.5 18.5q-164 0 -307.5 -58t-245.5 -157.5t-160.5 -237t-58.5 -292.5q0 -212 100 -384t268.5 -267
t370.5 -95q71 0 137 11t133 37t124.5 66.5t108 103t85.5 142t55.5 188t20.5 237.5v82h-660v-291h283zM776 1929q-97 0 -158 -50.5t-61 -145.5t61.5 -147t157.5 -52t158.5 52t62.5 147q0 94 -62 145t-159 51z" />
    <glyph glyph-name="gdotaccent" unicode="&#x121;" horiz-adv-x="1392" 
d="M680 401q-97 0 -161 58.5t-64 152.5t63 155.5t162 61.5q98 0 161.5 -60t63.5 -151q0 -94 -63.5 -155.5t-161.5 -61.5zM905 223q0 -140 -87 -207t-232 -67q-122 0 -253.5 46t-230.5 107v-307q131 -67 239.5 -97t248.5 -30q122 0 227.5 23.5t192.5 72t148.5 119t95.5 168.5
t34 217v840l-389 -131q-72 75 -150 115.5t-186 40.5q-100 0 -189.5 -36.5t-156.5 -102t-106 -163.5t-39 -215t38.5 -215t105 -164t156 -102.5t189.5 -36.5q115 0 195 44t149 124v-43zM694 1591q-97 0 -158 -50.5t-61 -145.5t61.5 -147t157.5 -52t158.5 52t62.5 147
q0 94 -62 145t-159 51z" />
    <glyph glyph-name="uni0122" unicode="&#x122;" horiz-adv-x="1554" 
d="M1102 547q0 -61 -25.5 -108.5t-66.5 -73.5t-85 -39t-89 -13q-147 0 -250 114t-103 288q0 166 109.5 279.5t277.5 113.5q207 0 367 -135v420q-75 32 -179.5 50.5t-209.5 18.5q-164 0 -307.5 -58t-245.5 -157.5t-160.5 -237t-58.5 -292.5q0 -212 100 -384t268.5 -267
t370.5 -95q71 0 137 11t133 37t124.5 66.5t108 103t85.5 142t55.5 188t20.5 237.5v82h-660v-291h283zM668 -610l137 479h-256l-84 -479h203z" />
    <glyph glyph-name="uni0123" unicode="&#x123;" horiz-adv-x="1392" 
d="M680 401q-97 0 -161 58.5t-64 152.5t63 155.5t162 61.5q98 0 161.5 -60t63.5 -151q0 -94 -63.5 -155.5t-161.5 -61.5zM905 223q0 -140 -87 -207t-232 -67q-122 0 -253.5 46t-230.5 107v-307q131 -67 239.5 -97t248.5 -30q122 0 227.5 23.5t192.5 72t148.5 119t95.5 168.5
t34 217v840l-389 -131q-72 75 -150 115.5t-186 40.5q-100 0 -189.5 -36.5t-156.5 -102t-106 -163.5t-39 -215t38.5 -215t105 -164t156 -102.5t189.5 -36.5q115 0 195 44t149 124v-43zM772 1669l-231 -455h405l90 455h-264z" />
    <glyph glyph-name="Hcircumflex" unicode="&#x124;" horiz-adv-x="1544" 
d="M119 1434v-1434h397v545h510v-545h397v1434h-397v-537h-510v537h-397zM1157 1593l-287 381h-202l-287 -381h268l121 125l121 -125h266z" />
    <glyph glyph-name="hcircumflex" unicode="&#x125;" horiz-adv-x="1554" 
d="M1217 725q0 181 -101.5 294.5t-275.5 113.5q-193 0 -332 -177v539h-389v-1495h389v600q0 87 47.5 136.5t116.5 49.5t112 -48.5t43 -137.5v-600h390v725zM707 1593l-287 381h-203l-287 -381h269l120 125l121 -125h267z" />
    <glyph glyph-name="Hbar" unicode="&#x126;" horiz-adv-x="1593" 
d="M143 1434v-1434h398v545h510v-545h397v1434h-397v-537h-510v537h-398zM41 1038h1511v240h-1511v-240z" />
    <glyph glyph-name="hbar" unicode="&#x127;" horiz-adv-x="1294" 
d="M1192 725q0 181 -101.5 294.5t-275.5 113.5q-193 0 -332 -177v539h-389v-1495h389v600q0 87 47.5 136.5t116.5 49.5t112.5 -48.5t43.5 -137.5v-600h389v725zM668 1186v239h-760v-239h760z" />
    <glyph glyph-name="Itilde" unicode="&#x128;" horiz-adv-x="636" 
d="M518 0v1434h-399v-1434h399zM143 1544q17 56 32 76t38 20q22 0 102 -35.5t134 -35.5q174 0 258 297l-209 39q-22 -93 -64 -93q-21 0 -105 36t-139 36q-179 0 -258 -303z" />
    <glyph glyph-name="itilde" unicode="&#x129;" horiz-adv-x="600" 
d="M494 0v1108h-390v-1108h390zM139 1206q17 56 32 76.5t38 20.5q22 0 101.5 -36t133.5 -36q174 0 258 297l-208 39q-22 -92 -64 -92q-21 0 -105 35.5t-139 35.5q-179 0 -258 -303z" />
    <glyph glyph-name="Imacron" unicode="&#x12a;" horiz-adv-x="636" 
d="M518 0v1434h-399v-1434h399zM696 1524v239h-759v-239h759z" />
    <glyph glyph-name="imacron" unicode="&#x12b;" horiz-adv-x="600" 
d="M494 0v1108h-390v-1108h390zM680 1186v239h-760v-239h760z" />
    <glyph glyph-name="Ibreve" unicode="&#x12c;" horiz-adv-x="636" 
d="M518 0v1434h-399v-1434h399zM451 1888q-19 -64 -53.5 -99.5t-78.5 -35.5t-81 36t-56 99h-213q12 -165 109 -270t237 -105q141 0 239 105t110 270h-213z" />
    <glyph glyph-name="ibreve" unicode="&#x12d;" horiz-adv-x="600" 
d="M494 0v1108h-390v-1108h390zM434 1550q-19 -64 -53 -99.5t-78 -35.5t-81 36t-56 99h-213q12 -165 109 -269.5t237 -104.5q141 0 238.5 104.5t109.5 269.5h-213z" />
    <glyph glyph-name="Iogonek" unicode="&#x12e;" horiz-adv-x="636" 
d="M518 0v1434h-399v-1434h399zM559 -242q-71 -30 -115 -30q-61 0 -61 49q0 62 135 223h-258q-60 -68 -94.5 -130t-34.5 -132q0 -102 73.5 -163.5t188.5 -61.5q111 0 213 55z" />
    <glyph glyph-name="iogonek" unicode="&#x12f;" horiz-adv-x="595" 
d="M494 0v1108h-390v-1108h390zM297 1597q-97 0 -158 -50.5t-61 -145.5t61.5 -147t157.5 -52t158.5 52t62.5 147q0 94 -62 145t-159 51zM535 -242q-71 -30 -115 -30q-27 0 -44.5 12t-17.5 37q0 61 136 223h-258q-60 -69 -95 -130.5t-35 -131.5q0 -102 74 -163.5t189 -61.5
q111 0 213 55z" />
    <glyph glyph-name="Idotaccent" unicode="&#x130;" horiz-adv-x="636" 
d="M518 0v1434h-399v-1434h399zM313 1929q-97 0 -158 -50.5t-61 -145.5t61.5 -147t157.5 -52q97 0 159.5 52t62.5 147q0 94 -62.5 145t-159.5 51z" />
    <glyph glyph-name="dotlessi" unicode="&#x131;" horiz-adv-x="600" 
d="M494 0v1108h-390v-1108h390z" />
    <glyph glyph-name="IJ" unicode="&#x132;" horiz-adv-x="1609" 
d="M518 0v1434h-399v-1434h399zM637 84q159 -109 315 -109q254 0 401.5 150t147.5 399v910h-395v-908q0 -96 -51.5 -148t-132.5 -52q-55 0 -110 25.5t-89.5 53t-85.5 76.5v-397z" />
    <glyph glyph-name="ij" unicode="&#x133;" horiz-adv-x="1200" 
d="M494 0v1108h-390v-1108h390zM297 1597q-97 0 -158 -50.5t-61 -145.5t61.5 -147t157.5 -52t158.5 52t62.5 147q0 94 -62 145t-159 51zM543 -319q88 -15 159 -15q197 0 296.5 89.5t99.5 293.5v1059h-389v-1042q0 -129 -88 -129q-28 0 -78 16v-272zM901 1597
q-97 0 -158 -50.5t-61 -145.5t61.5 -147t157.5 -52t158.5 52t62.5 147q0 94 -62 145t-159 51z" />
    <glyph glyph-name="Jcircumflex" unicode="&#x134;" horiz-adv-x="972" 
d="M0 84q159 -109 315 -109q254 0 401.5 150t147.5 399v910h-395v-908q0 -96 -51.5 -148t-132.5 -52q-55 0 -110 25.5t-89.5 53t-85.5 76.5v-397zM1069 1593l-287 381h-202l-287 -381h268l121 125l121 -125h266z" />
    <glyph glyph-name="jcircumflex" unicode="&#x135;" horiz-adv-x="585" 
d="M-47 -319q88 -15 160 -15q196 0 295.5 89.5t99.5 293.5v1059h-389v-1042q0 -129 -88 -129q-28 0 -78 16v-272zM690 1255l-287 381h-202l-287 -381h268l121 125l121 -125h266z" />
    <glyph glyph-name="uni0136" unicode="&#x136;" horiz-adv-x="1482" 
d="M516 852v582h-397v-1434h397v754l506 -754h477l-561 817l543 617h-471zM635 -610l137 479h-256l-84 -479h203z" />
    <glyph glyph-name="uni0137" unicode="&#x137;" horiz-adv-x="1245" 
d="M494 737v758h-390v-1495h390v580l323 -580h428l-395 664l385 444h-440zM496 -610l137 479h-256l-84 -479h203z" />
    <glyph glyph-name="kgreenlandic" unicode="&#x138;" horiz-adv-x="1247" 
d="M494 737v371h-390v-1108h390v580l323 -580h428l-395 664l385 444h-440z" />
    <glyph glyph-name="Lacute" unicode="&#x139;" horiz-adv-x="1218" 
d="M492 348v1086h-398v-1434h1092v348h-694zM381 1958l-213 -379h274l301 262z" />
    <glyph glyph-name="lacute" unicode="&#x13a;" horiz-adv-x="636" 
d="M518 0v1434h-399v-1434h399zM360 1958l-213 -379h275l301 262z" />
    <glyph glyph-name="uni013B" unicode="&#x13b;" horiz-adv-x="1280" 
d="M532 348v1086h-397v-1434h1092v348h-695zM547 -610l137 479h-256l-84 -479h203z" />
    <glyph glyph-name="uni013C" unicode="&#x13c;" horiz-adv-x="636" 
d="M518 0v1434h-399v-1434h399zM172 -610l137 479h-256l-84 -479h203z" />
    <glyph glyph-name="Lcaron" unicode="&#x13d;" horiz-adv-x="1193" 
d="M516 348v1086h-397v-1434h1091v348h-694zM1001 1200l138 479h-256l-84 -479h202z" />
    <glyph glyph-name="lcaron" unicode="&#x13e;" horiz-adv-x="600" 
d="M494 0v1495h-390v-1495h390zM780 1200l138 479h-256l-84 -479h202z" />
    <glyph glyph-name="Ldot" unicode="&#x13f;" horiz-adv-x="1189" 
d="M516 348v1086h-397v-1434h1091v348h-694zM969 987q-97 0 -158 -50.5t-61 -145.5t61.5 -147t157.5 -52t158.5 52t62.5 147q0 94 -62 145t-159 51z" />
    <glyph glyph-name="ldot" unicode="&#x140;" horiz-adv-x="919" 
d="M494 0v1495h-390v-1495h390zM786 987q-97 0 -158 -50.5t-61 -145.5t61.5 -147t157.5 -52q97 0 159.5 52t62.5 147q0 94 -62.5 145t-159.5 51z" />
    <glyph glyph-name="Lslash" unicode="&#x141;" horiz-adv-x="1208" 
d="M508 348v1086h-397v-1434h1091v348h-694zM901 426v334h-917v-334h917z" />
    <glyph glyph-name="lslash" unicode="&#x142;" horiz-adv-x="757" 
d="M485 0v1495h-389v-1495h389zM686 350v334h-686v-334h686z" />
    <glyph glyph-name="Nacute" unicode="&#x143;" horiz-adv-x="1593" 
d="M1079 676l-590 758h-370v-1434h393v786l612 -786h349v1434h-394v-758zM842 1958l-213 -379h274l301 262z" />
    <glyph glyph-name="nacute" unicode="&#x144;" horiz-adv-x="1300" 
d="M1202 725q0 177 -103 292.5t-274 115.5q-189 0 -331 -181l-390 156v-1108h390v600q0 87 47 136.5t116 49.5q68 0 112 -49t44 -137v-600h389v725zM776 1640l-213 -378h275l301 262z" />
    <glyph glyph-name="uni0145" unicode="&#x145;" horiz-adv-x="1622" 
d="M1096 676l-590 758h-371v-1434h393v786l613 -786h348v1434h-393v-758zM676 -610l137 479h-256l-84 -479h203z" />
    <glyph glyph-name="uni0146" unicode="&#x146;" horiz-adv-x="1323" 
d="M1217 725q0 177 -103 292.5t-274 115.5q-190 0 -332 -181l-389 156v-1108h389v600q0 87 47.5 136.5t116.5 49.5q68 0 111.5 -49t43.5 -137v-600h390v725zM502 -610l137 479h-256l-84 -479h203z" />
    <glyph glyph-name="Ncaron" unicode="&#x147;" horiz-adv-x="1593" 
d="M1079 676l-590 758h-370v-1434h393v786l612 -786h349v1434h-394v-758zM1212 1962h-280l-115 -129l-119 129h-286l299 -383h204z" />
    <glyph glyph-name="ncaron" unicode="&#x148;" horiz-adv-x="1300" 
d="M1202 725q0 177 -103 292.5t-274 115.5q-189 0 -331 -181l-390 156v-1108h390v600q0 87 47 136.5t116 49.5q68 0 112 -49t44 -137v-600h389v725zM1053 1591h-281l-115 -129l-118 129h-287l299 -383h205z" />
    <glyph glyph-name="Eng" unicode="&#x14a;" horiz-adv-x="1593" 
d="M119 1434v-1434h393v786l571 -733v-2q0 -114 -88 -114q-27 0 -77 16v-272q88 -15 159 -15q197 0 296.5 89.5t99.5 293.5v117v1268h-394v-758l-590 758h-370z" />
    <glyph glyph-name="eng" unicode="&#x14b;" horiz-adv-x="1300" 
d="M104 1108v-1108h390v600q0 87 47 136.5t116 49.5q68 0 112 -49t44 -137v-534q0 -129 -88 -129q-28 0 -78 16v-272q88 -15 160 -15q196 0 295.5 89.5t99.5 293.5v676q0 186 -106.5 297t-270.5 111q-189 0 -331 -181z" />
    <glyph glyph-name="Omacron" unicode="&#x14c;" horiz-adv-x="1695" 
d="M846 -29q157 0 300 58t247 157.5t165.5 239t61.5 295.5q0 203 -100 372.5t-277.5 269t-394.5 99.5q-163 0 -307 -59t-245.5 -159t-160.5 -237.5t-59 -289.5q0 -153 58.5 -290.5t160 -237.5t245.5 -159t306 -59zM846 1104q159 0 262.5 -114.5t103.5 -272.5
q0 -103 -44.5 -191t-129 -142t-190.5 -54q-104 0 -189 54.5t-130.5 144t-45.5 192.5q0 159 102 271t261 112zM1229 1524v239h-760v-239h760z" />
    <glyph glyph-name="omacron" unicode="&#x14d;" horiz-adv-x="1345" 
d="M672 -27q124 0 236.5 44.5t196 121t132.5 186t49 232.5q0 157 -78 289t-218.5 209.5t-313.5 77.5q-130 0 -245 -46.5t-195.5 -124.5t-127.5 -185t-47 -224q0 -118 46 -224.5t126 -184.5t194.5 -124.5t244.5 -46.5zM672 803q100 0 167.5 -74.5t67.5 -175.5
q0 -103 -64 -176.5t-167 -73.5q-101 0 -168.5 74.5t-67.5 179.5q0 103 64.5 174.5t167.5 71.5zM1055 1186v239h-760v-239h760z" />
    <glyph glyph-name="Obreve" unicode="&#x14e;" horiz-adv-x="1695" 
d="M846 -29q157 0 300 58t247 157.5t165.5 239t61.5 295.5q0 203 -100 372.5t-277.5 269t-394.5 99.5q-163 0 -307 -59t-245.5 -159t-160.5 -237.5t-59 -289.5q0 -153 58.5 -290.5t160 -237.5t245.5 -159t306 -59zM846 1104q159 0 262.5 -114.5t103.5 -272.5
q0 -103 -44.5 -191t-129 -142t-190.5 -54q-104 0 -189 54.5t-130.5 144t-45.5 192.5q0 159 102 271t261 112zM981 1888q-19 -64 -53 -99.5t-78 -35.5t-81 36t-56 99h-213q12 -165 109 -270t237 -105q141 0 238.5 104.5t109.5 270.5h-213z" />
    <glyph glyph-name="obreve" unicode="&#x14f;" horiz-adv-x="1345" 
d="M672 -27q124 0 236.5 44.5t196 121t132.5 186t49 232.5q0 157 -78 289t-218.5 209.5t-313.5 77.5q-130 0 -245 -46.5t-195.5 -124.5t-127.5 -185t-47 -224q0 -118 46 -224.5t126 -184.5t194.5 -124.5t244.5 -46.5zM672 803q100 0 167.5 -74.5t67.5 -175.5
q0 -103 -64 -176.5t-167 -73.5q-101 0 -168.5 74.5t-67.5 179.5q0 103 64.5 174.5t167.5 71.5zM823 1550q-19 -64 -53 -99.5t-78 -35.5t-81 36t-56 99h-213q12 -165 109 -269.5t237 -104.5q141 0 238.5 104.5t109.5 269.5h-213z" />
    <glyph glyph-name="Ohungarumlaut" unicode="&#x150;" horiz-adv-x="1695" 
d="M846 -29q157 0 300 58t247 157.5t165.5 239t61.5 295.5q0 203 -100 372.5t-277.5 269t-394.5 99.5q-163 0 -307 -59t-245.5 -159t-160.5 -237.5t-59 -289.5q0 -153 58.5 -290.5t160 -237.5t245.5 -159t306 -59zM846 1104q159 0 262.5 -114.5t103.5 -272.5
q0 -103 -44.5 -191t-129 -142t-190.5 -54q-104 0 -189 54.5t-130.5 144t-45.5 192.5q0 159 102 271t261 112zM741 1567l326 342l-315 59l-275 -401h264zM1217 1567l325 344l-317 57l-271 -401h263z" />
    <glyph glyph-name="ohungarumlaut" unicode="&#x151;" horiz-adv-x="1390" 
d="M672 -27q124 0 236.5 44.5t196 121t132.5 186t49 232.5q0 157 -78 289t-218.5 209.5t-313.5 77.5q-130 0 -245 -46.5t-195.5 -124.5t-127.5 -185t-47 -224q0 -118 46 -224.5t126 -184.5t194.5 -124.5t244.5 -46.5zM672 803q100 0 167.5 -74.5t67.5 -175.5
q0 -103 -64 -176.5t-167 -73.5q-101 0 -168.5 74.5t-67.5 179.5q0 103 64.5 174.5t167.5 71.5zM571 1229l326 342l-315 59l-275 -401h264zM1047 1229l325 344l-317 57l-271 -401h263z" />
    <glyph glyph-name="OE" unicode="&#x152;" horiz-adv-x="2308" 
d="M1044 1044q-91 60 -198 60q-159 0 -261 -112t-102 -271q0 -161 116.5 -275t285.5 -114q81 0 159 55v657zM1438 565v-227h770v-338h-1145q-96 -29 -217 -29q-162 0 -306 59t-245.5 159t-160 237.5t-58.5 290.5q0 152 59 289.5t160.5 237.5t245.5 159t307 59q107 0 219 -28
h1131v-338h-760v-217h688v-314h-688z" />
    <glyph glyph-name="oe" unicode="&#x153;" horiz-adv-x="2109" 
d="M1939 389q-71 -64 -197.5 -102.5t-236.5 -38.5q-118 0 -184 55l727 189q0 125 -36 237.5t-103 200.5t-173 140t-237 52q-243 0 -395 -149q-82 75 -192 117.5t-236 42.5q-130 0 -245 -46.5t-195.5 -124.5t-127.5 -185t-47 -224q0 -118 46 -224.5t126 -184.5t194.5 -124.5
t244.5 -46.5q245 0 420 154q153 -162 407 -162q105 0 224 29t216 92v303zM672 803q102 0 168.5 -74.5t66.5 -175.5q0 -103 -64 -176.5t-167 -73.5q-101 0 -168.5 74.5t-67.5 179.5q0 103 64.5 174.5t167.5 71.5zM1290 557q-5 65 11.5 126.5t62.5 106t113 44.5
q72 0 121.5 -47.5t68.5 -133.5z" />
    <glyph glyph-name="Racute" unicode="&#x154;" horiz-adv-x="1423" 
d="M119 0h399v434h174l287 -434h459l-342 500q140 59 217.5 171t77.5 273q0 228 -151 359t-443 131h-678v-1434zM518 745v345h258q102 0 158.5 -43t56.5 -127q0 -79 -56.5 -127t-156.5 -48h-260zM807 1958l-213 -379h274l301 262z" />
    <glyph glyph-name="racute" unicode="&#x155;" horiz-adv-x="909" 
d="M844 1126h-19q-124 0 -202.5 -61.5t-128.5 -179.5l-390 223v-1108h390v344q0 188 81 280.5t236 92.5h33v409zM537 1640l-213 -378h274l301 262z" />
    <glyph glyph-name="uni0156" unicode="&#x156;" horiz-adv-x="1423" 
d="M119 0h399v434h174l287 -434h459l-342 500q140 59 217.5 171t77.5 273q0 228 -151 359t-443 131h-678v-1434zM518 745v345h258q102 0 158.5 -43t56.5 -127q0 -79 -56.5 -127t-156.5 -48h-260zM614 -610l138 479h-256l-84 -479h202z" />
    <glyph glyph-name="uni0157" unicode="&#x157;" horiz-adv-x="854" 
d="M844 1126h-19q-124 0 -202.5 -61.5t-128.5 -179.5l-390 223v-1108h390v344q0 188 81 280.5t236 92.5h33v409zM172 -610l137 479h-256l-84 -479h203z" />
    <glyph glyph-name="Rcaron" unicode="&#x158;" horiz-adv-x="1423" 
d="M119 0h399v434h174l287 -434h459l-342 500q140 59 217.5 171t77.5 273q0 228 -151 359t-443 131h-678v-1434zM518 745v345h258q102 0 158.5 -43t56.5 -127q0 -79 -56.5 -127t-156.5 -48h-260zM1096 1962h-281l-115 -129l-118 129h-287l299 -383h205z" />
    <glyph glyph-name="rcaron" unicode="&#x159;" horiz-adv-x="854" 
d="M844 1126h-19q-124 0 -202.5 -61.5t-128.5 -179.5l-390 223v-1108h390v344q0 188 81 280.5t236 92.5h33v409zM881 1591h-281l-115 -129l-118 129h-287l299 -383h205z" />
    <glyph glyph-name="Sacute" unicode="&#x15a;" horiz-adv-x="1345" 
d="M887 403q0 -33 -18 -54.5t-50.5 -30t-57.5 -11t-59 -2.5q-166 0 -347.5 74.5t-317.5 189.5v-356q130 -119 307 -178.5t365 -59.5q163 0 291 47.5t206 148t78 241.5q0 92 -26.5 165.5t-71.5 120.5t-103.5 82.5t-123 56.5t-129 37.5t-123 30.5t-103.5 30t-71.5 41t-26.5 60
q0 41 46.5 72t137.5 31q134 0 288.5 -67.5t270.5 -166.5v363q-237 190 -590 190q-88 0 -169 -17.5t-151.5 -54.5t-122.5 -90.5t-82 -129.5t-30 -167q0 -84 27 -151.5t72 -111.5t104 -77.5t124 -54t129.5 -37.5t123.5 -31.5t104 -31t72 -42t27 -59.5zM752 1958l-213 -379h274
l301 262z" />
    <glyph glyph-name="sacute" unicode="&#x15b;" horiz-adv-x="1024" 
d="M608 311q0 -23 -24.5 -38.5t-50.5 -20t-50 -4.5q-85 0 -202 41.5t-213 105.5v-317q130 -52 230.5 -77.5t209.5 -25.5q205 0 329 96.5t124 264.5q0 78 -31.5 138.5t-82 96.5t-111.5 63t-122 45t-111.5 34t-82 37.5t-31.5 50.5q0 27 23 42t67 15q68 0 184.5 -36.5
t202.5 -84.5v314q-113 44 -193 61.5t-190 17.5q-197 0 -321.5 -97.5t-124.5 -268.5q0 -71 24.5 -127.5t64.5 -92.5t91.5 -64t105 -44t105 -31t91.5 -26t64.5 -28.5t24.5 -39.5zM530 1640l-213 -378h275l301 262z" />
    <glyph glyph-name="Scircumflex" unicode="&#x15c;" horiz-adv-x="1345" 
d="M887 403q0 -33 -18 -54.5t-50.5 -30t-57.5 -11t-59 -2.5q-166 0 -347.5 74.5t-317.5 189.5v-356q130 -119 307 -178.5t365 -59.5q163 0 291 47.5t206 148t78 241.5q0 92 -26.5 165.5t-71.5 120.5t-103.5 82.5t-123 56.5t-129 37.5t-123 30.5t-103.5 30t-71.5 41t-26.5 60
q0 41 46.5 72t137.5 31q134 0 288.5 -67.5t270.5 -166.5v363q-237 190 -590 190q-88 0 -169 -17.5t-151.5 -54.5t-122.5 -90.5t-82 -129.5t-30 -167q0 -84 27 -151.5t72 -111.5t104 -77.5t124 -54t129.5 -37.5t123.5 -31.5t104 -31t72 -42t27 -59.5zM1075 1593l-287 381
h-202l-287 -381h268l121 125l121 -125h266z" />
    <glyph glyph-name="scircumflex" unicode="&#x15d;" horiz-adv-x="1024" 
d="M608 311q0 -23 -24.5 -38.5t-50.5 -20t-50 -4.5q-85 0 -202 41.5t-213 105.5v-317q130 -52 230.5 -77.5t209.5 -25.5q205 0 329 96.5t124 264.5q0 78 -31.5 138.5t-82 96.5t-111.5 63t-122 45t-111.5 34t-82 37.5t-31.5 50.5q0 27 23 42t67 15q68 0 184.5 -36.5
t202.5 -84.5v314q-113 44 -193 61.5t-190 17.5q-197 0 -321.5 -97.5t-124.5 -268.5q0 -71 24.5 -127.5t64.5 -92.5t91.5 -64t105 -44t105 -31t91.5 -26t64.5 -28.5t24.5 -39.5zM858 1255l-287 381h-202l-287 -381h268l121 125l121 -125h266z" />
    <glyph glyph-name="Scedilla" unicode="&#x15e;" horiz-adv-x="1343" 
d="M887 403q0 -33 -18 -54.5t-50.5 -30t-57.5 -11t-59 -2.5q-166 0 -347.5 74.5t-317.5 189.5v-356q130 -119 307 -178.5t365 -59.5q163 0 291 47.5t206 148t78 241.5q0 92 -26.5 165.5t-71.5 120.5t-103.5 82.5t-123 56.5t-129 37.5t-123 30.5t-103.5 30t-71.5 41t-26.5 60
q0 41 46.5 72t137.5 31q134 0 288.5 -67.5t270.5 -166.5v363q-237 190 -590 190q-88 0 -169 -17.5t-151.5 -54.5t-122.5 -90.5t-82 -129.5t-30 -167q0 -84 27 -151.5t72 -111.5t104 -77.5t124 -54t129.5 -37.5t123.5 -31.5t104 -31t72 -42t27 -59.5zM678 -139l86 139h-143
l-144 -225l64 -54q49 21 92 21q37 0 58.5 -13.5t21.5 -37.5q0 -29 -35.5 -44.5t-73.5 -15.5q-74 0 -147 33l-54 -115q109 -53 222 -53q46 0 88.5 10t82 31.5t63.5 61.5t24 94q0 79 -57.5 123.5t-131.5 44.5h-16z" />
    <glyph glyph-name="scedilla" unicode="&#x15f;" horiz-adv-x="1024" 
d="M608 311q0 -23 -24.5 -38.5t-50.5 -20t-50 -4.5q-85 0 -202 41.5t-213 105.5v-317q130 -52 230.5 -77.5t209.5 -25.5q205 0 329 96.5t124 264.5q0 78 -31.5 138.5t-82 96.5t-111.5 63t-122 45t-111.5 34t-82 37.5t-31.5 50.5q0 27 23 42t67 15q68 0 184.5 -36.5
t202.5 -84.5v314q-113 44 -193 61.5t-190 17.5q-197 0 -321.5 -97.5t-124.5 -268.5q0 -71 24.5 -127.5t64.5 -92.5t91.5 -64t105 -44t105 -31t91.5 -26t64.5 -28.5t24.5 -39.5zM498 -139l86 139h-144l-143 -225l63 -54q50 21 93 21q79 0 79 -51q0 -29 -35 -44.5t-73 -15.5
q-75 0 -148 33l-53 -115q109 -53 221 -53q46 0 88.5 10t82 31.5t63.5 61.5t24 94q0 79 -57 123.5t-131 44.5h-16z" />
    <glyph glyph-name="Scaron" unicode="&#x160;" horiz-adv-x="1345" 
d="M887 403q0 -33 -18 -54.5t-50.5 -30t-57.5 -11t-59 -2.5q-166 0 -347.5 74.5t-317.5 189.5v-356q130 -119 307 -178.5t365 -59.5q163 0 291 47.5t206 148t78 241.5q0 92 -26.5 165.5t-71.5 120.5t-103.5 82.5t-123 56.5t-129 37.5t-123 30.5t-103.5 30t-71.5 41t-26.5 60
q0 41 46.5 72t137.5 31q134 0 288.5 -67.5t270.5 -166.5v363q-237 190 -590 190q-88 0 -169 -17.5t-151.5 -54.5t-122.5 -90.5t-82 -129.5t-30 -167q0 -84 27 -151.5t72 -111.5t104 -77.5t124 -54t129.5 -37.5t123.5 -31.5t104 -31t72 -42t27 -59.5zM1087 1962h-280
l-115 -129l-119 129h-286l299 -383h205z" />
    <glyph glyph-name="scaron" unicode="&#x161;" horiz-adv-x="1024" 
d="M608 311q0 -23 -24.5 -38.5t-50.5 -20t-50 -4.5q-85 0 -202 41.5t-213 105.5v-317q130 -52 230.5 -77.5t209.5 -25.5q205 0 329 96.5t124 264.5q0 78 -31.5 138.5t-82 96.5t-111.5 63t-122 45t-111.5 34t-82 37.5t-31.5 50.5q0 27 23 42t67 15q68 0 184.5 -36.5
t202.5 -84.5v314q-113 44 -193 61.5t-190 17.5q-197 0 -321.5 -97.5t-124.5 -268.5q0 -71 24.5 -127.5t64.5 -92.5t91.5 -64t105 -44t105 -31t91.5 -26t64.5 -28.5t24.5 -39.5zM913 1624h-280l-115 -129l-119 129h-286l299 -383h204z" />
    <glyph glyph-name="uni0162" unicode="&#x162;" horiz-adv-x="1304" 
d="M850 0v1085h430v349h-1257v-349h430v-1085h397zM657 -139l86 139h-143l-143 -225l63 -54q50 21 92 21q37 0 58.5 -13.5t21.5 -37.5q0 -29 -35 -44.5t-73 -15.5q-75 0 -148 33l-53 -115q109 -53 221 -53q46 0 88.5 10t82 31.5t63.5 61.5t24 94q0 79 -57 123.5t-131 44.5
h-17z" />
    <glyph glyph-name="uni0163" unicode="&#x163;" horiz-adv-x="903" 
d="M233 344q0 -367 373 -367q153 0 271 64v305q-82 -37 -148 -37q-55 0 -80.5 26t-25.5 85v375h258v313h-258v342l-603 -655h213v-451zM588 -139l86 139h-144l-143 -225l64 -54q50 21 92 21q37 0 58.5 -13.5t21.5 -37.5q0 -29 -35.5 -44.5t-73.5 -15.5q-74 0 -147 33
l-54 -115q109 -53 222 -53q46 0 88.5 10t82 31.5t63.5 61.5t24 94q0 79 -57.5 123.5t-131.5 44.5h-16z" />
    <glyph glyph-name="Tcaron" unicode="&#x164;" horiz-adv-x="1304" 
d="M850 0v1085h430v349h-1257v-349h430v-1085h397zM1051 1962h-281l-115 -129l-118 129h-287l299 -383h205z" />
    <glyph glyph-name="tcaron" unicode="&#x165;" horiz-adv-x="903" 
d="M233 344q0 -367 373 -367q153 0 271 64v305q-82 -37 -148 -37q-55 0 -80.5 26t-25.5 85v375h258v313h-258v342l-603 -655h213v-451zM897 1200l137 479h-256l-84 -479h203z" />
    <glyph glyph-name="Tbar" unicode="&#x166;" horiz-adv-x="1304" 
d="M850 0v1085h430v349h-1257v-349h430v-1085h397zM1032 582v239h-760v-239h760z" />
    <glyph glyph-name="tbar" unicode="&#x167;" horiz-adv-x="903" 
d="M233 344q0 -367 373 -367q153 0 271 64v305q-82 -37 -148 -37q-55 0 -80.5 26t-25.5 85v375h258v313h-258v342l-603 -655h213v-451zM836 449v239h-768v-239h768z" />
    <glyph glyph-name="Utilde" unicode="&#x168;" horiz-adv-x="1552" 
d="M106 629q0 -327 173.5 -491.5t490.5 -164.5q155 0 277.5 39.5t211.5 119.5t136 208t47 299v795h-404v-807q0 -150 -68.5 -222.5t-195.5 -72.5q-126 0 -195 76.5t-69 228.5v797h-404v-805zM600 1544q17 56 32 76t38 20q22 0 101.5 -35.5t133.5 -35.5q174 0 258 297
l-209 39q-22 -93 -63 -93q-21 0 -105 36t-139 36q-179 0 -258 -303z" />
    <glyph glyph-name="utilde" unicode="&#x169;" horiz-adv-x="1292" 
d="M98 383q0 -187 96.5 -297.5t280.5 -110.5q112 0 196.5 42t135.5 110l389 -152v1133h-389v-600q0 -88 -45.5 -137t-116.5 -49q-72 0 -115 48.5t-43 137.5v600h-389v-725zM477 1206q17 56 32 76.5t38 20.5q22 0 101.5 -36t133.5 -36q174 0 258 297l-209 39q-22 -92 -63 -92
q-21 0 -105 35.5t-139 35.5q-179 0 -258 -303z" />
    <glyph glyph-name="Umacron" unicode="&#x16a;" horiz-adv-x="1552" 
d="M106 629q0 -327 173.5 -491.5t490.5 -164.5q155 0 277.5 39.5t211.5 119.5t136 208t47 299v795h-404v-807q0 -150 -68.5 -222.5t-195.5 -72.5q-126 0 -195 76.5t-69 228.5v797h-404v-805zM1163 1524v239h-760v-239h760z" />
    <glyph glyph-name="umacron" unicode="&#x16b;" horiz-adv-x="1292" 
d="M98 383q0 -187 96.5 -297.5t280.5 -110.5q112 0 196.5 42t135.5 110l389 -152v1133h-389v-600q0 -88 -45.5 -137t-116.5 -49q-72 0 -115 48.5t-43 137.5v600h-389v-725zM1036 1186v239h-760v-239h760z" />
    <glyph glyph-name="Ubreve" unicode="&#x16c;" horiz-adv-x="1552" 
d="M106 629q0 -327 173.5 -491.5t490.5 -164.5q155 0 277.5 39.5t211.5 119.5t136 208t47 299v795h-404v-807q0 -150 -68.5 -222.5t-195.5 -72.5q-126 0 -195 76.5t-69 228.5v797h-404v-805zM911 1888q-19 -64 -53 -99.5t-78 -35.5t-81 36t-56 99h-213q12 -165 109 -270
t237 -105q141 0 238.5 104.5t109.5 270.5h-213z" />
    <glyph glyph-name="ubreve" unicode="&#x16d;" horiz-adv-x="1292" 
d="M98 383q0 -187 96.5 -297.5t280.5 -110.5q112 0 196.5 42t135.5 110l389 -152v1133h-389v-600q0 -88 -45.5 -137t-116.5 -49q-72 0 -115 48.5t-43 137.5v600h-389v-725zM782 1550q-19 -64 -53 -99.5t-78 -35.5t-81 36t-56 99h-213q12 -165 109 -269.5t237 -104.5
q141 0 238.5 104.5t109.5 269.5h-213z" />
    <glyph glyph-name="Uring" unicode="&#x16e;" horiz-adv-x="1552" 
d="M106 629q0 -327 173.5 -491.5t490.5 -164.5q155 0 277.5 39.5t211.5 119.5t136 208t47 299v795h-404v-807q0 -150 -68.5 -222.5t-195.5 -72.5q-126 0 -195 76.5t-69 228.5v797h-404v-805zM772 1548q106 0 180 72t74 176q0 101 -74.5 172.5t-179.5 71.5q-101 0 -176.5 -72
t-75.5 -174q0 -103 75.5 -174.5t176.5 -71.5zM772 1843q22 0 35.5 -13.5t13.5 -35.5q0 -49 -49 -49q-21 0 -34 14t-13 37q0 19 13.5 33t33.5 14z" />
    <glyph glyph-name="uring" unicode="&#x16f;" horiz-adv-x="1292" 
d="M98 383q0 -187 96.5 -297.5t280.5 -110.5q112 0 196.5 42t135.5 110l389 -152v1133h-389v-600q0 -88 -45.5 -137t-116.5 -49q-72 0 -115 48.5t-43 137.5v600h-389v-725zM643 1176q106 0 180 71.5t74 175.5q0 101 -74.5 172.5t-179.5 71.5q-101 0 -176.5 -72t-75.5 -174
q0 -103 75.5 -174t176.5 -71zM643 1470q22 0 35.5 -13.5t13.5 -35.5q0 -49 -49 -49q-21 0 -34 14t-13 37q0 19 13.5 33t33.5 14z" />
    <glyph glyph-name="Uhungarumlaut" unicode="&#x170;" horiz-adv-x="1552" 
d="M106 629q0 -327 173.5 -491.5t490.5 -164.5q155 0 277.5 39.5t211.5 119.5t136 208t47 299v795h-404v-807q0 -150 -68.5 -222.5t-195.5 -72.5q-126 0 -195 76.5t-69 228.5v797h-404v-805zM633 1567l325 342l-315 59l-274 -401h264zM1108 1567l326 344l-318 57l-270 -401
h262z" />
    <glyph glyph-name="uhungarumlaut" unicode="&#x171;" horiz-adv-x="1417" 
d="M98 383q0 -187 96.5 -297.5t280.5 -110.5q112 0 196.5 42t135.5 110l389 -152v1133h-389v-600q0 -88 -45.5 -137t-116.5 -49q-72 0 -115 48.5t-43 137.5v600h-389v-725zM520 1229l326 342l-316 59l-274 -401h264zM995 1229l326 344l-317 57l-271 -401h262z" />
    <glyph glyph-name="Uogonek" unicode="&#x172;" horiz-adv-x="1552" 
d="M106 629q0 -327 173.5 -491.5t490.5 -164.5q155 0 277.5 39.5t211.5 119.5t136 208t47 299v795h-404v-807q0 -150 -68.5 -222.5t-195.5 -72.5q-126 0 -195 76.5t-69 228.5v797h-404v-805zM961 -242q-71 -30 -115 -30q-27 0 -44.5 12t-17.5 37q0 61 136 223h-258
q-60 -69 -95 -130.5t-35 -131.5q0 -102 74 -163.5t189 -61.5q111 0 213 55z" />
    <glyph glyph-name="uogonek" unicode="&#x173;" horiz-adv-x="1292" 
d="M98 383q0 -187 96.5 -297.5t280.5 -110.5q112 0 196.5 42t135.5 110l389 -152v1133h-389v-600q0 -88 -45.5 -137t-116.5 -49q-72 0 -115 48.5t-43 137.5v600h-389v-725zM1237 -242q-71 -30 -115 -30q-61 0 -61 49q0 65 135 198l-203 84q-99 -107 -141.5 -177t-42.5 -144
q0 -102 73.5 -163.5t188.5 -61.5q111 0 213 55z" />
    <glyph glyph-name="Wcircumflex" unicode="&#x174;" horiz-adv-x="2213" 
d="M664 604l-250 830h-420l479 -1444h346l287 825l289 -825h346l479 1444h-412l-249 -830l-277 834h-342zM1493 1593l-287 381h-202l-287 -381h268l121 125l121 -125h266z" />
    <glyph glyph-name="wcircumflex" unicode="&#x175;" horiz-adv-x="1669" 
d="M358 1108h-381l338 -1116h334l185 575l180 -575h336l342 1116h-375l-150 -561l-172 565h-321l-170 -561zM1221 1255l-287 381h-203l-287 -381h269l121 125l120 -125h267z" />
    <glyph glyph-name="Ycircumflex" unicode="&#x176;" horiz-adv-x="1460" 
d="M930 0v543l545 891h-445l-297 -523l-295 523h-452l544 -897v-537h400zM1122 1593l-286 381h-203l-287 -381h268l121 125l121 -125h266z" />
    <glyph glyph-name="ycircumflex" unicode="&#x177;" horiz-adv-x="1214" 
d="M-12 1108l467 -1120l-101 -316h330l541 1436h-400l-209 -709l-221 709h-407zM1004 1255l-287 381h-203l-287 -381h269l120 125l121 -125h267z" />
    <glyph glyph-name="Ydieresis" unicode="&#x178;" horiz-adv-x="1460" 
d="M930 0v543l545 891h-445l-297 -523l-295 523h-452l544 -897v-537h400zM502 1976q-81 0 -130.5 -46.5t-49.5 -127.5q0 -83 51 -129.5t129 -46.5t129 46.5t51 129.5t-50.5 128.5t-129.5 45.5zM965 1976q-81 0 -131 -47t-50 -127q0 -83 51.5 -129.5t129.5 -46.5t129 46.5
t51 129.5t-50.5 128.5t-129.5 45.5z" />
    <glyph glyph-name="Zacute" unicode="&#x179;" horiz-adv-x="1277" 
d="M541 336l719 809v289h-1244v-336h695l-719 -809v-289h1268v336h-719zM735 1958l-213 -379h275l301 262z" />
    <glyph glyph-name="zacute" unicode="&#x17a;" horiz-adv-x="1097" 
d="M545 309l514 543v256h-1010v-309h494l-512 -543v-256h1028v309h-514zM635 1640l-213 -378h274l301 262z" />
    <glyph glyph-name="Zdotaccent" unicode="&#x17b;" horiz-adv-x="1277" 
d="M541 336l719 809v289h-1244v-336h695l-719 -809v-289h1268v336h-719zM655 1929q-97 0 -158 -50.5t-61 -145.5t61.5 -147t157.5 -52q97 0 159.5 52t62.5 147q0 94 -62.5 145t-159.5 51z" />
    <glyph glyph-name="zdotaccent" unicode="&#x17c;" horiz-adv-x="1097" 
d="M545 309l514 543v256h-1010v-309h494l-512 -543v-256h1028v309h-514zM567 1591q-97 0 -158 -50.5t-61 -145.5t61.5 -147t157.5 -52t158.5 52t62.5 147q0 94 -62 145t-159 51z" />
    <glyph glyph-name="Zcaron" unicode="&#x17d;" horiz-adv-x="1277" 
d="M541 336l719 809v289h-1244v-336h695l-719 -809v-289h1268v336h-719zM1069 1962h-281l-114 -129l-119 129h-287l299 -383h205z" />
    <glyph glyph-name="zcaron" unicode="&#x17e;" horiz-adv-x="1097" 
d="M545 309l514 543v256h-1010v-309h494l-512 -543v-256h1028v309h-514zM971 1591h-281l-115 -129l-118 129h-287l299 -383h205z" />
    <glyph glyph-name="florin" unicode="&#x192;" horiz-adv-x="948" 
d="M160 674l-187 -1008h389l187 1008h225l62 295h-234l31 129q15 69 51.5 99t108.5 30q46 0 77 -6l52 276q-102 25 -217 25q-195 0 -301 -86t-146 -267l-47 -200h-115l-61 -295h125z" />
    <glyph glyph-name="uni01CD" unicode="&#x1cd;" horiz-adv-x="1570" 
d="M504 256h553l104 -256h426l-610 1444h-383l-610 -1444h417zM621 565l161 408l160 -408h-321zM1186 1962h-281l-114 -129l-119 129h-287l299 -383h205z" />
    <glyph glyph-name="uni01CE" unicode="&#x1ce;" horiz-adv-x="1251" 
d="M764 285q-77 -66 -178 -66q-61 0 -104.5 36.5t-43.5 92.5q0 58 48 95.5t132 37.5q85 0 146 -28v-168zM1143 637q0 242 -132.5 364.5t-416.5 122.5q-126 0 -227.5 -21.5t-210.5 -64.5v-274q165 63 336 63q139 0 205.5 -43.5t66.5 -138.5v-18q-118 43 -270 43
q-198 0 -316.5 -90.5t-118.5 -257.5q0 -162 106.5 -254.5t272.5 -92.5q197 0 324 140l381 -140v662zM1026 1591h-281l-114 -129l-119 129h-287l299 -383h205z" />
    <glyph glyph-name="Aringacute" unicode="&#x1fa;" horiz-adv-x="1570" 
d="M788 1434q-22 0 -35.5 13.5t-13.5 35.5q0 20 14.5 33.5t37.5 13.5q19 0 33 -13.5t14 -33.5q0 -22 -14.5 -35.5t-35.5 -13.5zM-16 0h417l82 195h596l82 -195h426l-608 1323q59 72 59 160q0 101 -74.5 172t-179.5 71q-101 0 -176.5 -72t-75.5 -173q0 -92 60 -158zM948 504
h-334l166 393zM862 2163l-213 -379h275l301 262z" />
    <glyph glyph-name="Aringacute" unicode="&#x1fb;" horiz-adv-x="1570" 
d="M788 1434q-22 0 -35.5 13.5t-13.5 35.5q0 20 14.5 33.5t37.5 13.5q19 0 33 -13.5t14 -33.5q0 -22 -14.5 -35.5t-35.5 -13.5zM-16 0h417l82 195h596l82 -195h426l-608 1323q59 72 59 160q0 101 -74.5 172t-179.5 71q-101 0 -176.5 -72t-75.5 -173q0 -92 60 -158zM948 504
h-334l166 393zM862 2163l-213 -379h275l301 262z" />
    <glyph glyph-name="AEacute" unicode="&#x1fc;" horiz-adv-x="2062" 
d="M594 1434l-610 -1434h417l121 256h389v-256h1168v338h-774v227h692v314h-692v217h763v338h-1474zM911 565h-272l272 627v-627zM1202 1958l-213 -379h275l301 262z" />
    <glyph glyph-name="aeacute" unicode="&#x1fd;" horiz-adv-x="1970" 
d="M1800 389q-71 -64 -197.5 -102.5t-236.5 -38.5q-118 0 -184 55l727 189q0 125 -36 237.5t-103 200.5t-173 140t-237 52q-211 0 -361 -116q-130 118 -411 118q-227 0 -438 -86v-274q165 63 335 63q139 0 206 -43.5t67 -138.5v-18q-118 43 -271 43q-89 0 -165 -19
t-137.5 -59t-96.5 -109t-35 -161q0 -107 61.5 -187t160.5 -120t219 -40q141 0 254.5 28t228.5 95q155 -133 383 -133q116 0 231 31t209 90v303zM758 285q-77 -66 -178 -66q-61 0 -104.5 36.5t-43.5 92.5q0 58 48 95.5t132 37.5q85 0 146 -28v-168zM1151 557q-5 66 11 127
t62 105.5t113 44.5q72 0 122 -47.5t69 -133.5zM1065 1620l-213 -379h274l301 262z" />
    <glyph glyph-name="Oslashacute" unicode="&#x1fe;" horiz-adv-x="1675" 
d="M285 -141l258 -121l119 252q104 -19 174 -19q162 0 306 59.5t246.5 160.5t162 239.5t59.5 290.5q0 185 -81.5 340t-230.5 260l93 192l-256 121l-95 -196q-99 24 -202 24q-163 0 -307 -59t-245.5 -159t-160.5 -237.5t-59 -289.5q0 -193 88 -354t245 -267zM569 453
q-96 110 -96 268q0 162 102.5 272.5t260.5 110.5q29 0 43 -2zM1124 956q78 -108 78 -239q0 -163 -102.5 -275t-261.5 -112h-13zM956 1958l-213 -379h275l301 262z" />
    <glyph glyph-name="oslashacute" unicode="&#x1ff;" horiz-adv-x="1406" 
d="M934 659q20 -47 20 -106q0 -112 -68.5 -189t-178.5 -77q-48 0 -91 16zM475 446q-20 47 -20 107q0 112 68.5 189t178.5 77q58 0 93 -18zM61 -10l150 -140l180 201q143 -78 311 -78q130 0 245 46.5t195.5 124.5t127.5 185t47 224q0 219 -139 377l151 168l-153 147
l-160 -190q-140 78 -309 78q-130 0 -245 -46.5t-195.5 -124.5t-127.5 -185t-47 -224q0 -217 139 -375zM803 1620l-213 -379h274l301 262z" />
    <glyph glyph-name="uni0218" unicode="&#x218;" horiz-adv-x="1415" 
d="M967 403q0 -33 -18 -54.5t-50.5 -30t-57.5 -11t-59 -2.5q-166 0 -347.5 74.5t-317.5 189.5v-356q130 -119 306.5 -178.5t364.5 -59.5q163 0 291 47.5t206.5 148t78.5 241.5q0 92 -26.5 165.5t-71.5 120.5t-103.5 82.5t-123 56.5t-129 37.5t-123 30.5t-103.5 30t-71.5 41
t-26.5 60q0 41 46.5 72t137.5 31q134 0 288.5 -67.5t270.5 -166.5v363q-237 190 -590 190q-88 0 -169 -17.5t-151.5 -54.5t-122.5 -90.5t-82 -129.5t-30 -167q0 -84 27 -151.5t72 -111.5t104 -77.5t124 -54t129.5 -37.5t123.5 -31.5t104 -31t72 -42t27 -59.5zM575 -610
l138 479h-256l-84 -479h202z" />
    <glyph glyph-name="uni0219" unicode="&#x219;" horiz-adv-x="1044" 
d="M674 311q0 -23 -24.5 -38.5t-50.5 -20t-50 -4.5q-85 0 -202.5 41.5t-213.5 105.5v-317q130 -52 230.5 -77.5t209.5 -25.5q205 0 329 96.5t124 264.5q0 78 -31.5 138.5t-82 96.5t-111.5 63t-121.5 45t-111 34t-82 37.5t-31.5 50.5q0 27 23 42t67 15q68 0 184.5 -36.5
t202.5 -84.5v314q-113 44 -193 61.5t-190 17.5q-197 0 -322 -97.5t-125 -268.5q0 -71 24.5 -127.5t65 -92.5t91.5 -64t105 -44t105 -31t91.5 -26t65 -28.5t24.5 -39.5zM397 -610l138 479h-256l-84 -479h202z" />
    <glyph glyph-name="uni021A" unicode="&#x21a;" horiz-adv-x="1304" 
d="M850 0v1085h430v349h-1257v-349h430v-1085h397zM528 -610l138 479h-256l-84 -479h202z" />
    <glyph glyph-name="uni021B" unicode="&#x21b;" horiz-adv-x="903" 
d="M233 344q0 -367 373 -367q153 0 271 64v305q-82 -37 -148 -37q-55 0 -80.5 26t-25.5 85v375h258v313h-258v342l-603 -655h213v-451zM428 -610l137 479h-256l-84 -479h203z" />
    <glyph glyph-name="uni0237" unicode="&#x237;" horiz-adv-x="585" 
d="M-47 -319q88 -15 160 -15q196 0 295.5 89.5t99.5 293.5v1059h-389v-1042q0 -129 -88 -129q-28 0 -78 16v-272z" />
    <glyph glyph-name="circumflex" unicode="&#x2c6;" horiz-adv-x="747" 
d="M762 1255l-287 381h-203l-286 -381h268l121 125l121 -125h266z" />
    <glyph glyph-name="caron" unicode="&#x2c7;" horiz-adv-x="763" 
d="M782 1624h-280l-115 -129l-119 129h-286l299 -383h204z" />
    <glyph glyph-name="uni02C9" unicode="&#x2c9;" horiz-adv-x="884" 
d="M823 1186v239h-760v-239h760z" />
    <glyph glyph-name="breve" unicode="&#x2d8;" horiz-adv-x="686" 
d="M477 1550q-19 -64 -53 -99.5t-78 -35.5t-81 36t-56 99h-213q12 -165 109 -269.5t237 -104.5q141 0 238.5 104.5t109.5 269.5h-213z" />
    <glyph glyph-name="dotaccent" unicode="&#x2d9;" horiz-adv-x="489" 
d="M242 1591q-97 0 -158 -50.5t-61 -145.5t61.5 -147t157.5 -52t158.5 52t62.5 147q0 94 -62 145t-159 51z" />
    <glyph glyph-name="ring" unicode="&#x2da;" horiz-adv-x="600" 
d="M299 1210q106 0 180 72t74 176q0 101 -74.5 172.5t-179.5 71.5q-101 0 -176.5 -72t-75.5 -174q0 -103 75.5 -174.5t176.5 -71.5zM299 1505q22 0 35.5 -13.5t13.5 -35.5q0 -49 -49 -49q-21 0 -34 14t-13 37q0 19 13.5 33t33.5 14z" />
    <glyph glyph-name="ogonek" unicode="&#x2db;" horiz-adv-x="821" 
d="M594 -242q-71 -30 -115 -30q-61 0 -61 49q0 62 135 223h-258q-60 -68 -94.5 -130t-34.5 -132q0 -102 73.5 -163.5t188.5 -61.5q111 0 213 55z" />
    <glyph glyph-name="tilde" unicode="&#x2dc;" horiz-adv-x="749" 
d="M199 1206q17 56 31.5 76.5t37.5 20.5q22 0 102 -36t134 -36q174 0 258 297l-209 39q-22 -92 -64 -92q-21 0 -104.5 35.5t-138.5 35.5q-179 0 -258 -303z" />
    <glyph glyph-name="hungarumlaut" unicode="&#x2dd;" horiz-adv-x="964" 
d="M223 1229l326 342l-316 59l-274 -401h264zM698 1229l326 344l-317 57l-271 -401h262z" />
    <glyph glyph-name="gravecomb" unicode="&#x300;" 
d="M-33 1524l301 -262h275l-213 378z" />
    <glyph glyph-name="acutecomb" unicode="&#x301;" 
d="M223 1640l-213 -378h275l301 262z" />
    <glyph glyph-name="uni0302" unicode="&#x302;" 
d="M762 1255l-287 381h-203l-286 -381h268l121 125l121 -125h266z" />
    <glyph glyph-name="tildecomb" unicode="&#x303;" 
d="M199 1206q17 56 31.5 76.5t37.5 20.5q22 0 102 -36t134 -36q174 0 258 297l-209 39q-22 -92 -64 -92q-21 0 -104.5 35.5t-138.5 35.5q-179 0 -258 -303z" />
    <glyph glyph-name="uni0304" unicode="&#x304;" 
d="M823 1186v239h-760v-239h760z" />
    <glyph glyph-name="uni0306" unicode="&#x306;" 
d="M477 1550q-19 -64 -53 -99.5t-78 -35.5t-81 36t-56 99h-213q12 -165 109 -269.5t237 -104.5q141 0 238.5 104.5t109.5 269.5h-213z" />
    <glyph glyph-name="uni0307" unicode="&#x307;" 
d="M242 1591q-97 0 -158 -50.5t-61 -145.5t61.5 -147t157.5 -52t158.5 52t62.5 147q0 94 -62 145t-159 51z" />
    <glyph glyph-name="uni0308" unicode="&#x308;" 
d="M172 1638q-81 0 -130.5 -46.5t-49.5 -127.5q0 -83 51 -129.5t129 -46.5t129 46.5t51 129.5t-50.5 128.5t-129.5 45.5zM635 1638q-81 0 -130.5 -46.5t-49.5 -127.5q0 -83 51 -129.5t129 -46.5t129 46.5t51 129.5t-50.5 128.5t-129.5 45.5z" />
    <glyph glyph-name="uni030A" unicode="&#x30a;" 
d="M299 1210q106 0 180 72t74 176q0 101 -74.5 172.5t-179.5 71.5q-101 0 -176.5 -72t-75.5 -174q0 -103 75.5 -174.5t176.5 -71.5zM299 1505q22 0 35.5 -13.5t13.5 -35.5q0 -49 -49 -49q-21 0 -34 14t-13 37q0 19 13.5 33t33.5 14z" />
    <glyph glyph-name="uni030B" unicode="&#x30b;" 
d="M223 1229l326 342l-316 59l-274 -401h264zM698 1229l326 344l-317 57l-271 -401h262z" />
    <glyph glyph-name="uni030C" unicode="&#x30c;" 
d="M782 1591h-280l-115 -129l-119 129h-286l299 -383h204z" />
    <glyph glyph-name="uni030F" unicode="&#x30f;" 
d="M-33 1524l301 -262h275l-213 378zM479 1524l301 -262h275l-213 378z" />
    <glyph glyph-name="uni0311" unicode="&#x311;" 
d="M209 1174q19 64 53 99.5t78 35.5t81 -36t56 -99h213q-12 165 -109 269.5t-237 104.5q-141 0 -238.5 -104.5t-109.5 -269.5h213z" />
    <glyph glyph-name="uni0312" unicode="&#x312;" 
d="M266 1898l-211 -739h351l126 739h-266z" />
    <glyph glyph-name="uni0326" unicode="&#x326;" 
d="M252 -549l137 479h-256l-84 -479h203z" />
    <glyph glyph-name="uni0327" unicode="&#x327;" 
d="M422 -139l86 139h-143l-144 -225l64 -54q49 21 92 21q37 0 58.5 -13.5t21.5 -37.5q0 -29 -35.5 -44.5t-73.5 -15.5q-74 0 -147 33l-54 -115q109 -53 222 -53q46 0 88.5 10t82 31.5t63.5 61.5t24 94q0 79 -57.5 123.5t-131.5 44.5h-16z" />
    <glyph glyph-name="uni0328" unicode="&#x328;" 
d="M594 -242q-71 -30 -115 -30q-61 0 -61 49q0 62 135 223h-258q-60 -68 -94.5 -130t-34.5 -132q0 -102 73.5 -163.5t188.5 -61.5q111 0 213 55z" />
    <glyph glyph-name="uni0374" unicode="&#x374;" horiz-adv-x="1009" 
d="M379 1724l-213 -503h274l426 503h-487z" />
    <glyph glyph-name="uni0375" unicode="&#x375;" horiz-adv-x="1009" 
d="M653 -442l213 503h-274l-426 -503h487z" />
    <glyph glyph-name="uni037E" unicode="&#x37e;" horiz-adv-x="608" 
d="M293 1130q-105 0 -167.5 -59t-62.5 -164q0 -107 64 -166t166 -59t166.5 59t64.5 166t-64.5 165t-166.5 58zM281 -336l211 739h-351l-127 -739h267z" />
    <glyph glyph-name="tonos" unicode="&#x384;" horiz-adv-x="1009" 
d="M379 1724l-213 -378h274l426 378h-487z" />
    <glyph glyph-name="dieresistonos" unicode="&#x385;" horiz-adv-x="1325" 
d="M262 1642q-64 0 -111 -44.5t-47 -108.5q0 -69 47.5 -113.5t110.5 -44.5t111.5 44.5t48.5 113.5q0 65 -49 109t-111 44zM555 1712l-123 -379h246l303 379h-426zM911 1493q0 -64 45 -111t109 -47q69 0 113.5 47.5t44.5 110.5t-44.5 111.5t-113.5 48.5q-65 0 -109.5 -49
t-44.5 -111z" />
    <glyph glyph-name="Alphatonos" unicode="&#x386;" horiz-adv-x="1656" 
d="M590 256h553l104 -256h426l-610 1444h-383l-610 -1444h417zM707 565l161 408l160 -408h-321zM133 1622l-213 -379h275l426 379h-488z" />
    <glyph glyph-name="anoteleia" unicode="&#x387;" horiz-adv-x="716" 
d="M356 944q-105 0 -167 -59t-62 -164q0 -107 63.5 -166t165.5 -59t167 59t65 166t-65 165t-167 58z" />
    <glyph glyph-name="Epsilontonos" unicode="&#x388;" horiz-adv-x="1562" 
d="M692 338v227h688v314h-688v217h760v338h-1153v-1434h1163v338h-770zM-164 1622l-213 -379h275l426 379h-488z" />
    <glyph glyph-name="Etatonos" unicode="&#x389;" horiz-adv-x="1728" 
d="M303 1434v-1434h397v545h510v-545h398v1434h-398v-537h-510v537h-397zM-164 1622l-213 -379h275l426 379h-488z" />
    <glyph glyph-name="Iotatonos" unicode="&#x38a;" horiz-adv-x="636" 
d="M518 0v1434h-399v-1434h399zM-276 1622l-213 -379h274l426 379h-487z" />
    <glyph glyph-name="Omicrontonos" unicode="&#x38c;" horiz-adv-x="1687" 
d="M838 -29q157 0 300 58t247 157.5t165.5 239t61.5 295.5q0 203 -100 372.5t-277.5 269t-394.5 99.5q-163 0 -307 -59t-245.5 -159t-160.5 -237.5t-59 -289.5q0 -153 58.5 -290.5t160 -237.5t245.5 -159t306 -59zM838 1104q159 0 262.5 -114.5t103.5 -272.5
q0 -103 -44.5 -191t-129 -142t-190.5 -54q-104 0 -189 54.5t-130.5 144t-45.5 192.5q0 159 102 271t261 112zM-31 1622l-213 -379h275l426 379h-488z" />
    <glyph glyph-name="Upsilontonos" unicode="&#x38e;" horiz-adv-x="1693" 
d="M1153 0v543l545 891h-445l-297 -523l-294 523h-453l545 -897v-537h399zM-236 1622l-213 -379h275l426 379h-488z" />
    <glyph glyph-name="Omegatonos" unicode="&#x38f;" horiz-adv-x="1757" 
d="M936 4h719v338h-334q84 37 147.5 120t94 178.5t30.5 188.5q0 153 -57 275.5t-155.5 199.5t-228 117.5t-278.5 40.5q-119 0 -225.5 -25t-197 -77t-156 -126.5t-102.5 -178t-37 -226.5q0 -144 74.5 -287.5t197.5 -199.5h-334v-338h719v358q-122 48 -186 152t-64 238
q0 155 78.5 253.5t228.5 98.5q154 0 235 -96.5t81 -255.5q0 -134 -63.5 -235.5t-186.5 -154.5v-358zM-31 1622l-213 -379h275l426 379h-488z" />
    <glyph glyph-name="iotadieresistonos" unicode="&#x390;" horiz-adv-x="905" 
d="M602 0v1108h-389v-1108h389zM47 1642q-64 0 -111 -44.5t-47 -108.5q0 -69 47.5 -113.5t110.5 -44.5t111.5 44.5t48.5 113.5q0 65 -48.5 109t-111.5 44zM340 1712l-123 -379h246l303 379h-426zM696 1493q0 -64 45 -111t109 -47q69 0 113.5 47.5t44.5 110.5t-44.5 111.5
t-113.5 48.5q-65 0 -109.5 -49t-44.5 -111z" />
    <glyph glyph-name="Alpha" unicode="&#x391;" horiz-adv-x="1570" 
d="M504 256h553l104 -256h426l-610 1444h-383l-610 -1444h417zM621 565l161 408l160 -408h-321z" />
    <glyph glyph-name="Beta" unicode="&#x392;" horiz-adv-x="1470" 
d="M119 1434v-1434h735q258 0 402.5 106.5t144.5 292.5q0 267 -285 351q221 93 221 323q0 170 -130 265.5t-357 95.5h-731zM506 862v252h256q178 0 178 -123q0 -63 -47.5 -96t-138.5 -33h-248zM506 319v265h301q96 0 146.5 -34.5t50.5 -94.5q0 -63 -50.5 -99.5t-142.5 -36.5
h-305z" />
    <glyph glyph-name="Gamma" unicode="&#x393;" horiz-adv-x="1290" 
d="M516 0v1085h750v349h-1147v-1434h397z" />
    <glyph glyph-name="Epsilon" unicode="&#x395;" horiz-adv-x="1382" 
d="M512 338v227h688v314h-688v217h760v338h-1153v-1434h1163v338h-770z" />
    <glyph glyph-name="Zeta" unicode="&#x396;" horiz-adv-x="1277" 
d="M541 336l719 809v289h-1244v-336h695l-719 -809v-289h1268v336h-719z" />
    <glyph glyph-name="Eta" unicode="&#x397;" horiz-adv-x="1544" 
d="M119 1434v-1434h397v545h510v-545h397v1434h-397v-537h-510v537h-397z" />
    <glyph glyph-name="Theta" unicode="&#x398;" horiz-adv-x="1695" 
d="M846 -29q157 0 300 58t247 157.5t165.5 239t61.5 295.5q0 203 -100 372.5t-277 269t-393 99.5q-163 0 -307 -59t-246 -159t-161.5 -237.5t-59.5 -289.5q0 -153 58.5 -290.5t160 -237.5t245.5 -159t306 -59zM846 1104q159 0 262.5 -114.5t103.5 -272.5q0 -103 -44 -191
t-128 -142t-190 -54q-160 0 -263.5 115.5t-103.5 275.5q0 159 102 271t261 112zM627 565h444v334h-444v-334z" />
    <glyph glyph-name="Iota" unicode="&#x399;" horiz-adv-x="636" 
d="M518 0v1434h-399v-1434h399z" />
    <glyph glyph-name="Kappa" unicode="&#x39a;" horiz-adv-x="1482" 
d="M516 852v582h-397v-1434h397v754l506 -754h477l-561 817l543 617h-471z" />
    <glyph glyph-name="Lambda" unicode="&#x39b;" horiz-adv-x="1550" 
d="M1141 0l-369 973l-371 -973h-417l600 1444h383l600 -1444h-426z" />
    <glyph glyph-name="Mu" unicode="&#x39c;" horiz-adv-x="1597" 
d="M426 819l369 -557l370 561v-823h396v1434h-420l-342 -555l-342 555h-420v-1434h389v819z" />
    <glyph glyph-name="Nu" unicode="&#x39d;" horiz-adv-x="1593" 
d="M1079 676l-590 758h-370v-1434h393v786l612 -786h349v1434h-394v-758z" />
    <glyph glyph-name="Xi" unicode="&#x39e;" horiz-adv-x="1363" 
d="M111 1075h1142v359h-1142v-359zM100 0h1164v358h-1164v-358zM182 555h1000v334h-1000v-334z" />
    <glyph glyph-name="Omicron" unicode="&#x39f;" horiz-adv-x="1695" 
d="M846 -29q157 0 300 58t247 157.5t165.5 239t61.5 295.5q0 203 -100 372.5t-277.5 269t-394.5 99.5q-163 0 -307 -59t-245.5 -159t-160.5 -237.5t-59 -289.5q0 -153 58.5 -290.5t160 -237.5t245.5 -159t306 -59zM846 1104q159 0 262.5 -114.5t103.5 -272.5
q0 -103 -44.5 -191t-129 -142t-190.5 -54q-104 0 -189 54.5t-130.5 144t-45.5 192.5q0 159 102 271t261 112z" />
    <glyph glyph-name="Pi" unicode="&#x3a0;" horiz-adv-x="1521" 
d="M119 1434v-1434h397v1081h490v-1081h397v1444z" />
    <glyph glyph-name="Rho" unicode="&#x3a1;" horiz-adv-x="1376" 
d="M119 1434v-1434h397v410h197q180 0 317.5 58.5t218 177.5t80.5 284q0 237 -161 370.5t-435 133.5h-614zM516 721v379h186q111 0 170.5 -48.5t59.5 -140.5q0 -87 -61 -138.5t-166 -51.5h-189z" />
    <glyph glyph-name="Sigma" unicode="&#x3a3;" horiz-adv-x="1257" 
d="M12 1145l367 -426l-387 -430v-289h1186v336h-637l344 383l-324 379h592v336h-1141v-289z" />
    <glyph glyph-name="Tau" unicode="&#x3a4;" horiz-adv-x="1304" 
d="M850 0v1085h430v349h-1257v-349h430v-1085h397z" />
    <glyph glyph-name="Upsilon" unicode="&#x3a5;" horiz-adv-x="1460" 
d="M930 0v543l545 891h-445l-297 -523l-295 523h-452l544 -897v-537h400z" />
    <glyph glyph-name="Phi" unicode="&#x3a6;" horiz-adv-x="1980" 
d="M1182 1444h-377v-94h-23q-165 0 -300 -48t-225 -131.5t-138.5 -197.5t-48.5 -246t48.5 -246t138.5 -197.5t225 -131.5t300 -48h23v-114h377v114h22q163 0 297 47.5t223.5 131t138 198.5t48.5 250q0 132 -48.5 245t-138 196.5t-223.5 130.5t-297 47h-22v94zM1182 1008
q134 0 229.5 -80t95.5 -205q0 -123 -97.5 -203t-227.5 -80v568zM805 440q-137 0 -234.5 77t-97.5 210q0 130 97.5 205.5t234.5 75.5v-568z" />
    <glyph glyph-name="Chi" unicode="&#x3a7;" horiz-adv-x="1454" 
d="M477 1434h-457l472 -705l-492 -729h446l277 432l274 -432h457l-491 733l471 701h-447l-256 -404z" />
    <glyph glyph-name="Psi" unicode="&#x3a8;" horiz-adv-x="1949" 
d="M1442 924q0 -151 -71.5 -228.5t-196.5 -77.5v816h-400v-816q-125 0 -196.5 77.5t-71.5 228.5v510h-400v-519q0 -311 177 -483t487 -172v-260h399v260q325 0 498.5 171.5t173.5 494.5v508h-399v-510z" />
    <glyph glyph-name="uni03A9" unicode="&#x3a9;" horiz-adv-x="1765" 
d="M944 4h719v338h-334q84 37 148 120t94.5 178.5t30.5 188.5q0 153 -57 275.5t-155.5 199.5t-228 117.5t-278.5 40.5t-278.5 -40.5t-228 -117.5t-155.5 -199.5t-57 -275.5q0 -144 74.5 -287.5t197.5 -199.5h-334v-338h719v358q-122 48 -186 152t-64 238q0 155 79 253.5
t229 98.5q154 0 234.5 -96.5t80.5 -255.5q0 -134 -63.5 -235.5t-186.5 -154.5v-358z" />
    <glyph glyph-name="Iotadieresis" unicode="&#x3aa;" horiz-adv-x="614" 
d="M504 0v1434h-400v-1434h400zM76 1976q-81 0 -130.5 -46.5t-49.5 -127.5q0 -83 51 -129.5t129 -46.5t129 46.5t51 129.5t-50.5 128.5t-129.5 45.5zM539 1976q-81 0 -131 -47t-50 -127q0 -83 51.5 -129.5t129.5 -46.5t129 46.5t51 129.5t-50.5 128.5t-129.5 45.5z" />
    <glyph glyph-name="Upsilondieresis" unicode="&#x3ab;" horiz-adv-x="1460" 
d="M930 0v543l545 891h-445l-297 -523l-295 523h-452l544 -897v-537h400zM500 1976q-81 0 -131 -47t-50 -127q0 -83 51.5 -129.5t129.5 -46.5t129 46.5t51 129.5t-50.5 128.5t-129.5 45.5zM963 1976q-81 0 -131 -47t-50 -127q0 -83 51.5 -129.5t129.5 -46.5t129 46.5
t51 129.5t-50.5 128.5t-129.5 45.5z" />
    <glyph glyph-name="alphatonos" unicode="&#x3ac;" horiz-adv-x="1384" 
d="M442 551q0 104 62.5 180t163.5 76t163 -74t62 -176q0 -103 -62.5 -179.5t-162.5 -76.5q-95 0 -160.5 76.5t-65.5 173.5zM1276 0v1108h-389v-147q-132 172 -336 172q-93 0 -173.5 -32t-138 -87.5t-99 -129.5t-61.5 -158t-20 -173q0 -110 32.5 -212.5t93 -184.5t156 -131.5
t210.5 -49.5q77 0 137 21.5t101.5 55t97.5 95.5zM737 1724l-213 -378h275l426 378h-488z" />
    <glyph glyph-name="epsilontonos" unicode="&#x3ad;" horiz-adv-x="1175" 
d="M440 358q0 -55 164 -55q80 0 159.5 19t190.5 71l68 -315q-214 -105 -451 -105q-135 0 -248.5 37.5t-187.5 116t-74 184.5q0 93 59.5 161.5t170.5 98.5q-89 36 -137 98.5t-48 147.5q0 80 37.5 141.5t103.5 99t149.5 56.5t181.5 19q235 0 428 -123l-97 -299
q-153 92 -295 92q-56 0 -92.5 -14t-36.5 -39q0 -32 42 -43t116 -11h125v-280h-174q-154 0 -154 -58zM616 1724l-213 -378h275l426 378h-488z" />
    <glyph glyph-name="etatonos" unicode="&#x3ae;" horiz-adv-x="1341" 
d="M1202 725q0 177 -103 292.5t-274 115.5q-189 0 -331 -181l-390 156v-1108h390v600q0 87 47 136.5t116 49.5q68 0 112 -49t44 -137v-600h389v725zM756 1724l-213 -378h274l426 378h-487z" />
    <glyph glyph-name="iotatonos" unicode="&#x3af;" horiz-adv-x="591" 
d="M494 0v1108h-390v-1108h390zM358 1724l-213 -378h275l426 378h-488z" />
    <glyph glyph-name="upsilondieresistonos" unicode="&#x3b0;" horiz-adv-x="1292" 
d="M1196 1108h-389v-606q0 -85 -41 -140t-121 -55q-81 0 -119.5 54t-38.5 141v606h-389v-623q0 -254 143.5 -382t403.5 -128q257 0 404 129t147 390v614zM252 1642q-64 0 -111 -44.5t-47 -108.5q0 -69 47.5 -113.5t110.5 -44.5t111.5 44.5t48.5 113.5q0 65 -49 109t-111 44z
M545 1712l-123 -379h246l303 379h-426zM901 1493q0 -64 45 -111t109 -47q69 0 113 47.5t44 110.5t-44 111.5t-113 48.5q-65 0 -109.5 -49t-44.5 -111z" />
    <glyph glyph-name="alpha" unicode="&#x3b1;" horiz-adv-x="1384" 
d="M442 551q0 104 62.5 180t163.5 76t163 -74t62 -176q0 -103 -62.5 -179.5t-162.5 -76.5q-95 0 -160.5 76.5t-65.5 173.5zM1276 0v1108h-389v-147q-132 172 -336 172q-93 0 -173.5 -32t-138 -87.5t-99 -129.5t-61.5 -158t-20 -173q0 -110 32.5 -212.5t93 -184.5t156 -131.5
t210.5 -49.5q77 0 137 21.5t101.5 55t97.5 95.5z" />
    <glyph glyph-name="beta" unicode="&#x3b2;" horiz-adv-x="1345" 
d="M494 553q0 -102 66.5 -177t166.5 -75q77 0 127.5 49t50.5 119q0 78 -57.5 127t-179.5 49v207q52 0 87.5 17.5t51 46.5t21.5 54t6 52q0 78 -48.5 118t-113.5 40q-74 0 -126 -53t-52 -146v-428zM1286 408q0 -189 -130 -311t-316 -122q-202 0 -346 168v-471h-390v1305
q0 241 155 386.5t419 145.5q247 0 391.5 -120t144.5 -304q0 -112 -58 -189t-155 -114q134 -39 209.5 -132t75.5 -242z" />
    <glyph glyph-name="gamma" unicode="&#x3b3;" horiz-adv-x="1216" 
d="M803 -328v367l424 1069h-404l-213 -647l-213 647h-409l426 -1075v-361h389z" />
    <glyph glyph-name="delta" unicode="&#x3b4;" horiz-adv-x="1335" 
d="M664 743q100 0 165.5 -62.5t65.5 -160.5q0 -90 -62 -153.5t-163 -63.5t-165.5 64t-64.5 157q0 86 60.5 152.5t163.5 66.5zM748 1196h348v309h-918v-309l385 -199q-92 10 -182 -19.5t-161 -89.5t-115 -156.5t-44 -211.5q0 -110 44.5 -210t122.5 -174.5t192 -118.5t246 -44
q178 0 317 72t215 197.5t76 281.5q0 176 -82 307.5t-242 233.5z" />
    <glyph glyph-name="epsilon" unicode="&#x3b5;" horiz-adv-x="1093" 
d="M440 358q0 -55 164 -55q80 0 159.5 19t190.5 71l68 -315q-214 -105 -451 -105q-135 0 -248.5 37.5t-187.5 116t-74 184.5q0 93 59.5 161.5t170.5 98.5q-89 36 -137 98.5t-48 147.5q0 80 37.5 141.5t103.5 99t149.5 56.5t181.5 19q235 0 428 -123l-97 -299
q-153 92 -295 92q-56 0 -92.5 -14t-36.5 -39q0 -32 42 -43t116 -11h125v-280h-174q-154 0 -154 -58z" />
    <glyph glyph-name="zeta" unicode="&#x3b6;" horiz-adv-x="983" 
d="M983 1221q-258 -159 -403.5 -344.5t-145.5 -358.5q0 -97 59 -155.5t191 -94.5q160 -40 228.5 -115.5t68.5 -195.5q0 -127 -86 -299l-326 27q66 104 66 178q0 43 -29.5 73.5t-103.5 49.5q-441 116 -441 503q0 186 114 367.5t331 341.5h-348v307h825v-284z" />
    <glyph glyph-name="eta" unicode="&#x3b7;" horiz-adv-x="1300" 
d="M1202 725q0 177 -103 292.5t-274 115.5q-189 0 -331 -181l-390 156v-1108h390v600q0 87 47 136.5t116 49.5q68 0 112 -49t44 -137v-600h389v725z" />
    <glyph glyph-name="theta" unicode="&#x3b8;" horiz-adv-x="1302" 
d="M1235 752q0 114 -19 219.5t-63.5 204.5t-110 172t-165 117t-222.5 44q-274 0 -430.5 -209t-156.5 -561q0 -114 19 -220t63 -207t109.5 -175t166 -119t225.5 -45q126 0 227.5 46t167 121.5t109 178t62 210t18.5 223.5zM457 903q42 277 194 277t195 -277h-389zM848 594
q-4 -46 -16.5 -92.5t-35 -93t-61.5 -76t-88 -29.5q-40 0 -72 21t-51 50.5t-34.5 73.5t-22 75t-12.5 71h393z" />
    <glyph glyph-name="iota" unicode="&#x3b9;" horiz-adv-x="591" 
d="M494 0v1108h-390v-1108h390z" />
    <glyph glyph-name="kappa" unicode="&#x3ba;" horiz-adv-x="1247" 
d="M494 737v371h-390v-1108h390v580l323 -580h428l-395 664l385 444h-440z" />
    <glyph glyph-name="lambda" unicode="&#x3bb;" horiz-adv-x="1220" 
d="M426 1087l-434 -1087h407l222 668l208 -668h400l-406 1081q-18 47 -28 72t-28.5 68t-32.5 67t-36.5 59t-43.5 55t-51 43.5t-61 35t-71 20t-84 8.5q-169 0 -344 -96l80 -295q38 25 63.5 39.5t64.5 28.5t73 14q46 0 74 -31.5t28 -78.5v-3z" />
    <glyph glyph-name="uni03BC" unicode="&#x3bc;" horiz-adv-x="1298" 
d="M485 -328h-389v1436h389v-600q0 -89 43 -137.5t115 -48.5q71 0 116.5 49t45.5 137v600h389v-1108l-389 152q-62 -177 -176 -177q-48 0 -86.5 29t-57.5 70v-402z" />
    <glyph glyph-name="nu" unicode="&#x3bd;" horiz-adv-x="1218" 
d="M784 -8l443 1116h-404l-213 -647l-213 647h-409l442 -1116h354z" />
    <glyph glyph-name="xi" unicode="&#x3be;" horiz-adv-x="972" 
d="M61 391q0 -166 108.5 -272t276.5 -139q152 -29 152 -125q0 -70 -63 -170l323 -27q43 85 64.5 152.5t21.5 140.5q0 257 -282 315q-226 48 -226 176q0 41 20 70.5t54 48t87.5 29t111.5 14.5t135 4v312q-156 0 -231.5 38t-75.5 95q0 29 13.5 50t42 35t62 22.5t85.5 12.5
t99 5.5t115 1.5v325h-831v-311h182q-143 -73 -143 -190q0 -82 65.5 -137.5t180.5 -96.5q-165 -41 -256 -142.5t-91 -236.5z" />
    <glyph glyph-name="omicron" unicode="&#x3bf;" horiz-adv-x="1345" 
d="M672 -27q124 0 236.5 44.5t196 121t132.5 186t49 232.5q0 157 -78 289t-218.5 209.5t-313.5 77.5q-130 0 -245 -46.5t-195.5 -124.5t-127.5 -185t-47 -224q0 -118 46 -224.5t126 -184.5t194.5 -124.5t244.5 -46.5zM672 803q100 0 167.5 -74.5t67.5 -175.5
q0 -103 -64 -176.5t-167 -73.5q-101 0 -168.5 74.5t-67.5 179.5q0 103 64.5 174.5t167.5 71.5z" />
    <glyph glyph-name="pi" unicode="&#x3c0;" horiz-adv-x="1280" 
d="M1182 1108h-1078v-1108h390v799h299v-799h389v1108z" />
    <glyph glyph-name="rho" unicode="&#x3c1;" horiz-adv-x="1374" 
d="M705 301q104 0 165.5 75.5t61.5 180.5q0 104 -63.5 177t-163.5 73q-94 0 -159 -71.5t-65 -182.5q0 -105 63 -178.5t161 -73.5zM98 555q0 175 80.5 307.5t218.5 201.5t310 69q127 0 238.5 -41.5t193 -115.5t129 -183t47.5 -238q0 -88 -20 -171.5t-61 -157.5t-98.5 -130
t-138 -88.5t-174.5 -32.5q-102 0 -184 38t-152 122v-463h-389v883z" />
    <glyph glyph-name="uni03C2" unicode="&#x3c2;" horiz-adv-x="1132" 
d="M838 -342q6 12 34.5 67.5t38 78t21.5 66t12 81.5q0 188 -264 315q-29 13 -56.5 29.5t-63.5 45.5t-62 61t-44 78.5t-18 97.5q0 93 59.5 159t149.5 66q65 0 120.5 -30t92.5 -85l193 256q-77 91 -192.5 138.5t-242.5 47.5q-124 0 -229 -47t-176 -127.5t-110.5 -188.5
t-39.5 -228q0 -112 28.5 -203.5t81.5 -156.5t114.5 -109.5t140.5 -79.5q33 -15 47.5 -21.5t43 -23.5t42 -31t25.5 -35t12 -45q0 -80 -92 -149z" />
    <glyph glyph-name="sigma" unicode="&#x3c3;" horiz-adv-x="1441" 
d="M1124 795q162 -97 162 -287q0 -121 -52 -223.5t-138.5 -169.5t-196.5 -104.5t-227 -37.5q-132 0 -246.5 44.5t-194 120.5t-125 180.5t-45.5 222.5q0 160 77.5 289t218.5 203.5t319 74.5h747v-313h-299zM676 303q103 0 167 68t64 170q0 106 -64 171.5t-171 65.5
q-106 0 -169 -63.5t-63 -169.5q0 -96 66.5 -169t169.5 -73z" />
    <glyph glyph-name="tau" unicode="&#x3c4;" horiz-adv-x="946" 
d="M20 1108h906v-313h-258v-375q0 -59 25.5 -85t80.5 -26q72 0 148 37v-305q-118 -64 -271 -64q-372 0 -372 367v451h-259v313z" />
    <glyph glyph-name="upsilon" unicode="&#x3c5;" horiz-adv-x="1292" 
d="M1196 1108h-389v-606q0 -85 -41 -140t-121 -55q-81 0 -119.5 54t-38.5 141v606h-389v-623q0 -254 143.5 -382t403.5 -128q257 0 404 129t147 390v614z" />
    <glyph glyph-name="phi" unicode="&#x3c6;" horiz-adv-x="1808" 
d="M1083 295q139 0 210.5 67.5t88.5 210.5q4 42 -0.5 81t-19 75.5t-46.5 58t-79 21.5q-75 0 -110.5 -53.5t-43.5 -151.5v-309zM709 -6q-137 10 -252.5 56t-202.5 124t-136.5 194.5t-49.5 258.5q0 264 213 510h364q-116 -150 -165.5 -259.5t-49.5 -205.5q0 -66 7 -118.5
t25.5 -102.5t49 -83t80.5 -53t117 -20v260q0 582 497 582q129 0 233.5 -41t171.5 -112t102.5 -164t35.5 -199q0 -113 -49.5 -223.5t-135.5 -198t-212 -143.5t-269 -62v-322h-374v322z" />
    <glyph glyph-name="chi" unicode="&#x3c7;" horiz-adv-x="1177" 
d="M756 1108l-164 -354l-164 354h-420l373 -702l-379 -734h410l174 369l170 -369h420l-381 740l372 696h-411z" />
    <glyph glyph-name="psi" unicode="&#x3c8;" horiz-adv-x="1847" 
d="M725 -328h389v303q103 0 195.5 19t173 60.5t139.5 101t93 146.5t34 192v614h-389v-614q0 -90 -64 -138.5t-182 -48.5v1188h-389v-1188q-117 0 -177.5 48t-60.5 139v614h-389v-623q0 -104 34.5 -190t93.5 -144.5t139.5 -98.5t170.5 -58.5t189 -18.5v-303z" />
    <glyph glyph-name="omega" unicode="&#x3c9;" horiz-adv-x="1882" 
d="M1133 897h-390v-375q0 -104 -36 -161.5t-103 -57.5q-77 0 -120.5 76t-43.5 209q0 123 50.5 244.5t191.5 304.5h-389q-232 -264 -232 -572q0 -123 35 -230t100 -188t166.5 -127.5t227.5 -46.5q116 0 198 37.5t154 124.5q65 -78 145.5 -120t206.5 -42q249 0 389 161.5
t140 430.5q0 152 -52.5 289.5t-179.5 282.5h-389q141 -183 191.5 -304.5t50.5 -244.5q0 -133 -43.5 -209t-120.5 -76q-68 0 -107.5 58.5t-39.5 160.5v375z" />
    <glyph glyph-name="iotadieresis" unicode="&#x3ca;" horiz-adv-x="663" 
d="M524 0v1108h-389v-1108h389zM94 1638q-81 0 -130.5 -46.5t-49.5 -127.5q0 -83 51 -129.5t129 -46.5t129 46.5t51 129.5t-50.5 128.5t-129.5 45.5zM557 1638q-81 0 -130.5 -46.5t-49.5 -127.5q0 -83 51 -129.5t129 -46.5t129 46.5t51 129.5t-50.5 128.5t-129.5 45.5z" />
    <glyph glyph-name="upsilondieresis" unicode="&#x3cb;" horiz-adv-x="1292" 
d="M422 1638q-81 0 -130.5 -46.5t-49.5 -127.5q0 -83 51 -129.5t129 -46.5t129 46.5t51 129.5t-50.5 128.5t-129.5 45.5zM885 1638q-81 0 -130.5 -46.5t-49.5 -127.5q0 -83 51 -129.5t129 -46.5t129 46.5t51 129.5t-50.5 128.5t-129.5 45.5zM1196 1108h-389v-606
q0 -85 -41 -140t-121 -55q-81 0 -119.5 54t-38.5 141v606h-389v-623q0 -254 143.5 -382t403.5 -128q257 0 404 129t147 390v614z" />
    <glyph glyph-name="omicrontonos" unicode="&#x3cc;" horiz-adv-x="1345" 
d="M672 -27q124 0 236.5 44.5t196 121t132.5 186t49 232.5q0 157 -78 289t-218.5 209.5t-313.5 77.5q-130 0 -245 -46.5t-195.5 -124.5t-127.5 -185t-47 -224q0 -118 46 -224.5t126 -184.5t194.5 -124.5t244.5 -46.5zM672 803q100 0 167.5 -74.5t67.5 -175.5
q0 -103 -64 -176.5t-167 -73.5q-101 0 -168.5 74.5t-67.5 179.5q0 103 64.5 174.5t167.5 71.5zM786 1724l-213 -378h275l426 378h-488z" />
    <glyph glyph-name="upsilontonos" unicode="&#x3cd;" horiz-adv-x="1292" 
d="M1196 1108h-389v-606q0 -85 -41 -140t-121 -55q-81 0 -119.5 54t-38.5 141v606h-389v-623q0 -254 143.5 -382t403.5 -128q257 0 404 129t147 390v614zM698 1724l-213 -378h275l426 378h-488z" />
    <glyph glyph-name="omegatonos" unicode="&#x3ce;" horiz-adv-x="1882" 
d="M1133 897h-390v-375q0 -104 -36 -161.5t-103 -57.5q-77 0 -120.5 76t-43.5 209q0 123 50.5 244.5t191.5 304.5h-389q-232 -264 -232 -572q0 -123 35 -230t100 -188t166.5 -127.5t227.5 -46.5q116 0 198 37.5t154 124.5q65 -78 145.5 -120t206.5 -42q249 0 389 161.5
t140 430.5q0 152 -52.5 289.5t-179.5 282.5h-389q141 -183 191.5 -304.5t50.5 -244.5q0 -133 -43.5 -209t-120.5 -76q-68 0 -107.5 58.5t-39.5 160.5v375zM1014 1724l-213 -378h274l426 378h-487z" />
    <glyph glyph-name="uni03CF" unicode="&#x3cf;" horiz-adv-x="1482" 
d="M190 -82q93 -58 246 -106t277 -48q71 0 139.5 17.5t115 42.5t75 53.5t28.5 50.5l-555 826v-754h-397v1434h397v-582l494 582h471l-543 -617l561 -817q0 -101 -66 -196.5t-173 -165.5t-250 -112t-291 -42q-275 0 -529 127v307z" />
    <glyph glyph-name="uni03D7" unicode="&#x3d7;" horiz-adv-x="1247" 
d="M494 580v-580h-390v1108h390v-371l301 371h440l-385 -444l395 -664q0 -136 -84 -245t-229.5 -169.5t-323.5 -60.5q-124 0 -230.5 30.5t-236.5 96.5v307q249 -154 461 -154q111 0 180.5 43.5t69.5 92.5z" />
    <glyph glyph-name="Wgrave" unicode="&#x1e80;" horiz-adv-x="2213" 
d="M664 604l-250 830h-420l479 -1444h346l287 825l289 -825h346l479 1444h-412l-249 -830l-277 834h-342zM690 1841l301 -262h275l-213 379z" />
    <glyph glyph-name="wgrave" unicode="&#x1e81;" horiz-adv-x="1669" 
d="M358 1108h-381l338 -1116h334l185 575l180 -575h336l342 1116h-375l-150 -561l-172 565h-321l-170 -561zM397 1524l301 -262h275l-213 378z" />
    <glyph glyph-name="Wacute" unicode="&#x1e82;" horiz-adv-x="2213" 
d="M664 604l-250 830h-420l479 -1444h346l287 825l289 -825h346l479 1444h-412l-249 -830l-277 834h-342zM1196 1958l-213 -379h274l302 262z" />
    <glyph glyph-name="wacute" unicode="&#x1e83;" horiz-adv-x="1669" 
d="M358 1108h-381l338 -1116h334l185 575l180 -575h336l342 1116h-375l-150 -561l-172 565h-321l-170 -561zM920 1620l-213 -379h274l301 262z" />
    <glyph glyph-name="Wdieresis" unicode="&#x1e84;" horiz-adv-x="2213" 
d="M664 604l-250 830h-420l479 -1444h346l287 825l289 -825h346l479 1444h-412l-249 -830l-277 834h-342zM877 1976q-81 0 -131 -47t-50 -127q0 -83 51.5 -129.5t129.5 -46.5t129 46.5t51 129.5t-50.5 128.5t-129.5 45.5zM1339 1976q-81 0 -130.5 -46.5t-49.5 -127.5
q0 -83 51 -129.5t129 -46.5t129.5 46.5t51.5 129.5t-51 128.5t-130 45.5z" />
    <glyph glyph-name="wdieresis" unicode="&#x1e85;" horiz-adv-x="1669" 
d="M358 1108h-381l338 -1116h334l185 575l180 -575h336l342 1116h-375l-150 -561l-172 565h-321l-170 -561zM600 1638q-81 0 -130.5 -46.5t-49.5 -127.5q0 -83 51 -129.5t129 -46.5t129 46.5t51 129.5t-50.5 128.5t-129.5 45.5zM1063 1638q-81 0 -130.5 -46.5t-49.5 -127.5
q0 -83 51 -129.5t129 -46.5t129 46.5t51 129.5t-50.5 128.5t-129.5 45.5z" />
    <glyph glyph-name="uni1E9E" unicode="&#x1e9e;" horiz-adv-x="1357" 
d="M682 621q106 -8 167.5 -52.5t61.5 -117.5q0 -78 -73 -126.5t-226 -52.5v-278q103 -8 200 1t186 39.5t155 80t105.5 127.5t39.5 176q0 150 -90 249.5t-229 120.5l248 259q0 210 -158.5 338t-425.5 128q-313 0 -471 -149t-158 -424v-940h387v928q0 260 236 260
q95 0 154 -41.5t59 -112.5l-168 -207v-206z" />
    <glyph glyph-name="Ygrave" unicode="&#x1ef2;" horiz-adv-x="1460" 
d="M930 0v543l545 891h-445l-297 -523l-295 523h-452l544 -897v-537h400zM328 1841l301 -262h274l-213 379z" />
    <glyph glyph-name="ygrave" unicode="&#x1ef3;" horiz-adv-x="1214" 
d="M-12 1108l467 -1120l-101 -316h330l541 1436h-400l-209 -709l-221 709h-407zM190 1524l302 -262h274l-213 378z" />
    <glyph glyph-name="endash" unicode="&#x2013;" horiz-adv-x="913" 
d="M915 412v333h-917v-333h917z" />
    <glyph glyph-name="emdash" unicode="&#x2014;" horiz-adv-x="1671" 
d="M1673 473v334h-1675v-334h1675z" />
    <glyph glyph-name="uni2015" unicode="&#x2015;" horiz-adv-x="1802" 
d="M1804 473v334h-1675v-334h1675z" />
    <glyph glyph-name="quoteleft" unicode="&#x2018;" horiz-adv-x="647" 
d="M287 1649l-232 -742h406l90 742h-264z" />
    <glyph glyph-name="quoteright" unicode="&#x2019;" horiz-adv-x="651" 
d="M365 907l231 742h-406l-90 -742h265z" />
    <glyph glyph-name="quotesinglbase" unicode="&#x201a;" horiz-adv-x="710" 
d="M373 -424l231 741h-405l-90 -741h264z" />
    <glyph glyph-name="quotereversed" unicode="&#x201b;" horiz-adv-x="649" 
d="M463 1649h-406l232 -742h264z" />
    <glyph glyph-name="quotedblleft" unicode="&#x201c;" horiz-adv-x="1193" 
d="M831 1577l-231 -741h406l90 741h-265zM287 1577l-232 -741h406l90 741h-264z" />
    <glyph glyph-name="quotedblright" unicode="&#x201d;" horiz-adv-x="1198" 
d="M365 836l231 741h-406l-90 -741h265zM909 836l232 741h-406l-90 -741h264z" />
    <glyph glyph-name="quotedblbase" unicode="&#x201e;" horiz-adv-x="1255" 
d="M373 -471l231 741h-405l-90 -741h264zM918 -471l231 741h-406l-90 -741h265z" />
    <glyph glyph-name="dagger" unicode="&#x2020;" horiz-adv-x="935" 
d="M551 1155l31 313h-230l31 -313l-254 27v-213l256 26l-20 -848h204l-20 848l256 -26v213z" />
    <glyph glyph-name="daggerdbl" unicode="&#x2021;" horiz-adv-x="933" 
d="M383 283l-31 -293h230l-31 293l254 -27v213l-258 -27v654l258 -27v213l-254 -27l31 310h-230l31 -310l-254 27v-213l258 27v-654l-258 27v-213z" />
    <glyph glyph-name="bullet" unicode="&#x2022;" horiz-adv-x="946" 
d="M473 1087q-142 0 -244 -104t-102 -244q0 -142 102 -243t244 -101t244 101t102 243t-102.5 245t-243.5 103z" />
    <glyph glyph-name="ellipsis" unicode="&#x2026;" horiz-adv-x="1855" 
d="M356 422q-105 0 -167 -59t-62 -164q0 -107 63.5 -166.5t165.5 -59.5t167 59.5t65 166.5t-65 165t-167 58zM928 422q-105 0 -167.5 -59t-62.5 -164q0 -107 64 -166.5t166 -59.5t166.5 59.5t64.5 166.5t-64.5 165t-166.5 58zM1499 422q-105 0 -167 -59t-62 -164
q0 -107 63.5 -166.5t165.5 -59.5t167 59.5t65 166.5t-65 165t-167 58z" />
    <glyph glyph-name="perthousand" unicode="&#x2030;" horiz-adv-x="2664" 
d="M446 682q164 0 267.5 113.5t103.5 275.5q0 159 -103 271t-265 112q-164 0 -267.5 -111.5t-103.5 -273.5t103 -274.5t265 -112.5zM446 1229q60 0 90.5 -48.5t30.5 -111.5q0 -69 -32.5 -115.5t-85.5 -46.5q-51 0 -86 47.5t-35 116.5t32.5 113.5t85.5 44.5zM1405 -20
q162 0 266.5 114t104.5 275q0 163 -103 273t-266 110q-164 0 -267.5 -111.5t-103.5 -273.5q0 -161 103.5 -274t265.5 -113zM1405 526q60 0 90.5 -48t30.5 -111q0 -69 -33 -115.5t-86 -46.5q-51 0 -86 48t-35 116q0 70 32 113.5t87 43.5zM2216 -20q162 0 266.5 114t104.5 275
q0 163 -103 273t-266 110q-164 0 -267.5 -111.5t-103.5 -273.5q0 -161 103.5 -274t265.5 -113zM2216 526q60 0 90.5 -48t30.5 -111q0 -69 -33 -115.5t-86 -46.5q-51 0 -86 48t-35 116q0 70 32 113.5t87 43.5zM1341 1434l-1105 -1434h276l1106 1434h-277z" />
    <glyph glyph-name="minute" unicode="&#x2032;" horiz-adv-x="688" 
d="M205 1434l-45 -736h211l260 729v5v2h-426z" />
    <glyph glyph-name="second" unicode="&#x2033;" horiz-adv-x="1206" 
d="M63 698h203l260 729v5v2h-417zM635 1434l-47 -736h205l260 729v5v2h-418z" />
    <glyph glyph-name="guilsinglleft" unicode="&#x2039;" horiz-adv-x="784" 
d="M711 160l-267 348l267 350l-289 125l-356 -475l354 -473z" />
    <glyph glyph-name="guilsinglright" unicode="&#x203a;" horiz-adv-x="784" 
d="M340 508l-266 -348l291 -125l354 473l-357 475l-288 -125z" />
    <glyph glyph-name="exclamdbl" unicode="&#x203c;" horiz-adv-x="1249" 
d="M569 1434h-442v-174l119 -793h205l118 793v174zM346 369q-96 0 -157.5 -51t-61.5 -146t61.5 -147t157.5 -52t158.5 52t62.5 147t-62 146t-159 51zM1120 1434h-442v-174l119 -793h204l119 793v174zM897 369q-96 0 -157.5 -51t-61.5 -146t61.5 -147t157.5 -52t158.5 52
t62.5 147t-62 146t-159 51z" />
    <glyph glyph-name="fraction" unicode="&#x2044;" horiz-adv-x="364" 
d="M-115 -211l908 1897h-316l-907 -1897h315z" />
    <glyph glyph-name="uni2070" unicode="&#x2070;" horiz-adv-x="710" 
d="M215 1024q0 40 7 78.5t22.5 78t46.5 63.5t74 24q72 0 112.5 -67.5t40.5 -178.5q0 -112 -39 -178t-110 -66q-72 0 -113 66.5t-41 179.5zM770 1024q0 126 -46 227.5t-138.5 163.5t-216.5 62q-184 0 -295 -129.5t-111 -325.5q0 -195 110 -324t292 -129q183 0 294 130.5
t111 324.5z" />
    <glyph glyph-name="uni2074" unicode="&#x2074;" horiz-adv-x="710" 
d="M203 930q17 26 85 124t99 154q2 -2 6 -2l-2 -12q-3 -26 -5 -67t-2 -71t0.5 -73.5t0.5 -50.5q-59 0 -90 -2q-61 0 -92 -2v2zM-59 748q144 0 444 4l-6 -164h248l-4 164q78 -4 112 -4v188l-108 -4v530h-287l-399 -565v-149z" />
    <glyph glyph-name="uni2075" unicode="&#x2075;" horiz-adv-x="710" 
d="M180 934q68 45 139 45q57 0 92 -28t35 -72q0 -50 -33.5 -77.5t-93.5 -27.5q-54 0 -103 23t-107 71l-138 -159q74 -68 158 -103t195 -35q157 0 256.5 84.5t99.5 225.5q0 133 -85 202.5t-210 69.5q-67 0 -143 -45l12 145h389v197h-580l-24 -436z" />
    <glyph glyph-name="uni2076" unicode="&#x2076;" horiz-adv-x="710" 
d="M567 1450h-250l-155 -233q-92 -141 -125 -216t-33 -143q0 -127 99.5 -207t265.5 -80q149 0 246.5 85t97.5 225q0 125 -67.5 196.5t-176.5 71.5q-72 0 -160 -55zM365 756q-52 0 -86.5 30.5t-34.5 81.5q0 49 31.5 80t86.5 31t87 -32.5t32 -78.5q0 -49 -31 -80.5t-85 -31.5z
" />
    <glyph glyph-name="uni2077" unicode="&#x2077;" horiz-adv-x="710" 
d="M383 584l381 686v180h-666v-201h400l-379 -665h264z" />
    <glyph glyph-name="uni2078" unicode="&#x2078;" horiz-adv-x="710" 
d="M625 1040q129 70 129 193q0 106 -92 175t-240 69q-146 0 -237 -69t-91 -175q0 -126 131 -193q-75 -30 -118.5 -85t-43.5 -126q0 -113 101.5 -185.5t257.5 -72.5q160 0 261 72.5t101 187.5q0 69 -44.5 123.5t-114.5 85.5zM422 1108q-41 0 -74 28t-33 68q0 42 29 67t78 25
q52 0 81 -26.5t29 -65.5t-30.5 -67.5t-79.5 -28.5zM422 754q-49 0 -87 26t-38 74q0 41 35 67.5t90 26.5q57 0 93 -26.5t36 -67.5q0 -43 -34 -71.5t-95 -28.5z" />
    <glyph glyph-name="uni2079" unicode="&#x2079;" horiz-adv-x="710" 
d="M205 584h250l223 344q98 151 98 256q0 131 -100.5 212t-274.5 81q-146 0 -246 -85.5t-100 -228.5q0 -128 67 -200t181 -72q53 0 87 13t75 42zM412 1288q54 0 87 -29.5t33 -82.5q0 -46 -32 -78.5t-86 -32.5q-58 0 -91.5 32t-33.5 81q0 51 32 80.5t91 29.5z" />
    <glyph glyph-name="uni207F" unicode="&#x207f;" horiz-adv-x="806" 
d="M811 1292q0 121 -67.5 199t-186.5 78q-129 0 -225 -123l-264 106v-751h264v407q0 59 32 92t78 33t76.5 -33t30.5 -92v-407h262v491z" />
    <glyph glyph-name="Euro" unicode="&#x20ac;" horiz-adv-x="1253" 
d="M477 821q5 73 25 129t47.5 88t63.5 51.5t66.5 26t63.5 6.5q134 0 215 -104l275 213q-181 231 -492 231q-128 0 -236 -41t-183.5 -112t-128.5 -167t-78 -204t-25 -225q0 -151 35 -275.5t95.5 -210t143.5 -144t177 -85.5t198 -27q167 0 288 61.5t212 182.5l-268 205
q-90 -109 -209 -109q-59 0 -107 27t-80 72.5t-52 96t-31 107.5h348v207h-363z" />
    <glyph glyph-name="uni2113" unicode="&#x2113;" horiz-adv-x="1064" 
d="M602 -25q80 0 152.5 30t177.5 112l-121 186q-1 -1 -16.5 -14.5t-20 -17t-20.5 -16t-24 -18t-23 -14.5t-25.5 -13t-24 -7.5t-24.5 -3.5q-68 0 -68 92v239q307 350 307 619q0 82 -29 152t-91 116.5t-146 46.5q-77 0 -136.5 -33t-94 -89t-51.5 -122t-17 -139v-477l-174 -170
l127 -168l47 47v-41q0 -136 78.5 -216.5t216.5 -80.5zM602 1247q16 0 23.5 -26.5t7.5 -59.5q0 -69 -17.5 -164.5t-50.5 -150.5v258q0 143 37 143z" />
    <glyph glyph-name="trademark" unicode="&#x2122;" horiz-adv-x="1845" 
d="M762 1212v234h-748v-234h250v-614h250v614h248zM1780 598v848h-287l-188 -412l-191 412h-291v-848h250v340l150 -340h157l150 340v-340h250z" />
    <glyph glyph-name="uni2126" unicode="&#x2126;" horiz-adv-x="1710" 
d="M848 4h719v338h-334q84 37 147.5 120t94 178.5t30.5 188.5q0 153 -57 275.5t-155.5 199.5t-228 117.5t-278.5 40.5q-119 0 -225.5 -25t-197 -77t-156 -126.5t-102.5 -178t-37 -226.5q0 -144 74.5 -287.5t197.5 -199.5h-334v-338h719v358q-122 48 -186 152t-64 238
q0 155 78.5 253.5t228.5 98.5q154 0 235 -96.5t81 -255.5q0 -134 -63.5 -235.5t-186.5 -154.5v-358z" />
    <glyph glyph-name="estimated" unicode="&#x212e;" horiz-adv-x="1406" 
d="M1253 479q0 285 -153 464t-398 179q-163 0 -289 -77.5t-192.5 -207.5t-66.5 -290q0 -161 66.5 -292t192.5 -208.5t289 -77.5q165 0 285.5 80t237.5 262l-191 109q-78 -132 -158 -191t-174 -59q-111 0 -198 72v237h749zM903 680h-399v174q85 68 196 68q113 0 203 -72v-170
z" />
    <glyph glyph-name="oneeighth" unicode="&#x215b;" horiz-adv-x="1751" 
d="M459 -211l907 1897h-315l-908 -1897h316zM168 584h262v866l-184 -4q-49 0 -127 -2t-84 -2v-209q26 1 66.5 2t66.5 2v-653zM1513 451q129 70 129 192q0 106 -92 175t-239 69q-146 0 -237 -69t-91 -175q0 -125 131 -192q-75 -30 -118.5 -85t-43.5 -126q0 -113 101.5 -185.5
t257.5 -72.5q160 0 261 72.5t101 187.5q0 69 -45 123.5t-115 85.5zM1311 518q-41 0 -74 28t-33 68q0 42 29 67.5t78 25.5q52 0 81 -27t29 -66t-30.5 -67.5t-79.5 -28.5zM1311 164q-49 0 -87 26t-38 74q0 41 35 67.5t90 26.5q57 0 93 -26.5t36 -67.5q0 -43 -34 -71.5
t-95 -28.5z" />
    <glyph glyph-name="threeeighths" unicode="&#x215c;" horiz-adv-x="2007" 
d="M725 -211l907 1897h-315l-907 -1897h315zM1772 451q129 70 129 192q0 106 -92 175t-240 69q-146 0 -237 -69t-91 -175q0 -125 131 -192q-75 -30 -118.5 -85t-43.5 -126q0 -113 101.5 -185.5t257.5 -72.5q160 0 261 72.5t101 187.5q0 69 -44.5 123.5t-114.5 85.5z
M1569 518q-41 0 -74 28t-33 68q0 42 29 67.5t78 25.5q52 0 81 -27t29 -66t-30.5 -67.5t-79.5 -28.5zM1569 164q-49 0 -87 26t-38 74q0 41 35 67.5t90 26.5q57 0 93 -26.5t36 -67.5q0 -43 -34 -71.5t-95 -28.5zM57 868q7 -142 112.5 -219.5t264.5 -77.5q97 0 179 28.5t137 93
t55 155.5q0 67 -36.5 122.5t-102.5 84.5q49 25 75.5 72.5t26.5 103.5q0 78 -49.5 135.5t-122.5 84t-156 26.5q-66 0 -125 -17t-107 -49.5t-79 -85t-37 -119.5h256q0 35 21 61.5t65 26.5q36 0 58 -23t22 -59q0 -42 -27 -67t-67 -25h-25v-149q8 0 23.5 1t23.5 1q45 0 75 -27.5
t30 -73.5q0 -51 -31.5 -83.5t-79.5 -32.5q-53 0 -84 31.5t-33 80.5h-262z" />
    <glyph glyph-name="fiveeighths" unicode="&#x215d;" horiz-adv-x="1961" 
d="M676 -211l907 1897h-315l-908 -1897h316zM268 934q68 45 140 45q57 0 92 -28t35 -72q0 -50 -33.5 -77.5t-93.5 -27.5q-96 0 -211 94l-138 -159q74 -68 158 -103t195 -35q157 0 256.5 84.5t99.5 225.5q0 133 -85 202.5t-210 69.5q-67 0 -143 -45l12 145h389v197h-579
l-25 -436zM1724 451q129 70 129 192q0 106 -92 175t-239 69q-146 0 -237 -69t-91 -175q0 -125 131 -192q-75 -30 -118.5 -85t-43.5 -126q0 -113 101.5 -185.5t257.5 -72.5q160 0 261 72.5t101 187.5q0 69 -45 123.5t-115 85.5zM1522 518q-41 0 -74 28t-33 68q0 42 29 67.5
t78 25.5q52 0 81 -27t29 -66t-30.5 -67.5t-79.5 -28.5zM1522 164q-49 0 -87 26t-38 74q0 41 35 67.5t90 26.5q57 0 93 -26.5t36 -67.5q0 -43 -34 -71.5t-95 -28.5z" />
    <glyph glyph-name="seveneighths" unicode="&#x215e;" horiz-adv-x="1757" 
d="M453 -211l907 1897h-316l-907 -1897h316zM1522 451q129 70 129 192q0 106 -92 175t-240 69q-146 0 -237 -69t-91 -175q0 -125 131 -192q-74 -30 -117.5 -84.5t-43.5 -126.5q0 -114 101 -186t257 -72q160 0 261 72.5t101 187.5q0 69 -44.5 123.5t-114.5 85.5zM1319 518
q-41 0 -74 28t-33 68q0 42 29 67.5t78 25.5q52 0 81.5 -27t29.5 -66t-31 -67.5t-80 -28.5zM1319 164q-49 0 -87 26t-38 74q0 41 35 67.5t90 26.5q57 0 93 -26.5t36 -67.5q0 -43 -34 -71.5t-95 -28.5zM330 596l381 686v180h-666v-200h399l-378 -666h264z" />
    <glyph glyph-name="partialdiff" unicode="&#x2202;" horiz-adv-x="1112" 
d="M532 -23q86 0 157 25.5t120.5 68.5t87.5 105t61 127.5t37.5 144t19.5 147.5t5 144q0 101 -15 198t-52.5 195t-94 171t-147.5 119t-205 46q-214 0 -375 -172l152 -174q106 109 217 109q54 0 97 -24t71 -61t48.5 -89t30.5 -101.5t15 -105.5q-111 72 -240 72
q-131 0 -229.5 -63t-148.5 -168t-50 -234q0 -94 30 -180t85 -153t139 -107t184 -40zM535 684q118 0 217 -123q-39 -352 -217 -352q-85 0 -134 75t-49 171q0 98 48 163.5t135 65.5z" />
    <glyph glyph-name="uni2206" unicode="&#x2206;" horiz-adv-x="1644" 
d="M29 0h1581l-600 1454h-383zM1055 336h-480l240 647z" />
    <glyph glyph-name="product" unicode="&#x220f;" horiz-adv-x="1429" 
d="M1051 -535h264v2034h-1196v-2034h264v1786h668v-1786z" />
    <glyph glyph-name="summation" unicode="&#x2211;" horiz-adv-x="1226" 
d="M25 -535h1177v248h-823l559 785l-528 755h770v248h-1131v-190l572 -809l-596 -846v-191z" />
    <glyph glyph-name="minus" unicode="&#x2212;" horiz-adv-x="1415" 
d="M1249 594v244h-1083v-244h1083z" />
    <glyph glyph-name="radical" unicode="&#x221a;" horiz-adv-x="1040" 
d="M700 -16l359 1757h-268l-261 -1313l-227 479l-315 -139l104 -219l84 41l289 -606h235z" />
    <glyph glyph-name="infinity" unicode="&#x221e;" horiz-adv-x="1480" 
d="M1100 379q144 0 232.5 97.5t88.5 240.5q0 148 -93.5 244t-242.5 96q-103 0 -181.5 -47t-164.5 -138q-175 183 -356 183q-145 0 -235.5 -99t-90.5 -245q0 -143 92 -237.5t238 -94.5q102 0 178 42.5t170 127.5q93 -78 179.5 -124t185.5 -46zM1090 817q43 0 63.5 -31
t20.5 -75q0 -42 -22 -67.5t-62 -25.5q-70 0 -179 93q2 2 15.5 14t18.5 15.5t18.5 15t20.5 16t20 13.5t22 13.5t20.5 9.5t22.5 7t21 2zM385 815q18 0 36.5 -5.5t31.5 -11t33 -19.5t27.5 -20.5t29.5 -25t26 -22.5q-104 -93 -180 -93q-38 0 -61 26t-23 69q0 42 20.5 72t59.5 30
z" />
    <glyph glyph-name="integral" unicode="&#x222b;" horiz-adv-x="743" 
d="M209 -471q79 0 137.5 39t89 103.5t44.5 133t14 142.5v1241q0 8 -1 26t-1 30.5t1 26.5t4.5 21.5t10.5 7.5q12 0 39 -14t49 -14q52 0 90.5 37.5t38.5 93.5q0 42 -19 74t-51 50t-68 27t-75 9q-79 0 -137.5 -39t-89 -103.5t-44.5 -133t-14 -142.5v-1241q0 -8 1 -26t1 -31
t-1 -27t-4.5 -21.5t-10.5 -7.5q-12 0 -39 14.5t-49 14.5q-52 0 -90.5 -37.5t-38.5 -93.5q0 -42 19 -74t51 -50t68 -27t75 -9z" />
    <glyph glyph-name="approxequal" unicode="&#x2248;" horiz-adv-x="1298" 
d="M993 1118q-13 -77 -37 -113t-73 -36q-44 0 -107 21.5t-118.5 47t-127 47t-129.5 21.5q-74 0 -132 -33.5t-94.5 -92t-58 -124.5t-32.5 -145h223q8 45 18.5 74t36 52t64.5 23q38 0 97.5 -21.5t115 -47t129.5 -47t137 -21.5q64 0 115 24t83 61t55 91.5t34.5 105.5t19.5 113
h-219zM993 682q-13 -77 -37 -113.5t-73 -36.5q-44 0 -107 21.5t-118.5 47.5t-127 47.5t-129.5 21.5q-74 0 -132 -33.5t-94.5 -92.5t-58 -125t-32.5 -145h223q8 45 18.5 74t36 52.5t64.5 23.5q38 0 97.5 -21.5t115 -47t129.5 -47t137 -21.5q64 0 115 24t83 61t55 91.5
t34.5 105.5t19.5 113h-219z" />
    <glyph glyph-name="notequal" unicode="&#x2260;" horiz-adv-x="1409" 
d="M674 408h559v241h-424l74 148h368v247h-235l84 160l-221 121l-150 -281h-545v-247h414l-74 -148h-358v-241h229l-86 -158l221 -117z" />
    <glyph glyph-name="lessequal" unicode="&#x2264;" horiz-adv-x="1415" 
d="M1217 1149v362l-1018 -405v-363l1018 -405v364l-670 224zM1249 0v244h-1083v-244h1083z" />
    <glyph glyph-name="greaterequal" unicode="&#x2265;" horiz-adv-x="1415" 
d="M217 1507v-364l670 -223l-670 -224v-362l1018 405v363zM1249 0v244h-1083v-244h1083z" />
    <glyph glyph-name="lozenge" unicode="&#x25ca;" horiz-adv-x="1013" 
d="M610 -70l346 797l-346 799h-213l-340 -799l340 -797h213zM504 1149l180 -424l-180 -422l-176 426z" />
    <glyph glyph-name="uni25CC" unicode="&#x25cc;" horiz-adv-x="1853" 
d="M942 1583q-51 0 -81 -27t-30 -77q0 -52 31 -80.5t80 -28.5t80 28.5t31 80.5t-30.5 78t-80.5 26zM1307 1499q-53 0 -83 -26.5t-30 -77.5q0 -52 32 -80.5t81 -28.5t79.5 28.5t30.5 80.5t-30 78t-80 26zM1544 1198q-51 0 -80.5 -27t-29.5 -77q0 -52 30.5 -80.5t79.5 -28.5
t81 28.5t32 80.5t-31.5 78t-81.5 26zM1667 856q-50 0 -80.5 -28t-30.5 -78q0 -52 31 -80.5t80 -28.5t80 28.5t31 80.5t-30.5 79t-80.5 27zM1567 477q-51 0 -81 -27t-30 -77q0 -52 31 -80.5t80 -28.5t79.5 28.5t30.5 80.5t-30 78t-80 26zM1307 223q-53 0 -83 -26.5t-30 -77.5
q0 -52 32 -80.5t81 -28.5t79.5 28.5t30.5 80.5t-30 78t-80 26zM942 102q-51 0 -81 -27t-30 -77q0 -52 31 -80.5t80 -28.5t80 28.5t31 80.5t-30.5 78t-80.5 26zM537 223q-51 0 -81 -27t-30 -77q0 -52 31 -80.5t80 -28.5t79.5 28.5t30.5 80.5t-30 78t-80 26zM258 477
q-53 0 -83 -26.5t-30 -77.5q0 -52 32 -80.5t81 -28.5t80 28.5t31 80.5t-30.5 78t-80.5 26zM186 856q-50 0 -80 -28t-30 -78q0 -52 30.5 -80.5t79.5 -28.5t80 28.5t31 80.5t-30.5 79t-80.5 27zM279 1198q-51 0 -81 -27t-30 -77q0 -52 31 -80.5t80 -28.5t79.5 28.5t30.5 80.5
t-30 78t-80 26zM537 1499q-51 0 -81 -27t-30 -77q0 -52 31 -80.5t80 -28.5t79.5 28.5t30.5 80.5t-30 78t-80 26z" />
    <glyph glyph-name="caroncommaaccent" horiz-adv-x="1024" 
d="M547 1077l137 479h-256l-84 -479h203z" />
    <glyph glyph-name="commaaccentrotate" horiz-adv-x="403" 
d="M199 1608l-232 -455h406l90 455h-264z" />
    <glyph glyph-name="f_t" horiz-adv-x="1521" 
d="M821 1479q-105 30 -237 30q-192 0 -296 -94t-104 -289v-30l-170 -299h170v-797h387v797h248v299h-315v26q0 50 49.5 77.5t110.5 27.5q80 0 157 -23v275zM856 342q0 -367 373 -367q152 0 270 64v305q-82 -37 -147 -37q-55 0 -81 26t-26 85v375h258v313h-258v342l-602 -655
h213v-451z" />
    <glyph glyph-name="w_w_w" horiz-adv-x="5206" 
d="M397 1108h-381l338 -1116h334l184 575l181 -575h336l342 1116h-375l-150 -561l-172 565h-321l-170 -561zM2126 1108h-381l338 -1116h334l184 575l180 -575h336l342 1116h-375l-149 -561l-172 565h-322l-170 -561zM3854 1108h-381l338 -1116h334l184 575l181 -575h336
l342 1116h-375l-150 -561l-172 565h-321l-170 -561z" />
    <glyph glyph-name="t_t" horiz-adv-x="1685" 
d="M979 344q0 -367 373 -367q152 0 270 64v305q-82 -37 -147 -37q-55 0 -81 26t-26 85v375h258v313h-258v342l-602 -655h213v-451zM248 344q0 -367 373 -367q152 0 270 64v305q-82 -37 -148 -37q-55 0 -80.5 26t-25.5 85v375h258v313h-258v342l-602 -655h213v-451z" />
    <glyph glyph-name="Upsilondieresis_alt" horiz-adv-x="1521" 
d="M991 0v543l545 891h-444l-297 -523l-295 523h-453l545 -897v-537h399zM561 1976q-81 0 -130.5 -46.5t-49.5 -127.5q0 -83 51 -129.5t129 -46.5t129 46.5t51 129.5t-50.5 128.5t-129.5 45.5zM1024 1976q-81 0 -130.5 -46.5t-49.5 -127.5q0 -83 51 -129.5t129 -46.5
t129 46.5t51 129.5t-50.5 128.5t-129.5 45.5z" />
    <glyph glyph-name=".null.1" horiz-adv-x="569" 
 />
    <glyph glyph-name="ogonek.1" horiz-adv-x="403" 
d="M399 -242q-71 -30 -114 -30q-27 0 -44.5 12t-17.5 37q0 65 135 198l-202 84q-99 -107 -142 -177.5t-43 -143.5q0 -102 73.5 -163.5t188.5 -61.5q111 0 213 55z" />
    <glyph glyph-name="ogonek.2" horiz-adv-x="403" 
d="M399 -242q-71 -30 -114 -30q-62 0 -62 57q0 102 199 301l-322 -86q-60 -68 -94.5 -130t-34.5 -132q0 -102 73.5 -163.5t188.5 -61.5q111 0 213 55z" />
    <glyph glyph-name="periodcentered.loclCAT" horiz-adv-x="659" 
d="M356 999q-105 0 -167 -59t-62 -164q0 -107 63.5 -166t165.5 -59t167 59t65 166t-65 165t-167 58z" />
    <glyph glyph-name="i.loclTRK" horiz-adv-x="595" 
d="M473 0v1108h-389v-1108h389zM276 1608q-96 0 -157.5 -51t-61.5 -146t61.5 -147t157.5 -52q97 0 159.5 52t62.5 147q0 94 -62.5 145.5t-159.5 51.5z" />
    <glyph glyph-name="periodcentered.loclCAT.case" horiz-adv-x="659" 
d="M356 999q-105 0 -167 -59t-62 -164q0 -107 63.5 -166t165.5 -59t167 59t65 166t-65 165t-167 58z" />
    <glyph glyph-name="uni004A0301" horiz-adv-x="972" 
d="M0 84q159 -109 315 -109q254 0 401.5 150t147.5 399v910h-395v-908q0 -96 -51.5 -148t-132.5 -52q-55 0 -110 25.5t-89.5 53t-85.5 76.5v-397zM666 1978l-213 -379h274l301 263z" />
    <glyph glyph-name="uni006A0301" horiz-adv-x="585" 
d="M397 1640l-213 -378h275l301 262zM-47 -319q88 -15 160 -15q196 0 295.5 89.5t99.5 293.5v1059h-389v-1042q0 -129 -88 -129q-28 0 -78 16v-272z" />
    <glyph glyph-name="tonos.case" horiz-adv-x="1009" 
d="M379 1724l-213 -378h274l426 378h-487z" />
    <glyph glyph-name="uni030C.alt" 
d="M782 1624h-280l-115 -129l-119 129h-286l299 -383h204z" />
    <glyph glyph-name="Delta" horiz-adv-x="1630" 
d="M1090 309h-560l281 684zM-8 0h1644l-630 1444h-383z" />
    <glyph glyph-name="uni0394.1" horiz-adv-x="1644" 
d="M29 0h1581l-600 1454h-383zM575 336l240 647l240 -647h-480z" />
    <glyph glyph-name="uni03BC.001" horiz-adv-x="1298" 
d="M485 -328h-389v1436h389v-600q0 -89 43 -137.5t115 -48.5q71 0 116.5 49t45.5 137v600h389v-1108l-389 152q-62 -177 -176 -177q-48 0 -86.5 29t-57.5 70v-402z" />
  </font>
</defs>
</svg>
