<?xml version="1.0" standalone="no"?>
<!DOCTYPE svg PUBLIC "-//W3C//DTD SVG 1.1//EN" "http://www.w3.org/Graphics/SVG/1.1/DTD/svg11.dtd" >
<svg xmlns="http://www.w3.org/2000/svg" xmlns:xlink="http://www.w3.org/1999/xlink" version="1.1">
<metadata>
Created by FontForge 20201107 at Thu Dec 18 19:34:32 2025
 By 
Copyright 2022 The Geom Project Authors (https://github.com/ThanosPoulakidas/Geom)
</metadata>
<defs>
<font id="Geom-MediumItalic" horiz-adv-x="0" >
  <font-face 
    font-family="Geom Medium"
    font-weight="500"
    font-style="italic"
    font-stretch="normal"
    units-per-em="2048"
    panose-1="0 0 0 0 0 0 0 0 0 0"
    ascent="1638"
    descent="-410"
    x-height="1026"
    cap-height="1440"
    bbox="-426 -539 4862 2052"
    underline-thickness="102"
    underline-position="-255"
    slope="-10"
    unicode-range="U+000D-FB02"
  />
<missing-glyph horiz-adv-x="1112" 
d="M182 1475l-260 -1475h1077l261 1475h-1078zM1036 1358l-424 -500l-247 500h671zM909 256l-241 481l411 486zM817 117h-672l424 501zM104 256l170 969l238 -488z" />
    <glyph glyph-name="fi" unicode="fi" horiz-adv-x="1263" 
d="M895 1483q-62 24 -160 24q-343 0 -409 -370l-19 -111l-227 -197h192l-147 -829h237l146 829h248l35 195h-269l17 104q17 95 69.5 144t134.5 49q55 0 119 -23zM987 0l182 1028h-239l-182 -1028h239zM1128 1487q-31 0 -65.5 -11t-70 -47t-44.5 -92q-12 -65 25.5 -106
t101.5 -41q68 0 120.5 41t64.5 106q10 68 -27 109t-105 41z" />
    <glyph glyph-name="fl" unicode="fl" horiz-adv-x="1206" 
d="M895 1483q-62 24 -160 24q-343 0 -409 -370l-19 -111l-227 -197h192l-147 -829h237l146 829h248l35 195h-269l17 104q17 95 69.5 144t134.5 49q55 0 119 -23zM965 0l264 1499h-242l-264 -1499h242z" />
    <glyph glyph-name="f_f_i" unicode="ffi" horiz-adv-x="1978" 
d="M1702 0l182 1028h-239l-183 -1028h240zM1843 1487q-31 0 -65.5 -11t-70 -47t-44.5 -92q-12 -65 25.5 -106t101.5 -41q68 0 120 41t64 106q10 68 -26.5 109t-104.5 41zM1608 1483q-62 24 -160 24q-344 0 -410 -370l-18 -111l-227 -197h192l-147 -829h237l146 829h247
l35 195h-268l16 104q17 95 70 144t135 49q55 0 119 -23zM895 1483q-62 24 -160 24q-343 0 -409 -370l-19 -111l-227 -197h192l-147 -829h237l146 829h248l35 195h-269l17 104q17 95 69.5 144t134.5 49q55 0 119 -23z" />
    <glyph glyph-name="f_f_l" unicode="ffl" horiz-adv-x="1755" 
d="M895 1483q-62 24 -160 24q-343 0 -409 -370l-19 -111l-227 -197h192l-147 -829h237l146 829h248l35 195h-269l17 104q17 95 69.5 144t134.5 49q55 0 119 -23zM1526 1483q-62 24 -160 24q-344 0 -410 -370l-18 -111l-227 -197h192l-147 -829h237l146 829h247l35 195h-268
l16 104q17 95 70 144t135 49q55 0 119 -23zM1597 0l265 1499h-242l-264 -1499h241z" />
    <glyph glyph-name="f_f" unicode="ff" horiz-adv-x="1454" 
d="M1528 1483q-61 24 -160 24q-344 0 -410 -370l-18 -111l-227 -197h192l-147 -829h237l146 829h248l34 195h-268l16 104q17 95 70 144t135 49q55 0 119 -23zM895 1483q-62 24 -160 24q-343 0 -409 -370l-19 -111l-227 -197h192l-147 -829h237l146 829h248l35 195h-269
l17 104q17 95 69.5 144t134.5 49q55 0 119 -23z" />
    <glyph glyph-name=".notdef" horiz-adv-x="1112" 
d="M182 1475l-260 -1475h1077l261 1475h-1078zM1036 1358l-424 -500l-247 500h671zM909 256l-241 481l411 486zM817 117h-672l424 501zM104 256l170 969l238 -488z" />
    <glyph glyph-name=".null" 
 />
    <glyph glyph-name="nonmarkingreturn" horiz-adv-x="682" 
 />
    <glyph glyph-name="CR" unicode="&#xd;" horiz-adv-x="835" 
 />
    <glyph glyph-name="space" unicode=" " horiz-adv-x="573" 
 />
    <glyph glyph-name="exclam" unicode="!" horiz-adv-x="628" 
d="M614 1440h-280l-27 -172l-82 -836h144l209 836zM268 272q-25 0 -50.5 -6.5t-53.5 -21t-48.5 -45t-27.5 -72.5q-10 -69 26.5 -109.5t102.5 -40.5q68 0 118 40.5t62 109.5q10 63 -26.5 104t-102.5 41z" />
    <glyph glyph-name="quotedbl" unicode="&#x22;" horiz-adv-x="1046" 
d="M240 838h141l250 532l31 74v2h-265zM817 1446l-158 -608h142l250 532l30 74v2h-264z" />
    <glyph glyph-name="numbersign" unicode="#" horiz-adv-x="1314" 
d="M221 358l-121 -358h199l119 356h309l-117 -356h199l117 356h241l37 209h-207l109 324h223l37 207h-190l112 346h-198l-113 -346h-309l114 346h-198l-113 -346h-248l-37 -207h215l-108 -324h-232l-34 -207h194zM596 889h315l-110 -328h-316z" />
    <glyph glyph-name="dollar" unicode="$" horiz-adv-x="1212" 
d="M410 -197h159l35 193q198 21 337.5 131.5t168.5 278.5q27 155 -60 252t-305 167l76 424q70 -7 125 -42t86 -91l162 146q-103 165 -334 186l23 131h-160l-23 -131q-194 -17 -331 -125t-164 -272q-30 -161 59.5 -259.5t294.5 -164.5l-78 -441q-191 17 -313 181l-168 -154
q79 -101 191 -159t251 -58zM705 586q193 -64 169 -207q-11 -75 -71.5 -125.5t-167.5 -65.5zM602 868q-72 29 -92 43q-90 56 -70 162q12 74 71.5 122t158.5 58z" />
    <glyph glyph-name="percent" unicode="%" horiz-adv-x="1761" 
d="M467 719q89 0 164.5 33.5t125.5 89t81.5 121.5t42.5 137q25 159 -51.5 266t-229.5 107t-271.5 -108.5t-146.5 -266.5q-28 -161 51.5 -270t233.5 -109zM571 1315q71 0 113 -55t23 -168q-15 -94 -72 -153.5t-139 -59.5q-79 0 -118 61t-20 160q18 94 76.5 154.5t136.5 60.5z
M1227 -23q86 0 160 32.5t125 86.5t84 120t46 138q25 159 -51.5 265t-230.5 106q-152 0 -270 -108t-146 -265q-28 -159 50 -267t233 -108zM1331 569q73 0 115 -53.5t20 -163.5q-18 -94 -75.5 -155.5t-135.5 -61.5q-75 0 -114 59t-21 158q17 98 74.5 157.5t136.5 59.5zM373 -4
l1284 1468h-197l-1284 -1468h197z" />
    <glyph glyph-name="ampersand" unicode="&#x26;" horiz-adv-x="1445" 
d="M842 315q-159 -149 -307 -149q-107 0 -164.5 69.5t-38.5 170.5q28 168 250 266zM1223 768q-111 -166 -209 -285l-213 289q160 64 255.5 153.5t117.5 217.5q25 139 -63 234.5t-251 95.5q-172 0 -298 -97.5t-152 -247.5q-14 -80 4.5 -153t66.5 -156q-351 -130 -403 -426
q-33 -190 80.5 -303t318.5 -113q128 0 241.5 47.5t227.5 141.5l139 -176l254 51l-217 293q154 178 281 373zM631 1122q13 79 69.5 122.5t124.5 43.5q70 0 107.5 -43t25.5 -115q-13 -71 -81 -130t-175 -99q-45 69 -63 119.5t-8 101.5z" />
    <glyph glyph-name="quotesingle" unicode="'" horiz-adv-x="632" 
d="M385 1446l-158 -608h146l250 532l30 74v2h-268z" />
    <glyph glyph-name="parenleft" unicode="(" horiz-adv-x="864" 
d="M645 -172q-130 134 -194 253t-74 240t18 263q43 220 168.5 405.5t347.5 353.5l-98 146q-277 -188 -440.5 -406.5t-214.5 -498.5q-99 -552 338 -895z" />
    <glyph glyph-name="parenright" unicode=")" horiz-adv-x="868" 
d="M231 1343q134 -128 198.5 -248.5t70.5 -241.5t-17 -269q-34 -215 -160.5 -400.5t-355.5 -355.5l101 -139q559 352 655 895q48 278 -38 497t-300 408z" />
    <glyph glyph-name="asterisk" unicode="*" horiz-adv-x="768" 
d="M283 1395l108 -187l-237 -78l22 -129l234 74l-41 -244h137l43 242l207 -72l65 129l-205 76l170 193l-102 76l-168 -185l-106 185z" />
    <glyph glyph-name="plus" unicode="+" horiz-adv-x="1259" 
d="M788 819l70 400h-223l-70 -400h-397l-39 -217h397l-71 -401h225l70 401h399l39 217h-400z" />
    <glyph glyph-name="comma" unicode="," horiz-adv-x="536" 
d="M109 -301l274 600h-252l-207 -600h185z" />
    <glyph glyph-name="hyphen" unicode="-" horiz-adv-x="706" 
d="M635 449l37 219h-592l-39 -219h594z" />
    <glyph glyph-name="period" unicode="." horiz-adv-x="634" 
d="M274 291q-64 0 -119.5 -40t-66.5 -116q-12 -70 25.5 -114t105.5 -44q66 0 119 44.5t65 113.5q12 68 -25.5 112t-103.5 44z" />
    <glyph glyph-name="slash" unicode="/" horiz-adv-x="1091" 
d="M66 -193l1210 1807h-209l-1208 -1807h207z" />
    <glyph glyph-name="zero" unicode="0" horiz-adv-x="1337" 
d="M371 727q19 111 53 202.5t85 164t123.5 113t160.5 40.5q153 0 217 -145t22 -381q-41 -235 -154.5 -381.5t-267.5 -146.5q-158 0 -220 144.5t-19 389.5zM1284 721q32 166 17 303.5t-69 236t-156 153t-242 54.5q-183 0 -334.5 -98t-248.5 -265.5t-134 -383.5
q-32 -164 -15 -302t71 -237.5t155.5 -155t238.5 -55.5q184 0 335.5 99.5t248 267.5t133.5 383z" />
    <glyph glyph-name="one" unicode="1" horiz-adv-x="718" 
d="M424 0l254 1448h-498l-41 -231h254l-215 -1217h246z" />
    <glyph glyph-name="two" unicode="2" horiz-adv-x="1204" 
d="M1145 1055q17 90 1 158.5t-51.5 116.5t-92.5 78t-121.5 44t-137.5 14q-216 0 -370.5 -115t-220.5 -341h247q34 111 114.5 174t188.5 63q111 0 158.5 -55t32.5 -139q-28 -153 -287 -406l-651 -647h1028l39 213h-561l315 315q183 184 266.5 300t102.5 227z" />
    <glyph glyph-name="three" unicode="3" horiz-adv-x="1269" 
d="M1221 1262l34 196h-907l-37 -211h598l-469 -409l11 -129q54 10 155 10q148 0 224.5 -65.5t52.5 -196.5q-23 -122 -113 -194.5t-211 -72.5q-116 0 -187.5 60t-107.5 180l-213 -143q52 -147 171.5 -230.5t303.5 -83.5q225 0 395 139t207 345q34 194 -66 306.5t-288 125.5z
" />
    <glyph glyph-name="four" unicode="4" horiz-adv-x="1320" 
d="M1227 1454h-307l-885 -954l6 -199h741l-51 -301h240l53 301h195l34 199h-194zM940 1194l-123 -694h-514z" />
    <glyph glyph-name="five" unicode="5" horiz-adv-x="1200" 
d="M344 670q111 49 217 49q136 0 212.5 -72.5t55.5 -187.5q-22 -122 -114.5 -196.5t-231.5 -74.5q-180 0 -325 158l-172 -168q94 -103 201.5 -154t261.5 -51q244 0 415 134t211 358q19 106 -5 193t-81.5 143.5t-141.5 87.5t-185 31q-92 0 -230 -43l96 352h619l47 211h-827
l-179 -684z" />
    <glyph glyph-name="six" unicode="6" horiz-adv-x="1249" 
d="M1059 1446h-268l-406 -485q-155 -181 -223 -289t-88 -213q-36 -221 92 -354.5t364 -133.5q225 0 398 136t211 350q36 202 -67.5 321t-297.5 119q-141 0 -248 -70zM563 172q-139 0 -201 73t-38 197q21 114 111.5 190.5t217.5 76.5q128 0 193 -73t45 -187
q-22 -122 -112.5 -199.5t-215.5 -77.5z" />
    <glyph glyph-name="seven" unicode="7" horiz-adv-x="1081" 
d="M297 0l893 1237l35 203h-1022l-37 -213h754l-895 -1227h272z" />
    <glyph glyph-name="eight" unicode="8" horiz-adv-x="1320" 
d="M961 752q236 108 276 321q22 112 -27.5 202.5t-152 140.5t-234.5 50q-204 0 -363 -111t-188 -278q-39 -216 160 -323q-290 -115 -332 -361q-32 -181 99.5 -299.5t361.5 -118.5q151 0 281 51.5t217.5 148.5t109.5 222q21 123 -33 213t-175 142zM711 834q-114 0 -169.5 63
t-37.5 158q17 92 98 153.5t186 61.5q107 0 166.5 -61t44.5 -154q-17 -95 -99.5 -158t-188.5 -63zM596 172q-134 0 -200.5 66t-47.5 176q19 103 111.5 169t218.5 66q128 0 198.5 -66t51.5 -169q-18 -101 -111 -171.5t-221 -70.5z" />
    <glyph glyph-name="nine" unicode="9" horiz-adv-x="1243" 
d="M248 -4h266l447 532q122 146 185 246.5t83 210.5q38 220 -89 355t-368 135q-221 0 -393.5 -137.5t-210.5 -350.5q-35 -200 68 -323t296 -123q133 0 246 77zM743 1272q134 0 198 -76t40 -195q-22 -113 -115 -189.5t-217 -76.5q-125 0 -189 75.5t-44 190.5
q21 116 112 193.5t215 77.5z" />
    <glyph glyph-name="colon" unicode=":" horiz-adv-x="636" 
d="M274 291q-64 0 -119.5 -40t-66.5 -116q-12 -70 25.5 -114t105.5 -44q66 0 119 44.5t65 113.5q12 68 -25.5 112t-103.5 44zM408 1047q-64 0 -119 -40t-68 -116q-10 -70 27.5 -114t105.5 -44q66 0 119.5 44.5t65.5 113.5t-26 112.5t-105 43.5z" />
    <glyph glyph-name="semicolon" unicode=";" horiz-adv-x="548" 
d="M356 1047q-64 0 -118.5 -40t-67.5 -116q-10 -70 27.5 -114t105.5 -44q66 0 119 44.5t65 113.5t-26 112.5t-105 43.5zM88 -301l277 600h-254l-207 -600h184z" />
    <glyph glyph-name="less" unicode="&#x3c;" horiz-adv-x="1265" 
d="M1217 1032l38 230l-1071 -447l-37 -215l914 -446l39 227l-692 328z" />
    <glyph glyph-name="equal" unicode="=" horiz-adv-x="1220" 
d="M1198 1090h-983l-37 -218h981zM1108 575h-983l-37 -215h983z" />
    <glyph glyph-name="greater" unicode="&#x3e;" horiz-adv-x="1263" 
d="M262 1262l-39 -232l692 -323l-806 -322l-41 -231l1069 444l39 219z" />
    <glyph glyph-name="question" unicode="?" horiz-adv-x="962" 
d="M190 1065q179 182 357 182q87 0 133 -49t35 -117q-11 -58 -53 -105.5t-117 -105.5q-51 -40 -80 -66t-69 -70.5t-64.5 -97t-34.5 -114.5l-23 -112h232l12 63q16 88 54.5 141t123.5 119q111 81 178 165.5t87 199.5q29 167 -67 266.5t-273 99.5q-114 0 -216 -41.5
t-174 -117.5zM379 272q-67 0 -117.5 -38.5t-62.5 -106.5q-10 -68 26.5 -109t100.5 -41q69 0 120.5 40.5t63.5 109.5q10 63 -27.5 104t-103.5 41z" />
    <glyph glyph-name="at" unicode="@" horiz-adv-x="1884" 
d="M690 594q24 134 111.5 213.5t199.5 79.5q91 0 134 -59t28 -154q-22 -121 -115.5 -212t-201.5 -91q-90 0 -131.5 61t-24.5 162zM1382 -2q-129 -74 -253.5 -107.5t-268.5 -33.5q-175 0 -311.5 57.5t-219 158.5t-113.5 240t-3 299q39 214 167 388.5t319 275t405 100.5
q208 0 359.5 -90t216.5 -245.5t30 -346.5q-30 -178 -115.5 -286.5t-185.5 -108.5q-68 0 -91.5 51t-2.5 131l176 537l-197 24l-43 -129q-34 74 -92 115t-155 41q-181 0 -337.5 -143.5t-193.5 -343.5q-29 -172 55 -282t240 -110q178 0 334 166q20 -83 74.5 -126.5t154.5 -43.5
q82 0 159.5 35t143 100t114 166t69.5 224q28 155 -11.5 295t-132.5 241.5t-236.5 161t-314.5 59.5q-180 0 -352.5 -67.5t-307.5 -183t-230 -274.5t-126 -335q-22 -143 -5.5 -269.5t78 -232.5t153 -182.5t220 -119t277.5 -42.5q313 0 588 168z" />
    <glyph glyph-name="A" unicode="A" horiz-adv-x="1447" 
d="M369 354h641l84 -354h270l-373 1444h-221l-879 -1444h263zM487 561l342 590l134 -590h-476z" />
    <glyph glyph-name="B" unicode="B" horiz-adv-x="1359" 
d="M305 1440l-254 -1440h559q281 0 443.5 110t193.5 287q27 139 -38 231.5t-220 121.5q109 38 180 123.5t91 203.5q16 94 -11 165t-89.5 113.5t-147.5 63.5t-189 21h-518zM442 827l72 406h260q127 0 188 -50t44 -149q-18 -95 -96.5 -151t-211.5 -56h-256zM334 209l76 426
h270q191 0 267.5 -54t58.5 -159q-39 -213 -353 -213h-319z" />
    <glyph glyph-name="C" unicode="C" horiz-adv-x="1417" 
d="M1284 408q-135 -103 -250 -156t-248 -53q-146 0 -248 70t-142 188.5t-15 263.5q19 107 72 202.5t129.5 166t177.5 112t211 41.5q268 0 403 -184l47 264q-165 145 -413 145q-212 0 -402 -99t-317 -270.5t-164 -379.5q-28 -157 5 -296t114 -238t208 -156.5t281 -57.5
q141 0 262 44t242 128z" />
    <glyph glyph-name="D" unicode="D" horiz-adv-x="1513" 
d="M305 1440l-254 -1440h484q236 0 432.5 93t321 257t161.5 373q38 212 -32.5 375.5t-232.5 252.5t-392 89h-488zM340 221l176 996h299q86 0 156.5 -27t116 -74.5t75 -111t34 -135.5t-6.5 -150q-39 -225 -204 -361.5t-413 -136.5h-233z" />
    <glyph glyph-name="E" unicode="E" horiz-adv-x="1304" 
d="M340 217l72 410h700l37 207h-700l67 389h766l37 217h-1014l-254 -1440h1032l39 217h-782z" />
    <glyph glyph-name="F" unicode="F" horiz-adv-x="1255" 
d="M301 -4l107 602h690l37 215h-691l72 408h758l39 219h-1008l-254 -1444h250z" />
    <glyph glyph-name="G" unicode="G" horiz-adv-x="1652" 
d="M1335 621q-23 -131 -104 -231t-194.5 -151t-239.5 -51q-107 0 -195.5 40.5t-144 111t-78 169t-2.5 210.5q25 141 119 263t231.5 193.5t284.5 71.5q251 0 399 -168l47 269q-163 120 -422 120q-161 0 -315.5 -58.5t-276 -158t-207 -238t-112.5 -292.5q-37 -209 30 -382
t221.5 -272.5t364.5 -99.5q333 0 561 212t293 581l11 65h-617l-37 -204h383z" />
    <glyph glyph-name="H" unicode="H" horiz-adv-x="1482" 
d="M305 1442l-254 -1442h250l109 618h692l-111 -618h248l254 1442h-248l-104 -598h-692l104 598h-248z" />
    <glyph glyph-name="I" unicode="I" horiz-adv-x="542" 
d="M301 0l254 1440h-250l-254 -1440h250z" />
    <glyph glyph-name="J" unicode="J" horiz-adv-x="827" 
d="M-86 57q107 -80 244 -80q209 0 343.5 126t174.5 358l174 979h-250l-172 -983q-25 -136 -86 -197t-156 -61q-65 0 -116.5 25.5t-112.5 74.5z" />
    <glyph glyph-name="K" unicode="K" horiz-adv-x="1267" 
d="M449 842l104 598h-248l-254 -1440h250l123 700l448 -700h306l-500 784l708 656h-305z" />
    <glyph glyph-name="L" unicode="L" horiz-adv-x="1132" 
d="M340 221l215 1219h-250l-254 -1440h953l38 221h-702z" />
    <glyph glyph-name="M" unicode="M" horiz-adv-x="1585" 
d="M383 1044l365 -747l626 750l-184 -1047h246l252 1434h-250l-623 -760l-356 760h-254l-252 -1434h246z" />
    <glyph glyph-name="N" unicode="N" horiz-adv-x="1548" 
d="M1130 397l-587 1037h-240l-252 -1434h246l184 1051l592 -1051h232l254 1440h-244z" />
    <glyph glyph-name="O" unicode="O" horiz-adv-x="1701" 
d="M750 -29q183 0 341.5 61.5t269.5 166.5t182.5 239t94.5 283q25 153 -8 290t-113 238t-209.5 160t-289.5 59q-215 0 -407.5 -100.5t-320.5 -272t-165 -376.5q-37 -206 30.5 -377t224 -271t370.5 -100zM975 1245q101 0 179.5 -27.5t127.5 -76t79 -115.5t33 -145t-10 -164
q-26 -142 -110.5 -261t-212 -190t-270.5 -71q-145 0 -249 71t-146 191.5t-17 267.5q39 219 208 369.5t388 150.5z" />
    <glyph glyph-name="P" unicode="P" horiz-adv-x="1261" 
d="M305 1440l-254 -1444h250l92 522h250q244 0 422 125t217 346q38 212 -87 331.5t-374 119.5h-516zM430 725l88 502h246q151 0 220 -62.5t48 -187.5q-22 -120 -115.5 -186t-242.5 -66h-244z" />
    <glyph glyph-name="Q" unicode="Q" horiz-adv-x="1732" 
d="M1507 -209l52 287l-173 176q202 196 250 467q27 153 -5 290.5t-113 238t-211.5 159.5t-290.5 59q-161 0 -313.5 -59t-270 -160t-199 -239.5t-108.5 -292.5q-27 -153 5.5 -290.5t114 -237.5t212.5 -159t291 -59q232 0 448 127zM973 1245q85 0 155 -19.5t117.5 -55
t82 -84.5t49 -107.5t17.5 -125t-12 -136.5q-40 -219 -209 -370.5t-385 -151.5q-145 0 -248.5 71t-145.5 191t-17 264q40 222 208.5 373t387.5 151z" />
    <glyph glyph-name="R" unicode="R" horiz-adv-x="1273" 
d="M51 0h252l98 553h181l297 -553h295l-326 582q177 41 292 148.5t144 270.5q36 198 -86.5 318.5t-366.5 120.5h-526zM436 750l84 473h252q146 0 214.5 -57.5t47.5 -176.5q-22 -120 -120 -179.5t-246 -59.5h-232z" />
    <glyph glyph-name="S" unicode="S" horiz-adv-x="1181" 
d="M819 367q-10 -53 -41 -91t-75.5 -56.5t-88 -26t-92.5 -7.5q-133 0 -262 58t-229 170l-41 -246q168 -193 487 -193q103 0 197.5 23.5t175.5 69.5t139 123t80 176q19 93 1.5 166.5t-61 124t-104 92.5t-126.5 71t-129.5 59.5t-112 59t-74.5 69t-17 89.5q13 75 85.5 117
t185.5 42q109 0 211 -47.5t172 -144.5l45 260q-141 141 -404 141q-129 0 -244 -41.5t-198.5 -129t-103.5 -205.5q-13 -75 1 -138.5t49.5 -108.5t85 -83.5t107 -67.5t115 -56t109 -54.5t89.5 -57.5t57 -70t11 -87z" />
    <glyph glyph-name="T" unicode="T" horiz-adv-x="1144" 
d="M600 0l215 1221h430l39 219h-1108l-39 -219h430l-215 -1221h248z" />
    <glyph glyph-name="U" unicode="U" horiz-adv-x="1474" 
d="M141 598q-26 -136 -11.5 -240t55 -178t110 -121t154 -68.5t186.5 -21.5q315 0 487 160t228 475l147 838h-248l-147 -844q-36 -200 -145.5 -300.5t-280.5 -100.5q-182 0 -251 101t-34 308l148 836h-248z" />
    <glyph glyph-name="V" unicode="V" horiz-adv-x="1382" 
d="M424 1440h-279l320 -1444h260l823 1444h-270l-629 -1145z" />
    <glyph glyph-name="W" unicode="W" horiz-adv-x="2095" 
d="M580 373l-154 1067h-264l227 -1444h229l519 1069l153 -1069h226l733 1444h-258l-525 -1067l-145 1069h-225z" />
    <glyph glyph-name="X" unicode="X" horiz-adv-x="1341" 
d="M481 1440h-286l364 -705l-643 -735h285l469 549l276 -549h285l-379 739l606 701h-278l-439 -514z" />
    <glyph glyph-name="Y" unicode="Y" horiz-adv-x="1333" 
d="M696 0l99 563l704 877h-276l-506 -647l-281 647h-286l397 -879l-101 -561h250z" />
    <glyph glyph-name="Z" unicode="Z" horiz-adv-x="1302" 
d="M291 215l1095 1030l33 195h-1200l-37 -215h875l-1102 -1030l-35 -195h1217l39 215h-885z" />
    <glyph glyph-name="bracketleft" unicode="[" horiz-adv-x="829" 
d="M854 1290l31 180h-566l-311 -1773h563l31 176h-342l252 1417h342z" />
    <glyph glyph-name="backslash" unicode="\" horiz-adv-x="1056" 
d="M186 1585l533 -1833l203 25l-537 1835z" />
    <glyph glyph-name="bracketright" unicode="]" horiz-adv-x="831" 
d="M-12 -127l-31 -178h567l314 1775h-568l-30 -182h344l-252 -1415h-344z" />
    <glyph glyph-name="asciicircum" unicode="^" horiz-adv-x="993" 
d="M559 1442l-436 -535h190l310 371l178 -371h196l-252 535h-186z" />
    <glyph glyph-name="underscore" unicode="_" horiz-adv-x="1177" 
d="M-123 -143l-29 -166h1178l29 166h-1178z" />
    <glyph glyph-name="grave" unicode="`" horiz-adv-x="505" 
d="M190 1526l230 -264h178l-145 329z" />
    <glyph glyph-name="a" unicode="a" horiz-adv-x="1165" 
d="M748 262q-122 -112 -277 -112q-101 0 -160 48.5t-43 137.5q11 61 56.5 105t104.5 63.5t124 19.5q129 0 229 -61zM1051 633q34 201 -78.5 307.5t-333.5 106.5q-196 0 -422 -86l-35 -199q179 90 383 90q138 0 204 -49t48 -154l-6 -33q-107 62 -287 62q-69 0 -132 -11
t-124 -36t-108 -63t-81.5 -96t-47.5 -130q-20 -113 24 -198t126.5 -126t185.5 -41q192 0 350 127l221 -112z" />
    <glyph glyph-name="b" unicode="b" horiz-adv-x="1288" 
d="M309 141q106 -161 322 -161q135 0 258 65t210.5 188t114.5 281q43 240 -70.5 389.5t-318.5 149.5q-220 0 -399 -195l111 641h-242l-264 -1505zM725 844q80 0 137 -26.5t84 -72t36.5 -105.5t-5.5 -128q-28 -145 -132 -237.5t-237 -92.5q-129 0 -202.5 94.5t-49.5 237.5
q26 143 133 236.5t236 93.5z" />
    <glyph glyph-name="c" unicode="c" horiz-adv-x="964" 
d="M944 983q-87 66 -250 66q-117 0 -226 -43t-191.5 -116t-139.5 -171.5t-76 -206.5q-26 -148 21.5 -270.5t156.5 -193.5t257 -71q150 0 295 74l43 246q-134 -115 -277 -115q-132 0 -205.5 99.5t-48.5 238.5q25 140 128.5 233t236.5 93q144 0 233 -115z" />
    <glyph glyph-name="d" unicode="d" horiz-adv-x="1288" 
d="M1063 -6l264 1505h-242l-112 -631q-100 185 -330 185q-203 0 -371.5 -149.5t-210.5 -389.5q-21 -121 0.5 -222.5t76.5 -169t137 -105t182 -37.5q114 0 203.5 45t175.5 129zM545 182q-78 0 -133.5 27t-82 73t-34.5 106.5t8 127.5q29 147 132.5 239.5t228.5 92.5
q128 0 204 -96t52 -236q-26 -144 -135 -239t-240 -95z" />
    <glyph glyph-name="e" unicode="e" horiz-adv-x="1144" 
d="M940 311q-90 -76 -197 -112.5t-200 -36.5q-204 0 -256 178l788 188q10 107 -10 200.5t-68.5 166t-133.5 114.5t-197 42q-148 0 -277 -71t-215 -194.5t-113 -275.5q-41 -233 84 -385t357 -152q104 0 209 30.5t190 86.5zM297 526q20 133 110.5 232.5t219.5 99.5
q100 0 159.5 -57t67.5 -152l-555 -137z" />
    <glyph glyph-name="f" unicode="f" horiz-adv-x="712" 
d="M885 1483q-61 24 -160 24q-344 0 -410 -370l-18 -111l-227 -197h192l-147 -829h237l146 829h247l35 195h-268l16 104q17 95 70 144t135 49q55 0 119 -23z" />
    <glyph glyph-name="g" unicode="g" horiz-adv-x="1298" 
d="M571 256q-149 0 -211 85t-36 216q23 132 121.5 215.5t230.5 83.5t206 -85t50 -216q-23 -129 -127 -214t-234 -85zM860 150q-51 -336 -420 -336q-231 0 -401 143l-41 -225q189 -109 410 -109q272 0 461 141t235 402l151 862l-280 -139q-56 79 -133 121.5t-191 42.5
q-203 0 -368.5 -140t-204.5 -362q-38 -216 76.5 -354t320.5 -138q118 0 215 48.5t189 138.5z" />
    <glyph glyph-name="h" unicode="h" horiz-adv-x="1173" 
d="M1077 655q35 197 -47 296.5t-244 99.5q-208 0 -368 -164l108 612h-233l-264 -1499h241l105 582q21 115 103 178t186 63q98 0 139 -60.5t20 -180.5l-102 -582h242z" />
    <glyph glyph-name="i" unicode="i" horiz-adv-x="509" 
d="M276 0l183 1028h-240l-182 -1028h239zM418 1487q-31 0 -65.5 -11t-70 -47t-44.5 -92q-12 -65 25.5 -106t101.5 -41q68 0 120 41t64 106q10 68 -26.5 109t-104.5 41z" />
    <glyph glyph-name="j" unicode="j" horiz-adv-x="636" 
d="M-61 -362q66 -15 118 -15q159 0 238.5 87t107.5 255l189 1063h-240l-192 -1089q-11 -63 -39 -96t-82 -33q-34 0 -68 12zM545 1487q-22 0 -47 -7t-53 -22.5t-50 -46.5t-30 -74q-12 -65 25.5 -106t101.5 -41q68 0 120 41t64 106q12 68 -25 109t-106 41z" />
    <glyph glyph-name="k" unicode="k" horiz-adv-x="1026" 
d="M383 629l152 870h-242l-264 -1499h241l86 487l293 -487h281l-342 569l508 459h-291z" />
    <glyph glyph-name="l" unicode="l" horiz-adv-x="497" 
d="M270 0l265 1499h-242l-264 -1499h241z" />
    <glyph glyph-name="m" unicode="m" horiz-adv-x="1804" 
d="M1354 0h241l115 657q31 174 -41 284t-242 110q-233 0 -383 -183q-25 93 -97 138t-175 45q-201 0 -346 -154l-215 129l-182 -1026h241l105 582q19 112 91 184t175 72q100 0 136.5 -69t15.5 -187l-103 -582h242l102 582q20 109 91 182.5t175 73.5q95 0 137 -63t19 -193z
" />
    <glyph glyph-name="n" unicode="n" horiz-adv-x="1173" 
d="M1077 655q30 174 -46 285t-247 111q-197 0 -354 -160l-219 137l-182 -1028h241l105 582q12 68 42.5 119.5t71.5 80t82.5 42.5t83.5 14q88 0 139.5 -62.5t28.5 -193.5l-102 -582h242z" />
    <glyph glyph-name="o" unicode="o" horiz-adv-x="1249" 
d="M520 -23q134 0 249.5 42t197.5 115t136 170.5t73 211.5q25 147 -24.5 270t-165 195t-273.5 72q-118 0 -229.5 -42.5t-197.5 -115.5t-145.5 -172.5t-79.5 -210.5q-26 -147 23.5 -269.5t164.5 -194t271 -71.5zM674 848q157 0 223.5 -94t38.5 -240q-27 -137 -134.5 -234.5
t-242.5 -97.5t-208.5 96.5t-47.5 237.5q24 141 127.5 236.5t243.5 95.5z" />
    <glyph glyph-name="p" unicode="p" horiz-adv-x="1288" 
d="M299 160q107 -180 334 -180q130 0 252.5 64.5t213 188.5t118.5 283q21 120 -0.5 222t-76 170t-136.5 106.5t-181 38.5q-114 0 -204.5 -46.5t-176.5 -132.5l-231 154l-246 -1393h242zM725 844q142 0 211.5 -95t42.5 -233q-29 -149 -133.5 -241.5t-235.5 -92.5
q-129 0 -204.5 95t-49.5 237q24 142 131.5 236t237.5 94z" />
    <glyph glyph-name="q" unicode="q" horiz-adv-x="1288" 
d="M758 -365h241l246 1393l-280 -143q-58 80 -131 124t-187 44q-207 0 -375.5 -149t-210.5 -390q-27 -156 18 -279.5t144.5 -190.5t233.5 -67q213 0 395 191zM551 182q-64 0 -113.5 18t-78.5 50t-46.5 74.5t-18 91.5t8.5 102q28 145 131 237.5t234 92.5q129 0 203.5 -95.5
t50.5 -236.5q-26 -143 -134.5 -238.5t-236.5 -95.5z" />
    <glyph glyph-name="r" unicode="r" horiz-adv-x="751" 
d="M836 1040q-35 7 -66 7q-95 0 -184 -43.5t-156 -122.5l-219 147l-182 -1028h241l86 485q15 83 52.5 147.5t89 102.5t108.5 57t117 19q52 0 70 -12z" />
    <glyph glyph-name="s" unicode="s" horiz-adv-x="860" 
d="M526 283q-6 -36 -27.5 -61.5t-51 -37.5t-55.5 -17t-52 -5q-87 0 -175.5 43t-158.5 110l-39 -225q84 -53 164.5 -81.5t187.5 -28.5q171 0 290 88t143 225q12 69 -6.5 124.5t-57.5 91t-89 64.5t-101.5 51t-93 43t-65 48.5t-17.5 60.5q6 37 45.5 63.5t99.5 26.5
q133 0 285 -125l41 228q-124 82 -293 82q-162 0 -271.5 -76.5t-132.5 -206.5q-12 -68 7 -121t58.5 -86.5t90 -60t101.5 -48t92.5 -43.5t64.5 -54t16 -72z" />
    <glyph glyph-name="t" unicode="t" horiz-adv-x="759" 
d="M186 279q-24 -138 35 -220t191 -82q92 0 163 35l33 197q-58 -27 -104 -27q-94 0 -76 111l94 534h258l37 201h-260l59 342l-540 -543h205z" />
    <glyph glyph-name="u" unicode="u" horiz-adv-x="1161" 
d="M90 389q-9 -50 -9 -96.5t8 -93.5t30 -86t55 -69t85.5 -47t119.5 -17q206 0 350 147l221 -135l183 1038h-242l-103 -584q-13 -67 -42.5 -118t-69 -79.5t-81.5 -42t-85 -13.5q-214 0 -170 253l102 584h-241z" />
    <glyph glyph-name="v" unicode="v" horiz-adv-x="1058" 
d="M543 -4l606 1030h-252l-414 -750l-149 750h-260l241 -1030h228z" />
    <glyph glyph-name="w" unicode="w" horiz-adv-x="1558" 
d="M322 1028h-244l155 -1032h218l356 731l98 -731h223l521 1032h-244l-338 -709l-90 711h-223l-344 -713z" />
    <glyph glyph-name="x" unicode="x" horiz-adv-x="1064" 
d="M397 526l-483 -526h262l320 356l194 -356h268l-292 530l452 496h-260l-297 -328l-178 328h-268z" />
    <glyph glyph-name="y" unicode="y" horiz-adv-x="1062" 
d="M74 1026l270 -1030l-197 -361h215l793 1391h-252l-407 -760l-164 760h-258z" />
    <glyph glyph-name="z" unicode="z" horiz-adv-x="1052" 
d="M270 199l789 649l33 180h-945l-34 -197h639l-789 -653l-33 -178h971l37 199h-668z" />
    <glyph glyph-name="braceleft" unicode="{" horiz-adv-x="870" 
d="M74 496q69 0 112 -19t62.5 -44t22 -77t-2.5 -89.5t-18 -110.5q-17 -92 -20.5 -157t9.5 -115.5t39.5 -82.5t76.5 -55t112.5 -35t155.5 -20l43 159q-133 26 -173.5 87.5t-15.5 199.5q8 40 11.5 61t9 56t6.5 55t1.5 50t-4 48.5t-11 43t-19 42t-29 36.5t-39 34t-51.5 29
q44 17 79.5 36.5t62 43.5t46 46.5t33 53.5t22.5 56.5t16 63t11 64.5t10 71t11 73q11 61 34.5 101.5t64.5 65t79.5 36.5t106.5 26l12 160q-99 -6 -174.5 -23.5t-131.5 -50t-95 -73t-67.5 -102.5t-46.5 -128.5t-34 -159.5q-14 -76 -29.5 -121t-46.5 -82t-81.5 -52t-127.5 -15z
" />
    <glyph glyph-name="bar" unicode="|" horiz-adv-x="1245" 
d="M907 1591h-198l-336 -1906h198z" />
    <glyph glyph-name="braceright" unicode="}" horiz-adv-x="870" 
d="M813 682q-54 -1 -93 8t-62.5 23.5t-35.5 40.5t-15.5 49.5t0.5 62t9.5 67t15.5 75t15 75.5q11 59 12.5 107t-7 86.5t-24 68t-42 52t-57.5 38.5t-73.5 26.5t-88 17t-103.5 10.5l-45 -160q135 -25 176 -86t15 -196q-29 -166 -28 -226q2 -127 92 -194q26 -19 61 -35
q-54 -22 -95.5 -48.5t-70 -64.5t-46.5 -66t-32.5 -83t-20.5 -84t-18 -98q-1 -7 -2 -11q-23 -138 -85.5 -199.5t-205.5 -87.5l-12 -159q101 6 176 22.5t131.5 49t94.5 72t66.5 103.5t46.5 131.5t36 166.5q13 74 29.5 118.5t47.5 79t80 48.5t125 14z" />
    <glyph glyph-name="asciitilde" unicode="~" horiz-adv-x="1054" 
d="M864 776q-69 -110 -159 -110q-32 0 -71 15.5t-71 34.5t-79.5 34.5t-94.5 15.5q-91 0 -160 -58.5t-133 -185.5l117 -59q42 60 76.5 87.5t81.5 27.5q43 0 98.5 -25t115 -50.5t111.5 -25.5q170 0 287 242z" />
    <glyph glyph-name="uni00A0" unicode="&#xa0;" horiz-adv-x="573" 
 />
    <glyph glyph-name="exclamdown" unicode="&#xa1;" horiz-adv-x="628" 
d="M10 -367h283l35 230l75 780h-143l-201 -780zM358 801q68 0 118.5 40t62.5 109q10 63 -26.5 104.5t-102.5 41.5q-25 0 -51 -6.5t-53.5 -21.5t-48.5 -45.5t-28 -72.5q-10 -69 26.5 -109t102.5 -40z" />
    <glyph glyph-name="cent" unicode="&#xa2;" horiz-adv-x="1007" 
d="M461 436q-170 95 -129 320q25 146 111 232t216 97zM1034 1188q-74 62 -157 80l51 176h-164l-47 -158q-233 -9 -402 -159t-209 -379q-32 -177 47 -318t238 -188l-61 -197h166l55 172q193 6 332 111l41 229q-161 -143 -322 -143l203 661q60 -7 110.5 -38.5t79.5 -75.5z" />
    <glyph glyph-name="sterling" unicode="&#xa3;" horiz-adv-x="1148" 
d="M946 596l33 184h-490l33 176q23 127 96.5 206t194.5 79q85 0 138.5 -32t99.5 -99l190 154q-127 200 -395 200q-227 0 -380 -139t-194 -367l-32 -178h-142l-30 -184h141l-105 -596h897l37 203h-649l70 393h487z" />
    <glyph glyph-name="currency" unicode="&#xa4;" horiz-adv-x="1435" 
d="M1452 1167l-102 121l-226 -188q-116 96 -290 96q-180 0 -326 -98l-160 190l-143 -121l157 -190q-63 -71 -96.5 -141.5t-48.5 -163.5q-32 -173 43 -307l-231 -195l98 -123l235 197q129 -97 287 -97q161 0 320 95l161 -195l146 123l-160 188q123 142 156 314
q27 161 -43 309zM410 672q30 168 133 256t260 88q147 0 222 -98t48 -248q-25 -144 -135.5 -242t-257.5 -98q-145 0 -220 98.5t-50 243.5z" />
    <glyph glyph-name="yen" unicode="&#xa5;" horiz-adv-x="1273" 
d="M500 436h-379l-33 -174h379l-45 -262h240l47 262h376l31 174h-373l41 156h359l33 174h-293l553 674h-277l-467 -613l-254 613h-284l317 -674h-293l-31 -174h359z" />
    <glyph glyph-name="brokenbar" unicode="&#xa6;" horiz-adv-x="1263" 
d="M891 1386h-217l-127 -718h217zM711 354h-219l-127 -710h219z" />
    <glyph glyph-name="section" unicode="&#xa7;" horiz-adv-x="1163" 
d="M1044 1376q-125 97 -313 97q-183 0 -310 -82.5t-149 -212.5q-25 -136 95 -236q-116 -20 -188.5 -83.5t-88.5 -149.5q-21 -119 60 -194.5t284 -145.5q139 -47 198.5 -89.5t49.5 -99.5q-21 -127 -199 -127q-195 0 -319 142l-37 -218q123 -104 322 -104q186 0 312.5 87.5
t151.5 225.5q21 137 -94 230q116 26 187 86t88 149q20 108 -62 188t-291 148q-146 49 -195.5 89.5t-41.5 99.5q6 56 60 85t143 29q87 0 157.5 -32t141.5 -97zM494 856q26 -3 52.5 -7.5t70 -14.5t80.5 -22.5t76.5 -31.5t65 -41.5t39 -54t5.5 -66.5q-11 -52 -62 -86t-127 -34
q-110 14 -201 43.5t-148 77.5t-46 104q9 58 60.5 91.5t134.5 41.5z" />
    <glyph glyph-name="dieresis" unicode="&#xa8;" horiz-adv-x="770" 
d="M356 1561q-32 0 -63.5 -10.5t-63 -43.5t-39.5 -84q-10 -62 23 -100.5t94 -38.5q60 0 108 38.5t60 100.5q10 60 -24.5 99t-94.5 39zM768 1561q-22 0 -45 -6.5t-48.5 -20.5t-45 -43t-25.5 -68q-12 -62 21.5 -100.5t95.5 -38.5q58 0 106 38.5t60 100.5q10 60 -24.5 99
t-94.5 39z" />
    <glyph glyph-name="copyright" unicode="&#xa9;" horiz-adv-x="1691" 
d="M98 733q-32 -192 -0.5 -339.5t117.5 -247.5t219.5 -151.5t304.5 -51.5q164 0 320.5 62t278.5 167.5t207.5 250.5t113.5 306q37 213 -35.5 394.5t-233.5 287t-372 105.5q-158 0 -313.5 -63t-278.5 -169t-211 -250.5t-117 -300.5zM1542 729q-23 -126 -82.5 -236
t-140 -187.5t-176.5 -133t-193.5 -82.5t-187.5 -27q-108 0 -198 24t-153.5 67.5t-110 104.5t-68.5 135.5t-27.5 159.5t12.5 177q31 180 145.5 332t283.5 241t351 89q136 0 249.5 -52.5t186.5 -141.5t103 -212t6 -258zM1106 561q-125 -98 -248 -98q-112 0 -169 79.5
t-36 198.5q22 117 108 195t193 78q64 0 120.5 -27t94.5 -72l33 199q-94 74 -229 74q-193 0 -341 -129t-181 -318q-32 -192 69 -322t287 -130q139 0 264 84z" />
    <glyph glyph-name="ordfeminine" unicode="&#xaa;" horiz-adv-x="679" 
d="M139 1049q-17 -94 37.5 -140.5t142.5 -46.5q117 0 207 90l-14 -78h141l62 353q23 126 -37 189t-189 63q-111 0 -233 -54l16 -110q82 43 179 43q145 0 124 -127l-2 -14q-87 26 -153 26q-114 0 -189 -49.5t-92 -144.5zM76 727l-21 -117h561l21 117h-561zM553 1094
q-26 -129 -176 -129q-50 0 -77 24t-21 68q9 47 49 73.5t104 26.5q60 0 127 -27z" />
    <glyph glyph-name="guillemotleft" unicode="&#xab;" horiz-adv-x="1177" 
d="M530 164l-198 364l330 367l-177 76l-403 -447l246 -440zM1004 164l-199 364l330 367l-177 76l-403 -447l246 -440z" />
    <glyph glyph-name="logicalnot" unicode="&#xac;" horiz-adv-x="1275" 
d="M1118 260l103 586h-1059l-33 -193h862l-67 -393h194z" />
    <glyph glyph-name="uni00AD" unicode="&#xad;" horiz-adv-x="706" 
d="M635 449l37 219h-592l-39 -219h594z" />
    <glyph glyph-name="registered" unicode="&#xae;" horiz-adv-x="1560" 
d="M948 1462q-171 0 -323 -56t-264 -154t-187 -232t-100 -289q-31 -202 35.5 -370.5t218 -267.5t358.5 -99q197 0 384 99.5t317 269.5t165 368q35 197 -33 365.5t-220 267t-351 98.5zM705 102q-103 0 -187.5 22.5t-144 63.5t-103 98.5t-63.5 126.5t-26 149t9 165
q18 127 80.5 240.5t157 199.5t225 136.5t277.5 50.5q168 0 295.5 -84t184.5 -226.5t28 -310.5q-23 -126 -91.5 -242.5t-166 -201.5t-222 -136t-253.5 -51zM604 1159l-147 -846h170l57 326h49l191 -326h196l-207 351q92 23 161 88.5t83 156.5q22 112 -45 181t-192 69h-316z
M709 784l41 230h122q69 0 100 -33.5t21 -83.5q-7 -50 -53.5 -81.5t-108.5 -31.5h-122z" />
    <glyph glyph-name="macron" unicode="&#xaf;" horiz-adv-x="833" 
d="M872 1231l29 158h-665l-29 -158h665z" />
    <glyph glyph-name="degree" unicode="&#xb0;" horiz-adv-x="794" 
d="M453 858q156 0 258 90.5t125 229.5q22 136 -57.5 227.5t-213.5 91.5q-138 0 -249 -94t-134 -227q-23 -131 57.5 -224.5t213.5 -93.5zM543 1362q29 0 55.5 -7.5t52.5 -26t38 -57.5t3 -93q-13 -81 -74.5 -133t-140.5 -52q-77 0 -120 54t-29 131q12 74 75 129t140 55z" />
    <glyph glyph-name="plusminus" unicode="&#xb1;" horiz-adv-x="1241" 
d="M176 866l-33 -184h410l-55 -315h184l55 315h408l33 184h-408l57 324h-184l-57 -324h-410zM63 229l-30 -184h1001l33 184h-1004z" />
    <glyph glyph-name="uni00B2" unicode="&#xb2;" horiz-adv-x="747" 
d="M37 584h612l70 145l-334 -4l123 113q104 94 153.5 143.5t87 107.5t48.5 119q22 117 -48.5 191t-199.5 74q-103 0 -173.5 -42t-137.5 -139l131 -65q73 102 147 102q54 0 81.5 -35.5t18.5 -89.5q-3 -21 -12 -41.5t-29.5 -48t-36 -46t-54 -57.5t-59.5 -59.5t-75 -72.5z" />
    <glyph glyph-name="uni00B3" unicode="&#xb3;" horiz-adv-x="671" 
d="M78 885q-13 -80 4.5 -142t60 -99t99 -56t123.5 -19q144 0 254 77.5t133 205.5q26 153 -119 221q63 36 99.5 79.5t47.5 104.5q18 104 -52 164t-191 60q-55 0 -106 -13.5t-98 -42t-82 -79.5t-50 -119h170q12 54 50 84t89 30t76.5 -28.5t19.5 -69.5q-9 -51 -58.5 -84
t-115.5 -33h-33l-20 -127q5 0 23.5 1t23.5 1q94 0 129 -40t25 -101q-12 -65 -66 -108t-127 -43q-29 0 -55.5 8t-50 26.5t-33.5 55t0 86.5h-170z" />
    <glyph glyph-name="acute" unicode="&#xb4;" horiz-adv-x="501" 
d="M412 1591l-252 -329h172l321 264z" />
    <glyph glyph-name="uni00B5" unicode="&#xb5;" horiz-adv-x="1204" 
d="M213 -365h-242l246 1395h242l-103 -584q-23 -125 27.5 -190.5t138.5 -65.5q102 0 180.5 67t100.5 189l104 584h242l-182 -1030l-219 135q-53 -72 -124 -113.5t-145 -41.5q-67 0 -114.5 33.5t-67.5 97.5z" />
    <glyph glyph-name="paragraph" unicode="&#xb6;" horiz-adv-x="1300" 
d="M303 -219h184l265 1485h170l-263 -1485h185l264 1485h90l31 180h-572q-201 0 -329.5 -98.5t-159.5 -278.5q-14 -70 -2.5 -125.5t36 -96t67 -70t90 -47.5t106.5 -28z" />
    <glyph glyph-name="periodcentered" unicode="&#xb7;" horiz-adv-x="634" 
d="M379 895q-24 0 -49.5 -6.5t-54.5 -22t-51.5 -48.5t-30.5 -79q-12 -70 25.5 -114.5t105.5 -44.5q69 0 120.5 44t65.5 115q12 68 -26.5 112t-104.5 44z" />
    <glyph glyph-name="cedilla" unicode="&#xb8;" horiz-adv-x="626" 
d="M223 -143l111 143h-135l-166 -197l37 -34q47 18 80 18q37 0 55 -15t14 -44q-8 -42 -52 -63t-87 -21q-50 0 -111 24l-51 -92q85 -45 180 -45q43 0 86 10t85 30t72.5 57t39.5 85q12 74 -34 109t-114 35h-10z" />
    <glyph glyph-name="uni00B9" unicode="&#xb9;" horiz-adv-x="534" 
d="M190 586h181l155 872h-135q-38 -29 -188 -117l-29 -161q70 28 137 77z" />
    <glyph glyph-name="ordmasculine" unicode="&#xba;" horiz-adv-x="712" 
d="M154 1169q-25 -144 52.5 -226.5t203.5 -82.5q142 0 244 91.5t124 224.5q22 124 -51.5 214.5t-204.5 90.5q-134 0 -240 -91t-128 -221zM92 729l-20 -117h590l20 117h-590zM635 1169q-5 -26 -18 -54t-35.5 -58t-60.5 -49t-85 -19q-74 0 -112.5 53t-26.5 134q14 74 69.5 126
t131.5 52q73 0 112 -52.5t25 -132.5z" />
    <glyph glyph-name="guillemotright" unicode="&#xbb;" horiz-adv-x="1179" 
d="M358 528l-329 -364l176 -80l403 440l-248 447l-204 -76zM829 528l-327 -364l174 -80l405 440l-247 447l-205 -76z" />
    <glyph glyph-name="onequarter" unicode="&#xbc;" horiz-adv-x="1437" 
d="M877 287q49 62 145 176t115 139l4 2l-2 -12q-12 -55 -56 -305h-106h-98h-2zM653 150q148 0 406 4l-29 -152h176l25 152q54 -4 69 -4l50 139l-95 -2l105 592h-158l-530 -629zM190 -131l1233 1737h-213l-1228 -1737h208zM160 586h180l156 872h-136q-38 -29 -188 -117
l-29 -161q73 29 138 77z" />
    <glyph glyph-name="onehalf" unicode="&#xbd;" horiz-adv-x="1548" 
d="M109 -131l1232 1737h-213l-1228 -1737h209zM195 586h180l155 872h-135q-38 -29 -188 -117l-29 -161q70 28 137 77zM692 -2h613l69 145l-334 -4l123 113q103 93 153 143.5t87.5 108.5t48.5 119q22 117 -48.5 190.5t-199.5 73.5q-103 0 -173.5 -41.5t-137.5 -138.5l131 -66
q73 102 147 102q54 0 82 -35.5t19 -89.5q-3 -21 -12 -41.5t-29.5 -48t-36 -46t-54 -57.5t-59.5 -59.5t-75 -72.5z" />
    <glyph glyph-name="threequarters" unicode="&#xbe;" horiz-adv-x="1683" 
d="M70 885q-13 -80 4.5 -142t59.5 -99t98.5 -56t123.5 -19q144 0 254 77.5t133 205.5q27 153 -118 221q63 36 99.5 79.5t47.5 104.5q18 104 -52 164t-192 60q-75 0 -140 -22.5t-120.5 -82t-74.5 -149.5h169q12 54 50.5 84t89.5 30t76.5 -28.5t19.5 -69.5q-9 -51 -58.5 -84
t-115.5 -33h-33l-20 -127q5 0 23.5 1t23.5 1q94 0 128.5 -40t24.5 -101q-12 -65 -65.5 -108t-126.5 -43q-29 0 -55.5 8t-50 26.5t-33.5 55t0 86.5h-170zM348 -131l1233 1737h-213l-1229 -1737h209zM1030 287q49 62 145 176t115 139l4 2l-2 -12q-6 -30 -55 -305h-107h-98h-2z
M807 150q147 0 405 4l-28 -152h176l24 152q54 -4 70 -4l49 139l-94 -2l104 592h-157l-531 -629z" />
    <glyph glyph-name="questiondown" unicode="&#xbf;" horiz-adv-x="954" 
d="M764 4q-179 -182 -354 -182q-88 0 -133.5 49t-34.5 119q10 57 53 105.5t117 103.5q49 40 79 67t68.5 71.5t63 96.5t36.5 113l21 115h-231l-13 -66q-17 -88 -54.5 -141.5t-121.5 -118.5q-110 -80 -177 -165t-87 -200q-29 -166 67 -265t271 -99q115 0 216 41t173 116z
M578 797q66 0 116 39.5t62 107.5q10 67 -26 107.5t-101 40.5q-68 0 -120.5 -40.5t-64.5 -107.5q-10 -64 28.5 -105.5t105.5 -41.5z" />
    <glyph glyph-name="Agrave" unicode="&#xc0;" horiz-adv-x="1447" 
d="M369 354h641l84 -354h270l-373 1444h-221l-879 -1444h263zM487 561l342 590l134 -590h-476zM561 1864l230 -265h178l-146 330z" />
    <glyph glyph-name="Aacute" unicode="&#xc1;" horiz-adv-x="1447" 
d="M369 354h641l84 -354h270l-373 1444h-221l-879 -1444h263zM487 561l342 590l134 -590h-476zM1096 1929l-252 -330h172l321 265z" />
    <glyph glyph-name="Acircumflex" unicode="&#xc2;" horiz-adv-x="1447" 
d="M369 354h641l84 -354h270l-373 1444h-221l-879 -1444h263zM487 561l342 590l134 -590h-476zM1235 1610l-184 319h-168l-297 -319h180l172 153l119 -153h178z" />
    <glyph glyph-name="Atilde" unicode="&#xc3;" horiz-adv-x="1447" 
d="M369 354h641l84 -354h270l-373 1444h-221l-879 -1444h263zM487 561l342 590l134 -590h-476zM692 1571q48 94 121 94q36 0 111 -38t123 -38q142 0 258 240l-138 29q-27 -51 -50 -72t-54 -21q-30 0 -106.5 37t-129.5 37q-158 0 -274 -244z" />
    <glyph glyph-name="Adieresis" unicode="&#xc4;" horiz-adv-x="1447" 
d="M369 354h641l84 -354h270l-373 1444h-221l-879 -1444h263zM487 561l342 590l134 -590h-476zM756 1898q-32 0 -63.5 -10t-63 -43t-39.5 -84q-10 -62 23 -100.5t94 -38.5q60 0 107.5 38.5t59.5 100.5q10 60 -24 98.5t-94 38.5zM1167 1898q-22 0 -45 -6t-48.5 -20.5
t-44.5 -43t-25 -67.5q-12 -62 21 -100.5t95 -38.5q58 0 106 38.5t60 100.5q10 60 -24.5 98.5t-94.5 38.5z" />
    <glyph glyph-name="Aring" unicode="&#xc5;" horiz-adv-x="1447" 
d="M369 354h641l84 -354h270l-373 1444h-221l-879 -1444h263zM487 561l342 590l134 -590h-476zM870 1389q96 0 169.5 60t90.5 155q17 93 -37 157t-147 64q-92 0 -167.5 -63t-92.5 -156q-17 -91 38 -154t146 -63zM926 1700q36 0 61.5 -21t16.5 -73q-9 -40 -38.5 -66.5
t-72.5 -26.5q-41 0 -63 26t-15 69q6 38 38.5 65t72.5 27z" />
    <glyph glyph-name="AE" unicode="&#xc6;" horiz-adv-x="1951" 
d="M942 1440l-1051 -1440h263l268 354h469l-64 -354h1035l36 217h-782l72 410h702l37 207h-702l67 389h766l39 217h-1155zM928 561h-369l485 660z" />
    <glyph glyph-name="Ccedilla" unicode="&#xc7;" horiz-adv-x="1417" 
d="M1284 408q-135 -103 -250 -156t-248 -53q-146 0 -248 70t-142 188.5t-15 263.5q19 107 72 202.5t129.5 166t177.5 112t211 41.5q268 0 403 -184l47 264q-165 145 -413 145q-212 0 -402 -99t-317 -270.5t-164 -379.5q-28 -157 5 -296t114 -238t208 -156.5t281 -57.5
q141 0 262 44t242 128zM662 -143l110 143h-135l-166 -197l37 -34q46 18 80 18q37 0 55 -15t14 -44q-8 -42 -52 -63t-87 -21q-48 0 -110 24l-52 -92q85 -45 181 -45q43 0 86 10t85 30t72 57t39 85q12 75 -33.5 109.5t-113.5 34.5h-10z" />
    <glyph glyph-name="Egrave" unicode="&#xc8;" horiz-adv-x="1304" 
d="M340 217l72 410h700l37 207h-700l67 389h766l37 217h-1014l-254 -1440h1032l39 217h-782zM580 1864l229 -265h178l-145 330z" />
    <glyph glyph-name="Eacute" unicode="&#xc9;" horiz-adv-x="1304" 
d="M340 217l72 410h700l37 207h-700l67 389h766l37 217h-1014l-254 -1440h1032l39 217h-782zM971 1929l-252 -330h172l321 265z" />
    <glyph glyph-name="Ecircumflex" unicode="&#xca;" horiz-adv-x="1304" 
d="M340 217l72 410h700l37 207h-700l67 389h766l37 217h-1014l-254 -1440h1032l39 217h-782zM1174 1610l-185 319h-168l-297 -319h181l172 153l118 -153h179z" />
    <glyph glyph-name="Edieresis" unicode="&#xcb;" horiz-adv-x="1304" 
d="M340 217l72 410h700l37 207h-700l67 389h766l37 217h-1014l-254 -1440h1032l39 217h-782zM688 1898q-32 0 -63.5 -10t-63 -43t-39.5 -84q-10 -62 23 -100.5t94 -38.5q60 0 108 38.5t60 100.5q10 60 -24.5 98.5t-94.5 38.5zM1100 1898q-31 0 -62 -10t-62.5 -43t-39.5 -84
q-12 -62 21.5 -100.5t95.5 -38.5q58 0 106 38.5t60 100.5q10 60 -24.5 98.5t-94.5 38.5z" />
    <glyph glyph-name="Igrave" unicode="&#xcc;" horiz-adv-x="542" 
d="M301 0l254 1440h-250l-254 -1440h250zM131 1862l229 -265h179l-146 330z" />
    <glyph glyph-name="Iacute" unicode="&#xcd;" horiz-adv-x="542" 
d="M301 0l254 1440h-250l-254 -1440h250zM612 1929l-252 -330h172l322 265z" />
    <glyph glyph-name="Icircumflex" unicode="&#xce;" horiz-adv-x="542" 
d="M301 0l254 1440h-250l-254 -1440h250zM788 1610l-184 319h-168l-297 -319h180l173 153l118 -153h178z" />
    <glyph glyph-name="Idieresis" unicode="&#xcf;" horiz-adv-x="542" 
d="M301 0l254 1440h-250l-254 -1440h250zM305 1898q-32 0 -63.5 -10t-63 -43t-39.5 -84q-10 -62 23 -100.5t94 -38.5q60 0 108 38.5t60 100.5q10 60 -24.5 98.5t-94.5 38.5zM717 1898q-31 0 -62 -10t-62.5 -43t-39.5 -84q-12 -62 21.5 -100.5t95.5 -38.5q58 0 106 38.5
t60 100.5q10 60 -24.5 98.5t-94.5 38.5z" />
    <glyph glyph-name="Eth" unicode="&#xd0;" horiz-adv-x="1574" 
d="M367 1440l-254 -1440h481q178 0 335.5 54t275 150t196 229t106.5 290q38 212 -31.5 375.5t-231.5 252.5t-392 89h-485zM399 221l176 996h297q86 0 156.5 -27t116.5 -74.5t76 -111t34.5 -135.5t-6.5 -150q-40 -225 -205 -361.5t-413 -136.5h-232zM631 604l39 219h-594
l-39 -219h594z" />
    <glyph glyph-name="Ntilde" unicode="&#xd1;" horiz-adv-x="1548" 
d="M1130 397l-587 1037h-240l-252 -1434h246l184 1051l592 -1051h232l254 1440h-244zM739 1571q48 94 121 94q36 0 111 -38t123 -38q142 0 258 240l-138 29q-27 -51 -50 -72t-54 -21q-30 0 -106.5 37t-129.5 37q-158 0 -274 -244z" />
    <glyph glyph-name="Ograve" unicode="&#xd2;" horiz-adv-x="1701" 
d="M750 -29q183 0 341.5 61.5t269.5 166.5t182.5 239t94.5 283q25 153 -8 290t-113 238t-209.5 160t-289.5 59q-215 0 -407.5 -100.5t-320.5 -272t-165 -376.5q-37 -206 30.5 -377t224 -271t370.5 -100zM975 1245q101 0 179.5 -27.5t127.5 -76t79 -115.5t33 -145t-10 -164
q-26 -142 -110.5 -261t-212 -190t-270.5 -71q-145 0 -249 71t-146 191.5t-17 267.5q39 219 208 369.5t388 150.5zM713 1864l229 -265h178l-145 330z" />
    <glyph glyph-name="Oacute" unicode="&#xd3;" horiz-adv-x="1701" 
d="M750 -29q183 0 341.5 61.5t269.5 166.5t182.5 239t94.5 283q25 153 -8 290t-113 238t-209.5 160t-289.5 59q-215 0 -407.5 -100.5t-320.5 -272t-165 -376.5q-37 -206 30.5 -377t224 -271t370.5 -100zM975 1245q101 0 179.5 -27.5t127.5 -76t79 -115.5t33 -145t-10 -164
q-26 -142 -110.5 -261t-212 -190t-270.5 -71q-145 0 -249 71t-146 191.5t-17 267.5q39 219 208 369.5t388 150.5zM1282 1929l-252 -330h172l322 265z" />
    <glyph glyph-name="Ocircumflex" unicode="&#xd4;" horiz-adv-x="1701" 
d="M750 -29q183 0 341.5 61.5t269.5 166.5t182.5 239t94.5 283q25 153 -8 290t-113 238t-209.5 160t-289.5 59q-215 0 -407.5 -100.5t-320.5 -272t-165 -376.5q-37 -206 30.5 -377t224 -271t370.5 -100zM975 1245q101 0 179.5 -27.5t127.5 -76t79 -115.5t33 -145t-10 -164
q-26 -142 -110.5 -261t-212 -190t-270.5 -71q-145 0 -249 71t-146 191.5t-17 267.5q39 219 208 369.5t388 150.5zM1454 1610l-184 319h-168l-297 -319h180l172 153l119 -153h178z" />
    <glyph glyph-name="Otilde" unicode="&#xd5;" horiz-adv-x="1701" 
d="M750 -29q183 0 341.5 61.5t269.5 166.5t182.5 239t94.5 283q25 153 -8 290t-113 238t-209.5 160t-289.5 59q-215 0 -407.5 -100.5t-320.5 -272t-165 -376.5q-37 -206 30.5 -377t224 -271t370.5 -100zM975 1245q101 0 179.5 -27.5t127.5 -76t79 -115.5t33 -145t-10 -164
q-26 -142 -110.5 -261t-212 -190t-270.5 -71q-145 0 -249 71t-146 191.5t-17 267.5q39 219 208 369.5t388 150.5zM905 1571q48 94 121 94q36 0 111 -38t123 -38q142 0 258 240l-138 29q-27 -51 -50 -72t-54 -21q-30 0 -106.5 37t-129.5 37q-158 0 -274 -244z" />
    <glyph glyph-name="Odieresis" unicode="&#xd6;" horiz-adv-x="1701" 
d="M750 -29q183 0 341.5 61.5t269.5 166.5t182.5 239t94.5 283q25 153 -8 290t-113 238t-209.5 160t-289.5 59q-215 0 -407.5 -100.5t-320.5 -272t-165 -376.5q-37 -206 30.5 -377t224 -271t370.5 -100zM975 1245q101 0 179.5 -27.5t127.5 -76t79 -115.5t33 -145t-10 -164
q-26 -142 -110.5 -261t-212 -190t-270.5 -71q-145 0 -249 71t-146 191.5t-17 267.5q39 219 208 369.5t388 150.5zM971 1898q-32 0 -63.5 -10t-63 -43t-39.5 -84q-10 -62 23 -100.5t94 -38.5q60 0 108 38.5t60 100.5q10 60 -24.5 98.5t-94.5 38.5zM1382 1898q-22 0 -45 -6
t-48.5 -20.5t-44.5 -43t-25 -67.5q-12 -62 21 -100.5t95 -38.5q58 0 106 38.5t60 100.5q10 60 -24.5 98.5t-94.5 38.5z" />
    <glyph glyph-name="multiply" unicode="&#xd7;" horiz-adv-x="1347" 
d="M567 719l-422 -357l117 -141l418 359l293 -359l164 141l-291 357l416 352l-115 141l-418 -358l-291 358l-164 -141z" />
    <glyph glyph-name="Oslash" unicode="&#xd8;" horiz-adv-x="1695" 
d="M92 8l113 -102l178 186q143 -121 365 -121q160 0 311.5 59.5t268.5 161t198 240.5t108 293q29 155 -5 290.5t-126 235.5l162 170l-115 103l-170 -178q-150 122 -366 122q-215 0 -407.5 -100.5t-320 -272t-163.5 -376.5q-29 -160 5.5 -296.5t127.5 -238.5zM428 385
q-85 142 -51 332q18 105 71 201t129 167t175 114t204 44q148 3 256 -88zM1329 1049q85 -143 51 -332q-24 -137 -103 -252t-200.5 -187t-261.5 -79q-150 -3 -264 86z" />
    <glyph glyph-name="Ugrave" unicode="&#xd9;" horiz-adv-x="1474" 
d="M141 598q-26 -136 -11.5 -240t55 -178t110 -121t154 -68.5t186.5 -21.5q315 0 487 160t228 475l147 838h-248l-147 -844q-36 -200 -145.5 -300.5t-280.5 -100.5q-182 0 -251 101t-34 308l148 836h-248zM627 1864l229 -265h178l-145 330z" />
    <glyph glyph-name="Uacute" unicode="&#xda;" horiz-adv-x="1474" 
d="M141 598q-26 -136 -11.5 -240t55 -178t110 -121t154 -68.5t186.5 -21.5q315 0 487 160t228 475l147 838h-248l-147 -844q-36 -200 -145.5 -300.5t-280.5 -100.5q-182 0 -251 101t-34 308l148 836h-248zM1061 1929l-252 -330h172l322 265z" />
    <glyph glyph-name="Ucircumflex" unicode="&#xdb;" horiz-adv-x="1474" 
d="M141 598q-26 -136 -11.5 -240t55 -178t110 -121t154 -68.5t186.5 -21.5q315 0 487 160t228 475l147 838h-248l-147 -844q-36 -200 -145.5 -300.5t-280.5 -100.5q-182 0 -251 101t-34 308l148 836h-248zM1257 1610l-184 319h-168l-297 -319h180l173 153l118 -153h178z" />
    <glyph glyph-name="Udieresis" unicode="&#xdc;" horiz-adv-x="1474" 
d="M141 598q-26 -136 -11.5 -240t55 -178t110 -121t154 -68.5t186.5 -21.5q315 0 487 160t228 475l147 838h-248l-147 -844q-36 -200 -145.5 -300.5t-280.5 -100.5q-182 0 -251 101t-34 308l148 836h-248zM764 1898q-32 0 -63.5 -10t-63 -43t-39.5 -84q-10 -62 23 -100.5
t94 -38.5q60 0 108 38.5t60 100.5q10 60 -24.5 98.5t-94.5 38.5zM1176 1898q-31 0 -62 -10t-62.5 -43t-39.5 -84q-12 -62 21 -100.5t95 -38.5q58 0 106 38.5t60 100.5q10 60 -24 98.5t-94 38.5z" />
    <glyph glyph-name="Yacute" unicode="&#xdd;" horiz-adv-x="1333" 
d="M696 0l99 563l704 877h-276l-506 -647l-281 647h-286l397 -879l-101 -561h250zM989 1929l-252 -330h172l322 265z" />
    <glyph glyph-name="Thorn" unicode="&#xde;" horiz-adv-x="1067" 
d="M305 1446l-254 -1446h240l59 336h146q217 0 367.5 106.5t187.5 319.5q12 82 6 146.5t-34.5 113t-69 82t-98.5 54.5t-121 30.5t-138 9.5h-94l43 248h-240zM385 535l82 456h57q28 0 49.5 -0.5t47 -2.5t45.5 -6t41 -10t36.5 -15t30.5 -21.5t23.5 -29t14 -37t5.5 -46.5
t-6 -57q-22 -129 -109.5 -180t-226.5 -51h-90z" />
    <glyph glyph-name="germandbls" unicode="&#xdf;" horiz-adv-x="1112" 
d="M344 1038q23 122 101 203.5t196 81.5q97 0 147 -55.5t33 -153.5q-10 -52 -36.5 -94t-69.5 -73.5t-87 -53.5t-106 -45l-26 -154q78 -11 133 -28.5t95.5 -47.5t55.5 -76.5t4 -109.5q-24 -128 -129.5 -192t-267.5 -64l-33 -182q118 -4 228 20.5t202.5 75t155.5 135.5t82 193
q26 146 -51.5 246.5t-210.5 128.5q120 50 200.5 138t102.5 212q29 170 -76 280.5t-303 110.5q-122 0 -224 -38.5t-172.5 -107t-116.5 -158t-65 -194.5l-182 -1036h238z" />
    <glyph glyph-name="agrave" unicode="&#xe0;" horiz-adv-x="1165" 
d="M748 262q-122 -112 -277 -112q-101 0 -160 48.5t-43 137.5q11 61 56.5 105t104.5 63.5t124 19.5q129 0 229 -61zM1051 633q34 201 -78.5 307.5t-333.5 106.5q-196 0 -422 -86l-35 -199q179 90 383 90q138 0 204 -49t48 -154l-6 -33q-107 62 -287 62q-69 0 -132 -11
t-124 -36t-108 -63t-81.5 -96t-47.5 -130q-20 -113 24 -198t126.5 -126t185.5 -41q192 0 350 127l221 -112zM397 1526l230 -264h178l-146 329z" />
    <glyph glyph-name="aacute" unicode="&#xe1;" horiz-adv-x="1165" 
d="M748 262q-122 -112 -277 -112q-101 0 -160 48.5t-43 137.5q11 61 56.5 105t104.5 63.5t124 19.5q129 0 229 -61zM1051 633q34 201 -78.5 307.5t-333.5 106.5q-196 0 -422 -86l-35 -199q179 90 383 90q138 0 204 -49t48 -154l-6 -33q-107 62 -287 62q-69 0 -132 -11
t-124 -36t-108 -63t-81.5 -96t-47.5 -130q-20 -113 24 -198t126.5 -126t185.5 -41q192 0 350 127l221 -112zM874 1591l-251 -329h172l321 264z" />
    <glyph glyph-name="acircumflex" unicode="&#xe2;" horiz-adv-x="1165" 
d="M748 262q-122 -112 -277 -112q-101 0 -160 48.5t-43 137.5q11 61 56.5 105t104.5 63.5t124 19.5q129 0 229 -61zM1051 633q34 201 -78.5 307.5t-333.5 106.5q-196 0 -422 -86l-35 -199q179 90 383 90q138 0 204 -49t48 -154l-6 -33q-107 62 -287 62q-69 0 -132 -11
t-124 -36t-108 -63t-81.5 -96t-47.5 -130q-20 -113 24 -198t126.5 -126t185.5 -41q192 0 350 127l221 -112zM1016 1272l-185 319h-167l-297 -319h180l172 153l119 -153h178z" />
    <glyph glyph-name="atilde" unicode="&#xe3;" horiz-adv-x="1165" 
d="M748 262q-122 -112 -277 -112q-101 0 -160 48.5t-43 137.5q11 61 56.5 105t104.5 63.5t124 19.5q129 0 229 -61zM1051 633q34 201 -78.5 307.5t-333.5 106.5q-196 0 -422 -86l-35 -199q179 90 383 90q138 0 204 -49t48 -154l-6 -33q-107 62 -287 62q-69 0 -132 -11
t-124 -36t-108 -63t-81.5 -96t-47.5 -130q-20 -113 24 -198t126.5 -126t185.5 -41q192 0 350 127l221 -112zM500 1233q46 94 118 94q36 0 111 -38t123 -38q142 0 258 240l-137 29q-27 -51 -49.5 -72t-53.5 -21q-32 0 -108 37t-129 37q-160 0 -273 -244z" />
    <glyph glyph-name="adieresis" unicode="&#xe4;" horiz-adv-x="1165" 
d="M748 262q-122 -112 -277 -112q-101 0 -160 48.5t-43 137.5q11 61 56.5 105t104.5 63.5t124 19.5q129 0 229 -61zM1051 633q34 201 -78.5 307.5t-333.5 106.5q-196 0 -422 -86l-35 -199q179 90 383 90q138 0 204 -49t48 -154l-6 -33q-107 62 -287 62q-69 0 -132 -11
t-124 -36t-108 -63t-81.5 -96t-47.5 -130q-20 -113 24 -198t126.5 -126t185.5 -41q192 0 350 127l221 -112zM571 1546q-53 0 -98.5 -33.5t-56.5 -97.5q-9 -59 20.5 -95t87.5 -36q57 0 103.5 37t56.5 94q9 57 -22 94t-91 37zM973 1546q-53 0 -98.5 -33.5t-55.5 -97.5
q-10 -58 20 -94.5t89 -36.5q55 0 101 37t56 94q9 58 -22 94.5t-90 36.5z" />
    <glyph glyph-name="aring" unicode="&#xe5;" horiz-adv-x="1165" 
d="M748 262q-122 -112 -277 -112q-101 0 -160 48.5t-43 137.5q11 61 56.5 105t104.5 63.5t124 19.5q129 0 229 -61zM1051 633q34 201 -78.5 307.5t-333.5 106.5q-196 0 -422 -86l-35 -199q179 90 383 90q138 0 204 -49t48 -154l-6 -33q-107 62 -287 62q-69 0 -132 -11
t-124 -36t-108 -63t-81.5 -96t-47.5 -130q-20 -113 24 -198t126.5 -126t185.5 -41q192 0 350 127l221 -112zM707 1204q101 0 173 59.5t89 155.5q17 93 -37.5 157t-147.5 64t-168 -63t-92 -156q-17 -91 38.5 -154t144.5 -63zM764 1516q36 0 61 -22t17 -73q-6 -39 -37 -65.5
t-74 -26.5q-41 0 -63 25.5t-15 68.5q6 38 38.5 65.5t72.5 27.5z" />
    <glyph glyph-name="ae" unicode="&#xe6;" horiz-adv-x="1878" 
d="M1675 311q-95 -81 -188 -115t-209 -34q-204 0 -256 178l788 188q10 107 -10 200.5t-68.5 166t-133.5 114.5t-197 42q-224 0 -393 -166q-101 162 -365 162q-97 0 -213.5 -22.5t-220.5 -63.5l-35 -199q181 90 383 90q138 0 205 -49t47 -154l-6 -33q-104 62 -287 62
q-84 0 -159.5 -17t-143.5 -54t-117 -102.5t-69 -154.5q-19 -86 3.5 -157.5t75.5 -118t127.5 -72t159.5 -25.5q270 0 479 166q58 -87 156.5 -129.5t220.5 -40.5q210 0 387 117zM739 262q-118 -112 -276 -112q-100 0 -159.5 48.5t-43.5 137.5q16 91 99.5 139.5t187.5 48.5
q125 0 229 -61zM1032 522q23 137 113 236.5t219 99.5q100 0 159 -57t68 -152z" />
    <glyph glyph-name="ccedilla" unicode="&#xe7;" horiz-adv-x="964" 
d="M944 983q-87 66 -250 66q-117 0 -226 -43t-191.5 -116t-139.5 -171.5t-76 -206.5q-26 -148 21.5 -270.5t156.5 -193.5t257 -71q150 0 295 74l43 246q-134 -115 -277 -115q-132 0 -205.5 99.5t-48.5 238.5q25 140 128.5 233t236.5 93q144 0 233 -115zM420 -143l110 143
h-135l-166 -197l37 -34q47 18 80 18q37 0 55.5 -15t14.5 -44q-8 -42 -52.5 -63t-87.5 -21q-48 0 -110 24l-51 -92q85 -45 180 -45q43 0 86 10t85 30t72.5 57t39.5 85q12 74 -34 109t-114 35h-10z" />
    <glyph glyph-name="egrave" unicode="&#xe8;" horiz-adv-x="1144" 
d="M940 311q-90 -76 -197 -112.5t-200 -36.5q-204 0 -256 178l788 188q10 107 -10 200.5t-68.5 166t-133.5 114.5t-197 42q-148 0 -277 -71t-215 -194.5t-113 -275.5q-41 -233 84 -385t357 -152q104 0 209 30.5t190 86.5zM297 526q20 133 110.5 232.5t219.5 99.5
q100 0 159.5 -57t67.5 -152l-555 -137zM305 1526l230 -264h178l-146 329z" />
    <glyph glyph-name="eacute" unicode="&#xe9;" horiz-adv-x="1144" 
d="M940 311q-90 -76 -197 -112.5t-200 -36.5q-204 0 -256 178l788 188q10 107 -10 200.5t-68.5 166t-133.5 114.5t-197 42q-148 0 -277 -71t-215 -194.5t-113 -275.5q-41 -233 84 -385t357 -152q104 0 209 30.5t190 86.5zM297 526q20 133 110.5 232.5t219.5 99.5
q100 0 159.5 -57t67.5 -152l-555 -137zM870 1591l-252 -329h173l321 264z" />
    <glyph glyph-name="ecircumflex" unicode="&#xea;" horiz-adv-x="1144" 
d="M940 311q-90 -76 -197 -112.5t-200 -36.5q-204 0 -256 178l788 188q10 107 -10 200.5t-68.5 166t-133.5 114.5t-197 42q-148 0 -277 -71t-215 -194.5t-113 -275.5q-41 -233 84 -385t357 -152q104 0 209 30.5t190 86.5zM297 526q20 133 110.5 232.5t219.5 99.5
q100 0 159.5 -57t67.5 -152l-555 -137zM1051 1272l-185 319h-168l-297 -319h181l172 153l118 -153h179z" />
    <glyph glyph-name="edieresis" unicode="&#xeb;" horiz-adv-x="1144" 
d="M940 311q-90 -76 -197 -112.5t-200 -36.5q-204 0 -256 178l788 188q10 107 -10 200.5t-68.5 166t-133.5 114.5t-197 42q-148 0 -277 -71t-215 -194.5t-113 -275.5q-41 -233 84 -385t357 -152q104 0 209 30.5t190 86.5zM297 526q20 133 110.5 232.5t219.5 99.5
q100 0 159.5 -57t67.5 -152l-555 -137zM555 1546q-53 0 -99 -33.5t-57 -97.5q-9 -59 21 -95t88 -36q57 0 103.5 37t56.5 94q9 57 -22 94t-91 37zM956 1546q-53 0 -98 -33.5t-55 -97.5q-10 -58 19.5 -94.5t88.5 -36.5q55 0 101.5 37t56.5 94q9 57 -22 94t-91 37z" />
    <glyph glyph-name="igrave" unicode="&#xec;" horiz-adv-x="485" 
d="M260 0l182 1028h-241l-183 -1028h242zM55 1526l230 -264h178l-146 329z" />
    <glyph glyph-name="iacute" unicode="&#xed;" horiz-adv-x="497" 
d="M227 0l183 1028h-242l-182 -1028h241zM481 1591l-252 -329h172l322 264z" />
    <glyph glyph-name="icircumflex" unicode="&#xee;" horiz-adv-x="497" 
d="M270 0l183 1028h-242l-182 -1028h241zM698 1272l-184 319h-168l-297 -319h180l172 153l119 -153h178z" />
    <glyph glyph-name="idieresis" unicode="&#xef;" horiz-adv-x="524" 
d="M283 0l182 1028h-242l-182 -1028h242zM242 1546q-53 0 -99 -33.5t-57 -97.5q-9 -59 21 -95t88 -36q57 0 103 37t56 94q9 58 -22 94.5t-90 36.5zM643 1546q-53 0 -98.5 -33.5t-55.5 -97.5q-10 -58 20 -94.5t89 -36.5q55 0 101.5 37t56.5 94q9 57 -22 94t-91 37z" />
    <glyph glyph-name="eth" unicode="&#xf0;" horiz-adv-x="1136" 
d="M358 1487q115 -82 191 -162l-268 -154l73 -92l277 158q167 -189 215 -385q-21 19 -33.5 28t-43.5 27.5t-71.5 27.5t-89.5 9q-131 0 -250.5 -64.5t-200.5 -175t-104 -241.5q-25 -141 25.5 -253.5t154 -172.5t236.5 -60q70 0 141.5 18.5t145 60t134 102t107 152t66.5 202.5
q78 449 -250 825l272 158l-73 90l-281 -160q-57 57 -98.5 91.5t-112.5 82.5zM457 242q-69 20 -103 67.5t-32 106t32 119.5q46 92 130.5 135t170.5 18q45 -13 76 -44t42.5 -71.5t8 -86.5t-23.5 -89q-43 -93 -127 -137t-174 -18z" />
    <glyph glyph-name="ntilde" unicode="&#xf1;" horiz-adv-x="1173" 
d="M1077 655q30 174 -46 285t-247 111q-197 0 -354 -160l-219 137l-182 -1028h241l105 582q12 68 42.5 119.5t71.5 80t82.5 42.5t83.5 14q88 0 139.5 -62.5t28.5 -193.5l-102 -582h242zM522 1233q46 94 119 94q36 0 110.5 -38t122.5 -38q143 0 259 240l-138 29
q-27 -52 -49 -72.5t-53 -20.5t-108 37t-130 37q-159 0 -272 -244z" />
    <glyph glyph-name="ograve" unicode="&#xf2;" horiz-adv-x="1249" 
d="M520 -23q134 0 249.5 42t197.5 115t136 170.5t73 211.5q25 147 -24.5 270t-165 195t-273.5 72q-118 0 -229.5 -42.5t-197.5 -115.5t-145.5 -172.5t-79.5 -210.5q-26 -147 23.5 -269.5t164.5 -194t271 -71.5zM674 848q157 0 223.5 -94t38.5 -240q-27 -137 -134.5 -234.5
t-242.5 -97.5t-208.5 96.5t-47.5 237.5q24 141 127.5 236.5t243.5 95.5zM412 1526l229 -264h178l-145 329z" />
    <glyph glyph-name="oacute" unicode="&#xf3;" horiz-adv-x="1249" 
d="M520 -23q134 0 249.5 42t197.5 115t136 170.5t73 211.5q25 147 -24.5 270t-165 195t-273.5 72q-118 0 -229.5 -42.5t-197.5 -115.5t-145.5 -172.5t-79.5 -210.5q-26 -147 23.5 -269.5t164.5 -194t271 -71.5zM674 848q157 0 223.5 -94t38.5 -240q-27 -137 -134.5 -234.5
t-242.5 -97.5t-208.5 96.5t-47.5 237.5q24 141 127.5 236.5t243.5 95.5zM940 1591l-252 -329h172l322 264z" />
    <glyph glyph-name="ocircumflex" unicode="&#xf4;" horiz-adv-x="1249" 
d="M520 -23q134 0 249.5 42t197.5 115t136 170.5t73 211.5q25 147 -24.5 270t-165 195t-273.5 72q-118 0 -229.5 -42.5t-197.5 -115.5t-145.5 -172.5t-79.5 -210.5q-26 -147 23.5 -269.5t164.5 -194t271 -71.5zM674 848q157 0 223.5 -94t38.5 -240q-27 -137 -134.5 -234.5
t-242.5 -97.5t-208.5 96.5t-47.5 237.5q24 141 127.5 236.5t243.5 95.5zM1094 1272l-185 319h-168l-297 -319h181l172 153l118 -153h179z" />
    <glyph glyph-name="otilde" unicode="&#xf5;" horiz-adv-x="1249" 
d="M520 -23q134 0 249.5 42t197.5 115t136 170.5t73 211.5q25 147 -24.5 270t-165 195t-273.5 72q-118 0 -229.5 -42.5t-197.5 -115.5t-145.5 -172.5t-79.5 -210.5q-26 -147 23.5 -269.5t164.5 -194t271 -71.5zM674 848q157 0 223.5 -94t38.5 -240q-27 -137 -134.5 -234.5
t-242.5 -97.5t-208.5 96.5t-47.5 237.5q24 141 127.5 236.5t243.5 95.5zM567 1233q46 94 119 94q36 0 111 -38t123 -38q142 0 258 240l-138 29q-27 -52 -49 -72.5t-53 -20.5q-32 0 -109 37t-129 37q-159 0 -272 -244z" />
    <glyph glyph-name="odieresis" unicode="&#xf6;" horiz-adv-x="1249" 
d="M520 -23q134 0 249.5 42t197.5 115t136 170.5t73 211.5q25 147 -24.5 270t-165 195t-273.5 72q-118 0 -229.5 -42.5t-197.5 -115.5t-145.5 -172.5t-79.5 -210.5q-26 -147 23.5 -269.5t164.5 -194t271 -71.5zM674 848q157 0 223.5 -94t38.5 -240q-27 -137 -134.5 -234.5
t-242.5 -97.5t-208.5 96.5t-47.5 237.5q24 141 127.5 236.5t243.5 95.5zM680 1546q-53 0 -99 -33.5t-57 -97.5q-9 -59 21 -95t88 -36q57 0 103.5 37t56.5 94q9 57 -22 94t-91 37zM1081 1546q-53 0 -98 -33.5t-55 -97.5q-10 -58 19.5 -94.5t88.5 -36.5q55 0 101.5 37t56.5 94
q9 57 -22 94t-91 37z" />
    <glyph glyph-name="divide" unicode="&#xf7;" horiz-adv-x="1292" 
d="M1190 643l29 160h-1053l-29 -160h1053zM711 920q61 0 101.5 34.5t51.5 94.5q11 54 -19.5 89.5t-88.5 35.5t-100.5 -35.5t-51.5 -89.5t21 -91.5t86 -37.5zM598 274q62 0 102 33.5t52 93.5q11 56 -20 91.5t-89 35.5t-100.5 -35.5t-53.5 -91.5q-8 -53 22 -90t87 -37z" />
    <glyph glyph-name="oslash" unicode="&#xf8;" horiz-adv-x="1220" 
d="M913 688q33 -84 17 -180q-27 -146 -132.5 -243t-248.5 -97q-96 0 -164 53zM311 322q-38 72 -14 186q25 143 128.5 239.5t246.5 96.5q105 0 164 -56zM-51 4l86 -100l184 168q115 -97 297 -97q238 0 421.5 153t223.5 380q35 192 -63 344l143 135l-84 96l-153 -139
q-105 94 -299 94q-236 0 -417.5 -153t-221.5 -377q-36 -195 63 -348z" />
    <glyph glyph-name="ugrave" unicode="&#xf9;" horiz-adv-x="1161" 
d="M90 389q-9 -50 -9 -96.5t8 -93.5t30 -86t55 -69t85.5 -47t119.5 -17q206 0 350 147l221 -135l183 1038h-242l-103 -584q-13 -67 -42.5 -118t-69 -79.5t-81.5 -42t-85 -13.5q-214 0 -170 253l102 584h-241zM397 1526l230 -264h178l-146 329z" />
    <glyph glyph-name="uacute" unicode="&#xfa;" horiz-adv-x="1161" 
d="M90 389q-9 -50 -9 -96.5t8 -93.5t30 -86t55 -69t85.5 -47t119.5 -17q206 0 350 147l221 -135l183 1038h-242l-103 -584q-13 -67 -42.5 -118t-69 -79.5t-81.5 -42t-85 -13.5q-214 0 -170 253l102 584h-241zM874 1591l-251 -329h172l321 264z" />
    <glyph glyph-name="ucircumflex" unicode="&#xfb;" horiz-adv-x="1161" 
d="M90 389q-9 -50 -9 -96.5t8 -93.5t30 -86t55 -69t85.5 -47t119.5 -17q206 0 350 147l221 -135l183 1038h-242l-103 -584q-13 -67 -42.5 -118t-69 -79.5t-81.5 -42t-85 -13.5q-214 0 -170 253l102 584h-241zM1038 1272l-184 319h-168l-297 -319h180l172 153l119 -153h178z
" />
    <glyph glyph-name="udieresis" unicode="&#xfc;" horiz-adv-x="1161" 
d="M90 389q-9 -50 -9 -96.5t8 -93.5t30 -86t55 -69t85.5 -47t119.5 -17q206 0 350 147l221 -135l183 1038h-242l-103 -584q-13 -67 -42.5 -118t-69 -79.5t-81.5 -42t-85 -13.5q-214 0 -170 253l102 584h-241zM561 1546q-53 0 -98.5 -33.5t-56.5 -97.5q-9 -59 20.5 -95
t87.5 -36q57 0 103.5 37t56.5 94q9 57 -22 94t-91 37zM963 1546q-53 0 -98.5 -33.5t-55.5 -97.5q-10 -58 20 -94.5t89 -36.5q55 0 101 37t56 94q9 58 -22 94.5t-90 36.5z" />
    <glyph glyph-name="yacute" unicode="&#xfd;" horiz-adv-x="1062" 
d="M74 1026l270 -1030l-197 -361h215l793 1391h-252l-407 -760l-164 760h-258zM829 1591l-251 -329h172l321 264z" />
    <glyph glyph-name="thorn" unicode="&#xfe;" horiz-adv-x="1157" 
d="M332 471q21 115 106 200t197 85q117 0 174.5 -83.5t36.5 -201.5q-27 -154 -109 -228t-202 -69q-115 0 -169.5 88t-33.5 209zM311 1585l-366 -2074h229l82 460l23 152h6q35 -65 100 -102.5t147 -40.5q38 -5 91 2q116 15 214 86.5t158 175t80 221.5q33 180 -43 319
t-239 162q-29 6 -91 2q-172 -14 -301 -147h-4q10 58 35 186q5 31 16.5 90.5t16.5 85.5l74 422h-228z" />
    <glyph glyph-name="ydieresis" unicode="&#xff;" horiz-adv-x="1062" 
d="M74 1026l270 -1030l-197 -361h215l793 1391h-252l-407 -760l-164 760h-258zM520 1546q-53 0 -98.5 -33.5t-56.5 -97.5q-9 -59 20.5 -95t87.5 -36q57 0 103.5 37t56.5 94q9 57 -22 94t-91 37zM922 1546q-53 0 -98.5 -33.5t-55.5 -97.5q-10 -58 20 -94.5t89 -36.5
q55 0 101 37t56 94q9 58 -22 94.5t-90 36.5z" />
    <glyph glyph-name="Amacron" unicode="&#x100;" horiz-adv-x="1447" 
d="M369 354h641l84 -354h270l-373 1444h-221l-879 -1444h263zM487 561l342 590l134 -590h-476zM1235 1569l29 157h-666l-29 -157h666z" />
    <glyph glyph-name="amacron" unicode="&#x101;" horiz-adv-x="1165" 
d="M748 262q-122 -112 -277 -112q-101 0 -160 48.5t-43 137.5q11 61 56.5 105t104.5 63.5t124 19.5q129 0 229 -61zM1051 633q34 201 -78.5 307.5t-333.5 106.5q-196 0 -422 -86l-35 -199q179 90 383 90q138 0 204 -49t48 -154l-6 -33q-107 62 -287 62q-69 0 -132 -11
t-124 -36t-108 -63t-81.5 -96t-47.5 -130q-20 -113 24 -198t126.5 -126t185.5 -41q192 0 350 127l221 -112zM1020 1231l29 158h-666l-29 -158h666z" />
    <glyph glyph-name="Abreve" unicode="&#x102;" horiz-adv-x="1447" 
d="M369 354h641l84 -354h270l-373 1444h-221l-879 -1444h263zM487 561l342 590l134 -590h-476zM1130 1868q-31 -70 -82 -108t-116 -38q-66 0 -106 38t-46 108h-145q-9 -142 62 -230t200 -88q132 0 237 88.5t140 229.5h-144z" />
    <glyph glyph-name="abreve" unicode="&#x103;" horiz-adv-x="1165" 
d="M748 262q-122 -112 -277 -112q-101 0 -160 48.5t-43 137.5q11 61 56.5 105t104.5 63.5t124 19.5q129 0 229 -61zM1051 633q34 201 -78.5 307.5t-333.5 106.5q-196 0 -422 -86l-35 -199q179 90 383 90q138 0 204 -49t48 -154l-6 -33q-107 62 -287 62q-69 0 -132 -11
t-124 -36t-108 -63t-81.5 -96t-47.5 -130q-20 -113 24 -198t126.5 -126t185.5 -41q192 0 350 127l221 -112zM952 1530q-31 -70 -82 -108t-116 -38q-66 0 -106 38t-46 108h-145q-9 -142 62 -230t200 -88q132 0 237 88.5t140 229.5h-144z" />
    <glyph glyph-name="Aogonek" unicode="&#x104;" horiz-adv-x="1447" 
d="M369 354h641l84 -354h270l-373 1444h-221l-879 -1444h263zM487 561l342 590l134 -590h-476zM1311 -270q-68 -23 -103 -23q-44 0 -67 26t-17 66q7 38 37 79.5t101 121.5h-168q-44 -47 -66.5 -72t-50 -70.5t-33.5 -86.5q-17 -93 41 -148t162 -55q81 0 172 39z" />
    <glyph glyph-name="aogonek" unicode="&#x105;" horiz-adv-x="1165" 
d="M748 262q-122 -112 -277 -112q-101 0 -160 48.5t-43 137.5q11 61 56.5 105t104.5 63.5t124 19.5q129 0 229 -61zM1051 633q34 201 -78.5 307.5t-333.5 106.5q-196 0 -422 -86l-35 -199q179 90 383 90q138 0 204 -49t48 -154l-6 -33q-107 62 -287 62q-69 0 -132 -11
t-124 -36t-108 -63t-81.5 -96t-47.5 -130q-20 -113 24 -198t126.5 -126t185.5 -41q192 0 350 127l221 -112zM989 -270q-68 -23 -102 -23q-46 0 -67 27.5t-15 70.5q11 63 135 187l-106 71q-100 -91 -149.5 -157.5t-61.5 -130.5q-17 -93 41 -150t161 -57q81 0 172 39z" />
    <glyph glyph-name="Cacute" unicode="&#x106;" horiz-adv-x="1417" 
d="M1284 408q-135 -103 -250 -156t-248 -53q-146 0 -248 70t-142 188.5t-15 263.5q19 107 72 202.5t129.5 166t177.5 112t211 41.5q268 0 403 -184l47 264q-165 145 -413 145q-212 0 -402 -99t-317 -270.5t-164 -379.5q-28 -157 5 -296t114 -238t208 -156.5t281 -57.5
q141 0 262 44t242 128zM1198 1929l-252 -330h172l322 265z" />
    <glyph glyph-name="cacute" unicode="&#x107;" horiz-adv-x="995" 
d="M944 983q-87 66 -250 66q-117 0 -226 -43t-191.5 -116t-139.5 -171.5t-76 -206.5q-26 -148 21.5 -270.5t156.5 -193.5t257 -71q150 0 295 74l43 246q-134 -115 -277 -115q-132 0 -205.5 99.5t-48.5 238.5q25 140 128.5 233t236.5 93q144 0 233 -115zM854 1591l-252 -329
h172l322 264z" />
    <glyph glyph-name="Ccircumflex" unicode="&#x108;" horiz-adv-x="1417" 
d="M1284 408q-135 -103 -250 -156t-248 -53q-146 0 -248 70t-142 188.5t-15 263.5q19 107 72 202.5t129.5 166t177.5 112t211 41.5q268 0 403 -184l47 264q-165 145 -413 145q-212 0 -402 -99t-317 -270.5t-164 -379.5q-28 -157 5 -296t114 -238t208 -156.5t281 -57.5
q141 0 262 44t242 128zM1362 1610l-184 319h-168l-297 -319h180l172 153l119 -153h178z" />
    <glyph glyph-name="ccircumflex" unicode="&#x109;" horiz-adv-x="964" 
d="M944 983q-87 66 -250 66q-117 0 -226 -43t-191.5 -116t-139.5 -171.5t-76 -206.5q-26 -148 21.5 -270.5t156.5 -193.5t257 -71q150 0 295 74l43 246q-134 -115 -277 -115q-132 0 -205.5 99.5t-48.5 238.5q25 140 128.5 233t236.5 93q144 0 233 -115zM1022 1272l-184 319
h-168l-297 -319h180l172 153l119 -153h178z" />
    <glyph glyph-name="Cdotaccent" unicode="&#x10a;" horiz-adv-x="1417" 
d="M1284 408q-135 -103 -250 -156t-248 -53q-146 0 -248 70t-142 188.5t-15 263.5q19 107 72 202.5t129.5 166t177.5 112t211 41.5q268 0 403 -184l47 264q-165 145 -413 145q-212 0 -402 -99t-317 -270.5t-164 -379.5q-28 -157 5 -296t114 -238t208 -156.5t281 -57.5
q141 0 262 44t242 128zM1057 1876q-35 0 -69 -10t-68.5 -45t-42.5 -92q-12 -64 25.5 -106t101.5 -42q68 0 120 42t62 106q12 68 -24.5 107.5t-104.5 39.5z" />
    <glyph glyph-name="cdotaccent" unicode="&#x10b;" horiz-adv-x="915" 
d="M940 983q-87 66 -250 66q-117 0 -226 -43t-191.5 -116t-139.5 -171.5t-76 -206.5q-26 -148 21.5 -270.5t156.5 -193.5t257 -71q149 0 294 74l43 246q-134 -115 -276 -115q-132 0 -205.5 99.5t-48.5 238.5q25 140 128.5 233t236.5 93q144 0 233 -115zM782 1538
q-35 0 -69 -10t-68.5 -45t-42.5 -92q-12 -64 25.5 -106t101.5 -42q68 0 120 42t62 106q12 68 -24.5 107.5t-104.5 39.5z" />
    <glyph glyph-name="Ccaron" unicode="&#x10c;" horiz-adv-x="1417" 
d="M1284 408q-135 -103 -250 -156t-248 -53q-146 0 -248 70t-142 188.5t-15 263.5q19 107 72 202.5t129.5 166t177.5 112t211 41.5q268 0 403 -184l47 264q-165 145 -413 145q-212 0 -402 -99t-317 -270.5t-164 -379.5q-28 -157 5 -296t114 -238t208 -156.5t281 -57.5
q141 0 262 44t242 128zM1430 1903h-191l-172 -160l-117 160h-192l192 -324h170z" />
    <glyph glyph-name="ccaron" unicode="&#x10d;" horiz-adv-x="964" 
d="M944 983q-87 66 -250 66q-117 0 -226 -43t-191.5 -116t-139.5 -171.5t-76 -206.5q-26 -148 21.5 -270.5t156.5 -193.5t257 -71q150 0 295 74l43 246q-134 -115 -277 -115q-132 0 -205.5 99.5t-48.5 238.5q25 140 128.5 233t236.5 93q144 0 233 -115zM1112 1554h-190
l-174 -161l-115 161h-195l195 -325h170z" />
    <glyph glyph-name="Dcaron" unicode="&#x10e;" horiz-adv-x="1513" 
d="M305 1440l-254 -1440h484q236 0 432.5 93t321 257t161.5 373q38 212 -32.5 375.5t-232.5 252.5t-392 89h-488zM340 221l176 996h299q86 0 156.5 -27t116 -74.5t75 -111t34 -135.5t-6.5 -150q-39 -225 -204 -361.5t-413 -136.5h-233zM1274 1903h-191l-172 -160l-116 160
h-193l193 -324h170z" />
    <glyph glyph-name="dcaron" unicode="&#x10f;" horiz-adv-x="1253" 
d="M1063 -6l264 1505h-242l-112 -631q-100 185 -330 185q-203 0 -371.5 -149.5t-210.5 -389.5q-21 -121 0.5 -222.5t76.5 -169t137 -105t182 -37.5q114 0 203.5 45t175.5 129zM545 182q-78 0 -133.5 27t-82 73t-34.5 106.5t8 127.5q29 147 132.5 239.5t228.5 92.5
q128 0 204 -96t52 -236q-26 -144 -135 -239t-240 -95zM1499 1208l182 389h-198l-137 -389h153z" />
    <glyph glyph-name="Dcroat" unicode="&#x110;" horiz-adv-x="1574" 
d="M367 1440l-254 -1440h481q178 0 335.5 54t275 150t196 229t106.5 290q38 212 -31.5 375.5t-231.5 252.5t-392 89h-485zM399 221l176 996h297q86 0 156.5 -27t116.5 -74.5t76 -111t34.5 -135.5t-6.5 -150q-40 -225 -205 -361.5t-413 -136.5h-232zM631 604l39 219h-594
l-39 -219h594z" />
    <glyph glyph-name="dcroat" unicode="&#x111;" horiz-adv-x="1259" 
d="M1063 -6l264 1505h-242l-110 -631q-104 185 -332 185q-132 0 -253.5 -65t-210.5 -189.5t-118 -284.5q-21 -121 0.5 -222.5t76.5 -169t137 -105t182 -37.5q115 0 204 44.5t175 129.5zM547 182q-78 0 -132.5 27.5t-79 74t-33.5 107t3 125.5q23 146 127.5 239t231.5 93
q128 0 204 -96t52 -236q-26 -144 -134 -239t-239 -95zM1380 1167l37 219h-592l-39 -219h594z" />
    <glyph glyph-name="Emacron" unicode="&#x112;" horiz-adv-x="1304" 
d="M340 217l72 410h700l37 207h-700l67 389h766l37 217h-1014l-254 -1440h1032l39 217h-782zM1174 1569l28 157h-665l-29 -157h666z" />
    <glyph glyph-name="emacron" unicode="&#x113;" horiz-adv-x="1144" 
d="M940 311q-90 -76 -197 -112.5t-200 -36.5q-204 0 -256 178l788 188q10 107 -10 200.5t-68.5 166t-133.5 114.5t-197 42q-148 0 -277 -71t-215 -194.5t-113 -275.5q-41 -233 84 -385t357 -152q104 0 209 30.5t190 86.5zM297 526q20 133 110.5 232.5t219.5 99.5
q100 0 159.5 -57t67.5 -152l-555 -137zM1026 1231l29 158h-666l-29 -158h666z" />
    <glyph glyph-name="Ebreve" unicode="&#x114;" horiz-adv-x="1304" 
d="M340 217l72 410h700l37 207h-700l67 389h766l37 217h-1014l-254 -1440h1032l39 217h-782zM1092 1868q-31 -70 -82.5 -108t-116.5 -38q-66 0 -106 38t-46 108h-145q-9 -142 62 -230t200 -88q132 0 237 88.5t140 229.5h-143z" />
    <glyph glyph-name="ebreve" unicode="&#x115;" horiz-adv-x="1144" 
d="M940 311q-90 -76 -197 -112.5t-200 -36.5q-204 0 -256 178l788 188q10 107 -10 200.5t-68.5 166t-133.5 114.5t-197 42q-148 0 -277 -71t-215 -194.5t-113 -275.5q-41 -233 84 -385t357 -152q104 0 209 30.5t190 86.5zM297 526q20 133 110.5 232.5t219.5 99.5
q100 0 159.5 -57t67.5 -152l-555 -137zM944 1530q-31 -70 -82.5 -108t-116.5 -38q-66 0 -105.5 38t-45.5 108h-145q-9 -142 62 -230t200 -88q132 0 236.5 88.5t139.5 229.5h-143z" />
    <glyph glyph-name="Edotaccent" unicode="&#x116;" horiz-adv-x="1304" 
d="M340 217l72 410h700l37 207h-700l67 389h766l37 217h-1014l-254 -1440h1032l39 217h-782zM913 1876q-35 0 -69 -10t-68.5 -45t-42.5 -92q-12 -64 25.5 -106t101.5 -42q68 0 120 42t62 106q12 68 -24.5 107.5t-104.5 39.5z" />
    <glyph glyph-name="edotaccent" unicode="&#x117;" horiz-adv-x="1144" 
d="M940 311q-90 -76 -197 -112.5t-200 -36.5q-204 0 -256 178l788 188q10 107 -10 200.5t-68.5 166t-133.5 114.5t-197 42q-148 0 -277 -71t-215 -194.5t-113 -275.5q-41 -233 84 -385t357 -152q104 0 209 30.5t190 86.5zM297 526q20 133 110.5 232.5t219.5 99.5
q100 0 159.5 -57t67.5 -152l-555 -137zM768 1538q-35 0 -69 -10t-68.5 -45t-42.5 -92q-12 -64 25.5 -106t101.5 -42q68 0 120 42t62 106q12 68 -24.5 107.5t-104.5 39.5z" />
    <glyph glyph-name="Eogonek" unicode="&#x118;" horiz-adv-x="1304" 
d="M340 217l72 410h700l37 207h-700l67 389h766l37 217h-1014l-254 -1440h1032l39 217h-782zM1133 -270q-68 -23 -103 -23q-44 0 -67 26t-17 66q7 38 37 80t100 121h-168q-43 -45 -66 -71.5t-50 -71.5t-33 -86q-17 -93 41 -148t162 -55q81 0 172 39z" />
    <glyph glyph-name="eogonek" unicode="&#x119;" horiz-adv-x="1144" 
d="M940 311q-90 -76 -197 -112.5t-200 -36.5q-204 0 -256 178l788 188q10 107 -10 200.5t-68.5 166t-133.5 114.5t-197 42q-148 0 -277 -71t-215 -194.5t-113 -275.5q-41 -233 84 -385t357 -152q104 0 209 30.5t190 86.5zM297 526q20 133 110.5 232.5t219.5 99.5
q100 0 159.5 -57t67.5 -152l-555 -137zM834 -268q-68 -23 -103 -23q-44 0 -67 26t-17 70q24 107 254 287l-285 -90q-128 -108 -149 -229q-17 -93 41 -148t162 -55q81 0 172 39z" />
    <glyph glyph-name="Ecaron" unicode="&#x11a;" horiz-adv-x="1304" 
d="M340 217l72 410h700l37 207h-700l67 389h766l37 217h-1014l-254 -1440h1032l39 217h-782zM1247 1903h-190l-172 -160l-117 160h-193l193 -324h170z" />
    <glyph glyph-name="ecaron" unicode="&#x11b;" horiz-adv-x="1144" 
d="M940 311q-90 -76 -197 -112.5t-200 -36.5q-204 0 -256 178l788 188q10 107 -10 200.5t-68.5 166t-133.5 114.5t-197 42q-148 0 -277 -71t-215 -194.5t-113 -275.5q-41 -233 84 -385t357 -152q104 0 209 30.5t190 86.5zM297 526q20 133 110.5 232.5t219.5 99.5
q100 0 159.5 -57t67.5 -152l-555 -137zM1092 1554h-191l-174 -161l-115 161h-194l194 -325h170z" />
    <glyph glyph-name="Gcircumflex" unicode="&#x11c;" horiz-adv-x="1652" 
d="M1335 621q-23 -131 -104 -231t-194.5 -151t-239.5 -51q-107 0 -195.5 40.5t-144 111t-78 169t-2.5 210.5q25 141 119 263t231.5 193.5t284.5 71.5q251 0 399 -168l47 269q-163 120 -422 120q-161 0 -315.5 -58.5t-276 -158t-207 -238t-112.5 -292.5q-37 -209 30 -382
t221.5 -272.5t364.5 -99.5q333 0 561 212t293 581l11 65h-617l-37 -204h383zM1409 1610l-184 319h-168l-297 -319h180l172 153l119 -153h178z" />
    <glyph glyph-name="gcircumflex" unicode="&#x11d;" horiz-adv-x="1298" 
d="M571 256q-149 0 -211 85t-36 216q23 132 121.5 215.5t230.5 83.5t206 -85t50 -216q-23 -129 -127 -214t-234 -85zM860 150q-51 -336 -420 -336q-231 0 -401 143l-41 -225q189 -109 410 -109q272 0 461 141t235 402l151 862l-280 -139q-56 79 -133 121.5t-191 42.5
q-203 0 -368.5 -140t-204.5 -362q-38 -216 76.5 -354t320.5 -138q118 0 215 48.5t189 138.5zM1075 1272l-184 319h-168l-297 -319h180l172 153l119 -153h178z" />
    <glyph glyph-name="Gbreve" unicode="&#x11e;" horiz-adv-x="1652" 
d="M1335 621q-23 -131 -104 -231t-194.5 -151t-239.5 -51q-107 0 -195.5 40.5t-144 111t-78 169t-2.5 210.5q25 141 119 263t231.5 193.5t284.5 71.5q251 0 399 -168l47 269q-163 120 -422 120q-161 0 -315.5 -58.5t-276 -158t-207 -238t-112.5 -292.5q-37 -209 30 -382
t221.5 -272.5t364.5 -99.5q333 0 561 212t293 581l11 65h-617l-37 -204h383zM1311 1868q-31 -70 -82.5 -108t-116.5 -38q-66 0 -105.5 38t-45.5 108h-146q-9 -142 62 -230t200 -88q132 0 237 88.5t140 229.5h-143z" />
    <glyph glyph-name="gbreve" unicode="&#x11f;" horiz-adv-x="1298" 
d="M571 256q-149 0 -211 85t-36 216q23 132 121.5 215.5t230.5 83.5t206 -85t50 -216q-23 -129 -127 -214t-234 -85zM860 150q-51 -336 -420 -336q-231 0 -401 143l-41 -225q189 -109 410 -109q272 0 461 141t235 402l151 862l-280 -139q-56 79 -133 121.5t-191 42.5
q-203 0 -368.5 -140t-204.5 -362q-38 -216 76.5 -354t320.5 -138q118 0 215 48.5t189 138.5zM1030 1530q-31 -70 -82.5 -108t-116.5 -38q-66 0 -105.5 38t-45.5 108h-145q-9 -142 62 -230t200 -88q132 0 237 88.5t140 229.5h-144z" />
    <glyph glyph-name="Gdotaccent" unicode="&#x120;" horiz-adv-x="1652" 
d="M1335 621q-23 -131 -104 -231t-194.5 -151t-239.5 -51q-107 0 -195.5 40.5t-144 111t-78 169t-2.5 210.5q25 141 119 263t231.5 193.5t284.5 71.5q251 0 399 -168l47 269q-163 120 -422 120q-161 0 -315.5 -58.5t-276 -158t-207 -238t-112.5 -292.5q-37 -209 30 -382
t221.5 -272.5t364.5 -99.5q333 0 561 212t293 581l11 65h-617l-37 -204h383zM1065 1892q-35 0 -69 -10t-68.5 -45t-42.5 -92q-12 -64 25.5 -106t101.5 -42q68 0 120 42t62 106q12 68 -24.5 107.5t-104.5 39.5z" />
    <glyph glyph-name="gdotaccent" unicode="&#x121;" horiz-adv-x="1267" 
d="M561 256q-149 0 -211.5 85t-36.5 216q23 132 122 215.5t231 83.5t206 -85t50 -216q-23 -129 -127 -214t-234 -85zM850 150q-51 -336 -420 -336q-231 0 -401 143l-41 -225q189 -109 409 -109q272 0 461.5 141t235.5 402l151 862l-280 -139q-56 79 -133 121.5t-191 42.5
q-203 0 -368.5 -140t-204.5 -362q-38 -216 76.5 -354t320.5 -138q117 0 214 48.5t189 138.5zM817 1538q-35 0 -69 -10t-68.5 -45t-42.5 -92q-12 -64 25.5 -106t101.5 -42q68 0 120 42t62 106q12 68 -24.5 107.5t-104.5 39.5z" />
    <glyph glyph-name="uni0122" unicode="&#x122;" horiz-adv-x="1652" 
d="M1335 621q-23 -131 -104 -231t-194.5 -151t-239.5 -51q-107 0 -195.5 40.5t-144 111t-78 169t-2.5 210.5q25 141 119 263t231.5 193.5t284.5 71.5q251 0 399 -168l47 269q-163 120 -422 120q-161 0 -315.5 -58.5t-276 -158t-207 -238t-112.5 -292.5q-37 -209 30 -382
t221.5 -272.5t364.5 -99.5q333 0 561 212t293 581l11 65h-617l-37 -204h383zM641 -502l180 389h-198l-138 -389h156z" />
    <glyph glyph-name="uni0123" unicode="&#x123;" horiz-adv-x="1306" 
d="M571 256q-149 0 -211 85t-36 216q23 132 121.5 215.5t230.5 83.5t206 -85t50 -216q-23 -129 -127 -214t-234 -85zM860 150q-51 -336 -420 -336q-231 0 -401 143l-41 -225q189 -109 410 -109q272 0 461 141t235 402l151 862l-280 -139q-56 79 -133 121.5t-191 42.5
q-203 0 -368.5 -140t-204.5 -362q-38 -216 76.5 -354t320.5 -138q118 0 215 48.5t189 138.5zM885 1604l-234 -418h248l166 418h-180z" />
    <glyph glyph-name="Hcircumflex" unicode="&#x124;" horiz-adv-x="1482" 
d="M305 1442l-254 -1442h250l109 618h692l-111 -618h248l254 1442h-248l-104 -598h-692l104 598h-248zM1257 1610l-184 319h-168l-297 -319h180l173 153l118 -153h178z" />
    <glyph glyph-name="hcircumflex" unicode="&#x125;" horiz-adv-x="1392" 
d="M1247 655q35 197 -47 296.5t-244 99.5q-208 0 -368 -164l108 612h-233l-264 -1499h241l105 582q21 115 103 178t186 63q98 0 139 -60.5t20 -180.5l-102 -582h242zM922 1655l-185 319h-168l-297 -319h181l172 153l118 -153h179z" />
    <glyph glyph-name="Hbar" unicode="&#x126;" horiz-adv-x="1538" 
d="M334 1442l-254 -1442h250l108 618h692l-110 -618h248l254 1442h-248l-105 -598h-692l105 598h-248zM160 1079h1394l37 158h-1396z" />
    <glyph glyph-name="hbar" unicode="&#x127;" horiz-adv-x="1167" 
d="M1071 655q35 197 -47 296.5t-244 99.5q-208 0 -368 -164l108 612h-233l-264 -1499h241l105 582q21 116 103 178.5t185 62.5q98 0 139.5 -60.5t20.5 -180.5l-102 -582h241zM768 1231l29 158h-666l-29 -158h666z" />
    <glyph glyph-name="Itilde" unicode="&#x128;" horiz-adv-x="542" 
d="M301 0l254 1440h-250l-254 -1440h250zM244 1571q48 94 121 94q36 0 110.5 -38t122.5 -38q142 0 258 240l-137 29q-27 -51 -50 -72t-55 -21q-30 0 -106 37t-129 37q-159 0 -275 -244z" />
    <glyph glyph-name="itilde" unicode="&#x129;" horiz-adv-x="497" 
d="M270 0l183 1028h-242l-182 -1028h241zM139 1233q46 94 119 94q36 0 111 -38t123 -38q142 0 258 240l-138 29q-27 -52 -49 -72.5t-53 -20.5q-32 0 -109 37t-129 37q-159 0 -272 -244z" />
    <glyph glyph-name="Imacron" unicode="&#x12a;" horiz-adv-x="542" 
d="M301 0l254 1440h-250l-254 -1440h250zM776 1569l29 157h-666l-28 -157h665z" />
    <glyph glyph-name="imacron" unicode="&#x12b;" horiz-adv-x="497" 
d="M270 0l183 1028h-242l-182 -1028h241zM700 1231l29 158h-666l-28 -158h665z" />
    <glyph glyph-name="Ibreve" unicode="&#x12c;" horiz-adv-x="542" 
d="M301 0l254 1440h-250l-254 -1440h250zM684 1872q-31 -70 -82.5 -108t-116.5 -38q-66 0 -105.5 38t-45.5 108h-146q-9 -142 62.5 -230t200.5 -88q132 0 236.5 88.5t139.5 229.5h-143z" />
    <glyph glyph-name="ibreve" unicode="&#x12d;" horiz-adv-x="497" 
d="M270 0l183 1028h-242l-182 -1028h241zM598 1530q-31 -70 -82.5 -108t-116.5 -38q-66 0 -105.5 38t-45.5 108h-146q-9 -142 62.5 -230t200.5 -88q132 0 236.5 88.5t139.5 229.5h-143z" />
    <glyph glyph-name="Iogonek" unicode="&#x12e;" horiz-adv-x="542" 
d="M301 0l254 1440h-250l-254 -1440h250zM350 -270q-68 -23 -102 -23q-44 0 -67 26t-17 66q7 38 37 80t100 121h-168q-43 -45 -66 -71.5t-50 -71.5t-33 -86q-17 -93 40.5 -148t161.5 -55q81 0 172 39z" />
    <glyph glyph-name="iogonek" unicode="&#x12f;" horiz-adv-x="509" 
d="M276 0l183 1028h-240l-182 -1028h239zM418 1487q-31 0 -65.5 -11t-70 -47t-44.5 -92q-12 -65 25.5 -106t101.5 -41q68 0 120 41t64 106q10 68 -26.5 109t-104.5 41zM326 -270q-68 -23 -103 -23q-44 0 -67 26t-17 66q7 38 37 80t100 121h-167q-44 -47 -66.5 -72t-50 -70.5
t-33.5 -86.5q-17 -93 41 -148t162 -55q81 0 172 39z" />
    <glyph glyph-name="Idotaccent" unicode="&#x130;" horiz-adv-x="542" 
d="M301 0l254 1440h-250l-254 -1440h250zM504 1876q-35 0 -69 -10t-68.5 -45t-42.5 -92q-12 -64 25.5 -106t101.5 -42q68 0 120 42t62 106q12 68 -24.5 107.5t-104.5 39.5z" />
    <glyph glyph-name="dotlessi" unicode="&#x131;" horiz-adv-x="497" 
d="M270 0l183 1028h-242l-182 -1028h241z" />
    <glyph glyph-name="IJ" unicode="&#x132;" horiz-adv-x="1370" 
d="M301 0l254 1440h-250l-254 -1440h250zM457 57q107 -80 243 -80q209 0 344 126t175 358l174 979h-250l-172 -983q-25 -136 -86 -197t-156 -61q-65 0 -116.5 25.5t-112.5 74.5z" />
    <glyph glyph-name="ij" unicode="&#x133;" horiz-adv-x="983" 
d="M276 0l183 1028h-240l-182 -1028h239zM418 1487q-31 0 -65.5 -11t-70 -47t-44.5 -92q-12 -65 25.5 -106t101.5 -41q68 0 120 41t64 106q10 68 -26.5 109t-104.5 41zM285 -362q66 -15 118 -15q159 0 239 87t108 255l188 1063h-240l-192 -1089q-11 -63 -39 -96t-82 -33
q-33 0 -68 12zM891 1487q-22 0 -47 -7t-53 -22.5t-50 -46.5t-30 -74q-12 -65 25.5 -106t101.5 -41q68 0 120 41t64 106q12 68 -25 109t-106 41z" />
    <glyph glyph-name="Jcircumflex" unicode="&#x134;" horiz-adv-x="827" 
d="M-86 57q107 -80 244 -80q209 0 343.5 126t174.5 358l174 979h-250l-172 -983q-25 -136 -86 -197t-156 -61q-65 0 -116.5 25.5t-112.5 74.5zM1087 1610l-184 319h-168l-297 -319h180l173 153l118 -153h178z" />
    <glyph glyph-name="jcircumflex" unicode="&#x135;" horiz-adv-x="442" 
d="M-215 -362q69 -15 121 -15q157 0 236.5 87t109.5 255l188 1063h-239l-193 -1089q-11 -63 -39 -96t-82 -33q-31 0 -69 12zM682 1272l-184 319h-168l-297 -319h180l172 153l119 -153h178z" />
    <glyph glyph-name="uni0136" unicode="&#x136;" horiz-adv-x="1267" 
d="M449 842l104 598h-248l-254 -1440h250l123 700l448 -700h306l-500 784l708 656h-305zM442 -510l181 389h-199l-137 -389h155z" />
    <glyph glyph-name="uni0137" unicode="&#x137;" horiz-adv-x="1026" 
d="M383 629l152 870h-242l-264 -1499h241l86 487l293 -487h281l-342 569l508 459h-291zM334 -510l180 389h-199l-137 -389h156z" />
    <glyph glyph-name="kgreenlandic" unicode="&#x138;" horiz-adv-x="1036" 
d="M383 629l70 399h-242l-182 -1028h241l86 487l293 -487h281l-342 569l508 459h-291z" />
    <glyph glyph-name="Lacute" unicode="&#x139;" horiz-adv-x="1124" 
d="M332 221l215 1219h-250l-254 -1440h952l39 221h-702zM625 1929l-252 -330h172l321 265z" />
    <glyph glyph-name="lacute" unicode="&#x13a;" horiz-adv-x="542" 
d="M301 0l254 1440h-250l-254 -1440h250zM606 1929l-252 -330h172l322 265z" />
    <glyph glyph-name="uni013B" unicode="&#x13b;" horiz-adv-x="1153" 
d="M344 221l215 1219h-250l-254 -1440h953l39 221h-703zM422 -510l180 389h-199l-137 -389h156z" />
    <glyph glyph-name="uni013C" unicode="&#x13c;" horiz-adv-x="542" 
d="M301 0l254 1440h-250l-254 -1440h250zM49 -510l180 389h-198l-137 -389h155z" />
    <glyph glyph-name="Lcaron" unicode="&#x13d;" horiz-adv-x="1116" 
d="M340 221l215 1219h-250l-254 -1440h953l38 221h-702zM973 1208l182 389h-199l-137 -389h154z" />
    <glyph glyph-name="lcaron" unicode="&#x13e;" horiz-adv-x="497" 
d="M270 0l265 1499h-242l-264 -1499h241zM745 1208l183 389h-199l-137 -389h153z" />
    <glyph glyph-name="Ldot" unicode="&#x13f;" horiz-adv-x="1114" 
d="M340 221l215 1219h-250l-254 -1440h953l38 221h-702zM905 893q-25 0 -50.5 -6.5t-53.5 -21t-49 -46t-27 -74.5q-12 -63 25.5 -105t101.5 -42q68 0 120 41.5t62 105.5q12 68 -25 108t-104 40z" />
    <glyph glyph-name="ldot" unicode="&#x140;" horiz-adv-x="727" 
d="M270 0l265 1499h-242l-264 -1499h241zM696 893q-25 0 -50.5 -6.5t-53.5 -21t-49 -46t-27 -74.5q-12 -63 25.5 -105t101.5 -42q68 0 120 41.5t62 105.5q12 68 -25 108t-104 40z" />
    <glyph glyph-name="Lslash" unicode="&#x141;" horiz-adv-x="1128" 
d="M342 221l215 1219h-250l-254 -1440h953l38 221h-702zM891 395l39 213h-905l-39 -213h905z" />
    <glyph glyph-name="lslash" unicode="&#x142;" horiz-adv-x="690" 
d="M299 0l264 1499h-241l-265 -1499h242zM649 383l37 213h-676l-39 -213h678z" />
    <glyph glyph-name="Nacute" unicode="&#x143;" horiz-adv-x="1548" 
d="M1130 397l-587 1037h-240l-252 -1434h246l184 1051l592 -1051h232l254 1440h-244zM1100 1929l-252 -330h172l321 265z" />
    <glyph glyph-name="nacute" unicode="&#x144;" horiz-adv-x="1173" 
d="M1077 655q30 174 -46 285t-247 111q-197 0 -354 -160l-219 137l-182 -1028h241l105 582q12 68 42.5 119.5t71.5 80t82.5 42.5t83.5 14q88 0 139.5 -62.5t28.5 -193.5l-102 -582h242zM903 1591l-252 -329h172l322 264z" />
    <glyph glyph-name="uni0145" unicode="&#x145;" horiz-adv-x="1558" 
d="M1135 397l-588 1037h-240l-252 -1434h246l184 1051l592 -1051h232l254 1440h-244zM578 -510l180 389h-199l-137 -389h156z" />
    <glyph glyph-name="uni0146" unicode="&#x146;" horiz-adv-x="1204" 
d="M1087 655q30 174 -45.5 285t-246.5 111q-198 0 -355 -160l-219 137l-182 -1028h242l104 582q12 68 43 119.5t71.5 80t82.5 42.5t84 14q88 0 139.5 -62.5t28.5 -193.5l-103 -582h242zM389 -510l180 389h-198l-138 -389h156z" />
    <glyph glyph-name="Ncaron" unicode="&#x147;" horiz-adv-x="1548" 
d="M1130 397l-587 1037h-240l-252 -1434h246l184 1051l592 -1051h232l254 1440h-244zM1352 1903h-191l-172 -160l-117 160h-192l192 -324h170z" />
    <glyph glyph-name="ncaron" unicode="&#x148;" horiz-adv-x="1173" 
d="M1077 655q30 174 -46 285t-247 111q-197 0 -354 -160l-219 137l-182 -1028h241l105 582q12 68 42.5 119.5t71.5 80t82.5 42.5t83.5 14q88 0 139.5 -62.5t28.5 -193.5l-102 -582h242zM1112 1554h-190l-174 -161l-115 161h-195l195 -325h170z" />
    <glyph glyph-name="Eng" unicode="&#x14a;" horiz-adv-x="1548" 
d="M303 1434l-252 -1434h246l184 1051l586 -1039l-14 -80q-20 -122 -119 -122q-36 0 -70 12l-33 -184q62 -15 119 -15q158 0 238 87t110 255l15 90l246 1385h-244l-185 -1043l-587 1037h-240z" />
    <glyph glyph-name="eng" unicode="&#x14b;" horiz-adv-x="1173" 
d="M211 1028l-182 -1028h241l105 582q12 68 42.5 119.5t71.5 80t82.5 42.5t83.5 14q88 0 139.5 -62.5t28.5 -193.5l-114 -643q-20 -129 -119 -129q-36 0 -70 12l-33 -184q62 -15 119 -15q158 0 239 87.5t109 254.5l123 690q33 187 -47 291.5t-246 104.5q-197 0 -354 -160z
" />
    <glyph glyph-name="Omacron" unicode="&#x14c;" horiz-adv-x="1701" 
d="M750 -29q183 0 341.5 61.5t269.5 166.5t182.5 239t94.5 283q25 153 -8 290t-113 238t-209.5 160t-289.5 59q-215 0 -407.5 -100.5t-320.5 -272t-165 -376.5q-37 -206 30.5 -377t224 -271t370.5 -100zM975 1245q101 0 179.5 -27.5t127.5 -76t79 -115.5t33 -145t-10 -164
q-26 -142 -110.5 -261t-212 -190t-270.5 -71q-145 0 -249 71t-146 191.5t-17 267.5q39 219 208 369.5t388 150.5zM1376 1569l29 157h-666l-28 -157h665z" />
    <glyph glyph-name="omacron" unicode="&#x14d;" horiz-adv-x="1249" 
d="M520 -23q134 0 249.5 42t197.5 115t136 170.5t73 211.5q25 147 -24.5 270t-165 195t-273.5 72q-118 0 -229.5 -42.5t-197.5 -115.5t-145.5 -172.5t-79.5 -210.5q-26 -147 23.5 -269.5t164.5 -194t271 -71.5zM674 848q157 0 223.5 -94t38.5 -240q-27 -137 -134.5 -234.5
t-242.5 -97.5t-208.5 96.5t-47.5 237.5q24 141 127.5 236.5t243.5 95.5zM1079 1231l29 158h-666l-28 -158h665z" />
    <glyph glyph-name="Obreve" unicode="&#x14e;" horiz-adv-x="1701" 
d="M750 -29q183 0 341.5 61.5t269.5 166.5t182.5 239t94.5 283q25 153 -8 290t-113 238t-209.5 160t-289.5 59q-215 0 -407.5 -100.5t-320.5 -272t-165 -376.5q-37 -206 30.5 -377t224 -271t370.5 -100zM975 1245q101 0 179.5 -27.5t127.5 -76t79 -115.5t33 -145t-10 -164
q-26 -142 -110.5 -261t-212 -190t-270.5 -71q-145 0 -249 71t-146 191.5t-17 267.5q39 219 208 369.5t388 150.5zM1321 1868q-31 -70 -82.5 -108t-116.5 -38q-66 0 -105.5 38t-45.5 108h-146q-9 -142 62 -230t200 -88q132 0 237 88.5t140 229.5h-143z" />
    <glyph glyph-name="obreve" unicode="&#x14f;" horiz-adv-x="1249" 
d="M520 -23q134 0 249.5 42t197.5 115t136 170.5t73 211.5q25 147 -24.5 270t-165 195t-273.5 72q-118 0 -229.5 -42.5t-197.5 -115.5t-145.5 -172.5t-79.5 -210.5q-26 -147 23.5 -269.5t164.5 -194t271 -71.5zM674 848q157 0 223.5 -94t38.5 -240q-27 -137 -134.5 -234.5
t-242.5 -97.5t-208.5 96.5t-47.5 237.5q24 141 127.5 236.5t243.5 95.5zM1049 1530q-31 -70 -82.5 -108t-116.5 -38q-66 0 -106 38t-46 108h-145q-9 -142 62 -230t200 -88q132 0 237 88.5t140 229.5h-143z" />
    <glyph glyph-name="Ohungarumlaut" unicode="&#x150;" horiz-adv-x="1701" 
d="M750 -29q183 0 341.5 61.5t269.5 166.5t182.5 239t94.5 283q25 153 -8 290t-113 238t-209.5 160t-289.5 59q-215 0 -407.5 -100.5t-320.5 -272t-165 -376.5q-37 -206 30.5 -377t224 -271t370.5 -100zM975 1245q101 0 179.5 -27.5t127.5 -76t79 -115.5t33 -145t-10 -164
q-26 -142 -110.5 -261t-212 -190t-270.5 -71q-145 0 -249 71t-146 191.5t-17 267.5q39 219 208 369.5t388 150.5zM985 1575l330 297l-219 41l-287 -338h176zM1352 1575l329 293l-219 45l-286 -338h176z" />
    <glyph glyph-name="ohungarumlaut" unicode="&#x151;" horiz-adv-x="1263" 
d="M520 -23q134 0 249.5 42t197.5 115t136 170.5t73 211.5q25 147 -24.5 270t-165 195t-273.5 72q-118 0 -229.5 -42.5t-197.5 -115.5t-145.5 -172.5t-79.5 -210.5q-26 -147 23.5 -269.5t164.5 -194t271 -71.5zM674 848q157 0 223.5 -94t38.5 -240q-27 -137 -134.5 -234.5
t-242.5 -97.5t-208.5 96.5t-47.5 237.5q24 141 127.5 236.5t243.5 95.5zM715 1237l329 297l-219 41l-286 -338h176zM1081 1237l330 293l-219 45l-287 -338h176z" />
    <glyph glyph-name="OE" unicode="&#x152;" horiz-adv-x="2201" 
d="M1161 1204q-87 41 -180 41q-224 0 -393.5 -149t-208.5 -371q-24 -137 19 -257.5t147.5 -195.5t249.5 -75q104 0 196 39zM1309 627l-72 -410h780l-37 -217h-995q-118 -27 -219 -27q-160 0 -293 57t-218.5 155.5t-121 237.5t-8.5 296q37 205 165 376.5t320.5 272
t407.5 100.5q112 0 207 -28h991l-39 -217h-764l-67 -389h700l-37 -207h-700z" />
    <glyph glyph-name="oe" unicode="&#x153;" horiz-adv-x="2056" 
d="M1849 311q-94 -79 -187.5 -114t-209.5 -35q-103 0 -160 46.5t-80 131.5l770 188q9 85 -1.5 162t-41.5 143t-79.5 114.5t-121.5 76t-163 27.5q-139 0 -253.5 -63t-191.5 -173q-55 112 -162.5 175t-254.5 63q-118 0 -229.5 -42.5t-197.5 -115.5t-145.5 -172.5t-79.5 -210.5
q-26 -147 23.5 -269.5t164.5 -194t271 -71.5q146 0 276.5 63t223.5 173q42 -115 142 -177.5t249 -62.5q104 0 209 30.5t190 86.5zM674 848q158 0 223 -94.5t39 -239.5q-27 -137 -134.5 -234.5t-242.5 -97.5t-208.5 96.5t-47.5 237.5q24 141 127.5 236.5t243.5 95.5z
M1217 528q11 66 32.5 123t56.5 104.5t88 75t119 27.5q100 0 160 -57t68 -152z" />
    <glyph glyph-name="Racute" unicode="&#x154;" horiz-adv-x="1273" 
d="M51 0h252l98 553h181l297 -553h295l-326 582q177 41 292 148.5t144 270.5q36 198 -86.5 318.5t-366.5 120.5h-526zM436 750l84 473h252q146 0 214.5 -57.5t47.5 -176.5q-22 -120 -120 -179.5t-246 -59.5h-232zM979 1929l-252 -330h172l322 265z" />
    <glyph glyph-name="racute" unicode="&#x155;" horiz-adv-x="794" 
d="M836 1040q-35 7 -66 7q-95 0 -184 -43.5t-156 -122.5l-219 147l-182 -1028h241l86 485q15 83 52.5 147.5t89 102.5t108.5 57t117 19q52 0 70 -12zM719 1591l-252 -329h172l322 264z" />
    <glyph glyph-name="uni0156" unicode="&#x156;" horiz-adv-x="1273" 
d="M51 0h252l98 553h181l297 -553h295l-326 582q177 41 292 148.5t144 270.5q36 198 -86.5 318.5t-366.5 120.5h-526zM436 750l84 473h252q146 0 214.5 -57.5t47.5 -176.5q-22 -120 -120 -179.5t-246 -59.5h-232zM455 -510l180 389h-199l-137 -389h156z" />
    <glyph glyph-name="uni0157" unicode="&#x157;" horiz-adv-x="751" 
d="M836 1040q-35 7 -66 7q-95 0 -184 -43.5t-156 -122.5l-219 147l-182 -1028h241l86 485q15 83 52.5 147.5t89 102.5t108.5 57t117 19q52 0 70 -12zM47 -510l180 389h-198l-138 -389h156z" />
    <glyph glyph-name="Rcaron" unicode="&#x158;" horiz-adv-x="1273" 
d="M51 0h252l98 553h181l297 -553h295l-326 582q177 41 292 148.5t144 270.5q36 198 -86.5 318.5t-366.5 120.5h-526zM436 750l84 473h252q146 0 214.5 -57.5t47.5 -176.5q-22 -120 -120 -179.5t-246 -59.5h-232zM1198 1903h-190l-172 -160l-117 160h-193l193 -324h170z" />
    <glyph glyph-name="rcaron" unicode="&#x159;" horiz-adv-x="751" 
d="M836 1040q-35 7 -66 7q-95 0 -184 -43.5t-156 -122.5l-219 147l-182 -1028h241l86 485q15 83 52.5 147.5t89 102.5t108.5 57t117 19q52 0 70 -12zM930 1554h-191l-174 -161l-114 161h-195l195 -325h170z" />
    <glyph glyph-name="Sacute" unicode="&#x15a;" horiz-adv-x="1181" 
d="M819 367q-10 -53 -41 -91t-75.5 -56.5t-88 -26t-92.5 -7.5q-133 0 -262 58t-229 170l-41 -246q168 -193 487 -193q103 0 197.5 23.5t175.5 69.5t139 123t80 176q19 93 1.5 166.5t-61 124t-104 92.5t-126.5 71t-129.5 59.5t-112 59t-74.5 69t-17 89.5q13 75 85.5 117
t185.5 42q109 0 211 -47.5t172 -144.5l45 260q-141 141 -404 141q-129 0 -244 -41.5t-198.5 -129t-103.5 -205.5q-13 -75 1 -138.5t49.5 -108.5t85 -83.5t107 -67.5t115 -56t109 -54.5t89.5 -57.5t57 -70t11 -87zM940 1929l-252 -330h172l322 265z" />
    <glyph glyph-name="sacute" unicode="&#x15b;" horiz-adv-x="860" 
d="M526 283q-6 -36 -27.5 -61.5t-51 -37.5t-55.5 -17t-52 -5q-87 0 -175.5 43t-158.5 110l-39 -225q84 -53 164.5 -81.5t187.5 -28.5q171 0 290 88t143 225q12 69 -6.5 124.5t-57.5 91t-89 64.5t-101.5 51t-93 43t-65 48.5t-17.5 60.5q6 37 45.5 63.5t99.5 26.5
q133 0 285 -125l41 228q-124 82 -293 82q-162 0 -271.5 -76.5t-132.5 -206.5q-12 -68 7 -121t58.5 -86.5t90 -60t101.5 -48t92.5 -43.5t64.5 -54t16 -72zM711 1591l-252 -329h172l321 264z" />
    <glyph glyph-name="Scircumflex" unicode="&#x15c;" horiz-adv-x="1181" 
d="M819 367q-10 -53 -41 -91t-75.5 -56.5t-88 -26t-92.5 -7.5q-133 0 -262 58t-229 170l-41 -246q168 -193 487 -193q103 0 197.5 23.5t175.5 69.5t139 123t80 176q19 93 1.5 166.5t-61 124t-104 92.5t-126.5 71t-129.5 59.5t-112 59t-74.5 69t-17 89.5q13 75 85.5 117
t185.5 42q109 0 211 -47.5t172 -144.5l45 260q-141 141 -404 141q-129 0 -244 -41.5t-198.5 -129t-103.5 -205.5q-13 -75 1 -138.5t49.5 -108.5t85 -83.5t107 -67.5t115 -56t109 -54.5t89.5 -57.5t57 -70t11 -87zM1096 1610l-185 319h-168l-297 -319h181l172 153l119 -153
h178z" />
    <glyph glyph-name="scircumflex" unicode="&#x15d;" horiz-adv-x="854" 
d="M526 283q-6 -36 -27.5 -61.5t-51 -37.5t-55.5 -17t-52 -5q-87 0 -175.5 43t-158.5 110l-39 -225q84 -53 164.5 -81.5t187.5 -28.5q171 0 290 88t143 225q12 69 -6.5 124.5t-57.5 91t-89 64.5t-101.5 51t-93 43t-65 48.5t-17.5 60.5q6 37 45.5 63.5t99.5 26.5
q133 0 285 -125l41 228q-124 82 -293 82q-162 0 -271.5 -76.5t-132.5 -206.5q-12 -68 7 -121t58.5 -86.5t90 -60t101.5 -48t92.5 -43.5t64.5 -54t16 -72zM866 1272l-184 319h-168l-297 -319h180l172 153l119 -153h178z" />
    <glyph glyph-name="Scedilla" unicode="&#x15e;" horiz-adv-x="1181" 
d="M819 367q-10 -53 -41 -91t-75.5 -56.5t-88 -26t-92.5 -7.5q-133 0 -262 58t-229 170l-41 -246q168 -193 487 -193q103 0 197.5 23.5t175.5 69.5t139 123t80 176q19 93 1.5 166.5t-61 124t-104 92.5t-126.5 71t-129.5 59.5t-112 59t-74.5 69t-17 89.5q13 75 85.5 117
t185.5 42q109 0 211 -47.5t172 -144.5l45 260q-141 141 -404 141q-129 0 -244 -41.5t-198.5 -129t-103.5 -205.5q-13 -75 1 -138.5t49.5 -108.5t85 -83.5t107 -67.5t115 -56t109 -54.5t89.5 -57.5t57 -70t11 -87zM453 -143l110 143h-135l-166 -197l37 -34q47 18 80 18
q37 0 55.5 -15t14.5 -44q-8 -42 -52.5 -63t-87.5 -21q-49 0 -110 24l-52 -92q85 -45 181 -45q43 0 86 10t85 30t72 57t39 85q12 75 -33.5 109.5t-113.5 34.5h-10z" />
    <glyph glyph-name="scedilla" unicode="&#x15f;" horiz-adv-x="860" 
d="M526 283q-6 -36 -27.5 -61.5t-51 -37.5t-55.5 -17t-52 -5q-87 0 -175.5 43t-158.5 110l-39 -225q84 -53 164.5 -81.5t187.5 -28.5q171 0 290 88t143 225q12 69 -6.5 124.5t-57.5 91t-89 64.5t-101.5 51t-93 43t-65 48.5t-17.5 60.5q6 37 45.5 63.5t99.5 26.5
q133 0 285 -125l41 228q-124 82 -293 82q-162 0 -271.5 -76.5t-132.5 -206.5q-12 -68 7 -121t58.5 -86.5t90 -60t101.5 -48t92.5 -43.5t64.5 -54t16 -72zM299 -143l111 143h-136l-165 -197l36 -34q47 18 80 18q37 0 55.5 -15t14.5 -44q-8 -42 -52 -63t-87 -21q-50 0 -111 24
l-51 -92q85 -45 180 -45q43 0 86 10t85 30t72.5 57t39.5 85q12 74 -34 109t-114 35h-10z" />
    <glyph glyph-name="Scaron" unicode="&#x160;" horiz-adv-x="1181" 
d="M819 367q-10 -53 -41 -91t-75.5 -56.5t-88 -26t-92.5 -7.5q-133 0 -262 58t-229 170l-41 -246q168 -193 487 -193q103 0 197.5 23.5t175.5 69.5t139 123t80 176q19 93 1.5 166.5t-61 124t-104 92.5t-126.5 71t-129.5 59.5t-112 59t-74.5 69t-17 89.5q13 75 85.5 117
t185.5 42q109 0 211 -47.5t172 -144.5l45 260q-141 141 -404 141q-129 0 -244 -41.5t-198.5 -129t-103.5 -205.5q-13 -75 1 -138.5t49.5 -108.5t85 -83.5t107 -67.5t115 -56t109 -54.5t89.5 -57.5t57 -70t11 -87zM1155 1903h-190l-172 -160l-117 160h-193l193 -324h170z" />
    <glyph glyph-name="scaron" unicode="&#x161;" horiz-adv-x="860" 
d="M526 283q-6 -36 -27.5 -61.5t-51 -37.5t-55.5 -17t-52 -5q-87 0 -175.5 43t-158.5 110l-39 -225q84 -53 164.5 -81.5t187.5 -28.5q171 0 290 88t143 225q12 69 -6.5 124.5t-57.5 91t-89 64.5t-101.5 51t-93 43t-65 48.5t-17.5 60.5q6 37 45.5 63.5t99.5 26.5
q133 0 285 -125l41 228q-124 82 -293 82q-162 0 -271.5 -76.5t-132.5 -206.5q-12 -68 7 -121t58.5 -86.5t90 -60t101.5 -48t92.5 -43.5t64.5 -54t16 -72zM946 1565h-190l-172 -160l-117 160h-193l193 -324h170z" />
    <glyph glyph-name="uni0162" unicode="&#x162;" horiz-adv-x="1144" 
d="M600 0l215 1221h430l39 219h-1108l-39 -219h430l-215 -1221h248zM438 -143l111 143h-135l-166 -197l37 -34q47 18 80 18q37 0 55 -15t14 -44q-8 -42 -52 -63t-87 -21q-49 0 -111 24l-51 -92q85 -45 180 -45q43 0 86 10t85 30t72.5 57t39.5 85q12 75 -33.5 109.5
t-113.5 34.5h-11z" />
    <glyph glyph-name="uni0163" unicode="&#x163;" horiz-adv-x="759" 
d="M186 279q-24 -138 35 -220t191 -82q92 0 163 35l33 197q-58 -27 -104 -27q-94 0 -76 111l94 534h258l37 201h-260l59 342l-540 -543h205zM360 -143l111 143h-135l-166 -197l37 -34q47 18 80 18q37 0 55 -15t14 -44q-8 -42 -52 -63t-87 -21q-49 0 -111 24l-51 -92
q85 -45 181 -45q43 0 86 10t85 30t72 57t39 85q12 75 -33.5 109.5t-113.5 34.5h-11z" />
    <glyph glyph-name="Tcaron" unicode="&#x164;" horiz-adv-x="1144" 
d="M600 0l215 1221h430l39 219h-1108l-39 -219h430l-215 -1221h248zM1145 1903h-191l-172 -160l-116 160h-193l193 -324h170z" />
    <glyph glyph-name="tcaron" unicode="&#x165;" horiz-adv-x="759" 
d="M186 279q-24 -138 35 -220t191 -82q92 0 163 35l33 197q-58 -27 -104 -27q-94 0 -76 111l94 534h258l37 201h-260l59 342l-540 -543h205zM827 1208l183 389h-199l-137 -389h153z" />
    <glyph glyph-name="Tbar" unicode="&#x166;" horiz-adv-x="1144" 
d="M600 0l215 1221h430l39 219h-1108l-39 -219h430l-215 -1221h248zM938 729l29 158h-666l-29 -158h666z" />
    <glyph glyph-name="tbar" unicode="&#x167;" horiz-adv-x="759" 
d="M186 279q-24 -138 35 -220t191 -82q92 0 163 35l33 197q-58 -27 -104 -27q-94 0 -76 111l94 534h258l37 201h-260l59 342l-540 -543h205zM717 520l28 158h-671l-29 -158h672z" />
    <glyph glyph-name="Utilde" unicode="&#x168;" horiz-adv-x="1474" 
d="M141 598q-26 -136 -11.5 -240t55 -178t110 -121t154 -68.5t186.5 -21.5q315 0 487 160t228 475l147 838h-248l-147 -844q-36 -200 -145.5 -300.5t-280.5 -100.5q-182 0 -251 101t-34 308l148 836h-248zM727 1571q48 94 121 94q36 0 110.5 -38t122.5 -38q142 0 258 240
l-137 29q-27 -51 -50 -72t-54 -21q-30 0 -106.5 37t-129.5 37q-158 0 -274 -244z" />
    <glyph glyph-name="utilde" unicode="&#x169;" horiz-adv-x="1161" 
d="M90 389q-9 -50 -9 -96.5t8 -93.5t30 -86t55 -69t85.5 -47t119.5 -17q206 0 350 147l221 -135l183 1038h-242l-103 -584q-13 -67 -42.5 -118t-69 -79.5t-81.5 -42t-85 -13.5q-214 0 -170 253l102 584h-241zM500 1233q46 94 118 94q36 0 111 -38t123 -38q142 0 258 240
l-137 29q-27 -51 -49.5 -72t-53.5 -21q-32 0 -108 37t-129 37q-160 0 -273 -244z" />
    <glyph glyph-name="Umacron" unicode="&#x16a;" horiz-adv-x="1474" 
d="M141 598q-26 -136 -11.5 -240t55 -178t110 -121t154 -68.5t186.5 -21.5q315 0 487 160t228 475l147 838h-248l-147 -844q-36 -200 -145.5 -300.5t-280.5 -100.5q-182 0 -251 101t-34 308l148 836h-248zM1249 1569l29 157h-666l-28 -157h665z" />
    <glyph glyph-name="umacron" unicode="&#x16b;" horiz-adv-x="1161" 
d="M90 389q-9 -50 -9 -96.5t8 -93.5t30 -86t55 -69t85.5 -47t119.5 -17q206 0 350 147l221 -135l183 1038h-242l-103 -584q-13 -67 -42.5 -118t-69 -79.5t-81.5 -42t-85 -13.5q-214 0 -170 253l102 584h-241zM1047 1231l28 158h-665l-29 -158h666z" />
    <glyph glyph-name="Ubreve" unicode="&#x16c;" horiz-adv-x="1474" 
d="M141 598q-26 -136 -11.5 -240t55 -178t110 -121t154 -68.5t186.5 -21.5q315 0 487 160t228 475l147 838h-248l-147 -844q-36 -200 -145.5 -300.5t-280.5 -100.5q-182 0 -251 101t-34 308l148 836h-248zM1149 1868q-31 -70 -82.5 -108t-116.5 -38q-66 0 -105.5 38
t-45.5 108h-146q-9 -142 62 -230t200 -88q132 0 237 88.5t140 229.5h-143z" />
    <glyph glyph-name="ubreve" unicode="&#x16d;" horiz-adv-x="1161" 
d="M90 389q-9 -50 -9 -96.5t8 -93.5t30 -86t55 -69t85.5 -47t119.5 -17q206 0 350 147l221 -135l183 1038h-242l-103 -584q-13 -67 -42.5 -118t-69 -79.5t-81.5 -42t-85 -13.5q-214 0 -170 253l102 584h-241zM926 1530q-31 -70 -82.5 -108t-116.5 -38q-66 0 -106 38t-46 108
h-145q-9 -142 62 -230t200 -88q132 0 237 88.5t140 229.5h-143z" />
    <glyph glyph-name="Uring" unicode="&#x16e;" horiz-adv-x="1474" 
d="M141 598q-26 -136 -11.5 -240t55 -178t110 -121t154 -68.5t186.5 -21.5q315 0 487 160t228 475l147 838h-248l-147 -844q-36 -200 -145.5 -300.5t-280.5 -100.5q-182 0 -251 101t-34 308l148 836h-248zM926 1577q96 0 169.5 60t90.5 155q17 93 -37.5 157t-147.5 64
q-92 0 -167.5 -63t-92.5 -156q-17 -91 38.5 -154t146.5 -63zM981 1888q36 0 61.5 -21t16.5 -73q-9 -40 -38.5 -66t-72.5 -26q-41 0 -63 25.5t-15 68.5q6 38 38.5 65t72.5 27z" />
    <glyph glyph-name="uring" unicode="&#x16f;" horiz-adv-x="1161" 
d="M90 389q-9 -50 -9 -96.5t8 -93.5t30 -86t55 -69t85.5 -47t119.5 -17q206 0 350 147l221 -135l183 1038h-242l-103 -584q-13 -67 -42.5 -118t-69 -79.5t-81.5 -42t-85 -13.5q-214 0 -170 253l102 584h-241zM698 1204q101 0 173.5 59.5t89.5 155.5q17 93 -37.5 157
t-147.5 64t-168 -63t-92 -156q-17 -91 38 -154t144 -63zM756 1516q36 0 61 -22t17 -73q-6 -39 -37 -65.5t-74 -26.5q-41 0 -63 25.5t-15 68.5q6 38 38.5 65.5t72.5 27.5z" />
    <glyph glyph-name="Uhungarumlaut" unicode="&#x170;" horiz-adv-x="1474" 
d="M141 598q-26 -136 -11.5 -240t55 -178t110 -121t154 -68.5t186.5 -21.5q315 0 487 160t228 475l147 838h-248l-147 -844q-36 -200 -145.5 -300.5t-280.5 -100.5q-182 0 -251 101t-34 308l148 836h-248zM795 1575l329 297l-219 41l-287 -338h177zM1161 1575l330 293
l-219 45l-287 -338h176z" />
    <glyph glyph-name="uhungarumlaut" unicode="&#x171;" horiz-adv-x="1234" 
d="M90 389q-9 -50 -9 -96.5t8 -93.5t30 -86t55 -69t85.5 -47t119.5 -17q206 0 350 147l221 -135l183 1038h-242l-103 -584q-13 -67 -42.5 -118t-69 -79.5t-81.5 -42t-85 -13.5q-214 0 -170 253l102 584h-241zM596 1237l330 297l-219 41l-287 -338h176zM963 1237l329 293
l-219 45l-287 -338h177z" />
    <glyph glyph-name="Uogonek" unicode="&#x172;" horiz-adv-x="1474" 
d="M141 598q-26 -136 -11.5 -240t55 -178t110 -121t154 -68.5t186.5 -21.5q315 0 487 160t228 475l147 838h-248l-147 -844q-36 -200 -145.5 -300.5t-280.5 -100.5q-182 0 -251 101t-34 308l148 836h-248zM782 -270q-68 -23 -102 -23q-44 0 -67 26t-17 66q7 38 37 80
t100 121h-168q-43 -45 -66 -71.5t-50 -71.5t-33 -86q-17 -93 40.5 -148t161.5 -55q82 0 173 39z" />
    <glyph glyph-name="uogonek" unicode="&#x173;" horiz-adv-x="1161" 
d="M90 389q-9 -50 -9 -96.5t8 -93.5t30 -86t55 -69t85.5 -47t119.5 -17q206 0 350 147l221 -135l183 1038h-242l-103 -584q-13 -67 -42.5 -118t-69 -79.5t-81.5 -42t-85 -13.5q-214 0 -170 253l102 584h-241zM999 -270q-68 -23 -102 -23q-46 0 -67 27.5t-15 70.5
q11 63 135 187l-106 71q-100 -91 -149.5 -157.5t-61.5 -130.5q-17 -93 41 -150t162 -57q81 0 172 39z" />
    <glyph glyph-name="Wcircumflex" unicode="&#x174;" horiz-adv-x="2095" 
d="M580 373l-154 1067h-264l227 -1444h229l519 1069l153 -1069h226l733 1444h-258l-525 -1067l-145 1069h-225zM1559 1610l-185 319h-168l-297 -319h181l172 153l118 -153h179z" />
    <glyph glyph-name="wcircumflex" unicode="&#x175;" horiz-adv-x="1558" 
d="M322 1028h-244l155 -1032h218l356 731l98 -731h223l521 1032h-244l-338 -709l-90 711h-223l-344 -713zM1229 1272l-185 319h-167l-297 -319h180l172 153l119 -153h178z" />
    <glyph glyph-name="Ycircumflex" unicode="&#x176;" horiz-adv-x="1333" 
d="M696 0l99 563l704 877h-276l-506 -647l-281 647h-286l397 -879l-101 -561h250zM1186 1610l-185 319h-167l-297 -319h180l172 153l119 -153h178z" />
    <glyph glyph-name="ycircumflex" unicode="&#x177;" horiz-adv-x="1062" 
d="M74 1026l270 -1030l-197 -361h215l793 1391h-252l-407 -760l-164 760h-258zM995 1272l-184 319h-168l-297 -319h180l172 153l119 -153h178z" />
    <glyph glyph-name="Ydieresis" unicode="&#x178;" horiz-adv-x="1333" 
d="M696 0l99 563l704 877h-276l-506 -647l-281 647h-286l397 -879l-101 -561h250zM700 1898q-32 0 -63 -10t-62.5 -43t-39.5 -84q-10 -62 22.5 -100.5t93.5 -38.5q60 0 108 38.5t60 100.5q10 60 -24.5 98.5t-94.5 38.5zM1112 1898q-31 0 -62 -10t-62.5 -43t-39.5 -84
q-12 -62 21.5 -100.5t95.5 -38.5q58 0 106 38.5t60 100.5q10 60 -24.5 98.5t-94.5 38.5z" />
    <glyph glyph-name="Zacute" unicode="&#x179;" horiz-adv-x="1302" 
d="M291 215l1095 1030l33 195h-1200l-37 -215h875l-1102 -1030l-35 -195h1217l39 215h-885zM963 1929l-252 -330h172l321 265z" />
    <glyph glyph-name="zacute" unicode="&#x17a;" horiz-adv-x="1052" 
d="M270 199l789 649l33 180h-945l-34 -197h639l-789 -653l-33 -178h971l37 199h-668zM823 1591l-252 -329h172l322 264z" />
    <glyph glyph-name="Zdotaccent" unicode="&#x17b;" horiz-adv-x="1302" 
d="M291 215l1095 1030l33 195h-1200l-37 -215h875l-1102 -1030l-35 -195h1217l39 215h-885zM907 1876q-35 0 -69 -10t-68.5 -45t-42.5 -92q-12 -64 25.5 -106t101.5 -42q68 0 120 42t62 106q12 68 -24.5 107.5t-104.5 39.5z" />
    <glyph glyph-name="zdotaccent" unicode="&#x17c;" horiz-adv-x="1052" 
d="M270 199l789 649l33 180h-945l-34 -197h639l-789 -653l-33 -178h971l37 199h-668zM702 1538q-35 0 -69 -10t-68.5 -45t-42.5 -92q-12 -64 25.5 -106t101.5 -42q68 0 120 42t62 106q12 68 -24.5 107.5t-104.5 39.5z" />
    <glyph glyph-name="Zcaron" unicode="&#x17d;" horiz-adv-x="1302" 
d="M291 215l1095 1030l33 195h-1200l-37 -215h875l-1102 -1030l-35 -195h1217l39 215h-885zM1223 1903h-191l-172 -160l-117 160h-192l192 -324h170z" />
    <glyph glyph-name="zcaron" unicode="&#x17e;" horiz-adv-x="1052" 
d="M270 199l789 649l33 180h-945l-34 -197h639l-789 -653l-33 -178h971l37 199h-668zM1049 1554h-191l-174 -161l-115 161h-194l194 -325h170z" />
    <glyph glyph-name="florin" unicode="&#x192;" horiz-adv-x="837" 
d="M195 731l-375 -983h235l383 983h215l70 193h-215l47 125q49 131 107.5 183t142.5 52q51 0 82 -16l71 192q-64 21 -155 21q-322 0 -463 -365l-76 -192h-153l-72 -193h156z" />
    <glyph glyph-name="uni01CD" unicode="&#x1cd;" horiz-adv-x="1447" 
d="M369 354h641l84 -354h270l-373 1444h-221l-879 -1444h263zM487 561l342 590l134 -590h-476zM1303 1919h-191l-172 -160l-117 160h-192l192 -324h170z" />
    <glyph glyph-name="uni01CE" unicode="&#x1ce;" horiz-adv-x="1165" 
d="M748 262q-122 -112 -277 -112q-101 0 -160 48.5t-43 137.5q11 61 56.5 105t104.5 63.5t124 19.5q129 0 229 -61zM1051 633q34 201 -78.5 307.5t-333.5 106.5q-196 0 -422 -86l-35 -199q179 90 383 90q138 0 204 -49t48 -154l-6 -33q-107 62 -287 62q-69 0 -132 -11
t-124 -36t-108 -63t-81.5 -96t-47.5 -130q-20 -113 24 -198t126.5 -126t185.5 -41q192 0 350 127l221 -112zM1114 1554h-190l-174 -161l-115 161h-195l195 -325h170z" />
    <glyph glyph-name="Aringacute" unicode="&#x1fa;" horiz-adv-x="1419" 
d="M860 1372q-36 0 -61.5 22t-16.5 72q6 39 38.5 66t74.5 27q40 0 62 -28t16 -67q-8 -39 -39.5 -65.5t-73.5 -26.5zM-109 0h263l180 293h657l78 -293h268l-370 1288q51 27 87 72.5t46 101.5q15 93 -40 157t-149 64q-89 0 -166 -63.5t-94 -155.5q-18 -110 66 -172zM942 500
h-483l340 557zM1085 2052l-254 -330h175l321 263z" />
    <glyph glyph-name="Aringacute" unicode="&#x1fb;" horiz-adv-x="1419" 
d="M860 1372q-36 0 -61.5 22t-16.5 72q6 39 38.5 66t74.5 27q40 0 62 -28t16 -67q-8 -39 -39.5 -65.5t-73.5 -26.5zM-109 0h263l180 293h657l78 -293h268l-370 1288q51 27 87 72.5t46 101.5q15 93 -40 157t-149 64q-89 0 -166 -63.5t-94 -155.5q-18 -110 66 -172zM942 500
h-483l340 557zM1085 2052l-254 -330h175l321 263z" />
    <glyph glyph-name="AEacute" unicode="&#x1fc;" horiz-adv-x="1951" 
d="M942 1440l-1051 -1440h263l268 354h469l-64 -354h1035l36 217h-782l72 410h702l37 207h-702l67 389h766l39 217h-1155zM928 561h-369l485 660zM1520 1929l-252 -330h172l321 265z" />
    <glyph glyph-name="aeacute" unicode="&#x1fd;" horiz-adv-x="1878" 
d="M1675 311q-95 -81 -188 -115t-209 -34q-204 0 -256 178l788 188q10 107 -10 200.5t-68.5 166t-133.5 114.5t-197 42q-224 0 -393 -166q-101 162 -365 162q-97 0 -213.5 -22.5t-220.5 -63.5l-35 -199q181 90 383 90q138 0 205 -49t47 -154l-6 -33q-104 62 -287 62
q-84 0 -159.5 -17t-143.5 -54t-117 -102.5t-69 -154.5q-19 -86 3.5 -157.5t75.5 -118t127.5 -72t159.5 -25.5q270 0 479 166q58 -87 156.5 -129.5t220.5 -40.5q210 0 387 117zM739 262q-118 -112 -276 -112q-100 0 -159.5 48.5t-43.5 137.5q16 91 99.5 139.5t187.5 48.5
q125 0 229 -61zM1032 522q23 137 113 236.5t219 99.5q100 0 159 -57t68 -152zM1247 1591l-252 -329h172l322 264z" />
    <glyph glyph-name="Oslashacute" unicode="&#x1fe;" horiz-adv-x="1695" 
d="M92 8l113 -102l178 186q143 -121 365 -121q160 0 311.5 59.5t268.5 161t198 240.5t108 293q29 155 -5 290.5t-126 235.5l162 170l-115 103l-170 -178q-150 122 -366 122q-215 0 -407.5 -100.5t-320 -272t-163.5 -376.5q-29 -160 5.5 -296.5t127.5 -238.5zM428 385
q-85 142 -51 332q18 105 71 201t129 167t175 114t204 44q148 3 256 -88zM1329 1049q85 -143 51 -332q-24 -137 -103 -252t-200.5 -187t-261.5 -79q-150 -3 -264 86zM1231 1929l-252 -330h172l322 265z" />
    <glyph glyph-name="oslashacute" unicode="&#x1ff;" horiz-adv-x="1220" 
d="M913 688q33 -84 17 -180q-27 -146 -132.5 -243t-248.5 -97q-96 0 -164 53zM311 322q-38 72 -14 186q25 143 128.5 239.5t246.5 96.5q105 0 164 -56zM-51 4l86 -100l184 168q115 -97 297 -97q238 0 421.5 153t223.5 380q35 192 -63 344l143 135l-84 96l-153 -139
q-105 94 -299 94q-236 0 -417.5 -153t-221.5 -377q-36 -195 63 -348zM913 1591l-251 -329h172l321 264z" />
    <glyph glyph-name="uni0218" unicode="&#x218;" horiz-adv-x="1222" 
d="M860 367q-10 -53 -41 -91t-75.5 -56.5t-88 -26t-92.5 -7.5q-133 0 -262 58t-229 170l-41 -246q168 -193 487 -193q103 0 197.5 23.5t175.5 69.5t139 123t80 176q19 93 1.5 166.5t-61 124t-104 92.5t-126.5 71t-129.5 59.5t-112 59t-74.5 69t-17 89.5q13 75 85.5 117
t185.5 42q109 0 211 -47.5t172 -144.5l45 260q-141 141 -404 141q-129 0 -244 -41.5t-198.5 -129t-103.5 -205.5q-13 -75 1 -138.5t49.5 -108.5t85 -83.5t107 -67.5t115 -56t109 -54.5t89.5 -57.5t57 -70t11 -87zM395 -510l180 389h-198l-137 -389h155z" />
    <glyph glyph-name="uni0219" unicode="&#x219;" horiz-adv-x="911" 
d="M571 283q-6 -36 -27.5 -61.5t-51 -37.5t-55.5 -17t-52 -5q-87 0 -175.5 43t-158.5 110l-39 -225q84 -53 165 -81.5t188 -28.5q171 0 289.5 88t142.5 225q12 69 -6.5 124.5t-57.5 91t-89 64.5t-101.5 51t-93 43t-65 48.5t-17.5 60.5q6 37 45.5 63.5t99.5 26.5
q133 0 285 -125l41 228q-124 82 -293 82q-162 0 -271.5 -76.5t-132.5 -206.5q-12 -68 7 -121t58.5 -86.5t90 -60t101.5 -48t92.5 -43.5t64.5 -54t16 -72zM233 -510l181 389h-199l-137 -389h155z" />
    <glyph glyph-name="uni021A" unicode="&#x21a;" horiz-adv-x="1144" 
d="M600 0l215 1221h430l39 219h-1108l-39 -219h430l-215 -1221h248zM358 -510l181 389h-199l-137 -389h155z" />
    <glyph glyph-name="uni021B" unicode="&#x21b;" horiz-adv-x="759" 
d="M186 279q-24 -138 35 -220t191 -82q92 0 163 35l33 197q-58 -27 -104 -27q-94 0 -76 111l94 534h258l37 201h-260l59 342l-540 -543h205zM248 -510l180 389h-199l-137 -389h156z" />
    <glyph glyph-name="uni0237" unicode="&#x237;" horiz-adv-x="442" 
d="M-215 -362q69 -15 121 -15q157 0 236.5 87t109.5 255l188 1063h-239l-193 -1089q-11 -63 -39 -96t-82 -33q-31 0 -69 12z" />
    <glyph glyph-name="circumflex" unicode="&#x2c6;" horiz-adv-x="727" 
d="M815 1272l-184 319h-168l-297 -319h180l172 153l119 -153h178z" />
    <glyph glyph-name="caron" unicode="&#x2c7;" horiz-adv-x="727" 
d="M879 1565h-191l-172 -160l-117 160h-192l192 -324h170z" />
    <glyph glyph-name="uni02C9" unicode="&#x2c9;" horiz-adv-x="833" 
d="M872 1231l29 158h-665l-29 -158h665z" />
    <glyph glyph-name="breve" unicode="&#x2d8;" horiz-adv-x="706" 
d="M702 1530q-31 -70 -82 -108t-116 -38q-66 0 -106 38t-46 108h-145q-9 -142 62 -230t200 -88q132 0 237 88.5t140 229.5h-144z" />
    <glyph glyph-name="dotaccent" unicode="&#x2d9;" horiz-adv-x="444" 
d="M397 1538q-35 0 -69 -10t-68.5 -45t-42.5 -92q-12 -64 25.5 -106t101.5 -42q68 0 120 42t62 106q12 68 -24.5 107.5t-104.5 39.5z" />
    <glyph glyph-name="ring" unicode="&#x2da;" horiz-adv-x="563" 
d="M403 1239q96 0 170 60t91 155q17 93 -37.5 157t-147.5 64q-92 0 -167.5 -63t-92.5 -156q-17 -91 38 -154t146 -63zM459 1550q36 0 61.5 -21t16.5 -73q-9 -40 -38.5 -66t-72.5 -26q-41 0 -63 25.5t-15 68.5q6 38 38.5 65t72.5 27z" />
    <glyph glyph-name="ogonek" unicode="&#x2db;" horiz-adv-x="776" 
d="M416 -270q-68 -23 -103 -23q-44 0 -67 26t-17 66q7 38 37 79.5t101 121.5h-168q-44 -47 -66.5 -72t-50 -70.5t-33.5 -86.5q-17 -93 41 -148t162 -55q81 0 172 39z" />
    <glyph glyph-name="tilde" unicode="&#x2dc;" horiz-adv-x="786" 
d="M301 1233q48 94 121 94q36 0 110.5 -38t122.5 -38q142 0 258 240l-137 29q-27 -51 -50 -72t-54 -21q-30 0 -106.5 37t-129.5 37q-158 0 -274 -244z" />
    <glyph glyph-name="hungarumlaut" unicode="&#x2dd;" horiz-adv-x="845" 
d="M317 1237l330 297l-219 41l-287 -338h176zM684 1237l330 293l-219 45l-287 -338h176z" />
    <glyph glyph-name="gravecomb" unicode="&#x300;" 
d="M193 1526l229 -264h178l-145 329z" />
    <glyph glyph-name="acutecomb" unicode="&#x301;" 
d="M412 1591l-252 -329h172l321 264z" />
    <glyph glyph-name="uni0302" unicode="&#x302;" 
d="M815 1272l-184 319h-168l-297 -319h180l172 153l119 -153h178z" />
    <glyph glyph-name="tildecomb" unicode="&#x303;" 
d="M303 1233q46 94 119 94q36 0 110.5 -38t122.5 -38q142 0 258 240l-137 29q-27 -52 -49 -72.5t-53 -20.5q-32 0 -109 37t-129 37q-159 0 -272 -244z" />
    <glyph glyph-name="uni0304" unicode="&#x304;" 
d="M872 1231l29 158h-665l-29 -158h665z" />
    <glyph glyph-name="uni0306" unicode="&#x306;" 
d="M702 1530q-31 -70 -82 -108t-116 -38q-66 0 -106 38t-46 108h-145q-9 -142 62 -230t200 -88q132 0 237 88.5t140 229.5h-144z" />
    <glyph glyph-name="uni0307" unicode="&#x307;" 
d="M397 1538q-35 0 -69 -10t-68.5 -45t-42.5 -92q-12 -64 25.5 -106t101.5 -42q68 0 120 42t62 106q12 68 -24.5 107.5t-104.5 39.5z" />
    <glyph glyph-name="uni0308" unicode="&#x308;" 
d="M356 1546q-53 0 -98.5 -33.5t-56.5 -97.5q-9 -59 20.5 -95t87.5 -36q57 0 103.5 37t56.5 94q9 57 -22 94t-91 37zM758 1546q-53 0 -98.5 -33.5t-55.5 -97.5q-10 -58 20 -94.5t89 -36.5q55 0 101 37t56 94q9 58 -22 94.5t-90 36.5z" />
    <glyph glyph-name="uni030A" unicode="&#x30a;" 
d="M401 1239q101 0 173.5 59.5t89.5 155.5q17 93 -37.5 157t-147.5 64t-168 -63t-92 -156q-17 -91 38 -154t144 -63zM459 1550q36 0 61 -21.5t17 -72.5q-6 -39 -37 -65.5t-74 -26.5q-41 0 -63 25.5t-15 68.5q6 38 38.5 65t72.5 27z" />
    <glyph glyph-name="uni030B" unicode="&#x30b;" 
d="M317 1237l330 297l-219 41l-287 -338h176zM684 1237l330 293l-219 45l-287 -338h176z" />
    <glyph glyph-name="uni030C" unicode="&#x30c;" 
d="M879 1554h-191l-174 -161l-115 161h-194l194 -325h170z" />
    <glyph glyph-name="uni030F" unicode="&#x30f;" 
d="M207 1526l227 -264h178l-143 329zM555 1526l227 -264h179l-144 329z" />
    <glyph glyph-name="uni0311" unicode="&#x311;" 
d="M295 1212q31 70 82.5 108t116.5 38q66 0 105.5 -38t45.5 -108h146q9 142 -62.5 230t-200.5 88q-132 0 -236.5 -88.5t-139.5 -229.5h143z" />
    <glyph glyph-name="uni0312" unicode="&#x312;" 
d="M485 1724l-278 -600h252l209 600h-183z" />
    <glyph glyph-name="uni0326" unicode="&#x326;" 
d="M158 -489l180 389h-199l-137 -389h156z" />
    <glyph glyph-name="uni0327" unicode="&#x327;" 
d="M223 -143l111 143h-135l-166 -197l37 -34q47 18 80 18q37 0 55 -15t14 -44q-8 -42 -52 -63t-87 -21q-50 0 -111 24l-51 -92q85 -45 180 -45q43 0 86 10t85 30t72.5 57t39.5 85q12 74 -34 109t-114 35h-10z" />
    <glyph glyph-name="uni0328" unicode="&#x328;" 
d="M416 -270q-68 -23 -103 -23q-44 0 -67 26t-17 66q7 38 37 79.5t101 121.5h-168q-44 -47 -66.5 -72t-50 -70.5t-33.5 -86.5q-17 -93 41 -148t162 -55q81 0 172 39z" />
    <glyph glyph-name="uni0374" unicode="&#x374;" horiz-adv-x="901" 
d="M594 1675l-275 -452h170l424 452h-319z" />
    <glyph glyph-name="uni0375" unicode="&#x375;" horiz-adv-x="901" 
d="M311 -397l277 454h-174l-422 -454h319z" />
    <glyph glyph-name="uni037E" unicode="&#x37e;" horiz-adv-x="548" 
d="M356 1047q-64 0 -118.5 -40t-67.5 -116q-12 -70 25.5 -114t105.5 -44q66 0 119 44.5t65 113.5q13 69 -25 112.5t-104 43.5zM88 -301l277 600h-254l-207 -600h184z" />
    <glyph glyph-name="tonos" unicode="&#x384;" horiz-adv-x="901" 
d="M594 1675l-252 -329h170l401 329h-319z" />
    <glyph glyph-name="dieresistonos" unicode="&#x385;" horiz-adv-x="1058" 
d="M389 1597q-56 0 -99 -39.5t-52 -93.5q-9 -49 14.5 -91t89.5 -42q59 0 103 38t55 95q9 54 -22 93.5t-89 39.5zM702 1663l-223 -330h162l360 330h-299zM887 1464q-9 -49 14.5 -91t89.5 -42q59 0 104 38.5t54 94.5q9 54 -22 93.5t-89 39.5q-54 0 -98 -39.5t-53 -93.5z" />
    <glyph glyph-name="Alphatonos" unicode="&#x386;" horiz-adv-x="1554" 
d="M475 354h641l84 -354h270l-372 1444h-221l-879 -1444h262zM594 561l342 590l133 -590h-475zM342 1571l-252 -330h170l402 330h-320z" />
    <glyph glyph-name="anoteleia" unicode="&#x387;" horiz-adv-x="634" 
d="M375 877q-24 0 -49.5 -6.5t-55 -22t-52 -48.5t-30.5 -79q-12 -70 25.5 -115t105.5 -45q69 0 121 44.5t66 115.5q12 68 -26.5 112t-104.5 44z" />
    <glyph glyph-name="Epsilontonos" unicode="&#x388;" horiz-adv-x="1425" 
d="M459 217l71 410h701l37 207h-701l68 389h766l37 217h-1014l-254 -1440h1032l39 217h-782zM135 1571l-252 -330h170l402 330h-320z" />
    <glyph glyph-name="Etatonos" unicode="&#x389;" horiz-adv-x="1619" 
d="M444 1442l-254 -1442h250l109 618h692l-111 -618h248l254 1442h-248l-104 -598h-692l104 598h-248zM135 1571l-252 -330h170l402 330h-320z" />
    <glyph glyph-name="Iotatonos" unicode="&#x38a;" horiz-adv-x="542" 
d="M301 0l254 1440h-250l-254 -1440h250zM43 1571l-252 -330h170l401 330h-319z" />
    <glyph glyph-name="Omicrontonos" unicode="&#x38c;" horiz-adv-x="1761" 
d="M809 -29q147 0 279.5 40t234 110.5t180.5 165.5t128 205t67 229q25 153 -8 290t-113.5 238t-210 160t-289.5 59q-215 0 -407.5 -100.5t-320.5 -272t-165 -376.5q-37 -206 30.5 -377t224 -271t370.5 -100zM1034 1245q101 0 180 -27.5t128 -76t79 -115.5t33 -145t-10 -164
q-20 -106 -74.5 -201.5t-132 -166.5t-179 -112.5t-208.5 -41.5q-145 0 -249 71t-146 191.5t-17 267.5q39 219 208 369.5t388 150.5zM246 1571l-252 -330h170l401 330h-319z" />
    <glyph glyph-name="Upsilontonos" unicode="&#x38e;" horiz-adv-x="1558" 
d="M920 0l98 563l704 877h-276l-506 -647l-281 647h-286l397 -879l-100 -561h250zM57 1571l-252 -330h170l402 330h-320z" />
    <glyph glyph-name="Omegatonos" unicode="&#x38f;" horiz-adv-x="1781" 
d="M915 0h641l39 217h-354q162 86 272.5 240t141.5 327q27 154 -5 283.5t-112 216.5t-202.5 135.5t-274.5 48.5q-149 0 -290 -48t-254 -134.5t-193 -214.5t-107 -280q-30 -173 26.5 -330.5t186.5 -243.5h-354l-37 -217h647l39 225q-151 84 -220 220.5t-36 314.5
q37 215 187 350t362 135q213 0 314.5 -135t64.5 -350q-62 -344 -443 -535zM276 1571l-251 -330h170l401 330h-320z" />
    <glyph glyph-name="iotadieresistonos" unicode="&#x390;" horiz-adv-x="745" 
d="M375 0l182 1028h-242l-182 -1028h242zM229 1597q-56 0 -99 -39.5t-52 -93.5q-9 -49 14.5 -91t89.5 -42q59 0 103 38t55 95q9 54 -22 93.5t-89 39.5zM543 1663l-224 -330h162l361 330h-299zM727 1464q-9 -49 14.5 -91t89.5 -42q59 0 104 38.5t54 94.5q9 54 -21.5 93.5
t-88.5 39.5q-54 0 -98.5 -39.5t-53.5 -93.5z" />
    <glyph glyph-name="Alpha" unicode="&#x391;" horiz-adv-x="1447" 
d="M369 354h641l84 -354h270l-373 1444h-221l-879 -1444h263zM487 561l342 590l134 -590h-476z" />
    <glyph glyph-name="Beta" unicode="&#x392;" horiz-adv-x="1359" 
d="M305 1440l-254 -1440h559q281 0 443.5 110t193.5 287q27 139 -38 231.5t-220 121.5q109 38 180 123.5t91 203.5q16 94 -11 165t-89.5 113.5t-147.5 63.5t-189 21h-518zM442 827l72 406h260q127 0 188 -50t44 -149q-18 -95 -96.5 -151t-211.5 -56h-256zM334 209l76 426
h270q191 0 267.5 -54t58.5 -159q-39 -213 -353 -213h-319z" />
    <glyph glyph-name="Gamma" unicode="&#x393;" horiz-adv-x="1175" 
d="M301 0l215 1221h758l39 219h-1008l-254 -1440h250z" />
    <glyph glyph-name="Epsilon" unicode="&#x395;" horiz-adv-x="1304" 
d="M340 217l72 410h700l37 207h-700l67 389h766l37 217h-1014l-254 -1440h1032l39 217h-782z" />
    <glyph glyph-name="Zeta" unicode="&#x396;" horiz-adv-x="1302" 
d="M291 215l1095 1030l33 195h-1200l-37 -215h877l-1104 -1030l-35 -195h1217l39 215h-885z" />
    <glyph glyph-name="Eta" unicode="&#x397;" horiz-adv-x="1482" 
d="M305 1442l-254 -1442h250l109 618h692l-111 -618h248l254 1442h-248l-104 -598h-692l104 598h-248z" />
    <glyph glyph-name="Theta" unicode="&#x398;" horiz-adv-x="1701" 
d="M750 -29q183 0 341.5 61.5t269.5 166.5t182.5 239t94.5 283q25 153 -8 290t-113 238t-209.5 160t-289.5 59q-215 0 -407.5 -100.5t-320.5 -272t-165 -376.5q-37 -206 30.5 -377t224 -271t370.5 -100zM975 1245q101 0 179.5 -27.5t127.5 -76t79 -115.5t33 -145t-10 -164
q-26 -142 -110.5 -261t-212 -190t-270.5 -71q-145 0 -249 71t-146 191.5t-17 267.5q39 219 208 369.5t388 150.5zM545 618h637l39 226h-637z" />
    <glyph glyph-name="Iota" unicode="&#x399;" horiz-adv-x="542" 
d="M301 0l254 1440h-250l-254 -1440h250z" />
    <glyph glyph-name="Kappa" unicode="&#x39a;" horiz-adv-x="1267" 
d="M449 842l104 598h-248l-254 -1440h250l123 700l448 -700h306l-500 784l708 656h-305z" />
    <glyph glyph-name="Lambda" unicode="&#x39b;" horiz-adv-x="1415" 
d="M1061 0l-250 1151l-657 -1151h-263l863 1444h221l354 -1444h-268z" />
    <glyph glyph-name="Mu" unicode="&#x39c;" horiz-adv-x="1585" 
d="M383 1044l365 -747l626 750l-184 -1047h246l252 1434h-250l-623 -760l-356 760h-254l-252 -1434h246z" />
    <glyph glyph-name="Nu" unicode="&#x39d;" horiz-adv-x="1548" 
d="M1130 397l-587 1037h-240l-252 -1434h246l184 1051l592 -1051h232l254 1440h-244z" />
    <glyph glyph-name="Xi" unicode="&#x39e;" horiz-adv-x="1282" 
d="M258 1202h995l43 238h-995zM29 0h1032l43 238h-1032zM219 616h868l41 228h-868z" />
    <glyph glyph-name="Omicron" unicode="&#x39f;" horiz-adv-x="1701" 
d="M750 -29q147 0 279 40t233.5 110.5t180.5 165.5t127.5 205t67.5 229q25 153 -8.5 290.5t-113.5 238t-209.5 159.5t-288.5 59q-215 0 -407.5 -100.5t-320.5 -272t-165 -376.5q-37 -206 30 -377t223.5 -271t371.5 -100zM975 1245q101 0 179.5 -27.5t127.5 -76t78.5 -115.5
t32.5 -145t-11 -164q-19 -106 -73 -201.5t-131.5 -166.5t-178.5 -112.5t-208 -41.5q-145 0 -249 71t-146 191.5t-17 267.5q39 219 208 369.5t388 150.5z" />
    <glyph glyph-name="Pi" unicode="&#x3a0;" horiz-adv-x="1447" 
d="M305 1442l-254 -1442h250l215 1217h655l-215 -1217h248l254 1444z" />
    <glyph glyph-name="Rho" unicode="&#x3a1;" horiz-adv-x="1261" 
d="M305 1440l-254 -1444h250l92 522h250q244 0 422 125t217 346q38 212 -87 331.5t-374 119.5h-516zM430 725l88 502h246q151 0 220 -62.5t48 -187.5q-22 -120 -115.5 -186t-242.5 -66h-244z" />
    <glyph glyph-name="Sigma" unicode="&#x3a3;" horiz-adv-x="1280" 
d="M164 1245l364 -522l-573 -528l-35 -195h1190l39 215h-858l547 508l-355 502h830l37 215h-1151z" />
    <glyph glyph-name="Tau" unicode="&#x3a4;" horiz-adv-x="1144" 
d="M600 0l215 1221h430l39 219h-1108l-39 -219h430l-215 -1221h248z" />
    <glyph glyph-name="Upsilon" unicode="&#x3a5;" horiz-adv-x="1333" 
d="M696 0l99 563l704 877h-276l-506 -647l-281 647h-286l397 -879l-101 -561h250z" />
    <glyph glyph-name="Phi" unicode="&#x3a6;" horiz-adv-x="1837" 
d="M1202 1450h-241l-19 -113q-45 0 -84 -8q-154 -14 -284.5 -67t-222.5 -134.5t-151.5 -185t-80.5 -221.5q-28 -160 20 -288.5t177 -213.5t327 -104q23 -5 80 -9l-21 -116h242l21 116q63 4 84 9q152 16 281 69t221 133.5t151 184.5t80 223q21 116 -2 218.5t-86.5 183.5
t-174 134.5t-257.5 67.5q-33 8 -80 8zM1145 1118q215 -12 313 -120t68 -279t-166 -277.5t-356 -119.5zM762 322q-216 13 -319 120t-72 281q31 172 172 279t360 116z" />
    <glyph glyph-name="Chi" unicode="&#x3a7;" horiz-adv-x="1341" 
d="M481 1440h-286l364 -705l-643 -735h285l469 549l276 -549h285l-379 739l606 701h-278l-439 -514z" />
    <glyph glyph-name="Psi" unicode="&#x3a8;" horiz-adv-x="1726" 
d="M1409 905q-35 -206 -142 -306.5t-290 -100.5l166 942h-248l-166 -942q-182 0 -252 100.5t-33 306.5l93 535h-246l-94 -529q-57 -317 75.5 -478t417.5 -161l-49 -272h248l49 272q289 0 475.5 160.5t243.5 480.5l92 527h-246z" />
    <glyph glyph-name="uni03A9" unicode="&#x3a9;" horiz-adv-x="1775" 
d="M909 0h641l39 217h-354q162 86 272.5 240t141.5 327q27 154 -5 283.5t-112 216.5t-202.5 135.5t-274.5 48.5q-149 0 -290 -48t-254 -134.5t-193 -214.5t-107 -280q-30 -173 26.5 -330.5t186.5 -243.5h-354l-37 -217h647l39 225q-151 84 -220 220.5t-36 314.5
q37 215 187 350t362 135q213 0 314.5 -135t64.5 -350q-62 -344 -443 -535z" />
    <glyph glyph-name="Iotadieresis" unicode="&#x3aa;" horiz-adv-x="577" 
d="M315 0l254 1440h-250l-253 -1440h249zM307 1898q-32 0 -63.5 -10t-63 -43t-39.5 -84q-10 -62 23 -100.5t94 -38.5q60 0 108 38.5t60 100.5q10 60 -24.5 98.5t-94.5 38.5zM719 1898q-31 0 -62 -10t-62.5 -43t-39.5 -84q-12 -62 21.5 -100.5t95.5 -38.5q58 0 106 38.5
t60 100.5q10 60 -24.5 98.5t-94.5 38.5z" />
    <glyph glyph-name="Upsilondieresis" unicode="&#x3ab;" horiz-adv-x="1333" 
d="M696 0l99 563l704 877h-276l-506 -647l-281 647h-286l397 -879l-101 -561h250zM700 1898q-31 0 -60.5 -9t-60.5 -42t-40 -86q-10 -62 22.5 -99.5t93.5 -39.5q62 0 109 38.5t59 100.5q9 61 -26 99t-97 38zM1114 1898q-31 0 -61 -9t-61 -42t-40 -86q-10 -62 23 -99.5
t94 -39.5q62 0 109 38.5t59 100.5q9 61 -26 99t-97 38z" />
    <glyph glyph-name="alphatonos" unicode="&#x3ac;" horiz-adv-x="1290" 
d="M307 535q26 146 124 229.5t237 83.5q136 0 208 -98t48 -234q-25 -135 -140.5 -234.5t-255.5 -99.5q-133 0 -190.5 100.5t-30.5 252.5zM1065 0l180 1028h-241l-29 -166q-56 95 -135 143t-193 48q-111 0 -211.5 -44t-175.5 -118t-126.5 -171.5t-70.5 -205.5
q-13 -87 -7.5 -166t38 -147t81.5 -117.5t122.5 -78t161.5 -28.5q226 0 393 191zM940 1675l-252 -329h170l402 329h-320z" />
    <glyph glyph-name="epsilontonos" unicode="&#x3ad;" horiz-adv-x="991" 
d="M266 311q-6 -39 10 -66t49 -40t66 -18t70 -5q127 0 291 72l12 -201q-183 -76 -356 -76q-182 0 -295.5 87t-89.5 223q18 92 89.5 158t186.5 92q-86 35 -123.5 98t-23.5 143q24 130 148.5 202.5t293.5 72.5q166 0 311 -80l-96 -201q-102 76 -236 76q-75 0 -126 -27t-60 -76
q-10 -55 42 -85.5t153 -30.5h84l-33 -185h-101q-122 0 -189 -38t-77 -95zM786 1675l-251 -329h170l401 329h-320z" />
    <glyph glyph-name="etatonos" unicode="&#x3ae;" horiz-adv-x="1187" 
d="M1077 655q16 102 1.5 176.5t-57 123.5t-102.5 72.5t-135 23.5q-197 0 -354 -160l-219 137l-182 -1028h241l105 582q12 68 42.5 119.5t71.5 80t82.5 42.5t83.5 14q88 0 139.5 -62.5t28.5 -193.5l-102 -582h242zM930 1675l-252 -329h170l401 329h-319z" />
    <glyph glyph-name="iotatonos" unicode="&#x3af;" horiz-adv-x="485" 
d="M270 0l183 1028h-242l-182 -1028h241zM559 1675l-252 -329h170l402 329h-320z" />
    <glyph glyph-name="upsilondieresistonos" unicode="&#x3b0;" horiz-adv-x="1161" 
d="M1133 1030h-242l-105 -598q-19 -105 -92.5 -175.5t-177.5 -70.5q-221 0 -178 246l104 598h-241l-101 -571q-41 -237 55.5 -359.5t327.5 -122.5q462 0 549 488zM467 1597q-56 0 -99.5 -39.5t-52.5 -93.5q-9 -49 15 -91t90 -42q59 0 103 38t55 95q9 54 -22 93.5t-89 39.5z
M780 1663l-223 -330h162l360 330h-299zM965 1464q-9 -49 14.5 -91t89.5 -42q59 0 104 38.5t54 94.5q9 54 -22 93.5t-89 39.5q-54 0 -98 -39.5t-53 -93.5z" />
    <glyph glyph-name="alpha" unicode="&#x3b1;" horiz-adv-x="1290" 
d="M307 535q26 146 124 229.5t237 83.5q136 0 208 -98t48 -234q-25 -135 -140.5 -234.5t-255.5 -99.5q-133 0 -190.5 100.5t-30.5 252.5zM1065 0l180 1028h-241l-29 -166q-56 95 -135 143t-193 48q-111 0 -211.5 -44t-175.5 -118t-126.5 -171.5t-70.5 -205.5
q-13 -87 -7.5 -166t38 -147t81.5 -117.5t122.5 -78t161.5 -28.5q226 0 393 191z" />
    <glyph glyph-name="beta" unicode="&#x3b2;" horiz-adv-x="1267" 
d="M360 514q-13 -80 5 -144.5t59.5 -104t97 -60.5t119.5 -21q109 0 194 71.5t105 180.5q21 116 -53 184.5t-246 77.5l27 152q129 17 208.5 78.5t96.5 158.5q19 101 -38.5 156t-162.5 55q-131 0 -215.5 -81t-105.5 -205zM1178 416q-19 -108 -70.5 -193t-124 -137t-158 -79
t-178.5 -27q-118 0 -206.5 49t-141.5 135l-92 -529h-242l244 1379q19 104 67.5 193t123.5 156t181 105.5t230 38.5q217 0 327.5 -108t80.5 -279q-40 -221 -304 -325q151 -20 221 -122t42 -257z" />
    <glyph glyph-name="gamma" unicode="&#x3b3;" horiz-adv-x="1056" 
d="M489 -365l66 381l594 1010h-252l-414 -750l-149 750h-260l239 -1014l-65 -377h241z" />
    <glyph glyph-name="delta" unicode="&#x3b4;" horiz-adv-x="1243" 
d="M678 805q152 0 215.5 -84t36.5 -221q-24 -126 -130 -222t-243 -96q-138 0 -209 95t-47 227q22 130 128.5 215.5t248.5 85.5zM670 1307h489l37 200h-852l-35 -200l371 -322q-142 13 -276.5 -47.5t-226.5 -176.5t-116 -259q-26 -145 25 -265.5t165.5 -190t268.5 -69.5
q155 0 295 69t234.5 190t119.5 268q28 161 -31.5 284t-185.5 240z" />
    <glyph glyph-name="epsilon" unicode="&#x3b5;" horiz-adv-x="933" 
d="M266 311q-6 -39 10 -66t49 -40t66 -18t70 -5q127 0 291 72l12 -201q-183 -76 -356 -76q-182 0 -295.5 87t-89.5 223q18 92 89.5 158t186.5 92q-86 35 -123.5 98t-23.5 143q24 130 148.5 202.5t293.5 72.5q166 0 311 -80l-96 -201q-102 76 -236 76q-75 0 -126 -27t-60 -76
q-10 -55 42 -85.5t153 -30.5h84l-33 -185h-101q-122 0 -189 -38t-77 -95z" />
    <glyph glyph-name="zeta" unicode="&#x3b6;" horiz-adv-x="878" 
d="M1010 1294q-181 -103 -333.5 -238.5t-255.5 -289t-128 -295.5q-21 -120 31 -195.5t192 -103.5q279 -61 236 -295q-16 -100 -90 -219l-216 20q56 80 70 156q11 55 -15.5 94t-113.5 56q-190 39 -279.5 155t-54.5 320q38 223 217 441.5t480 408.5h-453l35 198h717z" />
    <glyph glyph-name="eta" unicode="&#x3b7;" horiz-adv-x="1173" 
d="M1077 655q16 102 1.5 176.5t-57 123.5t-102.5 72.5t-135 23.5q-197 0 -354 -160l-219 137l-182 -1028h241l105 582q12 68 42.5 119.5t71.5 80t82.5 42.5t83.5 14q88 0 139.5 -62.5t28.5 -193.5l-102 -582h242z" />
    <glyph glyph-name="theta" unicode="&#x3b8;" horiz-adv-x="1241" 
d="M1204 752q20 127 22 240t-26 207.5t-78 163t-134 106.5t-195 38q-115 0 -216.5 -44t-177 -117.5t-135.5 -174t-98 -210t-60 -228.5q-13 -75 -17.5 -149t2 -149.5t24 -142t51.5 -125t81.5 -100.5t117 -66t155.5 -24q103 0 193.5 33t159 91t125 132.5t96.5 163.5t67 176.5
t43 178.5zM377 864q13 55 34 110t55 116.5t74 107.5t96 76.5t118 30.5t108 -29.5t69.5 -76.5t38 -106t13.5 -118t-4 -111h-602zM944 668q-13 -59 -33 -119t-54.5 -128t-76 -119.5t-100.5 -85.5t-125 -34q-126 0 -183 133.5t-30 352.5h602z" />
    <glyph glyph-name="iota" unicode="&#x3b9;" horiz-adv-x="485" 
d="M270 0l183 1028h-242l-182 -1028h241z" />
    <glyph glyph-name="kappa" unicode="&#x3ba;" horiz-adv-x="1036" 
d="M383 629l70 399h-242l-182 -1028h241l86 487l293 -487h281l-342 569l508 459h-291z" />
    <glyph glyph-name="lambda" unicode="&#x3bb;" horiz-adv-x="1079" 
d="M506 1057l-598 -1057h260l412 784l157 -784h252l-274 1188q-11 45 -16.5 67t-19 62.5t-25.5 62t-33 49.5t-44.5 42.5t-57.5 25t-75 10.5q-97 0 -215 -41l21 -190q80 43 127 43q31 0 56.5 -33t40 -80.5t22.5 -85t10 -61.5v-2z" />
    <glyph glyph-name="uni03BC" unicode="&#x3bc;" horiz-adv-x="1204" 
d="M213 -365h-242l246 1395h242l-103 -584q-23 -125 27.5 -190.5t138.5 -65.5q102 0 180.5 67t100.5 189l104 584h242l-182 -1030l-219 135q-53 -72 -124 -113.5t-145 -41.5q-67 0 -114.5 33.5t-67.5 97.5z" />
    <glyph glyph-name="nu" unicode="&#x3bd;" horiz-adv-x="1073" 
d="M649 -4l606 1030h-251l-414 -750l-150 750h-260l242 -1030h227z" />
    <glyph glyph-name="xi" unicode="&#x3be;" horiz-adv-x="878" 
d="M41 393q-6 -49 -8 -89.5t9 -76t24.5 -63t37.5 -51.5t49 -42.5t59 -34.5t66.5 -27.5t71.5 -22.5q46 -13 78 -29.5t46.5 -33t23 -34t6.5 -32.5t-2 -29q-14 -63 -68 -150l213 -20q74 119 88 221q5 38 5 73.5t-14.5 69t-40 61.5t-72.5 51t-113 38q-251 58 -215 250
q25 138 144 196t321 58l32 198q-168 0 -236 51t-52 144q13 70 59 117.5t119 70.5t147 32t166 9l37 209h-719l-35 -200h240q-107 -34 -174 -102t-82 -156q-15 -91 32 -161t144 -112q-147 -31 -254.5 -137t-132.5 -246z" />
    <glyph glyph-name="omicron" unicode="&#x3bf;" horiz-adv-x="1249" 
d="M520 -23q134 0 249.5 42t197.5 115t136 170.5t73 211.5q25 147 -24.5 270t-165 195t-273.5 72q-118 0 -229.5 -42.5t-197.5 -115.5t-145.5 -172.5t-79.5 -210.5q-26 -147 23.5 -269.5t164.5 -194t271 -71.5zM674 848q157 0 223.5 -94t38.5 -240q-27 -137 -134.5 -234.5
t-242.5 -97.5t-208.5 96.5t-47.5 237.5q24 141 127.5 236.5t243.5 95.5z" />
    <glyph glyph-name="pi" unicode="&#x3c0;" horiz-adv-x="1153" 
d="M1122 1028h-911l-182 -1028h241l148 831h428l-146 -831h242z" />
    <glyph glyph-name="rho" unicode="&#x3c1;" horiz-adv-x="1277" 
d="M600 182q156 0 249.5 94.5t115.5 239.5q22 139 -47 233.5t-205 94.5q-133 0 -240 -95.5t-133 -242.5q-23 -139 50.5 -231.5t209.5 -92.5zM111 516q41 237 223 387t420 150q155 0 267 -66.5t162 -189.5t23 -281q-19 -108 -71 -205t-127.5 -170.5t-177 -117t-212.5 -43.5
q-225 0 -329 180l-92 -525h-242z" />
    <glyph glyph-name="uni03C2" unicode="&#x3c2;" horiz-adv-x="1046" 
d="M666 -342q78 111 94 209q10 61 -0.5 108.5t-41.5 82.5t-70 59.5t-97 48.5q-34 15 -61.5 30t-55 35t-46.5 41t-36 48.5t-23.5 58.5t-9.5 69.5t7 81.5q22 128 111.5 222t213.5 94q59 0 118.5 -19.5t98.5 -52.5l111 174q-113 101 -299 101q-223 0 -389 -152t-205 -379
q-34 -195 40 -328.5t236 -197.5q90 -34 130 -68t32 -86q-17 -82 -78 -160z" />
    <glyph glyph-name="sigma" unicode="&#x3c3;" horiz-adv-x="1318" 
d="M1047 827q82 -55 112 -143t12 -192q-40 -223 -224.5 -369t-426.5 -146q-118 0 -214.5 41.5t-156.5 112t-84.5 167t-5.5 202.5q18 104 75.5 199t144 168.5t206 117t252.5 43.5h639l-35 -201h-294zM559 182q139 0 243 91t132 229q28 142 -44 231.5t-216 89.5
q-142 0 -246 -91t-129 -228q-22 -129 52 -225.5t208 -96.5z" />
    <glyph glyph-name="tau" unicode="&#x3c4;" horiz-adv-x="821" 
d="M113 1028h768l-37 -201h-269l-90 -518q-22 -127 80 -127q51 0 101 29l-33 -199q-78 -35 -166 -35q-129 0 -190 78t-35 224l96 548h-262z" />
    <glyph glyph-name="upsilon" unicode="&#x3c5;" horiz-adv-x="1161" 
d="M1133 1030h-242l-105 -598q-19 -105 -92.5 -175.5t-177.5 -70.5q-221 0 -178 246l104 598h-241l-101 -571q-41 -237 55.5 -359.5t327.5 -122.5q462 0 549 488z" />
    <glyph glyph-name="phi" unicode="&#x3c6;" horiz-adv-x="1574" 
d="M842 182q183 11 290.5 103.5t143.5 275.5q7 40 9 79t-4.5 80t-22.5 71t-48 49.5t-77 19.5q-171 0 -226 -309zM567 -16q-124 9 -223.5 51.5t-167.5 114t-94.5 178.5t-3.5 237q25 140 106 268.5t209 227.5h250q-286 -240 -328 -481q-32 -172 42.5 -281.5t244.5 -118.5
l53 293q12 69 25 124.5t34.5 119t47.5 111.5t65 94.5t86 76.5t111.5 48t140.5 18q206 0 296.5 -133.5t51.5 -353.5q-44 -255 -236.5 -416t-467.5 -176l-64 -346h-237z" />
    <glyph glyph-name="chi" unicode="&#x3c7;" horiz-adv-x="1062" 
d="M856 1026l-313 -432l-160 432h-270l256 -657l-521 -734h258l349 506l168 -506h270l-264 742l487 649h-260z" />
    <glyph glyph-name="psi" unicode="&#x3c8;" horiz-adv-x="1564" 
d="M504 -365h241l60 345q91 0 173.5 17t159 56t136.5 96.5t104 142.5t62 191l96 547h-242l-96 -549q-14 -79 -51.5 -138t-88.5 -92t-105 -49t-111 -16l231 1313h-242l-233 -1313q-304 0 -250 299l94 545h-241l-97 -551q-22 -123 1.5 -218.5t86 -156.5t156.5 -92.5t215 -31.5
z" />
    <glyph glyph-name="omega" unicode="&#x3c9;" horiz-adv-x="1660" 
d="M991 778h-241l-50 -268q-10 -58 -29 -112.5t-48.5 -108.5t-74.5 -86.5t-99 -32.5q-62 0 -102 47t-50 126t6 181q25 140 105.5 267t240.5 270h-258q-275 -238 -328 -541q-22 -114 -7.5 -213.5t55.5 -172.5t118 -115t179 -42q215 0 354 179q35 -82 106.5 -130.5
t182.5 -48.5q205 0 351.5 151.5t188.5 391.5q53 310 -139 541h-258q110 -143 146 -270.5t12 -266.5q-28 -157 -103 -255.5t-172 -98.5q-84 0 -124 82t-9 258z" />
    <glyph glyph-name="iotadieresis" unicode="&#x3ca;" horiz-adv-x="565" 
d="M291 0l182 1028h-242l-182 -1028h242zM244 1546q-53 0 -99 -33.5t-57 -97.5q-9 -59 21 -95t88 -36q57 0 103 37t56 94q9 58 -22 94.5t-90 36.5zM645 1546q-53 0 -98 -33.5t-55 -97.5q-10 -58 19.5 -94.5t88.5 -36.5q55 0 101.5 37t56.5 94q9 57 -22 94t-91 37z" />
    <glyph glyph-name="upsilondieresis" unicode="&#x3cb;" horiz-adv-x="1161" 
d="M561 1546q-53 0 -98.5 -33.5t-56.5 -97.5q-9 -59 20.5 -95t87.5 -36q57 0 103.5 37t56.5 94q9 57 -22 94t-91 37zM963 1546q-53 0 -98.5 -33.5t-55.5 -97.5q-10 -58 20 -94.5t89 -36.5q55 0 101 37t56 94q9 58 -22 94.5t-90 36.5zM1133 1030h-242l-105 -598
q-19 -105 -92.5 -175.5t-177.5 -70.5q-221 0 -178 246l104 598h-241l-101 -571q-41 -237 55.5 -359.5t327.5 -122.5q462 0 549 488z" />
    <glyph glyph-name="omicrontonos" unicode="&#x3cc;" horiz-adv-x="1249" 
d="M520 -23q134 0 249.5 42t197.5 115t136 170.5t73 211.5q25 147 -24.5 270t-165 195t-273.5 72q-118 0 -229.5 -42.5t-197.5 -115.5t-145.5 -172.5t-79.5 -210.5q-26 -147 23.5 -269.5t164.5 -194t271 -71.5zM674 848q157 0 223.5 -94t38.5 -240q-27 -137 -134.5 -234.5
t-242.5 -97.5t-208.5 96.5t-47.5 237.5q24 141 127.5 236.5t243.5 95.5zM981 1675l-252 -329h170l401 329h-319z" />
    <glyph glyph-name="upsilontonos" unicode="&#x3cd;" horiz-adv-x="1161" 
d="M1133 1030h-242l-105 -598q-19 -105 -92.5 -175.5t-177.5 -70.5q-221 0 -178 246l104 598h-241l-101 -571q-41 -237 55.5 -359.5t327.5 -122.5q462 0 549 488zM879 1675l-252 -329h170l401 329h-319z" />
    <glyph glyph-name="omegatonos" unicode="&#x3ce;" horiz-adv-x="1660" 
d="M991 778h-241l-50 -268q-10 -58 -29 -112.5t-48.5 -108.5t-74.5 -86.5t-99 -32.5q-62 0 -102 47t-50 126t6 181q25 140 105.5 267t240.5 270h-258q-275 -238 -328 -541q-22 -114 -7.5 -213.5t55.5 -172.5t118 -115t179 -42q215 0 354 179q35 -82 106.5 -130.5
t182.5 -48.5q205 0 351.5 151.5t188.5 391.5q53 310 -139 541h-258q110 -143 146 -270.5t12 -266.5q-28 -157 -103 -255.5t-172 -98.5q-84 0 -124 82t-9 258zM1133 1675l-252 -329h170l401 329h-319z" />
    <glyph glyph-name="uni03CF" unicode="&#x3cf;" horiz-adv-x="1267" 
d="M90 -119q88 -60 207 -101.5t221 -41.5q142 0 259.5 64.5t131.5 138.5l-485 759l-123 -700h-250l254 1440h248l-104 -598l632 598h305l-708 -656l500 -784q-20 -119 -119 -222.5t-252.5 -166t-321.5 -62.5q-217 0 -436 107z" />
    <glyph glyph-name="uni03D7" unicode="&#x3d7;" horiz-adv-x="1036" 
d="M356 487l-86 -487h-241l182 1028h242l-70 -399l422 399h291l-508 -459l342 -569q-32 -178 -197.5 -294t-378.5 -116q-97 0 -179.5 23t-178.5 70l41 225q70 -58 162 -93.5t188 -35.5q109 0 192 50t95 126z" />
    <glyph glyph-name="Wgrave" unicode="&#x1e80;" horiz-adv-x="2095" 
d="M580 373l-154 1067h-264l227 -1444h229l519 1069l153 -1069h226l733 1444h-258l-525 -1067l-145 1069h-225zM899 1864l229 -265h179l-146 330z" />
    <glyph glyph-name="wgrave" unicode="&#x1e81;" horiz-adv-x="1558" 
d="M322 1028h-244l155 -1032h218l356 731l98 -731h223l521 1032h-244l-338 -709l-90 711h-223l-344 -713zM578 1526l229 -264h178l-145 329z" />
    <glyph glyph-name="Wacute" unicode="&#x1e82;" horiz-adv-x="2095" 
d="M580 373l-154 1067h-264l227 -1444h229l519 1069l153 -1069h226l733 1444h-258l-525 -1067l-145 1069h-225zM1397 1929l-252 -330h172l321 265z" />
    <glyph glyph-name="wacute" unicode="&#x1e83;" horiz-adv-x="1558" 
d="M322 1028h-244l155 -1032h218l356 731l98 -731h223l521 1032h-244l-338 -709l-90 711h-223l-344 -713zM1075 1591l-252 -329h172l322 264z" />
    <glyph glyph-name="Wdieresis" unicode="&#x1e84;" horiz-adv-x="2095" 
d="M580 373l-154 1067h-264l227 -1444h229l519 1069l153 -1069h226l733 1444h-258l-525 -1067l-145 1069h-225zM1075 1898q-32 0 -63.5 -10t-63 -43t-39.5 -84q-10 -62 23 -100.5t94 -38.5q60 0 108 38.5t60 100.5q10 60 -24.5 98.5t-94.5 38.5zM1487 1898q-31 0 -62 -10
t-62.5 -43t-39.5 -84q-12 -62 21.5 -100.5t95.5 -38.5q58 0 106 38.5t60 100.5q10 60 -24.5 98.5t-94.5 38.5z" />
    <glyph glyph-name="wdieresis" unicode="&#x1e85;" horiz-adv-x="1558" 
d="M322 1028h-244l155 -1032h218l356 731l98 -731h223l521 1032h-244l-338 -709l-90 711h-223l-344 -713zM750 1546q-53 0 -99 -33.5t-57 -97.5q-9 -59 20.5 -95t87.5 -36q57 0 103.5 37t56.5 94q9 58 -22 94.5t-90 36.5zM1151 1546q-53 0 -98.5 -33.5t-55.5 -97.5
q-10 -58 20 -94.5t89 -36.5q55 0 101.5 37t56.5 94q9 57 -22 94t-91 37z" />
    <glyph glyph-name="uni1E9E" unicode="&#x1e9e;" horiz-adv-x="1214" 
d="M598 698q158 -11 234 -75t55 -187q-45 -260 -459 -260l-33 -182q191 -5 343 38t257.5 146.5t132.5 259.5q29 160 -56.5 263t-254.5 120l340 283q35 197 -82.5 313.5t-339.5 116.5q-134 0 -245.5 -39t-189 -108t-127.5 -161t-69 -202l-180 -1024h238l180 1018
q24 136 116 220.5t234 84.5q120 0 184.5 -55.5t47.5 -153.5l-299 -262z" />
    <glyph glyph-name="Ygrave" unicode="&#x1ef2;" horiz-adv-x="1333" 
d="M696 0l99 563l704 877h-276l-506 -647l-281 647h-286l397 -879l-101 -561h250zM569 1946l230 -265h178l-146 330z" />
    <glyph glyph-name="ygrave" unicode="&#x1ef3;" horiz-adv-x="1062" 
d="M74 1026l270 -1030l-197 -361h215l793 1391h-252l-407 -760l-164 760h-258zM330 1526l229 -264h178l-145 329z" />
    <glyph glyph-name="endash" unicode="&#x2013;" horiz-adv-x="897" 
d="M883 449l39 213h-906l-39 -213h906z" />
    <glyph glyph-name="emdash" unicode="&#x2014;" horiz-adv-x="1486" 
d="M1475 467l38 213h-1493l-36 -213h1491z" />
    <glyph glyph-name="uni2015" unicode="&#x2015;" horiz-adv-x="1617" 
d="M1552 467l39 213h-1493l-37 -213h1491z" />
    <glyph glyph-name="quoteleft" unicode="&#x2018;" horiz-adv-x="565" 
d="M451 1530l-277 -586h248l207 586h-178z" />
    <glyph glyph-name="quoteright" unicode="&#x2019;" horiz-adv-x="565" 
d="M358 944l277 586h-246l-207 -586h176z" />
    <glyph glyph-name="quotesinglbase" unicode="&#x201a;" horiz-adv-x="612" 
d="M150 -324l276 582h-248l-205 -582h177z" />
    <glyph glyph-name="quotereversed" unicode="&#x201b;" horiz-adv-x="565" 
d="M526 1530h-247l69 -586h178v586z" />
    <glyph glyph-name="quotedblleft" unicode="&#x201c;" horiz-adv-x="976" 
d="M858 1501l-276 -581h245l207 581h-176zM444 1501l-274 -581h246l207 581h-179z" />
    <glyph glyph-name="quotedblright" unicode="&#x201d;" horiz-adv-x="976" 
d="M354 920l277 581h-246l-207 -581h176zM768 920l272 581h-243l-207 -581h178z" />
    <glyph glyph-name="quotedblbase" unicode="&#x201e;" horiz-adv-x="1021" 
d="M150 -334l276 582h-246l-207 -582h177zM563 -334l273 582h-244l-207 -582h178z" />
    <glyph glyph-name="dagger" unicode="&#x2020;" horiz-adv-x="950" 
d="M645 1143l78 332h-172l-41 -332l-277 16l-26 -158l285 17l-170 -864h165l134 864l282 -17l27 158z" />
    <glyph glyph-name="daggerdbl" unicode="&#x2021;" horiz-adv-x="944" 
d="M356 299l-65 -309h168l37 309l274 -14l29 157l-283 -14q65 272 123 684l274 -16l27 157l-278 -14l75 326h-168l-47 -326l-272 14l-27 -157l281 16q-64 -317 -123 -684l-272 14l-29 -157z" />
    <glyph glyph-name="bullet" unicode="&#x2022;" horiz-adv-x="950" 
d="M565 1061q-151 0 -250 -90.5t-122 -227.5q-20 -131 56 -223t206 -92t238.5 92t131.5 223q23 132 -53 225t-207 93z" />
    <glyph glyph-name="ellipsis" unicode="&#x2026;" horiz-adv-x="1720" 
d="M274 291q-64 0 -119.5 -40t-66.5 -116q-12 -70 25.5 -114t105.5 -44q66 0 119 44.5t65 113.5q12 68 -25.5 112t-103.5 44zM817 291q-64 0 -119.5 -40t-66.5 -116q-12 -70 25.5 -114t105.5 -44q66 0 119 44.5t65 113.5q12 68 -25.5 112t-103.5 44zM1364 291
q-64 0 -119.5 -40t-66.5 -116q-12 -70 25.5 -114t105.5 -44q66 0 119 44.5t65 113.5q12 68 -25.5 112t-103.5 44z" />
    <glyph glyph-name="perthousand" unicode="&#x2030;" horiz-adv-x="2471" 
d="M459 717q115 0 204 52.5t138.5 134t66.5 183.5q25 156 -51.5 261.5t-224.5 105.5q-150 0 -266.5 -107.5t-143.5 -261.5q-28 -154 48.5 -261t228.5 -107zM557 1298q72 0 114.5 -54t22.5 -159q-18 -94 -74.5 -154.5t-130.5 -60.5q-73 0 -111.5 61.5t-23.5 155.5
q15 95 70.5 153t132.5 58zM1165 -23q169 0 276 106t134 265q25 158 -51.5 262.5t-225.5 104.5q-150 0 -267 -107.5t-144 -261.5q-27 -155 49 -262t229 -107zM1264 561q72 0 113.5 -55t21.5 -160q-18 -94 -74 -153.5t-131 -59.5q-74 0 -112 61t-21 154q15 95 70.5 154
t132.5 59zM1946 -23q86 0 159 30t122.5 82t81.5 118t44 141q27 158 -49.5 262.5t-226.5 104.5q-149 0 -266 -107.5t-144 -261.5q-27 -155 49.5 -262t229.5 -107zM2044 561q72 0 113.5 -55t21.5 -160q-18 -94 -74 -153.5t-131 -59.5q-74 0 -112 60.5t-23 154.5q18 95 73 154
t132 59zM1427 1436l-1284 -1436h209l1282 1436h-207z" />
    <glyph glyph-name="minute" unicode="&#x2032;" horiz-adv-x="532" 
d="M326 1446l-158 -608h145l250 532l31 74v2h-268z" />
    <glyph glyph-name="second" unicode="&#x2033;" horiz-adv-x="948" 
d="M150 838h141l250 532l30 74v2h-264zM727 1446l-158 -608h142l250 532l30 74v2h-264z" />
    <glyph glyph-name="guilsinglleft" unicode="&#x2039;" horiz-adv-x="704" 
d="M530 147l-200 363l332 369l-179 73l-405 -448l248 -441z" />
    <glyph glyph-name="guilsinglright" unicode="&#x203a;" horiz-adv-x="706" 
d="M362 510l-325 -363l174 -84l399 441l-245 448l-203 -73z" />
    <glyph glyph-name="exclamdbl" unicode="&#x203c;" horiz-adv-x="1112" 
d="M614 1440h-280l-27 -172l-82 -836h144l209 836zM268 272q-25 0 -50.5 -6.5t-53.5 -21t-48.5 -45t-27.5 -72.5q-10 -69 26.5 -109.5t102.5 -40.5q68 0 118 40.5t62 109.5q10 63 -26.5 104t-102.5 41zM1096 1440h-281l-27 -172l-81 -836h143l209 836zM750 272
q-25 0 -51 -6.5t-53.5 -21t-48.5 -45t-28 -72.5q-10 -69 26.5 -109.5t102.5 -40.5q68 0 118.5 40.5t62.5 109.5q10 63 -26.5 104t-102.5 41z" />
    <glyph glyph-name="fraction" unicode="&#x2044;" horiz-adv-x="516" 
d="M-217 -131l1233 1737h-213l-1229 -1737h209z" />
    <glyph glyph-name="uni2070" unicode="&#x2070;" horiz-adv-x="710" 
d="M246 1024q28 142 89.5 229.5t162.5 87.5q95 0 131.5 -87t11.5 -236q-25 -143 -92.5 -231.5t-159.5 -88.5q-97 0 -133.5 87t-9.5 239zM799 1020q34 207 -37 330t-238 123q-166 0 -282 -125.5t-152 -327.5q-37 -205 34.5 -330t237.5 -125t283.5 127t153.5 328z" />
    <glyph glyph-name="uni2074" unicode="&#x2074;" horiz-adv-x="710" 
d="M256 872q49 61 144.5 176t115.5 140l4 2l-2 -12q-5 -25 -55 -306h-107h-98h-2zM33 735q147 0 405 4l-28 -151h176l24 151q54 -4 70 -4l49 139l-94 -2l104 592h-157l-531 -628z" />
    <glyph glyph-name="uni2075" unicode="&#x2075;" horiz-adv-x="710" 
d="M260 989q74 31 131 31q82 0 126 -43t32 -111q-14 -74 -69 -117.5t-136 -43.5q-111 0 -192 94l-103 -97q56 -63 119 -93.5t156 -30.5q143 0 245 80t125 210q22 124 -49.5 197.5t-193.5 73.5q-56 0 -140 -33l60 215h366l29 125h-490l-106 -404z" />
    <glyph glyph-name="uni2076" unicode="&#x2076;" horiz-adv-x="710" 
d="M682 1450h-162l-244 -289q-94 -113 -134.5 -177.5t-51.5 -129.5q-23 -129 54.5 -207t220.5 -78q133 0 236 81t126 210q21 120 -40 191t-177 71q-79 0 -150 -41zM383 690q-24 0 -47 5.5t-50.5 20.5t-40.5 49.5t-5 84.5q11 69 66.5 114.5t133.5 45.5q76 0 114 -44t26 -112
q-12 -72 -67.5 -118t-129.5 -46z" />
    <glyph glyph-name="uni2077" unicode="&#x2077;" horiz-adv-x="710" 
d="M328 586l536 741l23 123h-613l-22 -129h453l-539 -735h162z" />
    <glyph glyph-name="uni2078" unicode="&#x2078;" horiz-adv-x="710" 
d="M618 1038q22 12 32.5 18t37.5 25.5t43 38t33 49.5t24 66q20 103 -52.5 170.5t-196.5 67.5q-125 0 -221 -66.5t-113 -169.5q-23 -134 102 -197q-181 -72 -207 -219q-20 -107 60.5 -180.5t218.5 -73.5q140 0 244.5 72t126.5 184q12 75 -23 130t-109 85zM469 1090
q-26 0 -49 7t-43.5 21t-29 41.5t-1.5 63.5q11 57 59.5 94t112.5 37q66 0 102 -36.5t25 -92.5q-9 -58 -60 -96.5t-116 -38.5zM399 690q-27 0 -51.5 5.5t-51 19.5t-39.5 44.5t-7 74.5q11 62 67 102.5t134 40.5q77 0 119 -40t32 -103q-11 -61 -67 -102.5t-136 -41.5z" />
    <glyph glyph-name="uni2079" unicode="&#x2079;" horiz-adv-x="710" 
d="M238 573h159l275 326q71 83 111 147.5t53 131.5q23 133 -54.5 215t-226.5 82q-134 0 -239.5 -82.5t-129.5 -214.5q-21 -123 42.5 -198t181.5 -75q76 0 149 47zM539 1350q26 0 50.5 -6.5t50 -22.5t37.5 -50.5t5 -82.5q-11 -69 -67.5 -115.5t-131.5 -46.5q-78 0 -117 45
t-28 117q14 70 70 116t131 46z" />
    <glyph glyph-name="uni207F" unicode="&#x207f;" horiz-adv-x="806" 
d="M866 1255q3 34 4 71.5t-12 74t-34.5 66t-63.5 47.5t-98 18q-137 0 -244 -111l-152 95l-125 -715h166l72 405q16 91 73 134.5t121 43.5q62 0 98.5 -43.5t20.5 -134.5l-71 -405h165z" />
    <glyph glyph-name="Euro" unicode="&#x20ac;" horiz-adv-x="1183" 
d="M356 760q16 74 45 144.5t73 135t98 112.5t123 76.5t143 28.5q86 0 143 -32.5t102 -100.5l195 144q-62 102 -157 154.5t-244 52.5q-129 0 -243 -42.5t-200 -115.5t-154 -171t-110.5 -207.5t-63.5 -227.5q-20 -100 -16.5 -194t22 -176.5t60 -151t99 -118t139.5 -77
t180 -27.5q293 0 500 213l-144 142q-138 -138 -305 -138q-71 0 -126.5 23.5t-90.5 63.5t-56.5 94t-28 112.5t-1.5 122.5h450l29 160h-461z" />
    <glyph glyph-name="uni2113" unicode="&#x2113;" horiz-adv-x="1064" 
d="M498 -29q146 0 315 125l-57 123q-39 -27 -64.5 -42.5t-67 -31.5t-75.5 -16q-103 0 -82 141l51 281q359 333 432 602q37 141 -11 226t-171 85q-75 0 -136 -30.5t-101.5 -84.5t-66.5 -117t-40 -138l-88 -500l-207 -172l66 -111l106 88l-20 -114q-16 -65 -10.5 -122
t28 -99.5t73.5 -67.5t126 -25zM739 1317q78 0 45 -156q-53 -219 -231 -407l63 362q19 102 51.5 151.5t71.5 49.5z" />
    <glyph glyph-name="trademark" unicode="&#x2122;" horiz-adv-x="1806" 
d="M846 1282l28 164h-706l-27 -164h265l-121 -684h176l123 684h262zM1769 598l150 848h-225l-332 -547l-135 547h-232l-149 -848h178l98 549l129 -549h113l326 549l-99 -549h178z" />
    <glyph glyph-name="uni2126" unicode="&#x2126;" horiz-adv-x="1652" 
d="M834 0h641l38 217h-354q162 86 272.5 240t141.5 327q27 154 -5 283.5t-112 216.5t-202.5 135.5t-274.5 48.5q-149 0 -290 -48t-254 -134.5t-193 -214.5t-107 -280q-30 -173 26.5 -330.5t186.5 -243.5h-354l-37 -217h647l39 225q-151 84 -220 220.5t-36 314.5
q37 215 187 350t362 135q213 0 314.5 -135t64.5 -350q-62 -344 -443 -535z" />
    <glyph glyph-name="estimated" unicode="&#x212e;" horiz-adv-x="1380" 
d="M1221 508q30 175 -13 311t-151 211.5t-266 75.5q-240 0 -417.5 -161.5t-221.5 -405.5q-23 -120 -1 -224.5t76 -182t147.5 -122.5t213.5 -45q160 0 286.5 72t258.5 235l-113 74q-99 -134 -196 -192t-212 -58q-148 0 -239 101l55 311h793zM963 639h-512l45 244
q119 98 270 98q150 0 240 -100z" />
    <glyph glyph-name="oneeighth" unicode="&#x215b;" horiz-adv-x="1560" 
d="M180 -131l1233 1737h-213l-1229 -1737h209zM160 586h180l156 872h-136q-38 -29 -188 -117l-29 -161q73 29 138 77zM1288 449q29 15 43.5 24.5t46 34.5t51.5 59.5t29 77.5q20 103 -52.5 170.5t-197.5 67.5t-221 -66.5t-113 -169.5q-23 -133 103 -196q-181 -72 -207 -220
q-20 -107 60.5 -180.5t218.5 -73.5q140 0 244 72t126 184q12 75 -23 130.5t-108 85.5zM1139 500q-26 0 -49 7t-43.5 21t-29 41.5t-1.5 63.5q11 57 59.5 94t112.5 37q66 0 102 -36.5t25 -92.5q-9 -58 -60 -96.5t-116 -38.5zM1069 100q-27 0 -51.5 5.5t-51 19.5t-39.5 44.5
t-7 74.5q11 62 67 102.5t133 40.5t119.5 -40t32.5 -103q-11 -61 -67 -102.5t-136 -41.5z" />
    <glyph glyph-name="threeeighths" unicode="&#x215c;" horiz-adv-x="1818" 
d="M432 -131l1233 1737h-213l-1229 -1737h209zM1544 449q29 15 43.5 24.5t46 34.5t51.5 59.5t29 77.5q20 103 -52.5 170.5t-197.5 67.5t-221 -66.5t-113 -169.5q-23 -133 103 -196q-181 -72 -207 -220q-20 -107 60.5 -180.5t218.5 -73.5q140 0 244 72t126 184
q12 75 -23 130.5t-108 85.5zM1395 500q-26 0 -49 7t-43.5 21t-29 41.5t-1.5 63.5q11 57 59.5 94t112.5 37q66 0 102 -36.5t25 -92.5q-9 -58 -60 -96.5t-116 -38.5zM1325 100q-27 0 -51.5 5.5t-51 19.5t-39.5 44.5t-7 74.5q11 62 67 102.5t133 40.5t119.5 -40t32.5 -103
q-11 -61 -67 -102.5t-136 -41.5zM135 885q-13 -80 4.5 -142t60 -99t99 -56t123.5 -19q144 0 254 77.5t133 205.5q26 153 -119 221q63 36 100 79.5t48 104.5q18 104 -52 164t-192 60q-55 0 -106 -13.5t-98 -42t-82 -79.5t-50 -119h170q12 54 50 84t89 30t77 -28.5t20 -69.5
q-9 -51 -59 -84t-116 -33h-32l-21 -127q5 0 23.5 1t23.5 1q94 0 129 -40t25 -101q-12 -65 -66 -108t-127 -43q-29 0 -55.5 8t-50 26.5t-33.5 55t0 86.5h-170z" />
    <glyph glyph-name="fiveeighths" unicode="&#x215d;" horiz-adv-x="1783" 
d="M408 -131l1232 1737h-213l-1228 -1737h209zM299 1001q74 31 131 31q82 0 126 -42.5t32 -110.5q-14 -74 -69 -118t-136 -44q-112 0 -193 94l-102 -96q57 -63 119 -94t155 -31q143 0 245.5 80.5t125.5 210.5q22 124 -49.5 197t-194.5 73q-55 0 -139 -33l60 215h366l29 125
h-490l-106 -403zM1509 449q29 15 43.5 24.5t46 34.5t51.5 59.5t29 77.5q20 103 -52.5 170.5t-196.5 67.5q-125 0 -221 -66.5t-113 -169.5q-23 -133 102 -196q-181 -72 -207 -220q-20 -107 60.5 -180.5t218.5 -73.5q140 0 244 72t126 184q12 75 -23 130.5t-108 85.5z
M1360 500q-26 0 -49 7t-43.5 21t-29 41.5t-1.5 63.5q11 57 59.5 94t112.5 37q66 0 102 -36.5t25 -92.5q-9 -58 -60 -96.5t-116 -38.5zM1290 100q-27 0 -51.5 5.5t-51 19.5t-39.5 44.5t-7 74.5q11 62 67 102.5t133 40.5t119.5 -40t32.5 -103q-11 -61 -67 -102.5t-136 -41.5z
" />
    <glyph glyph-name="seveneighths" unicode="&#x215e;" horiz-adv-x="1581" 
d="M174 -131l1233 1737h-213l-1229 -1737h209zM1309 449q29 15 43.5 24.5t46 34.5t51.5 59.5t29 77.5q20 103 -52.5 170.5t-197.5 67.5t-221 -66.5t-113 -169.5q-23 -133 102 -196q-180 -72 -206 -220q-20 -107 60 -180.5t218 -73.5q140 0 244.5 72t126.5 184
q12 75 -23 130.5t-108 85.5zM1159 500q-26 0 -49 7t-43.5 21t-29 41.5t-1.5 63.5q11 57 59.5 94t112.5 37q66 0 102 -36.5t25 -92.5q-9 -58 -60 -96.5t-116 -38.5zM1090 100q-21 0 -40.5 3t-42.5 12t-39 24t-24.5 42t-3.5 63q11 62 67 102.5t134 40.5q77 0 119 -40t32 -103
q-11 -62 -66.5 -103t-135.5 -41zM256 598l537 741l22 123h-612l-23 -129h453l-539 -735h162z" />
    <glyph glyph-name="partialdiff" unicode="&#x2202;" horiz-adv-x="1058" 
d="M395 -23q214 0 357.5 166t214.5 455q27 109 39.5 212t10 202t-27.5 182t-69.5 146t-119.5 98t-175 35q-185 0 -353 -144l86 -123q111 97 240 97q77 0 130.5 -35.5t78 -90.5t32.5 -129t2.5 -142.5t-20.5 -139.5q-106 125 -274 125q-94 0 -178.5 -36t-146.5 -97.5
t-104.5 -142.5t-58.5 -171q-22 -124 8 -229t115.5 -171.5t212.5 -66.5zM530 721q153 0 246 -156q-12 -54 -31 -108.5t-50 -113t-68 -103t-89 -73t-110 -28.5q-75 0 -122.5 46.5t-61 113.5t-0.5 141q22 117 99 199t187 82z" />
    <glyph glyph-name="uni2206" unicode="&#x2206;" horiz-adv-x="1511" 
d="M-49 0h1419l-336 1454h-243zM1065 211h-743l540 969z" />
    <glyph glyph-name="product" unicode="&#x220f;" horiz-adv-x="1464" 
d="M938 -539h190l359 2036h-1174l-358 -2036h190l326 1860h795z" />
    <glyph glyph-name="summation" unicode="&#x2211;" horiz-adv-x="1214" 
d="M-156 -535h1147l31 179h-901l772 850l-444 829h845l33 178h-1098l-24 -145l459 -860l-793 -885z" />
    <glyph glyph-name="minus" unicode="&#x2212;" horiz-adv-x="1296" 
d="M1192 633l31 176h-1057l-31 -176h1057z" />
    <glyph glyph-name="radical" unicode="&#x221a;" horiz-adv-x="987" 
d="M547 -14l651 1704h-190l-535 -1416l-176 592l-270 -112l45 -154l96 43l201 -657h178z" />
    <glyph glyph-name="infinity" unicode="&#x221e;" horiz-adv-x="1468" 
d="M1085 408q152 0 244.5 87.5t112.5 225.5q22 137 -43 230t-195 93q-187 0 -420 -215q-32 41 -63 73t-74.5 67t-95.5 54t-107 19q-132 0 -232 -93.5t-124 -227.5q-23 -135 46.5 -224t203.5 -89q54 0 107 15.5t109 49.5t91.5 59.5t95.5 73.5q39 -43 70 -72t75.5 -61
t94.5 -48.5t104 -16.5zM1163 870q52 0 84.5 -34t20.5 -113q-11 -65 -51 -103t-101 -38q-116 0 -233 135q5 4 34 27t39.5 31t37.5 27t43.5 27.5t40 20t44.5 16t41 4.5zM414 868q35 0 68 -12.5t64.5 -37.5t51.5 -45t49 -52q-168 -139 -278 -139q-65 0 -92 37.5t-15 103.5
q11 63 52 104t100 41z" />
    <glyph glyph-name="integral" unicode="&#x222b;" horiz-adv-x="706" 
d="M12 -471q50 0 93 20.5t73.5 50.5t57.5 78t43 89t30.5 99t21.5 92t15 83l205 1167q1 3 4.5 22.5t6.5 33.5t8.5 36.5t11.5 38.5t13 31.5t16.5 24t19.5 8.5q14 0 25.5 -15.5t27.5 -31t41 -15.5q41 0 73 27t38 68q12 64 -38 95.5t-122 31.5q-64 0 -117 -30t-87 -74t-61 -106
t-41 -114.5t-24 -110.5l-213 -1208q-31 -168 -39 -192q-20 -44 -47 -47q-11 0 -22.5 14.5t-27 29.5t-38.5 15q-37 0 -64.5 -25t-33.5 -63q-11 -58 40 -90.5t111 -32.5z" />
    <glyph glyph-name="approxequal" unicode="&#x2248;" horiz-adv-x="1298" 
d="M1141 1065q-53 -158 -168 -158q-50 0 -115.5 23t-120.5 50t-126.5 50t-131.5 23q-68 0 -126 -28t-100 -77.5t-71.5 -105.5t-50.5 -123h148q58 160 182 160q44 0 106 -23t116 -50t125 -50t130 -23q69 0 129 28.5t102.5 77t72 105.5t46.5 121h-147zM1073 688
q-52 -160 -168 -160q-50 0 -115 23t-119.5 50t-125.5 50t-131 23q-131 0 -217.5 -94t-130.5 -236h147q55 158 180 158q45 0 107.5 -23t116.5 -50t125 -50t130 -23q69 0 129.5 28.5t103 77t71.5 105.5t45 121h-148z" />
    <glyph glyph-name="notequal" unicode="&#x2260;" horiz-adv-x="1269" 
d="M571 444h572l31 172h-476l148 218h373l30 174h-278l147 206l-139 86l-207 -292h-563l-33 -174h471l-149 -218h-367l-29 -172h273l-146 -206l142 -84z" />
    <glyph glyph-name="lessequal" unicode="&#x2264;" horiz-adv-x="1296" 
d="M1249 1114l39 229l-1071 -446l-37 -215l914 -446l39 227l-693 328zM1081 2l31 176h-1057l-30 -176h1056z" />
    <glyph glyph-name="greaterequal" unicode="&#x2265;" horiz-adv-x="1296" 
d="M313 1343l-39 -231l693 -324l-807 -321l-41 -231l1069 444l39 219zM1081 2l31 176h-1057l-30 -176h1056z" />
    <glyph glyph-name="lozenge" unicode="&#x25ca;" horiz-adv-x="970" 
d="M455 -72l489 799l-209 799h-164l-483 -799l203 -799h164zM612 1284l140 -555l-336 -561l-135 559z" />
    <glyph glyph-name="uni25CC" unicode="&#x25cc;" horiz-adv-x="1808" 
d="M1096 1538q-41 0 -71 -25.5t-36 -62.5q-7 -39 15 -64.5t61 -25.5q37 0 67 25.5t37 64.5q6 39 -15 63.5t-58 24.5zM1425 1442q-42 0 -71 -25t-35 -63t16 -63t60 -25t68 25t36 63q7 39 -14.5 63.5t-59.5 24.5zM1614 1176q-41 0 -71 -26t-36 -63q-7 -39 15 -64.5t61 -25.5
q37 0 67.5 25.5t37.5 64.5q6 39 -15.5 64t-58.5 25zM1675 838q-42 0 -71 -25t-35 -63q-7 -38 15 -63t61 -25q37 0 67 25t37 63q6 39 -15.5 63.5t-58.5 24.5zM1513 473q-42 0 -71 -25t-35 -63t16 -63t60 -25t68 25t36 63q7 40 -14.5 64t-59.5 24zM1202 221q-42 0 -71 -25
t-35 -63t15.5 -63t59.5 -25q37 0 68 25t37 63q6 39 -15.5 63.5t-58.5 24.5zM842 98q-42 0 -71.5 -25t-35.5 -63q-7 -38 15 -63t61 -25q37 0 67 25t37 63q6 40 -14.5 64t-58.5 24zM477 199q-42 0 -71 -25t-35 -63t16 -63t59 -25q39 0 69 25t36 63q7 39 -14.5 63.5t-59.5 24.5
zM242 463q-41 0 -71 -25.5t-36 -62.5q-7 -39 15 -64.5t61 -25.5q37 0 67 25.5t37 64.5q6 39 -15 63.5t-58 24.5zM236 838q-40 0 -69.5 -25t-35.5 -63q-7 -38 15 -63t59 -25q38 0 68.5 25t37.5 63q6 39 -15 63.5t-60 24.5zM393 1184q-41 0 -70.5 -25.5t-35.5 -62.5
q-6 -40 15.5 -65t59.5 -25q39 0 69 25.5t36 64.5q7 39 -14.5 63.5t-59.5 24.5zM694 1462q-42 0 -71 -25t-35 -63t16.5 -63t59.5 -25q38 0 68 25t36 63q7 40 -14.5 64t-59.5 24z" />
    <glyph glyph-name="caroncommaaccent" horiz-adv-x="1024" 
d="M643 1167l182 389h-198l-138 -389h154z" />
    <glyph glyph-name="commaaccentrotate" horiz-adv-x="403" 
d="M381 1583l-234 -418h248l166 418h-180z" />
    <glyph glyph-name="f_t" horiz-adv-x="1296" 
d="M885 1483q-61 24 -160 24q-344 0 -410 -370l-18 -111l-227 -197h192l-147 -829h237l146 829h247l35 195h-268l16 104q17 95 70 144t135 49q55 0 119 -23zM723 281q-24 -138 34.5 -219.5t190.5 -81.5q95 0 164 34l33 197q-59 -27 -105 -27q-93 0 -75 111l94 534h258
l37 201h-260l59 342l-541 -543h205z" />
    <glyph glyph-name="w_w_w" horiz-adv-x="4804" 
d="M358 1028h-243l155 -1032h217l357 731l98 -731h223l521 1032h-244l-338 -709l-90 711h-223l-345 -713zM1946 1028h-244l156 -1032h217l356 731l98 -731h224l520 1032h-244l-338 -709l-90 711h-223l-344 -713zM3535 1028h-244l156 -1032h217l356 731l99 -731h223l520 1032
h-244l-338 -709l-90 711h-223l-344 -713z" />
    <glyph glyph-name="t_t" horiz-adv-x="1329" 
d="M723 279q-24 -138 34.5 -220t190.5 -82q93 0 164 35l33 197q-59 -27 -105 -27q-93 0 -75 111l94 534h258l37 201h-260l59 342l-541 -543h205zM197 279q-24 -138 34.5 -220t190.5 -82q93 0 164 35l32 197q-58 -27 -104 -27q-94 0 -76 111l94 534h259l36 201h-260l60 342
l-541 -543h205z" />
    <glyph glyph-name="Upsilondieresis_alt" horiz-adv-x="1380" 
d="M735 0l99 563l704 877h-276l-506 -647l-281 647h-287l398 -879l-101 -561h250zM739 1898q-31 0 -60.5 -9t-60.5 -42t-40 -86q-10 -62 22.5 -99.5t93.5 -39.5q62 0 109 38.5t59 100.5q9 61 -26 99t-97 38zM1153 1898q-31 0 -61 -9t-61 -42t-40 -86q-10 -62 23 -99.5
t94 -39.5q62 0 109 38.5t59 100.5q9 61 -26 99t-97 38z" />
    <glyph glyph-name=".null.1" horiz-adv-x="569" 
 />
    <glyph glyph-name="ogonek.1" horiz-adv-x="561" 
d="M311 -270q-68 -23 -102 -23q-46 0 -67 27.5t-15 70.5q11 63 135 187l-106 71q-100 -91 -149.5 -157.5t-61.5 -130.5q-17 -93 41 -150t161 -57q81 0 172 39z" />
    <glyph glyph-name="ogonek.2" horiz-adv-x="561" 
d="M311 -270q-68 -23 -102 -23q-44 0 -67 26t-17 70q24 107 254 287l-285 -90q-128 -108 -149 -229q-17 -93 40.5 -148t161.5 -55q81 0 172 39z" />
    <glyph glyph-name="periodcentered.loclCAT" horiz-adv-x="585" 
d="M379 895q-24 0 -49.5 -6.5t-54.5 -22t-51.5 -48.5t-30.5 -79q-12 -70 25.5 -114.5t105.5 -44.5q69 0 120.5 44t65.5 115q12 68 -26.5 112t-104.5 44z" />
    <glyph glyph-name="i.loclTRK" horiz-adv-x="518" 
d="M254 0l182 1028h-241l-183 -1028h242zM397 1485q-25 0 -50.5 -6.5t-53.5 -21t-49 -46t-27 -74.5q-12 -63 25.5 -105t101.5 -42q68 0 120 41.5t62 105.5q12 68 -25 108t-104 40z" />
    <glyph glyph-name="periodcentered.loclCAT.case" horiz-adv-x="585" 
d="M379 895q-24 0 -49.5 -6.5t-54.5 -22t-51.5 -48.5t-30.5 -79q-12 -70 25.5 -114.5t105.5 -44.5q69 0 120.5 44t65.5 115q12 68 -26.5 112t-104.5 44z" />
    <glyph glyph-name="uni004A0301" horiz-adv-x="827" 
d="M-86 57q107 -80 244 -80q209 0 343.5 126t174.5 358l174 979h-250l-172 -983q-25 -136 -86 -197t-156 -61q-65 0 -116.5 25.5t-112.5 74.5zM883 1929l-252 -330h172l321 265z" />
    <glyph glyph-name="uni006A0301" horiz-adv-x="442" 
d="M514 1591l-252 -329h172l322 264zM-215 -362q69 -15 121 -15q157 0 236.5 87t109.5 255l188 1063h-239l-193 -1089q-11 -63 -39 -96t-82 -33q-31 0 -69 12z" />
    <glyph glyph-name="tonos.case" horiz-adv-x="901" 
d="M594 1675l-252 -329h170l401 329h-319z" />
    <glyph glyph-name="uni030C.alt" 
d="M879 1565h-191l-172 -160l-117 160h-192l192 -324h170z" />
    <glyph glyph-name="Delta" horiz-adv-x="1495" 
d="M1090 207h-801l565 952zM-98 0h1501l-385 1444h-225z" />
    <glyph glyph-name="uni0394.1" horiz-adv-x="1511" 
d="M-49 0h1419l-336 1454h-243zM322 211l540 969l203 -969h-743z" />
    <glyph glyph-name="uni03BC.001" horiz-adv-x="1204" 
d="M213 -365h-242l246 1395h242l-103 -584q-23 -125 27.5 -190.5t138.5 -65.5q102 0 180.5 67t100.5 189l104 584h242l-182 -1030l-219 135q-53 -72 -124 -113.5t-145 -41.5q-67 0 -114.5 33.5t-67.5 97.5z" />
    </font>
</defs>
</svg>
