<?xml version="1.0" standalone="no"?>
<!DOCTYPE svg PUBLIC "-//W3C//DTD SVG 1.1//EN" "http://www.w3.org/Graphics/SVG/1.1/DTD/svg11.dtd" >
<svg xmlns="http://www.w3.org/2000/svg" xmlns:xlink="http://www.w3.org/1999/xlink" version="1.1">
<metadata>
Created by FontForge 20201107 at Thu Dec 18 19:34:32 2025
 By 
Copyright 2022 The Geom Project Authors (https://github.com/ThanosPoulakidas/Geom)
</metadata>
<defs>
<font id="Geom-ExtraBold" horiz-adv-x="0" >
  <font-face 
    font-family="Geom ExtraBold"
    font-weight="800"
    font-stretch="normal"
    units-per-em="2048"
    panose-1="0 0 0 0 0 0 0 0 0 0"
    ascent="1638"
    descent="-410"
    x-height="1087"
    cap-height="1436"
    bbox="-451 -586 5085 2134"
    underline-thickness="102"
    underline-position="-255"
    unicode-range="U+000D-FB02"
  />
<missing-glyph horiz-adv-x="1200" 
d="M59 1475v-1475h1084v1475h-1084zM932 1358l-330 -496l-336 496h666zM999 260l-317 477l317 480v-957zM932 117h-666l336 499zM201 260v959l319 -482z" />
    <glyph glyph-name="fi" unicode="fi" horiz-adv-x="1439" 
d="M811 1481q-103 28 -219 28q-387 0 -387 -381v-49l-174 -274h174v-805h350v805h248v272h-303v47q0 61 47.5 94t114.5 33q75 0 149 -22v252zM1290 0v1087h-352v-1087h352zM1112 1569q-90 0 -146.5 -48.5t-56.5 -136.5q0 -87 57 -135.5t146 -48.5t147 48.5t58 135.5
q0 89 -57.5 137t-147.5 48z" />
    <glyph glyph-name="fl" unicode="fl" horiz-adv-x="1404" 
d="M811 1481q-103 28 -219 28q-387 0 -387 -381v-49l-174 -274h174v-805h350v805h248v272h-303v47q0 61 47.5 94t114.5 33q75 0 149 -22v252zM1284 0v1495h-352v-1495h352z" />
    <glyph glyph-name="f_f_i" unicode="ffi" horiz-adv-x="2252" 
d="M2101 0v1087h-352v-1087h352zM1923 1569q-90 0 -146.5 -48.5t-56.5 -136.5q0 -87 57 -135.5t146 -48.5t147 48.5t58 135.5q0 89 -57.5 137t-147.5 48zM1624 1481q-103 28 -219 28q-387 0 -387 -381v-49l-174 -274h174v-805h350v805h248v272h-303v47q0 61 47.5 94
t114.5 33q75 0 149 -22v252zM811 1481q-103 28 -219 28q-387 0 -387 -381v-49l-174 -274h174v-805h350v805h248v272h-303v47q0 61 47.5 94t114.5 33q75 0 149 -22v252z" />
    <glyph glyph-name="f_f_l" unicode="ffl" horiz-adv-x="2107" 
d="M811 1481q-103 28 -219 28q-387 0 -387 -381v-49l-174 -274h174v-805h350v805h248v272h-303v47q0 61 47.5 94t114.5 33q75 0 149 -22v252zM1542 1481q-103 28 -219 28q-387 0 -387 -381v-49l-174 -274h174v-805h350v805h248v272h-303v47q0 61 47.5 94t114.5 33
q75 0 149 -22v252zM2013 0v1495h-352v-1495h352z" />
    <glyph glyph-name="f_f" unicode="ff" horiz-adv-x="1552" 
d="M1536 1481q-103 28 -219 28q-387 0 -387 -381v-49l-174 -274h174v-805h350v805h248v272h-303v47q0 61 47 94t114 33q76 0 150 -22v252zM811 1481q-103 28 -219 28q-387 0 -387 -381v-49l-174 -274h174v-805h350v805h248v272h-303v47q0 61 47.5 94t114.5 33q75 0 149 -22
v252z" />
    <glyph glyph-name=".notdef" horiz-adv-x="1200" 
d="M59 1475v-1475h1084v1475h-1084zM932 1358l-330 -496l-336 496h666zM999 260l-317 477l317 480v-957zM932 117h-666l336 499zM201 260v959l319 -482z" />
    <glyph glyph-name=".null" 
 />
    <glyph glyph-name="nonmarkingreturn" horiz-adv-x="682" 
 />
    <glyph glyph-name="CR" unicode="&#xd;" horiz-adv-x="208" 
 />
    <glyph glyph-name="space" unicode=" " horiz-adv-x="573" 
 />
    <glyph glyph-name="exclam" unicode="!" horiz-adv-x="681" 
d="M541 1436h-402l2 -174l105 -803h188l107 803v174zM338 344q-89 0 -146 -48t-57 -136t57.5 -137.5t145.5 -49.5q90 0 147.5 49.5t57.5 137.5t-57.5 136t-147.5 48z" />
    <glyph glyph-name="quotedbl" unicode="&#x22;" horiz-adv-x="1275" 
d="M176 733h189l233 680l4 23h-379zM723 1436l-49 -703h190l234 680l4 23h-379z" />
    <glyph glyph-name="numbersign" unicode="#" horiz-adv-x="1423" 
d="M233 297l-49 -297h273l49 297h272l-51 -297h272l52 297h241v299h-192l43 252h217v301h-166l47 287h-272l-47 -287h-273l49 287h-272l-47 -287h-248v-301h197l-43 -252h-222v-299h170zM594 856h283l-43 -266h-285z" />
    <glyph glyph-name="dollar" unicode="$" horiz-adv-x="1294" 
d="M561 -201h201v199q213 21 342 135t129 295q0 175 -115 275.5t-362 162.5v299q149 -26 231 -131l184 201q-71 81 -175.5 133.5t-231.5 65.5v125h-199v-119q-221 -17 -348 -131.5t-127 -292.5t117 -279t364 -164v-303q-89 9 -175.5 58t-147.5 123l-207 -222
q109 -111 244.5 -169t275.5 -58v-203zM754 541q32 -10 54.5 -20.5t48 -27t39 -40t13.5 -52.5q0 -52 -38 -86t-117 -43v269zM573 903q-31 9 -54.5 19t-47.5 26.5t-37.5 40.5t-13.5 55q0 49 37.5 82t115.5 39v-262z" />
    <glyph glyph-name="percent" unicode="%" horiz-adv-x="1828" 
d="M444 692q162 0 263.5 113t101.5 274q0 158 -102 268.5t-261 110.5q-161 0 -263.5 -110.5t-102.5 -270.5q0 -162 101.5 -273.5t262.5 -111.5zM444 1251q65 0 99.5 -53.5t34.5 -122.5q0 -75 -36.5 -125.5t-95.5 -50.5q-58 0 -96.5 51.5t-38.5 126.5q0 76 36 125t97 49z
M1386 -20q160 0 262.5 113.5t102.5 271.5q0 162 -101.5 271t-263.5 109q-160 0 -262 -111t-102 -272q0 -159 101.5 -270.5t262.5 -111.5zM1384 537q67 0 101.5 -52t34.5 -123q0 -75 -37 -124.5t-97 -49.5q-56 0 -94.5 51t-38.5 126q0 78 35 125t96 47zM498 -6l1085 1444
l-252 4l-1085 -1444z" />
    <glyph glyph-name="ampersand" unicode="&#x26;" horiz-adv-x="1509" 
d="M836 326q-99 -82 -197 -82q-83 0 -135.5 46t-52.5 118q0 117 129 186zM1176 784q-59 -120 -142 -241l-184 196q287 133 287 371q0 157 -113.5 260t-300.5 103q-195 0 -314.5 -110t-119.5 -269q0 -150 102 -293q-301 -129 -301 -408q0 -192 141.5 -305t362.5 -113
q232 0 428 156l133 -141l332 71l-262 289q13 18 27.5 39.5t25.5 38.5t28.5 46.5t25.5 42.5t27.5 49t24 44t26 48t22.5 42zM596 1083q0 60 34 100t93 40q55 0 89 -33.5t34 -91.5q0 -119 -166 -195q-44 56 -64 97t-20 83z" />
    <glyph glyph-name="quotesingle" unicode="'" horiz-adv-x="784" 
d="M299 1436l-45 -703h195l233 680l4 23h-387z" />
    <glyph glyph-name="parenleft" unicode="(" horiz-adv-x="944" 
d="M870 -78q-124 91 -204 182.5t-127 214t-47 269.5q0 205 90 362t288 303l-176 203q-130 -80 -226.5 -165t-171.5 -190.5t-113 -234t-38 -278.5q0 -299 138 -509t405 -358z" />
    <glyph glyph-name="parenright" unicode=")" horiz-adv-x="944" 
d="M76 1253q190 -137 285.5 -293.5t95.5 -371.5q0 -206 -91 -363t-290 -303l184 -201q178 100 295 220.5t181.5 283t64.5 363.5q0 292 -137.5 501t-409.5 367z" />
    <glyph glyph-name="asterisk" unicode="*" horiz-adv-x="831" 
d="M135 1368l154 -215l-248 -86l47 -149l250 86v-273h162v268l245 -81l50 149l-244 82l149 219l-131 92l-151 -213l-154 213z" />
    <glyph glyph-name="plus" unicode="+" horiz-adv-x="1349" 
d="M836 874v365h-322v-365h-360v-311h360v-364h322v364h360v311h-360z" />
    <glyph glyph-name="comma" unicode="," horiz-adv-x="563" 
d="M270 -328l201 705h-326l-120 -705h245z" />
    <glyph glyph-name="hyphen" unicode="-" horiz-adv-x="747" 
d="M700 403v312h-651v-312h651z" />
    <glyph glyph-name="period" unicode="." horiz-adv-x="696" 
d="M346 389q-96 0 -153.5 -55.5t-57.5 -151.5q0 -97 59 -153t152 -56t153 56t60 153q0 98 -59.5 152.5t-153.5 54.5z" />
    <glyph glyph-name="slash" unicode="/" horiz-adv-x="1187" 
d="M287 -246l903 1876h-289l-901 -1876h287z" />
    <glyph glyph-name="zero" unicode="0" horiz-adv-x="1445" 
d="M442 723q0 70 14.5 139.5t45 135t87.5 106.5t132 41q128 0 206.5 -119.5t78.5 -308.5q0 -187 -77 -306.5t-204 -119.5t-205 121t-78 311zM1368 721q0 118 -27 228t-81 203.5t-130 163t-180 109t-225 39.5q-194 0 -342.5 -101t-225.5 -269.5t-77 -374.5q0 -209 76 -378
t223.5 -269.5t341.5 -100.5q195 0 344 102.5t226 272t77 375.5z" />
    <glyph glyph-name="one" unicode="1" horiz-adv-x="847" 
d="M682 0v1446h-655v-336h301v-1110h354z" />
    <glyph glyph-name="two" unicode="2" horiz-adv-x="1214" 
d="M1104 1016q0 110 -45 196.5t-120.5 139.5t-169 80.5t-196.5 27.5q-112 0 -209.5 -33t-173 -95.5t-120 -161.5t-47.5 -222h333q3 96 63 147.5t146 51.5q81 0 128.5 -44t47.5 -114q0 -129 -163 -323l-566 -666h1108v295h-428l162 209q136 175 193 284.5t57 227.5z" />
    <glyph glyph-name="three" unicode="3" horiz-adv-x="1304" 
d="M1176 1178v262h-1004v-293h561l-348 -326l53 -188q33 2 164 2q122 0 189 -45t67 -131q0 -80 -59 -129t-156 -49q-178 0 -313 163l-254 -202q101 -128 249 -199.5t337 -71.5q245 0 395.5 134t150.5 350q0 176 -105.5 277.5t-279.5 131.5z" />
    <glyph glyph-name="four" unicode="4" horiz-adv-x="1396" 
d="M1157 1446h-377l-737 -899l59 -262h707v-285h348v285h186v272h-186v889zM809 1038v-481h-385z" />
    <glyph glyph-name="five" unicode="5" horiz-adv-x="1275" 
d="M377 600q121 66 225 66q106 0 172 -51.5t66 -139.5q0 -90 -63 -143t-171 -53q-91 0 -175 39t-175 116l-205 -239q116 -110 249.5 -167t309.5 -57q261 0 420.5 138t159.5 372q0 111 -40.5 199.5t-109 143t-156 83.5t-186.5 29q-115 0 -227 -51l18 252h637l4 299h-925
l-45 -717z" />
    <glyph glyph-name="six" unicode="6" horiz-adv-x="1308" 
d="M985 1446h-379l-276 -414q-147 -221 -200.5 -341.5t-53.5 -235.5q0 -216 162.5 -350t431.5 -134q159 0 286.5 62t202 179.5t74.5 270.5q0 210 -113 327.5t-305 117.5q-93 0 -145.5 -19t-112.5 -65zM662 254q-96 0 -160 58.5t-64 152.5q0 87 60.5 145t160.5 58t161 -58
t61 -147q0 -91 -59 -150t-160 -59z" />
    <glyph glyph-name="seven" unicode="7" horiz-adv-x="1128" 
d="M502 0l645 1161v275h-1084v-303h687l-644 -1133h396z" />
    <glyph glyph-name="eight" unicode="8" horiz-adv-x="1341" 
d="M995 745q201 109 201 316q0 173 -147.5 286t-378.5 113q-229 0 -377 -113t-148 -284q0 -212 201 -318q-252 -107 -252 -348q0 -185 162.5 -303.5t413.5 -118.5q254 0 415.5 117.5t161.5 306.5q0 117 -67 205t-185 141zM670 848q-78 0 -135.5 49t-57.5 125
q0 71 53.5 118.5t139.5 47.5q87 0 140.5 -48t53.5 -118q0 -72 -54 -123t-140 -51zM670 248q-91 0 -159.5 48.5t-68.5 135.5q0 76 65 126t163 50q100 0 164.5 -49.5t64.5 -126.5q0 -76 -62.5 -130t-166.5 -54z" />
    <glyph glyph-name="nine" unicode="9" horiz-adv-x="1308" 
d="M324 0h376l363 557q93 147 131.5 245.5t38.5 186.5q0 218 -162 352t-440 134q-154 0 -279.5 -61t-200.5 -178t-75 -269q0 -210 114 -330.5t306 -120.5q82 0 137.5 20.5t118.5 65.5zM645 1192q94 0 158.5 -57.5t64.5 -149.5q0 -89 -60 -148t-159 -59t-161 60.5t-62 148.5
t60 146.5t159 58.5z" />
    <glyph glyph-name="colon" unicode=":" horiz-adv-x="696" 
d="M346 389q-96 0 -153.5 -55t-57.5 -152t59 -153t152 -56t153 56t60 153q0 98 -59.5 152.5t-153.5 54.5zM346 1110q-96 0 -153.5 -55t-57.5 -152q0 -99 58.5 -154t152.5 -55t153.5 55.5t59.5 153.5t-59.5 152.5t-153.5 54.5z" />
    <glyph glyph-name="semicolon" unicode=";" horiz-adv-x="593" 
d="M287 1110q-96 0 -154.5 -55.5t-58.5 -151.5q0 -98 59.5 -153.5t153.5 -55.5q93 0 153 55.5t60 153.5t-60 152.5t-153 54.5zM270 -328l201 705h-326l-120 -705h245z" />
    <glyph glyph-name="less" unicode="&#x3c;" horiz-adv-x="1339" 
d="M1176 967v329l-1010 -415v-328l1010 -416v332l-691 250z" />
    <glyph glyph-name="equal" unicode="=" horiz-adv-x="1308" 
d="M1155 1149h-1001v-311h1001v311zM1155 606h-1001v-311h1001v311z" />
    <glyph glyph-name="greater" unicode="&#x3e;" horiz-adv-x="1341" 
d="M166 1296v-331l688 -248l-688 -250v-328l1010 414v328z" />
    <glyph glyph-name="question" unicode="?" horiz-adv-x="1044" 
d="M82 965q184 188 356 188q70 0 121 -34t51 -91q0 -79 -114 -170q-40 -33 -66.5 -59.5t-56 -67t-44 -90.5t-14.5 -109v-96h324v66q0 63 20.5 97t79.5 83q56 43 91.5 76t69.5 78t49.5 98.5t15.5 118.5q0 124 -65 216.5t-169.5 138.5t-230.5 46q-129 0 -238 -46t-180 -140
v-303zM492 344q-90 0 -146.5 -48t-56.5 -136t56.5 -136.5t146.5 -48.5q89 0 146.5 48.5t57.5 136.5q0 87 -57.5 135.5t-146.5 48.5z" />
    <glyph glyph-name="at" unicode="@" horiz-adv-x="1927" 
d="M745 567q0 96 59.5 171t153.5 75q72 0 116 -46t44 -124q0 -103 -62 -177.5t-151 -74.5q-73 0 -116.5 46.5t-43.5 129.5zM1489 -84q-115 -68 -233 -96.5t-269 -28.5q-178 0 -328.5 59.5t-253.5 163.5t-161 248.5t-58 312.5q0 223 100 403.5t281.5 285t409.5 104.5
q168 0 311.5 -54t242.5 -147t154.5 -220.5t55.5 -272.5q0 -196 -61.5 -304t-163.5 -108q-51 0 -82.5 30t-40.5 75t-2 98l92 532l-289 43l-25 -127q-98 154 -272 154q-120 0 -224 -70t-165.5 -190.5t-61.5 -261.5q0 -182 105 -294t266 -112q93 0 165 40t138 114
q83 -158 301 -158q84 0 160 34.5t136 99.5t95 170.5t35 236.5q0 160 -66.5 305t-181 251.5t-277 169t-345.5 62.5q-187 0 -354.5 -70.5t-286 -190t-187.5 -283.5t-69 -345q0 -183 68.5 -346t187 -281.5t287.5 -187.5t362 -69q292 0 545 157z" />
    <glyph glyph-name="A" unicode="A" horiz-adv-x="1540" 
d="M479 281h574l116 -281h387l-614 1444h-344l-614 -1444h381zM586 563l182 455l178 -455h-360z" />
    <glyph glyph-name="B" unicode="B" horiz-adv-x="1443" 
d="M127 1436v-1436h690q264 0 408.5 107t144.5 292q0 139 -76.5 227t-218.5 124q219 91 219 325q0 172 -132.5 266.5t-356.5 94.5h-678zM477 854v291h258q97 0 148 -37t51 -107t-53 -108.5t-154 -38.5h-250zM477 291v305h295q120 0 179 -39.5t59 -110.5q0 -73 -58 -114
t-166 -41h-309z" />
    <glyph glyph-name="C" unicode="C" horiz-adv-x="1376" 
d="M1282 483q-99 -92 -200 -138t-218 -46q-189 0 -300 119.5t-111 302.5q0 177 112 296.5t299 119.5q123 0 227 -47t179 -127v370q-188 131 -434 131q-160 0 -301 -58.5t-240.5 -158t-157 -237.5t-57.5 -293q0 -209 99 -380.5t268 -268.5t372 -97q258 0 463 148v364z" />
    <glyph glyph-name="D" unicode="D" horiz-adv-x="1548" 
d="M127 1436v-1436h528q187 0 340 55t255.5 151.5t158 229.5t55.5 289q0 319 -215 515t-585 196h-537zM487 319v797h195q187 0 300.5 -109.5t113.5 -287.5q0 -185 -116.5 -292.5t-313.5 -107.5h-179z" />
    <glyph glyph-name="E" unicode="E" horiz-adv-x="1363" 
d="M483 307v275h693v286h-693v260h762v308h-1118v-1436h1130v307h-774z" />
    <glyph glyph-name="F" unicode="F" horiz-adv-x="1325" 
d="M487 0v535h680v299h-680v286h752v316h-1112v-1436h360z" />
    <glyph glyph-name="G" unicode="G" horiz-adv-x="1579" 
d="M1157 565q0 -71 -28.5 -127t-75 -88.5t-100.5 -49.5t-111 -17q-165 0 -279 123t-114 311q0 117 55 214.5t152.5 154.5t217.5 57q220 0 383 -144v383q-169 82 -403 82q-163 0 -307 -58.5t-246 -158t-161.5 -237.5t-59.5 -293q0 -211 99.5 -382.5t269.5 -267.5t374 -96
q108 0 204 25t184 84t151 147.5t100 224t37 306.5v76h-649v-269h307z" />
    <glyph glyph-name="H" unicode="H" horiz-adv-x="1529" 
d="M127 1436v-1436h358v563h557v-563h359v1436h-359v-553h-557v553h-358z" />
    <glyph glyph-name="I" unicode="I" horiz-adv-x="614" 
d="M487 0v1436h-360v-1436h360z" />
    <glyph glyph-name="J" unicode="J" horiz-adv-x="935" 
d="M0 78q155 -103 301 -103q241 0 380.5 145t139.5 388v928h-358v-926q0 -107 -51 -162t-136 -55q-53 0 -106.5 23.5t-86.5 49t-83 70.5v-358z" />
    <glyph glyph-name="K" unicode="K" horiz-adv-x="1429" 
d="M485 850v586h-358v-1436h358v741l523 -741h436l-582 809l555 627h-428z" />
    <glyph glyph-name="L" unicode="L" horiz-adv-x="1216" 
d="M487 315v1121h-360v-1436h1057v315h-697z" />
    <glyph glyph-name="M" unicode="M" horiz-adv-x="1595" 
d="M393 877l402 -607l401 609v-879h358v1434h-378l-379 -607l-379 607h-377v-1434h352v877z" />
    <glyph glyph-name="N" unicode="N" horiz-adv-x="1583" 
d="M1100 606l-635 828h-338v-1434h354v852l656 -852h317v1436h-354v-830z" />
    <glyph glyph-name="O" unicode="O" horiz-adv-x="1697" 
d="M848 -29q157 0 299.5 58.5t245.5 158t164 239t61 294.5q0 152 -58.5 289t-160 236.5t-244.5 158.5t-305 59q-163 0 -306.5 -59t-245 -159t-160 -238t-58.5 -291t58.5 -290.5t159.5 -237.5t244.5 -159t305.5 -59zM848 1139q116 0 208 -58.5t141.5 -154.5t49.5 -209
t-49 -208.5t-140.5 -153.5t-207.5 -58q-173 0 -286 125t-113 299t111 296t286 122z" />
    <glyph glyph-name="P" unicode="P" horiz-adv-x="1347" 
d="M127 1436v-1436h360v436h209q175 0 309.5 57.5t213.5 174t79 276.5q0 231 -157 361.5t-424 130.5h-590zM487 723v407h201q121 0 185.5 -51.5t64.5 -150.5q0 -94 -67 -149.5t-183 -55.5h-201z" />
    <glyph glyph-name="Q" unicode="Q" horiz-adv-x="1792" 
d="M1712 -281v379l-219 215q65 92 95 188t30 218q0 205 -99.5 375.5t-276 270t-392.5 99.5q-163 0 -306.5 -59t-245 -159t-160 -238t-58.5 -291q0 -206 99 -376.5t275.5 -270t393.5 -99.5q128 0 250.5 37.5t195.5 100.5zM848 1139q116 0 208 -58.5t141.5 -154.5t49.5 -209
q0 -176 -111 -298t-286 -122q-173 0 -286 124t-113 298q0 176 111 298t286 122z" />
    <glyph glyph-name="R" unicode="R" horiz-adv-x="1386" 
d="M127 0h362v465h175l315 -465h416l-363 520q147 54 229 165t82 273q0 221 -148.5 349.5t-428.5 128.5h-639v-1436zM489 748v374h256q113 0 175.5 -46t62.5 -138q0 -90 -64.5 -140t-177.5 -50h-252z" />
    <glyph glyph-name="S" unicode="S" horiz-adv-x="1304" 
d="M879 395q0 -119 -205 -119q-159 0 -330.5 70t-302.5 184v-327q124 -114 290.5 -171t344.5 -57q117 0 218 26.5t178.5 78.5t122 135t44.5 188q0 89 -26.5 160.5t-71 119t-102.5 84t-122 59.5t-128 42.5t-122 36.5t-102.5 36t-71 47t-26.5 65q0 49 51.5 82.5t147.5 33.5
q128 0 272 -63t252 -162v338q-217 178 -551 178q-107 0 -202 -27.5t-170.5 -80t-120 -138t-44.5 -192.5q0 -82 26.5 -148.5t71.5 -110.5t103.5 -78.5t123 -57.5t128.5 -42t122.5 -36.5t103.5 -37.5t71.5 -49.5t26.5 -66.5z" />
    <glyph glyph-name="T" unicode="T" horiz-adv-x="1265" 
d="M811 0v1120h430v316h-1218v-316h430v-1120h358z" />
    <glyph glyph-name="U" unicode="U" horiz-adv-x="1533" 
d="M113 621q0 -320 169 -484t480 -164t483 164t172 494v805h-364v-815q0 -163 -75 -242.5t-212 -79.5q-138 0 -213.5 84t-75.5 246v807h-364v-815z" />
    <glyph glyph-name="V" unicode="V" horiz-adv-x="1472" 
d="M387 1436h-401l579 -1444h340l580 1444h-395l-351 -967z" />
    <glyph glyph-name="W" unicode="W" horiz-adv-x="2183" 
d="M651 547l-274 889h-381l481 -1444h316l299 887l301 -887h315l479 1444h-372l-271 -889l-291 893h-313z" />
    <glyph glyph-name="X" unicode="X" horiz-adv-x="1425" 
d="M438 1436h-413l475 -705l-496 -731h406l299 461l299 -461h413l-495 735l475 701h-406l-278 -432z" />
    <glyph glyph-name="Y" unicode="Y" horiz-adv-x="1429" 
d="M895 0v549l547 887h-404l-319 -553l-320 553h-411l547 -893v-543h360z" />
    <glyph glyph-name="Z" unicode="Z" horiz-adv-x="1284" 
d="M494 305l766 864v267h-1231v-306h739l-770 -864v-266h1255v305h-759z" />
    <glyph glyph-name="bracketleft" unicode="[" horiz-adv-x="911" 
d="M811 1200v242h-672v-1718h672v243h-354v1233h354z" />
    <glyph glyph-name="backslash" unicode="\" horiz-adv-x="1142" 
d="M0 1589l877 -1847l268 45l-877 1841z" />
    <glyph glyph-name="bracketright" unicode="]" horiz-adv-x="915" 
d="M104 -33v-243h672v1718h-672v-242h357v-1233h-357z" />
    <glyph glyph-name="asciicircum" unicode="^" horiz-adv-x="952" 
d="M356 1434l-307 -449h248l178 242l178 -242h252l-307 449h-242z" />
    <glyph glyph-name="underscore" unicode="_" horiz-adv-x="1222" 
d="M0 -102v-222h1223v222h-1223z" />
    <glyph glyph-name="grave" unicode="`" horiz-adv-x="540" 
d="M-18 1503l292 -262h250l-209 367z" />
    <glyph glyph-name="a" unicode="a" horiz-adv-x="1230" 
d="M772 279q-82 -76 -197 -76q-71 0 -120 39.5t-49 103.5q0 65 54.5 105.5t143.5 40.5q92 0 168 -37v-176zM1116 637q0 469 -532 469q-214 0 -430 -86v-256q169 70 342 70q139 0 207.5 -44.5t68.5 -142.5v-22q-118 47 -276 47q-195 0 -315 -88t-120 -258
q0 -162 109.5 -256.5t275.5 -94.5q196 0 324 138l346 -133v657z" />
    <glyph glyph-name="b" unicode="b" horiz-adv-x="1359" 
d="M467 137q131 -162 342 -162q98 0 187 40t156 112.5t106.5 180.5t39.5 237q0 128 -39.5 236t-107 179.5t-156.5 111.5t-188 40q-115 0 -195 -46.5t-147 -129.5v559h-352v-1515zM702 817q111 0 179.5 -79.5t68.5 -190.5q0 -121 -71 -199t-177 -78q-102 0 -172.5 78
t-70.5 195q0 120 70 197t173 77z" />
    <glyph glyph-name="c" unicode="c" horiz-adv-x="968" 
d="M881 1071q-89 39 -238 39q-125 0 -234.5 -45.5t-184.5 -122.5t-118 -181t-43 -218q0 -155 75 -285t207 -206.5t292 -76.5q138 0 254 48v331q-95 -82 -217 -82q-112 0 -189 79.5t-77 193.5q0 115 73 191.5t187 76.5q116 0 213 -84v342z" />
    <glyph glyph-name="d" unicode="d" horiz-adv-x="1359" 
d="M1247 -20v1515h-352v-549q-140 166 -344 166q-98 0 -187 -40t-156.5 -112t-107 -180.5t-39.5 -236.5t40 -236t107 -180t156.5 -112t188.5 -40q113 0 191.5 46.5t146.5 128.5zM653 272q-108 0 -175.5 81.5t-67.5 189.5q0 120 71 197t172 77q103 0 175.5 -76.5t72.5 -193.5
q0 -121 -71.5 -198t-176.5 -77z" />
    <glyph glyph-name="e" unicode="e" horiz-adv-x="1220" 
d="M1055 369q-70 -65 -190.5 -103.5t-227.5 -38.5q-137 0 -211 86l735 187q-2 121 -38 228.5t-102 192t-169 134t-229 49.5q-243 0 -401.5 -160t-158.5 -403q0 -164 72 -295t201.5 -205t294.5 -74q104 0 218 29.5t206 89.5v283zM397 553q0 53 11.5 101.5t35.5 91.5t66 68.5
t96 25.5q79 0 134 -50t75 -137l-416 -106z" />
    <glyph glyph-name="f" unicode="f" horiz-adv-x="790" 
d="M797 1481q-103 28 -219 28q-186 0 -287 -93t-101 -288v-49l-174 -274h174v-805h351v805h247v272h-303v47q0 61 47.5 94t114.5 33q76 0 150 -22v252z" />
    <glyph glyph-name="g" unicode="g" horiz-adv-x="1370" 
d="M666 365q-105 0 -174.5 65.5t-69.5 167.5q0 103 68.5 170.5t175.5 67.5q106 0 175.5 -66.5t69.5 -167.5q0 -103 -69.5 -170t-175.5 -67zM911 205q0 -149 -88 -220t-241 -71q-121 0 -247 44.5t-222 107.5v-287q122 -62 229.5 -91.5t243.5 -29.5q147 0 269.5 37t213 108.5
t141 184t50.5 256.5v843l-357 -133q-71 76 -150.5 117t-189.5 41q-80 0 -153.5 -22.5t-134.5 -67t-106 -106t-70 -142.5t-25 -174q0 -229 140.5 -370.5t346.5 -141.5q116 0 198.5 45.5t151.5 128.5v-57z" />
    <glyph glyph-name="h" unicode="h" horiz-adv-x="1269" 
d="M1165 709q0 181 -98.5 292t-273.5 111q-196 0 -334 -172v555h-348v-1495h352v596q0 94 53 147.5t131 53.5q76 0 121 -52t45 -149v-596h352v709z" />
    <glyph glyph-name="i" unicode="i" horiz-adv-x="575" 
d="M465 0v1087h-352v-1087h352zM287 1569q-90 0 -146.5 -48.5t-56.5 -136.5q0 -87 57 -135.5t146 -48.5t147 48.5t58 135.5q0 89 -57.5 137t-147.5 48z" />
    <glyph glyph-name="j" unicode="j" horiz-adv-x="710" 
d="M84 -330q75 -14 149 -14q186 0 277.5 89t91.5 284v1058h-352v-1054q0 -129 -90 -129q-30 0 -76 16v-250zM422 1569q-90 0 -146.5 -48.5t-56.5 -136.5q0 -87 57 -135.5t146 -48.5q88 0 146.5 49t58.5 135q0 89 -58 137t-147 48z" />
    <glyph glyph-name="k" unicode="k" horiz-adv-x="1189" 
d="M463 711v784h-352v-1495h352v557l336 -557h391l-408 639l398 448h-404z" />
    <glyph glyph-name="l" unicode="l" horiz-adv-x="573" 
d="M463 0v1495h-352v-1495h352z" />
    <glyph glyph-name="m" unicode="m" horiz-adv-x="1943" 
d="M1489 0h352v711q0 171 -100 286t-271 115q-222 0 -366 -180q-42 90 -126 135t-187 45q-192 0 -330 -170l-350 145v-1087h352v598q0 92 48 146.5t124 54.5q77 0 120.5 -53t43.5 -148v-598h352v598q0 83 47 142t129 59q74 0 118 -51.5t44 -149.5v-598z" />
    <glyph glyph-name="n" unicode="n" horiz-adv-x="1269" 
d="M1165 709q0 177 -100.5 290t-271.5 113q-191 0 -330 -174l-352 149v-1087h352v596q0 97 52.5 150t127.5 53q74 0 122 -52.5t48 -150.5v-596h352v709z" />
    <glyph glyph-name="o" unicode="o" horiz-adv-x="1320" 
d="M659 -27q163 0 300.5 74t219 206.5t81.5 293.5q0 116 -45 220t-123 180t-189.5 120.5t-238.5 44.5q-169 0 -307.5 -76.5t-216 -207t-77.5 -285.5t76 -285.5t213.5 -207.5t306.5 -77zM659 815q110 0 183 -81t73 -191q0 -111 -70 -191t-181 -80t-183.5 80.5t-72.5 194.5
q0 112 69.5 190t181.5 78z" />
    <glyph glyph-name="p" unicode="p" horiz-adv-x="1359" 
d="M465 141q136 -166 344 -166q98 0 186.5 40t155.5 112t107 181t40 237t-40 236t-107.5 179.5t-156.5 111.5t-187 40q-114 0 -192 -45t-148 -127l-354 147v-1425h352v479zM702 817q112 0 180 -79t68 -191q0 -123 -70 -200t-175 -77q-104 0 -175 78t-71 195q0 120 70 197
t173 77z" />
    <glyph glyph-name="q" unicode="q" horiz-adv-x="1359" 
d="M895 -338h352v1425l-356 -137q-66 76 -145.5 119t-194.5 43q-99 0 -188 -40t-156 -112t-106.5 -180t-39.5 -237q0 -126 40 -234t107 -180.5t156.5 -113t188.5 -40.5q114 0 194.5 47.5t147.5 131.5v-492zM655 270q-108 0 -176.5 83.5t-68.5 193.5q0 118 71 194t174 76
t174.5 -76.5t71.5 -193.5t-72 -197t-174 -80z" />
    <glyph glyph-name="r" unicode="r" horiz-adv-x="829" 
d="M819 1104q-8 2 -28 2q-221 0 -328 -223l-352 204v-1087h352v379q0 181 83 271.5t232 90.5q25 0 41 -4v367z" />
    <glyph glyph-name="s" unicode="s" horiz-adv-x="983" 
d="M600 305q0 -28 -24.5 -47t-53 -25t-57.5 -6q-86 0 -198.5 42t-203.5 106v-295q121 -52 217.5 -78.5t204.5 -26.5q197 0 316 95t119 256q0 75 -31 134.5t-80 95t-108.5 63t-119 46t-108.5 36t-80 41t-31 53.5t26 47.5t75 17.5q68 0 174.5 -36t191.5 -85v291
q-104 44 -182.5 62t-181.5 18q-188 0 -306 -92t-118 -252q0 -78 31 -138t80 -95.5t109 -62.5t119.5 -44t108.5 -33t80 -37.5t31 -50.5z" />
    <glyph glyph-name="t" unicode="t" horiz-adv-x="866" 
d="M233 328q0 -177 92.5 -264t258.5 -87q138 0 241 58v276q-78 -32 -137 -32q-53 0 -77.5 26.5t-24.5 83.5v414h258v284h-258v343l-563 -627h210v-475z" />
    <glyph glyph-name="u" unicode="u" horiz-adv-x="1259" 
d="M102 381q0 -187 95.5 -296.5t279.5 -109.5q211 0 330 152l352 -147v1107h-352v-593q0 -99 -51.5 -152t-128.5 -53t-124.5 52.5t-47.5 152.5v593h-353v-706z" />
    <glyph glyph-name="v" unicode="v" horiz-adv-x="1177" 
d="M750 -6l436 1093h-365l-231 -671l-230 671h-372l438 -1093h324z" />
    <glyph glyph-name="w" unicode="w" horiz-adv-x="1642" 
d="M328 1087h-346l337 -1093h306l194 614l193 -614h307l342 1093h-342l-166 -598l-184 603h-295l-182 -598z" />
    <glyph glyph-name="x" unicode="x" horiz-adv-x="1150" 
d="M381 551l-377 -551h373l194 303l195 -303h379l-375 553l365 534h-375l-182 -286l-183 286h-381z" />
    <glyph glyph-name="y" unicode="y" horiz-adv-x="1175" 
d="M-12 1087l465 -1097l-111 -328h303l541 1425h-363l-223 -720l-242 720h-370z" />
    <glyph glyph-name="z" unicode="z" horiz-adv-x="1087" 
d="M492 283l555 569v235h-994v-280h529l-551 -569v-238h1013v283h-552z" />
    <glyph glyph-name="braceleft" unicode="{" horiz-adv-x="929" 
d="M74 469q137 0 204.5 -52t61.5 -184q-4 -104 4 -177.5t33.5 -129.5t61 -91.5t99.5 -61t135.5 -39.5t180.5 -27l4 219q-80 13 -126 44t-60.5 74.5t-17 100.5t2.5 123q3 126 -52 203.5t-171 116.5q49 15 85.5 35.5t60 40t39 49t23 52.5t10.5 62t2.5 64.5t-2 73.5t-1.5 77
q0 53 13.5 90t42.5 60t63.5 36t87.5 23l-4 219q-90 -10 -158.5 -25t-139.5 -45.5t-116.5 -73.5t-74.5 -111.5t-29 -157.5q0 -25 1 -64t1 -59t-1 -50.5t-5 -46.5t-12.5 -38t-21.5 -33t-33 -24t-47 -19t-63 -10t-81 -4v-240z" />
    <glyph glyph-name="bar" unicode="|" horiz-adv-x="1363" 
d="M819 1624h-272v-1900h272v1900z" />
    <glyph glyph-name="braceright" unicode="}" horiz-adv-x="929" 
d="M858 709q-60 0 -104 7.5t-73 18.5t-47.5 34t-27 43t-11.5 57t-2 64t3 75.5t2 81.5q0 55 -11.5 101t-35.5 80.5t-52 62t-69 47.5t-79 34.5t-88.5 25t-91 17t-93.5 12.5l-4 -219q81 -14 127 -44.5t60 -74t17 -100.5t-2 -125q-4 -125 50.5 -202t173.5 -117
q-233 -76 -224 -320q6 -67 2.5 -124t-18.5 -100.5t-61 -74t-125 -43.5l4 -219q95 10 166 25.5t141 46.5t114 76t71.5 117t27.5 167q0 21 -1 61q-1 122 12 164q22 69 105 91q54 14 144 14v240z" />
    <glyph glyph-name="asciitilde" unicode="~" horiz-adv-x="1026" 
d="M772 811q-23 -52 -48.5 -76t-66.5 -24q-35 0 -88 21.5t-114.5 43t-118.5 21.5q-95 0 -153.5 -61.5t-94.5 -205.5l168 -75q23 53 46.5 75.5t64.5 22.5t151 -43t176 -43q183 0 242 260z" />
    <glyph glyph-name="uni00A0" unicode="&#xa0;" horiz-adv-x="573" 
 />
    <glyph glyph-name="exclamdown" unicode="&#xa1;" horiz-adv-x="681" 
d="M139 -367h402l-2 189l-105 788h-188l-105 -788zM342 725q89 0 146 48t57 136t-57.5 136.5t-145.5 48.5q-90 0 -147.5 -48.5t-57.5 -136.5t57.5 -136t147.5 -48z" />
    <glyph glyph-name="cent" unicode="&#xa2;" horiz-adv-x="1019" 
d="M508 475q-131 80 -131 258q0 121 60 200t161 93zM944 1223q-39 27 -98 45l26 178h-217l-22 -148q-164 -2 -293.5 -77t-200.5 -203.5t-71 -284.5q0 -185 105 -330.5t276 -199.5l-33 -201h217l29 168q170 6 288 84v311q-49 -55 -117 -89t-147 -34l96 576q89 -16 162 -105
v310z" />
    <glyph glyph-name="sterling" unicode="&#xa3;" horiz-adv-x="1206" 
d="M1016 553v256h-453v121q0 97 47 153t135 56q59 0 106.5 -24.5t98.5 -78.5l240 219q-173 205 -465 205q-246 0 -384 -143t-138 -387v-121h-150v-256h150v-553h973v287h-613v266h453z" />
    <glyph glyph-name="currency" unicode="&#xa4;" horiz-adv-x="1464" 
d="M1370 1151l-156 154l-186 -185q-133 84 -293 84q-158 0 -297 -86l-192 187l-150 -154l189 -186q-86 -123 -86 -291t90 -293l-193 -195l150 -151l198 192q136 -84 291 -84q151 0 289 82l193 -190l153 151l-188 189q90 134 90 299q0 154 -88 293zM440 674q0 131 83 220
t212 89q130 0 212.5 -89t82.5 -220q0 -130 -82.5 -219.5t-212.5 -89.5q-131 0 -213 89.5t-82 219.5z" />
    <glyph glyph-name="yen" unicode="&#xa5;" horiz-adv-x="1374" 
d="M510 436h-379v-227h377v-209h356v209h377v227h-377l21 117h356v227h-287l430 656h-401l-293 -506l-293 506h-409l428 -656h-285v-227h358z" />
    <glyph glyph-name="brokenbar" unicode="&#xa6;" horiz-adv-x="1402" 
d="M856 1370h-309v-711h309v711zM856 354l-309 2v-710h309v708z" />
    <glyph glyph-name="section" unicode="&#xa7;" horiz-adv-x="1204" 
d="M924 1391q-146 73 -328 73q-217 0 -337 -91t-120 -232q0 -65 28.5 -120.5t78.5 -92.5q-93 -30 -146 -88.5t-53 -137.5q0 -60 33.5 -109.5t96.5 -86.5t141.5 -64.5t181.5 -50.5q217 -51 217 -121q0 -77 -127 -77q-174 0 -336 124v-294q148 -74 330 -74q216 0 336 92
t120 235q0 129 -104 209q92 32 144.5 89t52.5 137q0 50 -22.5 92t-59.5 72.5t-98 58.5t-123.5 47.5t-149.5 42.5q-118 30 -167.5 58.5t-49.5 62.5q0 76 127 76q166 0 334 -123v293zM442 834q51 -3 141.5 -21.5t181.5 -59.5t91 -87q0 -37 -33 -60.5t-88 -23.5q-53 2 -119 14
t-134 32t-114 53t-46 71q0 37 31.5 58t88.5 24z" />
    <glyph glyph-name="dieresis" unicode="&#xa8;" horiz-adv-x="798" 
d="M174 1620q-76 0 -123 -45t-47 -121q0 -77 48 -121.5t122 -44.5q73 0 121.5 44.5t48.5 121.5t-48.5 121.5t-121.5 44.5zM625 1620q-75 0 -122.5 -45.5t-47.5 -120.5q0 -77 48.5 -121.5t121.5 -44.5q74 0 122 44.5t48 121.5t-48 121.5t-122 44.5z" />
    <glyph glyph-name="copyright" unicode="&#xa9;" horiz-adv-x="1603" 
d="M51 723q0 -155 59.5 -295.5t160 -242.5t239 -162t291.5 -60q155 0 295 61.5t240 164.5t159 243.5t59 292.5q0 151 -58.5 290t-158 240.5t-239 161.5t-293.5 60q-155 0 -295.5 -61t-240.5 -163t-159 -240.5t-59 -289.5zM1460 725q0 -138 -51.5 -262t-139 -213.5t-210 -142
t-258.5 -52.5q-181 0 -332 90t-237.5 243.5t-86.5 334.5q0 178 86.5 329.5t238.5 241.5t335 90t334 -89t236 -240t85 -330zM1038 606q-85 -78 -194 -78q-82 0 -139.5 58.5t-57.5 144.5q0 85 57.5 143t143.5 58q99 0 186 -80v248q-86 49 -196 49q-187 0 -315 -123t-128 -295
q0 -113 57.5 -210t156.5 -154.5t216 -57.5q107 0 213 58v239z" />
    <glyph glyph-name="ordfeminine" unicode="&#xaa;" horiz-adv-x="712" 
d="M53 1040q0 -90 58.5 -140t148.5 -50q111 0 180 82v-70h195v350q0 135 -70 200t-221 65q-134 0 -240 -47l41 -142q88 37 168 37q129 0 129 -108v-9q-64 23 -147 23q-114 0 -178 -47.5t-64 -143.5zM47 739v-147h598v147h-598zM444 1085q0 -48 -34.5 -78t-83.5 -30
q-37 0 -60.5 20.5t-23.5 55.5q0 36 28.5 58t77.5 22q45 0 96 -19v-29z" />
    <glyph glyph-name="guillemotleft" unicode="&#xab;" horiz-adv-x="1304" 
d="M684 193l-266 352l266 354l-264 113l-348 -469l346 -465zM1225 193l-267 352l267 354l-264 113l-349 -469l346 -465z" />
    <glyph glyph-name="logicalnot" unicode="&#xac;" horiz-adv-x="1372" 
d="M1225 258v592h-1075v-260h800v-332h275z" />
    <glyph glyph-name="uni00AD" unicode="&#xad;" horiz-adv-x="747" 
d="M700 403v312h-651v-312h651z" />
    <glyph glyph-name="registered" unicode="&#xae;" horiz-adv-x="1560" 
d="M784 1470q-152 0 -290.5 -59.5t-238 -159.5t-158 -237t-58.5 -287t58 -287t156 -237t236 -159.5t291 -59.5q152 0 290 60t236.5 160.5t157 237.5t58.5 285q0 151 -58 288t-156 237t-235 159t-289 59zM780 74q-180 0 -329 88t-233.5 237.5t-84.5 325.5q0 178 84.5 328
t234.5 238.5t332 88.5q179 0 327 -87t232 -236t84 -326q0 -178 -84 -328.5t-233 -239.5t-330 -89zM465 1147v-803h207v262h86l180 -262h240l-209 293q78 32 125 95t47 149q0 120 -84.5 193t-237.5 73h-354zM672 770v199h137q58 0 92.5 -28t34.5 -71q0 -45 -34 -72.5
t-91 -27.5h-139z" />
    <glyph glyph-name="macron" unicode="&#xaf;" horiz-adv-x="872" 
d="M805 1196v219h-735v-219h735z" />
    <glyph glyph-name="degree" unicode="&#xb0;" horiz-adv-x="851" 
d="M426 817q148 0 255 104.5t107 249.5t-108 249t-254 104q-144 0 -252 -104.5t-108 -248.5q0 -145 107 -249.5t253 -104.5zM426 1348q75 0 125.5 -51.5t50.5 -125.5q0 -75 -50.5 -126.5t-125.5 -51.5q-73 0 -123.5 52t-50.5 126q0 73 51 125t123 52z" />
    <glyph glyph-name="plusminus" unicode="&#xb1;" horiz-adv-x="1288" 
d="M154 911v-243h366v-312h252v312h361v243h-361v301h-252v-301h-366zM154 256v-244h979v244h-979z" />
    <glyph glyph-name="uni00B2" unicode="&#xb2;" horiz-adv-x="847" 
d="M35 584h741l10 192l-325 -14l86 67q115 89 173 170.5t58 184.5q0 127 -100 206.5t-240 79.5q-156 0 -239 -74t-107 -220l234 -17q16 123 106 123q47 0 76 -30t29 -76q0 -24 -11 -52.5t-23 -50.5t-39.5 -54.5t-41.5 -48t-48.5 -50.5t-41.5 -43z" />
    <glyph glyph-name="uni00B3" unicode="&#xb3;" horiz-adv-x="786" 
d="M20 854q9 -138 107 -210.5t250 -72.5q150 0 256 73t106 206q0 69 -37.5 123t-109.5 84q54 27 81 74.5t27 105.5q0 113 -93.5 176.5t-221.5 63.5q-86 0 -156 -27.5t-118 -88t-56 -147.5h234q3 40 26 66.5t66 26.5q39 0 62.5 -24.5t23.5 -61.5q0 -46 -31 -73.5t-78 -27.5
h-26v-143q7 0 23.5 1t23.5 1q57 0 90 -30.5t33 -78.5q0 -55 -34 -91t-87 -36t-84.5 30t-36.5 81h-240z" />
    <glyph glyph-name="acute" unicode="&#xb4;" horiz-adv-x="538" 
d="M225 1608l-209 -367h250l293 262z" />
    <glyph glyph-name="uni00B5" unicode="&#xb5;" horiz-adv-x="1273" 
d="M457 -338h-353v1425h353v-593q0 -99 47.5 -152t124.5 -53q78 0 129 53.5t51 151.5v593h352v-1087l-352 147q-66 -172 -193 -172q-52 0 -94 30.5t-65 78.5v-422z" />
    <glyph glyph-name="paragraph" unicode="&#xb6;" horiz-adv-x="1310" 
d="M463 -229h219v1474h137v-1474h219v1474h105v201h-598q-219 0 -340 -108.5t-121 -299.5q0 -167 105 -267.5t274 -121.5v-878z" />
    <glyph glyph-name="periodcentered" unicode="&#xb7;" horiz-adv-x="694" 
d="M346 973q-96 0 -153.5 -55t-57.5 -152t59 -152t152 -55q94 0 153.5 55t59.5 152q0 98 -59.5 152.5t-153.5 54.5z" />
    <glyph glyph-name="cedilla" unicode="&#xb8;" horiz-adv-x="729" 
d="M403 -139l86 139h-143l-139 -217l59 -49q47 18 86 18q38 0 60 -13.5t22 -39.5q0 -32 -36.5 -48t-75.5 -16q-77 0 -140 31l-49 -110q107 -52 213 -52q45 0 87.5 10t81.5 31.5t63 60.5t24 91q0 79 -56 121.5t-128 42.5h-15z" />
    <glyph glyph-name="uni00B9" unicode="&#xb9;" horiz-adv-x="667" 
d="M219 584h242v868l-172 -4q-146 -15 -201 -31v-198q23 3 131 24v-659z" />
    <glyph glyph-name="ordmasculine" unicode="&#xba;" horiz-adv-x="745" 
d="M47 1167q0 -134 95.5 -224.5t228.5 -90.5q141 0 235 92.5t94 224.5q0 131 -93 222.5t-232 91.5t-233.5 -93.5t-94.5 -222.5zM78 745v-147h590v147h-590zM508 1167q0 -61 -36 -104t-97 -43q-59 0 -97 43t-38 106q0 62 35.5 103t95.5 41q59 0 98 -42t39 -104z" />
    <glyph glyph-name="guillemotright" unicode="&#xbb;" horiz-adv-x="1306" 
d="M346 545l-266 -352l264 -115l348 465l-348 469l-264 -113zM887 545l-264 -352l264 -115l348 465l-350 469l-264 -113z" />
    <glyph glyph-name="onequarter" unicode="&#xbc;" horiz-adv-x="1669" 
d="M1102 330q20 31 91 135t99 153q2 -2 6 -2l-2 -12q-6 -49 -6 -272q-61 0 -94 -2q-67 0 -92 -2zM856 160q74 0 218.5 1t215.5 1l-4 -160h230l-5 160q19 0 52.5 -1t50.5 -1l6 176l-104 -4v545h-254l-406 -582v-135zM446 -190l914 1855h-291l-911 -1855h288zM166 584h242v868
l-172 -4q-146 -15 -201 -31v-198q23 3 131 24v-659z" />
    <glyph glyph-name="onehalf" unicode="&#xbd;" horiz-adv-x="1773" 
d="M446 -190l914 1855h-291l-911 -1855h288zM166 584h242v868l-172 -4q-146 -15 -201 -31v-198q23 3 131 24v-659zM948 -2h742l10 192l-326 -14l86 68q115 89 173.5 170.5t58.5 183.5q0 127 -100 207t-240 80q-156 0 -239 -74t-107 -221l233 -17q16 123 107 123
q47 0 75.5 -30t28.5 -76q0 -24 -11 -52.5t-23 -50.5t-39.5 -54.5t-41.5 -48t-48.5 -50.5t-41.5 -43z" />
    <glyph glyph-name="threequarters" unicode="&#xbe;" horiz-adv-x="1974" 
d="M55 854q9 -138 107 -210.5t250 -72.5q150 0 256 73t106 206q0 69 -37.5 123t-109.5 84q54 27 81 74.5t27 105.5q0 113 -93.5 176.5t-221.5 63.5q-86 0 -156 -27.5t-118 -88t-56 -147.5h234q3 40 26 66.5t66 26.5q39 0 62.5 -24.5t23.5 -61.5q0 -46 -31 -73.5t-78 -27.5
h-26v-143q7 0 23.5 1t23.5 1q57 0 90 -30.5t33 -78.5q0 -55 -34 -91t-87 -36t-84.5 30t-36.5 81h-240zM750 -190l913 1855h-291l-911 -1855h289zM1409 330q20 31 91 135t99 153q2 -2 7 -2l-2 -12q-7 -58 -7 -272q-61 0 -94 -2q-67 0 -92 -2zM1163 160q74 0 218.5 1t215.5 1
l-4 -160h230l-4 160q19 0 52 -1t50 -1l6 176l-104 -4v545h-254l-406 -582v-135z" />
    <glyph glyph-name="questiondown" unicode="&#xbf;" horiz-adv-x="1044" 
d="M963 100q-184 -188 -355 -188q-71 0 -122.5 33.5t-51.5 89.5q0 77 115 172q40 31 68 59t56 67.5t42 89t14 109.5v97h-323v-66q0 -64 -20.5 -99t-80.5 -81q-45 -36 -73.5 -61t-60 -61t-49 -70t-29 -80t-11.5 -99q0 -124 64.5 -217t168.5 -139.5t230 -46.5q129 0 238 47
t180 141v303zM553 721q90 0 147.5 48t57.5 136t-57.5 136.5t-147.5 48.5q-89 0 -147 -49t-58 -136t58 -135.5t147 -48.5z" />
    <glyph glyph-name="Agrave" unicode="&#xc0;" horiz-adv-x="1540" 
d="M479 281h574l116 -281h387l-614 1444h-344l-614 -1444h381zM586 563l182 455l178 -455h-360zM367 1841l292 -262h250l-209 367z" />
    <glyph glyph-name="Aacute" unicode="&#xc1;" horiz-adv-x="1540" 
d="M479 281h574l116 -281h387l-614 1444h-344l-614 -1444h381zM586 563l182 455l178 -455h-360zM879 1946l-209 -367h250l292 262z" />
    <glyph glyph-name="Acircumflex" unicode="&#xc2;" horiz-adv-x="1540" 
d="M479 281h574l116 -281h387l-614 1444h-344l-614 -1444h381zM586 563l182 455l178 -455h-360zM1139 1597l-275 367h-194l-277 -367h248l125 134l129 -134h244z" />
    <glyph glyph-name="Atilde" unicode="&#xc3;" horiz-adv-x="1540" 
d="M479 281h574l116 -281h387l-614 1444h-344l-614 -1444h381zM586 563l182 455l178 -455h-360zM586 1550q17 54 35 75.5t43 21.5q26 0 105.5 -36t133.5 -36q167 0 246 283l-193 34q-22 -92 -67 -92q-23 0 -107.5 37t-138.5 37q-173 0 -252 -289z" />
    <glyph glyph-name="Adieresis" unicode="&#xc4;" horiz-adv-x="1540" 
d="M479 281h574l116 -281h387l-614 1444h-344l-614 -1444h381zM586 563l182 455l178 -455h-360zM547 1958q-76 0 -123 -45t-47 -121q0 -77 48 -121.5t122 -44.5q73 0 121.5 44.5t48.5 121.5t-48.5 121.5t-121.5 44.5zM997 1958q-75 0 -122.5 -45.5t-47.5 -120.5
q0 -77 48.5 -121.5t121.5 -44.5q74 0 122 44.5t48 121.5t-48 121.5t-122 44.5z" />
    <glyph glyph-name="Aring" unicode="&#xc5;" horiz-adv-x="1540" 
d="M479 281h574l116 -281h387l-614 1444h-344l-614 -1444h381zM586 563l182 455l178 -455h-360zM770 1366q102 0 174 69.5t72 170.5q0 98 -72.5 167.5t-173.5 69.5q-98 0 -172 -70.5t-74 -168.5q0 -100 73.5 -169t172.5 -69zM770 1665q26 0 42.5 -17.5t16.5 -43.5
q0 -28 -15.5 -44t-43.5 -16q-25 0 -42 17.5t-17 44.5q0 24 17.5 41.5t41.5 17.5z" />
    <glyph glyph-name="AE" unicode="&#xc6;" horiz-adv-x="2035" 
d="M641 1436l-657 -1436h381l141 281h409v-281h1133v307h-776v275h694v286h-694v260h764v308h-1395zM915 563h-297l297 635v-635z" />
    <glyph glyph-name="Ccedilla" unicode="&#xc7;" horiz-adv-x="1376" 
d="M1282 483q-99 -92 -200 -138t-218 -46q-189 0 -300 119.5t-111 302.5q0 177 112 296.5t299 119.5q123 0 227 -47t179 -127v370q-188 131 -434 131q-160 0 -301 -58.5t-240.5 -158t-157 -237.5t-57.5 -293q0 -209 99 -380.5t268 -268.5t372 -97q258 0 463 148v364z
M770 -139l86 139h-143l-140 -217l60 -49q46 18 86 18q38 0 60 -13.5t22 -39.5q0 -32 -37 -48t-76 -16q-76 0 -139 31l-49 -110q107 -52 213 -52q45 0 87.5 10t81.5 31.5t63 60.5t24 91q0 79 -56.5 121.5t-128.5 42.5h-14z" />
    <glyph glyph-name="Egrave" unicode="&#xc8;" horiz-adv-x="1363" 
d="M483 307v275h693v286h-693v260h762v308h-1118v-1436h1130v307h-774zM317 1841l293 -262h250l-209 367z" />
    <glyph glyph-name="Eacute" unicode="&#xc9;" horiz-adv-x="1363" 
d="M483 307v275h693v286h-693v260h762v308h-1118v-1436h1130v307h-774zM721 1946l-209 -367h250l293 262z" />
    <glyph glyph-name="Ecircumflex" unicode="&#xca;" horiz-adv-x="1363" 
d="M483 307v275h693v286h-693v260h762v308h-1118v-1436h1130v307h-774zM1069 1597l-274 367h-195l-276 -367h247l125 134l129 -134h244z" />
    <glyph glyph-name="Edieresis" unicode="&#xcb;" horiz-adv-x="1363" 
d="M483 307v275h693v286h-693v260h762v308h-1118v-1436h1130v307h-774zM457 1958q-76 0 -123 -45t-47 -121q0 -77 48 -121.5t122 -44.5q73 0 121.5 44.5t48.5 121.5t-48.5 121.5t-121.5 44.5zM907 1958q-75 0 -122.5 -45.5t-47.5 -120.5q0 -77 48.5 -121.5t121.5 -44.5
q74 0 122 44.5t48 121.5t-48 121.5t-122 44.5z" />
    <glyph glyph-name="Igrave" unicode="&#xcc;" horiz-adv-x="614" 
d="M487 0v1436h-360v-1436h360zM-90 1862l293 -263h250l-209 367z" />
    <glyph glyph-name="Iacute" unicode="&#xcd;" horiz-adv-x="614" 
d="M487 0v1436h-360v-1436h360zM362 1946l-208 -367h249l293 262z" />
    <glyph glyph-name="Icircumflex" unicode="&#xce;" horiz-adv-x="614" 
d="M487 0v1436h-360v-1436h360zM686 1597l-274 367h-195l-276 -367h247l125 134l129 -134h244z" />
    <glyph glyph-name="Idieresis" unicode="&#xcf;" horiz-adv-x="614" 
d="M487 0v1436h-360v-1436h360zM86 1958q-76 0 -123 -45t-47 -121q0 -77 48 -121.5t122 -44.5q73 0 121.5 44.5t48.5 121.5t-48.5 121.5t-121.5 44.5zM537 1958q-75 0 -122.5 -45.5t-47.5 -120.5q0 -77 48.5 -121.5t121.5 -44.5q74 0 122 44.5t48 121.5t-48 121.5t-122 44.5
z" />
    <glyph glyph-name="Eth" unicode="&#xd0;" horiz-adv-x="1597" 
d="M176 1436v-1436h531q186 0 339 55t255.5 151.5t158.5 229.5t56 289q0 157 -55.5 288t-157.5 225t-253.5 146t-336.5 52h-537zM537 319v797h196q187 0 299.5 -109.5t112.5 -287.5q0 -185 -115.5 -292.5t-312.5 -107.5h-180zM670 535v311h-652v-311h652z" />
    <glyph glyph-name="Ntilde" unicode="&#xd1;" horiz-adv-x="1583" 
d="M1100 606l-635 828h-338v-1434h354v852l656 -852h317v1436h-354v-830zM621 1550q17 54 34.5 75.5t42.5 21.5q26 0 106 -36t134 -36q167 0 246 283l-193 34q-22 -92 -67 -92q-23 0 -107.5 37t-138.5 37q-173 0 -252 -289z" />
    <glyph glyph-name="Ograve" unicode="&#xd2;" horiz-adv-x="1697" 
d="M848 -29q157 0 299.5 58.5t245.5 158t164 239t61 294.5q0 152 -58.5 289t-160 236.5t-244.5 158.5t-305 59q-163 0 -306.5 -59t-245 -159t-160 -238t-58.5 -291t58.5 -290.5t159.5 -237.5t244.5 -159t305.5 -59zM848 1139q116 0 208 -58.5t141.5 -154.5t49.5 -209
t-49 -208.5t-140.5 -153.5t-207.5 -58q-173 0 -286 125t-113 299t111 296t286 122zM424 1841l293 -262h250l-209 367z" />
    <glyph glyph-name="Oacute" unicode="&#xd3;" horiz-adv-x="1697" 
d="M848 -29q157 0 299.5 58.5t245.5 158t164 239t61 294.5q0 152 -58.5 289t-160 236.5t-244.5 158.5t-305 59q-163 0 -306.5 -59t-245 -159t-160 -238t-58.5 -291t58.5 -290.5t159.5 -237.5t244.5 -159t305.5 -59zM848 1139q116 0 208 -58.5t141.5 -154.5t49.5 -209
t-49 -208.5t-140.5 -153.5t-207.5 -58q-173 0 -286 125t-113 299t111 296t286 122zM1008 1946l-209 -367h250l292 262z" />
    <glyph glyph-name="Ocircumflex" unicode="&#xd4;" horiz-adv-x="1697" 
d="M848 -29q157 0 299.5 58.5t245.5 158t164 239t61 294.5q0 152 -58.5 289t-160 236.5t-244.5 158.5t-305 59q-163 0 -306.5 -59t-245 -159t-160 -238t-58.5 -291t58.5 -290.5t159.5 -237.5t244.5 -159t305.5 -59zM848 1139q116 0 208 -58.5t141.5 -154.5t49.5 -209
t-49 -208.5t-140.5 -153.5t-207.5 -58q-173 0 -286 125t-113 299t111 296t286 122zM1219 1597l-275 367h-194l-277 -367h248l125 134l129 -134h244z" />
    <glyph glyph-name="Otilde" unicode="&#xd5;" horiz-adv-x="1697" 
d="M848 -29q157 0 299.5 58.5t245.5 158t164 239t61 294.5q0 152 -58.5 289t-160 236.5t-244.5 158.5t-305 59q-163 0 -306.5 -59t-245 -159t-160 -238t-58.5 -291t58.5 -290.5t159.5 -237.5t244.5 -159t305.5 -59zM848 1139q116 0 208 -58.5t141.5 -154.5t49.5 -209
t-49 -208.5t-140.5 -153.5t-207.5 -58q-173 0 -286 125t-113 299t111 296t286 122zM664 1550q17 54 34.5 75.5t42.5 21.5q26 0 106 -36t134 -36q167 0 246 283l-193 34q-22 -92 -67 -92q-23 0 -107.5 37t-138.5 37q-173 0 -252 -289z" />
    <glyph glyph-name="Odieresis" unicode="&#xd6;" horiz-adv-x="1697" 
d="M848 -29q157 0 299.5 58.5t245.5 158t164 239t61 294.5q0 152 -58.5 289t-160 236.5t-244.5 158.5t-305 59q-163 0 -306.5 -59t-245 -159t-160 -238t-58.5 -291t58.5 -290.5t159.5 -237.5t244.5 -159t305.5 -59zM848 1139q116 0 208 -58.5t141.5 -154.5t49.5 -209
t-49 -208.5t-140.5 -153.5t-207.5 -58q-173 0 -286 125t-113 299t111 296t286 122zM625 1958q-76 0 -123 -45t-47 -121q0 -77 48 -121.5t122 -44.5q73 0 121.5 44.5t48.5 121.5t-48.5 121.5t-121.5 44.5zM1075 1958q-75 0 -122.5 -45.5t-47.5 -120.5q0 -77 48.5 -121.5
t121.5 -44.5q74 0 122 44.5t48 121.5t-48 121.5t-122 44.5z" />
    <glyph glyph-name="multiply" unicode="&#xd7;" horiz-adv-x="1413" 
d="M512 717l-330 -328l199 -194l328 325l323 -325l197 196l-324 326l324 327l-197 197l-323 -328l-328 328l-197 -197z" />
    <glyph glyph-name="Oslash" unicode="&#xd8;" horiz-adv-x="1681" 
d="M258 -104l229 -117l125 237q113 -45 228 -45q161 0 304 59.5t244.5 160.5t160.5 239.5t59 290.5q0 179 -75 329t-214 255l104 186l-227 115l-106 -191q-120 49 -248 49q-163 0 -306.5 -59t-245 -159t-160 -238t-58.5 -291q0 -184 81 -338.5t226 -259.5zM541 436
q-99 116 -99 285q0 176 111.5 297t282.5 121q55 0 100 -23zM1153 979q86 -116 86 -262q0 -175 -110.5 -297.5t-282.5 -122.5q-41 0 -78 22z" />
    <glyph glyph-name="Ugrave" unicode="&#xd9;" horiz-adv-x="1533" 
d="M113 621q0 -320 169 -484t480 -164t483 164t172 494v805h-364v-815q0 -163 -75 -242.5t-212 -79.5q-138 0 -213.5 84t-75.5 246v807h-364v-815zM369 1841l293 -262h249l-209 367z" />
    <glyph glyph-name="Uacute" unicode="&#xda;" horiz-adv-x="1533" 
d="M113 621q0 -320 169 -484t480 -164t483 164t172 494v805h-364v-815q0 -163 -75 -242.5t-212 -79.5q-138 0 -213.5 84t-75.5 246v807h-364v-815zM842 1946l-209 -367h250l293 262z" />
    <glyph glyph-name="Ucircumflex" unicode="&#xdb;" horiz-adv-x="1533" 
d="M113 621q0 -320 169 -484t480 -164t483 164t172 494v805h-364v-815q0 -163 -75 -242.5t-212 -79.5q-138 0 -213.5 84t-75.5 246v807h-364v-815zM1137 1597l-275 367h-194l-277 -367h248l125 134l129 -134h244z" />
    <glyph glyph-name="Udieresis" unicode="&#xdc;" horiz-adv-x="1533" 
d="M113 621q0 -320 169 -484t480 -164t483 164t172 494v805h-364v-815q0 -163 -75 -242.5t-212 -79.5q-138 0 -213.5 84t-75.5 246v807h-364v-815zM537 1958q-76 0 -123 -45t-47 -121q0 -77 48 -121.5t122 -44.5q73 0 121.5 44.5t48.5 121.5t-48.5 121.5t-121.5 44.5z
M987 1958q-75 0 -122.5 -45.5t-47.5 -120.5q0 -77 48.5 -121.5t121.5 -44.5q74 0 122 44.5t48 121.5t-48 121.5t-122 44.5z" />
    <glyph glyph-name="Yacute" unicode="&#xdd;" horiz-adv-x="1429" 
d="M895 0v549l547 887h-404l-319 -553l-320 553h-411l547 -893v-543h360zM791 1946l-209 -367h249l293 262z" />
    <glyph glyph-name="Thorn" unicode="&#xde;" horiz-adv-x="1193" 
d="M127 1446v-1446h354v291h191q221 0 347 118t126 339q0 124 -40.5 217.5t-114.5 149.5t-171 83t-217 27h-121v221h-354zM481 565v373h54q46 0 78 -3t67.5 -13.5t57.5 -29t36 -52.5t14 -82q0 -59 -18 -98.5t-53 -59.5t-75.5 -27.5t-96.5 -7.5h-64z" />
    <glyph glyph-name="germandbls" unicode="&#xdf;" horiz-adv-x="1189" 
d="M367 1001q0 101 49.5 161.5t134.5 60.5q71 0 115.5 -45.5t44.5 -122.5q0 -144 -191 -232v-192q121 -12 188.5 -61t67.5 -134q0 -86 -69 -134.5t-189 -53.5v-254q84 -7 168 3.5t164 41t141.5 78t99 122t37.5 164.5q0 72 -25.5 133t-68.5 104t-94 72.5t-109 45.5
q101 48 161.5 134t60.5 208q0 180 -136.5 299t-359.5 119q-261 0 -401 -142.5t-140 -380.5v-995h351v1001z" />
    <glyph glyph-name="agrave" unicode="&#xe0;" horiz-adv-x="1230" 
d="M772 279q-82 -76 -197 -76q-71 0 -120 39.5t-49 103.5q0 65 54.5 105.5t143.5 40.5q92 0 168 -37v-176zM1116 637q0 469 -532 469q-214 0 -430 -86v-256q169 70 342 70q139 0 207.5 -44.5t68.5 -142.5v-22q-118 47 -276 47q-195 0 -315 -88t-120 -258
q0 -162 109.5 -256.5t275.5 -94.5q196 0 324 138l346 -133v657zM211 1524l293 -262h250l-209 366z" />
    <glyph glyph-name="aacute" unicode="&#xe1;" horiz-adv-x="1230" 
d="M772 279q-82 -76 -197 -76q-71 0 -120 39.5t-49 103.5q0 65 54.5 105.5t143.5 40.5q92 0 168 -37v-176zM1116 637q0 469 -532 469q-214 0 -430 -86v-256q169 70 342 70q139 0 207.5 -44.5t68.5 -142.5v-22q-118 47 -276 47q-195 0 -315 -88t-120 -258
q0 -162 109.5 -256.5t275.5 -94.5q196 0 324 138l346 -133v657zM688 1628l-209 -366h250l293 262z" />
    <glyph glyph-name="acircumflex" unicode="&#xe2;" horiz-adv-x="1230" 
d="M772 279q-82 -76 -197 -76q-71 0 -120 39.5t-49 103.5q0 65 54.5 105.5t143.5 40.5q92 0 168 -37v-176zM1116 637q0 469 -532 469q-214 0 -430 -86v-256q169 70 342 70q139 0 207.5 -44.5t68.5 -142.5v-22q-118 47 -276 47q-195 0 -315 -88t-120 -258
q0 -162 109.5 -256.5t275.5 -94.5q196 0 324 138l346 -133v657zM995 1260l-274 366h-195l-276 -366h248l125 133l129 -133h243z" />
    <glyph glyph-name="atilde" unicode="&#xe3;" horiz-adv-x="1230" 
d="M772 279q-82 -76 -197 -76q-71 0 -120 39.5t-49 103.5q0 65 54.5 105.5t143.5 40.5q92 0 168 -37v-176zM1116 637q0 469 -532 469q-214 0 -430 -86v-256q169 70 342 70q139 0 207.5 -44.5t68.5 -142.5v-22q-118 47 -276 47q-195 0 -315 -88t-120 -258
q0 -162 109.5 -256.5t275.5 -94.5q196 0 324 138l346 -133v657zM444 1212q17 54 35 75.5t43 21.5q26 0 106 -36t134 -36q167 0 246 283l-193 34q-22 -92 -67 -92q-23 0 -107.5 37t-138.5 37q-173 0 -252 -289z" />
    <glyph glyph-name="adieresis" unicode="&#xe4;" horiz-adv-x="1230" 
d="M772 279q-82 -76 -197 -76q-71 0 -120 39.5t-49 103.5q0 65 54.5 105.5t143.5 40.5q92 0 168 -37v-176zM1116 637q0 469 -532 469q-214 0 -430 -86v-256q169 70 342 70q139 0 207.5 -44.5t68.5 -142.5v-22q-118 47 -276 47q-195 0 -315 -88t-120 -258
q0 -162 109.5 -256.5t275.5 -94.5q196 0 324 138l346 -133v657zM408 1616q-74 0 -121 -45t-47 -119q0 -76 47.5 -121t120.5 -45q72 0 119.5 45t47.5 121t-47 120t-120 44zM856 1616q-74 0 -121 -45t-47 -119q0 -76 47.5 -121t120.5 -45t120.5 45t47.5 121t-47.5 120
t-120.5 44z" />
    <glyph glyph-name="aring" unicode="&#xe5;" horiz-adv-x="1230" 
d="M772 279q-82 -76 -197 -76q-71 0 -120 39.5t-49 103.5q0 65 54.5 105.5t143.5 40.5q92 0 168 -37v-176zM1116 637q0 469 -532 469q-214 0 -430 -86v-256q169 70 342 70q139 0 207.5 -44.5t68.5 -142.5v-22q-118 47 -276 47q-195 0 -315 -88t-120 -258
q0 -162 109.5 -256.5t275.5 -94.5q196 0 324 138l346 -133v657zM602 1184q102 0 174 69t72 170q0 98 -72.5 168t-173.5 70q-98 0 -172 -70.5t-74 -169.5t73.5 -168t172.5 -69zM602 1483q26 0 43 -18t17 -44q0 -28 -16 -43.5t-44 -15.5q-25 0 -42 17t-17 44q0 24 17.5 42
t41.5 18z" />
    <glyph glyph-name="ae" unicode="&#xe6;" horiz-adv-x="1947" 
d="M1780 369q-72 -65 -191.5 -103.5t-226.5 -38.5q-137 0 -211 86l733 187q-2 121 -37.5 228.5t-101 192t-168.5 134t-229 49.5q-216 0 -361 -129q-129 129 -414 129q-219 0 -428 -84v-256q166 70 344 70q138 0 207.5 -44.5t69.5 -142.5v-22q-118 47 -277 47
q-70 0 -132 -11.5t-118 -38t-96.5 -65.5t-64 -98.5t-23.5 -132.5q0 -109 61.5 -190t159.5 -121t216 -40q268 0 477 134q151 -142 389 -142q113 0 223 31t199 88v283zM766 279q-82 -76 -199 -76q-70 0 -119 39.5t-49 103.5q0 65 55 105.5t144 40.5q92 0 168 -37v-176z
M1122 549q-4 70 15.5 134.5t70 110.5t123.5 46q79 0 134 -50t75 -137z" />
    <glyph glyph-name="ccedilla" unicode="&#xe7;" horiz-adv-x="968" 
d="M881 1071q-89 39 -238 39q-125 0 -234.5 -45.5t-184.5 -122.5t-118 -181t-43 -218q0 -155 75 -285t207 -206.5t292 -76.5q138 0 254 48v331q-95 -82 -217 -82q-112 0 -189 79.5t-77 193.5q0 115 73 191.5t187 76.5q116 0 213 -84v342zM600 -139l86 139h-143l-140 -217
l60 -49q47 18 86 18q38 0 60 -13.5t22 -39.5q0 -32 -37 -48t-76 -16q-76 0 -139 31l-49 -110q107 -52 213 -52q45 0 87.5 10t81.5 31.5t63 60.5t24 91q0 79 -56.5 121.5t-128.5 42.5h-14z" />
    <glyph glyph-name="egrave" unicode="&#xe8;" horiz-adv-x="1220" 
d="M1055 369q-70 -65 -190.5 -103.5t-227.5 -38.5q-137 0 -211 86l735 187q-2 121 -38 228.5t-102 192t-169 134t-229 49.5q-243 0 -401.5 -160t-158.5 -403q0 -164 72 -295t201.5 -205t294.5 -74q104 0 218 29.5t206 89.5v283zM397 553q0 53 11.5 101.5t35.5 91.5t66 68.5
t96 25.5q79 0 134 -50t75 -137l-416 -106zM170 1524l293 -262h250l-209 366z" />
    <glyph glyph-name="eacute" unicode="&#xe9;" horiz-adv-x="1220" 
d="M1055 369q-70 -65 -190.5 -103.5t-227.5 -38.5q-137 0 -211 86l735 187q-2 121 -38 228.5t-102 192t-169 134t-229 49.5q-243 0 -401.5 -160t-158.5 -403q0 -164 72 -295t201.5 -205t294.5 -74q104 0 218 29.5t206 89.5v283zM397 553q0 53 11.5 101.5t35.5 91.5t66 68.5
t96 25.5q79 0 134 -50t75 -137l-416 -106zM754 1628l-209 -366h250l292 262z" />
    <glyph glyph-name="ecircumflex" unicode="&#xea;" horiz-adv-x="1220" 
d="M1055 369q-70 -65 -190.5 -103.5t-227.5 -38.5q-137 0 -211 86l735 187q-2 121 -38 228.5t-102 192t-169 134t-229 49.5q-243 0 -401.5 -160t-158.5 -403q0 -164 72 -295t201.5 -205t294.5 -74q104 0 218 29.5t206 89.5v283zM397 553q0 53 11.5 101.5t35.5 91.5t66 68.5
t96 25.5q79 0 134 -50t75 -137l-416 -106zM993 1260l-274 366h-195l-276 -366h248l125 133l129 -133h243z" />
    <glyph glyph-name="edieresis" unicode="&#xeb;" horiz-adv-x="1220" 
d="M1055 369q-70 -65 -190.5 -103.5t-227.5 -38.5q-137 0 -211 86l735 187q-2 121 -38 228.5t-102 192t-169 134t-229 49.5q-243 0 -401.5 -160t-158.5 -403q0 -164 72 -295t201.5 -205t294.5 -74q104 0 218 29.5t206 89.5v283zM397 553q0 53 11.5 101.5t35.5 91.5t66 68.5
t96 25.5q79 0 134 -50t75 -137l-416 -106zM387 1616q-74 0 -121 -45t-47 -119q0 -76 47.5 -121t120.5 -45t120.5 45t47.5 121t-47.5 120t-120.5 44zM836 1616q-74 0 -121 -45t-47 -119q0 -76 47.5 -121t120.5 -45t120.5 45t47.5 121t-47.5 120t-120.5 44z" />
    <glyph glyph-name="igrave" unicode="&#xec;" horiz-adv-x="600" 
d="M481 0v1087h-352v-1087h352zM-74 1524l293 -262h250l-209 366z" />
    <glyph glyph-name="iacute" unicode="&#xed;" horiz-adv-x="630" 
d="M471 0v1087h-352v-1087h352zM358 1628l-208 -366h249l293 262z" />
    <glyph glyph-name="icircumflex" unicode="&#xee;" horiz-adv-x="573" 
d="M463 0v1087h-352v-1087h352zM655 1260l-274 366h-195l-276 -366h248l125 133l129 -133h243z" />
    <glyph glyph-name="idieresis" unicode="&#xef;" horiz-adv-x="591" 
d="M473 0v1087h-352v-1087h352zM72 1616q-74 0 -121 -45t-47 -119q0 -76 47.5 -121t120.5 -45t120.5 45t47.5 121t-47.5 120t-120.5 44zM520 1616q-74 0 -121 -45t-47 -119q0 -76 47.5 -121t120.5 -45t120.5 45t47.5 121t-47.5 120t-120.5 44z" />
    <glyph glyph-name="eth" unicode="&#xf0;" horiz-adv-x="1210" 
d="M207 1460q137 -99 190 -145l-231 -133l110 -115l242 143q141 -138 217 -274q-94 43 -182 43q-131 0 -242 -59.5t-179.5 -174t-68.5 -262.5q0 -121 47 -220t124 -161t172.5 -95.5t197.5 -33.5q76 0 150.5 19t146 62.5t126 107t87.5 161t33 216.5q0 452 -387 809l227 135
l-108 112l-238 -143q-113 98 -213 158zM463 426q-25 63 1 130.5t89 90.5q63 24 118.5 -9.5t78.5 -98.5q25 -65 -1 -129.5t-90 -87.5q-62 -23 -117 7.5t-79 96.5z" />
    <glyph glyph-name="ntilde" unicode="&#xf1;" horiz-adv-x="1269" 
d="M1165 709q0 177 -100.5 290t-271.5 113q-191 0 -330 -174l-352 149v-1087h352v596q0 97 52.5 150t127.5 53q74 0 122 -52.5t48 -150.5v-596h352v709zM500 1212q17 54 35 75.5t43 21.5q26 0 105.5 -36t133.5 -36q167 0 246 283l-193 34q-22 -92 -67 -92q-23 0 -107.5 37
t-138.5 37q-173 0 -252 -289z" />
    <glyph glyph-name="ograve" unicode="&#xf2;" horiz-adv-x="1320" 
d="M659 -27q163 0 300.5 74t219 206.5t81.5 293.5q0 116 -45 220t-123 180t-189.5 120.5t-238.5 44.5q-169 0 -307.5 -76.5t-216 -207t-77.5 -285.5t76 -285.5t213.5 -207.5t306.5 -77zM659 815q110 0 183 -81t73 -191q0 -111 -70 -191t-181 -80t-183.5 80.5t-72.5 194.5
q0 112 69.5 190t181.5 78zM231 1524l293 -262h250l-209 366z" />
    <glyph glyph-name="oacute" unicode="&#xf3;" horiz-adv-x="1320" 
d="M659 -27q163 0 300.5 74t219 206.5t81.5 293.5q0 116 -45 220t-123 180t-189.5 120.5t-238.5 44.5q-169 0 -307.5 -76.5t-216 -207t-77.5 -285.5t76 -285.5t213.5 -207.5t306.5 -77zM659 815q110 0 183 -81t73 -191q0 -111 -70 -191t-181 -80t-183.5 80.5t-72.5 194.5
q0 112 69.5 190t181.5 78zM756 1628l-209 -366h250l293 262z" />
    <glyph glyph-name="ocircumflex" unicode="&#xf4;" horiz-adv-x="1320" 
d="M659 -27q163 0 300.5 74t219 206.5t81.5 293.5q0 116 -45 220t-123 180t-189.5 120.5t-238.5 44.5q-169 0 -307.5 -76.5t-216 -207t-77.5 -285.5t76 -285.5t213.5 -207.5t306.5 -77zM659 815q110 0 183 -81t73 -191q0 -111 -70 -191t-181 -80t-183.5 80.5t-72.5 194.5
q0 112 69.5 190t181.5 78zM1036 1260l-274 366h-195l-276 -366h248l125 133l129 -133h243z" />
    <glyph glyph-name="otilde" unicode="&#xf5;" horiz-adv-x="1320" 
d="M659 -27q163 0 300.5 74t219 206.5t81.5 293.5q0 116 -45 220t-123 180t-189.5 120.5t-238.5 44.5q-169 0 -307.5 -76.5t-216 -207t-77.5 -285.5t76 -285.5t213.5 -207.5t306.5 -77zM659 815q110 0 183 -81t73 -191q0 -111 -70 -191t-181 -80t-183.5 80.5t-72.5 194.5
q0 112 69.5 190t181.5 78zM487 1212q17 54 35 75.5t43 21.5q26 0 106 -36t134 -36q167 0 246 283l-193 34q-22 -92 -67 -92q-23 0 -107.5 37t-138.5 37q-173 0 -252 -289z" />
    <glyph glyph-name="odieresis" unicode="&#xf6;" horiz-adv-x="1320" 
d="M659 -27q163 0 300.5 74t219 206.5t81.5 293.5q0 116 -45 220t-123 180t-189.5 120.5t-238.5 44.5q-169 0 -307.5 -76.5t-216 -207t-77.5 -285.5t76 -285.5t213.5 -207.5t306.5 -77zM659 815q110 0 183 -81t73 -191q0 -111 -70 -191t-181 -80t-183.5 80.5t-72.5 194.5
q0 112 69.5 190t181.5 78zM436 1616q-74 0 -121 -45t-47 -119q0 -76 47.5 -121t120.5 -45t120.5 45t47.5 121t-47.5 120t-120.5 44zM885 1616q-74 0 -121 -45t-47 -119q0 -76 47.5 -121t120.5 -45t120.5 45t47.5 121t-47.5 120t-120.5 44z" />
    <glyph glyph-name="divide" unicode="&#xf7;" horiz-adv-x="1376" 
d="M1221 625v192h-1067v-192h1067zM688 893q62 0 105 40.5t43 102.5q0 59 -42 101.5t-106 42.5q-63 0 -105 -43t-42 -101q0 -60 41.5 -101.5t105.5 -41.5zM688 264q63 0 105.5 42t42.5 106q0 59 -41.5 99t-106.5 40q-64 0 -105.5 -40t-41.5 -99q0 -61 42 -104.5t105 -43.5z
" />
    <glyph glyph-name="oslash" unicode="&#xf8;" horiz-adv-x="1359" 
d="M922 668q28 -61 28 -127q0 -120 -74 -201.5t-192 -81.5q-63 0 -111 25zM444 416q-28 52 -28 125q0 120 73.5 202t192.5 82q65 0 113 -26zM57 -6l138 -131l174 192q145 -82 311 -82q169 0 307.5 77t215.5 207t77 284q0 214 -137 370l143 158l-139 135l-152 -176
q-133 80 -311 80q-127 0 -239 -45t-190.5 -121t-123.5 -180.5t-45 -220.5q0 -211 137 -367z" />
    <glyph glyph-name="ugrave" unicode="&#xf9;" horiz-adv-x="1259" 
d="M102 381q0 -187 95.5 -296.5t279.5 -109.5q211 0 330 152l352 -147v1107h-352v-593q0 -99 -51.5 -152t-128.5 -53t-124.5 52.5t-47.5 152.5v593h-353v-706zM266 1524l293 -262h250l-209 366z" />
    <glyph glyph-name="uacute" unicode="&#xfa;" horiz-adv-x="1259" 
d="M102 381q0 -187 95.5 -296.5t279.5 -109.5q211 0 330 152l352 -147v1107h-352v-593q0 -99 -51.5 -152t-128.5 -53t-124.5 52.5t-47.5 152.5v593h-353v-706zM723 1628l-209 -366h250l293 262z" />
    <glyph glyph-name="ucircumflex" unicode="&#xfb;" horiz-adv-x="1259" 
d="M102 381q0 -187 95.5 -296.5t279.5 -109.5q211 0 330 152l352 -147v1107h-352v-593q0 -99 -51.5 -152t-128.5 -53t-124.5 52.5t-47.5 152.5v593h-353v-706zM1001 1260l-274 366h-195l-276 -366h248l125 133l129 -133h243z" />
    <glyph glyph-name="udieresis" unicode="&#xfc;" horiz-adv-x="1259" 
d="M102 381q0 -187 95.5 -296.5t279.5 -109.5q211 0 330 152l352 -147v1107h-352v-593q0 -99 -51.5 -152t-128.5 -53t-124.5 52.5t-47.5 152.5v593h-353v-706zM403 1616q-74 0 -120.5 -45t-46.5 -119q0 -76 47.5 -121t119.5 -45q73 0 120.5 45t47.5 121t-47.5 120t-120.5 44
zM852 1616q-74 0 -121 -45t-47 -119q0 -76 47.5 -121t120.5 -45t120.5 45t47.5 121t-47.5 120t-120.5 44z" />
    <glyph glyph-name="yacute" unicode="&#xfd;" horiz-adv-x="1175" 
d="M-12 1087l465 -1097l-111 -328h303l541 1425h-363l-223 -720l-242 720h-370zM674 1628l-209 -366h250l293 262z" />
    <glyph glyph-name="thorn" unicode="&#xfe;" horiz-adv-x="1228" 
d="M434 487q0 87 54 154.5t139 67.5q89 0 143.5 -66.5t54.5 -155.5q0 -94 -55.5 -161.5t-142.5 -67.5q-86 0 -139.5 68.5t-53.5 160.5zM113 1587v-2056h342v430l-9 154h9q31 -51 90 -85.5t127 -47.5q61 -8 80 -7q97 3 177.5 49t131 119t78.5 162.5t28 183.5t-27.5 182
t-78 159t-130 115.5t-175.5 47.5q-37 0 -92 -10q-67 -19 -125 -57.5t-95 -83.5q1 22 3.5 69.5t3.5 73.5q0 123 4 182v420h-342z" />
    <glyph glyph-name="ydieresis" unicode="&#xff;" horiz-adv-x="1175" 
d="M-12 1087l465 -1097l-111 -328h303l541 1425h-363l-223 -720l-242 720h-370zM375 1616q-74 0 -121 -45t-47 -119q0 -76 47.5 -121t120.5 -45t120.5 45t47.5 121t-47.5 120t-120.5 44zM823 1616q-74 0 -121 -45t-47 -119q0 -76 47.5 -121t120.5 -45t120.5 45t47.5 121
t-47.5 120t-120.5 44z" />
    <glyph glyph-name="Amacron" unicode="&#x100;" horiz-adv-x="1540" 
d="M479 281h574l116 -281h387l-614 1444h-344l-614 -1444h381zM586 563l182 455l178 -455h-360zM1137 1534v219h-736v-219h736z" />
    <glyph glyph-name="amacron" unicode="&#x101;" horiz-adv-x="1230" 
d="M772 279q-82 -76 -197 -76q-71 0 -120 39.5t-49 103.5q0 65 54.5 105.5t143.5 40.5q92 0 168 -37v-176zM1116 637q0 469 -532 469q-214 0 -430 -86v-256q169 70 342 70q139 0 207.5 -44.5t68.5 -142.5v-22q-118 47 -276 47q-195 0 -315 -88t-120 -258
q0 -162 109.5 -256.5t275.5 -94.5q196 0 324 138l346 -133v657zM969 1196v219h-736v-219h736z" />
    <glyph glyph-name="Abreve" unicode="&#x102;" horiz-adv-x="1540" 
d="M479 281h574l116 -281h387l-614 1444h-344l-614 -1444h381zM586 563l182 455l178 -455h-360zM913 1882q-40 -137 -141 -137q-50 0 -89 36.5t-58 100.5h-195q12 -159 106.5 -258.5t231.5 -99.5q140 0 235 99.5t107 258.5h-197z" />
    <glyph glyph-name="abreve" unicode="&#x103;" horiz-adv-x="1230" 
d="M772 279q-82 -76 -197 -76q-71 0 -120 39.5t-49 103.5q0 65 54.5 105.5t143.5 40.5q92 0 168 -37v-176zM1116 637q0 469 -532 469q-214 0 -430 -86v-256q169 70 342 70q139 0 207.5 -44.5t68.5 -142.5v-22q-118 47 -276 47q-195 0 -315 -88t-120 -258
q0 -162 109.5 -256.5t275.5 -94.5q196 0 324 138l346 -133v657zM770 1544q-40 -137 -141 -137q-50 0 -89.5 36.5t-58.5 100.5h-194q12 -159 106.5 -258.5t231.5 -99.5q140 0 235 99.5t107 258.5h-197z" />
    <glyph glyph-name="Aogonek" unicode="&#x104;" horiz-adv-x="1540" 
d="M479 281h574l116 -281h387l-614 1444h-344l-614 -1444h381zM586 563l182 455l178 -455h-360zM1460 -250q-62 -26 -110 -26q-31 0 -51.5 15t-20.5 44q0 62 127 217h-236q-58 -66 -91.5 -126.5t-33.5 -127.5q0 -101 73 -160t186 -59q104 0 200 51z" />
    <glyph glyph-name="aogonek" unicode="&#x105;" horiz-adv-x="1230" 
d="M772 279q-82 -76 -197 -76q-71 0 -120 39.5t-49 103.5q0 65 54.5 105.5t143.5 40.5q92 0 168 -37v-176zM1116 637q0 469 -532 469q-214 0 -430 -86v-256q169 70 342 70q139 0 207.5 -44.5t68.5 -142.5v-22q-118 47 -276 47q-195 0 -315 -88t-120 -258
q0 -162 109.5 -256.5t275.5 -94.5q196 0 324 138l346 -133v657zM1171 -250q-62 -26 -110 -26q-32 0 -52 15.5t-20 43.5q0 68 127 197l-180 79q-96 -103 -138 -171.5t-42 -139.5q0 -101 72.5 -161t185.5 -60q104 0 200 51z" />
    <glyph glyph-name="Cacute" unicode="&#x106;" horiz-adv-x="1376" 
d="M1282 483q-99 -92 -200 -138t-218 -46q-189 0 -300 119.5t-111 302.5q0 177 112 296.5t299 119.5q123 0 227 -47t179 -127v370q-188 131 -434 131q-160 0 -301 -58.5t-240.5 -158t-157 -237.5t-57.5 -293q0 -209 99 -380.5t268 -268.5t372 -97q258 0 463 148v364z
M883 1946l-209 -367h250l293 262z" />
    <glyph glyph-name="cacute" unicode="&#x107;" horiz-adv-x="1044" 
d="M881 1071q-89 39 -238 39q-125 0 -234.5 -45.5t-184.5 -122.5t-118 -181t-43 -218q0 -155 75 -285t207 -206.5t292 -76.5q138 0 254 48v331q-95 -82 -217 -82q-112 0 -189 79.5t-77 193.5q0 115 73 191.5t187 76.5q116 0 213 -84v342zM684 1628l-209 -366h250l293 262z
" />
    <glyph glyph-name="Ccircumflex" unicode="&#x108;" horiz-adv-x="1376" 
d="M1282 483q-99 -92 -200 -138t-218 -46q-189 0 -300 119.5t-111 302.5q0 177 112 296.5t299 119.5q123 0 227 -47t179 -127v370q-188 131 -434 131q-160 0 -301 -58.5t-240.5 -158t-157 -237.5t-57.5 -293q0 -209 99 -380.5t268 -268.5t372 -97q258 0 463 148v364z
M1178 1597l-275 367h-194l-277 -367h248l125 134l129 -134h244z" />
    <glyph glyph-name="ccircumflex" unicode="&#x109;" horiz-adv-x="968" 
d="M881 1071q-89 39 -238 39q-125 0 -234.5 -45.5t-184.5 -122.5t-118 -181t-43 -218q0 -155 75 -285t207 -206.5t292 -76.5q138 0 254 48v331q-95 -82 -217 -82q-112 0 -189 79.5t-77 193.5q0 115 73 191.5t187 76.5q116 0 213 -84v342zM952 1260l-274 366h-195l-276 -366
h248l125 133l129 -133h243z" />
    <glyph glyph-name="Cdotaccent" unicode="&#x10a;" horiz-adv-x="1376" 
d="M1282 483q-99 -92 -200 -138t-218 -46q-189 0 -300 119.5t-111 302.5q0 177 112 296.5t299 119.5q123 0 227 -47t179 -127v370q-188 131 -434 131q-160 0 -301 -58.5t-240.5 -158t-157 -237.5t-57.5 -293q0 -209 99 -380.5t268 -268.5t372 -97q258 0 463 148v364z
M834 1917q-90 0 -147.5 -48t-57.5 -136t57.5 -137.5t147.5 -49.5q88 0 146 49.5t58 137.5q0 87 -57.5 135.5t-146.5 48.5z" />
    <glyph glyph-name="cdotaccent" unicode="&#x10b;" horiz-adv-x="931" 
d="M881 1071q-89 39 -238 39q-125 0 -234.5 -45.5t-184.5 -122.5t-118 -181t-43 -218q0 -155 75 -285t207 -206.5t292 -76.5q138 0 254 48v331q-95 -82 -217 -82q-112 0 -189 79.5t-77 193.5q0 115 73 191.5t187 76.5q116 0 213 -84v342zM621 1579q-90 0 -147.5 -48
t-57.5 -136t57.5 -137.5t147.5 -49.5q88 0 146 49.5t58 137.5q0 87 -57.5 135.5t-146.5 48.5z" />
    <glyph glyph-name="Ccaron" unicode="&#x10c;" horiz-adv-x="1376" 
d="M1282 483q-99 -92 -200 -138t-218 -46q-189 0 -300 119.5t-111 302.5q0 177 112 296.5t299 119.5q123 0 227 -47t179 -127v370q-188 131 -434 131q-160 0 -301 -58.5t-240.5 -158t-157 -237.5t-57.5 -293q0 -209 99 -380.5t268 -268.5t372 -97q258 0 463 148v364z
M1225 1948h-258l-123 -138l-125 138h-262l286 -369h197z" />
    <glyph glyph-name="ccaron" unicode="&#x10d;" horiz-adv-x="968" 
d="M881 1071q-89 39 -238 39q-125 0 -234.5 -45.5t-184.5 -122.5t-118 -181t-43 -218q0 -155 75 -285t207 -206.5t292 -76.5q138 0 254 48v331q-95 -82 -217 -82q-112 0 -189 79.5t-77 193.5q0 115 73 191.5t187 76.5q116 0 213 -84v342zM983 1581h-258l-123 -135l-125 135
h-262l287 -367h196z" />
    <glyph glyph-name="Dcaron" unicode="&#x10e;" horiz-adv-x="1548" 
d="M127 1436v-1436h528q187 0 340 55t255.5 151.5t158 229.5t55.5 289q0 319 -215 515t-585 196h-537zM487 319v797h195q187 0 300.5 -109.5t113.5 -287.5q0 -185 -116.5 -292.5t-313.5 -107.5h-179zM1126 1948h-258l-123 -138l-124 138h-263l287 -369h197z" />
    <glyph glyph-name="dcaron" unicode="&#x10f;" horiz-adv-x="1294" 
d="M1247 -20v1515h-352v-549q-140 166 -344 166q-98 0 -187 -40t-156.5 -112t-107 -180.5t-39.5 -236.5t40 -236t107 -180t156.5 -112t188.5 -40q113 0 191.5 46.5t146.5 128.5zM653 272q-108 0 -175.5 81.5t-67.5 189.5q0 120 71 197t172 77q103 0 175.5 -76.5t72.5 -193.5
q0 -121 -71.5 -198t-176.5 -77zM1507 1202l131 457h-241l-80 -457h190z" />
    <glyph glyph-name="Dcroat" unicode="&#x110;" horiz-adv-x="1597" 
d="M176 1436v-1436h531q186 0 339 55t255.5 151.5t158.5 229.5t56 289q0 157 -55.5 288t-157.5 225t-253.5 146t-336.5 52h-537zM537 319v797h196q187 0 299.5 -109.5t112.5 -287.5q0 -185 -115.5 -292.5t-312.5 -107.5h-180zM670 535v311h-652v-311h652z" />
    <glyph glyph-name="dcroat" unicode="&#x111;" horiz-adv-x="1361" 
d="M1249 -20v1515h-352v-549q-140 166 -346 166q-98 0 -186.5 -40t-155.5 -112t-106.5 -180t-39.5 -237q0 -128 40 -236t107 -180t156.5 -112t188.5 -40q113 0 191.5 46.5t146.5 128.5zM655 272q-108 0 -175.5 81.5t-67.5 189.5q0 120 71 197t172 77q103 0 175.5 -76.5
t72.5 -193.5q0 -121 -71.5 -198t-176.5 -77zM1368 1124v312h-651v-312h651z" />
    <glyph glyph-name="Emacron" unicode="&#x112;" horiz-adv-x="1363" 
d="M483 307v275h693v286h-693v260h762v308h-1118v-1436h1130v307h-774zM1063 1534v219h-735v-219h735z" />
    <glyph glyph-name="emacron" unicode="&#x113;" horiz-adv-x="1220" 
d="M1055 369q-70 -65 -190.5 -103.5t-227.5 -38.5q-137 0 -211 86l735 187q-2 121 -38 228.5t-102 192t-169 134t-229 49.5q-243 0 -401.5 -160t-158.5 -403q0 -164 72 -295t201.5 -205t294.5 -74q104 0 218 29.5t206 89.5v283zM397 553q0 53 11.5 101.5t35.5 91.5t66 68.5
t96 25.5q79 0 134 -50t75 -137l-416 -106zM983 1196v219h-735v-219h735z" />
    <glyph glyph-name="Ebreve" unicode="&#x114;" horiz-adv-x="1363" 
d="M483 307v275h693v286h-693v260h762v308h-1118v-1436h1130v307h-774zM840 1882q-40 -137 -142 -137q-50 0 -89 36.5t-58 100.5h-195q12 -159 106.5 -258.5t231.5 -99.5q140 0 235 99.5t107 258.5h-196z" />
    <glyph glyph-name="ebreve" unicode="&#x115;" horiz-adv-x="1220" 
d="M1055 369q-70 -65 -190.5 -103.5t-227.5 -38.5q-137 0 -211 86l735 187q-2 121 -38 228.5t-102 192t-169 134t-229 49.5q-243 0 -401.5 -160t-158.5 -403q0 -164 72 -295t201.5 -205t294.5 -74q104 0 218 29.5t206 89.5v283zM397 553q0 53 11.5 101.5t35.5 91.5t66 68.5
t96 25.5q79 0 134 -50t75 -137l-416 -106zM780 1544q-40 -137 -141 -137q-50 0 -89 36.5t-58 100.5h-195q12 -159 106.5 -258.5t231.5 -99.5q140 0 235 99.5t107 258.5h-197z" />
    <glyph glyph-name="Edotaccent" unicode="&#x116;" horiz-adv-x="1363" 
d="M483 307v275h693v286h-693v260h762v308h-1118v-1436h1130v307h-774zM705 1917q-90 0 -147.5 -48t-57.5 -136t57.5 -137.5t147.5 -49.5q88 0 146 49.5t58 137.5q0 87 -57.5 135.5t-146.5 48.5z" />
    <glyph glyph-name="edotaccent" unicode="&#x117;" horiz-adv-x="1220" 
d="M1055 369q-70 -65 -190.5 -103.5t-227.5 -38.5q-137 0 -211 86l735 187q-2 121 -38 228.5t-102 192t-169 134t-229 49.5q-243 0 -401.5 -160t-158.5 -403q0 -164 72 -295t201.5 -205t294.5 -74q104 0 218 29.5t206 89.5v283zM397 553q0 53 11.5 101.5t35.5 91.5t66 68.5
t96 25.5q79 0 134 -50t75 -137l-416 -106zM614 1579q-90 0 -147 -48t-57 -136t57.5 -137.5t146.5 -49.5q88 0 146.5 49.5t58.5 137.5q0 87 -58 135.5t-147 48.5z" />
    <glyph glyph-name="Eogonek" unicode="&#x118;" horiz-adv-x="1363" 
d="M483 307v275h693v286h-693v260h762v308h-1118v-1436h1130v307h-774zM1313 -250q-62 -26 -111 -26q-31 0 -51.5 15t-20.5 44q0 62 127 217h-235q-58 -66 -91.5 -126.5t-33.5 -127.5q0 -101 72.5 -160t185.5 -59q105 0 201 51z" />
    <glyph glyph-name="eogonek" unicode="&#x119;" horiz-adv-x="1220" 
d="M1055 369q-70 -65 -190.5 -103.5t-227.5 -38.5q-137 0 -211 86l735 187q-2 121 -38 228.5t-102 192t-169 134t-229 49.5q-243 0 -401.5 -160t-158.5 -403q0 -164 72 -295t201.5 -205t294.5 -74q104 0 218 29.5t206 89.5v283zM397 553q0 53 11.5 101.5t35.5 91.5t66 68.5
t96 25.5q79 0 134 -50t75 -137l-416 -106zM1038 -250q-62 -26 -110 -26q-32 0 -52 16t-20 49q0 103 201 297l-309 -86q-58 -66 -91.5 -126.5t-33.5 -127.5q0 -101 72.5 -160t185.5 -59q104 0 200 51z" />
    <glyph glyph-name="Ecaron" unicode="&#x11a;" horiz-adv-x="1363" 
d="M483 307v275h693v286h-693v260h762v308h-1118v-1436h1130v307h-774zM1100 1948h-258l-123 -138l-125 138h-262l286 -369h197z" />
    <glyph glyph-name="ecaron" unicode="&#x11b;" horiz-adv-x="1220" 
d="M1055 369q-70 -65 -190.5 -103.5t-227.5 -38.5q-137 0 -211 86l735 187q-2 121 -38 228.5t-102 192t-169 134t-229 49.5q-243 0 -401.5 -160t-158.5 -403q0 -164 72 -295t201.5 -205t294.5 -74q104 0 218 29.5t206 89.5v283zM397 553q0 53 11.5 101.5t35.5 91.5t66 68.5
t96 25.5q79 0 134 -50t75 -137l-416 -106zM1001 1581h-258l-122 -135l-125 135h-263l287 -367h197z" />
    <glyph glyph-name="Gcircumflex" unicode="&#x11c;" horiz-adv-x="1579" 
d="M1157 565q0 -71 -28.5 -127t-75 -88.5t-100.5 -49.5t-111 -17q-165 0 -279 123t-114 311q0 117 55 214.5t152.5 154.5t217.5 57q220 0 383 -144v383q-169 82 -403 82q-163 0 -307 -58.5t-246 -158t-161.5 -237.5t-59.5 -293q0 -211 99.5 -382.5t269.5 -267.5t374 -96
q108 0 204 25t184 84t151 147.5t100 224t37 306.5v76h-649v-269h307zM1210 1597l-274 367h-195l-276 -367h248l125 134l129 -134h243z" />
    <glyph glyph-name="gcircumflex" unicode="&#x11d;" horiz-adv-x="1370" 
d="M666 365q-105 0 -174.5 65.5t-69.5 167.5q0 103 68.5 170.5t175.5 67.5q106 0 175.5 -66.5t69.5 -167.5q0 -103 -69.5 -170t-175.5 -67zM911 205q0 -149 -88 -220t-241 -71q-121 0 -247 44.5t-222 107.5v-287q122 -62 229.5 -91.5t243.5 -29.5q147 0 269.5 37t213 108.5
t141 184t50.5 256.5v843l-357 -133q-71 76 -150.5 117t-189.5 41q-80 0 -153.5 -22.5t-134.5 -67t-106 -106t-70 -142.5t-25 -174q0 -229 140.5 -370.5t346.5 -141.5q116 0 198.5 45.5t151.5 128.5v-57zM1051 1260l-275 366h-194l-277 -366h248l125 133l129 -133h244z" />
    <glyph glyph-name="Gbreve" unicode="&#x11e;" horiz-adv-x="1579" 
d="M1157 565q0 -71 -28.5 -127t-75 -88.5t-100.5 -49.5t-111 -17q-165 0 -279 123t-114 311q0 117 55 214.5t152.5 154.5t217.5 57q220 0 383 -144v383q-169 82 -403 82q-163 0 -307 -58.5t-246 -158t-161.5 -237.5t-59.5 -293q0 -211 99.5 -382.5t269.5 -267.5t374 -96
q108 0 204 25t184 84t151 147.5t100 224t37 306.5v76h-649v-269h307zM969 1882q-40 -137 -142 -137q-50 0 -89 36.5t-58 100.5h-195q12 -159 106.5 -258.5t231.5 -99.5q140 0 235 99.5t107 258.5h-196z" />
    <glyph glyph-name="gbreve" unicode="&#x11f;" horiz-adv-x="1370" 
d="M666 365q-105 0 -174.5 65.5t-69.5 167.5q0 103 68.5 170.5t175.5 67.5q106 0 175.5 -66.5t69.5 -167.5q0 -103 -69.5 -170t-175.5 -67zM911 205q0 -149 -88 -220t-241 -71q-121 0 -247 44.5t-222 107.5v-287q122 -62 229.5 -91.5t243.5 -29.5q147 0 269.5 37t213 108.5
t141 184t50.5 256.5v843l-357 -133q-71 76 -150.5 117t-189.5 41q-80 0 -153.5 -22.5t-134.5 -67t-106 -106t-70 -142.5t-25 -174q0 -229 140.5 -370.5t346.5 -141.5q116 0 198.5 45.5t151.5 128.5v-57zM864 1544q-40 -137 -141 -137q-50 0 -89.5 36.5t-58.5 100.5h-194
q12 -159 106.5 -258.5t231.5 -99.5q140 0 235 99.5t107 258.5h-197z" />
    <glyph glyph-name="Gdotaccent" unicode="&#x120;" horiz-adv-x="1579" 
d="M1157 565q0 -71 -28.5 -127t-75 -88.5t-100.5 -49.5t-111 -17q-165 0 -279 123t-114 311q0 117 55 214.5t152.5 154.5t217.5 57q220 0 383 -144v383q-169 82 -403 82q-163 0 -307 -58.5t-246 -158t-161.5 -237.5t-59.5 -293q0 -211 99.5 -382.5t269.5 -267.5t374 -96
q108 0 204 25t184 84t151 147.5t100 224t37 306.5v76h-649v-269h307zM791 1921q-90 0 -147.5 -48t-57.5 -136t57.5 -137.5t147.5 -49.5q88 0 146 49.5t58 137.5q0 87 -57.5 135.5t-146.5 48.5z" />
    <glyph glyph-name="gdotaccent" unicode="&#x121;" horiz-adv-x="1361" 
d="M664 365q-105 0 -174.5 65.5t-69.5 167.5q0 103 68.5 170.5t175.5 67.5q106 0 175.5 -66.5t69.5 -167.5q0 -103 -69.5 -170t-175.5 -67zM909 205q0 -149 -88 -220t-241 -71q-121 0 -247 44.5t-222 107.5v-287q122 -62 229.5 -91.5t243.5 -29.5q147 0 269.5 37t213 108.5
t140.5 184t50 256.5v843l-356 -133q-71 76 -150.5 117t-189.5 41q-80 0 -153.5 -22.5t-134.5 -67t-106 -106t-70 -142.5t-25 -174q0 -229 140.5 -370.5t346.5 -141.5q116 0 198.5 45.5t151.5 128.5v-57zM682 1579q-90 0 -147.5 -48t-57.5 -136t57.5 -137.5t147.5 -49.5
q88 0 146.5 49.5t58.5 137.5q0 87 -58 135.5t-147 48.5z" />
    <glyph glyph-name="uni0122" unicode="&#x122;" horiz-adv-x="1579" 
d="M1157 565q0 -71 -28.5 -127t-75 -88.5t-100.5 -49.5t-111 -17q-165 0 -279 123t-114 311q0 117 55 214.5t152.5 154.5t217.5 57q220 0 383 -144v383q-169 82 -403 82q-163 0 -307 -58.5t-246 -158t-161.5 -237.5t-59.5 -293q0 -211 99.5 -382.5t269.5 -267.5t374 -96
q108 0 204 25t184 84t151 147.5t100 224t37 306.5v76h-649v-269h307zM707 -584l131 457h-242l-80 -457h191z" />
    <glyph glyph-name="uni0123" unicode="&#x123;" horiz-adv-x="1370" 
d="M666 365q-105 0 -174.5 65.5t-69.5 167.5q0 103 68.5 170.5t175.5 67.5q106 0 175.5 -66.5t69.5 -167.5q0 -103 -69.5 -170t-175.5 -67zM911 205q0 -149 -88 -220t-241 -71q-121 0 -247 44.5t-222 107.5v-287q122 -62 229.5 -91.5t243.5 -29.5q147 0 269.5 37t213 108.5
t141 184t50.5 256.5v843l-357 -133q-71 76 -150.5 117t-189.5 41q-80 0 -153.5 -22.5t-134.5 -67t-106 -106t-70 -142.5t-25 -174q0 -229 140.5 -370.5t346.5 -141.5q116 0 198.5 45.5t151.5 128.5v-57zM754 1653l-213 -447h366l90 447h-243z" />
    <glyph glyph-name="Hcircumflex" unicode="&#x124;" horiz-adv-x="1529" 
d="M127 1436v-1436h358v563h557v-563h359v1436h-359v-553h-557v553h-358zM1135 1597l-275 367h-194l-277 -367h248l125 134l129 -134h244z" />
    <glyph glyph-name="hcircumflex" unicode="&#x125;" horiz-adv-x="1513" 
d="M1219 709q0 181 -99 292t-274 111q-196 0 -334 -172v555h-348v-1495h352v596q0 94 53 147.5t131 53.5q76 0 121 -52t45 -149v-596h353v709zM715 1608l-275 366h-194l-277 -366h248l125 133l129 -133h244z" />
    <glyph glyph-name="Hbar" unicode="&#x126;" horiz-adv-x="1579" 
d="M152 1436v-1436h358v563h557v-563h358v1436h-358v-553h-557v553h-358zM49 1049h1483v219h-1483v-219z" />
    <glyph glyph-name="hbar" unicode="&#x127;" horiz-adv-x="1263" 
d="M1157 709q0 181 -99 292t-274 111q-195 0 -333 -172v555h-349v-1495h353v596q0 94 53 147.5t131 53.5q76 0 121 -52t45 -149v-596h352v709zM662 1196v219h-736v-219h736z" />
    <glyph glyph-name="Itilde" unicode="&#x128;" horiz-adv-x="614" 
d="M487 0v1436h-360v-1436h360zM123 1550q17 54 35 75.5t43 21.5q26 0 105.5 -36t133.5 -36q167 0 246 283l-192 34q-22 -92 -68 -92q-23 0 -107.5 37t-138.5 37q-173 0 -252 -289z" />
    <glyph glyph-name="itilde" unicode="&#x129;" horiz-adv-x="573" 
d="M463 0v1087h-352v-1087h352zM115 1212q17 54 35 75.5t43 21.5q26 0 105.5 -36t133.5 -36q167 0 246 283l-193 34q-22 -92 -67 -92q-23 0 -107.5 37t-138.5 37q-173 0 -252 -289z" />
    <glyph glyph-name="Imacron" unicode="&#x12a;" horiz-adv-x="614" 
d="M487 0v1436h-360v-1436h360zM672 1534v219h-735v-219h735z" />
    <glyph glyph-name="imacron" unicode="&#x12b;" horiz-adv-x="573" 
d="M463 0v1087h-352v-1087h352zM655 1196v219h-735v-219h735z" />
    <glyph glyph-name="Ibreve" unicode="&#x12c;" horiz-adv-x="614" 
d="M487 0v1436h-360v-1436h360zM449 1884q-40 -137 -142 -137q-50 0 -89 36.5t-58 100.5h-195q12 -159 106.5 -258.5t231.5 -99.5q140 0 235 99.5t107 258.5h-196z" />
    <glyph glyph-name="ibreve" unicode="&#x12d;" horiz-adv-x="573" 
d="M463 0v1087h-352v-1087h352zM430 1544q-40 -137 -141 -137q-50 0 -89.5 36.5t-58.5 100.5h-194q12 -159 106.5 -258.5t231.5 -99.5q140 0 235 99.5t107 258.5h-197z" />
    <glyph glyph-name="Iogonek" unicode="&#x12e;" horiz-adv-x="614" 
d="M487 0v1436h-360v-1436h360zM543 -250q-62 -26 -111 -26q-31 0 -51.5 15t-20.5 44q0 62 127 217h-235q-58 -66 -91.5 -126.5t-33.5 -127.5q0 -101 72.5 -160t185.5 -59q105 0 201 51z" />
    <glyph glyph-name="iogonek" unicode="&#x12f;" horiz-adv-x="575" 
d="M465 0v1087h-352v-1087h352zM287 1569q-90 0 -146.5 -48.5t-56.5 -136.5q0 -87 57 -135.5t146 -48.5t147 48.5t58 135.5q0 89 -57.5 137t-147.5 48zM520 -250q-62 -26 -110 -26q-31 0 -51.5 15t-20.5 44q0 62 127 217h-236q-58 -66 -91.5 -126.5t-33.5 -127.5
q0 -101 72.5 -160t185.5 -59q105 0 201 51z" />
    <glyph glyph-name="Idotaccent" unicode="&#x130;" horiz-adv-x="614" 
d="M487 0v1436h-360v-1436h360zM305 1917q-90 0 -147.5 -48t-57.5 -136t57.5 -137.5t147.5 -49.5q88 0 146.5 49.5t58.5 137.5q0 87 -58 135.5t-147 48.5z" />
    <glyph glyph-name="dotlessi" unicode="&#x131;" horiz-adv-x="573" 
d="M463 0v1087h-352v-1087h352z" />
    <glyph glyph-name="IJ" unicode="&#x132;" horiz-adv-x="1550" 
d="M487 0v1436h-360v-1436h360zM614 78q155 -103 301 -103q241 0 381 145t140 388v928h-359v-926q0 -107 -50.5 -162t-135.5 -55q-53 0 -106.5 23.5t-87 49t-83.5 70.5v-358z" />
    <glyph glyph-name="ij" unicode="&#x133;" horiz-adv-x="1146" 
d="M465 0v1087h-352v-1087h352zM287 1569q-90 0 -146.5 -48.5t-56.5 -136.5q0 -87 57 -135.5t146 -48.5t147 48.5t58 135.5q0 89 -57.5 137t-147.5 48zM520 -330q75 -14 150 -14q186 0 277 89t91 284v1058h-352v-1054q0 -129 -90 -129q-30 0 -76 16v-250zM858 1569
q-90 0 -146.5 -48.5t-56.5 -136.5q0 -87 57 -135.5t146 -48.5q88 0 146.5 49t58.5 135q0 89 -58 137t-147 48z" />
    <glyph glyph-name="Jcircumflex" unicode="&#x134;" horiz-adv-x="935" 
d="M0 78q155 -103 301 -103q241 0 380.5 145t139.5 388v928h-358v-926q0 -107 -51 -162t-136 -55q-53 0 -106.5 23.5t-86.5 49t-83 70.5v-358zM1026 1597l-274 367h-195l-276 -367h247l125 134l129 -134h244z" />
    <glyph glyph-name="jcircumflex" unicode="&#x135;" horiz-adv-x="548" 
d="M-49 -330q79 -14 151 -14q186 0 277.5 89t91.5 284v1058h-352v-1054q0 -129 -90 -129q-28 0 -78 16v-250zM657 1260l-274 366h-195l-276 -366h248l125 133l129 -133h243z" />
    <glyph glyph-name="uni0136" unicode="&#x136;" horiz-adv-x="1429" 
d="M485 850v586h-358v-1436h358v741l523 -741h436l-582 809l555 627h-428zM631 -586l131 457h-242l-80 -457h191z" />
    <glyph glyph-name="uni0137" unicode="&#x137;" horiz-adv-x="1189" 
d="M463 711v784h-352v-1495h352v557l336 -557h391l-408 639l398 448h-404zM496 -586l131 457h-242l-80 -457h191z" />
    <glyph glyph-name="kgreenlandic" unicode="&#x138;" horiz-adv-x="1193" 
d="M463 711v376h-352v-1087h352v557l336 -557h391l-408 639l398 448h-404z" />
    <glyph glyph-name="Lacute" unicode="&#x139;" horiz-adv-x="1196" 
d="M467 315v1121h-361v-1436h1057v315h-696zM383 1946l-209 -367h250l293 262z" />
    <glyph glyph-name="lacute" unicode="&#x13a;" horiz-adv-x="614" 
d="M487 0v1436h-360v-1436h360zM362 1946l-208 -367h249l293 262z" />
    <glyph glyph-name="uni013B" unicode="&#x13b;" horiz-adv-x="1249" 
d="M502 315v1121h-361v-1436h1057v315h-696zM561 -586l131 457h-241l-80 -457h190z" />
    <glyph glyph-name="uni013C" unicode="&#x13c;" horiz-adv-x="614" 
d="M487 0v1436h-360v-1436h360zM186 -586l131 457h-241l-80 -457h190z" />
    <glyph glyph-name="Lcaron" unicode="&#x13d;" horiz-adv-x="1175" 
d="M487 315v1121h-360v-1436h1057v315h-697zM971 1202l131 457h-242l-80 -457h191z" />
    <glyph glyph-name="lcaron" unicode="&#x13e;" horiz-adv-x="573" 
d="M463 0v1495h-352v-1495h352zM743 1202l131 457h-241l-80 -457h190z" />
    <glyph glyph-name="Ldot" unicode="&#x13f;" horiz-adv-x="1171" 
d="M487 315v1121h-360v-1436h1057v315h-697zM938 965q-90 0 -147.5 -48.5t-57.5 -136.5t57.5 -137t147.5 -49q89 0 147 49t58 137q0 87 -58 136t-147 49z" />
    <glyph glyph-name="ldot" unicode="&#x140;" horiz-adv-x="870" 
d="M463 0v1495h-352v-1495h352zM750 965q-90 0 -147.5 -48.5t-57.5 -136.5t57.5 -137t147.5 -49q88 0 146 49t58 137t-57.5 136.5t-146.5 48.5z" />
    <glyph glyph-name="Lslash" unicode="&#x141;" horiz-adv-x="1187" 
d="M481 315v1121h-360v-1436h1057v315h-697zM903 416v305h-913v-305h913z" />
    <glyph glyph-name="lslash" unicode="&#x142;" horiz-adv-x="741" 
d="M463 0v1495h-352v-1495h352zM684 356v306h-684v-306h684z" />
    <glyph glyph-name="Nacute" unicode="&#x143;" horiz-adv-x="1583" 
d="M1100 606l-635 828h-338v-1434h354v852l656 -852h317v1436h-354v-830zM842 1946l-209 -367h250l293 262z" />
    <glyph glyph-name="nacute" unicode="&#x144;" horiz-adv-x="1269" 
d="M1165 709q0 177 -100.5 290t-271.5 113q-191 0 -330 -174l-352 149v-1087h352v596q0 97 52.5 150t127.5 53q74 0 122 -52.5t48 -150.5v-596h352v709zM764 1628l-209 -366h250l293 262z" />
    <glyph glyph-name="uni0145" unicode="&#x145;" horiz-adv-x="1605" 
d="M1114 606l-635 828h-338v-1434h355v852l655 -852h317v1436h-354v-830zM696 -586l131 457h-241l-80 -457h190z" />
    <glyph glyph-name="uni0146" unicode="&#x146;" horiz-adv-x="1294" 
d="M1180 709q0 177 -101 290t-272 113q-191 0 -330 -174l-352 149v-1087h352v596q0 97 52.5 150t127.5 53q74 0 122 -52.5t48 -150.5v-596h353v709zM516 -586l131 457h-241l-80 -457h190z" />
    <glyph glyph-name="Ncaron" unicode="&#x147;" horiz-adv-x="1583" 
d="M1100 606l-635 828h-338v-1434h354v852l656 -852h317v1436h-354v-830zM1188 1948h-258l-123 -138l-125 138h-262l287 -369h196z" />
    <glyph glyph-name="ncaron" unicode="&#x148;" horiz-adv-x="1269" 
d="M1165 709q0 177 -100.5 290t-271.5 113q-191 0 -330 -174l-352 149v-1087h352v596q0 97 52.5 150t127.5 53q74 0 122 -52.5t48 -150.5v-596h352v709zM1026 1581h-258l-123 -135l-125 135h-262l287 -367h196z" />
    <glyph glyph-name="Eng" unicode="&#x14a;" horiz-adv-x="1583" 
d="M127 1434v-1434h354v852l621 -809v-23q0 -116 -90 -116q-30 0 -76 16v-250q79 -14 149 -14q187 0 278 89t91 284v110v1297h-354v-830l-635 828h-338z" />
    <glyph glyph-name="eng" unicode="&#x14b;" horiz-adv-x="1269" 
d="M111 1087v-1087h352v596q0 97 52.5 150t127.5 53q74 0 122 -52.5t48 -150.5v-563q0 -129 -90 -129q-30 0 -76 16v-250q79 -14 150 -14q187 0 277.5 89t90.5 284v680q0 186 -104 294.5t-268 108.5q-191 0 -330 -174z" />
    <glyph glyph-name="Omacron" unicode="&#x14c;" horiz-adv-x="1697" 
d="M848 -29q157 0 299.5 58.5t245.5 158t164 239t61 294.5q0 152 -58.5 289t-160 236.5t-244.5 158.5t-305 59q-163 0 -306.5 -59t-245 -159t-160 -238t-58.5 -291t58.5 -290.5t159.5 -237.5t244.5 -159t305.5 -59zM848 1139q116 0 208 -58.5t141.5 -154.5t49.5 -209
t-49 -208.5t-140.5 -153.5t-207.5 -58q-173 0 -286 125t-113 299t111 296t286 122zM1219 1534v219h-736v-219h736z" />
    <glyph glyph-name="omacron" unicode="&#x14d;" horiz-adv-x="1320" 
d="M659 -27q163 0 300.5 74t219 206.5t81.5 293.5q0 116 -45 220t-123 180t-189.5 120.5t-238.5 44.5q-169 0 -307.5 -76.5t-216 -207t-77.5 -285.5t76 -285.5t213.5 -207.5t306.5 -77zM659 815q110 0 183 -81t73 -191q0 -111 -70 -191t-181 -80t-183.5 80.5t-72.5 194.5
q0 112 69.5 190t181.5 78zM1030 1196v219h-735v-219h735z" />
    <glyph glyph-name="Obreve" unicode="&#x14e;" horiz-adv-x="1697" 
d="M848 -29q157 0 299.5 58.5t245.5 158t164 239t61 294.5q0 152 -58.5 289t-160 236.5t-244.5 158.5t-305 59q-163 0 -306.5 -59t-245 -159t-160 -238t-58.5 -291t58.5 -290.5t159.5 -237.5t244.5 -159t305.5 -59zM848 1139q116 0 208 -58.5t141.5 -154.5t49.5 -209
t-49 -208.5t-140.5 -153.5t-207.5 -58q-173 0 -286 125t-113 299t111 296t286 122zM989 1882q-40 -137 -141 -137q-50 0 -89.5 36.5t-58.5 100.5h-194q12 -159 106.5 -258.5t231.5 -99.5q140 0 235 99.5t107 258.5h-197z" />
    <glyph glyph-name="obreve" unicode="&#x14f;" horiz-adv-x="1320" 
d="M659 -27q163 0 300.5 74t219 206.5t81.5 293.5q0 116 -45 220t-123 180t-189.5 120.5t-238.5 44.5q-169 0 -307.5 -76.5t-216 -207t-77.5 -285.5t76 -285.5t213.5 -207.5t306.5 -77zM659 815q110 0 183 -81t73 -191q0 -111 -70 -191t-181 -80t-183.5 80.5t-72.5 194.5
q0 112 69.5 190t181.5 78zM819 1544q-40 -137 -141 -137q-50 0 -89.5 36.5t-58.5 100.5h-194q12 -159 106.5 -258.5t231.5 -99.5q140 0 235 99.5t107 258.5h-197z" />
    <glyph glyph-name="Ohungarumlaut" unicode="&#x150;" horiz-adv-x="1697" 
d="M848 -29q157 0 299.5 58.5t245.5 158t164 239t61 294.5q0 152 -58.5 289t-160 236.5t-244.5 158.5t-305 59q-163 0 -306.5 -59t-245 -159t-160 -238t-58.5 -291t58.5 -290.5t159.5 -237.5t244.5 -159t305.5 -59zM848 1139q116 0 208 -58.5t141.5 -154.5t49.5 -209
t-49 -208.5t-140.5 -153.5t-207.5 -58q-173 0 -286 125t-113 299t111 296t286 122zM745 1569l314 329l-293 56l-264 -385h243zM1192 1569l315 332l-295 53l-260 -385h240z" />
    <glyph glyph-name="ohungarumlaut" unicode="&#x151;" horiz-adv-x="1359" 
d="M659 -27q163 0 300.5 74t219 206.5t81.5 293.5q0 116 -45 220t-123 180t-189.5 120.5t-238.5 44.5q-169 0 -307.5 -76.5t-216 -207t-77.5 -285.5t76 -285.5t213.5 -207.5t306.5 -77zM659 815q110 0 183 -81t73 -191q0 -111 -70 -191t-181 -80t-183.5 80.5t-72.5 194.5
q0 112 69.5 190t181.5 78zM559 1231l313 330l-292 55l-265 -385h244zM1006 1231l315 332l-295 53l-260 -385h240z" />
    <glyph glyph-name="OE" unicode="&#x152;" horiz-adv-x="2281" 
d="M1044 1083q-89 56 -194 56q-175 0 -287 -121.5t-112 -296.5q0 -181 125.5 -301.5t312.5 -120.5q81 0 155 51v733zM1403 582v-275h772v-307h-1108q-96 -29 -215 -29q-162 0 -305.5 58.5t-246 158t-161.5 237.5t-59 292q0 153 58.5 291t160 238t245 159t306.5 59
q108 0 217 -28h1096v-308h-760v-260h690v-286h-690z" />
    <glyph glyph-name="oe" unicode="&#x153;" horiz-adv-x="2095" 
d="M1927 369q-70 -65 -190.5 -103.5t-227.5 -38.5q-132 0 -206 86l731 187q-2 121 -38.5 228.5t-102 192t-169 134t-229.5 49.5q-250 0 -397 -170q-78 84 -190.5 131t-243.5 47q-169 0 -307.5 -76.5t-216 -207t-77.5 -285.5t76 -285.5t213.5 -207.5t306.5 -77
q128 0 238 46.5t190 130.5q150 -183 416 -183q104 0 218 29.5t206 89.5v283zM659 815q111 0 183.5 -80.5t72.5 -191.5t-70 -191t-181 -80t-183.5 80.5t-72.5 194.5q0 112 69.5 190t181.5 78zM1272 551q-4 71 13.5 134.5t66 109t121.5 45.5q79 0 133 -50t75 -137z" />
    <glyph glyph-name="Racute" unicode="&#x154;" horiz-adv-x="1386" 
d="M127 0h362v465h175l315 -465h416l-363 520q147 54 229 165t82 273q0 221 -148.5 349.5t-428.5 128.5h-639v-1436zM489 748v374h256q113 0 175.5 -46t62.5 -138q0 -90 -64.5 -140t-177.5 -50h-252zM791 1946l-209 -367h249l293 262z" />
    <glyph glyph-name="racute" unicode="&#x155;" horiz-adv-x="880" 
d="M819 1104q-8 2 -28 2q-221 0 -328 -223l-352 204v-1087h352v379q0 181 83 271.5t232 90.5q25 0 41 -4v367zM537 1628l-209 -366h250l292 262z" />
    <glyph glyph-name="uni0156" unicode="&#x156;" horiz-adv-x="1386" 
d="M127 0h362v465h175l315 -465h416l-363 520q147 54 229 165t82 273q0 221 -148.5 349.5t-428.5 128.5h-639v-1436zM489 748v374h256q113 0 175.5 -46t62.5 -138q0 -90 -64.5 -140t-177.5 -50h-252zM618 -586l132 457h-242l-80 -457h190z" />
    <glyph glyph-name="uni0157" unicode="&#x157;" horiz-adv-x="829" 
d="M819 1104q-8 2 -28 2q-221 0 -328 -223l-352 204v-1087h352v379q0 181 83 271.5t232 90.5q25 0 41 -4v367zM186 -586l131 457h-241l-80 -457h190z" />
    <glyph glyph-name="Rcaron" unicode="&#x158;" horiz-adv-x="1386" 
d="M127 0h362v465h175l315 -465h416l-363 520q147 54 229 165t82 273q0 221 -148.5 349.5t-428.5 128.5h-639v-1436zM489 748v374h256q113 0 175.5 -46t62.5 -138q0 -90 -64.5 -140t-177.5 -50h-252zM1063 1948h-258l-123 -138l-125 138h-262l287 -369h196z" />
    <glyph glyph-name="rcaron" unicode="&#x159;" horiz-adv-x="829" 
d="M819 1104q-8 2 -28 2q-221 0 -328 -223l-352 204v-1087h352v379q0 181 83 271.5t232 90.5q25 0 41 -4v367zM854 1581h-258l-123 -135l-125 135h-262l287 -367h196z" />
    <glyph glyph-name="Sacute" unicode="&#x15a;" horiz-adv-x="1304" 
d="M879 395q0 -119 -205 -119q-159 0 -330.5 70t-302.5 184v-327q124 -114 290.5 -171t344.5 -57q117 0 218 26.5t178.5 78.5t122 135t44.5 188q0 89 -26.5 160.5t-71 119t-102.5 84t-122 59.5t-128 42.5t-122 36.5t-102.5 36t-71 47t-26.5 65q0 49 51.5 82.5t147.5 33.5
q128 0 272 -63t252 -162v338q-217 178 -551 178q-107 0 -202 -27.5t-170.5 -80t-120 -138t-44.5 -192.5q0 -82 26.5 -148.5t71.5 -110.5t103.5 -78.5t123 -57.5t128.5 -42t122.5 -36.5t103.5 -37.5t71.5 -49.5t26.5 -66.5zM733 1946l-209 -367h250l293 262z" />
    <glyph glyph-name="sacute" unicode="&#x15b;" horiz-adv-x="983" 
d="M600 305q0 -28 -24.5 -47t-53 -25t-57.5 -6q-86 0 -198.5 42t-203.5 106v-295q121 -52 217.5 -78.5t204.5 -26.5q197 0 316 95t119 256q0 75 -31 134.5t-80 95t-108.5 63t-119 46t-108.5 36t-80 41t-31 53.5t26 47.5t75 17.5q68 0 174.5 -36t191.5 -85v291
q-104 44 -182.5 62t-181.5 18q-188 0 -306 -92t-118 -252q0 -78 31 -138t80 -95.5t109 -62.5t119.5 -44t108.5 -33t80 -37.5t31 -50.5zM528 1628l-209 -366h250l293 262z" />
    <glyph glyph-name="Scircumflex" unicode="&#x15c;" horiz-adv-x="1304" 
d="M879 395q0 -119 -205 -119q-159 0 -330.5 70t-302.5 184v-327q124 -114 290.5 -171t344.5 -57q117 0 218 26.5t178.5 78.5t122 135t44.5 188q0 89 -26.5 160.5t-71 119t-102.5 84t-122 59.5t-128 42.5t-122 36.5t-102.5 36t-71 47t-26.5 65q0 49 51.5 82.5t147.5 33.5
q128 0 272 -63t252 -162v338q-217 178 -551 178q-107 0 -202 -27.5t-170.5 -80t-120 -138t-44.5 -192.5q0 -82 26.5 -148.5t71.5 -110.5t103.5 -78.5t123 -57.5t128.5 -42t122.5 -36.5t103.5 -37.5t71.5 -49.5t26.5 -66.5zM1034 1597l-274 367h-195l-276 -367h248l125 134
l129 -134h243z" />
    <glyph glyph-name="scircumflex" unicode="&#x15d;" horiz-adv-x="983" 
d="M600 305q0 -28 -24.5 -47t-53 -25t-57.5 -6q-86 0 -198.5 42t-203.5 106v-295q121 -52 217.5 -78.5t204.5 -26.5q197 0 316 95t119 256q0 75 -31 134.5t-80 95t-108.5 63t-119 46t-108.5 36t-80 41t-31 53.5t26 47.5t75 17.5q68 0 174.5 -36t191.5 -85v291
q-104 44 -182.5 62t-181.5 18q-188 0 -306 -92t-118 -252q0 -78 31 -138t80 -95.5t109 -62.5t119.5 -44t108.5 -33t80 -37.5t31 -50.5zM825 1260l-274 366h-195l-276 -366h248l125 133l129 -133h243z" />
    <glyph glyph-name="Scedilla" unicode="&#x15e;" horiz-adv-x="1302" 
d="M879 395q0 -119 -205 -119q-159 0 -330.5 70t-302.5 184v-327q124 -114 290.5 -171t344.5 -57q117 0 218 26.5t178.5 78.5t122 135t44.5 188q0 89 -26.5 160.5t-71 119t-102.5 84t-122 59.5t-128 42.5t-122 36.5t-102.5 36t-71 47t-26.5 65q0 49 51.5 82.5t147.5 33.5
q128 0 272 -63t252 -162v338q-217 178 -551 178q-107 0 -202 -27.5t-170.5 -80t-120 -138t-44.5 -192.5q0 -82 26.5 -148.5t71.5 -110.5t103.5 -78.5t123 -57.5t128.5 -42t122.5 -36.5t103.5 -37.5t71.5 -49.5t26.5 -66.5zM651 -139l86 139h-143l-139 -217l59 -49
q47 18 86 18q38 0 60 -13.5t22 -39.5q0 -32 -37 -48t-76 -16q-76 0 -139 31l-49 -110q107 -52 213 -52q45 0 87.5 10t81.5 31.5t63 60.5t24 91q0 79 -56 121.5t-128 42.5h-15z" />
    <glyph glyph-name="scedilla" unicode="&#x15f;" horiz-adv-x="983" 
d="M600 305q0 -28 -24.5 -47t-53 -25t-57.5 -6q-86 0 -198.5 42t-203.5 106v-295q121 -52 217.5 -78.5t204.5 -26.5q197 0 316 95t119 256q0 75 -31 134.5t-80 95t-108.5 63t-119 46t-108.5 36t-80 41t-31 53.5t26 47.5t75 17.5q68 0 174.5 -36t191.5 -85v291
q-104 44 -182.5 62t-181.5 18q-188 0 -306 -92t-118 -252q0 -78 31 -138t80 -95.5t109 -62.5t119.5 -44t108.5 -33t80 -37.5t31 -50.5zM475 -139l86 139h-143l-139 -217l59 -49q47 18 86 18q38 0 60 -13.5t22 -39.5q0 -32 -37 -48t-76 -16q-76 0 -139 31l-49 -110
q107 -52 213 -52q45 0 87.5 10t81.5 31.5t63 60.5t24 91q0 79 -56.5 121.5t-128.5 42.5h-14z" />
    <glyph glyph-name="Scaron" unicode="&#x160;" horiz-adv-x="1304" 
d="M879 395q0 -119 -205 -119q-159 0 -330.5 70t-302.5 184v-327q124 -114 290.5 -171t344.5 -57q117 0 218 26.5t178.5 78.5t122 135t44.5 188q0 89 -26.5 160.5t-71 119t-102.5 84t-122 59.5t-128 42.5t-122 36.5t-102.5 36t-71 47t-26.5 65q0 49 51.5 82.5t147.5 33.5
q128 0 272 -63t252 -162v338q-217 178 -551 178q-107 0 -202 -27.5t-170.5 -80t-120 -138t-44.5 -192.5q0 -82 26.5 -148.5t71.5 -110.5t103.5 -78.5t123 -57.5t128.5 -42t122.5 -36.5t103.5 -37.5t71.5 -49.5t26.5 -66.5zM1044 1948h-258l-122 -138l-125 138h-263l287 -369
h197z" />
    <glyph glyph-name="scaron" unicode="&#x161;" horiz-adv-x="983" 
d="M600 305q0 -28 -24.5 -47t-53 -25t-57.5 -6q-86 0 -198.5 42t-203.5 106v-295q121 -52 217.5 -78.5t204.5 -26.5q197 0 316 95t119 256q0 75 -31 134.5t-80 95t-108.5 63t-119 46t-108.5 36t-80 41t-31 53.5t26 47.5t75 17.5q68 0 174.5 -36t191.5 -85v291
q-104 44 -182.5 62t-181.5 18q-188 0 -306 -92t-118 -252q0 -78 31 -138t80 -95.5t109 -62.5t119.5 -44t108.5 -33t80 -37.5t31 -50.5zM877 1610h-259l-122 -137l-125 137h-262l286 -369h197z" />
    <glyph glyph-name="uni0162" unicode="&#x162;" horiz-adv-x="1265" 
d="M811 0v1120h430v316h-1218v-316h430v-1120h358zM635 -139l86 139h-143l-140 -217l60 -49q46 18 86 18q38 0 60 -13.5t22 -39.5q0 -32 -37 -48t-76 -16q-76 0 -139 31l-49 -110q107 -52 213 -52q45 0 87.5 10t81.5 31.5t63 60.5t24 91q0 79 -56.5 121.5t-128.5 42.5h-14z
" />
    <glyph glyph-name="uni0163" unicode="&#x163;" horiz-adv-x="866" 
d="M233 328q0 -177 92.5 -264t258.5 -87q138 0 241 58v276q-78 -32 -137 -32q-53 0 -77.5 26.5t-24.5 83.5v414h258v284h-258v343l-563 -627h210v-475zM565 -139l86 139h-143l-139 -217l59 -49q47 18 86 18q38 0 60 -13.5t22 -39.5q0 -32 -37 -48t-76 -16q-76 0 -139 31
l-49 -110q107 -52 213 -52q45 0 87.5 10t81.5 31.5t63 60.5t24 91q0 79 -56 121.5t-128 42.5h-15z" />
    <glyph glyph-name="Tcaron" unicode="&#x164;" horiz-adv-x="1265" 
d="M811 0v1120h430v316h-1218v-316h430v-1120h358zM1016 1948h-258l-123 -138l-125 138h-262l287 -369h196z" />
    <glyph glyph-name="tcaron" unicode="&#x165;" horiz-adv-x="866" 
d="M233 328q0 -177 92.5 -264t258.5 -87q138 0 241 58v276q-78 -32 -137 -32q-53 0 -77.5 26.5t-24.5 83.5v414h258v284h-258v343l-563 -627h210v-475zM852 1202l131 457h-242l-79 -457h190z" />
    <glyph glyph-name="Tbar" unicode="&#x166;" horiz-adv-x="1265" 
d="M811 0v1120h430v316h-1218v-316h430v-1120h358zM999 616v220h-735v-220h735z" />
    <glyph glyph-name="tbar" unicode="&#x167;" horiz-adv-x="866" 
d="M233 328q0 -177 92.5 -264t258.5 -87q138 0 241 58v276q-78 -32 -137 -32q-53 0 -77.5 26.5t-24.5 83.5v414h258v284h-258v343l-563 -627h210v-475zM807 465v219h-744v-219h744z" />
    <glyph glyph-name="Utilde" unicode="&#x168;" horiz-adv-x="1533" 
d="M113 621q0 -320 169 -484t480 -164t483 164t172 494v805h-364v-815q0 -163 -75 -242.5t-212 -79.5q-138 0 -213.5 84t-75.5 246v807h-364v-815zM588 1550q17 54 35 75.5t43 21.5q26 0 105.5 -36t133.5 -36q167 0 246 283l-193 34q-22 -92 -67 -92q-23 0 -107.5 37
t-138.5 37q-173 0 -252 -289z" />
    <glyph glyph-name="utilde" unicode="&#x169;" horiz-adv-x="1259" 
d="M102 381q0 -187 95.5 -296.5t279.5 -109.5q211 0 330 152l352 -147v1107h-352v-593q0 -99 -51.5 -152t-128.5 -53t-124.5 52.5t-47.5 152.5v593h-353v-706zM455 1212q17 54 34.5 75.5t42.5 21.5q26 0 106 -36t134 -36q167 0 246 283l-193 34q-22 -92 -67 -92
q-23 0 -107.5 37t-138.5 37q-173 0 -252 -289z" />
    <glyph glyph-name="Umacron" unicode="&#x16a;" horiz-adv-x="1533" 
d="M113 621q0 -320 169 -484t480 -164t483 164t172 494v805h-364v-815q0 -163 -75 -242.5t-212 -79.5q-138 0 -213.5 84t-75.5 246v807h-364v-815zM1143 1534v219h-735v-219h735z" />
    <glyph glyph-name="umacron" unicode="&#x16b;" horiz-adv-x="1259" 
d="M102 381q0 -187 95.5 -296.5t279.5 -109.5q211 0 330 152l352 -147v1107h-352v-593q0 -99 -51.5 -152t-128.5 -53t-124.5 52.5t-47.5 152.5v593h-353v-706zM1008 1196v219h-736v-219h736z" />
    <glyph glyph-name="Ubreve" unicode="&#x16c;" horiz-adv-x="1533" 
d="M113 621q0 -320 169 -484t480 -164t483 164t172 494v805h-364v-815q0 -163 -75 -242.5t-212 -79.5q-138 0 -213.5 84t-75.5 246v807h-364v-815zM911 1882q-40 -137 -141 -137q-50 0 -89 36.5t-58 100.5h-195q12 -159 106.5 -258.5t231.5 -99.5q140 0 235 99.5t107 258.5
h-197z" />
    <glyph glyph-name="ubreve" unicode="&#x16d;" horiz-adv-x="1259" 
d="M102 381q0 -187 95.5 -296.5t279.5 -109.5q211 0 330 152l352 -147v1107h-352v-593q0 -99 -51.5 -152t-128.5 -53t-124.5 52.5t-47.5 152.5v593h-353v-706zM774 1544q-40 -137 -141 -137q-50 0 -89.5 36.5t-58.5 100.5h-194q12 -159 106.5 -258.5t231.5 -99.5
q140 0 235 99.5t107 258.5h-197z" />
    <glyph glyph-name="Uring" unicode="&#x16e;" horiz-adv-x="1533" 
d="M113 621q0 -320 169 -484t480 -164t483 164t172 494v805h-364v-815q0 -163 -75 -242.5t-212 -79.5q-138 0 -213.5 84t-75.5 246v807h-364v-815zM766 1556q102 0 174 69.5t72 170.5q0 98 -72.5 168t-173.5 70q-98 0 -172 -70.5t-74 -169.5q0 -100 73.5 -169t172.5 -69z
M766 1855q26 0 42.5 -17.5t16.5 -43.5q0 -28 -15.5 -43.5t-43.5 -15.5q-25 0 -42 17t-17 44q0 24 17.5 41.5t41.5 17.5z" />
    <glyph glyph-name="uring" unicode="&#x16f;" horiz-adv-x="1259" 
d="M102 381q0 -187 95.5 -296.5t279.5 -109.5q211 0 330 152l352 -147v1107h-352v-593q0 -99 -51.5 -152t-128.5 -53t-124.5 52.5t-47.5 152.5v593h-353v-706zM629 1184q102 0 173.5 69t71.5 170q0 98 -72 168t-173 70q-98 0 -172 -70.5t-74 -169.5t73.5 -168t172.5 -69z
M629 1483q26 0 42.5 -17.5t16.5 -44.5q0 -28 -15.5 -43.5t-43.5 -15.5q-25 0 -42.5 17t-17.5 44q0 24 18 42t42 18z" />
    <glyph glyph-name="Uhungarumlaut" unicode="&#x170;" horiz-adv-x="1533" 
d="M113 621q0 -320 169 -484t480 -164t483 164t172 494v805h-364v-815q0 -163 -75 -242.5t-212 -79.5q-138 0 -213.5 84t-75.5 246v807h-364v-815zM633 1569l313 329l-293 56l-264 -385h244zM1079 1569l316 332l-295 53l-260 -385h239z" />
    <glyph glyph-name="uhungarumlaut" unicode="&#x171;" horiz-adv-x="1372" 
d="M102 381q0 -187 95.5 -296.5t279.5 -109.5q211 0 330 152l352 -147v1107h-352v-593q0 -99 -51.5 -152t-128.5 -53t-124.5 52.5t-47.5 152.5v593h-353v-706zM510 1231l313 330l-293 55l-264 -385h244zM956 1231l316 332l-295 53l-260 -385h239z" />
    <glyph glyph-name="Uogonek" unicode="&#x172;" horiz-adv-x="1533" 
d="M113 621q0 -320 169 -484t480 -164t483 164t172 494v805h-364v-815q0 -163 -75 -242.5t-212 -79.5q-138 0 -213.5 84t-75.5 246v807h-364v-815zM952 -250q-62 -26 -110 -26q-31 0 -51.5 15t-20.5 44q0 62 127 217h-235q-58 -66 -91.5 -126.5t-33.5 -127.5
q0 -101 72.5 -160t185.5 -59q104 0 200 51z" />
    <glyph glyph-name="uogonek" unicode="&#x173;" horiz-adv-x="1259" 
d="M102 381q0 -187 95.5 -296.5t279.5 -109.5q211 0 330 152l352 -147v1107h-352v-593q0 -99 -51.5 -152t-128.5 -53t-124.5 52.5t-47.5 152.5v593h-353v-706zM1214 -250q-62 -26 -110 -26q-32 0 -52 15.5t-20 43.5q0 68 127 197l-180 79q-96 -103 -138 -171.5t-42 -139.5
q0 -101 72.5 -161t185.5 -60q104 0 200 51z" />
    <glyph glyph-name="Wcircumflex" unicode="&#x174;" horiz-adv-x="2183" 
d="M651 547l-274 889h-381l481 -1444h316l299 887l301 -887h315l479 1444h-372l-271 -889l-291 893h-313zM1462 1597l-274 367h-195l-276 -367h248l125 134l129 -134h243z" />
    <glyph glyph-name="wcircumflex" unicode="&#x175;" horiz-adv-x="1642" 
d="M328 1087h-346l337 -1093h306l194 614l193 -614h307l342 1093h-342l-166 -598l-184 603h-295l-182 -598zM1192 1260l-274 366h-195l-277 -366h248l125 133l129 -133h244z" />
    <glyph glyph-name="Ycircumflex" unicode="&#x176;" horiz-adv-x="1429" 
d="M895 0v549l547 887h-404l-319 -553l-320 553h-411l547 -893v-543h360zM1092 1597l-275 367h-194l-277 -367h248l125 134l129 -134h244z" />
    <glyph glyph-name="ycircumflex" unicode="&#x177;" horiz-adv-x="1175" 
d="M-12 1087l465 -1097l-111 -328h303l541 1425h-363l-223 -720l-242 720h-370zM971 1260l-275 366h-194l-277 -366h248l125 133l129 -133h244z" />
    <glyph glyph-name="Ydieresis" unicode="&#x178;" horiz-adv-x="1429" 
d="M895 0v549l547 887h-404l-319 -553l-320 553h-411l547 -893v-543h360zM494 1958q-76 0 -123 -45t-47 -121q0 -77 48 -121.5t122 -44.5q73 0 121.5 44.5t48.5 121.5t-48.5 121.5t-121.5 44.5zM944 1958q-75 0 -122.5 -45.5t-47.5 -120.5q0 -77 48.5 -121.5t121.5 -44.5
q74 0 122 44.5t48 121.5t-48 121.5t-122 44.5z" />
    <glyph glyph-name="Zacute" unicode="&#x179;" horiz-adv-x="1284" 
d="M494 305l766 864v267h-1231v-306h739l-770 -864v-266h1255v305h-759zM739 1946l-209 -367h250l293 262z" />
    <glyph glyph-name="zacute" unicode="&#x17a;" horiz-adv-x="1087" 
d="M492 283l555 569v235h-994v-280h529l-551 -569v-238h1013v283h-552zM639 1628l-209 -366h250l293 262z" />
    <glyph glyph-name="Zdotaccent" unicode="&#x17b;" horiz-adv-x="1284" 
d="M494 305l766 864v267h-1231v-306h739l-770 -864v-266h1255v305h-759zM659 1917q-90 0 -147 -48t-57 -136t57.5 -137.5t146.5 -49.5q88 0 146.5 49.5t58.5 137.5q0 87 -58 135.5t-147 48.5z" />
    <glyph glyph-name="zdotaccent" unicode="&#x17c;" horiz-adv-x="1087" 
d="M492 283l555 569v235h-994v-280h529l-551 -569v-238h1013v283h-552zM563 1579q-90 0 -147.5 -48t-57.5 -136t57.5 -137.5t147.5 -49.5q88 0 146.5 49.5t58.5 137.5q0 87 -58 135.5t-147 48.5z" />
    <glyph glyph-name="Zcaron" unicode="&#x17d;" horiz-adv-x="1284" 
d="M494 305l766 864v267h-1231v-306h739l-770 -864v-266h1255v305h-759zM1057 1948h-258l-123 -138l-125 138h-262l286 -369h197z" />
    <glyph glyph-name="zcaron" unicode="&#x17e;" horiz-adv-x="1087" 
d="M492 283l555 569v235h-994v-280h529l-551 -569v-238h1013v283h-552zM946 1581h-258l-123 -135l-125 135h-262l287 -367h197z" />
    <glyph glyph-name="florin" unicode="&#x192;" horiz-adv-x="921" 
d="M160 688l-191 -1001h353l192 1001h221l56 268h-230l31 129q17 84 57 120t115 36q49 0 80 -8l47 254q-94 24 -203 24q-184 0 -289 -85.5t-145 -270.5l-45 -199h-125l-55 -268h131z" />
    <glyph glyph-name="uni01CD" unicode="&#x1cd;" horiz-adv-x="1540" 
d="M479 281h574l116 -281h387l-614 1444h-344l-614 -1444h381zM586 563l182 455l178 -455h-360zM1155 1952h-258l-123 -137l-125 137h-262l287 -369h196z" />
    <glyph glyph-name="uni01CE" unicode="&#x1ce;" horiz-adv-x="1230" 
d="M772 279q-82 -76 -197 -76q-71 0 -120 39.5t-49 103.5q0 65 54.5 105.5t143.5 40.5q92 0 168 -37v-176zM1116 637q0 469 -532 469q-214 0 -430 -86v-256q169 70 342 70q139 0 207.5 -44.5t68.5 -142.5v-22q-118 47 -276 47q-195 0 -315 -88t-120 -258
q0 -162 109.5 -256.5t275.5 -94.5q196 0 324 138l346 -133v657zM999 1581h-258l-123 -135l-124 135h-263l287 -367h197z" />
    <glyph glyph-name="Aringacute" unicode="&#x1fa;" horiz-adv-x="1533" 
d="M770 1419q-26 0 -43.5 17t-17.5 43q0 25 18 42t45 17q25 0 42 -17t17 -42q0 -27 -17 -43.5t-44 -16.5zM-16 0h381l92 219h612l92 -219h387l-604 1315q70 70 70 164q0 98 -73 167.5t-175 69.5q-98 0 -171 -70t-73 -169q0 -94 68 -162zM948 502h-370l184 436zM856 2134
l-209 -367h250l293 265z" />
    <glyph glyph-name="Aringacute" unicode="&#x1fb;" horiz-adv-x="1533" 
d="M770 1419q-26 0 -43.5 17t-17.5 43q0 25 18 42t45 17q25 0 42 -17t17 -42q0 -27 -17 -43.5t-44 -16.5zM-16 0h381l92 219h612l92 -219h387l-604 1315q70 70 70 164q0 98 -73 167.5t-175 69.5q-98 0 -171 -70t-73 -169q0 -94 68 -162zM948 502h-370l184 436zM856 2134
l-209 -367h250l293 265z" />
    <glyph glyph-name="AEacute" unicode="&#x1fc;" horiz-adv-x="2035" 
d="M641 1436l-657 -1436h381l141 281h409v-281h1133v307h-776v275h694v286h-694v260h764v308h-1395zM915 563h-297l297 635v-635zM1221 1946l-209 -367h250l292 262z" />
    <glyph glyph-name="aeacute" unicode="&#x1fd;" horiz-adv-x="1947" 
d="M1780 369q-72 -65 -191.5 -103.5t-226.5 -38.5q-137 0 -211 86l733 187q-2 121 -37.5 228.5t-101 192t-168.5 134t-229 49.5q-216 0 -361 -129q-129 129 -414 129q-219 0 -428 -84v-256q166 70 344 70q138 0 207.5 -44.5t69.5 -142.5v-22q-118 47 -277 47
q-70 0 -132 -11.5t-118 -38t-96.5 -65.5t-64 -98.5t-23.5 -132.5q0 -109 61.5 -190t159.5 -121t216 -40q268 0 477 134q151 -142 389 -142q113 0 223 31t199 88v283zM766 279q-82 -76 -199 -76q-70 0 -119 39.5t-49 103.5q0 65 55 105.5t144 40.5q92 0 168 -37v-176z
M1122 549q-4 70 15.5 134.5t70 110.5t123.5 46q79 0 134 -50t75 -137zM1061 1608l-209 -367h250l293 262z" />
    <glyph glyph-name="Oslashacute" unicode="&#x1fe;" horiz-adv-x="1681" 
d="M258 -104l229 -117l125 237q113 -45 228 -45q161 0 304 59.5t244.5 160.5t160.5 239.5t59 290.5q0 179 -75 329t-214 255l104 186l-227 115l-106 -191q-120 49 -248 49q-163 0 -306.5 -59t-245 -159t-160 -238t-58.5 -291q0 -184 81 -338.5t226 -259.5zM541 436
q-99 116 -99 285q0 176 111.5 297t282.5 121q55 0 100 -23zM1153 979q86 -116 86 -262q0 -175 -110.5 -297.5t-282.5 -122.5q-41 0 -78 22zM967 1946l-209 -367h250l292 262z" />
    <glyph glyph-name="oslashacute" unicode="&#x1ff;" horiz-adv-x="1359" 
d="M922 668q28 -61 28 -127q0 -120 -74 -201.5t-192 -81.5q-63 0 -111 25zM444 416q-28 52 -28 125q0 120 73.5 202t192.5 82q65 0 113 -26zM57 -6l138 -131l174 192q145 -82 311 -82q169 0 307.5 77t215.5 207t77 284q0 214 -137 370l143 158l-139 135l-152 -176
q-133 80 -311 80q-127 0 -239 -45t-190.5 -121t-123.5 -180.5t-45 -220.5q0 -211 137 -367zM788 1608l-208 -367h249l293 262z" />
    <glyph glyph-name="uni0218" unicode="&#x218;" horiz-adv-x="1368" 
d="M948 395q0 -119 -205 -119q-159 0 -330 70t-302 184v-327q124 -114 290 -171t344 -57q117 0 218 26.5t179 78.5t122.5 135t44.5 188q0 89 -26.5 160.5t-71 119t-102.5 84t-122 59.5t-128 42.5t-122 36.5t-102.5 36t-71 47t-26.5 65q0 49 51 82.5t147 33.5
q128 0 272.5 -63t252.5 -162v338q-217 178 -551 178q-107 0 -202 -27.5t-170.5 -80t-120 -138t-44.5 -192.5q0 -82 26.5 -148.5t71.5 -110.5t103 -78.5t122.5 -57.5t129 -42t122.5 -36.5t103 -37.5t71.5 -49.5t26.5 -66.5zM575 -586l132 457h-242l-80 -457h190z" />
    <glyph glyph-name="uni0219" unicode="&#x219;" horiz-adv-x="1011" 
d="M662 305q0 -28 -25 -47t-53.5 -25t-57.5 -6q-86 0 -198 42t-203 106v-295q121 -52 217.5 -78.5t204.5 -26.5q197 0 315.5 94.5t118.5 256.5q0 66 -24 120t-63 88.5t-89 63t-102.5 46t-102.5 35t-89 32t-63 36t-24 48.5q0 30 26 47.5t74 17.5q68 0 175 -36t192 -85v291
q-104 43 -183 61.5t-182 18.5q-188 0 -306 -92t-118 -252q0 -78 31 -138t80.5 -95.5t109 -62.5t119 -44t109 -33t80.5 -37.5t31 -50.5zM399 -586l131 457h-241l-80 -457h190z" />
    <glyph glyph-name="uni021A" unicode="&#x21a;" horiz-adv-x="1265" 
d="M811 0v1120h430v316h-1218v-316h430v-1120h358zM530 -586l132 457h-242l-80 -457h190z" />
    <glyph glyph-name="uni021B" unicode="&#x21b;" horiz-adv-x="866" 
d="M233 328q0 -177 92.5 -264t258.5 -87q138 0 241 58v276q-78 -32 -137 -32q-53 0 -77.5 26.5t-24.5 83.5v414h258v284h-258v343l-563 -627h210v-475zM428 -586l131 457h-242l-79 -457h190z" />
    <glyph glyph-name="uni0237" unicode="&#x237;" horiz-adv-x="548" 
d="M-49 -330q79 -14 151 -14q186 0 277.5 89t91.5 284v1058h-352v-1054q0 -129 -90 -129q-28 0 -78 16v-250z" />
    <glyph glyph-name="circumflex" unicode="&#x2c6;" horiz-adv-x="741" 
d="M743 1260l-274 366h-195l-276 -366h248l125 133l129 -133h243z" />
    <glyph glyph-name="caron" unicode="&#x2c7;" horiz-adv-x="755" 
d="M762 1610h-258l-123 -137l-125 137h-262l287 -369h196z" />
    <glyph glyph-name="uni02C9" unicode="&#x2c9;" horiz-adv-x="872" 
d="M805 1196v219h-735v-219h735z" />
    <glyph glyph-name="breve" unicode="&#x2d8;" horiz-adv-x="692" 
d="M489 1544q-40 -137 -141 -137q-50 0 -89 36.5t-58 100.5h-195q12 -159 106.5 -258.5t231.5 -99.5q140 0 235 99.5t107 258.5h-197z" />
    <glyph glyph-name="dotaccent" unicode="&#x2d9;" horiz-adv-x="477" 
d="M238 1579q-90 0 -147.5 -48t-57.5 -136t57.5 -137.5t147.5 -49.5q88 0 146 49.5t58 137.5q0 87 -57.5 135.5t-146.5 48.5z" />
    <glyph glyph-name="ring" unicode="&#x2da;" horiz-adv-x="589" 
d="M295 1219q102 0 174 69t72 170q0 98 -72.5 168t-173.5 70q-98 0 -172 -70.5t-74 -169.5t73.5 -168t172.5 -69zM295 1518q26 0 42.5 -17.5t16.5 -44.5q0 -28 -15.5 -43.5t-43.5 -15.5q-25 0 -42 17t-17 44q0 24 17.5 42t41.5 18z" />
    <glyph glyph-name="ogonek" unicode="&#x2db;" horiz-adv-x="811" 
d="M586 -250q-62 -26 -111 -26q-31 0 -51.5 15t-20.5 44q0 62 127 217h-235q-58 -66 -91.5 -126.5t-33.5 -127.5q0 -101 72.5 -160t185.5 -59q105 0 201 51z" />
    <glyph glyph-name="tilde" unicode="&#x2dc;" horiz-adv-x="757" 
d="M195 1212q17 54 34.5 75.5t42.5 21.5q26 0 106 -36t134 -36q167 0 246 283l-193 34q-22 -92 -67 -92q-23 0 -107.5 37t-138.5 37q-173 0 -252 -289z" />
    <glyph glyph-name="hungarumlaut" unicode="&#x2dd;" horiz-adv-x="935" 
d="M217 1231l313 330l-292 55l-265 -385h244zM664 1231l315 332l-295 53l-260 -385h240z" />
    <glyph glyph-name="gravecomb" unicode="&#x300;" 
d="M-18 1524l292 -262h250l-209 366z" />
    <glyph glyph-name="acutecomb" unicode="&#x301;" 
d="M225 1628l-209 -366h250l293 262z" />
    <glyph glyph-name="uni0302" unicode="&#x302;" 
d="M743 1260l-274 366h-195l-276 -366h248l125 133l129 -133h243z" />
    <glyph glyph-name="tildecomb" unicode="&#x303;" 
d="M195 1212q17 54 34.5 75.5t42.5 21.5q26 0 106 -36t134 -36q167 0 246 283l-193 34q-22 -92 -67 -92q-23 0 -107.5 37t-138.5 37q-173 0 -252 -289z" />
    <glyph glyph-name="uni0304" unicode="&#x304;" 
d="M805 1196v219h-735v-219h735z" />
    <glyph glyph-name="uni0306" unicode="&#x306;" 
d="M489 1544q-40 -137 -141 -137q-50 0 -89 36.5t-58 100.5h-195q12 -159 106.5 -258.5t231.5 -99.5q140 0 235 99.5t107 258.5h-197z" />
    <glyph glyph-name="uni0307" unicode="&#x307;" 
d="M238 1579q-90 0 -147.5 -48t-57.5 -136t57.5 -137.5t147.5 -49.5q88 0 146 49.5t58 137.5q0 87 -57.5 135.5t-146.5 48.5z" />
    <glyph glyph-name="uni0308" unicode="&#x308;" 
d="M174 1616q-74 0 -121 -45t-47 -119q0 -76 47.5 -121t120.5 -45t120.5 45t47.5 121t-47.5 120t-120.5 44zM623 1616q-74 0 -121 -45t-47 -119q0 -76 47.5 -121t120.5 -45t120.5 45t47.5 121t-47.5 120t-120.5 44z" />
    <glyph glyph-name="uni030A" unicode="&#x30a;" 
d="M295 1219q102 0 174 69t72 170q0 98 -72.5 168t-173.5 70q-98 0 -172 -70.5t-74 -169.5t73.5 -168t172.5 -69zM295 1518q26 0 42.5 -17.5t16.5 -44.5q0 -28 -15.5 -43.5t-43.5 -15.5q-25 0 -42 17t-17 44q0 24 17.5 42t41.5 18z" />
    <glyph glyph-name="uni030B" unicode="&#x30b;" 
d="M217 1231l313 330l-292 55l-265 -385h244zM664 1231l315 332l-295 53l-260 -385h240z" />
    <glyph glyph-name="uni030C" unicode="&#x30c;" 
d="M762 1581h-258l-123 -135l-125 135h-262l287 -367h196z" />
    <glyph glyph-name="uni030F" unicode="&#x30f;" 
d="M-18 1524l292 -262h250l-209 366zM453 1524l292 -262h250l-209 366z" />
    <glyph glyph-name="uni0311" unicode="&#x311;" 
d="M203 1184q40 137 141 137q50 0 89.5 -36.5t58.5 -100.5h194q-12 159 -106.5 258.5t-231.5 99.5q-140 0 -235 -99.5t-107 -258.5h197z" />
    <glyph glyph-name="uni0312" unicode="&#x312;" 
d="M268 1855l-200 -704h325l121 704h-246z" />
    <glyph glyph-name="uni0326" unicode="&#x326;" 
d="M272 -535l131 457h-241l-80 -457h190z" />
    <glyph glyph-name="uni0327" unicode="&#x327;" 
d="M403 -139l86 139h-143l-139 -217l59 -49q47 18 86 18q38 0 60 -13.5t22 -39.5q0 -32 -36.5 -48t-75.5 -16q-77 0 -140 31l-49 -110q107 -52 213 -52q45 0 87.5 10t81.5 31.5t63 60.5t24 91q0 79 -56 121.5t-128 42.5h-15z" />
    <glyph glyph-name="uni0328" unicode="&#x328;" 
d="M586 -250q-62 -26 -111 -26q-31 0 -51.5 15t-20.5 44q0 62 127 217h-235q-58 -66 -91.5 -126.5t-33.5 -127.5q0 -101 72.5 -160t185.5 -59q105 0 201 51z" />
    <glyph glyph-name="uni0374" unicode="&#x374;" horiz-adv-x="983" 
d="M383 1712l-209 -491h250l405 491h-446z" />
    <glyph glyph-name="uni0375" unicode="&#x375;" horiz-adv-x="983" 
d="M610 -432l209 491h-250l-405 -491h446z" />
    <glyph glyph-name="uni037E" unicode="&#x37e;" horiz-adv-x="593" 
d="M287 1110q-96 0 -154.5 -55.5t-58.5 -151.5q0 -98 59.5 -153.5t153.5 -55.5q93 0 153 55.5t60 153.5t-60 152.5t-153 54.5zM270 -328l201 705h-326l-120 -705h245z" />
    <glyph glyph-name="tonos" unicode="&#x384;" horiz-adv-x="983" 
d="M383 1712l-209 -366h250l405 366h-446z" />
    <glyph glyph-name="dieresistonos" unicode="&#x385;" horiz-adv-x="1257" 
d="M248 1630q-62 0 -107 -43t-45 -104q0 -67 45.5 -109.5t106.5 -42.5t107 42.5t46 109.5q0 63 -46 105t-107 42zM543 1700l-133 -367h225l303 367h-395zM864 1485q0 -61 43.5 -106.5t104.5 -45.5q67 0 109 45.5t42 106.5t-42.5 107t-108.5 46q-63 0 -105.5 -46.5
t-42.5 -106.5z" />
    <glyph glyph-name="Alphatonos" unicode="&#x386;" horiz-adv-x="1632" 
d="M571 281h574l117 -281h387l-615 1444h-344l-614 -1444h381zM678 563l182 455l178 -455h-360zM139 1610l-209 -367h250l406 367h-447z" />
    <glyph glyph-name="anoteleia" unicode="&#x387;" horiz-adv-x="696" 
d="M346 928q-96 0 -153.5 -55t-57.5 -152t59 -152t152 -55q94 0 153.5 55t59.5 152q0 98 -59.5 152.5t-153.5 54.5z" />
    <glyph glyph-name="Epsilontonos" unicode="&#x388;" horiz-adv-x="1527" 
d="M649 307v275h692v286h-692v260h762v308h-1118v-1436h1130v307h-774zM-135 1610l-209 -367h250l405 367h-446z" />
    <glyph glyph-name="Etatonos" unicode="&#x389;" horiz-adv-x="1701" 
d="M299 1436v-1436h358v563h557v-563h359v1436h-359v-553h-557v553h-358zM-135 1610l-209 -367h250l405 367h-446z" />
    <glyph glyph-name="Iotatonos" unicode="&#x38a;" horiz-adv-x="614" 
d="M487 0v1436h-360v-1436h360zM-242 1610l-209 -367h250l406 367h-447z" />
    <glyph glyph-name="Omicrontonos" unicode="&#x38c;" horiz-adv-x="1705" 
d="M856 -29q157 0 299.5 58.5t245.5 158t164 239t61 294.5q0 152 -58.5 289t-160 236.5t-244.5 158.5t-305 59q-163 0 -306.5 -59t-245 -159t-160 -238t-58.5 -291t58.5 -290.5t159.5 -237.5t244.5 -159t305.5 -59zM856 1139q116 0 208 -58.5t141.5 -154.5t49.5 -209
t-49 -208.5t-140.5 -153.5t-207.5 -58q-173 0 -286 125t-113 299t111 296t286 122zM-6 1610l-209 -367h250l405 367h-446z" />
    <glyph glyph-name="Upsilontonos" unicode="&#x38e;" horiz-adv-x="1660" 
d="M1118 0v549l547 887h-403l-320 -553l-319 553h-412l547 -893v-543h360zM-207 1610l-209 -367h250l406 367h-447z" />
    <glyph glyph-name="Omegatonos" unicode="&#x38f;" horiz-adv-x="1763" 
d="M956 4h699v307h-338q129 63 205.5 209t76.5 299t-56 276.5t-154 203.5t-228 122.5t-280 42.5q-149 0 -279 -42.5t-228.5 -122.5t-155 -203.5t-56.5 -276.5q0 -152 77 -298.5t205 -209.5h-340v-307h703v324q-133 57 -205 168.5t-72 257.5q0 169 91 277t256 108
q168 0 260 -106t92 -279q0 -145 -70 -254t-203 -172v-324zM0 1610l-209 -367h250l405 367h-446z" />
    <glyph glyph-name="iotadieresistonos" unicode="&#x390;" horiz-adv-x="866" 
d="M571 0v1087h-352v-1087h352zM47 1630q-62 0 -106.5 -43t-44.5 -104q0 -67 45 -109.5t106 -42.5t107.5 43t46.5 109q0 63 -46.5 105t-107.5 42zM342 1700l-133 -367h225l303 367h-395zM664 1485q0 -61 43 -106.5t104 -45.5q67 0 109.5 45.5t42.5 106.5t-42.5 107
t-109.5 46q-63 0 -105 -46t-42 -107z" />
    <glyph glyph-name="Alpha" unicode="&#x391;" horiz-adv-x="1540" 
d="M479 281h574l116 -281h387l-614 1444h-344l-614 -1444h381zM586 563l182 455l178 -455h-360z" />
    <glyph glyph-name="Beta" unicode="&#x392;" horiz-adv-x="1443" 
d="M127 1436v-1436h690q264 0 408.5 107t144.5 292q0 139 -76.5 227t-218.5 124q219 91 219 325q0 172 -132.5 266.5t-356.5 94.5h-678zM477 854v291h258q97 0 148 -37t51 -107t-53 -108.5t-154 -38.5h-250zM477 291v305h295q120 0 179 -39.5t59 -110.5q0 -73 -58 -114
t-166 -41h-309z" />
    <glyph glyph-name="Gamma" unicode="&#x393;" horiz-adv-x="1261" 
d="M487 0v1120h752v316h-1112v-1436h360z" />
    <glyph glyph-name="Epsilon" unicode="&#x395;" horiz-adv-x="1363" 
d="M483 307v275h693v286h-693v260h762v308h-1118v-1436h1130v307h-774z" />
    <glyph glyph-name="Zeta" unicode="&#x396;" horiz-adv-x="1284" 
d="M494 305l766 864v267h-1231v-306h739l-770 -864v-266h1255v305h-759z" />
    <glyph glyph-name="Eta" unicode="&#x397;" horiz-adv-x="1529" 
d="M127 1436v-1436h358v563h557v-563h359v1436h-359v-553h-557v553h-358z" />
    <glyph glyph-name="Theta" unicode="&#x398;" horiz-adv-x="1697" 
d="M848 -29q157 0 299.5 58.5t245.5 158t164 239t61 294.5q0 152 -58.5 289t-159.5 236.5t-244 158.5t-304 59q-163 0 -307 -59t-245.5 -159t-160.5 -238t-59 -291t58.5 -290.5t159.5 -237.5t244.5 -159t305.5 -59zM848 1139q116 0 208 -58.5t141.5 -154.5t49.5 -209
t-48.5 -208.5t-139.5 -153.5t-207 -58q-117 0 -209.5 59t-142 155t-49.5 210q0 174 111 296t286 122zM604 578h492v307h-492v-307z" />
    <glyph glyph-name="Iota" unicode="&#x399;" horiz-adv-x="614" 
d="M487 0v1436h-360v-1436h360z" />
    <glyph glyph-name="Kappa" unicode="&#x39a;" horiz-adv-x="1429" 
d="M485 850v586h-358v-1436h358v741l523 -741h436l-582 809l555 627h-428z" />
    <glyph glyph-name="Lambda" unicode="&#x39b;" horiz-adv-x="1515" 
d="M1145 0l-389 1018l-391 -1018h-381l602 1444h344l602 -1444h-387z" />
    <glyph glyph-name="Mu" unicode="&#x39c;" horiz-adv-x="1595" 
d="M393 877l402 -607l401 609v-879h358v1434h-378l-379 -607l-379 607h-377v-1434h352v877z" />
    <glyph glyph-name="Nu" unicode="&#x39d;" horiz-adv-x="1583" 
d="M1100 606l-635 828h-338v-1434h354v852l656 -852h317v1436h-354v-830z" />
    <glyph glyph-name="Xi" unicode="&#x39e;" horiz-adv-x="1343" 
d="M119 1108h1106v328h-1106v-328zM106 0h1131v328h-1131v-328zM188 571h967v308h-967v-308z" />
    <glyph glyph-name="Omicron" unicode="&#x39f;" horiz-adv-x="1697" 
d="M848 -29q157 0 299.5 58.5t245.5 158t164 239t61 294.5q0 152 -58.5 289t-160 236.5t-244.5 158.5t-305 59q-163 0 -306.5 -59t-245 -159t-160 -238t-58.5 -291t58.5 -290.5t159.5 -237.5t244.5 -159t305.5 -59zM848 1139q116 0 208 -58.5t141.5 -154.5t49.5 -209
t-49 -208.5t-140.5 -153.5t-207.5 -58q-173 0 -286 125t-113 299t111 296t286 122z" />
    <glyph glyph-name="Pi" unicode="&#x3a0;" horiz-adv-x="1503" 
d="M127 1436v-1436h358v1116h533v-1116h360v1444z" />
    <glyph glyph-name="Rho" unicode="&#x3a1;" horiz-adv-x="1347" 
d="M127 1436v-1436h360v436h209q175 0 309.5 57.5t213.5 174t79 276.5q0 231 -157 361.5t-424 130.5h-590zM487 723v407h201q121 0 185.5 -51.5t64.5 -150.5q0 -94 -67 -149.5t-183 -55.5h-201z" />
    <glyph glyph-name="Sigma" unicode="&#x3a3;" horiz-adv-x="1263" 
d="M20 1169l388 -448l-410 -455v-266h1188v305h-692l372 416l-354 409h651v306h-1143v-267z" />
    <glyph glyph-name="Tau" unicode="&#x3a4;" horiz-adv-x="1265" 
d="M811 0v1120h430v316h-1218v-316h430v-1120h358z" />
    <glyph glyph-name="Upsilon" unicode="&#x3a5;" horiz-adv-x="1429" 
d="M895 0v549l547 887h-404l-319 -553l-320 553h-411l547 -893v-543h360z" />
    <glyph glyph-name="Phi" unicode="&#x3a6;" horiz-adv-x="1945" 
d="M1147 1446h-342v-98q-7 0 -19.5 -1t-19.5 -1q-161 -4 -292.5 -53t-218.5 -132.5t-134 -195t-47 -240.5q0 -128 47 -239.5t134 -194.5t218.5 -132t292.5 -53q7 0 19.5 -1t19.5 -1v-114h342v114q7 0 19 1t18 1q160 4 290.5 53t216.5 132.5t132.5 195t46.5 242.5
q0 128 -46.5 239t-132.5 194t-216.5 131.5t-290.5 52.5q-6 0 -18 1t-19 1v98zM1147 1036q156 -5 257 -92t101 -223q0 -134 -103 -220t-255 -89v624zM805 412q-158 3 -261.5 87t-103.5 228q0 140 103.5 223t261.5 86v-624z" />
    <glyph glyph-name="Chi" unicode="&#x3a7;" horiz-adv-x="1425" 
d="M438 1436h-413l475 -705l-496 -731h406l299 461l299 -461h413l-495 735l475 701h-406l-278 -432z" />
    <glyph glyph-name="Psi" unicode="&#x3a8;" horiz-adv-x="1894" 
d="M1417 920q0 -161 -76.5 -246.5t-214.5 -85.5v848h-360v-848q-138 0 -214.5 85.5t-76.5 246.5v516h-362v-523q0 -309 173.5 -480t475.5 -171v-262h362v262q315 0 485.5 170.5t170.5 491.5v512h-363v-516z" />
    <glyph glyph-name="uni03A9" unicode="&#x3a9;" horiz-adv-x="1767" 
d="M961 4h698v307h-338q87 42 152.5 127t98 184t32.5 197q0 153 -56.5 276.5t-154.5 203.5t-228 122.5t-280 42.5q-149 0 -279 -42.5t-228.5 -122.5t-155 -203.5t-56.5 -276.5q0 -152 77.5 -298t205.5 -210h-340v-307h702v324q-133 57 -204.5 168.5t-71.5 257.5
q0 169 90.5 277t255.5 108q168 0 260 -106t92 -279q0 -146 -69.5 -254.5t-202.5 -171.5v-324z" />
    <glyph glyph-name="Iotadieresis" unicode="&#x3aa;" horiz-adv-x="606" 
d="M481 0v1436h-360v-1436h360zM76 1958q-76 0 -123 -45t-47 -121q0 -77 48 -121.5t122 -44.5q73 0 121.5 44.5t48.5 121.5t-48.5 121.5t-121.5 44.5zM526 1958q-75 0 -122.5 -45.5t-47.5 -120.5q0 -77 48.5 -121.5t121.5 -44.5q74 0 122 44.5t48 121.5t-48 121.5t-122 44.5
z" />
    <glyph glyph-name="Upsilondieresis" unicode="&#x3ab;" horiz-adv-x="1429" 
d="M895 0v549l547 887h-404l-319 -553l-320 553h-411l547 -893v-543h360zM492 1958q-76 0 -123 -45t-47 -121q0 -77 48 -121.5t122 -44.5q73 0 121.5 44.5t48.5 121.5t-48.5 121.5t-121.5 44.5zM942 1958q-75 0 -122.5 -45.5t-47.5 -120.5q0 -77 48.5 -121.5t121.5 -44.5
q74 0 122 44.5t48 121.5t-48 121.5t-122 44.5z" />
    <glyph glyph-name="alphatonos" unicode="&#x3ac;" horiz-adv-x="1359" 
d="M410 541q0 115 67.5 195.5t177.5 80.5q109 0 177.5 -80t68.5 -190q0 -112 -68.5 -194.5t-177.5 -82.5q-105 0 -175 82t-70 189zM1247 0v1087h-352v-151q-135 176 -342 176q-114 0 -209 -47.5t-156 -127.5t-94 -181.5t-33 -212.5q0 -87 20.5 -169.5t62 -154.5t99.5 -126.5
t138 -86t172 -31.5q112 0 185.5 42.5t156.5 136.5zM725 1712l-209 -366h250l405 366h-446z" />
    <glyph glyph-name="epsilontonos" unicode="&#x3ad;" horiz-adv-x="1130" 
d="M408 346q0 -23 20 -39t51.5 -23t56.5 -9.5t48 -2.5q77 0 153.5 18.5t180.5 67.5l61 -286q-202 -99 -424 -99q-130 0 -240 37.5t-181 115t-71 179.5q0 93 59 160.5t171 97.5q-89 35 -136.5 98t-47.5 146q0 76 35.5 135.5t98 96t143 55t173.5 18.5q219 0 404 -111l-89 -274
q-146 88 -282 88q-61 0 -100 -17.5t-39 -47.5q0 -70 172 -70h114v-258h-155q-176 0 -176 -76zM610 1712l-209 -366h250l406 366h-447z" />
    <glyph glyph-name="etatonos" unicode="&#x3ae;" horiz-adv-x="1302" 
d="M1165 709q0 177 -100.5 290t-271.5 113q-191 0 -330 -174l-352 149v-1087h352v596q0 97 52.5 150t127.5 53q74 0 122 -52.5t48 -150.5v-596h352v709zM745 1712l-208 -366h249l406 366h-447z" />
    <glyph glyph-name="iotatonos" unicode="&#x3af;" horiz-adv-x="565" 
d="M463 0v1087h-352v-1087h352zM358 1712l-208 -366h249l406 366h-447z" />
    <glyph glyph-name="upsilondieresistonos" unicode="&#x3b0;" horiz-adv-x="1259" 
d="M1159 1087h-352v-604q0 -90 -45.5 -148.5t-132.5 -58.5q-89 0 -131.5 58t-42.5 151v602h-353v-608q0 -251 137.5 -377.5t391.5 -126.5q249 0 388.5 128t139.5 384v600zM260 1630q-62 0 -106.5 -43t-44.5 -104q0 -67 45 -109.5t106 -42.5t107.5 43t46.5 109
q0 63 -46.5 105t-107.5 42zM555 1700l-133 -367h225l303 367h-395zM877 1485q0 -61 43 -106.5t104 -45.5q67 0 109.5 45.5t42.5 106.5t-42.5 107t-109.5 46q-63 0 -105 -46t-42 -107z" />
    <glyph glyph-name="alpha" unicode="&#x3b1;" horiz-adv-x="1359" 
d="M410 541q0 115 67.5 195.5t177.5 80.5q109 0 177.5 -80t68.5 -190q0 -112 -68.5 -194.5t-177.5 -82.5q-105 0 -175 82t-70 189zM1247 0v1087h-352v-151q-135 176 -342 176q-114 0 -209 -47.5t-156 -127.5t-94 -181.5t-33 -212.5q0 -87 20.5 -169.5t62 -154.5t99.5 -126.5
t138 -86t172 -31.5q112 0 185.5 42.5t156.5 136.5z" />
    <glyph glyph-name="beta" unicode="&#x3b2;" horiz-adv-x="1327" 
d="M463 543q0 -112 74.5 -191.5t183.5 -79.5q85 0 142 55t57 134q0 87 -66.5 141t-200.5 55v195q55 1 94.5 19t59.5 47t28.5 58.5t8.5 61.5q0 84 -53 128t-127 44q-89 0 -145 -60.5t-56 -160.5v-446zM1266 410q0 -125 -61.5 -225.5t-163.5 -155t-224 -54.5q-213 0 -354 172
v-485h-352v1323q0 236 149.5 380t409.5 144q239 0 379.5 -117t140.5 -298q0 -113 -59.5 -190t-161.5 -118q140 -35 218.5 -130t78.5 -246z" />
    <glyph glyph-name="gamma" unicode="&#x3b3;" horiz-adv-x="1177" 
d="M764 -338v371l422 1054h-365l-231 -671l-230 671h-372l424 -1060v-365h352z" />
    <glyph glyph-name="delta" unicode="&#x3b4;" horiz-adv-x="1312" 
d="M655 758q109 0 179.5 -68t70.5 -174q0 -99 -69 -171.5t-179 -72.5t-179.5 72t-69.5 174q0 97 67.5 168.5t179.5 71.5zM694 1225h383v280h-899v-280l395 -230q-129 14 -245.5 -41.5t-190.5 -172t-74 -265.5q0 -110 43.5 -209.5t120.5 -173t187.5 -117t238.5 -43.5
q173 0 309.5 71.5t211.5 196.5t75 279q0 173 -81.5 302.5t-237.5 234.5z" />
    <glyph glyph-name="epsilon" unicode="&#x3b5;" horiz-adv-x="1054" 
d="M408 346q0 -23 20 -39t51.5 -23t56.5 -9.5t48 -2.5q77 0 153.5 18.5t180.5 67.5l61 -286q-202 -99 -424 -99q-130 0 -240 37.5t-181 115t-71 179.5q0 93 59 160.5t171 97.5q-89 35 -136.5 98t-47.5 146q0 76 35.5 135.5t98 96t143 55t173.5 18.5q219 0 404 -111l-89 -274
q-146 88 -282 88q-61 0 -100 -17.5t-39 -47.5q0 -70 172 -70h114v-258h-155q-176 0 -176 -76z" />
    <glyph glyph-name="zeta" unicode="&#x3b6;" horiz-adv-x="956" 
d="M956 1239q-256 -158 -405.5 -353.5t-149.5 -379.5q0 -102 61 -164.5t197 -97.5q157 -37 225 -113t68 -194q0 -122 -75 -279l-299 25q59 104 59 174q0 46 -30 78t-109 51q-435 106 -435 495q0 195 120.5 387t348.5 359h-372v278h796v-266z" />
    <glyph glyph-name="eta" unicode="&#x3b7;" horiz-adv-x="1269" 
d="M1165 709q0 177 -100.5 290t-271.5 113q-191 0 -330 -174l-352 149v-1087h352v596q0 97 52.5 150t127.5 53q74 0 122 -52.5t48 -150.5v-596h352v709z" />
    <glyph glyph-name="theta" unicode="&#x3b8;" horiz-adv-x="1288" 
d="M1219 752q0 112 -19 217t-62.5 204.5t-108 173t-163 118t-219.5 44.5q-183 0 -315 -100.5t-197 -273.5t-65 -398q0 -112 18.5 -217.5t61.5 -206t107.5 -175t163.5 -120t222 -45.5q105 0 193 32t149.5 89.5t108 131.5t73 163.5t39.5 179t13 183.5zM422 893q6 42 14.5 80.5
t25.5 83.5t40 77.5t59.5 54t81.5 21.5t82 -22t60 -54.5t40.5 -77.5t25.5 -83.5t13 -79.5h-442zM866 612q-3 -53 -16 -107t-38 -109t-69.5 -89.5t-101.5 -34.5q-52 0 -93 31t-66 83.5t-39 108t-21 117.5h444z" />
    <glyph glyph-name="iota" unicode="&#x3b9;" horiz-adv-x="565" 
d="M463 0v1087h-352v-1087h352z" />
    <glyph glyph-name="kappa" unicode="&#x3ba;" horiz-adv-x="1193" 
d="M463 711v376h-352v-1087h352v557l336 -557h391l-408 639l398 448h-404z" />
    <glyph glyph-name="lambda" unicode="&#x3bb;" horiz-adv-x="1185" 
d="M424 1079l-428 -1079h369l235 696l231 -696h363l-426 1108q-17 44 -26.5 67t-27.5 64t-31 63t-34.5 55t-41 51.5t-47.5 40.5t-57 33t-66 19t-79 8q-148 0 -309 -84l74 -268q35 23 57 36t57.5 25.5t67.5 12.5q46 0 81 -50t38 -100v-2z" />
    <glyph glyph-name="uni03BC" unicode="&#x3bc;" horiz-adv-x="1273" 
d="M457 -338h-353v1425h353v-593q0 -99 47.5 -152t124.5 -53q78 0 129 53.5t51 151.5v593h352v-1087l-352 147q-66 -172 -193 -172q-52 0 -94 30.5t-65 78.5v-422z" />
    <glyph glyph-name="nu" unicode="&#x3bd;" horiz-adv-x="1181" 
d="M752 -6l436 1093h-365l-231 -671l-230 671h-372l438 -1093h324z" />
    <glyph glyph-name="xi" unicode="&#x3be;" horiz-adv-x="948" 
d="M63 391q0 -166 110 -272t278 -139q155 -28 155 -132q0 -68 -59 -165l297 -25q78 156 78 274q0 254 -285 310q-234 51 -234 196q0 55 29 93t86.5 58t128 28t168.5 8v282q-160 0 -235.5 42t-75.5 108q0 49 31.5 80.5t95 47t131.5 20.5t168 5v295h-805v-282h197
q-160 -73 -160 -207q0 -158 241 -244q-160 -39 -250 -142t-90 -239z" />
    <glyph glyph-name="omicron" unicode="&#x3bf;" horiz-adv-x="1320" 
d="M659 -27q163 0 300.5 74t219 206.5t81.5 293.5q0 116 -45 220t-123 180t-189.5 120.5t-238.5 44.5q-169 0 -307.5 -76.5t-216 -207t-77.5 -285.5t76 -285.5t213.5 -207.5t306.5 -77zM659 815q110 0 183 -81t73 -191q0 -111 -70 -191t-181 -80t-183.5 80.5t-72.5 194.5
q0 112 69.5 190t181.5 78z" />
    <glyph glyph-name="pi" unicode="&#x3c0;" horiz-adv-x="1249" 
d="M1145 1087h-1034v-1087h352v807h330v-807h352v1087z" />
    <glyph glyph-name="rho" unicode="&#x3c1;" horiz-adv-x="1349" 
d="M694 270q113 0 180.5 82t67.5 195q0 112 -69 191t-179 79q-104 0 -174.5 -78t-70.5 -198q0 -114 69 -192.5t176 -78.5zM102 545q0 171 78.5 301t213 198t302.5 68q166 0 300 -69t213 -199.5t79 -298.5q0 -109 -33 -210.5t-93 -182t-155 -129t-210 -48.5q-206 0 -342 166
v-479h-353v883z" />
    <glyph glyph-name="uni03C2" unicode="&#x3c2;" horiz-adv-x="1112" 
d="M834 -342q6 13 25.5 51.5t27 56.5t19.5 49.5t17 59.5t5 57q0 189 -264 310q-43 19 -81 43.5t-80.5 63.5t-67.5 95t-25 121q0 102 62.5 175t160.5 73q65 0 122 -27.5t95 -76.5l166 237q-76 81 -182 122.5t-224 41.5q-161 0 -285.5 -78.5t-189.5 -208.5t-65 -288
q0 -389 364 -545q41 -17 64 -28.5t52.5 -31t43.5 -43.5t14 -53q0 -75 -80 -151z" />
    <glyph glyph-name="sigma" unicode="&#x3c3;" horiz-adv-x="1411" 
d="M1094 803q78 -48 122 -123.5t44 -175.5q0 -118 -51 -219t-135 -168.5t-192 -105.5t-223 -38q-129 0 -240.5 44t-189 118.5t-122 177t-44.5 217.5q0 154 75.5 280.5t215 201.5t316.5 75h721v-284h-297zM664 272q111 0 181 74.5t70 183.5q0 116 -70 188.5t-186 72.5
q-115 0 -183 -70.5t-68 -185.5q0 -104 72.5 -183.5t183.5 -79.5z" />
    <glyph glyph-name="tau" unicode="&#x3c4;" horiz-adv-x="915" 
d="M23 1087h870v-284h-260v-412q0 -60 25 -86t79 -26q66 0 135 32v-276q-109 -58 -241 -58q-350 0 -350 351v475h-258v284z" />
    <glyph glyph-name="upsilon" unicode="&#x3c5;" horiz-adv-x="1259" 
d="M1159 1087h-352v-604q0 -90 -45.5 -148.5t-132.5 -58.5q-89 0 -131.5 58t-42.5 151v602h-353v-608q0 -251 137.5 -377.5t391.5 -126.5q249 0 388.5 128t139.5 384v600z" />
    <glyph glyph-name="phi" unicode="&#x3c6;" horiz-adv-x="1751" 
d="M1038 266q151 3 227.5 77.5t90.5 227.5q3 44 -3 85.5t-22 80t-50.5 61.5t-82.5 23q-148 0 -160 -229v-326zM698 -8q-180 13 -320 85.5t-224 210.5t-84 324q0 266 217 506h336q-119 -145 -171.5 -256.5t-52.5 -210.5q0 -380 299 -385v269q0 100 13 183t46.5 159t86.5 128
t137 82.5t193 30.5q163 0 281.5 -68.5t176.5 -182t58 -257.5q0 -117 -48.5 -226t-132.5 -193.5t-207 -138t-264 -60.5v-328h-340v328z" />
    <glyph glyph-name="chi" unicode="&#x3c7;" horiz-adv-x="1148" 
d="M760 1087l-182 -372l-183 372h-381l373 -690l-383 -735h373l194 404l193 -404h381l-383 741l373 684h-375z" />
    <glyph glyph-name="psi" unicode="&#x3c8;" horiz-adv-x="1777" 
d="M711 -338h352v313q125 0 233 30.5t194 91.5t135.5 162.5t49.5 232.5v595h-352v-595q0 -107 -70.5 -161.5t-189.5 -54.5v1219h-354v-1219q-120 0 -187 53t-67 163v595h-353v-604q0 -103 32.5 -188t89 -143.5t134 -99t166.5 -59t187 -18.5v-313z" />
    <glyph glyph-name="omega" unicode="&#x3c9;" horiz-adv-x="1826" 
d="M1087 868h-352v-348q0 -111 -38.5 -180.5t-114.5 -69.5q-81 0 -127.5 81t-46.5 220q0 129 51.5 251.5t191.5 295.5h-356q-232 -257 -232 -563q0 -164 57 -294t173.5 -209t275.5 -79q114 0 196 40t148 128q62 -80 143 -124t204 -44q237 0 371 159.5t134 422.5
q0 154 -53 289.5t-178 273.5h-356q139 -174 191 -296.5t52 -250.5q0 -139 -46.5 -220t-129.5 -81q-72 0 -115 64t-43 186v348z" />
    <glyph glyph-name="iotadieresis" unicode="&#x3ca;" horiz-adv-x="638" 
d="M492 0v1087h-353v-1087h353zM88 1616q-74 0 -121 -45t-47 -119q0 -76 47.5 -121t120.5 -45t120.5 45t47.5 121t-47.5 120t-120.5 44zM537 1616q-74 0 -121 -45t-47 -119q0 -76 47.5 -121t120.5 -45t120.5 45t47.5 121t-47.5 120t-120.5 44z" />
    <glyph glyph-name="upsilondieresis" unicode="&#x3cb;" horiz-adv-x="1259" 
d="M412 1616q-74 0 -121 -45t-47 -119q0 -76 47.5 -121t120.5 -45t120.5 45t47.5 121t-47.5 120t-120.5 44zM860 1616q-74 0 -121 -45t-47 -119q0 -76 47.5 -121t120.5 -45t120.5 45t47.5 121t-47.5 120t-120.5 44zM1159 1087h-352v-604q0 -90 -45.5 -148.5t-132.5 -58.5
q-89 0 -131.5 58t-42.5 151v602h-353v-608q0 -251 137.5 -377.5t391.5 -126.5q249 0 388.5 128t139.5 384v600z" />
    <glyph glyph-name="omicrontonos" unicode="&#x3cc;" horiz-adv-x="1320" 
d="M659 -27q163 0 300.5 74t219 206.5t81.5 293.5q0 116 -45 220t-123 180t-189.5 120.5t-238.5 44.5q-169 0 -307.5 -76.5t-216 -207t-77.5 -285.5t76 -285.5t213.5 -207.5t306.5 -77zM659 815q110 0 183 -81t73 -191q0 -111 -70 -191t-181 -80t-183.5 80.5t-72.5 194.5
q0 112 69.5 190t181.5 78zM780 1712l-209 -366h250l406 366h-447z" />
    <glyph glyph-name="upsilontonos" unicode="&#x3cd;" horiz-adv-x="1259" 
d="M1159 1087h-352v-604q0 -90 -45.5 -148.5t-132.5 -58.5q-89 0 -131.5 58t-42.5 151v602h-353v-608q0 -251 137.5 -377.5t391.5 -126.5q249 0 388.5 128t139.5 384v600zM694 1712l-209 -366h250l406 366h-447z" />
    <glyph glyph-name="omegatonos" unicode="&#x3ce;" horiz-adv-x="1826" 
d="M1087 868h-352v-348q0 -111 -38.5 -180.5t-114.5 -69.5q-81 0 -127.5 81t-46.5 220q0 129 51.5 251.5t191.5 295.5h-356q-232 -257 -232 -563q0 -164 57 -294t173.5 -209t275.5 -79q114 0 196 40t148 128q62 -80 143 -124t204 -44q237 0 371 159.5t134 422.5
q0 154 -53 289.5t-178 273.5h-356q139 -174 191 -296.5t52 -250.5q0 -139 -46.5 -220t-129.5 -81q-72 0 -115 64t-43 186v348zM993 1712l-209 -366h250l406 366h-447z" />
    <glyph glyph-name="uni03CF" unicode="&#x3cf;" horiz-adv-x="1429" 
d="M195 -92q97 -58 242 -104t263 -46q139 0 248 58.5t109 115.5l-572 809v-741h-358v1436h358v-586l504 586h428l-555 -627l582 -809q0 -131 -103.5 -247t-274.5 -184.5t-361 -68.5q-262 0 -510 121v287z" />
    <glyph glyph-name="uni03D7" unicode="&#x3d7;" horiz-adv-x="1193" 
d="M463 557v-557h-352v1087h352v-376l313 376h404l-398 -448l408 -639q0 -132 -79.5 -237t-217 -163.5t-305.5 -58.5q-118 0 -219.5 29t-225.5 90v287q235 -148 439 -148q112 0 182 44.5t70 101.5z" />
    <glyph glyph-name="Wgrave" unicode="&#x1e80;" horiz-adv-x="2183" 
d="M651 547l-274 889h-381l481 -1444h316l299 887l301 -887h315l479 1444h-372l-271 -889l-291 893h-313zM698 1841l293 -262h250l-209 367z" />
    <glyph glyph-name="wgrave" unicode="&#x1e81;" horiz-adv-x="1642" 
d="M328 1087h-346l337 -1093h306l194 614l193 -614h307l342 1093h-342l-166 -598l-184 603h-295l-182 -598zM403 1524l293 -262h250l-209 366z" />
    <glyph glyph-name="Wacute" unicode="&#x1e82;" horiz-adv-x="2183" 
d="M651 547l-274 889h-381l481 -1444h316l299 887l301 -887h315l479 1444h-372l-271 -889l-291 893h-313zM1188 1946l-209 -367h250l293 262z" />
    <glyph glyph-name="wacute" unicode="&#x1e83;" horiz-adv-x="1642" 
d="M328 1087h-346l337 -1093h306l194 614l193 -614h307l342 1093h-342l-166 -598l-184 603h-295l-182 -598zM913 1608l-208 -367h249l293 262z" />
    <glyph glyph-name="Wdieresis" unicode="&#x1e84;" horiz-adv-x="2183" 
d="M651 547l-274 889h-381l481 -1444h316l299 887l301 -887h315l479 1444h-372l-271 -889l-291 893h-313zM868 1958q-76 0 -123 -45t-47 -121q0 -77 48 -121.5t122 -44.5q73 0 121.5 44.5t48.5 121.5t-48.5 121.5t-121.5 44.5zM1319 1958q-75 0 -122.5 -45.5t-47.5 -120.5
q0 -77 48.5 -121.5t121.5 -44.5q74 0 122 44.5t48 121.5t-48 121.5t-122 44.5z" />
    <glyph glyph-name="wdieresis" unicode="&#x1e85;" horiz-adv-x="1642" 
d="M328 1087h-346l337 -1093h306l194 614l193 -614h307l342 1093h-342l-166 -598l-184 603h-295l-182 -598zM594 1616q-74 0 -121 -45t-47 -119q0 -76 47.5 -121t120.5 -45t120.5 45t47.5 121t-47.5 120t-120.5 44zM1042 1616q-74 0 -121 -45t-47 -119q0 -76 47.5 -121
t120.5 -45t120.5 45t47.5 121t-47.5 120t-120.5 44z" />
    <glyph glyph-name="uni1E9E" unicode="&#x1e9e;" horiz-adv-x="1323" 
d="M653 641q121 -9 188.5 -59t67.5 -136q0 -189 -327 -198v-254q106 -7 203 3.5t184.5 42t152 81.5t102.5 127t38 174q0 153 -93.5 253.5t-242.5 121.5l260 264q0 206 -153.5 331.5t-409.5 125.5q-301 0 -454 -146.5t-153 -410.5v-961h351v950q0 136 65 204.5t184 68.5
q101 0 164.5 -45.5t63.5 -122.5l-191 -221v-193z" />
    <glyph glyph-name="Ygrave" unicode="&#x1ef2;" horiz-adv-x="1429" 
d="M895 0v549l547 887h-404l-319 -553l-320 553h-411l547 -893v-543h360zM330 1862l293 -263h249l-208 367z" />
    <glyph glyph-name="ygrave" unicode="&#x1ef3;" horiz-adv-x="1175" 
d="M-12 1087l465 -1097l-111 -328h303l541 1425h-363l-223 -720l-242 720h-370zM193 1524l292 -262h250l-209 366z" />
    <glyph glyph-name="endash" unicode="&#x2013;" horiz-adv-x="909" 
d="M911 420v305h-913v-305h913z" />
    <glyph glyph-name="emdash" unicode="&#x2014;" horiz-adv-x="1626" 
d="M1628 471v305h-1630v-305h1630z" />
    <glyph glyph-name="uni2015" unicode="&#x2015;" horiz-adv-x="1757" 
d="M1747 471v305h-1630v-305h1630z" />
    <glyph glyph-name="quoteleft" unicode="&#x2018;" horiz-adv-x="626" 
d="M285 1618l-217 -700h366l92 700h-241z" />
    <glyph glyph-name="quoteright" unicode="&#x2019;" horiz-adv-x="630" 
d="M346 918l217 700h-366l-95 -700h244z" />
    <glyph glyph-name="quotesinglbase" unicode="&#x201a;" horiz-adv-x="686" 
d="M356 -399l217 702h-366l-94 -702h243z" />
    <glyph glyph-name="quotereversed" unicode="&#x201b;" horiz-adv-x="628" 
d="M436 1618h-366l217 -700h241z" />
    <glyph glyph-name="quotedblleft" unicode="&#x201c;" horiz-adv-x="1138" 
d="M797 1559l-217 -703h364l94 703h-241zM285 1559l-217 -703h364l94 703h-241z" />
    <glyph glyph-name="quotedblright" unicode="&#x201d;" horiz-adv-x="1142" 
d="M346 856l217 703h-366l-95 -703h244zM858 856l215 703h-364l-95 -703h244z" />
    <glyph glyph-name="quotedblbase" unicode="&#x201e;" horiz-adv-x="1198" 
d="M356 -436l217 702h-366l-94 -702h243zM868 -436l215 702h-364l-94 -702h243z" />
    <glyph glyph-name="dagger" unicode="&#x2020;" horiz-adv-x="940" 
d="M549 1153l26 317h-215l29 -317l-260 23v-199l262 24l-20 -851h194l-18 851l262 -24v199z" />
    <glyph glyph-name="daggerdbl" unicode="&#x2021;" horiz-adv-x="935" 
d="M387 287l-27 -297h215l-26 297l258 -23v199l-262 -25q1 98 1 331t-1 331l262 -25v201l-258 -25l26 314h-215l27 -314l-258 25v-201l262 25q-1 -98 -1 -331t1 -331l-262 25v-199z" />
    <glyph glyph-name="bullet" unicode="&#x2022;" horiz-adv-x="948" 
d="M473 1081q-139 0 -238.5 -101.5t-99.5 -240.5q0 -138 100 -237t238 -99q140 0 240 99t100 239q0 139 -101 239.5t-239 100.5z" />
    <glyph glyph-name="ellipsis" unicode="&#x2026;" horiz-adv-x="1822" 
d="M346 389q-96 0 -153.5 -55.5t-57.5 -151.5q0 -97 59 -153t152 -56t153 56t60 153q0 98 -59.5 152.5t-153.5 54.5zM911 389q-96 0 -153.5 -55.5t-57.5 -151.5q0 -97 59 -153t152 -56t153 56t60 153q0 98 -59.5 152.5t-153.5 54.5zM1475 389q-96 0 -153.5 -55.5
t-57.5 -151.5q0 -97 59 -153t152 -56t153 56t60 153q0 98 -59.5 152.5t-153.5 54.5z" />
    <glyph glyph-name="perthousand" unicode="&#x2030;" horiz-adv-x="2617" 
d="M442 690q160 0 262.5 112.5t102.5 272.5q0 159 -101.5 269t-261.5 110t-262 -110.5t-102 -270.5t101.5 -271.5t260.5 -111.5zM440 1247q67 0 101 -52t34 -122q0 -75 -36 -124.5t-95 -49.5q-57 0 -95 50.5t-38 125.5t35 123.5t94 48.5zM1370 -20q160 0 262.5 112.5
t102.5 272.5t-102 268t-261 108q-160 0 -262 -110t-102 -271q0 -159 101.5 -269.5t260.5 -110.5zM1370 535q65 0 99 -52.5t34 -122.5q0 -75 -36 -124.5t-95 -49.5q-57 0 -95 52t-38 127t36 122.5t95 47.5zM2173 -20q160 0 262 112.5t102 272.5q0 161 -101 268.5t-261 107.5
t-262.5 -110t-102.5 -271q0 -158 102.5 -269t260.5 -111zM2173 535q67 0 100 -52.5t33 -122.5q0 -75 -36 -124.5t-95 -49.5q-57 0 -95 52t-38 127t35.5 122.5t95.5 47.5zM1323 1434l-1087 -1434h260l1087 1434h-260z" />
    <glyph glyph-name="minute" unicode="&#x2032;" horiz-adv-x="649" 
d="M195 1436l-45 -703h194l234 680l4 23h-387z" />
    <glyph glyph-name="second" unicode="&#x2033;" horiz-adv-x="1142" 
d="M72 733h188l234 680l4 23h-379zM618 1436l-49 -703h191l233 680l4 23h-379z" />
    <glyph glyph-name="guilsinglleft" unicode="&#x2039;" horiz-adv-x="763" 
d="M684 156l-266 352l266 354l-264 113l-348 -467l346 -465z" />
    <glyph glyph-name="guilsinglright" unicode="&#x203a;" horiz-adv-x="763" 
d="M348 508l-266 -352l266 -113l346 465l-348 467l-264 -113z" />
    <glyph glyph-name="exclamdbl" unicode="&#x203c;" horiz-adv-x="1214" 
d="M541 1436h-402l2 -174l105 -803h188l107 803v174zM338 344q-89 0 -146 -48t-57 -136t57.5 -137.5t145.5 -49.5q90 0 147.5 49.5t57.5 137.5t-57.5 136t-147.5 48zM1075 1436h-401l2 -174l104 -803h189l106 803v174zM872 344q-88 0 -145 -48t-57 -136t57 -137.5t145 -49.5
q90 0 147.5 49.5t57.5 137.5t-57.5 136t-147.5 48z" />
    <glyph glyph-name="fraction" unicode="&#x2044;" horiz-adv-x="403" 
d="M-111 -190l914 1855h-291l-911 -1855h288z" />
    <glyph glyph-name="uni2070" unicode="&#x2070;" horiz-adv-x="710" 
d="M203 1024q0 43 7 84t23.5 83.5t49.5 68.5t79 26q78 0 122 -72.5t44 -191.5q0 -121 -42 -192.5t-119 -71.5t-120.5 71.5t-43.5 194.5zM756 1024q0 124 -43 225t-133 164.5t-213 63.5q-179 0 -286.5 -128.5t-107.5 -326.5t105.5 -325.5t283.5 -127.5q180 0 287 129t107 326
z" />
    <glyph glyph-name="uni2074" unicode="&#x2074;" horiz-adv-x="710" 
d="M201 915q19 29 90.5 134t99.5 155q2 -2 6 -2l-2 -12q-6 -50 -6 -272q-45 0 -94 -3q-67 0 -92 -2zM-45 745q74 0 218.5 1.5t215.5 1.5l-4 -160h229l-4 160q19 0 52.5 -1.5t50.5 -1.5l6 177l-105 -4v544h-254l-405 -581v-136z" />
    <glyph glyph-name="uni2075" unicode="&#x2075;" horiz-adv-x="710" 
d="M180 948q67 41 137 41q62 0 102 -31.5t40 -80.5q0 -55 -37.5 -87t-102.5 -32q-56 0 -105 23.5t-105 70.5l-125 -145q73 -66 152 -100t186 -34q154 0 251 83.5t97 222.5q0 131 -85.5 200.5t-209.5 69.5q-59 0 -139 -41l14 162h383l2 180h-557l-29 -430z" />
    <glyph glyph-name="uni2076" unicode="&#x2076;" horiz-adv-x="710" 
d="M555 1450h-227l-164 -248q-88 -135 -120 -206t-32 -138q0 -128 97.5 -207.5t257.5 -79.5q145 0 240 83t95 220q0 125 -68 197t-179 72q-77 0 -156 -53zM362 739q-57 0 -95 34.5t-38 90.5q0 54 35.5 88.5t95.5 34.5q61 0 96.5 -35t35.5 -88q0 -55 -35.5 -90t-94.5 -35z
" />
    <glyph glyph-name="uni2077" unicode="&#x2077;" horiz-adv-x="710" 
d="M369 584l387 700v166h-654v-182h414l-387 -684h240z" />
    <glyph glyph-name="uni2078" unicode="&#x2078;" horiz-adv-x="710" 
d="M602 1040q131 71 131 193q0 105 -91 174.5t-232 69.5q-140 0 -229 -69t-89 -173q0 -131 131 -195q-76 -32 -119 -86t-43 -127q0 -112 99 -184t250 -72q156 0 255 71.5t99 186.5q0 71 -44.5 125.5t-117.5 85.5zM410 1104q-45 0 -81 30t-36 74q0 46 32.5 74.5t84.5 28.5
q55 0 87.5 -30t32.5 -73t-33 -73.5t-87 -30.5zM410 737q-55 0 -96.5 30t-41.5 83q0 46 39 76t99 30q62 0 101.5 -30t39.5 -76q0 -49 -37.5 -81t-103.5 -32z" />
    <glyph glyph-name="uni2079" unicode="&#x2079;" horiz-adv-x="710" 
d="M213 582h227l222 338q56 86 79 146.5t23 115.5q0 132 -99 213.5t-266 81.5q-143 0 -240.5 -85.5t-97.5 -224.5q0 -126 69.5 -199t184.5 -73q51 0 84.5 12.5t71.5 40.5zM408 1305q60 0 97.5 -34t37.5 -93q0 -51 -36.5 -87t-96.5 -36q-63 0 -99.5 35.5t-36.5 89.5
q0 56 36 90.5t98 34.5z" />
    <glyph glyph-name="uni207F" unicode="&#x207f;" horiz-adv-x="806" 
d="M795 1284q0 123 -66.5 200t-187.5 77q-132 0 -226 -121l-241 104v-743h241v407q0 66 36.5 102t86.5 36t83.5 -35.5t33.5 -102.5v-407h240v483z" />
    <glyph glyph-name="Euro" unicode="&#x20ac;" horiz-adv-x="1236" 
d="M438 807q10 175 96.5 262.5t200.5 87.5q139 0 230 -113l247 195q-176 227 -477 227q-129 0 -236.5 -41.5t-182.5 -113t-127 -168t-76.5 -205t-24.5 -225.5q0 -179 50 -322t137 -234t202.5 -139.5t249.5 -48.5q164 0 283.5 60t208.5 178l-244 188q-97 -116 -227 -116
q-53 0 -99 19.5t-78 52t-57.5 76t-40 89t-22.5 94.5h374v197h-387z" />
    <glyph glyph-name="uni2113" unicode="&#x2113;" horiz-adv-x="1064" 
d="M602 -25q77 0 149 30t171 108l-111 170q-117 -101 -180 -101q-78 0 -78 105v248q311 350 311 622q0 126 -69 216.5t-189 90.5q-77 0 -135.5 -33t-92.5 -88.5t-50.5 -121t-16.5 -136.5v-483l-174 -170l117 -156l57 60v-64q0 -139 78 -218t213 -79zM602 1266q21 0 31 -32.5
t10 -72.5q0 -76 -22.5 -174.5t-67.5 -163.5v285q0 158 49 158z" />
    <glyph glyph-name="trademark" unicode="&#x2122;" horiz-adv-x="1835" 
d="M750 1231v215h-736v-215h252v-633h234v633h250zM1776 598v848h-273l-198 -447l-201 447h-277v-848h232v393l170 -393h145l170 391v-391h232z" />
    <glyph glyph-name="uni2126" unicode="&#x2126;" horiz-adv-x="1695" 
d="M870 4h699v307h-338q129 63 205.5 209t76.5 299t-56 276.5t-154 203.5t-228 122.5t-280 42.5q-149 0 -279 -42.5t-228.5 -122.5t-155 -203.5t-56.5 -276.5q0 -152 77 -298.5t205 -209.5h-340v-307h703v324q-133 57 -205 168.5t-72 257.5q0 169 91 277t256 108
q168 0 260 -106t92 -279q0 -145 -70 -254t-203 -172v-324z" />
    <glyph glyph-name="estimated" unicode="&#x212e;" horiz-adv-x="1400" 
d="M1247 487q0 279 -151.5 455t-395.5 176q-162 0 -287.5 -77t-192 -206.5t-66.5 -289.5q0 -161 66.5 -291.5t192 -207.5t287.5 -77q163 0 281.5 77.5t232.5 254.5l-174 100q-78 -132 -159.5 -190.5t-180.5 -58.5q-124 0 -213 77v258h760zM913 670h-426v190q87 76 211 76
q122 0 215 -78v-188z" />
    <glyph glyph-name="oneeighth" unicode="&#x215b;" horiz-adv-x="1703" 
d="M420 -190l913 1855h-291l-911 -1855h289zM166 584h242v868l-172 -4q-146 -15 -201 -31v-198q23 3 131 24v-659zM1462 451q131 71 131 192q0 105 -91 174.5t-232 69.5q-140 0 -229 -69t-89 -173q0 -130 131 -194q-76 -32 -118.5 -86t-42.5 -127q0 -112 98.5 -184
t249.5 -72q156 0 255 71.5t99 186.5q0 71 -44.5 125.5t-117.5 85.5zM1270 514q-45 0 -81 30t-36 74q0 46 32.5 74.5t84.5 28.5q55 0 88 -30t33 -73t-33.5 -73.5t-87.5 -30.5zM1270 147q-54 0 -95.5 30t-41.5 83q0 46 38.5 76.5t98.5 30.5q62 0 101.5 -30.5t39.5 -76.5
q0 -49 -37.5 -81t-103.5 -32z" />
    <glyph glyph-name="threeeighths" unicode="&#x215c;" horiz-adv-x="1959" 
d="M682 -190l913 1855h-290l-912 -1855h289zM1720 451q131 71 131 192q0 105 -91 174.5t-232 69.5q-140 0 -229 -69t-89 -173q0 -130 131 -194q-76 -32 -118.5 -86t-42.5 -127q0 -112 98.5 -184t249.5 -72q156 0 255 71.5t99 186.5q0 71 -44.5 125.5t-117.5 85.5zM1528 514
q-45 0 -81 30t-36 74q0 46 32.5 74.5t84.5 28.5q55 0 88 -30t33 -73t-33.5 -73.5t-87.5 -30.5zM1528 147q-54 0 -95.5 30t-41.5 83q0 46 38.5 76.5t98.5 30.5q62 0 101.5 -30.5t39.5 -76.5q0 -49 -37.5 -81t-103.5 -32zM55 854q9 -138 107 -210.5t250 -72.5q150 0 256 73
t106 206q0 69 -37.5 123t-109.5 84q54 27 81 74.5t27 105.5q0 113 -93.5 176.5t-221.5 63.5q-86 0 -156 -27.5t-118 -88t-56 -147.5h234q3 40 26 66.5t66 26.5q39 0 62.5 -24.5t23.5 -61.5q0 -46 -31 -73.5t-78 -27.5h-26v-143q7 0 23.5 1t23.5 1q57 0 90 -30.5t33 -78.5
q0 -55 -34 -91t-87 -36t-84.5 30t-36.5 81h-240z" />
    <glyph glyph-name="fiveeighths" unicode="&#x215d;" horiz-adv-x="1916" 
d="M639 -190l913 1855h-290l-912 -1855h289zM256 950q67 41 137 41q62 0 102 -31.5t40 -80.5q0 -55 -37.5 -87t-102.5 -32q-99 0 -211 94l-125 -145q73 -66 152 -100t186 -34q154 0 251 83.5t97 222.5q0 131 -85 200.5t-209 69.5q-60 0 -140 -41l15 162h383l2 180h-557
l-29 -430zM1675 451q131 71 131 192q0 105 -91 174.5t-232 69.5q-140 0 -229 -69t-89 -173q0 -130 131 -194q-76 -32 -118.5 -86t-42.5 -127q0 -112 98.5 -184t249.5 -72q156 0 255 71.5t99 186.5q0 71 -44.5 125.5t-117.5 85.5zM1483 514q-45 0 -81 30t-36 74
q0 46 32.5 74.5t84.5 28.5q55 0 88 -30t33 -73t-33.5 -73.5t-87.5 -30.5zM1483 147q-54 0 -95.5 30t-41.5 83q0 46 38.5 76.5t98.5 30.5q62 0 101.5 -30.5t39.5 -76.5q0 -49 -37.5 -81t-103.5 -32z" />
    <glyph glyph-name="seveneighths" unicode="&#x215e;" horiz-adv-x="1714" 
d="M414 -190l913 1855h-291l-911 -1855h289zM1475 451q131 71 131 192q0 105 -91 174.5t-233 69.5q-140 0 -228.5 -69t-88.5 -173q0 -130 131 -194q-76 -32 -119 -86t-43 -127q0 -112 98.5 -184t249.5 -72q156 0 255 71.5t99 186.5q0 71 -44 125.5t-117 85.5zM1282 514
q-45 0 -81 30t-36 74q0 46 32.5 74.5t84.5 28.5q55 0 88 -30t33 -73t-33.5 -73.5t-87.5 -30.5zM1282 147q-54 0 -95.5 30t-41.5 83q0 46 38.5 76.5t98.5 30.5q62 0 101.5 -30.5t39.5 -76.5q0 -49 -37.5 -81t-103.5 -32zM309 596l387 700v166h-653v-182h414l-387 -684h239z
" />
    <glyph glyph-name="partialdiff" unicode="&#x2202;" horiz-adv-x="1097" 
d="M524 -23q85 0 155.5 26t120 69t87 105t60 128t37 144t19.5 147t5 143q0 101 -15 198t-52 195t-93.5 171t-147 119t-204.5 46q-208 0 -365 -163l141 -162q103 106 220 106q60 0 107 -27t76.5 -68t50 -99t29.5 -112t13 -114q-119 84 -254 84q-195 0 -309.5 -131.5
t-114.5 -328.5q0 -125 50 -232t151 -175.5t233 -68.5zM526 694q125 0 232 -131q-6 -65 -20 -123.5t-39.5 -117.5t-70 -94t-102.5 -35q-92 0 -144 78t-52 180q0 103 51.5 173t144.5 70z" />
    <glyph glyph-name="uni2206" unicode="&#x2206;" horiz-adv-x="1611" 
d="M33 0h1540l-598 1454h-346zM1071 305h-545l273 727z" />
    <glyph glyph-name="product" unicode="&#x220f;" horiz-adv-x="1437" 
d="M1071 -535h246v2034h-1192v-2034h246v1803h700v-1803z" />
    <glyph glyph-name="summation" unicode="&#x2211;" horiz-adv-x="1224" 
d="M27 -535h1169v230h-842l576 803l-545 774h789v229h-1123v-178l582 -823l-606 -854v-181z" />
    <glyph glyph-name="minus" unicode="&#x2212;" horiz-adv-x="1386" 
d="M1231 604v225h-1077v-225h1077z" />
    <glyph glyph-name="radical" unicode="&#x221a;" horiz-adv-x="1028" 
d="M686 -16l358 1745h-249l-267 -1340l-239 508l-301 -133l96 -203l86 41l295 -618h221z" />
    <glyph glyph-name="infinity" unicode="&#x221e;" horiz-adv-x="1478" 
d="M1102 387q142 0 229.5 95.5t87.5 236.5q0 143 -90.5 238.5t-234.5 95.5q-106 0 -188.5 -49.5t-168.5 -141.5q-177 189 -360 189q-142 0 -231 -97.5t-89 -240.5q0 -140 90.5 -233t233.5 -93q54 0 102.5 13t93.5 41t78 54t80 68q94 -80 181 -128t186 -48zM1094 831
q49 0 72.5 -33.5t23.5 -84.5q0 -47 -24.5 -76t-69.5 -29q-50 0 -97 28t-102 77q39 36 59.5 53.5t62.5 41t75 23.5zM379 829q17 0 33 -3t33 -11.5t28.5 -14.5t30 -20.5t26 -20.5t28 -24t24.5 -22q-113 -105 -199 -105q-45 0 -70.5 29.5t-25.5 77.5t23.5 81t68.5 33z" />
    <glyph glyph-name="integral" unicode="&#x222b;" horiz-adv-x="735" 
d="M205 -471q65 0 115 29t79 73.5t48 104.5t25.5 115.5t6.5 113.5v1227q0 5 -0.5 20t0 25t0.5 24.5t1.5 24.5t4 19.5t7 14.5t10.5 5q12 0 40 -18.5t52 -18.5q50 0 85.5 35t35.5 88q0 52 -32.5 88t-77 50t-95.5 14q-54 0 -98 -18.5t-73.5 -51.5t-51.5 -74t-33.5 -90t-17 -95
t-5.5 -93v-1239q0 -10 0.5 -27t0.5 -28t-0.5 -25.5t-1.5 -23.5t-3 -17.5t-6 -12.5t-10 -4q-13 0 -40 18.5t-50 18.5q-48 0 -83.5 -35t-35.5 -85q0 -76 62 -114t141 -38z" />
    <glyph glyph-name="approxequal" unicode="&#x2248;" horiz-adv-x="1298" 
d="M1008 1106q-13 -77 -39.5 -115.5t-79.5 -38.5q-45 0 -110 22t-121 48t-128.5 48t-130.5 22q-59 0 -107.5 -21.5t-82 -57t-58.5 -86t-39.5 -102.5t-23.5 -112h205q13 70 40.5 110.5t86.5 40.5q39 0 100.5 -21.5t117.5 -48t130.5 -48t136.5 -21.5t112 23t82 59t55.5 87.5
t35 102t18.5 109.5h-200zM1008 684q-13 -77 -39.5 -114.5t-79.5 -37.5q-45 0 -110 22t-121 48t-128.5 48t-130.5 22q-59 0 -107.5 -22t-82 -57.5t-58.5 -86.5t-39.5 -103t-23.5 -112h205q12 71 40 112t87 41q39 0 100.5 -21.5t117.5 -48t130.5 -48t136.5 -21.5
q261 0 303 379h-200z" />
    <glyph glyph-name="notequal" unicode="&#x2260;" horiz-adv-x="1374" 
d="M653 416h561v225h-436l82 164h371v231h-246l90 170l-205 113l-151 -283h-549v-231h428l-84 -164h-360v-225h241l-92 -168l205 -109z" />
    <glyph glyph-name="lessequal" unicode="&#x2264;" horiz-adv-x="1386" 
d="M1198 1141v329l-1010 -415v-328l1010 -416v332l-690 250zM1231 0v225h-1077v-225h1077z" />
    <glyph glyph-name="greaterequal" unicode="&#x2265;" horiz-adv-x="1386" 
d="M207 1466v-331l688 -248l-688 -250v-328l1010 414v328zM1231 0v225h-1077v-225h1077z" />
    <glyph glyph-name="lozenge" unicode="&#x25ca;" horiz-adv-x="1003" 
d="M600 -70l346 797l-346 799h-201l-342 -799l342 -797h201zM500 1184l194 -459l-194 -455l-191 459z" />
    <glyph glyph-name="uni25CC" unicode="&#x25cc;" horiz-adv-x="1841" 
d="M936 1573q-47 0 -76 -27t-29 -73q0 -49 29.5 -77t75.5 -28q47 0 76.5 27.5t29.5 77.5q0 48 -29.5 74t-76.5 26zM1296 1485q-48 0 -77 -26.5t-29 -74.5q0 -49 30 -76.5t76 -27.5q47 0 77 27.5t30 76.5t-29.5 75t-77.5 26zM1534 1192q-47 0 -77 -27t-30 -73q0 -48 30 -75.5
t77 -27.5q46 0 76 27.5t30 75.5q0 49 -29.5 74.5t-76.5 25.5zM1657 852q-48 0 -77.5 -27.5t-29.5 -74.5q0 -50 30 -77.5t77 -27.5q46 0 75 27.5t29 77.5q0 49 -29 75.5t-75 26.5zM1556 477q-47 0 -75.5 -27t-28.5 -73q0 -50 29 -77.5t75 -27.5t75.5 28t29.5 77
q0 48 -29.5 74t-75.5 26zM1294 223q-49 0 -77.5 -26t-28.5 -74q0 -49 30 -77t76 -28t75.5 28t29.5 77q0 48 -29.5 74t-75.5 26zM936 102q-47 0 -76 -27t-29 -73q0 -49 29.5 -76.5t75.5 -27.5q47 0 76.5 27t29.5 77q0 48 -29.5 74t-76.5 26zM537 217q-47 0 -76 -27t-29 -73
q0 -49 29.5 -77t75.5 -28q47 0 76.5 27.5t29.5 77.5q0 49 -29 74.5t-77 25.5zM258 473q-49 0 -78.5 -26t-29.5 -74t30.5 -75.5t77.5 -27.5q46 0 75 27.5t29 75.5q0 49 -29 74.5t-75 25.5zM186 852q-47 0 -76.5 -28t-29.5 -74q0 -50 29.5 -77.5t76.5 -27.5q46 0 75.5 28
t29.5 77t-29.5 75.5t-75.5 26.5zM279 1194q-47 0 -76 -27t-29 -73q0 -48 29.5 -75.5t75.5 -27.5q47 0 76.5 27.5t29.5 75.5q0 49 -29 74.5t-77 25.5zM535 1491q-47 0 -76 -27t-29 -73q0 -49 29.5 -77t75.5 -28t76 28t30 77q0 48 -30 74t-76 26z" />
    <glyph glyph-name="caroncommaaccent" horiz-adv-x="1024" 
d="M545 1100l131 456h-242l-80 -456h191z" />
    <glyph glyph-name="commaaccentrotate" horiz-adv-x="403" 
d="M199 1602l-213 -447h366l90 447h-243z" />
    <glyph glyph-name="f_t" horiz-adv-x="1464" 
d="M797 1481q-103 28 -219 28q-186 0 -287 -93t-101 -288v-49l-174 -274h174v-805h351v805h247v272h-303v47q0 61 47.5 94t114.5 33q76 0 150 -22v252zM836 326q0 -178 92 -264.5t258 -86.5q138 0 241 58v276q-81 -33 -137 -33q-52 0 -77 27t-25 84v414h258v284h-258v342
l-563 -626h211v-475z" />
    <glyph glyph-name="w_w_w" horiz-adv-x="5105" 
d="M367 1087h-347l338 -1093h306l194 614l193 -614h307l342 1093h-342l-166 -598l-184 603h-295l-183 -598zM2060 1087h-346l338 -1093h305l195 614l192 -614h308l342 1093h-342l-166 -598l-185 603h-295l-182 -598zM3752 1087h-346l338 -1093h305l194 614l193 -614h307
l342 1093h-342l-166 -598l-184 603h-295l-182 -598z" />
    <glyph glyph-name="t_t" horiz-adv-x="1595" 
d="M928 328q0 -178 92 -264.5t258 -86.5q139 0 242 58v276q-78 -32 -138 -32q-53 0 -77.5 26.5t-24.5 83.5v414h258v284h-258v343l-563 -627h211v-475zM248 328q0 -178 92 -264.5t258 -86.5q139 0 242 58v276q-78 -32 -138 -32q-53 0 -77.5 26.5t-24.5 83.5v414h258v284
h-258v343l-563 -627h211v-475z" />
    <glyph glyph-name="Upsilondieresis_alt" horiz-adv-x="1486" 
d="M950 0v549l547 887h-403l-320 -553l-319 553h-412l547 -893v-543h360zM547 1958q-76 0 -123 -45t-47 -121q0 -77 48 -121.5t122 -44.5q73 0 121.5 44.5t48.5 121.5t-48.5 121.5t-121.5 44.5zM997 1958q-75 0 -122.5 -45.5t-47.5 -120.5q0 -77 48.5 -121.5t121.5 -44.5
q74 0 122 44.5t48 121.5t-48 121.5t-122 44.5z" />
    <glyph glyph-name=".null.1" horiz-adv-x="569" 
 />
    <glyph glyph-name="ogonek.1" horiz-adv-x="442" 
d="M414 -250q-62 -26 -111 -26q-32 0 -52 15.5t-20 43.5q0 68 127 197l-180 79q-96 -103 -138 -171.5t-42 -139.5q0 -101 72.5 -161t185.5 -60q105 0 201 51z" />
    <glyph glyph-name="ogonek.2" horiz-adv-x="442" 
d="M414 -250q-62 -26 -111 -26q-32 0 -52 16t-20 49q0 103 201 297l-309 -86q-58 -66 -91.5 -126.5t-33.5 -127.5q0 -101 72.5 -160t185.5 -59q105 0 201 51z" />
    <glyph glyph-name="periodcentered.loclCAT" horiz-adv-x="641" 
d="M346 973q-96 0 -153.5 -55t-57.5 -152t59 -152t152 -55q94 0 153.5 55t59.5 152q0 98 -59.5 152.5t-153.5 54.5z" />
    <glyph glyph-name="i.loclTRK" horiz-adv-x="577" 
d="M442 0v1087h-352v-1087h352zM266 1577q-90 0 -147.5 -48t-57.5 -136t57.5 -137.5t147.5 -49.5q88 0 146.5 49.5t58.5 137.5q0 87 -58 135.5t-147 48.5z" />
    <glyph glyph-name="periodcentered.loclCAT.case" horiz-adv-x="641" 
d="M346 973q-96 0 -153.5 -55t-57.5 -152t59 -152t152 -55q94 0 153.5 55t59.5 152q0 98 -59.5 152.5t-153.5 54.5z" />
    <glyph glyph-name="uni004A0301" horiz-adv-x="935" 
d="M0 78q155 -103 301 -103q241 0 380.5 145t139.5 388v928h-358v-926q0 -107 -51 -162t-136 -55q-53 0 -106.5 23.5t-86.5 49t-83 70.5v-358zM659 1966l-208 -367h249l293 263z" />
    <glyph glyph-name="uni006A0301" horiz-adv-x="548" 
d="M387 1628l-209 -366h250l293 262zM-49 -330q79 -14 151 -14q186 0 277.5 89t91.5 284v1058h-352v-1054q0 -129 -90 -129q-28 0 -78 16v-250z" />
    <glyph glyph-name="tonos.case" horiz-adv-x="983" 
d="M383 1712l-209 -366h250l405 366h-446z" />
    <glyph glyph-name="uni030C.alt" 
d="M762 1610h-258l-123 -137l-125 137h-262l287 -369h196z" />
    <glyph glyph-name="Delta" horiz-adv-x="1597" 
d="M1104 283h-619l310 751zM-6 0h1608l-633 1444h-342z" />
    <glyph glyph-name="uni0394.1" horiz-adv-x="1611" 
d="M33 0h1540l-598 1454h-346zM526 305l273 727l272 -727h-545z" />
    <glyph glyph-name="uni03BC.001" horiz-adv-x="1273" 
d="M457 -338h-353v1425h353v-593q0 -99 47.5 -152t124.5 -53q78 0 129 53.5t51 151.5v593h352v-1087l-352 147q-66 -172 -193 -172q-52 0 -94 30.5t-65 78.5v-422z" />
    </font>
</defs>
</svg>
