<?xml version="1.0" standalone="no"?>
<!DOCTYPE svg PUBLIC "-//W3C//DTD SVG 1.1//EN" "http://www.w3.org/Graphics/SVG/1.1/DTD/svg11.dtd" >
<svg xmlns="http://www.w3.org/2000/svg" xmlns:xlink="http://www.w3.org/1999/xlink" version="1.1">
<metadata>
Created by FontForge 20201107 at Thu Dec 18 19:34:31 2025
 By 
Copyright 2022 The Geom Project Authors (https://github.com/ThanosPoulakidas/Geom)
</metadata>
<defs>
<font id="Geom-Italic" horiz-adv-x="0" >
  <font-face 
    font-family="Geom"
    font-weight="400"
    font-style="italic"
    font-stretch="normal"
    units-per-em="2048"
    panose-1="0 0 0 0 0 0 0 0 0 0"
    ascent="1638"
    descent="-410"
    x-height="1006"
    cap-height="1442"
    bbox="-391 -539 4755 2023"
    underline-thickness="102"
    underline-position="-255"
    slope="-10"
    unicode-range="U+000D-FB02"
  />
<missing-glyph horiz-adv-x="1083" 
d="M168 1475l-260 -1475h1077l260 1475h-1077zM1022 1358l-424 -500l-250 500h674zM895 254l-242 483l412 488zM803 117h-674l426 504zM88 254l172 973l238 -490z" />
    <glyph glyph-name="fi" unicode="fi" horiz-adv-x="1206" 
d="M868 1485q-58 22 -141 22q-329 0 -395 -368l-23 -129l-227 -172h197l-148 -838h199l147 838h248l31 168h-258l20 124q38 216 211 216q50 0 111 -23zM922 0l178 1008h-203l-178 -1008h203zM1075 1458q-29 0 -60 -10.5t-62.5 -43.5t-39.5 -83q-10 -56 23.5 -94.5
t89.5 -38.5q61 0 108 38t58 95q10 62 -22.5 99.5t-94.5 37.5z" />
    <glyph glyph-name="fl" unicode="fl" horiz-adv-x="1138" 
d="M868 1485q-58 22 -141 22q-329 0 -395 -368l-23 -129l-227 -172h197l-148 -838h199l147 838h248l31 168h-258l20 124q38 216 211 216q50 0 111 -23zM893 0l264 1499h-205l-264 -1499h205z" />
    <glyph glyph-name="f_f_i" unicode="ffi" horiz-adv-x="1888" 
d="M1602 0l178 1008h-203l-178 -1008h203zM1755 1458q-29 0 -60 -10.5t-62.5 -43.5t-39.5 -83q-10 -56 23.5 -94.5t89.5 -38.5q61 0 108 38t58 95q10 62 -22.5 99.5t-94.5 37.5zM1548 1485q-58 22 -141 22q-329 0 -395 -368l-23 -129l-227 -172h196l-147 -838h199l147 838
h248l31 168h-258l20 124q38 216 211 216q50 0 111 -23zM868 1485q-58 22 -141 22q-329 0 -395 -368l-23 -129l-227 -172h197l-148 -838h199l147 838h248l31 168h-258l20 124q38 216 211 216q50 0 111 -23z" />
    <glyph glyph-name="f_f_l" unicode="ffl" horiz-adv-x="1636" 
d="M868 1485q-58 22 -141 22q-329 0 -395 -368l-23 -129l-227 -172h197l-148 -838h199l147 838h248l31 168h-258l20 124q38 216 211 216q50 0 111 -23zM1466 1485q-58 22 -141 22q-329 0 -395 -368l-23 -129l-227 -172h197l-148 -838h199l147 838h248l31 168h-258l20 124
q38 216 211 216q50 0 111 -23zM1491 0l264 1499h-205l-264 -1499h205z" />
    <glyph glyph-name="f_f" unicode="ff" horiz-adv-x="1421" 
d="M1470 1485q-58 22 -141 22q-329 0 -395 -368l-23 -129l-227 -172h197l-148 -838h199l147 838h248l31 168h-258l20 124q38 216 211 216q50 0 111 -23zM868 1485q-58 22 -141 22q-329 0 -395 -368l-23 -129l-227 -172h197l-148 -838h199l147 838h248l31 168h-258l20 124
q38 216 211 216q50 0 111 -23z" />
    <glyph glyph-name=".notdef" horiz-adv-x="1083" 
d="M168 1475l-260 -1475h1077l260 1475h-1077zM1022 1358l-424 -500l-250 500h674zM895 254l-242 483l412 488zM803 117h-674l426 504zM88 254l172 973l238 -490z" />
    <glyph glyph-name=".null" 
 />
    <glyph glyph-name="nonmarkingreturn" horiz-adv-x="682" 
 />
    <glyph glyph-name="CR" unicode="&#xd;" horiz-adv-x="1044" 
 />
    <glyph glyph-name="space" unicode=" " horiz-adv-x="573" 
 />
    <glyph glyph-name="exclam" unicode="!" horiz-adv-x="612" 
d="M586 1442h-240l-24 -172l-99 -846h127l199 846zM256 248q-23 0 -45 -5.5t-47.5 -18.5t-44.5 -41t-25 -68q-9 -62 24 -100t91 -38q61 0 106.5 38t55.5 100q9 56 -23.5 94.5t-91.5 38.5z" />
    <glyph glyph-name="quotedbl" unicode="&#x22;" horiz-adv-x="970" 
d="M244 872h127l215 484l37 92h-226zM791 1448l-154 -576h127l215 484l37 92h-225z" />
    <glyph glyph-name="numbersign" unicode="#" horiz-adv-x="1280" 
d="M231 379l-127 -379h175l122 377h322l-121 -377h174l121 377h242l32 178h-213l117 346h225l31 178h-196l116 365h-174l-116 -365h-322l119 365h-174l-119 -365h-248l-31 -178h222l-117 -346h-234l-30 -176h204zM578 901h325l-117 -348h-325z" />
    <glyph glyph-name="dollar" unicode="$" horiz-adv-x="1183" 
d="M401 -197h148l33 191q191 20 327.5 130.5t165.5 274.5q26 147 -58 243t-294 169l82 467q71 -7 127 -42.5t86 -90.5l141 125q-94 162 -319 182l22 133h-147l-23 -133q-185 -18 -318.5 -123.5t-160.5 -265.5q-28 -154 57.5 -252t280.5 -168l-84 -483q-193 13 -322 178
l-141 -131q159 -213 430 -213zM688 602q206 -72 182 -229q-12 -82 -78 -138t-182 -73zM590 856l-21 9t-24.5 10t-26 11.5t-26 14.5t-24.5 18t-22 22t-18 26.5t-12 32t-4.5 38t4.5 45.5q15 82 79 135.5t169 63.5z" />
    <glyph glyph-name="percent" unicode="%" horiz-adv-x="1738" 
d="M465 729q88 0 162.5 33.5t124 89t80.5 121t42 135.5q24 158 -50.5 263.5t-225.5 105.5q-150 0 -267 -107.5t-145 -263.5q-28 -161 49.5 -269t229.5 -108zM571 1337q35 0 64.5 -12t53.5 -40t31.5 -73.5t-1.5 -113.5q-18 -101 -78.5 -164.5t-148.5 -63.5q-86 0 -127.5 65
t-22.5 171q19 102 81.5 166.5t147.5 64.5zM1206 -23q84 0 157 32t123.5 85.5t83.5 119t46 136.5q27 158 -49.5 263.5t-227.5 105.5q-149 0 -265 -107t-144 -264t48 -264t228 -107zM1313 580q36 0 65.5 -12t54 -39t31 -71.5t-3.5 -109.5q-19 -101 -81 -165t-146 -64
q-82 0 -125 61.5t-23 167.5q19 105 80.5 168.5t147.5 63.5zM362 -6l1266 1479h-176l-1268 -1479h178z" />
    <glyph glyph-name="ampersand" unicode="&#x26;" horiz-adv-x="1423" 
d="M856 311q-177 -170 -338 -170q-117 0 -178.5 76t-40.5 186q32 187 281 293zM1225 764q-100 -156 -217 -299l-234 319q163 65 260 153t119 216q24 133 -61 226.5t-242 93.5q-164 0 -285 -93t-147 -241q-14 -81 6.5 -154.5t71.5 -159.5q-360 -129 -414 -432
q-33 -188 78.5 -302t312.5 -114q130 0 243.5 50t229.5 149l148 -186l225 43l-219 297q152 175 284 379zM610 1137q14 88 76.5 131t132.5 43q75 0 116 -46t28 -122q-13 -77 -87 -140.5t-186 -103.5q-49 75 -69.5 130t-10.5 108z" />
    <glyph glyph-name="quotesingle" unicode="'" horiz-adv-x="581" 
d="M362 1448l-153 -576h129l215 484l37 92h-228z" />
    <glyph glyph-name="parenleft" unicode="(" horiz-adv-x="837" 
d="M606 -203q-130 142 -193 265t-72.5 249t21.5 273q44 225 172.5 419.5t350.5 370.5l-84 125q-272 -196 -432 -417.5t-209 -497.5q-98 -551 321 -908z" />
    <glyph glyph-name="parenright" unicode=")" horiz-adv-x="841" 
d="M244 1374q134 -134 197.5 -259t68.5 -251t-18 -280q-68 -437 -523 -787l84 -121q547 370 641 908q48 273 -32.5 495t-284.5 420z" />
    <glyph glyph-name="asterisk" unicode="*" horiz-adv-x="745" 
d="M285 1405l104 -178l-229 -74l22 -125l226 72l-41 -234h131l41 232l198 -70l62 125l-197 72l164 184l-96 72l-162 -176l-102 176z" />
    <glyph glyph-name="plus" unicode="+" horiz-adv-x="1228" 
d="M754 801l71 411h-190l-72 -411h-409l-33 -185h409l-73 -413h190l74 413h412l32 185h-411z" />
    <glyph glyph-name="comma" unicode="," horiz-adv-x="526" 
d="M98 -293l258 565h-227l-195 -565h164z" />
    <glyph glyph-name="hyphen" unicode="-" horiz-adv-x="694" 
d="M621 465l32 188h-573l-33 -188h574z" />
    <glyph glyph-name="period" unicode="." horiz-adv-x="614" 
d="M258 258q-53 0 -104 -35t-62 -104q-9 -60 24 -101t93 -41q57 0 105.5 41t58.5 101q10 59 -23.5 99t-91.5 40z" />
    <glyph glyph-name="slash" unicode="/" horiz-adv-x="1060" 
d="M39 -176l1202 1786h-182l-1198 -1786h178z" />
    <glyph glyph-name="zero" unicode="0" horiz-adv-x="1302" 
d="M336 729q21 118 56 214.5t88 174t129.5 121t170.5 43.5q109 0 177 -71t85 -196t-10 -294q-44 -250 -163 -405.5t-281 -155.5q-168 0 -233 153.5t-19 415.5zM1247 721q22 132 21 245.5t-32 206.5t-85.5 159t-139.5 102t-194 36q-179 0 -326 -97.5t-240.5 -264.5
t-131.5 -385q-31 -168 -16.5 -306.5t66.5 -237.5t149.5 -153.5t232.5 -54.5t253 56.5t205.5 157t148 237t89.5 299.5z" />
    <glyph glyph-name="one" unicode="1" horiz-adv-x="675" 
d="M369 0l256 1450h-447l-35 -197h238l-221 -1253h209z" />
    <glyph glyph-name="two" unicode="2" horiz-adv-x="1200" 
d="M1128 1069q17 86 1.5 152.5t-49.5 113t-88.5 76t-117 43.5t-133.5 14q-210 0 -356 -108.5t-217 -329.5h219q38 116 122 184t200 68q121 0 170 -59.5t34 -147.5q-30 -160 -307 -434l-643 -641h1004l32 184h-604l355 353q188 187 273 304t105 228z" />
    <glyph glyph-name="three" unicode="3" horiz-adv-x="1259" 
d="M1198 1290l31 174h-875l-32 -182h612l-492 -438l9 -111q54 12 151 12q158 0 239 -71t54 -219q-24 -134 -121 -214.5t-227 -80.5q-125 0 -196 66.5t-103 199.5l-187 -123q41 -153 156.5 -241.5t298.5 -88.5q144 0 271.5 65t211.5 176t107 245q18 100 -1.5 181.5t-70 136
t-126 85.5t-169.5 35z" />
    <glyph glyph-name="four" unicode="4" horiz-adv-x="1294" 
d="M1196 1456h-283l-882 -971l4 -178h753l-53 -307h205l53 307h199l31 174h-199zM954 1247l-135 -766h-557z" />
    <glyph glyph-name="five" unicode="5" horiz-adv-x="1175" 
d="M328 694q111 43 211 43q147 0 230 -79t60 -205q-24 -133 -123 -214t-249 -81q-185 0 -326 157l-147 -141q93 -101 194 -151t248 -50q238 0 406 133.5t208 354.5q18 104 -6 190t-81 143.5t-141 89t-185 31.5q-86 0 -230 -43l109 388h612l45 182h-794l-181 -674z" />
    <glyph glyph-name="six" unicode="6" horiz-adv-x="1228" 
d="M1030 1446h-231l-424 -508q-146 -173 -211 -274.5t-84 -204.5q-19 -111 5.5 -203t83.5 -154t149 -96.5t200 -34.5q218 0 387 134.5t207 343.5q34 199 -72.5 318.5t-300.5 119.5q-141 0 -241 -64zM547 145q-148 0 -214.5 79t-41.5 212q22 122 120 204.5t234 82.5
q135 0 205.5 -79t48.5 -202q-23 -131 -120.5 -214t-231.5 -83z" />
    <glyph glyph-name="seven" unicode="7" horiz-adv-x="1067" 
d="M262 0l909 1264l31 178h-1001l-33 -182h776l-913 -1260h231z" />
    <glyph glyph-name="eight" unicode="8" horiz-adv-x="1314" 
d="M938 754q118 56 189.5 130.5t93.5 192.5q21 111 -28 201.5t-148 140t-226 49.5q-195 0 -350 -110t-184 -275q-20 -110 23.5 -193t140.5 -134q-296 -118 -338 -365q-32 -178 96 -297t350 -119q147 0 274 51.5t212.5 148t107.5 220.5q23 125 -33 216t-180 143zM707 829
q-122 0 -181.5 68t-40.5 168t106 165.5t200 65.5q114 0 178 -65.5t47 -163.5q-19 -103 -107.5 -170.5t-201.5 -67.5zM588 147q-144 0 -214 71t-50 190q19 111 119 183.5t235 72.5t210.5 -73t55.5 -183q-19 -109 -119.5 -185t-236.5 -76z" />
    <glyph glyph-name="nine" unicode="9" horiz-adv-x="1222" 
d="M254 -4h229l443 522q63 76 96.5 118t76.5 105.5t67.5 121.5t35.5 120q38 222 -85 357t-353 135q-141 0 -267.5 -61.5t-212.5 -171.5t-110 -247q-35 -197 72.5 -321.5t300.5 -124.5q124 0 237 74zM737 1298q145 0 213 -80t43 -210q-24 -121 -124.5 -204t-231.5 -83
q-134 0 -203 81.5t-47 205.5q22 123 120 206.5t230 83.5z" />
    <glyph glyph-name="colon" unicode=":" horiz-adv-x="616" 
d="M258 258q-53 0 -104 -35t-62 -104q-9 -60 24 -101t93 -41q57 0 105.5 41t58.5 101q10 59 -23.5 99t-91.5 40zM395 1026q-53 0 -104 -35t-62 -104q-9 -60 24 -101t93 -41q57 0 105.5 41t58.5 101q10 59 -23.5 99t-91.5 40z" />
    <glyph glyph-name="semicolon" unicode=";" horiz-adv-x="534" 
d="M346 1026q-53 0 -104 -35t-62 -104q-9 -60 24 -101t93 -41q57 0 105.5 41t58.5 101q10 59 -23.5 99t-91.5 40zM78 -293l260 565h-229l-195 -565h164z" />
    <glyph glyph-name="less" unicode="&#x3c;" horiz-adv-x="1241" 
d="M1204 1055l35 196l-1067 -456l-31 -181l906 -456l32 194l-708 355z" />
    <glyph glyph-name="equal" unicode="=" horiz-adv-x="1191" 
d="M1178 1071h-977l-33 -186h977zM1090 565h-977l-33 -184h977z" />
    <glyph glyph-name="greater" unicode="&#x3e;" horiz-adv-x="1239" 
d="M252 1251l-35 -198l709 -348l-832 -349l-35 -196l1063 452l33 185z" />
    <glyph glyph-name="question" unicode="?" horiz-adv-x="933" 
d="M203 1098q167 182 344 182q93 0 139 -54t35 -128q-6 -33 -21.5 -63t-42.5 -59t-51 -50t-63 -52q-52 -42 -81 -68.5t-70 -72.5t-65.5 -98.5t-35.5 -114.5l-23 -121h201l12 66q16 95 59 155t134 130q104 78 170 164.5t86 199.5q28 160 -62 256t-260 96q-109 0 -205 -39.5
t-163 -109.5zM352 248q-61 0 -105.5 -37t-53.5 -96q-9 -62 23 -98.5t89 -36.5q62 0 109 37t57 98q9 56 -25 94.5t-94 38.5z" />
    <glyph glyph-name="at" unicode="@" horiz-adv-x="1869" 
d="M672 604q26 142 117.5 224.5t211.5 82.5q97 0 142.5 -63t27.5 -164q-22 -126 -121 -222.5t-214 -96.5q-95 0 -139 66t-25 173zM1384 27q-132 -77 -257 -113.5t-265 -36.5q-173 0 -309 57.5t-217.5 157.5t-112 237.5t-2.5 295.5q38 211 164.5 383.5t314.5 271t398 98.5
q153 0 277 -52.5t202 -142.5t110 -215t7 -266q-30 -174 -117.5 -282.5t-187.5 -108.5q-65 0 -89.5 48.5t-5.5 125.5l172 541l-168 18l-43 -131q-34 75 -91 116.5t-154 41.5q-181 0 -336.5 -141t-190.5 -336q-29 -169 54.5 -277t238.5 -108q180 0 334 168q18 -87 68.5 -129.5
t146.5 -42.5q167 0 300.5 138t174.5 378q36 206 -42 378t-248 271.5t-394 99.5q-177 0 -347.5 -66.5t-303.5 -180t-227 -270.5t-125 -332q-30 -174 7.5 -328t131 -266t243 -177t334.5 -65q312 0 592 172z" />
    <glyph glyph-name="A" unicode="A" horiz-adv-x="1417" 
d="M348 379h662l92 -379h231l-377 1444h-182l-883 -1444h226zM453 559l368 637l146 -637h-514z" />
    <glyph glyph-name="B" unicode="B" horiz-adv-x="1333" 
d="M313 1442l-254 -1442h514q147 0 264.5 31t195 86t123.5 125.5t61 154.5q26 139 -40.5 233.5t-228.5 119.5q109 38 179 124.5t90 204.5q14 77 -2.5 139t-56 103t-99.5 69t-130 40t-151 12h-465zM414 819l78 445h260q137 0 203 -55t46 -165q-18 -102 -102 -163.5
t-227 -61.5h-258zM301 180l82 467h264q215 0 298.5 -58t64.5 -175q-42 -234 -387 -234h-322z" />
    <glyph glyph-name="C" unicode="C" horiz-adv-x="1431" 
d="M1288 383q-141 -108 -257 -163.5t-255 -55.5q-153 0 -261 74.5t-151 201.5t-16 281q20 114 77 216.5t138.5 178t188 120t221.5 44.5q151 0 248.5 -49t164.5 -141l41 231q-169 149 -415 149q-212 0 -401.5 -99.5t-316 -271.5t-163.5 -380q-28 -156 4.5 -295t113.5 -238.5
t208.5 -157t281.5 -57.5q144 0 265 46t243 135z" />
    <glyph glyph-name="D" unicode="D" horiz-adv-x="1503" 
d="M313 1442l-254 -1442h467q233 0 427.5 92.5t319 256.5t161.5 374q38 213 -33 377.5t-232 253t-385 88.5h-471zM305 188l189 1063h331q75 0 139 -21t108.5 -58.5t78.5 -88.5t49.5 -110t20 -124t-8.5 -130q-42 -238 -217 -384.5t-440 -146.5h-250z" />
    <glyph glyph-name="E" unicode="E" horiz-adv-x="1286" 
d="M305 186l80 457h705l32 180h-704l76 432h766l32 187h-979l-254 -1442h1000l33 186h-787z" />
    <glyph glyph-name="F" unicode="F" horiz-adv-x="1230" 
d="M272 -4l109 625h694l33 184h-694l80 450h759l33 187h-973l-254 -1446h213z" />
    <glyph glyph-name="G" unicode="G" horiz-adv-x="1677" 
d="M1395 639q-25 -144 -113 -254.5t-214.5 -168.5t-270.5 -58q-154 0 -268 73t-163.5 202t-21.5 288q26 149 127.5 278.5t249 206t303.5 76.5q266 0 412 -176l41 231q-170 133 -433 133q-214 0 -411 -99.5t-331.5 -271.5t-170.5 -378q-37 -208 29.5 -380.5t221.5 -273
t368 -100.5q175 0 324 59t257.5 165.5t181.5 251.5t103 319l10 59h-606l-33 -182h408z" />
    <glyph glyph-name="H" unicode="H" horiz-adv-x="1468" 
d="M313 1444l-254 -1444h211l113 637h737l-112 -637h209l253 1444h-208l-109 -615h-737l108 615h-211z" />
    <glyph glyph-name="I" unicode="I" horiz-adv-x="520" 
d="M270 0l254 1442h-211l-254 -1442h211z" />
    <glyph glyph-name="J" unicode="J" horiz-adv-x="790" 
d="M-88 51q99 -74 227 -74q195 0 324 120.5t168 346.5l176 998h-213l-176 -1002q-27 -147 -87.5 -210.5t-158.5 -63.5q-62 0 -112 22.5t-111 65.5z" />
    <glyph glyph-name="K" unicode="K" horiz-adv-x="1214" 
d="M418 840l106 602h-211l-254 -1442h211l121 688l467 -688h264l-522 776l725 666h-264z" />
    <glyph glyph-name="L" unicode="L" horiz-adv-x="1105" 
d="M305 188l221 1254h-213l-254 -1442h918l33 188h-705z" />
    <glyph glyph-name="M" unicode="M" horiz-adv-x="1583" 
d="M360 1102l388 -797l667 797l-194 -1102h209l251 1434h-208l-668 -811l-385 811h-211l-252 -1434h209z" />
    <glyph glyph-name="N" unicode="N" horiz-adv-x="1538" 
d="M1139 328l-621 1106h-207l-252 -1434h207l197 1116l622 -1116h201l254 1442h-205z" />
    <glyph glyph-name="O" unicode="O" horiz-adv-x="1703" 
d="M752 -29q147 0 279.5 40.5t233.5 111.5t179.5 166.5t126.5 206t65 229.5q23 152 -10 288.5t-112 237.5t-207 160t-287 59q-214 0 -405.5 -100.5t-319 -272.5t-164.5 -378t29.5 -377t222 -271t369.5 -100zM983 1280q107 0 191.5 -29t137 -80.5t84.5 -122.5t35 -154.5
t-12 -176.5q-21 -113 -79.5 -215t-141.5 -177t-190.5 -119t-221.5 -44q-155 0 -266 75t-156 203.5t-18 284.5q27 153 117.5 279.5t227.5 201t292 74.5z" />
    <glyph glyph-name="P" unicode="P" horiz-adv-x="1232" 
d="M313 1442l-254 -1446h213l97 549h262q154 0 285 52.5t221.5 158t115.5 248.5q36 205 -86 321.5t-362 116.5h-492zM401 727l93 530h260q162 0 235.5 -66t50.5 -198q-23 -127 -122.5 -196.5t-258.5 -69.5h-258z" />
    <glyph glyph-name="Q" unicode="Q" horiz-adv-x="1714" 
d="M1489 -186l45 256l-168 163q218 208 268 490q37 203 -28.5 374t-220.5 272t-367 101q-214 0 -405.5 -100.5t-319 -273t-164.5 -379.5q-27 -153 5.5 -290t113.5 -237.5t211.5 -159.5t290.5 -59q216 0 440 123zM981 1280q109 0 193.5 -29.5t137 -81t84.5 -122.5t34 -154.5
t-13 -175.5q-21 -113 -79.5 -215t-141.5 -177t-190.5 -119t-221.5 -44q-116 0 -209.5 44t-150.5 119.5t-78.5 178.5t-1.5 219q20 115 78.5 217.5t141.5 177t192 118.5t225 44z" />
    <glyph glyph-name="R" unicode="R" horiz-adv-x="1236" 
d="M59 0h215l103 584h182l320 -584h251l-342 602q183 36 303.5 143.5t149.5 270.5q34 191 -86.5 308.5t-353.5 117.5h-488zM408 752l88 503h252q158 0 230.5 -60.5t49.5 -186.5q-24 -131 -130 -193.5t-267 -62.5h-223z" />
    <glyph glyph-name="S" unicode="S" horiz-adv-x="1140" 
d="M809 358q-10 -59 -43 -100.5t-81.5 -62t-96 -29t-101.5 -8.5q-270 0 -458 217l-37 -217q158 -183 452 -183q100 0 191.5 22.5t172.5 67.5t138 122.5t78 179.5q19 98 -7.5 177t-83 131.5t-128.5 96t-146 79.5t-133.5 72t-92.5 84.5t-23 106.5q15 83 91.5 128.5t194.5 45.5
q229 0 351 -184l40 235q-126 129 -366 129q-92 0 -179 -24t-159 -68t-122 -112.5t-64 -151.5q-13 -73 1 -135.5t49.5 -108t84 -84.5t105 -70.5t113 -61t107 -60t88 -64t55.5 -76.5t9 -94z" />
    <glyph glyph-name="T" unicode="T" horiz-adv-x="1105" 
d="M561 0l221 1255h430l33 187h-1069l-33 -187h430l-221 -1255h209z" />
    <glyph glyph-name="U" unicode="U" horiz-adv-x="1456" 
d="M147 590q-25 -133 -10.5 -235t55 -175t108 -120t149 -69t178.5 -22q157 0 278 42t204 124t135 195.5t79 265.5l150 848h-209l-150 -852q-38 -214 -153.5 -321t-298.5 -107q-192 0 -267 107.5t-37 326.5l150 846h-211z" />
    <glyph glyph-name="V" unicode="V" horiz-adv-x="1353" 
d="M383 1442h-236l318 -1444h233l820 1444h-230l-663 -1204z" />
    <glyph glyph-name="W" unicode="W" horiz-adv-x="2064" 
d="M557 315l-168 1127h-225l229 -1444h199l541 1130l155 -1130h195l733 1444h-219l-555 -1127l-150 1129h-196z" />
    <glyph glyph-name="X" unicode="X" horiz-adv-x="1312" 
d="M444 1442h-245l368 -705l-647 -737h244l498 578l294 -578h242l-383 741l610 701h-237l-465 -543z" />
    <glyph glyph-name="Y" unicode="Y" horiz-adv-x="1302" 
d="M662 0l100 569l704 873h-235l-535 -678l-299 678h-245l399 -875l-100 -567h211z" />
    <glyph glyph-name="Z" unicode="Z" horiz-adv-x="1308" 
d="M238 184l1153 1086l30 172h-1190l-32 -185h921l-1163 -1085l-31 -172h1204l33 184h-925z" />
    <glyph glyph-name="bracketleft" unicode="[" horiz-adv-x="800" 
d="M829 1321l27 158h-528l-316 -1792h529l26 155h-338l263 1479h337z" />
    <glyph glyph-name="backslash" unicode="\" horiz-adv-x="1028" 
d="M186 1585l527 -1829l178 19l-531 1831z" />
    <glyph glyph-name="bracketright" unicode="]" horiz-adv-x="804" 
d="M-16 -158l-27 -157h532l316 1794h-533l-26 -160h340l-262 -1477h-340z" />
    <glyph glyph-name="asciicircum" unicode="^" horiz-adv-x="1005" 
d="M575 1444l-452 -561h170l340 413l192 -413h176l-260 561h-166z" />
    <glyph glyph-name="underscore" unicode="_" horiz-adv-x="1163" 
d="M-125 -156l-27 -149h1164l26 149h-1163z" />
    <glyph glyph-name="grave" unicode="`" horiz-adv-x="495" 
d="M205 1526l221 -264h154l-144 317z" />
    <glyph glyph-name="a" unicode="a" horiz-adv-x="1144" 
d="M756 256q-126 -123 -299 -123q-110 0 -174.5 51.5t-46.5 149.5q12 67 61.5 114t112.5 67t131 20q138 0 252 -70zM1024 633q22 127 -25.5 218t-143.5 134t-230 43q-192 0 -414 -86l-31 -180q180 96 391 96q137 0 204.5 -49.5t49.5 -157.5l-6 -37q-107 66 -293 66
q-67 0 -129 -10t-123 -34.5t-108.5 -62t-82.5 -95.5t-48 -132q-16 -86 7 -157.5t73 -117t117.5 -70t142.5 -24.5q191 0 350 125l188 -106z" />
    <glyph glyph-name="b" unicode="b" horiz-adv-x="1265" 
d="M281 143q108 -163 325 -163q135 0 257.5 64.5t210 185t114.5 274.5q22 120 0.5 217.5t-74.5 166.5t-135 106.5t-182 37.5q-224 0 -408 -198l117 665h-205l-264 -1501zM717 854q69 0 122 -18t85 -50t50.5 -76.5t19.5 -97t-9 -110.5q-29 -154 -139.5 -252t-253.5 -98
q-137 0 -215.5 101t-52.5 251q27 151 141.5 250.5t251.5 99.5z" />
    <glyph glyph-name="c" unicode="c" horiz-adv-x="964" 
d="M936 954q-89 74 -256 74q-115 0 -221.5 -42t-187 -113.5t-136 -167.5t-74.5 -203q-25 -146 20.5 -265.5t151 -188t248.5 -68.5q155 0 307 81l39 215q-138 -122 -292 -122q-139 0 -216 105.5t-51 252.5q26 149 135.5 246.5t249.5 97.5q153 0 244 -123z" />
    <glyph glyph-name="d" unicode="d" horiz-adv-x="1265" 
d="M1034 -2l264 1501h-204l-117 -657q-101 190 -336 190q-203 0 -370.5 -146.5t-209.5 -381.5q-20 -118 1.5 -217.5t76.5 -166t137.5 -103.5t182.5 -37q114 0 204 45t177 131zM526 154q-83 0 -142.5 28.5t-87 76.5t-36.5 112t8 135q30 155 140 253.5t243 98.5
q136 0 218.5 -101.5t56.5 -250.5q-27 -151 -144 -251.5t-256 -100.5z" />
    <glyph glyph-name="e" unicode="e" horiz-adv-x="1118" 
d="M911 291q-90 -77 -190 -113.5t-191 -36.5q-118 0 -186.5 56t-89.5 153l795 187q8 102 -13.5 190.5t-69.5 157t-130 108t-189 39.5q-217 0 -381.5 -151.5t-204.5 -380.5q-26 -150 21 -270.5t155 -187.5t257 -67q104 0 204.5 31t178.5 84zM262 516q16 90 61.5 167.5
t123 129t169.5 51.5q107 0 172 -60t74 -155l-596 -147z" />
    <glyph glyph-name="f" unicode="f" horiz-adv-x="686" 
d="M860 1485q-58 22 -141 22q-329 0 -395 -368l-23 -129l-227 -172h196l-147 -838h199l147 838h248l31 168h-259l21 124q38 216 211 216q49 0 110 -23z" />
    <glyph glyph-name="g" unicode="g" horiz-adv-x="1275" 
d="M551 219q-159 0 -225.5 91t-38.5 233q26 141 130.5 230t244.5 89q141 0 220.5 -91t53.5 -232q-24 -138 -135.5 -229t-249.5 -91zM864 131q-56 -352 -434 -352q-227 0 -387 141l-37 -205q169 -102 395 -102q261 0 442 137t226 391l154 867l-248 -142q-115 166 -328 166
q-131 0 -251.5 -61t-207 -175.5t-112.5 -260.5q-36 -212 77.5 -349t319.5 -137q219 0 412 193z" />
    <glyph glyph-name="h" unicode="h" horiz-adv-x="1142" 
d="M1038 639q35 196 -45.5 293.5t-240.5 97.5q-109 0 -204 -44t-167 -116l111 629h-193l-264 -1499h205l102 578q22 122 111.5 189t199.5 67q216 0 170 -256l-102 -578h205z" />
    <glyph glyph-name="i" unicode="i" horiz-adv-x="489" 
d="M248 0l178 1008h-203l-178 -1008h203zM401 1458q-29 0 -60 -10.5t-62 -43.5t-39 -83q-10 -56 23 -94.5t89 -38.5q61 0 108 38t58 95q10 62 -22.5 99.5t-94.5 37.5z" />
    <glyph glyph-name="j" unicode="j" horiz-adv-x="612" 
d="M-57 -373q54 -14 108 -14q63 0 112.5 16.5t83 44.5t58 71.5t39 90.5t25.5 109l188 1063h-203l-194 -1102q-10 -61 -38 -95t-85 -34q-36 0 -66 12zM526 1458q-29 0 -60 -10.5t-62 -43.5t-39 -83q-10 -56 23 -94.5t89 -38.5q61 0 108 38t58 95q10 62 -22.5 99.5t-94.5 37.5
z" />
    <glyph glyph-name="k" unicode="k" horiz-adv-x="970" 
d="M346 602l158 897h-205l-264 -1499h205l82 465l309 -465h243l-358 545l520 463h-254z" />
    <glyph glyph-name="l" unicode="l" horiz-adv-x="471" 
d="M240 0l264 1499h-205l-264 -1499h205z" />
    <glyph glyph-name="m" unicode="m" horiz-adv-x="1759" 
d="M1339 0h205l113 641q31 174 -39 281.5t-240 107.5q-113 0 -210.5 -47t-166.5 -135q-46 182 -270 182q-95 0 -184 -37t-156 -110l-178 123l-178 -1006h205l102 578q21 118 97.5 195t187.5 77q208 0 161 -272l-102 -578h205l102 578q20 115 96.5 193.5t188.5 78.5
q211 0 164 -272z" />
    <glyph glyph-name="n" unicode="n" horiz-adv-x="1142" 
d="M1038 639q19 108 -5 195t-97 141.5t-188 54.5q-198 0 -351 -153l-184 131l-178 -1008h205l102 578q11 60 35.5 107.5t55 77.5t68 50.5t72.5 28.5t70 8q95 0 149.5 -65t30.5 -207l-102 -578h205z" />
    <glyph glyph-name="o" unicode="o" horiz-adv-x="1224" 
d="M508 -23q173 0 312 72.5t221 190.5t108 266q25 145 -24 265.5t-162 190.5t-267 70q-153 0 -290 -70.5t-228 -192t-117 -267.5q-25 -145 23 -265t159.5 -190t264.5 -70zM664 860q168 0 238.5 -99.5t39.5 -256.5q-28 -145 -142.5 -248.5t-258.5 -103.5q-143 0 -222 102
t-51 252q25 151 135.5 252.5t260.5 101.5z" />
    <glyph glyph-name="p" unicode="p" horiz-adv-x="1265" 
d="M268 166q108 -186 340 -186q129 0 251 64t212.5 186t118.5 276q40 234 -76 380t-319 146q-115 0 -206 -46t-179 -132l-197 154l-244 -1383h205zM717 854q150 0 225 -100.5t45 -247.5q-30 -157 -141 -255.5t-250 -98.5q-136 0 -218 101t-56 251q27 151 142 250.5t253 99.5
z" />
    <glyph glyph-name="q" unicode="q" horiz-adv-x="1265" 
d="M764 -375h205l243 1383l-247 -146q-59 83 -132.5 126.5t-187.5 43.5q-134 0 -256.5 -64t-211 -185.5t-116.5 -278.5q-39 -230 76.5 -378.5t321.5 -148.5q217 0 401 197zM532 152q-68 0 -120.5 19t-83.5 52.5t-50 79t-19 97.5t9 108q29 155 138 252.5t251 97.5
q137 0 218 -101t55 -251q-27 -150 -144 -252t-254 -102z" />
    <glyph glyph-name="r" unicode="r" horiz-adv-x="727" 
d="M807 1018q-31 8 -76 8q-90 0 -178 -38t-154 -109l-186 129l-178 -1008h205l92 520q14 81 52.5 144t90 99t107.5 54.5t112 18.5q54 0 78 -17z" />
    <glyph glyph-name="s" unicode="s" horiz-adv-x="819" 
d="M516 276q-7 -41 -30 -69.5t-54.5 -41.5t-59 -18.5t-55.5 -5.5q-88 0 -171.5 43.5t-147.5 110.5l-35 -203q76 -53 152 -82.5t182 -29.5q162 0 276 86.5t136 216.5q12 67 -6 121t-56 89.5t-86.5 64.5t-98 52t-90 45.5t-63 51t-16.5 63.5q8 41 51 69.5t107 28.5
q71 0 133.5 -33t130.5 -92l37 205q-106 82 -275 82q-153 0 -254 -70.5t-123 -189.5q-11 -65 8 -116t57.5 -83.5t87.5 -59.5t98.5 -49.5t89.5 -47t61.5 -59.5t13.5 -79z" />
    <glyph glyph-name="t" unicode="t" horiz-adv-x="722" 
d="M182 262q-21 -124 31.5 -204.5t175.5 -80.5q79 0 133 29l29 168q-48 -22 -94 -22q-48 0 -64 30.5t-8 79.5l100 574h260l31 172h-260l59 342l-495 -514h203z" />
    <glyph glyph-name="u" unicode="u" horiz-adv-x="1128" 
d="M94 391q-9 -50 -9 -97t8 -94t29.5 -86t54.5 -69.5t85.5 -47.5t118.5 -17q198 0 348 147l184 -131l179 1014h-205l-103 -578q-13 -74 -45.5 -129t-76 -85t-88 -44t-89.5 -14q-37 0 -66 6.5t-57.5 24.5t-42.5 48.5t-21 78t7 114.5l103 578h-205z" />
    <glyph glyph-name="v" unicode="v" horiz-adv-x="1017" 
d="M508 -2l598 1008h-215l-436 -775l-162 775h-221l239 -1008h197z" />
    <glyph glyph-name="w" unicode="w" horiz-adv-x="1531" 
d="M287 1008h-209l160 -1010h188l373 770l104 -770h195l516 1010h-211l-361 -746l-96 748h-196l-363 -750z" />
    <glyph glyph-name="x" unicode="x" horiz-adv-x="1036" 
d="M401 518l-485 -518h225l344 375l213 -375h230l-297 522l450 484h-223l-317 -342l-193 342h-231z" />
    <glyph glyph-name="y" unicode="y" horiz-adv-x="1024" 
d="M72 1006l270 -1008l-209 -373h189l790 1381h-213l-426 -773l-182 773h-219z" />
    <glyph glyph-name="z" unicode="z" horiz-adv-x="1042" 
d="M213 172l834 676l28 160h-928l-30 -168h676l-834 -680l-29 -160h957l31 172h-705z" />
    <glyph glyph-name="braceleft" unicode="{" horiz-adv-x="849" 
d="M78 506q68 0 110.5 -19.5t61 -43t20 -75t-3 -84t-18.5 -101.5q-7 -34 -10 -52q-15 -88 -18 -150.5t9 -111.5t37 -80t72 -52.5t107 -32.5t149 -17l45 139q-44 9 -75 18.5t-59 24t-43 33.5t-26.5 46.5t-9.5 62t8 81.5q4 21 12 63.5t11.5 63t9 57.5t5.5 57t-1 51.5
t-7.5 50.5t-17 44t-27.5 42.5t-40.5 36.5t-54.5 34q49 20 87.5 45.5t64.5 50.5t46 59.5t31 62.5t21 71t14 73t11.5 81t12.5 83q7 37 18.5 67t25.5 51.5t36.5 39t42.5 28.5t52 21.5t57 16.5t65 14l4 139q-72 -4 -130.5 -14t-104.5 -25.5t-82 -39.5t-62.5 -51t-47.5 -64
t-35.5 -75t-26.5 -88.5t-21.5 -99.5t-20.5 -113q-1 -5 -1 -7q-24 -131 -84.5 -187.5t-190.5 -56.5z" />
    <glyph glyph-name="bar" unicode="|" horiz-adv-x="1206" 
d="M874 1581h-174l-335 -1911h174z" />
    <glyph glyph-name="braceright" unicode="}" horiz-adv-x="849" 
d="M788 674q-52 -1 -89.5 8.5t-60 24.5t-34 42t-14.5 51.5t1.5 64t10.5 68t16 74.5t15 74q14 80 14.5 140t-14.5 105.5t-43 75.5t-75 49.5t-104.5 29.5t-138.5 14l-45 -139q38 -7 66 -15.5t53.5 -19.5t42.5 -25.5t29.5 -33.5t18 -43.5t5 -56t-7.5 -70.5q-4 -24 -12 -65
t-12 -63.5t-9 -58t-5.5 -56.5t0.5 -51t7.5 -49.5t17.5 -44t28 -42.5t41 -36.5t55 -33.5q-41 -17 -74 -36.5t-58 -44t-44 -46t-33.5 -53.5t-23.5 -54.5t-17.5 -62.5t-13 -63t-12 -69.5t-11.5 -70.5q-12 -68 -35 -114t-62 -76t-85.5 -46.5t-118.5 -29.5l-4 -139
q251 13 359 105q82 70 124 225q18 67 51 251q24 130 84 184t189 54z" />
    <glyph glyph-name="asciitilde" unicode="~" horiz-adv-x="1062" 
d="M881 766q-74 -117 -170 -117q-41 0 -91 26.5t-108 53.5t-119 27q-90 0 -159 -57t-134 -179l105 -53q43 62 80.5 90.5t85.5 28.5q37 0 81 -16.5t79 -37t82 -37t89 -16.5q162 0 285 236z" />
    <glyph glyph-name="uni00A0" unicode="&#xa0;" horiz-adv-x="573" 
 />
    <glyph glyph-name="exclamdown" unicode="&#xa1;" horiz-adv-x="612" 
d="M23 -367h241l35 244l90 776h-129l-184 -776zM354 825q61 0 106.5 38t55.5 100q9 56 -23.5 94.5t-91.5 38.5q-32 0 -61.5 -8.5t-60.5 -40.5t-39 -84q-9 -62 23.5 -100t90.5 -38z" />
    <glyph glyph-name="cent" unicode="&#xa2;" horiz-adv-x="1003" 
d="M449 424q-92 51 -129.5 132.5t-14.5 205.5q26 154 117 243.5t229 100.5zM1026 1176q-82 70 -180 92l49 176h-147l-48 -162q-227 -12 -389 -157t-202 -371q-31 -176 47 -315t237 -183l-59 -197h149l54 174q198 3 342 119l36 201q-171 -150 -333 -150l202 693
q67 -7 122 -41t85 -78z" />
    <glyph glyph-name="sterling" unicode="&#xa3;" horiz-adv-x="1130" 
d="M924 610l26 162h-499l34 193q25 138 104.5 224.5t211.5 86.5q94 0 151 -34.5t103 -106.5l162 133q-122 198 -383 198q-223 0 -373 -138t-189 -361l-34 -195h-140l-26 -162h139l-109 -610h875l31 176h-662l78 434h500z" />
    <glyph glyph-name="currency" unicode="&#xa4;" horiz-adv-x="1427" 
d="M1444 1171l-94 113l-228 -190q-115 100 -293 100q-184 0 -331 -102l-160 192l-131 -113l158 -190q-65 -72 -98.5 -142.5t-51.5 -166.5q-32 -179 45 -312l-231 -196l90 -113l235 197q128 -98 291 -98q164 0 326 96l162 -195l133 113l-160 190q128 147 160 318
q26 159 -45 313zM393 672q32 175 138 265.5t270 90.5q152 0 229.5 -101t50.5 -257q-27 -149 -141.5 -251t-265.5 -102t-229.5 102.5t-51.5 252.5z" />
    <glyph glyph-name="yen" unicode="&#xa5;" horiz-adv-x="1241" 
d="M504 436h-381l-29 -155h379l-49 -281h203l49 281h377l28 155h-372l43 170h358l29 156h-293l555 680h-236l-495 -647l-271 647h-241l317 -680h-295l-28 -156h360z" />
    <glyph glyph-name="brokenbar" unicode="&#xa6;" horiz-adv-x="1218" 
d="M854 1391h-186l-127 -721h186zM672 354h-187l-127 -710h187z" />
    <glyph glyph-name="section" unicode="&#xa7;" horiz-adv-x="1150" 
d="M1034 1372q-120 105 -311 105q-172 0 -295.5 -81t-146.5 -210q-24 -138 98 -240q-118 -18 -192.5 -83.5t-90.5 -153.5q-21 -120 52 -196t274 -151q149 -55 212 -101.5t52 -108.5q-12 -71 -68 -107.5t-149 -36.5q-203 0 -322 146l-32 -191q125 -115 323 -115
q176 0 300 86.5t149 223.5q20 131 -96 233q244 64 280 242q20 106 -54.5 187.5t-281.5 154.5q-157 54 -209.5 98.5t-44.5 110.5q7 64 67.5 97.5t156.5 33.5q88 0 156 -32t140 -99zM494 862q221 -38 314 -101q97 -65 77 -157q-12 -58 -67.5 -94.5t-139.5 -36.5
q-121 17 -213.5 50t-144.5 83.5t-41 108.5q20 124 215 147z" />
    <glyph glyph-name="dieresis" unicode="&#xa8;" horiz-adv-x="761" 
d="M354 1542q-47 0 -94.5 -30.5t-58.5 -98.5q-10 -57 20.5 -93t87.5 -36q55 0 100.5 36.5t55.5 92.5q9 55 -23.5 92t-87.5 37zM754 1542q-47 0 -95 -30.5t-59 -98.5q-10 -57 21 -93t88 -36q55 0 100 36.5t55 92.5q9 55 -23 92t-87 37z" />
    <glyph glyph-name="copyright" unicode="&#xa9;" horiz-adv-x="1720" 
d="M104 737q-33 -195 -2 -345t118 -251.5t222.5 -154t311.5 -52.5q215 0 415.5 106.5t338 289.5t175.5 401q29 163 -8 311t-124 255t-222 170t-295 63q-212 0 -413 -108t-340 -290.5t-177 -394.5zM1559 731q-23 -126 -83.5 -236t-142.5 -187t-178.5 -133t-192.5 -82.5
t-184 -26.5q-111 0 -202 24t-155 67.5t-110.5 104.5t-67.5 135.5t-26.5 160t12.5 177.5q33 180 148.5 332t284.5 241t350 89q182 0 319 -89t198.5 -242t29.5 -335zM1124 545q-131 -103 -260 -103q-122 0 -181.5 86.5t-37.5 216.5q23 128 115 212.5t207 84.5q68 0 128.5 -28
t100.5 -76l31 182q-99 82 -244 82q-196 0 -343 -130.5t-181 -326.5q-34 -198 66.5 -331t289.5 -133q144 0 279 94z" />
    <glyph glyph-name="ordfeminine" unicode="&#xaa;" horiz-adv-x="667" 
d="M139 1053q-17 -94 38.5 -140.5t144.5 -46.5q115 0 210 95l-14 -82h123l61 354q23 123 -36.5 184.5t-182.5 61.5q-109 0 -227 -54l14 -100q89 45 181 45q152 0 129 -135l-2 -14q-91 26 -156 26q-114 0 -190 -49.5t-93 -144.5zM74 723l-19 -107h549l19 107h-549zM557 1098
q-26 -137 -188 -137q-56 0 -85 25t-22 73q9 51 52 78.5t112 27.5q72 0 137 -28z" />
    <glyph glyph-name="guillemotleft" unicode="&#xab;" horiz-adv-x="1136" 
d="M502 156l-199 368l332 371l-154 63l-395 -440l240 -432zM952 156l-198 368l331 371l-153 63l-395 -440l239 -432z" />
    <glyph glyph-name="logicalnot" unicode="&#xac;" horiz-adv-x="1243" 
d="M1100 262l102 582h-1052l-31 -168h885l-72 -414h168z" />
    <glyph glyph-name="uni00AD" unicode="&#xad;" horiz-adv-x="694" 
d="M621 465l32 188h-573l-33 -188h574z" />
    <glyph glyph-name="registered" unicode="&#xae;" horiz-adv-x="1560" 
d="M950 1460q-174 0 -327 -56.5t-264.5 -154.5t-185 -231.5t-97.5 -286.5q-31 -200 38 -369t221 -267.5t353 -98.5q195 0 382 99.5t317 269t165 366.5t-33.5 365t-220 266t-348.5 98zM709 113q-121 0 -216 31t-156 86.5t-99 132.5t-45 169t6 197q18 128 80.5 241
t156.5 195.5t222 130t272 47.5q164 0 289.5 -82t182.5 -222.5t28 -305.5q-29 -166 -134.5 -308.5t-262 -227t-324.5 -84.5zM616 1163l-151 -860h158l61 348h39l207 -348h184l-223 369q94 21 165.5 87.5t88.5 160.5q20 109 -45 176t-182 67h-302zM709 791l43 237h118
q71 0 103 -35t22 -86q-9 -53 -57 -84.5t-113 -31.5h-116z" />
    <glyph glyph-name="macron" unicode="&#xaf;" horiz-adv-x="821" 
d="M856 1241l25 137h-641l-25 -137h641z" />
    <glyph glyph-name="degree" unicode="&#xb0;" horiz-adv-x="776" 
d="M446 870q151 0 248.5 87.5t120.5 222.5q22 130 -53.5 219.5t-206.5 89.5q-134 0 -240.5 -91t-130.5 -220q-22 -127 56 -217.5t206 -90.5zM535 1366q22 0 43.5 -4.5t45.5 -16t38.5 -32.5t23.5 -54t0 -79q-13 -83 -75 -135t-142 -52q-79 0 -122.5 54t-29.5 133
q12 74 76.5 130t141.5 56z" />
    <glyph glyph-name="plusminus" unicode="&#xb1;" horiz-adv-x="1226" 
d="M162 852l-29 -164h424l-55 -319h162l55 319h424l28 164h-423l59 330h-162l-59 -330h-424zM51 221l-28 -164h1009l29 164h-1010z" />
    <glyph glyph-name="uni00B2" unicode="&#xb2;" horiz-adv-x="714" 
d="M35 584h571l76 131l-336 -2l131 127q156 148 214.5 220.5t74.5 156.5q20 114 -45 186t-191 72q-83 0 -145 -32.5t-137 -111.5l98 -82q75 94 156 94q55 0 84 -36.5t20 -92.5q-10 -55 -66 -123t-202 -212z" />
    <glyph glyph-name="uni00B3" unicode="&#xb3;" horiz-adv-x="636" 
d="M78 889q-15 -82 2 -145.5t59 -100.5t97 -55.5t120 -18.5q143 0 249.5 78.5t129.5 206.5q26 152 -125 223q65 38 103 81.5t49 105.5q18 102 -48 159.5t-186 57.5q-41 0 -80 -7.5t-78 -25.5t-70.5 -45.5t-55.5 -71t-35 -98.5h147q13 58 55 89.5t95 31.5q54 0 81 -30t21 -73
q-9 -54 -62.5 -88.5t-125.5 -34.5h-35l-20 -120q4 0 23.5 1t23.5 1q55 0 93 -13.5t54 -35t23 -48.5t0 -55q-12 -70 -70 -116t-137 -46q-31 0 -58 8t-54 27t-38 60t0 98h-147z" />
    <glyph glyph-name="acute" unicode="&#xb4;" horiz-adv-x="489" 
d="M412 1579l-246 -317h147l314 264z" />
    <glyph glyph-name="uni00B5" unicode="&#xb5;" horiz-adv-x="1179" 
d="M184 -375h-204l243 1385h205l-102 -578q-24 -136 30 -205t146 -69q110 0 194.5 71t108.5 203l102 578h205l-178 -1010l-184 131q-54 -68 -129 -109.5t-154 -41.5q-71 0 -122.5 35.5t-74.5 105.5z" />
    <glyph glyph-name="paragraph" unicode="&#xb6;" horiz-adv-x="1298" 
d="M295 -217h174l264 1491h182l-264 -1491h174l265 1491h86l28 172h-561q-194 0 -320.5 -95t-156.5 -272q-51 -295 295 -358z" />
    <glyph glyph-name="periodcentered" unicode="&#xb7;" horiz-adv-x="614" 
d="M365 868q-22 0 -45 -5.5t-49 -19.5t-46 -43.5t-26 -70.5q-9 -60 23.5 -100.5t92.5 -40.5q61 0 107 40t57 101q10 59 -23 99t-91 40z" />
    <glyph glyph-name="cedilla" unicode="&#xb8;" horiz-adv-x="593" 
d="M205 -143l110 143h-135l-160 -188l33 -31q46 16 74 16q38 0 57 -15.5t13 -45.5q-6 -31 -33 -52.5t-55.5 -28.5t-55.5 -7q-51 0 -102 22l-45 -88q81 -43 170 -43q58 0 114.5 16t105 58.5t60.5 103.5q12 74 -32.5 107t-110.5 33h-8z" />
    <glyph glyph-name="uni00B9" unicode="&#xb9;" horiz-adv-x="491" 
d="M180 586h160l156 874h-123q-65 -65 -183 -143l-26 -152q76 40 137 99z" />
    <glyph glyph-name="ordmasculine" unicode="&#xba;" horiz-adv-x="700" 
d="M154 1171q-13 -73 3 -132.5t52.5 -97t86.5 -57.5t107 -20q143 0 242.5 90t122.5 224q22 122 -50 212.5t-202 90.5q-132 0 -236 -90.5t-126 -219.5zM86 725l-18 -107h589l19 107h-590zM641 1171q-5 -26 -17 -54t-35.5 -61.5t-65.5 -55t-95 -21.5q-79 0 -120 56t-27 143
q14 78 72.5 133t140.5 55q80 0 121 -54.5t26 -140.5z" />
    <glyph glyph-name="guillemotright" unicode="&#xbb;" horiz-adv-x="1136" 
d="M362 524l-329 -368l151 -70l396 432l-240 440l-178 -63zM811 524l-328 -368l150 -70l397 432l-242 440l-178 -63z" />
    <glyph glyph-name="onequarter" unicode="&#xbc;" horiz-adv-x="1361" 
d="M813 272q1 2 268 326l2 2l-2 -12q-2 -12 -10.5 -62.5t-23 -132t-21.5 -121.5h-111h-100h-2zM608 147q78 0 208 1.5t188 1.5l-27 -148h158l24 148q11 0 30 -1.5t30 -1.5l53 127l-90 -2l106 607h-125l-538 -646zM147 -111l1231 1696h-188l-1225 -1696h182zM158 586h159
l156 874h-123q-67 -67 -182 -143l-27 -152q78 42 138 99z" />
    <glyph glyph-name="onehalf" unicode="&#xbd;" horiz-adv-x="1472" 
d="M61 -111l1231 1696h-188l-1225 -1696h182zM184 586h160l156 874h-123q-67 -67 -182 -143l-27 -152q76 40 137 99zM649 -2h572l75 131l-335 -2l131 127q156 147 214 220t74 157q20 114 -44.5 186t-190.5 72q-83 0 -145.5 -32.5t-137.5 -111.5l99 -81q75 94 155 94
q55 0 84.5 -36.5t20.5 -92.5q-10 -55 -66.5 -123.5t-202.5 -212.5z" />
    <glyph glyph-name="threequarters" unicode="&#xbe;" horiz-adv-x="1585" 
d="M59 889q-15 -82 2.5 -145.5t59 -100.5t97 -55.5t120.5 -18.5q143 0 249.5 78.5t129.5 206.5q26 152 -125 223q65 38 102.5 81.5t48.5 105.5q18 102 -47.5 159.5t-185.5 57.5q-52 0 -100.5 -12.5t-94 -39.5t-79 -77.5t-46.5 -118.5h148q13 58 54.5 89.5t94.5 31.5
q54 0 81.5 -30t21.5 -73q-9 -54 -63 -88.5t-126 -34.5h-34l-21 -120q4 0 23.5 1t23.5 1q55 0 93 -13.5t54 -35t23 -48.5t0 -55q-12 -70 -70 -116t-137 -46q-24 0 -45.5 4.5t-46 17t-38.5 34t-22 55.5t3 82h-148zM297 -111l1231 1696h-189l-1224 -1696h182zM954 272
q43 54 100 123t109 131t60 72l2 2l-2 -12q-2 -12 -11.5 -64.5t-23 -128.5t-21.5 -123h-110h-101h-2zM750 147q78 0 207.5 1.5t187.5 1.5l-27 -148h158l24 148q12 0 30 -1.5t30 -1.5l53 127l-90 -2l107 607h-125l-539 -646z" />
    <glyph glyph-name="questiondown" unicode="&#xbf;" horiz-adv-x="925" 
d="M725 -27q-167 -182 -344 -182q-93 0 -139 54t-35 128q6 33 21.5 63t42.5 59t51 50t63 52q40 32 64 53t59 57.5t57 69t42 78.5t30 96l22 121h-200l-13 -66q-18 -96 -60 -155.5t-132 -128.5q-104 -78 -170 -165t-86 -200q-28 -160 61.5 -256t259.5 -96q109 0 205.5 39.5
t163.5 109.5zM575 823q61 0 106 37t54 96q9 62 -23 99t-89 37q-62 0 -109 -37t-57 -99q-9 -56 24.5 -94.5t93.5 -38.5z" />
    <glyph glyph-name="Agrave" unicode="&#xc0;" horiz-adv-x="1417" 
d="M348 379h662l92 -379h231l-377 1444h-182l-883 -1444h226zM453 559l368 637l146 -637h-514zM555 1864l221 -265h154l-144 318z" />
    <glyph glyph-name="Aacute" unicode="&#xc1;" horiz-adv-x="1417" 
d="M348 379h662l92 -379h231l-377 1444h-182l-883 -1444h226zM453 559l368 637l146 -637h-514zM1079 1917l-245 -318h147l313 265z" />
    <glyph glyph-name="Acircumflex" unicode="&#xc2;" horiz-adv-x="1417" 
d="M348 379h662l92 -379h231l-377 1444h-182l-883 -1444h226zM453 559l368 637l146 -637h-514zM1206 1614l-174 305h-160l-282 -305h158l178 162l125 -162h155z" />
    <glyph glyph-name="Atilde" unicode="&#xc3;" horiz-adv-x="1417" 
d="M348 379h662l92 -379h231l-377 1444h-182l-883 -1444h226zM453 559l368 637l146 -637h-514zM672 1577q46 94 129 94q39 0 114 -38t121 -38q137 0 244 226l-121 24q-28 -50 -51 -71t-57 -21q-33 0 -109.5 38t-128.5 38q-155 0 -264 -230z" />
    <glyph glyph-name="Adieresis" unicode="&#xc4;" horiz-adv-x="1417" 
d="M348 379h662l92 -379h231l-377 1444h-182l-883 -1444h226zM453 559l368 637l146 -637h-514zM743 1880q-47 0 -94.5 -30.5t-58.5 -98.5q-10 -57 20.5 -93t87.5 -36q55 0 100.5 36.5t55.5 92.5q9 55 -23.5 92t-87.5 37zM1143 1880q-47 0 -95 -30.5t-59 -98.5
q-10 -57 21 -93t88 -36q55 0 100 36.5t55 92.5q9 55 -23 92t-87 37z" />
    <glyph glyph-name="Aring" unicode="&#xc5;" horiz-adv-x="1417" 
d="M348 379h662l92 -379h231l-377 1444h-182l-883 -1444h226zM453 559l368 637l146 -637h-514zM854 1397q93 0 165 58t89 149q17 90 -35.5 152.5t-142.5 62.5q-89 0 -162 -61t-90 -152q-15 -88 37.5 -148.5t138.5 -60.5zM913 1712q39 0 68.5 -23.5t17.5 -82.5
q-9 -45 -41.5 -74t-80.5 -29q-46 0 -72 28.5t-17 76.5q6 43 43 73.5t82 30.5z" />
    <glyph glyph-name="AE" unicode="&#xc6;" horiz-adv-x="1925" 
d="M991 1442l-1100 -1442h226l293 379h489l-68 -379h1000l33 186h-787l80 457h705l32 180h-704l76 432h766l32 187h-1073zM930 559h-391l510 668z" />
    <glyph glyph-name="Ccedilla" unicode="&#xc7;" horiz-adv-x="1431" 
d="M1288 383q-141 -108 -257 -163.5t-255 -55.5q-153 0 -261 74.5t-151 201.5t-16 281q20 114 77 216.5t138.5 178t188 120t221.5 44.5q151 0 248.5 -49t164.5 -141l41 231q-169 149 -415 149q-212 0 -401.5 -99.5t-316 -271.5t-163.5 -380q-28 -156 4.5 -295t113.5 -238.5
t208.5 -157t281.5 -57.5q144 0 265 46t243 135zM662 -143l110 143h-135l-160 -188l33 -31q46 16 74 16q38 0 56.5 -15.5t12.5 -45.5q-6 -31 -32.5 -52.5t-55 -28.5t-55.5 -7q-51 0 -102 22l-46 -88q81 -43 170 -43q42 0 85.5 10t85 29.5t71.5 55.5t39 83q12 74 -32.5 107
t-110.5 33h-8z" />
    <glyph glyph-name="Egrave" unicode="&#xc8;" horiz-adv-x="1286" 
d="M305 186l80 457h705l32 180h-704l76 432h766l32 187h-979l-254 -1442h1000l33 186h-787zM592 1864l221 -265h154l-144 318z" />
    <glyph glyph-name="Eacute" unicode="&#xc9;" horiz-adv-x="1286" 
d="M305 186l80 457h705l32 180h-704l76 432h766l32 187h-979l-254 -1442h1000l33 186h-787zM973 1917l-246 -318h147l314 265z" />
    <glyph glyph-name="Ecircumflex" unicode="&#xca;" horiz-adv-x="1286" 
d="M305 186l80 457h705l32 180h-704l76 432h766l32 187h-979l-254 -1442h1000l33 186h-787zM1147 1614l-174 305h-160l-283 -305h158l178 162l125 -162h156z" />
    <glyph glyph-name="Edieresis" unicode="&#xcb;" horiz-adv-x="1286" 
d="M305 186l80 457h705l32 180h-704l76 432h766l32 187h-979l-254 -1442h1000l33 186h-787zM684 1880q-47 0 -95 -30.5t-59 -98.5q-10 -57 21 -93t88 -36q55 0 100.5 36.5t55.5 92.5q9 55 -23.5 92t-87.5 37zM1083 1880q-47 0 -94.5 -30.5t-58.5 -98.5q-10 -57 20.5 -93
t87.5 -36q55 0 100.5 36.5t55.5 92.5q9 55 -23.5 92t-87.5 37z" />
    <glyph glyph-name="Igrave" unicode="&#xcc;" horiz-adv-x="520" 
d="M270 0l254 1442h-211l-254 -1442h211zM135 1862l221 -265h154l-143 318z" />
    <glyph glyph-name="Iacute" unicode="&#xcd;" horiz-adv-x="520" 
d="M270 0l254 1442h-211l-254 -1442h211zM612 1917l-245 -318h147l313 265z" />
    <glyph glyph-name="Icircumflex" unicode="&#xce;" horiz-adv-x="520" 
d="M270 0l254 1442h-211l-254 -1442h211zM760 1614l-174 305h-160l-283 -305h158l178 162l125 -162h156z" />
    <glyph glyph-name="Idieresis" unicode="&#xcf;" horiz-adv-x="520" 
d="M270 0l254 1442h-211l-254 -1442h211zM297 1880q-47 0 -95 -30.5t-59 -98.5q-10 -57 21 -93t88 -36q55 0 100.5 36.5t55.5 92.5q9 55 -23.5 92t-87.5 37zM696 1880q-47 0 -94.5 -30.5t-58.5 -98.5q-10 -57 20.5 -93t87.5 -36q55 0 100.5 36.5t55.5 92.5q9 55 -23.5 92
t-87.5 37z" />
    <glyph glyph-name="Eth" unicode="&#xd0;" horiz-adv-x="1566" 
d="M377 1442l-254 -1442h467q175 0 330.5 54t272 149t195.5 229t107 291q29 160 -5.5 295t-120.5 227.5t-220.5 144.5t-302.5 52h-469zM367 188l188 1063h332q75 0 139 -21t108.5 -58.5t78.5 -88.5t49.5 -110t20 -124t-8.5 -130q-42 -238 -217.5 -384.5t-440.5 -146.5h-249z
M618 629l33 188h-573l-33 -188h573z" />
    <glyph glyph-name="Ntilde" unicode="&#xd1;" horiz-adv-x="1538" 
d="M1139 328l-621 1106h-207l-252 -1434h207l197 1116l622 -1116h201l254 1442h-205zM727 1577q46 94 129 94q39 0 114.5 -38t121.5 -38q136 0 243 226l-121 24q-28 -50 -51 -71t-57 -21q-33 0 -109.5 38t-128.5 38q-155 0 -264 -230z" />
    <glyph glyph-name="Ograve" unicode="&#xd2;" horiz-adv-x="1703" 
d="M752 -29q147 0 279.5 40.5t233.5 111.5t179.5 166.5t126.5 206t65 229.5q23 152 -10 288.5t-112 237.5t-207 160t-287 59q-214 0 -405.5 -100.5t-319 -272.5t-164.5 -378t29.5 -377t222 -271t369.5 -100zM983 1280q107 0 191.5 -29t137 -80.5t84.5 -122.5t35 -154.5
t-12 -176.5q-21 -113 -79.5 -215t-141.5 -177t-190.5 -119t-221.5 -44q-155 0 -266 75t-156 203.5t-18 284.5q27 153 117.5 279.5t227.5 201t292 74.5zM733 1864l221 -265h154l-143 318z" />
    <glyph glyph-name="Oacute" unicode="&#xd3;" horiz-adv-x="1703" 
d="M752 -29q147 0 279.5 40.5t233.5 111.5t179.5 166.5t126.5 206t65 229.5q23 152 -10 288.5t-112 237.5t-207 160t-287 59q-214 0 -405.5 -100.5t-319 -272.5t-164.5 -378t29.5 -377t222 -271t369.5 -100zM983 1280q107 0 191.5 -29t137 -80.5t84.5 -122.5t35 -154.5
t-12 -176.5q-21 -113 -79.5 -215t-141.5 -177t-190.5 -119t-221.5 -44q-155 0 -266 75t-156 203.5t-18 284.5q27 153 117.5 279.5t227.5 201t292 74.5zM1282 1917l-246 -318h148l313 265z" />
    <glyph glyph-name="Ocircumflex" unicode="&#xd4;" horiz-adv-x="1703" 
d="M752 -29q147 0 279.5 40.5t233.5 111.5t179.5 166.5t126.5 206t65 229.5q23 152 -10 288.5t-112 237.5t-207 160t-287 59q-214 0 -405.5 -100.5t-319 -272.5t-164.5 -378t29.5 -377t222 -271t369.5 -100zM983 1280q107 0 191.5 -29t137 -80.5t84.5 -122.5t35 -154.5
t-12 -176.5q-21 -113 -79.5 -215t-141.5 -177t-190.5 -119t-221.5 -44q-155 0 -266 75t-156 203.5t-18 284.5q27 153 117.5 279.5t227.5 201t292 74.5zM1454 1614l-174 305h-160l-282 -305h157l179 162l124 -162h156z" />
    <glyph glyph-name="Otilde" unicode="&#xd5;" horiz-adv-x="1703" 
d="M752 -29q147 0 279.5 40.5t233.5 111.5t179.5 166.5t126.5 206t65 229.5q23 152 -10 288.5t-112 237.5t-207 160t-287 59q-214 0 -405.5 -100.5t-319 -272.5t-164.5 -378t29.5 -377t222 -271t369.5 -100zM983 1280q107 0 191.5 -29t137 -80.5t84.5 -122.5t35 -154.5
t-12 -176.5q-21 -113 -79.5 -215t-141.5 -177t-190.5 -119t-221.5 -44q-155 0 -266 75t-156 203.5t-18 284.5q27 153 117.5 279.5t227.5 201t292 74.5zM897 1577q46 94 129 94q39 0 114.5 -38t121.5 -38q136 0 243 226l-121 24q-28 -50 -51 -71t-57 -21q-33 0 -109.5 38
t-128.5 38q-155 0 -264 -230z" />
    <glyph glyph-name="Odieresis" unicode="&#xd6;" horiz-adv-x="1703" 
d="M752 -29q147 0 279.5 40.5t233.5 111.5t179.5 166.5t126.5 206t65 229.5q23 152 -10 288.5t-112 237.5t-207 160t-287 59q-214 0 -405.5 -100.5t-319 -272.5t-164.5 -378t29.5 -377t222 -271t369.5 -100zM983 1280q107 0 191.5 -29t137 -80.5t84.5 -122.5t35 -154.5
t-12 -176.5q-21 -113 -79.5 -215t-141.5 -177t-190.5 -119t-221.5 -44q-155 0 -266 75t-156 203.5t-18 284.5q27 153 117.5 279.5t227.5 201t292 74.5zM975 1880q-47 0 -95 -30.5t-59 -98.5q-10 -57 21 -93t88 -36q55 0 100 36.5t55 92.5q9 55 -23 92t-87 37zM1374 1880
q-47 0 -94.5 -30.5t-58.5 -98.5q-10 -57 20.5 -93t87.5 -36q55 0 100.5 36.5t55.5 92.5q9 55 -23.5 92t-87.5 37z" />
    <glyph glyph-name="multiply" unicode="&#xd7;" horiz-adv-x="1327" 
d="M575 719l-432 -367l101 -121l428 367l301 -367l143 123l-299 365l426 362l-98 123l-430 -368l-299 368l-142 -123z" />
    <glyph glyph-name="Oslash" unicode="&#xd8;" horiz-adv-x="1701" 
d="M70 39l88 -92l180 172q161 -148 414 -148q213 0 403.5 101.5t316.5 274t162 378.5q28 149 -1 279.5t-111 230.5l174 168l-88 92l-183 -172q-166 147 -407 147q-214 0 -405.5 -100.5t-319 -272.5t-164.5 -378q-56 -308 111 -512zM397 369q-87 152 -51 348q19 111 75.5 213
t137.5 178.5t186.5 122.5t217.5 47q182 3 309 -109zM1364 1071q90 -154 53 -354q-26 -149 -111.5 -272t-216.5 -198t-282 -81q-181 -6 -315 108z" />
    <glyph glyph-name="Ugrave" unicode="&#xd9;" horiz-adv-x="1456" 
d="M147 590q-25 -133 -10.5 -235t55 -175t108 -120t149 -69t178.5 -22q157 0 278 42t204 124t135 195.5t79 265.5l150 848h-209l-150 -852q-38 -214 -153.5 -321t-298.5 -107q-192 0 -267 107.5t-37 326.5l150 846h-211zM639 1864l221 -265h154l-144 318z" />
    <glyph glyph-name="Uacute" unicode="&#xda;" horiz-adv-x="1456" 
d="M147 590q-25 -133 -10.5 -235t55 -175t108 -120t149 -69t178.5 -22q157 0 278 42t204 124t135 195.5t79 265.5l150 848h-209l-150 -852q-38 -214 -153.5 -321t-298.5 -107q-192 0 -267 107.5t-37 326.5l150 846h-211zM1055 1917l-246 -318h147l314 265z" />
    <glyph glyph-name="Ucircumflex" unicode="&#xdb;" horiz-adv-x="1456" 
d="M147 590q-25 -133 -10.5 -235t55 -175t108 -120t149 -69t178.5 -22q157 0 278 42t204 124t135 195.5t79 265.5l150 848h-209l-150 -852q-38 -214 -153.5 -321t-298.5 -107q-192 0 -267 107.5t-37 326.5l150 846h-211zM1235 1614l-174 305h-160l-283 -305h158l178 162
l125 -162h156z" />
    <glyph glyph-name="Udieresis" unicode="&#xdc;" horiz-adv-x="1456" 
d="M147 590q-25 -133 -10.5 -235t55 -175t108 -120t149 -69t178.5 -22q157 0 278 42t204 124t135 195.5t79 265.5l150 848h-209l-150 -852q-38 -214 -153.5 -321t-298.5 -107q-192 0 -267 107.5t-37 326.5l150 846h-211zM756 1880q-47 0 -95 -30.5t-59 -98.5q-10 -57 21 -93
t88 -36q55 0 100 36.5t55 92.5q9 55 -23 92t-87 37zM1155 1880q-47 0 -95 -30.5t-59 -98.5q-10 -57 21 -93t88 -36q55 0 100.5 36.5t55.5 92.5q9 55 -23.5 92t-87.5 37z" />
    <glyph glyph-name="Yacute" unicode="&#xdd;" horiz-adv-x="1302" 
d="M662 0l100 569l704 873h-235l-535 -678l-299 678h-245l399 -875l-100 -567h211zM975 1917l-246 -318h148l313 265z" />
    <glyph glyph-name="Thorn" unicode="&#xde;" horiz-adv-x="1026" 
d="M313 1446l-254 -1446h201l62 350h131q103 0 193 24t165.5 73t126.5 130.5t70 188.5q14 70 7.5 126t-23.5 100t-50 77t-73 55.5t-91.5 36.5t-106 20.5t-116.5 6.5h-86l45 258h-201zM352 524l86 486h60q37 0 65 -1t62.5 -5t57.5 -11t50 -19t40 -30t27.5 -42.5t12 -57
t-5.5 -74.5q-12 -71 -44.5 -120.5t-82 -76t-105 -38t-124.5 -11.5h-99z" />
    <glyph glyph-name="germandbls" unicode="&#xdf;" horiz-adv-x="1087" 
d="M311 1051q24 129 107.5 218t214.5 89q105 0 158.5 -59.5t35.5 -163.5q-10 -56 -38 -100t-75 -77t-93 -55t-115 -47l-25 -139q85 -13 144 -32.5t103.5 -52t60.5 -83t4 -119.5q-25 -140 -140.5 -209t-290.5 -69l-28 -158q165 -3 303 42t235.5 145t122.5 243
q18 100 -15 182.5t-99.5 132t-155.5 66.5q122 50 204.5 138.5t104.5 213.5q29 168 -72.5 274.5t-291.5 106.5q-119 0 -218 -38.5t-167.5 -106t-112 -154t-61.5 -188.5l-185 -1051h201z" />
    <glyph glyph-name="agrave" unicode="&#xe0;" horiz-adv-x="1144" 
d="M756 256q-126 -123 -299 -123q-110 0 -174.5 51.5t-46.5 149.5q12 67 61.5 114t112.5 67t131 20q138 0 252 -70zM1024 633q22 127 -25.5 218t-143.5 134t-230 43q-192 0 -414 -86l-31 -180q180 96 391 96q137 0 204.5 -49.5t49.5 -157.5l-6 -37q-107 66 -293 66
q-67 0 -129 -10t-123 -34.5t-108.5 -62t-82.5 -95.5t-48 -132q-16 -86 7 -157.5t73 -117t117.5 -70t142.5 -24.5q191 0 350 125l188 -106zM408 1526l221 -264h153l-143 317z" />
    <glyph glyph-name="aacute" unicode="&#xe1;" horiz-adv-x="1144" 
d="M756 256q-126 -123 -299 -123q-110 0 -174.5 51.5t-46.5 149.5q12 67 61.5 114t112.5 67t131 20q138 0 252 -70zM1024 633q22 127 -25.5 218t-143.5 134t-230 43q-192 0 -414 -86l-31 -180q180 96 391 96q137 0 204.5 -49.5t49.5 -157.5l-6 -37q-107 66 -293 66
q-67 0 -129 -10t-123 -34.5t-108.5 -62t-82.5 -95.5t-48 -132q-16 -86 7 -157.5t73 -117t117.5 -70t142.5 -24.5q191 0 350 125l188 -106zM868 1579l-245 -317h147l313 264z" />
    <glyph glyph-name="acircumflex" unicode="&#xe2;" horiz-adv-x="1144" 
d="M756 256q-126 -123 -299 -123q-110 0 -174.5 51.5t-46.5 149.5q12 67 61.5 114t112.5 67t131 20q138 0 252 -70zM1024 633q22 127 -25.5 218t-143.5 134t-230 43q-192 0 -414 -86l-31 -180q180 96 391 96q137 0 204.5 -49.5t49.5 -157.5l-6 -37q-107 66 -293 66
q-67 0 -129 -10t-123 -34.5t-108.5 -62t-82.5 -95.5t-48 -132q-16 -86 7 -157.5t73 -117t117.5 -70t142.5 -24.5q191 0 350 125l188 -106zM983 1276l-174 305h-160l-282 -305h157l178 162l125 -162h156z" />
    <glyph glyph-name="atilde" unicode="&#xe3;" horiz-adv-x="1144" 
d="M756 256q-126 -123 -299 -123q-110 0 -174.5 51.5t-46.5 149.5q12 67 61.5 114t112.5 67t131 20q138 0 252 -70zM1024 633q22 127 -25.5 218t-143.5 134t-230 43q-192 0 -414 -86l-31 -180q180 96 391 96q137 0 204.5 -49.5t49.5 -157.5l-6 -37q-107 66 -293 66
q-67 0 -129 -10t-123 -34.5t-108.5 -62t-82.5 -95.5t-48 -132q-16 -86 7 -157.5t73 -117t117.5 -70t142.5 -24.5q191 0 350 125l188 -106zM477 1239q46 94 129 94q39 0 114.5 -38t121.5 -38q136 0 243 226l-120 24q-28 -50 -51.5 -71t-57.5 -21q-33 0 -109.5 38t-128.5 38
q-155 0 -264 -229z" />
    <glyph glyph-name="adieresis" unicode="&#xe4;" horiz-adv-x="1144" 
d="M756 256q-126 -123 -299 -123q-110 0 -174.5 51.5t-46.5 149.5q12 67 61.5 114t112.5 67t131 20q138 0 252 -70zM1024 633q22 127 -25.5 218t-143.5 134t-230 43q-192 0 -414 -86l-31 -180q180 96 391 96q137 0 204.5 -49.5t49.5 -157.5l-6 -37q-107 66 -293 66
q-67 0 -129 -10t-123 -34.5t-108.5 -62t-82.5 -95.5t-48 -132q-16 -86 7 -157.5t73 -117t117.5 -70t142.5 -24.5q191 0 350 125l188 -106zM563 1524q-46 0 -88 -29t-53 -92q-9 -52 18 -86.5t80 -34.5q50 0 93.5 35.5t52.5 85.5q8 51 -20.5 86t-82.5 35zM950 1524
q-46 0 -88 -29t-53 -92q-9 -52 18 -86.5t80 -34.5q50 0 93.5 35.5t52.5 85.5q8 51 -20.5 86t-82.5 35z" />
    <glyph glyph-name="aring" unicode="&#xe5;" horiz-adv-x="1144" 
d="M756 256q-126 -123 -299 -123q-110 0 -174.5 51.5t-46.5 149.5q12 67 61.5 114t112.5 67t131 20q138 0 252 -70zM1024 633q22 127 -25.5 218t-143.5 134t-230 43q-192 0 -414 -86l-31 -180q180 96 391 96q137 0 204.5 -49.5t49.5 -157.5l-6 -37q-107 66 -293 66
q-67 0 -129 -10t-123 -34.5t-108.5 -62t-82.5 -95.5t-48 -132q-16 -86 7 -157.5t73 -117t117.5 -70t142.5 -24.5q191 0 350 125l188 -106zM698 1212q95 0 166 57.5t88 149.5q17 90 -35.5 152.5t-142.5 62.5q-91 0 -163 -61t-89 -152q-15 -88 37.5 -148.5t138.5 -60.5z
M758 1528q38 0 66.5 -24.5t19.5 -82.5q-6 -44 -40 -73t-83 -29q-46 0 -71.5 28t-16.5 76q6 43 43.5 74t81.5 31z" />
    <glyph glyph-name="ae" unicode="&#xe6;" horiz-adv-x="1855" 
d="M1651 291q-96 -82 -181.5 -116t-199.5 -34q-118 0 -187 56t-90 153l795 187q8 102 -13.5 190.5t-69.5 157t-130 108t-189 39.5q-234 0 -397 -178q-44 81 -134 126.5t-222 45.5q-93 0 -210.5 -22t-219.5 -62l-31 -180q176 96 391 96q138 0 205.5 -49.5t48.5 -157.5l-6 -37
q-107 66 -293 66q-83 0 -157.5 -17t-142.5 -53t-117 -101t-70 -153q-21 -86 0.5 -159t74 -120t125.5 -73.5t156 -26.5q124 0 251 45t228 132q58 -92 157.5 -136.5t223.5 -42.5q200 0 369 115zM748 256q-126 -123 -299 -123q-110 0 -175 51.5t-47 149.5q12 67 62 114
t113.5 67t132.5 20q135 0 249 -70zM1001 514q17 93 63.5 171t123.5 128.5t170 50.5q107 0 171 -59.5t75 -155.5z" />
    <glyph glyph-name="ccedilla" unicode="&#xe7;" horiz-adv-x="964" 
d="M936 954q-89 74 -256 74q-115 0 -221.5 -42t-187 -113.5t-136 -167.5t-74.5 -203q-25 -146 20.5 -265.5t151 -188t248.5 -68.5q155 0 307 81l39 215q-138 -122 -292 -122q-139 0 -216 105.5t-51 252.5q26 149 135.5 246.5t249.5 97.5q153 0 244 -123zM410 -143l110 143
h-135l-160 -188l33 -31q46 16 74 16q38 0 56.5 -15.5t12.5 -45.5q-6 -31 -32.5 -52.5t-55 -28.5t-55.5 -7q-51 0 -102 22l-45 -88q81 -43 170 -43q58 0 114.5 16t105 58.5t60.5 103.5q12 74 -32.5 107t-110.5 33h-8z" />
    <glyph glyph-name="egrave" unicode="&#xe8;" horiz-adv-x="1118" 
d="M911 291q-90 -77 -190 -113.5t-191 -36.5q-118 0 -186.5 56t-89.5 153l795 187q8 102 -13.5 190.5t-69.5 157t-130 108t-189 39.5q-217 0 -381.5 -151.5t-204.5 -380.5q-26 -150 21 -270.5t155 -187.5t257 -67q104 0 204.5 31t178.5 84zM262 516q16 90 61.5 167.5
t123 129t169.5 51.5q107 0 172 -60t74 -155l-596 -147zM309 1526l221 -264h154l-143 317z" />
    <glyph glyph-name="eacute" unicode="&#xe9;" horiz-adv-x="1118" 
d="M911 291q-90 -77 -190 -113.5t-191 -36.5q-118 0 -186.5 56t-89.5 153l795 187q8 102 -13.5 190.5t-69.5 157t-130 108t-189 39.5q-217 0 -381.5 -151.5t-204.5 -380.5q-26 -150 21 -270.5t155 -187.5t257 -67q104 0 204.5 31t178.5 84zM262 516q16 90 61.5 167.5
t123 129t169.5 51.5q107 0 172 -60t74 -155l-596 -147zM852 1579l-246 -317h148l313 264z" />
    <glyph glyph-name="ecircumflex" unicode="&#xea;" horiz-adv-x="1118" 
d="M911 291q-90 -77 -190 -113.5t-191 -36.5q-118 0 -186.5 56t-89.5 153l795 187q8 102 -13.5 190.5t-69.5 157t-130 108t-189 39.5q-217 0 -381.5 -151.5t-204.5 -380.5q-26 -150 21 -270.5t155 -187.5t257 -67q104 0 204.5 31t178.5 84zM262 516q16 90 61.5 167.5
t123 129t169.5 51.5q107 0 172 -60t74 -155l-596 -147zM1028 1276l-174 305h-160l-282 -305h157l179 162l124 -162h156z" />
    <glyph glyph-name="edieresis" unicode="&#xeb;" horiz-adv-x="1118" 
d="M911 291q-90 -77 -190 -113.5t-191 -36.5q-118 0 -186.5 56t-89.5 153l795 187q8 102 -13.5 190.5t-69.5 157t-130 108t-189 39.5q-217 0 -381.5 -151.5t-204.5 -380.5q-26 -150 21 -270.5t155 -187.5t257 -67q104 0 204.5 31t178.5 84zM262 516q16 90 61.5 167.5
t123 129t169.5 51.5q107 0 172 -60t74 -155l-596 -147zM551 1524q-46 0 -88 -29t-53 -92q-9 -52 18 -86.5t80 -34.5q50 0 93 35.5t52 85.5q8 51 -20 86t-82 35zM938 1524q-46 0 -88 -29t-53 -92q-9 -52 18 -86.5t80 -34.5q50 0 93 35.5t52 85.5q8 51 -20 86t-82 35z" />
    <glyph glyph-name="igrave" unicode="&#xec;" horiz-adv-x="448" 
d="M221 0l178 1008h-204l-179 -1008h205zM49 1526l221 -264h154l-143 317z" />
    <glyph glyph-name="iacute" unicode="&#xed;" horiz-adv-x="452" 
d="M178 0l178 1008h-204l-179 -1008h205zM461 1579l-246 -317h147l314 264z" />
    <glyph glyph-name="icircumflex" unicode="&#xee;" horiz-adv-x="471" 
d="M240 0l178 1008h-205l-178 -1008h205zM672 1276l-174 305h-160l-283 -305h158l178 162l125 -162h156z" />
    <glyph glyph-name="idieresis" unicode="&#xef;" horiz-adv-x="501" 
d="M254 0l178 1008h-205l-178 -1008h205zM233 1524q-46 0 -88 -29t-53 -92q-9 -52 18 -86.5t80 -34.5q50 0 93.5 35.5t52.5 85.5q8 51 -20.5 86t-82.5 35zM621 1524q-47 0 -89 -29t-53 -92q-9 -52 18.5 -86.5t80.5 -34.5q50 0 93 35.5t52 85.5q8 51 -20 86t-82 35z" />
    <glyph glyph-name="eth" unicode="&#xf0;" horiz-adv-x="1112" 
d="M356 1497q124 -88 199 -168l-272 -160l67 -86l279 164q185 -205 231 -422q-21 21 -34.5 32.5t-47 33t-78 32.5t-98.5 11q-99 0 -193 -39t-166 -104t-122.5 -152.5t-67.5 -181.5q-17 -101 6.5 -191t78.5 -153t138 -99.5t181 -36.5q68 0 138 18.5t141 60t129.5 101t104 149
t64.5 196.5q14 78 15.5 153.5t-9.5 142t-25.5 125t-40.5 113.5t-47 95.5t-52 84t-48.5 66.5t-42.5 53l279 164l-68 84l-286 -168q-55 57 -98.5 92.5t-123.5 89.5zM465 180q-67 7 -113.5 36.5t-65 72.5t-21 96.5t17.5 108.5q35 117 131.5 186t208.5 57q115 -12 163.5 -105
t16.5 -206q-34 -118 -129 -188t-209 -58z" />
    <glyph glyph-name="ntilde" unicode="&#xf1;" horiz-adv-x="1142" 
d="M1038 639q19 108 -5 195t-97 141.5t-188 54.5q-198 0 -351 -153l-184 131l-178 -1008h205l102 578q11 60 35.5 107.5t55 77.5t68 50.5t72.5 28.5t70 8q95 0 149.5 -65t30.5 -207l-102 -578h205zM494 1239q46 94 129 94q39 0 114 -38t121 -38q137 0 244 226l-121 24
q-28 -50 -51.5 -71t-57.5 -21q-33 0 -109 38t-128 38q-155 0 -264 -229z" />
    <glyph glyph-name="ograve" unicode="&#xf2;" horiz-adv-x="1224" 
d="M508 -23q173 0 312 72.5t221 190.5t108 266q25 145 -24 265.5t-162 190.5t-267 70q-153 0 -290 -70.5t-228 -192t-117 -267.5q-25 -145 23 -265t159.5 -190t264.5 -70zM664 860q168 0 238.5 -99.5t39.5 -256.5q-28 -145 -142.5 -248.5t-258.5 -103.5q-143 0 -222 102
t-51 252q25 151 135.5 252.5t260.5 101.5zM416 1526l221 -264h154l-144 317z" />
    <glyph glyph-name="oacute" unicode="&#xf3;" horiz-adv-x="1224" 
d="M508 -23q173 0 312 72.5t221 190.5t108 266q25 145 -24 265.5t-162 190.5t-267 70q-153 0 -290 -70.5t-228 -192t-117 -267.5q-25 -145 23 -265t159.5 -190t264.5 -70zM664 860q168 0 238.5 -99.5t39.5 -256.5q-28 -145 -142.5 -248.5t-258.5 -103.5q-143 0 -222 102
t-51 252q25 151 135.5 252.5t260.5 101.5zM932 1579l-246 -317h148l313 264z" />
    <glyph glyph-name="ocircumflex" unicode="&#xf4;" horiz-adv-x="1224" 
d="M508 -23q173 0 312 72.5t221 190.5t108 266q25 145 -24 265.5t-162 190.5t-267 70q-153 0 -290 -70.5t-228 -192t-117 -267.5q-25 -145 23 -265t159.5 -190t264.5 -70zM664 860q168 0 238.5 -99.5t39.5 -256.5q-28 -145 -142.5 -248.5t-258.5 -103.5q-143 0 -222 102
t-51 252q25 151 135.5 252.5t260.5 101.5zM1067 1276l-174 305h-160l-282 -305h157l178 162l125 -162h156z" />
    <glyph glyph-name="otilde" unicode="&#xf5;" horiz-adv-x="1224" 
d="M508 -23q173 0 312 72.5t221 190.5t108 266q25 145 -24 265.5t-162 190.5t-267 70q-153 0 -290 -70.5t-228 -192t-117 -267.5q-25 -145 23 -265t159.5 -190t264.5 -70zM664 860q168 0 238.5 -99.5t39.5 -256.5q-28 -145 -142.5 -248.5t-258.5 -103.5q-143 0 -222 102
t-51 252q25 151 135.5 252.5t260.5 101.5zM547 1239q46 94 129 94q39 0 114 -38t121 -38q137 0 244 226l-121 24q-28 -50 -51 -71t-57 -21q-33 0 -109.5 38t-128.5 38q-155 0 -264 -229z" />
    <glyph glyph-name="odieresis" unicode="&#xf6;" horiz-adv-x="1224" 
d="M508 -23q173 0 312 72.5t221 190.5t108 266q25 145 -24 265.5t-162 190.5t-267 70q-153 0 -290 -70.5t-228 -192t-117 -267.5q-25 -145 23 -265t159.5 -190t264.5 -70zM664 860q168 0 238.5 -99.5t39.5 -256.5q-28 -145 -142.5 -248.5t-258.5 -103.5q-143 0 -222 102
t-51 252q25 151 135.5 252.5t260.5 101.5zM670 1524q-47 0 -89 -29t-53 -92q-9 -52 18.5 -86.5t80.5 -34.5q50 0 93 35.5t52 85.5q8 51 -20 86t-82 35zM1057 1524q-47 0 -89 -29t-53 -92q-9 -52 18.5 -86.5t80.5 -34.5q50 0 93 35.5t52 85.5q8 51 -20 86t-82 35z" />
    <glyph glyph-name="divide" unicode="&#xf7;" horiz-adv-x="1265" 
d="M1176 649l26 148h-1048l-27 -148h1049zM698 928q60 0 98 32.5t50 90.5q10 54 -19 87t-86 33q-56 0 -96 -33t-49 -87q-9 -51 19.5 -87t82.5 -36zM584 276q121 0 147 123q11 54 -18 87.5t-86 33.5q-55 0 -95 -33.5t-51 -87.5q-8 -51 20.5 -87t82.5 -36z" />
    <glyph glyph-name="oslash" unicode="&#xf8;" horiz-adv-x="1173" 
d="M899 696q40 -91 21 -200q-28 -154 -140 -255.5t-264 -101.5q-108 0 -182 62zM270 291q-43 76 -18 205q27 152 136 253t259 101q117 0 184 -64zM-55 6l73 -90l177 160q113 -101 297 -101q230 0 408 149t218 372q34 188 -61 338l131 122l-70 86l-143 -124q-101 96 -301 96
q-230 0 -405 -149t-214 -369q-35 -187 60 -340z" />
    <glyph glyph-name="ugrave" unicode="&#xf9;" horiz-adv-x="1128" 
d="M94 391q-9 -50 -9 -97t8 -94t29.5 -86t54.5 -69.5t85.5 -47.5t118.5 -17q198 0 348 147l184 -131l179 1014h-205l-103 -578q-13 -74 -45.5 -129t-76 -85t-88 -44t-89.5 -14q-37 0 -66 6.5t-57.5 24.5t-42.5 48.5t-21 78t7 114.5l103 578h-205zM393 1526l221 -264h154
l-143 317z" />
    <glyph glyph-name="uacute" unicode="&#xfa;" horiz-adv-x="1128" 
d="M94 391q-9 -50 -9 -97t8 -94t29.5 -86t54.5 -69.5t85.5 -47.5t118.5 -17q198 0 348 147l184 -131l179 1014h-205l-103 -578q-13 -74 -45.5 -129t-76 -85t-88 -44t-89.5 -14q-37 0 -66 6.5t-57.5 24.5t-42.5 48.5t-21 78t7 114.5l103 578h-205zM862 1579l-246 -317h148
l313 264z" />
    <glyph glyph-name="ucircumflex" unicode="&#xfb;" horiz-adv-x="1128" 
d="M94 391q-9 -50 -9 -97t8 -94t29.5 -86t54.5 -69.5t85.5 -47.5t118.5 -17q198 0 348 147l184 -131l179 1014h-205l-103 -578q-13 -74 -45.5 -129t-76 -85t-88 -44t-89.5 -14q-37 0 -66 6.5t-57.5 24.5t-42.5 48.5t-21 78t7 114.5l103 578h-205zM1008 1276l-174 305h-160
l-283 -305h158l178 162l125 -162h156z" />
    <glyph glyph-name="udieresis" unicode="&#xfc;" horiz-adv-x="1128" 
d="M94 391q-9 -50 -9 -97t8 -94t29.5 -86t54.5 -69.5t85.5 -47.5t118.5 -17q198 0 348 147l184 -131l179 1014h-205l-103 -578q-13 -74 -45.5 -129t-76 -85t-88 -44t-89.5 -14q-37 0 -66 6.5t-57.5 24.5t-42.5 48.5t-21 78t7 114.5l103 578h-205zM551 1524q-46 0 -88 -29
t-53 -92q-9 -52 18 -86.5t80 -34.5q50 0 93 35.5t52 85.5q8 51 -20 86t-82 35zM938 1524q-46 0 -88 -29t-53 -92q-9 -52 18 -86.5t80 -34.5q50 0 93 35.5t52 85.5q8 51 -20 86t-82 35z" />
    <glyph glyph-name="yacute" unicode="&#xfd;" horiz-adv-x="1024" 
d="M72 1006l270 -1008l-209 -373h189l790 1381h-213l-426 -773l-182 773h-219zM817 1579l-246 -317h148l313 264z" />
    <glyph glyph-name="thorn" unicode="&#xfe;" horiz-adv-x="1132" 
d="M301 467q23 123 114.5 213t211.5 90q127 0 189 -88.5t40 -216.5q-29 -166 -120 -245.5t-216 -74.5q-125 0 -183.5 95.5t-35.5 226.5zM315 1583l-366 -2081h190l84 471l25 152h6q38 -69 107 -108t157 -40q42 -3 94 7q168 29 287.5 162.5t149.5 310.5q21 113 -3.5 213.5
t-94 171.5t-173.5 90q-29 6 -90 6q-182 -9 -319 -152h-4q16 107 36 203q5 29 15.5 86.5t15.5 85.5l74 422h-191z" />
    <glyph glyph-name="ydieresis" unicode="&#xff;" horiz-adv-x="1024" 
d="M72 1006l270 -1008l-209 -373h189l790 1381h-213l-426 -773l-182 773h-219zM506 1524q-46 0 -88 -29t-53 -92q-9 -52 18 -86.5t80 -34.5q50 0 93 35.5t52 85.5q8 51 -20 86t-82 35zM893 1524q-46 0 -88 -29t-53 -92q-9 -52 18 -86.5t80 -34.5q50 0 93 35.5t52 85.5
q8 51 -20 86t-82 35z" />
    <glyph glyph-name="Amacron" unicode="&#x100;" horiz-adv-x="1417" 
d="M348 379h662l92 -379h231l-377 1444h-182l-883 -1444h226zM453 559l368 637l146 -637h-514zM1210 1579l25 137h-641l-25 -137h641z" />
    <glyph glyph-name="amacron" unicode="&#x101;" horiz-adv-x="1144" 
d="M756 256q-126 -123 -299 -123q-110 0 -174.5 51.5t-46.5 149.5q12 67 61.5 114t112.5 67t131 20q138 0 252 -70zM1024 633q22 127 -25.5 218t-143.5 134t-230 43q-192 0 -414 -86l-31 -180q180 96 391 96q137 0 204.5 -49.5t49.5 -157.5l-6 -37q-107 66 -293 66
q-67 0 -129 -10t-123 -34.5t-108.5 -62t-82.5 -95.5t-48 -132q-16 -86 7 -157.5t73 -117t117.5 -70t142.5 -24.5q191 0 350 125l188 -106zM997 1241l25 137h-641l-25 -137h641z" />
    <glyph glyph-name="Abreve" unicode="&#x102;" horiz-adv-x="1417" 
d="M348 379h662l92 -379h231l-377 1444h-182l-883 -1444h226zM453 559l368 637l146 -637h-514zM1124 1862q-31 -72 -85.5 -110t-123.5 -38q-72 0 -113.5 38t-47.5 110h-129q-6 -137 62.5 -219t195.5 -82q129 0 231 83t137 218h-127z" />
    <glyph glyph-name="abreve" unicode="&#x103;" horiz-adv-x="1144" 
d="M756 256q-126 -123 -299 -123q-110 0 -174.5 51.5t-46.5 149.5q12 67 61.5 114t112.5 67t131 20q138 0 252 -70zM1024 633q22 127 -25.5 218t-143.5 134t-230 43q-192 0 -414 -86l-31 -180q180 96 391 96q137 0 204.5 -49.5t49.5 -157.5l-6 -37q-107 66 -293 66
q-67 0 -129 -10t-123 -34.5t-108.5 -62t-82.5 -95.5t-48 -132q-16 -86 7 -157.5t73 -117t117.5 -70t142.5 -24.5q191 0 350 125l188 -106zM952 1524q-31 -72 -85.5 -110t-123.5 -38q-72 0 -113.5 38t-47.5 110h-129q-6 -137 62.5 -219t195.5 -82q129 0 231 83t137 218h-127z
" />
    <glyph glyph-name="Aogonek" unicode="&#x104;" horiz-adv-x="1417" 
d="M348 379h662l92 -379h231l-377 1444h-182l-883 -1444h226zM453 559l368 637l146 -637h-514zM1309 -279q-55 -18 -99 -18q-49 0 -73.5 28.5t-16.5 73.5q7 41 33.5 79.5t93.5 115.5h-145q-42 -45 -63 -69t-48 -68.5t-33 -83.5q-17 -91 39.5 -144t159.5 -53q75 0 158 35z
" />
    <glyph glyph-name="aogonek" unicode="&#x105;" horiz-adv-x="1144" 
d="M756 256q-126 -123 -299 -123q-110 0 -174.5 51.5t-46.5 149.5q12 67 61.5 114t112.5 67t131 20q138 0 252 -70zM1024 633q22 127 -25.5 218t-143.5 134t-230 43q-192 0 -414 -86l-31 -180q180 96 391 96q137 0 204.5 -49.5t49.5 -157.5l-6 -37q-107 66 -293 66
q-67 0 -129 -10t-123 -34.5t-108.5 -62t-82.5 -95.5t-48 -132q-16 -86 7 -157.5t73 -117t117.5 -70t142.5 -24.5q191 0 350 125l188 -106zM975 -279q-55 -18 -98 -18q-52 0 -74.5 31t-14.5 78q6 36 35 77t90 107l-84 67q-96 -86 -144 -151t-60 -127q-15 -92 41 -147.5
t157 -55.5q75 0 158 35z" />
    <glyph glyph-name="Cacute" unicode="&#x106;" horiz-adv-x="1431" 
d="M1288 383q-141 -108 -257 -163.5t-255 -55.5q-153 0 -261 74.5t-151 201.5t-16 281q20 114 77 216.5t138.5 178t188 120t221.5 44.5q151 0 248.5 -49t164.5 -141l41 231q-169 149 -415 149q-212 0 -401.5 -99.5t-316 -271.5t-163.5 -380q-28 -156 4.5 -295t113.5 -238.5
t208.5 -157t281.5 -57.5q144 0 265 46t243 135zM1219 1917l-246 -318h147l314 265z" />
    <glyph glyph-name="cacute" unicode="&#x107;" horiz-adv-x="978" 
d="M936 954q-89 74 -256 74q-115 0 -221.5 -42t-187 -113.5t-136 -167.5t-74.5 -203q-25 -146 20.5 -265.5t151 -188t248.5 -68.5q155 0 307 81l39 215q-138 -122 -292 -122q-139 0 -216 105.5t-51 252.5q26 149 135.5 246.5t249.5 97.5q153 0 244 -123zM846 1579l-246 -317
h148l313 264z" />
    <glyph glyph-name="Ccircumflex" unicode="&#x108;" horiz-adv-x="1431" 
d="M1288 383q-141 -108 -257 -163.5t-255 -55.5q-153 0 -261 74.5t-151 201.5t-16 281q20 114 77 216.5t138.5 178t188 120t221.5 44.5q151 0 248.5 -49t164.5 -141l41 231q-169 149 -415 149q-212 0 -401.5 -99.5t-316 -271.5t-163.5 -380q-28 -156 4.5 -295t113.5 -238.5
t208.5 -157t281.5 -57.5q144 0 265 46t243 135zM1354 1614l-174 305h-160l-283 -305h158l178 162l125 -162h156z" />
    <glyph glyph-name="ccircumflex" unicode="&#x109;" horiz-adv-x="964" 
d="M936 954q-89 74 -256 74q-115 0 -221.5 -42t-187 -113.5t-136 -167.5t-74.5 -203q-25 -146 20.5 -265.5t151 -188t248.5 -68.5q155 0 307 81l39 215q-138 -122 -292 -122q-139 0 -216 105.5t-51 252.5q26 149 135.5 246.5t249.5 97.5q153 0 244 -123zM1004 1276l-175 305
h-159l-283 -305h158l178 162l125 -162h156z" />
    <glyph glyph-name="Cdotaccent" unicode="&#x10a;" horiz-adv-x="1431" 
d="M1288 383q-141 -108 -257 -163.5t-255 -55.5q-153 0 -261 74.5t-151 201.5t-16 281q20 114 77 216.5t138.5 178t188 120t221.5 44.5q151 0 248.5 -49t164.5 -141l41 231q-169 149 -415 149q-212 0 -401.5 -99.5t-316 -271.5t-163.5 -380q-28 -156 4.5 -295t113.5 -238.5
t208.5 -157t281.5 -57.5q144 0 265 46t243 135zM1051 1864q-23 0 -47 -6t-49 -20t-43 -42t-23 -67q-9 -57 24.5 -96.5t90.5 -39.5q59 0 105.5 39t57.5 97q10 61 -22.5 98t-93.5 37z" />
    <glyph glyph-name="cdotaccent" unicode="&#x10b;" horiz-adv-x="909" 
d="M932 954q-89 74 -256 74q-115 0 -221.5 -42t-187 -113.5t-136 -167.5t-74.5 -203q-25 -146 20.5 -265.5t151 -188t248.5 -68.5q155 0 307 81l39 215q-138 -122 -293 -122q-138 0 -215 105.5t-51 252.5q26 149 135.5 246.5t249.5 97.5q153 0 244 -123zM768 1526
q-23 0 -47 -6t-49 -20t-43 -42t-23 -67q-9 -57 24.5 -96.5t90.5 -39.5q60 0 106.5 39.5t57.5 96.5q10 61 -23 98t-94 37z" />
    <glyph glyph-name="Ccaron" unicode="&#x10c;" horiz-adv-x="1431" 
d="M1288 383q-141 -108 -257 -163.5t-255 -55.5q-153 0 -261 74.5t-151 201.5t-16 281q20 114 77 216.5t138.5 178t188 120t221.5 44.5q151 0 248.5 -49t164.5 -141l41 231q-169 149 -415 149q-212 0 -401.5 -99.5t-316 -271.5t-163.5 -380q-28 -156 4.5 -295t113.5 -238.5
t208.5 -157t281.5 -57.5q144 0 265 46t243 135zM1415 1888h-168l-182 -168l-121 168h-170l184 -309h162z" />
    <glyph glyph-name="ccaron" unicode="&#x10d;" horiz-adv-x="964" 
d="M936 954q-89 74 -256 74q-115 0 -221.5 -42t-187 -113.5t-136 -167.5t-74.5 -203q-25 -146 20.5 -265.5t151 -188t248.5 -68.5q155 0 307 81l39 215q-138 -122 -292 -122q-139 0 -216 105.5t-51 252.5q26 149 135.5 246.5t249.5 97.5q153 0 244 -123zM1087 1544h-167
l-183 -168l-121 168h-170l185 -309h162z" />
    <glyph glyph-name="Dcaron" unicode="&#x10e;" horiz-adv-x="1503" 
d="M313 1442l-254 -1442h467q233 0 427.5 92.5t319 256.5t161.5 374q38 213 -33 377.5t-232 253t-385 88.5h-471zM305 188l189 1063h331q75 0 139 -21t108.5 -58.5t78.5 -88.5t49.5 -110t20 -124t-8.5 -130q-42 -238 -217 -384.5t-440 -146.5h-250zM1241 1888h-168
l-182 -168l-121 168h-170l184 -309h162z" />
    <glyph glyph-name="dcaron" unicode="&#x10f;" horiz-adv-x="1239" 
d="M1034 -2l264 1501h-204l-117 -657q-101 190 -336 190q-203 0 -370.5 -146.5t-209.5 -381.5q-20 -118 1.5 -217.5t76.5 -166t137.5 -103.5t182.5 -37q114 0 204 45t177 131zM526 154q-83 0 -142.5 28.5t-87 76.5t-36.5 112t8 135q30 155 140 253.5t243 98.5
q136 0 218.5 -101.5t56.5 -250.5q-27 -151 -144 -251.5t-256 -100.5zM1460 1210l172 367h-184l-129 -367h141z" />
    <glyph glyph-name="Dcroat" unicode="&#x110;" horiz-adv-x="1566" 
d="M377 1442l-254 -1442h467q175 0 330.5 54t272 149t195.5 229t107 291q29 160 -5.5 295t-120.5 227.5t-220.5 144.5t-302.5 52h-469zM367 188l188 1063h332q75 0 139 -21t108.5 -58.5t78.5 -88.5t49.5 -110t20 -124t-8.5 -130q-42 -238 -217.5 -384.5t-440.5 -146.5h-249z
M618 629l33 188h-573l-33 -188h573z" />
    <glyph glyph-name="dcroat" unicode="&#x111;" horiz-adv-x="1226" 
d="M1034 -2l264 1501h-204l-117 -657q-101 190 -336 190q-203 0 -370.5 -146.5t-209.5 -381.5q-20 -118 1.5 -217.5t76.5 -166t137.5 -103.5t182.5 -37q115 0 204 45t177 131zM526 154q-83 0 -140.5 29t-83.5 78t-35.5 112.5t3.5 132.5q24 154 135.5 253t245.5 99
q136 0 218.5 -101.5t56.5 -250.5q-27 -152 -143.5 -252t-256.5 -100zM1350 1182l32 188h-573l-33 -188h574z" />
    <glyph glyph-name="Emacron" unicode="&#x112;" horiz-adv-x="1286" 
d="M305 186l80 457h705l32 180h-704l76 432h766l32 187h-979l-254 -1442h1000l33 186h-787zM1153 1579l25 137h-641l-25 -137h641z" />
    <glyph glyph-name="emacron" unicode="&#x113;" horiz-adv-x="1118" 
d="M911 291q-90 -77 -190 -113.5t-191 -36.5q-118 0 -186.5 56t-89.5 153l795 187q8 102 -13.5 190.5t-69.5 157t-130 108t-189 39.5q-217 0 -381.5 -151.5t-204.5 -380.5q-26 -150 21 -270.5t155 -187.5t257 -67q104 0 204.5 31t178.5 84zM262 516q16 90 61.5 167.5
t123 129t169.5 51.5q107 0 172 -60t74 -155l-596 -147zM997 1241l25 137h-641l-25 -137h641z" />
    <glyph glyph-name="Ebreve" unicode="&#x114;" horiz-adv-x="1286" 
d="M305 186l80 457h705l32 180h-704l76 432h766l32 187h-979l-254 -1442h1000l33 186h-787zM1098 1862q-31 -72 -85.5 -110t-123.5 -38q-72 0 -114 38t-48 110h-129q-6 -137 62.5 -219t195.5 -82q129 0 231.5 83t137.5 218h-127z" />
    <glyph glyph-name="ebreve" unicode="&#x115;" horiz-adv-x="1118" 
d="M911 291q-90 -77 -190 -113.5t-191 -36.5q-118 0 -186.5 56t-89.5 153l795 187q8 102 -13.5 190.5t-69.5 157t-130 108t-189 39.5q-217 0 -381.5 -151.5t-204.5 -380.5q-26 -150 21 -270.5t155 -187.5t257 -67q104 0 204.5 31t178.5 84zM262 516q16 90 61.5 167.5
t123 129t169.5 51.5q107 0 172 -60t74 -155l-596 -147zM936 1524q-31 -72 -85.5 -110t-123.5 -38q-72 0 -114 38t-48 110h-129q-6 -137 62.5 -219t195.5 -82q129 0 231.5 83t137.5 218h-127z" />
    <glyph glyph-name="Edotaccent" unicode="&#x116;" horiz-adv-x="1286" 
d="M305 186l80 457h705l32 180h-704l76 432h766l32 187h-979l-254 -1442h1000l33 186h-787zM905 1864q-23 0 -47 -6t-49 -20t-43 -42t-23 -67q-9 -57 24.5 -96.5t90.5 -39.5q60 0 106.5 39.5t57.5 96.5q10 61 -23 98t-94 37z" />
    <glyph glyph-name="edotaccent" unicode="&#x117;" horiz-adv-x="1118" 
d="M911 291q-90 -77 -190 -113.5t-191 -36.5q-118 0 -186.5 56t-89.5 153l795 187q8 102 -13.5 190.5t-69.5 157t-130 108t-189 39.5q-217 0 -381.5 -151.5t-204.5 -380.5q-26 -150 21 -270.5t155 -187.5t257 -67q104 0 204.5 31t178.5 84zM262 516q16 90 61.5 167.5
t123 129t169.5 51.5q107 0 172 -60t74 -155l-596 -147zM743 1526q-33 0 -64 -10t-61 -42.5t-36 -82.5q-9 -57 24 -96.5t90 -39.5q60 0 106.5 39.5t57.5 96.5q10 61 -23 98t-94 37z" />
    <glyph glyph-name="Eogonek" unicode="&#x118;" horiz-adv-x="1286" 
d="M305 186l80 457h705l32 180h-704l76 432h766l32 187h-979l-254 -1442h1000l33 186h-787zM1120 -279q-55 -18 -98 -18q-49 0 -73.5 28.5t-16.5 73.5q7 41 33.5 79.5t93.5 115.5h-146q-41 -44 -62.5 -69t-48 -69t-32.5 -83q-17 -91 39.5 -144t159.5 -53q74 0 157 35z" />
    <glyph glyph-name="eogonek" unicode="&#x119;" horiz-adv-x="1118" 
d="M911 291q-90 -77 -190 -113.5t-191 -36.5q-118 0 -186.5 56t-89.5 153l795 187q8 102 -13.5 190.5t-69.5 157t-130 108t-189 39.5q-217 0 -381.5 -151.5t-204.5 -380.5q-26 -150 21 -270.5t155 -187.5t257 -67q104 0 204.5 31t178.5 84zM262 516q16 90 61.5 167.5
t123 129t169.5 51.5q107 0 172 -60t74 -155l-596 -147zM813 -276q-58 -19 -98 -19q-49 0 -73.5 28.5t-16.5 76.5q22 110 254 282l-273 -90q-121 -102 -143 -221q-17 -91 39.5 -144t159.5 -53q74 0 157 35z" />
    <glyph glyph-name="Ecaron" unicode="&#x11a;" horiz-adv-x="1286" 
d="M305 186l80 457h705l32 180h-704l76 432h766l32 187h-979l-254 -1442h1000l33 186h-787zM1227 1888h-168l-182 -168l-121 168h-170l184 -309h162z" />
    <glyph glyph-name="ecaron" unicode="&#x11b;" horiz-adv-x="1118" 
d="M911 291q-90 -77 -190 -113.5t-191 -36.5q-118 0 -186.5 56t-89.5 153l795 187q8 102 -13.5 190.5t-69.5 157t-130 108t-189 39.5q-217 0 -381.5 -151.5t-204.5 -380.5q-26 -150 21 -270.5t155 -187.5t257 -67q104 0 204.5 31t178.5 84zM262 516q16 90 61.5 167.5
t123 129t169.5 51.5q107 0 172 -60t74 -155l-596 -147zM1061 1544h-168l-182 -168l-121 168h-170l184 -309h162z" />
    <glyph glyph-name="Gcircumflex" unicode="&#x11c;" horiz-adv-x="1677" 
d="M1395 639q-25 -144 -113 -254.5t-214.5 -168.5t-270.5 -58q-154 0 -268 73t-163.5 202t-21.5 288q26 149 127.5 278.5t249 206t303.5 76.5q266 0 412 -176l41 231q-170 133 -433 133q-214 0 -411 -99.5t-331.5 -271.5t-170.5 -378q-37 -208 29.5 -380.5t221.5 -273
t368 -100.5q175 0 324 59t257.5 165.5t181.5 251.5t103 319l10 59h-606l-33 -182h408zM1411 1614l-174 305h-160l-282 -305h157l178 162l125 -162h156z" />
    <glyph glyph-name="gcircumflex" unicode="&#x11d;" horiz-adv-x="1275" 
d="M551 219q-159 0 -225.5 91t-38.5 233q26 141 130.5 230t244.5 89q141 0 220.5 -91t53.5 -232q-24 -138 -135.5 -229t-249.5 -91zM864 131q-56 -352 -434 -352q-227 0 -387 141l-37 -205q169 -102 395 -102q261 0 442 137t226 391l154 867l-248 -142q-115 166 -328 166
q-131 0 -251.5 -61t-207 -175.5t-112.5 -260.5q-36 -212 77.5 -349t319.5 -137q219 0 412 193zM1042 1276l-174 305h-159l-283 -305h158l178 162l125 -162h155z" />
    <glyph glyph-name="Gbreve" unicode="&#x11e;" horiz-adv-x="1677" 
d="M1395 639q-25 -144 -113 -254.5t-214.5 -168.5t-270.5 -58q-154 0 -268 73t-163.5 202t-21.5 288q26 149 127.5 278.5t249 206t303.5 76.5q266 0 412 -176l41 231q-170 133 -433 133q-214 0 -411 -99.5t-331.5 -271.5t-170.5 -378q-37 -208 29.5 -380.5t221.5 -273
t368 -100.5q175 0 324 59t257.5 165.5t181.5 251.5t103 319l10 59h-606l-33 -182h408zM1343 1862q-31 -72 -85 -110t-123 -38q-72 0 -114 38t-48 110h-129q-6 -137 62.5 -219t195.5 -82q129 0 231 83t137 218h-127z" />
    <glyph glyph-name="gbreve" unicode="&#x11f;" horiz-adv-x="1275" 
d="M551 219q-159 0 -225.5 91t-38.5 233q26 141 130.5 230t244.5 89q141 0 220.5 -91t53.5 -232q-24 -138 -135.5 -229t-249.5 -91zM864 131q-56 -352 -434 -352q-227 0 -387 141l-37 -205q169 -102 395 -102q261 0 442 137t226 391l154 867l-248 -142q-115 166 -328 166
q-131 0 -251.5 -61t-207 -175.5t-112.5 -260.5q-36 -212 77.5 -349t319.5 -137q219 0 412 193zM1026 1524q-31 -72 -85.5 -110t-123.5 -38q-72 0 -114 38t-48 110h-129q-6 -137 62.5 -219t195.5 -82q129 0 231.5 83t137.5 218h-127z" />
    <glyph glyph-name="Gdotaccent" unicode="&#x120;" horiz-adv-x="1677" 
d="M1395 639q-25 -144 -113 -254.5t-214.5 -168.5t-270.5 -58q-154 0 -268 73t-163.5 202t-21.5 288q26 149 127.5 278.5t249 206t303.5 76.5q266 0 412 -176l41 231q-170 133 -433 133q-214 0 -411 -99.5t-331.5 -271.5t-170.5 -378q-37 -208 29.5 -380.5t221.5 -273
t368 -100.5q175 0 324 59t257.5 165.5t181.5 251.5t103 319l10 59h-606l-33 -182h408zM1075 1884q-23 0 -47 -6t-49 -20t-43 -42t-23 -67q-9 -57 24.5 -96t90.5 -39q60 0 106.5 39t57.5 96q10 61 -23 98t-94 37z" />
    <glyph glyph-name="gdotaccent" unicode="&#x121;" horiz-adv-x="1236" 
d="M539 219q-159 0 -226 91t-39 233q26 141 130.5 230t244.5 89q141 0 221 -91t54 -232q-24 -138 -135.5 -229t-249.5 -91zM852 131q-56 -352 -434 -352q-227 0 -387 141l-37 -205q169 -102 395 -102q261 0 442 137t226 391l153 867l-247 -142q-115 166 -328 166
q-131 0 -252 -61t-207.5 -176t-112.5 -260q-36 -212 78 -349t320 -137q218 0 411 193zM801 1526q-23 0 -47 -6t-49 -20t-43 -42t-23 -67q-9 -57 24.5 -96.5t90.5 -39.5q60 0 106.5 39.5t57.5 96.5q10 61 -23 98t-94 37z" />
    <glyph glyph-name="uni0122" unicode="&#x122;" horiz-adv-x="1677" 
d="M1395 639q-25 -144 -113 -254.5t-214.5 -168.5t-270.5 -58q-154 0 -268 73t-163.5 202t-21.5 288q26 149 127.5 278.5t249 206t303.5 76.5q266 0 412 -176l41 231q-170 133 -433 133q-214 0 -411 -99.5t-331.5 -271.5t-170.5 -378q-37 -208 29.5 -380.5t221.5 -273
t368 -100.5q175 0 324 59t257.5 165.5t181.5 251.5t103 319l10 59h-606l-33 -182h408zM680 -475l170 366h-184l-129 -366h143z" />
    <glyph glyph-name="uni0123" unicode="&#x123;" horiz-adv-x="1284" 
d="M551 219q-159 0 -225.5 91t-38.5 233q26 141 130.5 230t244.5 89q141 0 220.5 -91t53.5 -232q-24 -138 -135.5 -229t-249.5 -91zM864 131q-56 -352 -434 -352q-227 0 -387 141l-37 -205q169 -102 395 -102q261 0 442 137t226 391l154 867l-248 -142q-115 166 -328 166
q-131 0 -251.5 -61t-207 -175.5t-112.5 -260.5q-36 -212 77.5 -349t319.5 -137q219 0 412 193zM864 1587l-215 -409h209l164 409h-158z" />
    <glyph glyph-name="Hcircumflex" unicode="&#x124;" horiz-adv-x="1468" 
d="M313 1444l-254 -1444h211l113 637h737l-112 -637h209l253 1444h-208l-109 -615h-737l108 615h-211zM1235 1614l-174 305h-160l-283 -305h158l178 162l125 -162h156z" />
    <glyph glyph-name="hcircumflex" unicode="&#x125;" horiz-adv-x="1351" 
d="M1247 639q35 196 -45.5 293.5t-240.5 97.5q-109 0 -204 -44t-167 -116l110 629h-192l-264 -1499h205l102 578q22 122 111.5 189t199.5 67q216 0 170 -256l-102 -578h205zM930 1669l-174 305h-160l-283 -305h158l178 162l125 -162h156z" />
    <glyph glyph-name="Hbar" unicode="&#x126;" horiz-adv-x="1523" 
d="M342 1444l-254 -1444h211l113 637h737l-113 -637h209l254 1444h-209l-108 -615h-738l109 615h-211zM174 1090h1360l33 137h-1362z" />
    <glyph glyph-name="hbar" unicode="&#x127;" horiz-adv-x="1136" 
d="M1034 639q35 196 -45.5 293.5t-240.5 97.5q-109 0 -204 -44t-167 -116l110 629h-192l-264 -1499h205l102 578q22 122 111.5 189t199.5 67q216 0 170 -256l-102 -578h205zM764 1241l24 137h-641l-24 -137h641z" />
    <glyph glyph-name="Itilde" unicode="&#x128;" horiz-adv-x="520" 
d="M270 0l254 1442h-211l-254 -1442h211zM225 1577q46 94 129 94q39 0 114.5 -38t121.5 -38q137 0 244 226l-121 24q-28 -50 -51.5 -71t-57.5 -21q-33 0 -109 38t-128 38q-156 0 -265 -230z" />
    <glyph glyph-name="itilde" unicode="&#x129;" horiz-adv-x="471" 
d="M240 0l178 1008h-205l-178 -1008h205zM117 1239q46 94 129 94q39 0 114 -38t121 -38q137 0 244 226l-121 24q-28 -50 -51 -71t-57 -21q-33 0 -109.5 38t-128.5 38q-155 0 -264 -229z" />
    <glyph glyph-name="Imacron" unicode="&#x12a;" horiz-adv-x="520" 
d="M270 0l254 1442h-211l-254 -1442h211zM754 1579l24 137h-641l-24 -137h641z" />
    <glyph glyph-name="imacron" unicode="&#x12b;" horiz-adv-x="471" 
d="M240 0l178 1008h-205l-178 -1008h205zM678 1241l24 137h-641l-24 -137h641z" />
    <glyph glyph-name="Ibreve" unicode="&#x12c;" horiz-adv-x="520" 
d="M270 0l254 1442h-211l-254 -1442h211zM680 1868q-31 -72 -85.5 -110t-123.5 -38q-72 0 -114 38t-48 110h-129q-6 -137 62.5 -219t195.5 -82q129 0 231.5 83t137.5 218h-127z" />
    <glyph glyph-name="ibreve" unicode="&#x12d;" horiz-adv-x="471" 
d="M240 0l178 1008h-205l-178 -1008h205zM594 1524q-31 -72 -85.5 -110t-123.5 -38q-72 0 -114 38t-48 110h-129q-6 -137 62.5 -219t195.5 -82q129 0 231.5 83t137.5 218h-127z" />
    <glyph glyph-name="Iogonek" unicode="&#x12e;" horiz-adv-x="520" 
d="M270 0l254 1442h-211l-254 -1442h211zM332 -279q-55 -18 -99 -18q-49 0 -73.5 28.5t-16.5 73.5q7 41 33.5 79.5t93.5 115.5h-145q-41 -44 -62.5 -69t-48 -69t-32.5 -83q-17 -91 39 -144t159 -53q75 0 158 35z" />
    <glyph glyph-name="iogonek" unicode="&#x12f;" horiz-adv-x="489" 
d="M248 0l178 1008h-203l-178 -1008h203zM401 1458q-29 0 -60 -10.5t-62 -43.5t-39 -83q-10 -56 23 -94.5t89 -38.5q61 0 108 38t58 95q10 62 -22.5 99.5t-94.5 37.5zM309 -279q-55 -18 -98 -18q-49 0 -73.5 28.5t-16.5 73.5q7 41 33.5 79.5t93.5 115.5h-146
q-41 -44 -62.5 -69t-48 -69t-32.5 -83q-17 -91 39.5 -144t159.5 -53q74 0 157 35z" />
    <glyph glyph-name="Idotaccent" unicode="&#x130;" horiz-adv-x="520" 
d="M270 0l254 1442h-211l-254 -1442h211zM487 1864q-33 0 -64 -10t-61 -42.5t-36 -82.5q-9 -57 24 -96.5t90 -39.5q60 0 106.5 39.5t57.5 96.5q10 61 -23 98t-94 37z" />
    <glyph glyph-name="dotlessi" unicode="&#x131;" horiz-adv-x="471" 
d="M240 0l178 1008h-205l-178 -1008h205z" />
    <glyph glyph-name="IJ" unicode="&#x132;" horiz-adv-x="1310" 
d="M270 0l254 1442h-211l-254 -1442h211zM432 51q99 -74 227 -74q195 0 324 120.5t168 346.5l176 998h-213l-176 -1002q-27 -147 -87.5 -210.5t-158.5 -63.5q-62 0 -112 22.5t-111 65.5z" />
    <glyph glyph-name="ij" unicode="&#x133;" horiz-adv-x="929" 
d="M248 0l178 1008h-203l-178 -1008h203zM401 1458q-29 0 -60 -10.5t-62 -43.5t-39 -83q-10 -56 23 -94.5t89 -38.5q61 0 108 38t58 95q10 62 -22.5 99.5t-94.5 37.5zM260 -373q54 -14 109 -14q78 0 135 24t92.5 71t56 103t33.5 134l188 1063h-202l-195 -1102
q-10 -61 -38 -95t-85 -34q-35 0 -65 12zM844 1458q-29 0 -60 -10.5t-62.5 -43.5t-39.5 -83q-10 -56 23.5 -94.5t89.5 -38.5q61 0 108 38t58 95q10 62 -22.5 99.5t-94.5 37.5z" />
    <glyph glyph-name="Jcircumflex" unicode="&#x134;" horiz-adv-x="790" 
d="M-88 51q99 -74 227 -74q195 0 324 120.5t168 346.5l176 998h-213l-176 -1002q-27 -147 -87.5 -210.5t-158.5 -63.5q-62 0 -112 22.5t-111 65.5zM1044 1614l-174 305h-159l-283 -305h158l178 162l125 -162h155z" />
    <glyph glyph-name="jcircumflex" unicode="&#x135;" horiz-adv-x="405" 
d="M-215 -373q58 -14 111 -14q78 0 135 24t92.5 71t56 103t33.5 134l188 1063h-202l-195 -1102q-10 -61 -38 -95t-85 -34q-33 0 -67 12zM649 1276l-174 305h-160l-282 -305h157l179 162l125 -162h155z" />
    <glyph glyph-name="uni0136" unicode="&#x136;" horiz-adv-x="1214" 
d="M418 840l106 602h-211l-254 -1442h211l121 688l467 -688h264l-522 776l725 666h-264zM438 -485l170 366h-184l-129 -366h143z" />
    <glyph glyph-name="uni0137" unicode="&#x137;" horiz-adv-x="970" 
d="M346 602l158 897h-205l-264 -1499h205l82 465l309 -465h243l-358 545l520 463h-254zM336 -485l170 366h-184l-129 -366h143z" />
    <glyph glyph-name="kgreenlandic" unicode="&#x138;" horiz-adv-x="983" 
d="M346 602l72 406h-205l-178 -1008h205l82 465l309 -465h243l-358 545l520 463h-254z" />
    <glyph glyph-name="Lacute" unicode="&#x139;" horiz-adv-x="1101" 
d="M301 188l221 1254h-213l-254 -1442h918l33 188h-705zM625 1917l-246 -318h147l314 265z" />
    <glyph glyph-name="lacute" unicode="&#x13a;" horiz-adv-x="520" 
d="M270 0l254 1442h-211l-254 -1442h211zM606 1917l-246 -318h148l313 265z" />
    <glyph glyph-name="uni013B" unicode="&#x13b;" horiz-adv-x="1122" 
d="M307 188l221 1254h-213l-254 -1442h918l33 188h-705zM434 -485l170 366h-184l-129 -366h143z" />
    <glyph glyph-name="uni013C" unicode="&#x13c;" horiz-adv-x="520" 
d="M270 0l254 1442h-211l-254 -1442h211zM63 -485l170 366h-184l-129 -366h143z" />
    <glyph glyph-name="Lcaron" unicode="&#x13d;" horiz-adv-x="1097" 
d="M305 188l221 1254h-213l-254 -1442h918l33 188h-705zM938 1210l172 367h-184l-129 -367h141z" />
    <glyph glyph-name="lcaron" unicode="&#x13e;" horiz-adv-x="471" 
d="M240 0l264 1499h-205l-264 -1499h205zM709 1210l172 367h-185l-129 -367h142z" />
    <glyph glyph-name="Ldot" unicode="&#x13f;" horiz-adv-x="1095" 
d="M305 188l221 1254h-213l-254 -1442h918l33 188h-705zM868 870q-33 0 -64 -10t-61 -42.5t-36 -82.5q-9 -57 24 -96t90 -39q60 0 106.5 39t57.5 96q10 61 -23 98t-94 37z" />
    <glyph glyph-name="ldot" unicode="&#x140;" horiz-adv-x="677" 
d="M240 0l264 1499h-205l-264 -1499h205zM653 870q-33 0 -64 -10t-61 -42.5t-36 -82.5q-9 -57 24 -96t90 -39q60 0 106.5 39t57.5 96q10 61 -23 98t-94 37z" />
    <glyph glyph-name="Lslash" unicode="&#x141;" horiz-adv-x="1107" 
d="M309 188l221 1254h-213l-254 -1442h918l33 188h-705zM887 381l33 184h-902l-32 -184h901z" />
    <glyph glyph-name="lslash" unicode="&#x142;" horiz-adv-x="673" 
d="M276 0l265 1499h-205l-264 -1499h204zM647 389l33 184h-676l-33 -184h676z" />
    <glyph glyph-name="Nacute" unicode="&#x143;" horiz-adv-x="1538" 
d="M1139 328l-621 1106h-207l-252 -1434h207l197 1116l622 -1116h201l254 1442h-205zM1102 1917l-246 -318h148l313 265z" />
    <glyph glyph-name="nacute" unicode="&#x144;" horiz-adv-x="1142" 
d="M1038 639q19 108 -5 195t-97 141.5t-188 54.5q-198 0 -351 -153l-184 131l-178 -1008h205l102 578q11 60 35.5 107.5t55 77.5t68 50.5t72.5 28.5t70 8q95 0 149.5 -65t30.5 -207l-102 -578h205zM889 1579l-246 -317h148l313 264z" />
    <glyph glyph-name="uni0145" unicode="&#x145;" horiz-adv-x="1542" 
d="M1141 328l-621 1106h-207l-252 -1434h207l197 1116l622 -1116h201l254 1442h-205zM598 -485l170 366h-184l-129 -366h143z" />
    <glyph glyph-name="uni0146" unicode="&#x146;" horiz-adv-x="1175" 
d="M1049 639q19 108 -5 195t-97.5 141.5t-188.5 54.5q-197 0 -350 -153l-185 131l-178 -1008h205l102 578q11 60 35.5 107.5t55 77.5t68 50.5t72.5 28.5t70 8q95 0 150 -65t31 -207l-103 -578h205zM406 -485l169 366h-184l-129 -366h144z" />
    <glyph glyph-name="Ncaron" unicode="&#x147;" horiz-adv-x="1538" 
d="M1139 328l-621 1106h-207l-252 -1434h207l197 1116l622 -1116h201l254 1442h-205zM1329 1888h-168l-182 -168l-121 168h-170l184 -309h162z" />
    <glyph glyph-name="ncaron" unicode="&#x148;" horiz-adv-x="1142" 
d="M1038 639q19 108 -5 195t-97 141.5t-188 54.5q-198 0 -351 -153l-184 131l-178 -1008h205l102 578q11 60 35.5 107.5t55 77.5t68 50.5t72.5 28.5t70 8q95 0 149.5 -65t30.5 -207l-102 -578h205zM1081 1544h-168l-182 -168l-121 168h-170l185 -309h161z" />
    <glyph glyph-name="Eng" unicode="&#x14a;" horiz-adv-x="1538" 
d="M311 1434l-252 -1434h207l197 1116l620 -1114l-16 -100q-22 -125 -123 -125q-32 0 -67 12l-29 -162q54 -14 110 -14q78 0 134.5 24t92.5 70.5t57 103t34 134.5l14 84l250 1413h-205l-196 -1114l-621 1106h-207z" />
    <glyph glyph-name="eng" unicode="&#x14b;" horiz-adv-x="1142" 
d="M213 1008l-178 -1008h205l102 578q11 60 35.5 107.5t55 77.5t68 50.5t72.5 28.5t70 8q95 0 149.5 -65t30.5 -207l-118 -672q-10 -61 -38 -95t-85 -34q-34 0 -68 12l-29 -162q54 -14 111 -14q78 0 135 24t93 70.5t57 103t34 134.5l123 694q33 188 -45 289.5t-245 101.5
q-198 0 -351 -153z" />
    <glyph glyph-name="Omacron" unicode="&#x14c;" horiz-adv-x="1703" 
d="M752 -29q147 0 279.5 40.5t233.5 111.5t179.5 166.5t126.5 206t65 229.5q23 152 -10 288.5t-112 237.5t-207 160t-287 59q-214 0 -405.5 -100.5t-319 -272.5t-164.5 -378t29.5 -377t222 -271t369.5 -100zM983 1280q107 0 191.5 -29t137 -80.5t84.5 -122.5t35 -154.5
t-12 -176.5q-21 -113 -79.5 -215t-141.5 -177t-190.5 -119t-221.5 -44q-155 0 -266 75t-156 203.5t-18 284.5q27 153 117.5 279.5t227.5 201t292 74.5zM1366 1579l25 137h-641l-25 -137h641z" />
    <glyph glyph-name="omacron" unicode="&#x14d;" horiz-adv-x="1224" 
d="M508 -23q173 0 312 72.5t221 190.5t108 266q25 145 -24 265.5t-162 190.5t-267 70q-153 0 -290 -70.5t-228 -192t-117 -267.5q-25 -145 23 -265t159.5 -190t264.5 -70zM664 860q168 0 238.5 -99.5t39.5 -256.5q-28 -145 -142.5 -248.5t-258.5 -103.5q-143 0 -222 102
t-51 252q25 151 135.5 252.5t260.5 101.5zM1057 1241l24 137h-641l-24 -137h641z" />
    <glyph glyph-name="Obreve" unicode="&#x14e;" horiz-adv-x="1703" 
d="M752 -29q147 0 279.5 40.5t233.5 111.5t179.5 166.5t126.5 206t65 229.5q23 152 -10 288.5t-112 237.5t-207 160t-287 59q-214 0 -405.5 -100.5t-319 -272.5t-164.5 -378t29.5 -377t222 -271t369.5 -100zM983 1280q107 0 191.5 -29t137 -80.5t84.5 -122.5t35 -154.5
t-12 -176.5q-21 -113 -79.5 -215t-141.5 -177t-190.5 -119t-221.5 -44q-155 0 -266 75t-156 203.5t-18 284.5q27 153 117.5 279.5t227.5 201t292 74.5zM1323 1862q-31 -72 -85.5 -110t-123.5 -38q-72 0 -114 38t-48 110h-129q-6 -137 62.5 -219t195.5 -82q129 0 231.5 83
t137.5 218h-127z" />
    <glyph glyph-name="obreve" unicode="&#x14f;" horiz-adv-x="1224" 
d="M508 -23q173 0 312 72.5t221 190.5t108 266q25 145 -24 265.5t-162 190.5t-267 70q-153 0 -290 -70.5t-228 -192t-117 -267.5q-25 -145 23 -265t159.5 -190t264.5 -70zM664 860q168 0 238.5 -99.5t39.5 -256.5q-28 -145 -142.5 -248.5t-258.5 -103.5q-143 0 -222 102
t-51 252q25 151 135.5 252.5t260.5 101.5zM1057 1524q-31 -72 -85.5 -110t-123.5 -38q-72 0 -114 38t-48 110h-129q-6 -137 62.5 -219t195.5 -82q129 0 231.5 83t137.5 218h-127z" />
    <glyph glyph-name="Ohungarumlaut" unicode="&#x150;" horiz-adv-x="1703" 
d="M752 -29q147 0 279.5 40.5t233.5 111.5t179.5 166.5t126.5 206t65 229.5q23 152 -10 288.5t-112 237.5t-207 160t-287 59q-214 0 -405.5 -100.5t-319 -272.5t-164.5 -378t29.5 -377t222 -271t369.5 -100zM983 1280q107 0 191.5 -29t137 -80.5t84.5 -122.5t35 -154.5
t-12 -176.5q-21 -113 -79.5 -215t-141.5 -177t-190.5 -119t-221.5 -44q-155 0 -266 75t-156 203.5t-18 284.5q27 153 117.5 279.5t227.5 201t292 74.5zM997 1577l316 285l-199 36l-272 -321h155zM1335 1577l318 281l-199 40l-272 -321h153z" />
    <glyph glyph-name="ohungarumlaut" unicode="&#x151;" horiz-adv-x="1232" 
d="M508 -23q173 0 312 72.5t221 190.5t108 266q25 145 -24 265.5t-162 190.5t-267 70q-153 0 -290 -70.5t-228 -192t-117 -267.5q-25 -145 23 -265t159.5 -190t264.5 -70zM664 860q168 0 238.5 -99.5t39.5 -256.5q-28 -145 -142.5 -248.5t-258.5 -103.5q-143 0 -222 102
t-51 252q25 151 135.5 252.5t260.5 101.5zM715 1239l315 285l-199 37l-272 -322h156zM1053 1239l317 281l-199 41l-272 -322h154z" />
    <glyph glyph-name="OE" unicode="&#x152;" horiz-adv-x="2174" 
d="M1169 1243q-85 37 -178 37q-240 0 -421.5 -158.5t-223.5 -396.5q-19 -109 3.5 -210.5t79.5 -179t152 -124.5t212 -47q105 0 192 35zM1276 643l-80 -457h784l-32 -186h-959q-118 -27 -217 -27q-160 0 -292.5 56.5t-218.5 154.5t-122 237.5t-8 297.5q37 206 164.5 378
t319 272.5t405.5 100.5q112 0 207 -28h954l-33 -187h-764l-75 -432h702l-33 -180h-702z" />
    <glyph glyph-name="oe" unicode="&#x153;" horiz-adv-x="2041" 
d="M1833 291q-93 -80 -179.5 -115t-201.5 -35t-174.5 54.5t-81.5 154.5l774 187q8 102 -13.5 190.5t-69.5 157t-129.5 108t-188.5 39.5q-144 0 -259.5 -68t-191.5 -188q-51 119 -160.5 187.5t-261.5 68.5q-153 0 -290 -70.5t-228 -192t-117 -267.5q-25 -145 23 -265
t159.5 -190t264.5 -70q152 0 286.5 69.5t225.5 189.5q39 -125 140.5 -193t254.5 -68q104 0 204.5 31t178.5 84zM664 860q169 0 238 -100.5t40 -255.5q-28 -145 -142.5 -248.5t-258.5 -103.5q-143 0 -222 102t-51 252q25 151 135.5 252.5t260.5 101.5zM1198 522
q12 70 35.5 129t60 108t91.5 77t124 28q107 0 172 -60t74 -155z" />
    <glyph glyph-name="Racute" unicode="&#x154;" horiz-adv-x="1236" 
d="M59 0h215l103 584h182l320 -584h251l-342 602q183 36 303.5 143.5t149.5 270.5q34 191 -86.5 308.5t-353.5 117.5h-488zM408 752l88 503h252q158 0 230.5 -60.5t49.5 -186.5q-24 -131 -130 -193.5t-267 -62.5h-223zM961 1917l-246 -318h147l314 265z" />
    <glyph glyph-name="racute" unicode="&#x155;" horiz-adv-x="765" 
d="M807 1018q-31 8 -76 8q-90 0 -178 -38t-154 -109l-186 129l-178 -1008h205l92 520q14 81 52.5 144t90 99t107.5 54.5t112 18.5q54 0 78 -17zM717 1579l-246 -317h147l314 264z" />
    <glyph glyph-name="uni0156" unicode="&#x156;" horiz-adv-x="1236" 
d="M59 0h215l103 584h182l320 -584h251l-342 602q183 36 303.5 143.5t149.5 270.5q34 191 -86.5 308.5t-353.5 117.5h-488zM408 752l88 503h252q158 0 230.5 -60.5t49.5 -186.5q-24 -131 -130 -193.5t-267 -62.5h-223zM459 -485l170 366h-185l-129 -366h144z" />
    <glyph glyph-name="uni0157" unicode="&#x157;" horiz-adv-x="727" 
d="M807 1018q-31 8 -76 8q-90 0 -178 -38t-154 -109l-186 129l-178 -1008h205l92 520q14 81 52.5 144t90 99t107.5 54.5t112 18.5q54 0 78 -17zM59 -485l170 366h-184l-129 -366h143z" />
    <glyph glyph-name="Rcaron" unicode="&#x158;" horiz-adv-x="1236" 
d="M59 0h215l103 584h182l320 -584h251l-342 602q183 36 303.5 143.5t149.5 270.5q34 191 -86.5 308.5t-353.5 117.5h-488zM408 752l88 503h252q158 0 230.5 -60.5t49.5 -186.5q-24 -131 -130 -193.5t-267 -62.5h-223zM1163 1888h-168l-182 -168l-121 168h-170l185 -309h161
z" />
    <glyph glyph-name="rcaron" unicode="&#x159;" horiz-adv-x="727" 
d="M807 1018q-31 8 -76 8q-90 0 -178 -38t-154 -109l-186 129l-178 -1008h205l92 520q14 81 52.5 144t90 99t107.5 54.5t112 18.5q54 0 78 -17zM895 1544h-168l-182 -168l-121 168h-170l184 -309h162z" />
    <glyph glyph-name="Sacute" unicode="&#x15a;" horiz-adv-x="1140" 
d="M809 358q-10 -59 -43 -100.5t-81.5 -62t-96 -29t-101.5 -8.5q-270 0 -458 217l-37 -217q158 -183 452 -183q100 0 191.5 22.5t172.5 67.5t138 122.5t78 179.5q19 98 -7.5 177t-83 131.5t-128.5 96t-146 79.5t-133.5 72t-92.5 84.5t-23 106.5q15 83 91.5 128.5t194.5 45.5
q229 0 351 -184l40 235q-126 129 -366 129q-92 0 -179 -24t-159 -68t-122 -112.5t-64 -151.5q-13 -73 1 -135.5t49.5 -108t84 -84.5t105 -70.5t113 -61t107 -60t88 -64t55.5 -76.5t9 -94zM915 1917l-245 -318h147l313 265z" />
    <glyph glyph-name="sacute" unicode="&#x15b;" horiz-adv-x="819" 
d="M516 276q-7 -41 -30 -69.5t-54.5 -41.5t-59 -18.5t-55.5 -5.5q-88 0 -171.5 43.5t-147.5 110.5l-35 -203q76 -53 152 -82.5t182 -29.5q162 0 276 86.5t136 216.5q12 67 -6 121t-56 89.5t-86.5 64.5t-98 52t-90 45.5t-63 51t-16.5 63.5q8 41 51 69.5t107 28.5
q71 0 133.5 -33t130.5 -92l37 205q-106 82 -275 82q-153 0 -254 -70.5t-123 -189.5q-11 -65 8 -116t57.5 -83.5t87.5 -59.5t98.5 -49.5t89.5 -47t61.5 -59.5t13.5 -79zM698 1579l-245 -317h147l313 264z" />
    <glyph glyph-name="Scircumflex" unicode="&#x15c;" horiz-adv-x="1140" 
d="M809 358q-10 -59 -43 -100.5t-81.5 -62t-96 -29t-101.5 -8.5q-270 0 -458 217l-37 -217q158 -183 452 -183q100 0 191.5 22.5t172.5 67.5t138 122.5t78 179.5q19 98 -7.5 177t-83 131.5t-128.5 96t-146 79.5t-133.5 72t-92.5 84.5t-23 106.5q15 83 91.5 128.5t194.5 45.5
q229 0 351 -184l40 235q-126 129 -366 129q-92 0 -179 -24t-159 -68t-122 -112.5t-64 -151.5q-13 -73 1 -135.5t49.5 -108t84 -84.5t105 -70.5t113 -61t107 -60t88 -64t55.5 -76.5t9 -94zM1055 1614l-174 305h-160l-283 -305h158l178 162l125 -162h156z" />
    <glyph glyph-name="scircumflex" unicode="&#x15d;" horiz-adv-x="811" 
d="M516 276q-7 -41 -30 -69.5t-54.5 -41.5t-59 -18.5t-55.5 -5.5q-88 0 -171.5 43.5t-147.5 110.5l-35 -203q76 -53 152 -82.5t182 -29.5q162 0 276 86.5t136 216.5q12 67 -6 121t-56 89.5t-86.5 64.5t-98 52t-90 45.5t-63 51t-16.5 63.5q8 41 51 69.5t107 28.5
q71 0 133.5 -33t130.5 -92l37 205q-106 82 -275 82q-153 0 -254 -70.5t-123 -189.5q-11 -65 8 -116t57.5 -83.5t87.5 -59.5t98.5 -49.5t89.5 -47t61.5 -59.5t13.5 -79zM836 1276l-174 305h-160l-283 -305h158l178 162l125 -162h156z" />
    <glyph glyph-name="Scedilla" unicode="&#x15e;" horiz-adv-x="1140" 
d="M809 358q-10 -59 -43 -100.5t-81.5 -62t-96 -29t-101.5 -8.5q-270 0 -458 217l-37 -217q158 -183 452 -183q100 0 191.5 22.5t172.5 67.5t138 122.5t78 179.5q19 98 -7.5 177t-83 131.5t-128.5 96t-146 79.5t-133.5 72t-92.5 84.5t-23 106.5q15 83 91.5 128.5t194.5 45.5
q229 0 351 -184l40 235q-126 129 -366 129q-92 0 -179 -24t-159 -68t-122 -112.5t-64 -151.5q-13 -73 1 -135.5t49.5 -108t84 -84.5t105 -70.5t113 -61t107 -60t88 -64t55.5 -76.5t9 -94zM428 -143l111 143h-136l-159 -188l32 -31q46 16 74 16q38 0 57 -15.5t13 -45.5
q-6 -31 -33 -52.5t-55.5 -28.5t-55.5 -7q-51 0 -102 22l-45 -88q81 -43 170 -43q42 0 85.5 10t85 29.5t71.5 55.5t39 83q12 74 -33 107t-111 33h-8z" />
    <glyph glyph-name="scedilla" unicode="&#x15f;" horiz-adv-x="819" 
d="M516 276q-7 -41 -30 -69.5t-54.5 -41.5t-59 -18.5t-55.5 -5.5q-88 0 -171.5 43.5t-147.5 110.5l-35 -203q76 -53 152 -82.5t182 -29.5q162 0 276 86.5t136 216.5q12 67 -6 121t-56 89.5t-86.5 64.5t-98 52t-90 45.5t-63 51t-16.5 63.5q8 41 51 69.5t107 28.5
q71 0 133.5 -33t130.5 -92l37 205q-106 82 -275 82q-153 0 -254 -70.5t-123 -189.5q-11 -65 8 -116t57.5 -83.5t87.5 -59.5t98.5 -49.5t89.5 -47t61.5 -59.5t13.5 -79zM276 -143l111 143h-135l-160 -188l33 -31q46 16 74 16q38 0 56.5 -15.5t12.5 -45.5q-6 -31 -32.5 -52.5
t-55 -28.5t-55.5 -7q-51 0 -102 22l-46 -88q81 -43 170 -43q42 0 85.5 10t85 29.5t71.5 55.5t39 83q12 74 -32.5 107t-110.5 33h-9z" />
    <glyph glyph-name="Scaron" unicode="&#x160;" horiz-adv-x="1140" 
d="M809 358q-10 -59 -43 -100.5t-81.5 -62t-96 -29t-101.5 -8.5q-270 0 -458 217l-37 -217q158 -183 452 -183q100 0 191.5 22.5t172.5 67.5t138 122.5t78 179.5q19 98 -7.5 177t-83 131.5t-128.5 96t-146 79.5t-133.5 72t-92.5 84.5t-23 106.5q15 83 91.5 128.5t194.5 45.5
q229 0 351 -184l40 235q-126 129 -366 129q-92 0 -179 -24t-159 -68t-122 -112.5t-64 -151.5q-13 -73 1 -135.5t49.5 -108t84 -84.5t105 -70.5t113 -61t107 -60t88 -64t55.5 -76.5t9 -94zM1110 1888h-168l-182 -168l-121 168h-170l184 -309h162z" />
    <glyph glyph-name="scaron" unicode="&#x161;" horiz-adv-x="819" 
d="M516 276q-7 -41 -30 -69.5t-54.5 -41.5t-59 -18.5t-55.5 -5.5q-88 0 -171.5 43.5t-147.5 110.5l-35 -203q76 -53 152 -82.5t182 -29.5q162 0 276 86.5t136 216.5q12 67 -6 121t-56 89.5t-86.5 64.5t-98 52t-90 45.5t-63 51t-16.5 63.5q8 41 51 69.5t107 28.5
q71 0 133.5 -33t130.5 -92l37 205q-106 82 -275 82q-153 0 -254 -70.5t-123 -189.5q-11 -65 8 -116t57.5 -83.5t87.5 -59.5t98.5 -49.5t89.5 -47t61.5 -59.5t13.5 -79zM907 1550h-168l-182 -168l-121 168h-170l185 -309h161z" />
    <glyph glyph-name="uni0162" unicode="&#x162;" horiz-adv-x="1105" 
d="M561 0l221 1255h430l33 187h-1069l-33 -187h430l-221 -1255h209zM416 -143l110 143h-135l-160 -188l33 -31q46 16 74 16q38 0 57 -15.5t13 -45.5q-6 -31 -33 -52.5t-55.5 -28.5t-55.5 -7q-51 0 -102 22l-45 -88q81 -43 170 -43q58 0 114.5 16t105 58.5t60.5 103.5
q12 74 -32.5 107t-110.5 33h-8z" />
    <glyph glyph-name="uni0163" unicode="&#x163;" horiz-adv-x="722" 
d="M182 262q-21 -124 31.5 -204.5t175.5 -80.5q79 0 133 29l29 168q-48 -22 -94 -22q-48 0 -64 30.5t-8 79.5l100 574h260l31 172h-260l59 342l-495 -514h203zM334 -143l110 143h-135l-159 -188l32 -31q46 16 74 16q38 0 57 -15.5t13 -45.5q-6 -31 -33 -52.5t-55.5 -28.5
t-55.5 -7q-51 0 -102 22l-45 -88q81 -43 170 -43q58 0 114.5 16t105 58.5t60.5 103.5q12 74 -32.5 107t-110.5 33h-8z" />
    <glyph glyph-name="Tcaron" unicode="&#x164;" horiz-adv-x="1105" 
d="M561 0l221 1255h430l33 187h-1069l-33 -187h430l-221 -1255h209zM1108 1888h-168l-182 -168l-121 168h-170l184 -309h162z" />
    <glyph glyph-name="tcaron" unicode="&#x165;" horiz-adv-x="722" 
d="M182 262q-21 -124 31.5 -204.5t175.5 -80.5q79 0 133 29l29 168q-48 -22 -94 -22q-48 0 -64 30.5t-8 79.5l100 574h260l31 172h-260l59 342l-495 -514h203zM782 1210l172 367h-184l-129 -367h141z" />
    <glyph glyph-name="Tbar" unicode="&#x166;" horiz-adv-x="1105" 
d="M561 0l221 1255h430l33 187h-1069l-33 -187h430l-221 -1255h209zM911 764l25 137h-641l-25 -137h641z" />
    <glyph glyph-name="tbar" unicode="&#x167;" horiz-adv-x="722" 
d="M182 262q-21 -124 31.5 -204.5t175.5 -80.5q79 0 133 29l29 168q-48 -22 -94 -22q-48 0 -64 30.5t-8 79.5l100 574h260l31 172h-260l59 342l-495 -514h203zM690 537l25 137h-647l-25 -137h647z" />
    <glyph glyph-name="Utilde" unicode="&#x168;" horiz-adv-x="1456" 
d="M147 590q-25 -133 -10.5 -235t55 -175t108 -120t149 -69t178.5 -22q157 0 278 42t204 124t135 195.5t79 265.5l150 848h-209l-150 -852q-38 -214 -153.5 -321t-298.5 -107q-192 0 -267 107.5t-37 326.5l150 846h-211zM715 1577q46 94 129 94q39 0 114 -38t121 -38
q137 0 244 226l-121 24q-28 -50 -51 -71t-57 -21q-33 0 -109.5 38t-128.5 38q-155 0 -264 -230z" />
    <glyph glyph-name="utilde" unicode="&#x169;" horiz-adv-x="1128" 
d="M94 391q-9 -50 -9 -97t8 -94t29.5 -86t54.5 -69.5t85.5 -47.5t118.5 -17q198 0 348 147l184 -131l179 1014h-205l-103 -578q-13 -74 -45.5 -129t-76 -85t-88 -44t-89.5 -14q-37 0 -66 6.5t-57.5 24.5t-42.5 48.5t-21 78t7 114.5l103 578h-205zM475 1239q46 94 129 94
q39 0 114.5 -38t121.5 -38q136 0 243 226l-120 24q-28 -50 -51.5 -71t-57.5 -21q-33 0 -109.5 38t-128.5 38q-155 0 -264 -229z" />
    <glyph glyph-name="Umacron" unicode="&#x16a;" horiz-adv-x="1456" 
d="M147 590q-25 -133 -10.5 -235t55 -175t108 -120t149 -69t178.5 -22q157 0 278 42t204 124t135 195.5t79 265.5l150 848h-209l-150 -852q-38 -214 -153.5 -321t-298.5 -107q-192 0 -267 107.5t-37 326.5l150 846h-211zM1227 1579l24 137h-641l-24 -137h641z" />
    <glyph glyph-name="umacron" unicode="&#x16b;" horiz-adv-x="1128" 
d="M94 391q-9 -50 -9 -97t8 -94t29.5 -86t54.5 -69.5t85.5 -47.5t118.5 -17q198 0 348 147l184 -131l179 1014h-205l-103 -578q-13 -74 -45.5 -129t-76 -85t-88 -44t-89.5 -14q-37 0 -66 6.5t-57.5 24.5t-42.5 48.5t-21 78t7 114.5l103 578h-205zM1020 1241l24 137h-641
l-24 -137h641z" />
    <glyph glyph-name="Ubreve" unicode="&#x16c;" horiz-adv-x="1456" 
d="M147 590q-25 -133 -10.5 -235t55 -175t108 -120t149 -69t178.5 -22q157 0 278 42t204 124t135 195.5t79 265.5l150 848h-209l-150 -852q-38 -214 -153.5 -321t-298.5 -107q-192 0 -267 107.5t-37 326.5l150 846h-211zM1149 1862q-31 -72 -85.5 -110t-123.5 -38
q-72 0 -114 38t-48 110h-129q-6 -137 62.5 -219t195.5 -82q129 0 231.5 83t137.5 218h-127z" />
    <glyph glyph-name="ubreve" unicode="&#x16d;" horiz-adv-x="1128" 
d="M94 391q-9 -50 -9 -97t8 -94t29.5 -86t54.5 -69.5t85.5 -47.5t118.5 -17q198 0 348 147l184 -131l179 1014h-205l-103 -578q-13 -74 -45.5 -129t-76 -85t-88 -44t-89.5 -14q-37 0 -66 6.5t-57.5 24.5t-42.5 48.5t-21 78t7 114.5l103 578h-205zM918 1524
q-31 -72 -85.5 -110t-123.5 -38q-72 0 -114 38t-48 110h-129q-6 -137 62.5 -219t195.5 -82q129 0 231 83t137 218h-126z" />
    <glyph glyph-name="Uring" unicode="&#x16e;" horiz-adv-x="1456" 
d="M147 590q-25 -133 -10.5 -235t55 -175t108 -120t149 -69t178.5 -22q157 0 278 42t204 124t135 195.5t79 265.5l150 848h-209l-150 -852q-38 -214 -153.5 -321t-298.5 -107q-192 0 -267 107.5t-37 326.5l150 846h-211zM918 1585q93 0 164.5 57.5t88.5 149.5
q17 90 -35.5 152.5t-142.5 62.5q-89 0 -162 -61t-90 -152q-15 -88 38 -148.5t139 -60.5zM977 1901q39 0 68.5 -24t17.5 -83q-9 -44 -42 -73t-81 -29q-46 0 -71.5 28t-16.5 76q6 43 43.5 74t81.5 31z" />
    <glyph glyph-name="uring" unicode="&#x16f;" horiz-adv-x="1128" 
d="M94 391q-9 -50 -9 -97t8 -94t29.5 -86t54.5 -69.5t85.5 -47.5t118.5 -17q198 0 348 147l184 -131l179 1014h-205l-103 -578q-13 -74 -45.5 -129t-76 -85t-88 -44t-89.5 -14q-37 0 -66 6.5t-57.5 24.5t-42.5 48.5t-21 78t7 114.5l103 578h-205zM684 1212q95 0 166 57.5
t88 149.5q17 90 -35.5 152.5t-142.5 62.5q-91 0 -163 -61t-89 -152q-15 -88 37.5 -148.5t138.5 -60.5zM743 1528q38 0 66.5 -24.5t19.5 -82.5q-6 -44 -40 -73t-82 -29q-46 0 -72 28t-17 76q6 43 43.5 74t81.5 31z" />
    <glyph glyph-name="Uhungarumlaut" unicode="&#x170;" horiz-adv-x="1456" 
d="M147 590q-25 -133 -10.5 -235t55 -175t108 -120t149 -69t178.5 -22q157 0 278 42t204 124t135 195.5t79 265.5l150 848h-209l-150 -852q-38 -214 -153.5 -321t-298.5 -107q-192 0 -267 107.5t-37 326.5l150 846h-211zM791 1577l315 285l-199 36l-272 -321h156zM1128 1577
l318 281l-199 40l-272 -321h153z" />
    <glyph glyph-name="uhungarumlaut" unicode="&#x171;" horiz-adv-x="1189" 
d="M94 391q-9 -50 -9 -97t8 -94t29.5 -86t54.5 -69.5t85.5 -47.5t118.5 -17q198 0 348 147l184 -131l179 1014h-205l-103 -578q-13 -74 -45.5 -129t-76 -85t-88 -44t-89.5 -14q-37 0 -66 6.5t-57.5 24.5t-42.5 48.5t-21 78t7 114.5l103 578h-205zM586 1239l315 285l-199 37
l-272 -322h156zM924 1239l317 281l-199 41l-272 -322h154z" />
    <glyph glyph-name="Uogonek" unicode="&#x172;" horiz-adv-x="1456" 
d="M147 590q-25 -133 -10.5 -235t55 -175t108 -120t149 -69t178.5 -22q157 0 278 42t204 124t135 195.5t79 265.5l150 848h-209l-150 -852q-38 -214 -153.5 -321t-298.5 -107q-192 0 -267 107.5t-37 326.5l150 846h-211zM772 -279q-55 -18 -98 -18q-49 0 -73.5 28.5
t-16.5 73.5q7 41 33.5 79.5t93.5 115.5h-146q-41 -44 -62.5 -69t-48 -69t-32.5 -83q-17 -91 39.5 -144t159.5 -53q74 0 157 35z" />
    <glyph glyph-name="uogonek" unicode="&#x173;" horiz-adv-x="1128" 
d="M94 391q-9 -50 -9 -97t8 -94t29.5 -86t54.5 -69.5t85.5 -47.5t118.5 -17q198 0 348 147l184 -131l179 1014h-205l-103 -578q-13 -74 -45.5 -129t-76 -85t-88 -44t-89.5 -14q-37 0 -66 6.5t-57.5 24.5t-42.5 48.5t-21 78t7 114.5l103 578h-205zM975 -279q-55 -18 -98 -18
q-52 0 -74.5 31t-14.5 78q6 36 35 77t90 107l-84 67q-96 -86 -144 -151t-60 -127q-15 -92 41 -147.5t157 -55.5q75 0 158 35z" />
    <glyph glyph-name="Wcircumflex" unicode="&#x174;" horiz-adv-x="2064" 
d="M557 315l-168 1127h-225l229 -1444h199l541 1130l155 -1130h195l733 1444h-219l-555 -1127l-150 1129h-196zM1528 1614l-174 305h-160l-283 -305h158l178 162l125 -162h156z" />
    <glyph glyph-name="wcircumflex" unicode="&#x175;" horiz-adv-x="1531" 
d="M287 1008h-209l160 -1010h188l373 770l104 -770h195l516 1010h-211l-361 -746l-96 748h-196l-363 -750zM1200 1276l-174 305h-160l-282 -305h157l179 162l124 -162h156z" />
    <glyph glyph-name="Ycircumflex" unicode="&#x176;" horiz-adv-x="1302" 
d="M662 0l100 569l704 873h-235l-535 -678l-299 678h-245l399 -875l-100 -567h211zM1155 1614l-174 305h-160l-282 -305h157l178 162l125 -162h156z" />
    <glyph glyph-name="ycircumflex" unicode="&#x177;" horiz-adv-x="1024" 
d="M72 1006l270 -1008l-209 -373h189l790 1381h-213l-426 -773l-182 773h-219zM963 1276l-175 305h-159l-283 -305h158l178 162l125 -162h156z" />
    <glyph glyph-name="Ydieresis" unicode="&#x178;" horiz-adv-x="1302" 
d="M662 0l100 569l704 873h-235l-535 -678l-299 678h-245l399 -875l-100 -567h211zM688 1880q-47 0 -94.5 -30.5t-58.5 -98.5q-10 -57 20.5 -93t87.5 -36q55 0 100.5 36.5t55.5 92.5q9 55 -23.5 92t-87.5 37zM1087 1880q-47 0 -94.5 -30.5t-58.5 -98.5q-10 -57 20.5 -93
t87.5 -36q55 0 100.5 36.5t55.5 92.5q9 55 -23.5 92t-87.5 37z" />
    <glyph glyph-name="Zacute" unicode="&#x179;" horiz-adv-x="1308" 
d="M238 184l1153 1086l30 172h-1190l-32 -185h921l-1163 -1085l-31 -172h1204l33 184h-925zM973 1917l-246 -318h147l314 265z" />
    <glyph glyph-name="zacute" unicode="&#x17a;" horiz-adv-x="1042" 
d="M213 172l834 676l28 160h-928l-30 -168h676l-834 -680l-29 -160h957l31 172h-705zM829 1579l-245 -317h147l313 264z" />
    <glyph glyph-name="Zdotaccent" unicode="&#x17b;" horiz-adv-x="1308" 
d="M238 184l1153 1086l30 172h-1190l-32 -185h921l-1163 -1085l-31 -172h1204l33 184h-925zM903 1864q-23 0 -47 -6t-49 -20t-43 -42t-23 -67q-9 -57 24.5 -96.5t90.5 -39.5q60 0 106.5 39.5t57.5 96.5q10 61 -23 98t-94 37z" />
    <glyph glyph-name="zdotaccent" unicode="&#x17c;" horiz-adv-x="1042" 
d="M213 172l834 676l28 160h-928l-30 -168h676l-834 -680l-29 -160h957l31 172h-705zM690 1526q-23 0 -47 -6t-49 -20t-43 -42t-23 -67q-9 -57 24.5 -96.5t90.5 -39.5q60 0 106.5 39.5t57.5 96.5q10 61 -23 98t-94 37z" />
    <glyph glyph-name="Zcaron" unicode="&#x17d;" horiz-adv-x="1308" 
d="M238 184l1153 1086l30 172h-1190l-32 -185h921l-1163 -1085l-31 -172h1204l33 184h-925zM1208 1888h-168l-182 -168l-121 168h-170l185 -309h161z" />
    <glyph glyph-name="zcaron" unicode="&#x17e;" horiz-adv-x="1042" 
d="M213 172l834 676l28 160h-928l-30 -168h676l-834 -680l-29 -160h957l31 172h-705zM1026 1544h-168l-182 -168l-121 168h-170l184 -309h162z" />
    <glyph glyph-name="florin" unicode="&#x192;" horiz-adv-x="811" 
d="M199 745l-379 -976h198l388 976h210l60 166h-211l47 125q53 147 116 204.5t150 57.5q54 0 84 -18l64 170q-59 20 -142 20q-138 0 -256 -85t-194 -283l-74 -191h-164l-61 -166h164z" />
    <glyph glyph-name="uni01CD" unicode="&#x1cd;" horiz-adv-x="1417" 
d="M348 379h662l92 -379h231l-377 1444h-182l-883 -1444h226zM453 559l368 637l146 -637h-514zM1270 1909h-168l-182 -168l-121 168h-170l184 -310h162z" />
    <glyph glyph-name="uni01CE" unicode="&#x1ce;" horiz-adv-x="1144" 
d="M756 256q-126 -123 -299 -123q-110 0 -174.5 51.5t-46.5 149.5q12 67 61.5 114t112.5 67t131 20q138 0 252 -70zM1024 633q22 127 -25.5 218t-143.5 134t-230 43q-192 0 -414 -86l-31 -180q180 96 391 96q137 0 204.5 -49.5t49.5 -157.5l-6 -37q-107 66 -293 66
q-67 0 -129 -10t-123 -34.5t-108.5 -62t-82.5 -95.5t-48 -132q-16 -86 7 -157.5t73 -117t117.5 -70t142.5 -24.5q191 0 350 125l188 -106zM1090 1544h-168l-183 -168l-121 168h-169l184 -309h162z" />
    <glyph glyph-name="Aringacute" unicode="&#x1fa;" horiz-adv-x="1382" 
d="M840 1358q-40 0 -69.5 24t-18.5 80q8 44 43.5 74.5t81.5 30.5t71 -31.5t17 -75.5q-8 -43 -43 -72.5t-82 -29.5zM-109 0h226l194 317h674l84 -317h229l-368 1280q55 25 94 72t49 106q15 91 -38 153t-144 62q-86 0 -160.5 -62t-89.5 -151q-21 -113 72 -176zM942 498h-520
l366 600zM1069 2023l-246 -317h148l315 264z" />
    <glyph glyph-name="Aringacute" unicode="&#x1fb;" horiz-adv-x="1382" 
d="M840 1358q-40 0 -69.5 24t-18.5 80q8 44 43.5 74.5t81.5 30.5t71 -31.5t17 -75.5q-8 -43 -43 -72.5t-82 -29.5zM-109 0h226l194 317h674l84 -317h229l-368 1280q55 25 94 72t49 106q15 91 -38 153t-144 62q-86 0 -160.5 -62t-89.5 -151q-21 -113 72 -176zM942 498h-520
l366 600zM1069 2023l-246 -317h148l315 264z" />
    <glyph glyph-name="AEacute" unicode="&#x1fc;" horiz-adv-x="1925" 
d="M991 1442l-1100 -1442h226l293 379h489l-68 -379h1000l33 186h-787l80 457h705l32 180h-704l76 432h766l32 187h-1073zM930 559h-391l510 668zM1532 1917l-246 -318h148l313 265z" />
    <glyph glyph-name="aeacute" unicode="&#x1fd;" horiz-adv-x="1855" 
d="M1651 291q-96 -82 -181.5 -116t-199.5 -34q-118 0 -187 56t-90 153l795 187q8 102 -13.5 190.5t-69.5 157t-130 108t-189 39.5q-234 0 -397 -178q-44 81 -134 126.5t-222 45.5q-93 0 -210.5 -22t-219.5 -62l-31 -180q176 96 391 96q138 0 205.5 -49.5t48.5 -157.5l-6 -37
q-107 66 -293 66q-83 0 -157.5 -17t-142.5 -53t-117 -101t-70 -153q-21 -86 0.5 -159t74 -120t125.5 -73.5t156 -26.5q124 0 251 45t228 132q58 -92 157.5 -136.5t223.5 -42.5q200 0 369 115zM748 256q-126 -123 -299 -123q-110 0 -175 51.5t-47 149.5q12 67 62 114
t113.5 67t132.5 20q135 0 249 -70zM1001 514q17 93 63.5 171t123.5 128.5t170 50.5q107 0 171 -59.5t75 -155.5zM1245 1579l-246 -317h148l313 264z" />
    <glyph glyph-name="Oslashacute" unicode="&#x1fe;" horiz-adv-x="1701" 
d="M70 39l88 -92l180 172q161 -148 414 -148q213 0 403.5 101.5t316.5 274t162 378.5q28 149 -1 279.5t-111 230.5l174 168l-88 92l-183 -172q-166 147 -407 147q-214 0 -405.5 -100.5t-319 -272.5t-164.5 -378q-56 -308 111 -512zM397 369q-87 152 -51 348q19 111 75.5 213
t137.5 178.5t186.5 122.5t217.5 47q182 3 309 -109zM1364 1071q90 -154 53 -354q-26 -149 -111.5 -272t-216.5 -198t-282 -81q-181 -6 -315 108zM1247 1917l-246 -318h148l313 265z" />
    <glyph glyph-name="oslashacute" unicode="&#x1ff;" horiz-adv-x="1173" 
d="M899 696q40 -91 21 -200q-28 -154 -140 -255.5t-264 -101.5q-108 0 -182 62zM270 291q-43 76 -18 205q27 152 136 253t259 101q117 0 184 -64zM-55 6l73 -90l177 160q113 -101 297 -101q230 0 408 149t218 372q34 188 -61 338l131 122l-70 86l-143 -124q-101 96 -301 96
q-230 0 -405 -149t-214 -369q-35 -187 60 -340zM905 1579l-246 -317h148l313 264z" />
    <glyph glyph-name="uni0218" unicode="&#x218;" horiz-adv-x="1175" 
d="M840 358q-10 -59 -43 -100.5t-81.5 -62t-96 -29t-101.5 -8.5q-271 0 -459 217l-36 -217q158 -183 452 -183q100 0 191.5 22.5t172.5 67.5t138 122.5t78 179.5q15 82 1.5 143t-48 112t-83.5 88t-105.5 71t-113.5 61t-108.5 57t-90 59.5t-57 69.5t-10.5 86q15 83 92 128.5
t195 45.5q228 0 350 -184l41 235q-126 129 -366 129q-124 0 -234.5 -40t-191 -123t-99.5 -193q-17 -93 11 -168.5t84.5 -126t128.5 -93.5t145 -80.5t132 -76.5t91 -92t21 -117zM395 -485l170 366h-184l-129 -366h143z" />
    <glyph glyph-name="uni0219" unicode="&#x219;" horiz-adv-x="878" 
d="M557 276q-7 -41 -30 -69.5t-54.5 -41.5t-59 -18.5t-55.5 -5.5q-88 0 -171.5 43.5t-147.5 110.5l-35 -203q76 -53 152 -82.5t182 -29.5q162 0 276 86.5t136 216.5q12 67 -6 121t-56 89.5t-86.5 64.5t-98 52t-90 45.5t-63 51t-16.5 63.5q8 41 51 69.5t107 28.5
q71 0 133.5 -33t130.5 -92l37 205q-106 82 -275 82q-153 0 -254 -70.5t-123 -189.5q-11 -65 8 -116t57.5 -83.5t87.5 -59.5t98.5 -49.5t89.5 -47t61.5 -59.5t13.5 -79zM238 -485l170 366h-185l-129 -366h144z" />
    <glyph glyph-name="uni021A" unicode="&#x21a;" horiz-adv-x="1105" 
d="M561 0l221 1255h430l33 187h-1069l-33 -187h430l-221 -1255h209zM360 -485l170 366h-184l-129 -366h143z" />
    <glyph glyph-name="uni021B" unicode="&#x21b;" horiz-adv-x="722" 
d="M182 262q-21 -124 31.5 -204.5t175.5 -80.5q79 0 133 29l29 168q-48 -22 -94 -22q-48 0 -64 30.5t-8 79.5l100 574h260l31 172h-260l59 342l-495 -514h203zM248 -485l170 366h-185l-129 -366h144z" />
    <glyph glyph-name="uni0237" unicode="&#x237;" horiz-adv-x="405" 
d="M-215 -373q58 -14 111 -14q78 0 135 24t92.5 71t56 103t33.5 134l188 1063h-202l-195 -1102q-10 -61 -38 -95t-85 -34q-33 0 -67 12z" />
    <glyph glyph-name="circumflex" unicode="&#x2c6;" horiz-adv-x="720" 
d="M797 1276l-174 305h-160l-283 -305h158l178 162l125 -162h156z" />
    <glyph glyph-name="caron" unicode="&#x2c7;" horiz-adv-x="718" 
d="M856 1550h-168l-182 -168l-121 168h-170l184 -309h162z" />
    <glyph glyph-name="uni02C9" unicode="&#x2c9;" horiz-adv-x="821" 
d="M856 1241l25 137h-641l-25 -137h641z" />
    <glyph glyph-name="breve" unicode="&#x2d8;" horiz-adv-x="712" 
d="M715 1524q-31 -72 -85.5 -110t-123.5 -38q-72 0 -114 38t-48 110h-129q-6 -137 62.5 -219t195.5 -82q129 0 231.5 83t137.5 218h-127z" />
    <glyph glyph-name="dotaccent" unicode="&#x2d9;" horiz-adv-x="432" 
d="M389 1526q-23 0 -47 -6t-49 -20t-43 -42t-23 -67q-9 -57 24.5 -96.5t90.5 -39.5q60 0 106.5 39.5t57.5 96.5q10 61 -23 98t-94 37z" />
    <glyph glyph-name="ring" unicode="&#x2da;" horiz-adv-x="552" 
d="M397 1247q93 0 165 58t89 149q17 90 -35.5 152.5t-142.5 62.5q-89 0 -162 -61t-90 -152q-15 -88 37.5 -148.5t138.5 -60.5zM457 1563q39 0 68.5 -24t17.5 -83q-9 -44 -42 -73t-81 -29q-46 0 -71.5 28t-16.5 76q6 43 43.5 74t81.5 31z" />
    <glyph glyph-name="ogonek" unicode="&#x2db;" horiz-adv-x="765" 
d="M406 -279q-55 -18 -99 -18q-49 0 -73.5 28.5t-16.5 73.5q7 41 33.5 79.5t93.5 115.5h-145q-42 -45 -63 -69t-48 -68.5t-33 -83.5q-17 -91 39.5 -144t159.5 -53q75 0 158 35z" />
    <glyph glyph-name="tilde" unicode="&#x2dc;" horiz-adv-x="794" 
d="M299 1239q46 94 129 94q39 0 114.5 -38t121.5 -38q136 0 243 226l-121 24q-28 -50 -51 -71t-57 -21q-33 0 -109.5 38t-128.5 38q-155 0 -264 -229z" />
    <glyph glyph-name="hungarumlaut" unicode="&#x2dd;" horiz-adv-x="817" 
d="M311 1239l316 285l-199 37l-272 -322h155zM649 1239l318 281l-199 41l-272 -322h153z" />
    <glyph glyph-name="gravecomb" unicode="&#x300;" 
d="M207 1526l221 -264h154l-144 317z" />
    <glyph glyph-name="acutecomb" unicode="&#x301;" 
d="M412 1579l-246 -317h147l314 264z" />
    <glyph glyph-name="uni0302" unicode="&#x302;" 
d="M797 1276l-174 305h-160l-283 -305h158l178 162l125 -162h156z" />
    <glyph glyph-name="tildecomb" unicode="&#x303;" 
d="M299 1239q46 94 129 94q39 0 114.5 -38t121.5 -38q136 0 243 226l-121 24q-28 -50 -51 -71t-57 -21q-33 0 -109.5 38t-128.5 38q-155 0 -264 -229z" />
    <glyph glyph-name="uni0304" unicode="&#x304;" 
d="M856 1241l25 137h-641l-25 -137h641z" />
    <glyph glyph-name="uni0306" unicode="&#x306;" 
d="M715 1524q-31 -72 -85.5 -110t-123.5 -38q-72 0 -114 38t-48 110h-129q-6 -137 62.5 -219t195.5 -82q129 0 231.5 83t137.5 218h-127z" />
    <glyph glyph-name="uni0307" unicode="&#x307;" 
d="M389 1526q-23 0 -47 -6t-49 -20t-43 -42t-23 -67q-9 -57 24.5 -96.5t90.5 -39.5q60 0 106.5 39.5t57.5 96.5q10 61 -23 98t-94 37z" />
    <glyph glyph-name="uni0308" unicode="&#x308;" 
d="M354 1524q-46 0 -88 -29t-53 -92q-9 -52 18 -86.5t80 -34.5q50 0 93.5 35.5t52.5 85.5q8 51 -20.5 86t-82.5 35zM741 1524q-46 0 -88 -29t-53 -92q-9 -52 18 -86.5t80 -34.5q50 0 93.5 35.5t52.5 85.5q8 51 -20.5 86t-82.5 35z" />
    <glyph glyph-name="uni030A" unicode="&#x30a;" 
d="M397 1247q95 0 166 57.5t88 149.5q17 90 -35.5 152.5t-142.5 62.5q-91 0 -163 -61t-89 -152q-15 -88 37.5 -148.5t138.5 -60.5zM457 1563q38 0 66.5 -24.5t19.5 -82.5q-6 -44 -40 -73t-83 -29q-46 0 -71.5 28t-16.5 76q6 43 43.5 74t81.5 31z" />
    <glyph glyph-name="uni030B" unicode="&#x30b;" 
d="M311 1239l316 285l-199 37l-272 -322h155zM649 1239l318 281l-199 41l-272 -322h153z" />
    <glyph glyph-name="uni030C" unicode="&#x30c;" 
d="M856 1544h-168l-182 -168l-121 168h-170l184 -309h162z" />
    <glyph glyph-name="uni030F" unicode="&#x30f;" 
d="M207 1526l221 -264h154l-144 317zM514 1526l221 -264h154l-144 317z" />
    <glyph glyph-name="uni0311" unicode="&#x311;" 
d="M289 1223q30 71 84.5 109t124.5 38q72 0 113.5 -37.5t47.5 -109.5h129q6 137 -62.5 219t-195.5 82q-129 0 -231 -83t-137 -218h127z" />
    <glyph glyph-name="uni0312" unicode="&#x312;" 
d="M475 1681l-262 -565h227l197 565h-162z" />
    <glyph glyph-name="uni0326" unicode="&#x326;" 
d="M176 -475l170 366h-184l-129 -366h143z" />
    <glyph glyph-name="uni0327" unicode="&#x327;" 
d="M205 -143l110 143h-135l-160 -188l33 -31q46 16 74 16q38 0 57 -15.5t13 -45.5q-6 -31 -33 -52.5t-55.5 -28.5t-55.5 -7q-51 0 -102 22l-45 -88q81 -43 170 -43q58 0 114.5 16t105 58.5t60.5 103.5q12 74 -32.5 107t-110.5 33h-8z" />
    <glyph glyph-name="uni0328" unicode="&#x328;" 
d="M406 -279q-55 -18 -99 -18q-49 0 -73.5 28.5t-16.5 73.5q7 41 33.5 79.5t93.5 115.5h-145q-42 -45 -63 -69t-48 -68.5t-33 -83.5q-17 -91 39.5 -144t159.5 -53q75 0 158 35z" />
    <glyph glyph-name="uni0374" unicode="&#x374;" horiz-adv-x="874" 
d="M596 1663l-268 -440h145l401 440h-278z" />
    <glyph glyph-name="uni0375" unicode="&#x375;" horiz-adv-x="874" 
d="M268 -387l271 442h-148l-399 -442h276z" />
    <glyph glyph-name="uni037E" unicode="&#x37e;" horiz-adv-x="534" 
d="M346 1026q-53 0 -104 -35t-62 -104q-9 -60 24 -101t93 -41q57 0 105.5 41t58.5 101q10 59 -23.5 99t-91.5 40zM78 -293l260 565h-229l-195 -565h164z" />
    <glyph glyph-name="tonos" unicode="&#x384;" horiz-adv-x="874" 
d="M596 1663l-246 -317h146l378 317h-278z" />
    <glyph glyph-name="dieresistonos" unicode="&#x385;" horiz-adv-x="991" 
d="M373 1583q-53 0 -95 -37.5t-51 -89.5q-8 -45 14 -86t87 -41q56 0 98 36t51 91q9 52 -19.5 89.5t-84.5 37.5zM688 1651l-231 -318h141l358 318h-268zM840 1456q-5 -27 -0.5 -53.5t30 -50t70.5 -23.5q56 0 98.5 36t51.5 91q9 52 -20 89.5t-85 37.5q-53 0 -94.5 -37.5
t-50.5 -89.5z" />
    <glyph glyph-name="Alphatonos" unicode="&#x386;" horiz-adv-x="1529" 
d="M461 379h661l92 -379h232l-377 1444h-182l-883 -1444h225zM565 559l369 637l145 -637h-514zM346 1559l-246 -318h146l379 318h-279z" />
    <glyph glyph-name="anoteleia" unicode="&#x387;" horiz-adv-x="614" 
d="M362 860q-22 0 -44.5 -5.5t-49 -19.5t-46 -43.5t-25.5 -70.5q-9 -60 23.5 -100.5t92.5 -40.5q61 0 107 40t57 101q10 59 -23.5 99t-91.5 40z" />
    <glyph glyph-name="Epsilontonos" unicode="&#x388;" horiz-adv-x="1390" 
d="M410 186l79 457h705l33 180h-705l76 432h766l33 187h-979l-254 -1442h999l33 186h-786zM162 1559l-246 -318h145l379 318h-278z" />
    <glyph glyph-name="Etatonos" unicode="&#x389;" horiz-adv-x="1593" 
d="M440 1444l-254 -1444h211l113 637h737l-112 -637h208l254 1444h-208l-109 -615h-737l108 615h-211zM162 1559l-246 -318h145l379 318h-278z" />
    <glyph glyph-name="Iotatonos" unicode="&#x38a;" horiz-adv-x="520" 
d="M270 0l254 1442h-211l-254 -1442h211zM80 1559l-246 -318h146l378 318h-278z" />
    <glyph glyph-name="Omicrontonos" unicode="&#x38c;" horiz-adv-x="1779" 
d="M827 -29q183 0 342 62.5t269.5 167.5t181 240t92.5 284q23 152 -10 288.5t-112 237.5t-207 160t-287 59q-214 0 -405.5 -100.5t-319 -272.5t-164.5 -378q-27 -154 5 -292t113 -238.5t211.5 -159t290.5 -58.5zM1059 1280q107 0 191.5 -29t137 -80.5t84.5 -122.5t35 -154.5
t-12 -176.5q-21 -113 -79.5 -215t-141.5 -177t-190.5 -119t-221.5 -44q-155 0 -266 75t-156 203.5t-18 284.5q27 153 117.5 279.5t227.5 201t292 74.5zM268 1559l-245 -318h145l379 318h-279z" />
    <glyph glyph-name="Upsilontonos" unicode="&#x38e;" horiz-adv-x="1525" 
d="M885 0l100 569l705 873h-236l-534 -678l-299 678h-246l399 -875l-100 -567h211zM84 1559l-246 -318h146l378 318h-278z" />
    <glyph glyph-name="Omegatonos" unicode="&#x38f;" horiz-adv-x="1787" 
d="M936 0h620l33 186h-358q168 95 282 251.5t146 336.5q27 154 -4 284.5t-110 220.5t-202.5 140.5t-275.5 50.5q-200 0 -379.5 -85.5t-305 -244.5t-161.5 -360q-31 -181 27 -340t192 -254h-358l-33 -186h631l33 190q-161 93 -236 238t-41 334q40 230 203.5 374t390.5 144
t338.5 -144.5t71.5 -373.5q-63 -358 -471 -572zM305 1559l-246 -318h146l379 318h-279z" />
    <glyph glyph-name="iotadieresistonos" unicode="&#x390;" horiz-adv-x="706" 
d="M344 0l178 1008h-205l-178 -1008h205zM227 1583q-53 0 -94.5 -37.5t-50.5 -89.5q-5 -27 -0.5 -53.5t30 -50t70.5 -23.5q56 0 98.5 36t51.5 91q9 52 -20 89.5t-85 37.5zM543 1651l-232 -318h142l358 318h-268zM694 1456q-8 -45 14 -86t87 -41q56 0 98 36t51 91
q9 52 -19.5 89.5t-84.5 37.5q-53 0 -95 -37.5t-51 -89.5z" />
    <glyph glyph-name="Alpha" unicode="&#x391;" horiz-adv-x="1417" 
d="M348 379h662l92 -379h231l-377 1444h-182l-883 -1444h226zM453 559l368 637l146 -637h-514z" />
    <glyph glyph-name="Beta" unicode="&#x392;" horiz-adv-x="1333" 
d="M313 1442l-254 -1442h514q147 0 264.5 31t195 86t123.5 125.5t61 154.5q26 139 -40.5 233.5t-228.5 119.5q109 38 179 124.5t90 204.5q14 77 -2.5 139t-56 103t-99.5 69t-130 40t-151 12h-465zM414 819l78 445h260q137 0 203 -55t46 -165q-18 -102 -102 -163.5
t-227 -61.5h-258zM301 180l82 467h264q215 0 298.5 -58t64.5 -175q-42 -234 -387 -234h-322z" />
    <glyph glyph-name="Gamma" unicode="&#x393;" horiz-adv-x="1146" 
d="M272 0l222 1255h759l33 187h-973l-254 -1442h213z" />
    <glyph glyph-name="Epsilon" unicode="&#x395;" horiz-adv-x="1286" 
d="M305 186l80 457h705l32 180h-704l76 432h766l32 187h-979l-254 -1442h1000l33 186h-787z" />
    <glyph glyph-name="Zeta" unicode="&#x396;" horiz-adv-x="1308" 
d="M238 184l1153 1086l30 172h-1190l-32 -185h921l-1163 -1085l-31 -172h1204l33 184h-925z" />
    <glyph glyph-name="Eta" unicode="&#x397;" horiz-adv-x="1468" 
d="M313 1444l-254 -1444h211l113 637h737l-112 -637h209l253 1444h-208l-109 -615h-737l108 615h-211z" />
    <glyph glyph-name="Theta" unicode="&#x398;" horiz-adv-x="1703" 
d="M752 -29q147 0 279.5 40.5t233.5 111.5t179.5 166.5t126.5 206t65 229.5q23 152 -10 288.5t-112 237.5t-207 160t-287 59q-214 0 -405.5 -100.5t-319 -272.5t-164.5 -378t29.5 -377t222 -271t369.5 -100zM983 1280q107 0 191.5 -29t137 -80.5t84.5 -122.5t35 -154.5
t-12 -176.5q-21 -113 -79.5 -215t-141.5 -177t-190.5 -119t-221.5 -44q-155 0 -266 75t-156 203.5t-18 284.5q27 153 117.5 279.5t227.5 201t292 74.5zM524 631h684l35 198h-684z" />
    <glyph glyph-name="Iota" unicode="&#x399;" horiz-adv-x="520" 
d="M270 0l254 1442h-211l-254 -1442h211z" />
    <glyph glyph-name="Kappa" unicode="&#x39a;" horiz-adv-x="1214" 
d="M418 840l106 602h-211l-254 -1442h211l121 688l467 -688h264l-522 776l725 666h-264z" />
    <glyph glyph-name="Lambda" unicode="&#x39b;" horiz-adv-x="1380" 
d="M1065 0l-262 1196l-686 -1196h-226l865 1444h182l356 -1444h-229z" />
    <glyph glyph-name="Mu" unicode="&#x39c;" horiz-adv-x="1583" 
d="M360 1102l388 -797l667 797l-194 -1102h209l251 1434h-208l-668 -811l-385 811h-211l-252 -1434h209z" />
    <glyph glyph-name="Nu" unicode="&#x39d;" horiz-adv-x="1538" 
d="M1139 328l-621 1106h-207l-252 -1434h207l197 1116l622 -1116h201l254 1442h-205z" />
    <glyph glyph-name="Xi" unicode="&#x39e;" horiz-adv-x="1261" 
d="M272 1235h959l37 207h-959zM35 0h999l37 207h-999zM227 633h836l37 201h-836z" />
    <glyph glyph-name="Omicron" unicode="&#x39f;" horiz-adv-x="1703" 
d="M752 -29q147 0 279.5 40.5t233.5 111.5t179.5 166.5t126.5 206t65 229.5q23 152 -10 288.5t-112 237.5t-207 160t-287 59q-214 0 -405.5 -100.5t-319 -272.5t-164.5 -378t29.5 -377t222 -271t369.5 -100zM983 1280q107 0 191.5 -29t137 -80.5t84.5 -122.5t35 -154.5
t-12 -176.5q-21 -113 -79.5 -215t-141.5 -177t-190.5 -119t-221.5 -44q-155 0 -266 75t-156 203.5t-18 284.5q27 153 117.5 279.5t227.5 201t292 74.5z" />
    <glyph glyph-name="Pi" unicode="&#x3a0;" horiz-adv-x="1429" 
d="M313 1444l-254 -1444h211l222 1251h698l-221 -1251h211l254 1444h-1121z" />
    <glyph glyph-name="Rho" unicode="&#x3a1;" horiz-adv-x="1232" 
d="M313 1442l-254 -1446h213l97 549h262q154 0 285 52.5t221.5 158t115.5 248.5q36 205 -86 321.5t-362 116.5h-492zM401 727l93 530h260q162 0 235.5 -66t50.5 -198q-23 -127 -122.5 -196.5t-258.5 -69.5h-258z" />
    <glyph glyph-name="Sigma" unicode="&#x3a3;" horiz-adv-x="1286" 
d="M176 1270l381 -545l-600 -553l-31 -172h1192l33 184h-913l581 541l-379 532h887l33 185h-1153z" />
    <glyph glyph-name="Tau" unicode="&#x3a4;" horiz-adv-x="1105" 
d="M561 0l221 1255h430l33 187h-1069l-33 -187h430l-221 -1255h209z" />
    <glyph glyph-name="Upsilon" unicode="&#x3a5;" horiz-adv-x="1302" 
d="M662 0l100 569l704 873h-235l-535 -678l-299 678h-245l399 -875l-100 -567h211z" />
    <glyph glyph-name="Phi" unicode="&#x3a6;" horiz-adv-x="1802" 
d="M1167 1452h-206l-21 -117q-40 0 -98 -10q-300 -36 -489 -202.5t-230 -403.5q-27 -155 18.5 -280.5t170.5 -211.5t317 -110q44 -8 94 -11l-21 -116h207l21 116q58 3 98 11q298 40 485 205t228 401q41 232 -88.5 399t-411.5 203q-48 10 -94 10zM1114 1147
q236 -17 339 -131.5t71 -298.5q-33 -183 -175.5 -295t-385.5 -129zM756 293q-235 17 -343 131t-75 299q33 183 181.5 297.5t387.5 126.5z" />
    <glyph glyph-name="Chi" unicode="&#x3a7;" horiz-adv-x="1312" 
d="M444 1442h-245l368 -705l-647 -737h244l498 578l294 -578h242l-383 741l610 701h-237l-465 -543z" />
    <glyph glyph-name="Psi" unicode="&#x3a8;" horiz-adv-x="1671" 
d="M1384 901q-38 -220 -150.5 -327t-309.5 -107l172 975h-209l-172 -975q-196 0 -269 107t-34 327l94 541h-209l-94 -533q-27 -163 -8 -283t84.5 -198t166.5 -116t236 -38l-49 -274h211l49 274q279 0 461 158.5t239 478.5l95 531h-209z" />
    <glyph glyph-name="uni03A9" unicode="&#x3a9;" horiz-adv-x="1777" 
d="M926 0h620l33 186h-358q168 95 282 251.5t146 336.5q27 154 -4 284.5t-110 220.5t-202.5 140.5t-275.5 50.5q-200 0 -379.5 -85.5t-305 -244.5t-161.5 -360q-31 -181 27 -340t192 -254h-358l-33 -186h631l32 190q-161 93 -235.5 237.5t-40.5 334.5q40 230 203.5 374
t390.5 144t338.5 -144.5t71.5 -373.5q-63 -358 -472 -572z" />
    <glyph glyph-name="Iotadieresis" unicode="&#x3aa;" horiz-adv-x="569" 
d="M293 0l254 1442h-211l-254 -1442h211zM303 1880q-47 0 -94.5 -30.5t-58.5 -98.5q-10 -57 20.5 -93t87.5 -36q55 0 100.5 36.5t55.5 92.5q9 55 -23.5 92t-87.5 37zM702 1880q-47 0 -94.5 -30.5t-58.5 -98.5q-10 -57 20.5 -93t87.5 -36q55 0 100.5 36.5t55.5 92.5
q9 55 -23.5 92t-87.5 37z" />
    <glyph glyph-name="Upsilondieresis" unicode="&#x3ab;" horiz-adv-x="1302" 
d="M662 0l100 569l704 873h-235l-535 -678l-299 678h-245l399 -875l-100 -567h211zM688 1880q-29 0 -57 -9t-56 -40t-36 -80q-10 -56 20 -91.5t88 -37.5q58 -1 101.5 35.5t54.5 93.5q9 55 -24.5 92t-90.5 37zM1090 1880q-29 0 -57 -9t-56.5 -40t-36.5 -80
q-10 -56 20.5 -91.5t88.5 -37.5q58 -1 101 35t54 94q9 55 -24 92t-90 37z" />
    <glyph glyph-name="alphatonos" unicode="&#x3ac;" horiz-adv-x="1265" 
d="M272 524q27 157 132 245.5t255 88.5q143 0 220.5 -104.5t52.5 -247.5q-27 -143 -151.5 -248.5t-276.5 -105.5q-142 0 -201.5 105t-30.5 267zM1036 0l178 1008h-204l-31 -170q-58 97 -136.5 145.5t-195.5 48.5q-145 0 -271 -72.5t-206.5 -192t-106.5 -263.5
q-25 -143 14.5 -262.5t140 -192t243.5 -72.5q238 0 401 197zM934 1663l-246 -317h146l378 317h-278z" />
    <glyph glyph-name="epsilontonos" unicode="&#x3ad;" horiz-adv-x="946" 
d="M231 299q-8 -44 8.5 -74.5t51.5 -45.5t70 -21t75 -6q122 0 273 67l10 -172q-168 -70 -328 -70q-113 0 -202.5 38.5t-135 108.5t-30.5 157q17 91 89.5 156t188.5 91q-88 34 -125.5 98t-23.5 142q23 123 141.5 193.5t279.5 70.5q147 0 287 -67l-84 -177q-94 72 -223 72
q-80 0 -135.5 -30.5t-65.5 -84.5q-11 -62 44 -97.5t163 -35.5h74l-29 -161h-82q-132 0 -206 -43.5t-85 -108.5zM778 1663l-246 -317h146l379 317h-279z" />
    <glyph glyph-name="etatonos" unicode="&#x3ae;" horiz-adv-x="1148" 
d="M1038 639q16 102 2.5 176t-56 121.5t-101.5 70.5t-135 23q-198 0 -351 -153l-184 131l-178 -1008h205l102 578q11 60 35.5 107.5t55 77.5t68 50.5t72.5 28.5t70 8q95 0 149.5 -65t30.5 -207l-102 -578h205zM918 1663l-246 -317h145l379 317h-278z" />
    <glyph glyph-name="iotatonos" unicode="&#x3af;" horiz-adv-x="458" 
d="M240 0l178 1008h-205l-178 -1008h205zM557 1663l-246 -317h146l379 317h-279z" />
    <glyph glyph-name="upsilondieresistonos" unicode="&#x3b0;" horiz-adv-x="1128" 
d="M1092 1010h-205l-105 -596q-19 -109 -98 -183.5t-188 -74.5q-238 0 -193 260l105 594h-205l-99 -557q-42 -234 49 -355t316 -121q222 0 351.5 119.5t172.5 362.5zM473 1583q-53 0 -94.5 -37.5t-50.5 -89.5q-5 -27 -0.5 -53.5t30 -50t70.5 -23.5q56 0 98.5 36t51.5 91
q9 52 -20 89.5t-85 37.5zM788 1651l-231 -318h141l359 318h-269zM940 1456q-5 -27 -0.5 -53.5t30 -50t70.5 -23.5q56 0 98.5 36t51.5 91q9 52 -20 89.5t-85 37.5q-53 0 -94.5 -37.5t-50.5 -89.5z" />
    <glyph glyph-name="alpha" unicode="&#x3b1;" horiz-adv-x="1265" 
d="M272 524q27 157 132 245.5t255 88.5q143 0 220.5 -104.5t52.5 -247.5q-27 -143 -151.5 -248.5t-276.5 -105.5q-142 0 -201.5 105t-30.5 267zM1036 0l178 1008h-204l-31 -170q-58 97 -136.5 145.5t-195.5 48.5q-145 0 -271 -72.5t-206.5 -192t-106.5 -263.5
q-25 -143 14.5 -262.5t140 -192t243.5 -72.5q238 0 401 197z" />
    <glyph glyph-name="beta" unicode="&#x3b2;" horiz-adv-x="1249" 
d="M328 504q-15 -86 5 -154.5t65.5 -109.5t105 -62.5t127.5 -21.5q117 0 208 77t113 195q22 125 -58 199t-265 84l24 139q139 21 226.5 84.5t107.5 169.5q20 107 -42 166t-177 59q-144 0 -234 -88.5t-114 -220.5zM1157 418q-19 -108 -70.5 -193t-124.5 -137.5t-158.5 -80
t-178.5 -27.5q-120 0 -211.5 49.5t-145.5 138.5l-94 -543h-205l246 1397q18 101 65 187.5t119.5 153.5t176.5 105.5t227 38.5q209 0 316 -105t77 -274q-21 -117 -100 -196t-211 -133q156 -17 228 -121t44 -260z" />
    <glyph glyph-name="gamma" unicode="&#x3b3;" horiz-adv-x="1017" 
d="M449 -375l67 385l590 996h-215l-436 -775l-162 775h-221l239 -1000l-67 -381h205z" />
    <glyph glyph-name="delta" unicode="&#x3b4;" horiz-adv-x="1220" 
d="M672 819q162 0 229.5 -87.5t38.5 -235.5q-28 -136 -140.5 -240t-258.5 -104q-99 0 -168.5 48.5t-96.5 127t-10 170.5q25 140 140 230.5t266 90.5zM621 1335h526l31 172h-834l-31 -172l375 -352q-146 13 -282.5 -49.5t-228.5 -179t-116 -256.5q-20 -109 5.5 -205.5
t85 -165.5t152.5 -109.5t204 -40.5q150 0 287.5 68.5t231 189t118.5 265.5q8 42 8.5 82.5t-6 77t-17 70t-27.5 66t-34.5 60.5t-42 57.5t-46.5 54t-50 52.5z" />
    <glyph glyph-name="epsilon" unicode="&#x3b5;" horiz-adv-x="894" 
d="M231 299q-8 -44 8.5 -74.5t51.5 -45.5t70 -21t75 -6q122 0 273 67l10 -172q-168 -70 -328 -70q-113 0 -202.5 38.5t-135 108.5t-30.5 157q17 91 89.5 156t188.5 91q-88 34 -125.5 98t-23.5 142q23 123 141.5 193.5t279.5 70.5q147 0 287 -67l-84 -177q-94 72 -223 72
q-80 0 -135.5 -30.5t-65.5 -84.5q-11 -62 44 -97.5t163 -35.5h74l-29 -161h-82q-132 0 -206 -43.5t-85 -108.5z" />
    <glyph glyph-name="zeta" unicode="&#x3b6;" horiz-adv-x="851" 
d="M987 1313q-179 -102 -334 -241.5t-261.5 -301.5t-133.5 -311q-21 -125 31.5 -204.5t197.5 -107.5q144 -29 198.5 -105.5t35.5 -184.5q-15 -88 -78 -199l-188 18q50 79 61 152q11 59 -15 99t-118 57q-188 35 -276.5 150t-53.5 317q40 233 226.5 461t502.5 425h-479l31 170
h688z" />
    <glyph glyph-name="eta" unicode="&#x3b7;" horiz-adv-x="1142" 
d="M1038 639q16 102 2.5 176t-56 121.5t-101.5 70.5t-135 23q-198 0 -351 -153l-184 131l-178 -1008h205l102 578q11 60 35.5 107.5t55 77.5t68 50.5t72.5 28.5t70 8q95 0 149.5 -65t30.5 -207l-102 -578h205z" />
    <glyph glyph-name="theta" unicode="&#x3b8;" horiz-adv-x="1226" 
d="M1188 752q18 104 20.5 199t-10.5 180t-45.5 153.5t-82 118.5t-122.5 77t-164 27q-117 0 -218.5 -46t-174.5 -121t-131.5 -177.5t-94 -209.5t-56.5 -222q-13 -74 -17.5 -147t1 -148.5t22.5 -142t50 -125t79 -100.5t114.5 -66.5t153.5 -24.5q122 0 226.5 48.5t177 125.5
t129.5 181.5t90 207t53 212.5zM342 854q13 59 35.5 120t59 127.5t80.5 117t105.5 83.5t129.5 33q56 0 100.5 -22.5t71.5 -60.5t46.5 -87.5t25 -103t7.5 -107.5t-6 -100h-655zM967 686q-14 -65 -35.5 -131t-58.5 -140.5t-82.5 -131t-110 -94t-137.5 -37.5q-134 0 -199 143.5
t-33 390.5h656z" />
    <glyph glyph-name="iota" unicode="&#x3b9;" horiz-adv-x="458" 
d="M240 0l178 1008h-205l-178 -1008h205z" />
    <glyph glyph-name="kappa" unicode="&#x3ba;" horiz-adv-x="983" 
d="M346 602l72 406h-205l-178 -1008h205l82 465l309 -465h243l-358 545l520 463h-254z" />
    <glyph glyph-name="lambda" unicode="&#x3bb;" horiz-adv-x="1044" 
d="M502 1049l-590 -1049h221l432 813l174 -813h215l-290 1214q-10 42 -15.5 61t-18 57t-23.5 57t-30.5 45.5t-41 39.5t-52 23t-67.5 10q-71 0 -178 -28l18 -164q72 35 104 35q89 0 142 -299v-2z" />
    <glyph glyph-name="uni03BC" unicode="&#x3bc;" horiz-adv-x="1179" 
d="M184 -375h-204l243 1385h205l-102 -578q-24 -136 30 -205t146 -69q110 0 194.5 71t108.5 203l102 578h205l-178 -1010l-184 131q-54 -68 -129 -109.5t-154 -41.5q-71 0 -122.5 35.5t-74.5 105.5z" />
    <glyph glyph-name="nu" unicode="&#x3bd;" horiz-adv-x="1036" 
d="M616 -2l598 1008h-215l-436 -775l-162 775h-221l240 -1008h196z" />
    <glyph glyph-name="xi" unicode="&#x3be;" horiz-adv-x="854" 
d="M43 393q-6 -49 -8 -89.5t8.5 -75.5t24 -63t38 -51.5t49 -41.5t58.5 -34t66.5 -27.5t72.5 -22.5q48 -13 81.5 -31t48 -35.5t22.5 -36t6 -34t-2 -29.5q-12 -62 -62 -146l189 -18q62 110 76 203q17 108 -32.5 179t-205.5 107q-128 30 -184.5 95.5t-36.5 175.5
q14 76 53.5 130t102 85t140 45t175.5 14l29 170q-171 0 -240 55t-51 156q47 256 504 256l32 178h-690l-31 -172h254q-116 -35 -187 -107.5t-89 -166.5q-15 -93 29.5 -167.5t140.5 -115.5q-141 -30 -249 -137t-132 -248z" />
    <glyph glyph-name="omicron" unicode="&#x3bf;" horiz-adv-x="1224" 
d="M508 -23q173 0 312 72.5t221 190.5t108 266q25 145 -24 265.5t-162 190.5t-267 70q-153 0 -290 -70.5t-228 -192t-117 -267.5q-25 -145 23 -265t159.5 -190t264.5 -70zM664 860q168 0 238.5 -99.5t39.5 -256.5q-28 -145 -142.5 -248.5t-258.5 -103.5q-143 0 -222 102
t-51 252q25 151 135.5 252.5t260.5 101.5z" />
    <glyph glyph-name="pi" unicode="&#x3c0;" horiz-adv-x="1122" 
d="M1083 1008h-870l-178 -1008h205l147 840h461l-148 -840h205z" />
    <glyph glyph-name="rho" unicode="&#x3c1;" horiz-adv-x="1253" 
d="M586 152q164 0 264 100.5t123 253.5q22 147 -52 247.5t-219 100.5q-142 0 -255.5 -102t-141.5 -258q-25 -148 55 -245t226 -97zM113 506q26 153 116.5 273.5t224 186.5t285.5 66q151 0 260 -65.5t157.5 -186t21.5 -274.5q-26 -143 -106.5 -262t-207 -191.5t-272.5 -72.5
q-230 0 -336 186l-94 -541h-205z" />
    <glyph glyph-name="uni03C2" unicode="&#x3c2;" horiz-adv-x="1026" 
d="M657 -342q66 113 78 197q10 62 -0.5 108.5t-41.5 79t-68.5 54.5t-94.5 44q-42 17 -75 36t-64.5 44t-51 53.5t-34.5 66t-15 80.5t7 97q23 137 117.5 237.5t226.5 100.5q59 0 120 -16.5t103 -44.5l80 155q-111 78 -274 78q-218 0 -378.5 -146t-199.5 -368
q-33 -191 40.5 -325.5t238.5 -196.5q96 -35 135.5 -68t30.5 -86q-14 -78 -68 -162z" />
    <glyph glyph-name="sigma" unicode="&#x3c3;" horiz-adv-x="1288" 
d="M1018 836q85 -59 115 -151.5t12 -197.5q-39 -217 -219.5 -363.5t-417.5 -146.5q-152 0 -264 69.5t-160.5 187t-24.5 255.5q18 100 74 192.5t140.5 165.5t203.5 117t252 44h612l-30 -172h-293zM541 152q148 0 258.5 97t140.5 243q31 151 -45 247.5t-229 96.5
q-152 0 -263.5 -98.5t-138.5 -243.5q-24 -136 56.5 -239t220.5 -103z" />
    <glyph glyph-name="tau" unicode="&#x3c4;" horiz-adv-x="790" 
d="M111 1008h733l-31 -172h-270l-99 -555q-23 -129 78 -129q50 0 88 24l-28 -170q-69 -29 -136 -29q-117 0 -172.5 75t-31.5 210l100 574h-262z" />
    <glyph glyph-name="upsilon" unicode="&#x3c5;" horiz-adv-x="1128" 
d="M1092 1010h-205l-105 -596q-19 -109 -98 -183.5t-188 -74.5q-238 0 -193 260l105 594h-205l-99 -557q-42 -234 49 -355t316 -121q222 0 351.5 119.5t172.5 362.5z" />
    <glyph glyph-name="phi" unicode="&#x3c6;" horiz-adv-x="1517" 
d="M793 154q194 14 306.5 113t147.5 292q7 41 8.5 82t-6 83.5t-24.5 74.5t-50 52.5t-79 20.5q-177 0 -236 -333zM557 -18q-122 9 -219.5 50t-164.5 111t-93 175t-4 233q26 142 109.5 270.5t209.5 220.5h221q-289 -229 -333 -475q-32 -181 48.5 -292t256.5 -123l53 301
q9 54 17.5 94.5t22 92.5t28.5 91.5t37 83.5t47 76.5t59.5 63t74.5 50t91 31t110 11.5q194 0 278.5 -130t45.5 -350q-45 -259 -230.5 -412t-457.5 -171l-64 -353h-204z" />
    <glyph glyph-name="chi" unicode="&#x3c7;" horiz-adv-x="1034" 
d="M856 1006l-336 -451l-174 451h-231l258 -646l-525 -735h222l374 541l185 -541h231l-266 744l485 637h-223z" />
    <glyph glyph-name="psi" unicode="&#x3c8;" horiz-adv-x="1495" 
d="M487 -375h205l62 355q87 0 166 17t152.5 55t131 95t100 142t60.5 192l94 529h-205l-94 -531q-15 -88 -56 -153.5t-95.5 -101t-110.5 -52t-113 -16.5l238 1343h-207l-237 -1343q-322 0 -263 327l93 527h-205l-94 -533q-42 -241 76.5 -369t363.5 -128z" />
    <glyph glyph-name="omega" unicode="&#x3c9;" horiz-adv-x="1605" 
d="M942 750h-207l-43 -242q-11 -60 -30.5 -118.5t-51 -118.5t-80.5 -97t-108 -37q-98 0 -140 106.5t-14 264.5q25 145 107 273t239 261h-223q-274 -227 -328 -532q-27 -151 1 -271.5t111.5 -191t211.5 -70.5q108 0 197 49t151 136q31 -84 102 -134.5t179 -50.5
q193 0 334 150t182 383q55 312 -139 532h-226q109 -134 147 -262.5t13 -271.5q-30 -163 -109 -267t-180 -104q-41 0 -72.5 18t-55 61t-26 114.5t14.5 177.5z" />
    <glyph glyph-name="iotadieresis" unicode="&#x3ca;" horiz-adv-x="540" 
d="M258 0l178 1008h-205l-178 -1008h205zM233 1524q-46 0 -88 -29t-53 -92q-9 -52 18 -86.5t80 -34.5q50 0 93.5 35.5t52.5 85.5q8 51 -20.5 86t-82.5 35zM621 1524q-47 0 -89 -29t-53 -92q-9 -52 18.5 -86.5t80.5 -34.5q50 0 93 35.5t52 85.5q8 51 -20 86t-82 35z" />
    <glyph glyph-name="upsilondieresis" unicode="&#x3cb;" horiz-adv-x="1128" 
d="M547 1524q-46 0 -88 -29t-53 -92q-9 -52 18 -86.5t80 -34.5q50 0 93 35.5t52 85.5q8 51 -20 86t-82 35zM934 1524q-46 0 -88 -29t-53 -92q-9 -52 18 -86.5t80 -34.5q50 0 93 35.5t52 85.5q8 51 -20 86t-82 35zM1092 1010h-205l-105 -596q-19 -109 -98 -183.5t-188 -74.5
q-238 0 -193 260l105 594h-205l-99 -557q-42 -234 49 -355t316 -121q222 0 351.5 119.5t172.5 362.5z" />
    <glyph glyph-name="omicrontonos" unicode="&#x3cc;" horiz-adv-x="1224" 
d="M508 -23q173 0 312 72.5t221 190.5t108 266q25 145 -24 265.5t-162 190.5t-267 70q-153 0 -290 -70.5t-228 -192t-117 -267.5q-25 -145 23 -265t159.5 -190t264.5 -70zM664 860q168 0 238.5 -99.5t39.5 -256.5q-28 -145 -142.5 -248.5t-258.5 -103.5q-143 0 -222 102
t-51 252q25 151 135.5 252.5t260.5 101.5zM969 1663l-246 -317h145l379 317h-278z" />
    <glyph glyph-name="upsilontonos" unicode="&#x3cd;" horiz-adv-x="1128" 
d="M1092 1010h-205l-105 -596q-19 -109 -98 -183.5t-188 -74.5q-238 0 -193 260l105 594h-205l-99 -557q-42 -234 49 -355t316 -121q222 0 351.5 119.5t172.5 362.5zM872 1663l-245 -317h145l379 317h-279z" />
    <glyph glyph-name="omegatonos" unicode="&#x3ce;" horiz-adv-x="1605" 
d="M942 750h-207l-43 -242q-11 -60 -30.5 -118.5t-51 -118.5t-80.5 -97t-108 -37q-98 0 -140 106.5t-14 264.5q25 145 107 273t239 261h-223q-274 -227 -328 -532q-27 -151 1 -271.5t111.5 -191t211.5 -70.5q108 0 197 49t151 136q31 -84 102 -134.5t179 -50.5
q193 0 334 150t182 383q55 312 -139 532h-226q109 -134 147 -262.5t13 -271.5q-30 -163 -109 -267t-180 -104q-41 0 -72.5 18t-55 61t-26 114.5t14.5 177.5zM1110 1663l-246 -317h146l379 317h-279z" />
    <glyph glyph-name="uni03CF" unicode="&#x3cf;" horiz-adv-x="1214" 
d="M92 -129q91 -60 203.5 -99.5t208.5 -39.5q144 0 260.5 66t130.5 147l-504 743l-121 -688h-211l254 1442h211l-106 -602l643 602h264l-725 -666l522 -776q-15 -86 -72.5 -165t-143 -138.5t-199 -95t-234.5 -35.5q-201 0 -418 100z" />
    <glyph glyph-name="uni03D7" unicode="&#x3d7;" horiz-adv-x="983" 
d="M322 465l-82 -465h-205l178 1008h205l-72 -406l436 406h254l-520 -463l358 -545q-20 -113 -99 -203.5t-194.5 -140t-244.5 -49.5q-91 0 -168.5 21t-167.5 63l37 205q67 -56 153 -89.5t177 -33.5q108 0 191.5 51t96.5 135z" />
    <glyph glyph-name="Wgrave" unicode="&#x1e80;" horiz-adv-x="2064" 
d="M557 315l-168 1127h-225l229 -1444h199l541 1130l155 -1130h195l733 1444h-219l-555 -1127l-150 1129h-196zM895 1864l221 -265h154l-144 318z" />
    <glyph glyph-name="wgrave" unicode="&#x1e81;" horiz-adv-x="1531" 
d="M287 1008h-209l160 -1010h188l373 770l104 -770h195l516 1010h-211l-361 -746l-96 748h-196l-363 -750zM580 1526l221 -264h153l-143 317z" />
    <glyph glyph-name="Wacute" unicode="&#x1e82;" horiz-adv-x="2064" 
d="M557 315l-168 1127h-225l229 -1444h199l541 1130l155 -1130h195l733 1444h-219l-555 -1127l-150 1129h-196zM1384 1917l-245 -318h147l313 265z" />
    <glyph glyph-name="wacute" unicode="&#x1e83;" horiz-adv-x="1531" 
d="M287 1008h-209l160 -1010h188l373 770l104 -770h195l516 1010h-211l-361 -746l-96 748h-196l-363 -750zM1067 1579l-246 -317h148l313 264z" />
    <glyph glyph-name="Wdieresis" unicode="&#x1e84;" horiz-adv-x="2064" 
d="M557 315l-168 1127h-225l229 -1444h199l541 1130l155 -1130h195l733 1444h-219l-555 -1127l-150 1129h-196zM1063 1880q-47 0 -95 -30.5t-59 -98.5q-10 -57 21 -93t88 -36q55 0 100.5 36.5t55.5 92.5q9 55 -23.5 92t-87.5 37zM1462 1880q-47 0 -94.5 -30.5t-58.5 -98.5
q-10 -57 20.5 -93t87.5 -36q55 0 100.5 36.5t55.5 92.5q9 55 -23.5 92t-87.5 37z" />
    <glyph glyph-name="wdieresis" unicode="&#x1e85;" horiz-adv-x="1531" 
d="M287 1008h-209l160 -1010h188l373 770l104 -770h195l516 1010h-211l-361 -746l-96 748h-196l-363 -750zM739 1524q-46 0 -88 -29t-53 -92q-9 -52 18 -86.5t80 -34.5q50 0 93.5 35.5t52.5 85.5q8 51 -20.5 86t-82.5 35zM1126 1524q-46 0 -88 -29t-53 -92q-9 -52 18 -86.5
t80 -34.5q50 0 93.5 35.5t52.5 85.5q8 51 -20.5 86t-82.5 35z" />
    <glyph glyph-name="uni1E9E" unicode="&#x1e9e;" horiz-adv-x="1179" 
d="M573 719q172 -13 254 -82t58 -205q-26 -145 -149 -212.5t-343 -67.5l-28 -158q299 -5 493 107.5t234 340.5q29 163 -59.5 266.5t-266.5 120.5l352 289q35 193 -77.5 306.5t-323.5 113.5q-128 0 -235.5 -38.5t-182.5 -106.5t-122.5 -156.5t-65.5 -192.5l-185 -1044h201
l184 1040q23 135 121 226.5t246 91.5q126 0 193 -59.5t49 -163.5l-322 -277z" />
    <glyph glyph-name="Ygrave" unicode="&#x1ef2;" horiz-adv-x="1302" 
d="M662 0l100 569l704 873h-235l-535 -678l-299 678h-245l399 -875l-100 -567h211zM578 1966l221 -264h153l-143 317z" />
    <glyph glyph-name="ygrave" unicode="&#x1ef3;" horiz-adv-x="1024" 
d="M72 1006l270 -1008l-209 -373h189l790 1381h-213l-426 -773l-182 773h-219zM324 1526l221 -264h153l-143 317z" />
    <glyph glyph-name="endash" unicode="&#x2013;" horiz-adv-x="892" 
d="M881 457l32 184h-901l-32 -184h901z" />
    <glyph glyph-name="emdash" unicode="&#x2014;" horiz-adv-x="1441" 
d="M1430 465l32 184h-1446l-32 -184h1446z" />
    <glyph glyph-name="uni2015" unicode="&#x2015;" horiz-adv-x="1572" 
d="M1495 465l33 184h-1446l-33 -184h1446z" />
    <glyph glyph-name="quoteleft" unicode="&#x2018;" horiz-adv-x="544" 
d="M442 1499l-254 -545h207l205 545h-158z" />
    <glyph glyph-name="quoteright" unicode="&#x2019;" horiz-adv-x="544" 
d="M340 954l256 545h-207l-203 -545h154z" />
    <glyph glyph-name="quotesinglbase" unicode="&#x201a;" horiz-adv-x="587" 
d="M137 -299l256 543h-209l-200 -543h153z" />
    <glyph glyph-name="quotereversed" unicode="&#x201b;" horiz-adv-x="544" 
d="M494 1499h-209l63 -545h156z" />
    <glyph glyph-name="quotedblleft" unicode="&#x201c;" horiz-adv-x="921" 
d="M819 1483l-256 -543h207l203 543h-154zM438 1483l-252 -543h205l203 543h-156z" />
    <glyph glyph-name="quotedblright" unicode="&#x201d;" horiz-adv-x="921" 
d="M338 940l256 543h-207l-203 -543h154zM719 940l252 543h-205l-203 -543h156z" />
    <glyph glyph-name="quotedblbase" unicode="&#x201e;" horiz-adv-x="964" 
d="M137 -299l256 543h-207l-202 -543h153zM518 -299l252 543h-205l-203 -543h156z" />
    <glyph glyph-name="dagger" unicode="&#x2020;" horiz-adv-x="954" 
d="M643 1141l76 336h-160l-45 -336l-283 12l-24 -143l291 14l-170 -868h155l135 868l291 -14l25 143z" />
    <glyph glyph-name="daggerdbl" unicode="&#x2021;" horiz-adv-x="946" 
d="M362 303l-63 -313h154l41 313l280 -10l27 143l-287 -12q77 330 123 692l281 -14l24 145l-285 -12l74 330h-153l-52 -330l-278 12l-25 -145l285 14q-68 -336 -123 -692l-279 12l-26 -143z" />
    <glyph glyph-name="bullet" unicode="&#x2022;" horiz-adv-x="952" 
d="M565 1055q-148 0 -245.5 -89t-118.5 -223q-19 -127 55 -217t201 -90q129 0 234 90t128 219t-51.5 219.5t-202.5 90.5z" />
    <glyph glyph-name="ellipsis" unicode="&#x2026;" horiz-adv-x="1687" 
d="M258 258q-53 0 -104 -35t-62 -104q-9 -60 24 -101t93 -41q57 0 105.5 41t58.5 101q10 59 -23.5 99t-91.5 40zM795 258q-53 0 -104 -35t-62 -104q-9 -60 23.5 -101t92.5 -41q57 0 105.5 41t58.5 101q10 59 -23 99t-91 40zM1333 258q-53 0 -104 -35t-62 -104
q-9 -60 24 -101t93 -41q57 0 105.5 41t58.5 101q10 59 -23.5 99t-91.5 40z" />
    <glyph glyph-name="perthousand" unicode="&#x2030;" horiz-adv-x="2424" 
d="M457 725q86 0 158 29.5t120.5 81t79.5 116.5t43 140q25 156 -49.5 259t-220.5 103t-261.5 -106.5t-142.5 -257.5q-27 -153 48 -259t225 -106zM555 1317q34 0 63.5 -11.5t54.5 -38t32 -70t-3 -107.5q-19 -100 -79 -164t-140 -64t-121 65t-24 165q18 102 76 163.5t141 61.5
zM1130 -23q86 0 158 29.5t121 81t80 116.5t43 140q25 156 -49.5 259.5t-220.5 103.5t-261.5 -107t-142.5 -258q-27 -153 47.5 -259t224.5 -106zM1229 569q34 0 63.5 -11.5t54.5 -38t32 -70t-3 -107.5q-19 -100 -79 -163.5t-140 -63.5t-121 65t-24 164q18 102 76 163.5
t141 61.5zM1903 -23q86 0 158 29.5t120.5 81t79.5 116.5t43 140q25 156 -49.5 259.5t-220.5 103.5t-261.5 -107t-142.5 -258q-27 -153 48 -259t225 -106zM2001 569q34 0 63.5 -11.5t54.5 -38t32 -70t-3 -107.5q-19 -100 -79 -163.5t-140 -63.5t-121 65t-24 164
q18 102 76 163.5t141 61.5zM1411 1436l-1268 -1436h193l1263 1436h-188z" />
    <glyph glyph-name="minute" unicode="&#x2032;" horiz-adv-x="493" 
d="M317 1448l-153 -576h129l215 484l37 92h-228z" />
    <glyph glyph-name="second" unicode="&#x2033;" horiz-adv-x="884" 
d="M164 872h127l215 484l37 92h-226zM711 1448l-154 -576h127l215 484l37 92h-225z" />
    <glyph glyph-name="guilsinglleft" unicode="&#x2039;" horiz-adv-x="684" 
d="M502 143l-199 367l332 373l-156 61l-395 -440l242 -432z" />
    <glyph glyph-name="guilsinglright" unicode="&#x203a;" horiz-adv-x="686" 
d="M371 510l-326 -367l150 -71l391 432l-240 440l-176 -61z" />
    <glyph glyph-name="exclamdbl" unicode="&#x203c;" horiz-adv-x="1077" 
d="M586 1442h-240l-24 -172l-99 -846h127l199 846zM256 248q-23 0 -45 -5.5t-47.5 -18.5t-44.5 -41t-25 -68q-9 -62 24 -100t91 -38q61 0 106.5 38t55.5 100q9 56 -23.5 94.5t-91.5 38.5zM1051 1442h-240l-25 -172l-98 -846h127l199 846zM721 248q-23 0 -45 -5.5
t-47.5 -18.5t-44.5 -41t-25 -68q-9 -62 24 -100t91 -38q61 0 106.5 38t55.5 100q9 56 -23.5 94.5t-91.5 38.5z" />
    <glyph glyph-name="fraction" unicode="&#x2044;" horiz-adv-x="555" 
d="M-209 -111l1231 1696h-188l-1225 -1696h182z" />
    <glyph glyph-name="uni2070" unicode="&#x2070;" horiz-adv-x="710" 
d="M233 1024q28 150 93 243t174 93q101 0 139.5 -92.5t11.5 -249.5q-27 -152 -98.5 -246t-169.5 -94q-102 0 -140 92.5t-10 253.5zM784 1020q35 204 -32 328.5t-230 124.5q-162 0 -274 -125t-148 -328q-37 -208 30.5 -331.5t229.5 -123.5q163 0 275.5 125.5t148.5 329.5z
" />
    <glyph glyph-name="uni2074" unicode="&#x2074;" horiz-adv-x="710" 
d="M252 858q1 2 268 326l2 2l-2 -12q-2 -12 -10.5 -62.5t-23 -132t-21.5 -121.5h-111h-100h-2zM47 733q78 0 207.5 1t187.5 1l-26 -147h157l25 147q12 0 30 -1t29 -1l54 127l-90 -2l106 606h-125l-539 -645z" />
    <glyph glyph-name="uni2075" unicode="&#x2075;" horiz-adv-x="710" 
d="M262 1004q70 26 129 26q86 0 133.5 -47t34.5 -119q-14 -80 -73 -128t-146 -48q-115 0 -193 94l-86 -82q55 -61 114 -90.5t147 -29.5q140 0 239.5 78.5t122.5 207.5q21 122 -50.5 195.5t-193.5 73.5q-53 0 -135 -29l64 231h360l27 109h-467l-107 -397z" />
    <glyph glyph-name="uni2076" unicode="&#x2076;" horiz-adv-x="710" 
d="M670 1450h-140l-254 -303q-90 -110 -128.5 -170t-49.5 -123q-23 -130 51.5 -207.5t212.5 -77.5q129 0 230.5 79.5t124.5 205.5q20 120 -43 191t-180 71q-76 0 -144 -39zM379 674q-26 0 -50.5 5.5t-54 21.5t-44 53t-5.5 92q11 73 71 122.5t144 49.5q81 0 122.5 -47
t27.5 -121q-13 -78 -73 -127t-138 -49z" />
    <glyph glyph-name="uni2077" unicode="&#x2077;" horiz-adv-x="710" 
d="M313 586l545 755l21 109h-600l-21 -111h467l-549 -753h137z" />
    <glyph glyph-name="uni2078" unicode="&#x2078;" horiz-adv-x="710" 
d="M596 1038q27 15 43.5 25t47 35t51 60t28.5 77q20 103 -50.5 170.5t-189.5 67.5t-212.5 -66.5t-110.5 -167.5q-24 -139 102 -199q-184 -75 -209 -221q-20 -106 58.5 -179t212.5 -73q136 0 238 71t122 183q13 77 -21.5 132t-109.5 85zM457 1085q-26 0 -51 6.5t-47.5 21.5
t-32.5 44.5t-2 69.5q12 61 64 101t120 40q69 0 108 -39.5t29 -99.5q-10 -62 -64.5 -103t-123.5 -41zM385 674q-22 0 -43 3t-46 13t-42 26t-26 45t-3 68q11 67 71 111.5t144 44.5q82 0 127 -44t33 -112q-11 -67 -70.5 -111t-144.5 -44z" />
    <glyph glyph-name="uni2079" unicode="&#x2079;" horiz-adv-x="710" 
d="M244 571h137l272 320q72 83 114 148.5t54 136.5q25 134 -50.5 216.5t-217.5 82.5q-132 0 -234.5 -82.5t-125.5 -210.5q-21 -121 44.5 -197t184.5 -76q76 0 143 45zM539 1366q21 0 41.5 -3.5t44 -15.5t40 -30t25 -51t2.5 -76q-10 -73 -72.5 -123.5t-142.5 -50.5
q-83 0 -124 48.5t-29 125.5q14 76 74 126t141 50z" />
    <glyph glyph-name="uni207F" unicode="&#x207f;" horiz-adv-x="806" 
d="M848 1247q3 34 3.5 71.5t-13.5 74t-36 66t-63 47.5t-96 18q-138 0 -244 -109l-127 92l-125 -706h144l71 405q9 52 32 90.5t53.5 59.5t61.5 31t62 10q66 0 105 -46t22 -145l-71 -405h143z" />
    <glyph glyph-name="Euro" unicode="&#x20ac;" horiz-adv-x="1167" 
d="M313 745q15 74 44 148.5t76 147t104.5 128t135 89.5t163.5 34q92 0 151.5 -35t106.5 -106l166 125q-63 101 -153.5 152t-236.5 51q-129 0 -243 -43t-199 -116t-152 -172.5t-109 -209t-63 -227.5q-19 -93 -16.5 -184t17.5 -174t55 -154t95.5 -123t138.5 -81.5t184 -29.5
q288 0 489 207l-121 125q-145 -145 -325 -145q-94 0 -163.5 38t-106 102.5t-50 141.5t-4.5 162h475l27 149h-486z" />
    <glyph glyph-name="uni2113" unicode="&#x2113;" horiz-adv-x="1064" 
d="M498 -29q149 0 305 121l-51 107q-124 -86 -209 -86q-59 0 -79 42t-9 111l51 289q359 330 436 600q41 143 -6 226t-168 83q-75 0 -135.5 -31t-100 -85t-64.5 -116t-38 -134l-90 -506l-207 -172l57 -98l119 100l-22 -133q-19 -65 -14 -122.5t27 -101t73 -69t125 -25.5z
M741 1335q27 0 42.5 -16.5t19 -44t1.5 -55.5t-9 -58q-53 -219 -258 -430l67 389q21 110 57 162.5t80 52.5z" />
    <glyph glyph-name="trademark" unicode="&#x2122;" horiz-adv-x="1796" 
d="M838 1300l24 146h-694l-25 -146h269l-125 -702h159l125 702h267zM1765 598l150 848h-211l-348 -582l-139 582h-218l-149 -848h160l106 602l141 -602h101l354 600l-106 -600h159z" />
    <glyph glyph-name="uni2126" unicode="&#x2126;" horiz-adv-x="1638" 
d="M856 0h621l32 186h-358q168 95 282 251.5t146 336.5q27 154 -4 284.5t-110 220.5t-202.5 140.5t-275.5 50.5q-200 0 -379.5 -85.5t-305 -244.5t-161.5 -360q-31 -181 27 -340t192 -254h-358l-33 -186h631l33 190q-161 93 -236 238t-41 334q40 230 203.5 374t390.5 144
t338.5 -144.5t71.5 -373.5q-63 -358 -471 -572z" />
    <glyph glyph-name="estimated" unicode="&#x212e;" horiz-adv-x="1374" 
d="M1214 516q46 260 -72.5 423t-355.5 163q-119 0 -227.5 -43.5t-190 -119t-138.5 -179.5t-78 -223q-23 -120 -1 -224t75.5 -181.5t147 -122t212.5 -44.5q158 0 282.5 70t251.5 227l-98 66q-99 -134 -198 -192t-218 -58q-160 0 -252 106l58 332h802zM971 629h-539l47 260
q124 106 287 106q157 0 252 -106z" />
    <glyph glyph-name="oneeighth" unicode="&#x215b;" horiz-adv-x="1513" 
d="M145 -111l1231 1696h-188l-1225 -1696h182zM158 586h159l156 874h-123q-67 -67 -182 -143l-27 -152q78 42 138 99zM1237 449q28 15 43.5 25t47 35t51.5 59.5t28 76.5q20 103 -50.5 170.5t-189.5 67.5t-212.5 -66.5t-110.5 -167.5q-24 -138 102 -198q-184 -75 -209 -222
q-20 -106 58.5 -179t212.5 -73q136 0 238 71t122 183q13 77 -21.5 132.5t-109.5 85.5zM1098 496q-27 0 -51 6.5t-47 21t-33 44t-2 69.5q12 61 64 101t120 40q69 0 108 -39.5t29 -99.5q-10 -62 -64.5 -102.5t-123.5 -40.5zM1026 84q-29 0 -55.5 6t-55 21t-42.5 48t-7 81
q11 67 71 111t144 44q82 0 127 -43.5t33 -111.5q-11 -67 -70.5 -111.5t-144.5 -44.5z" />
    <glyph glyph-name="threeeighths" unicode="&#x215c;" horiz-adv-x="1771" 
d="M393 -111l1231 1696h-188l-1225 -1696h182zM1493 449q28 15 43.5 25t47 35t51.5 59.5t28 76.5q20 103 -50.5 170.5t-189.5 67.5t-212.5 -66.5t-110.5 -167.5q-24 -138 102 -198q-184 -75 -209 -222q-20 -106 58.5 -179t212.5 -73q136 0 238 71t122 183q13 77 -21.5 132.5
t-109.5 85.5zM1354 496q-27 0 -51 6.5t-47 21t-33 44t-2 69.5q12 61 64 101t120 40q69 0 108 -39.5t29 -99.5q-10 -62 -64.5 -102.5t-123.5 -40.5zM1282 84q-29 0 -55.5 6t-55 21t-42.5 48t-7 81q11 67 71 111t144 44q82 0 127 -43.5t33 -111.5q-11 -67 -70.5 -111.5
t-144.5 -44.5zM141 889q-15 -82 2.5 -145.5t59 -100.5t97 -55.5t120.5 -18.5q143 0 249.5 78.5t129.5 206.5q26 152 -125 223q65 38 102.5 81.5t48.5 105.5q18 102 -47.5 159.5t-185.5 57.5q-52 0 -100.5 -12.5t-94 -39.5t-79 -77.5t-46.5 -118.5h148q13 58 54.5 89.5
t94.5 31.5q54 0 81.5 -30t21.5 -73q-9 -54 -63 -88.5t-126 -34.5h-34l-21 -120q4 0 23.5 1t23.5 1q55 0 93 -13.5t54 -35t23 -48.5t0 -55q-12 -70 -70 -116t-137 -46q-24 0 -45.5 4.5t-46 17t-38.5 34t-22 55.5t3 82h-148z" />
    <glyph glyph-name="fiveeighths" unicode="&#x215d;" horiz-adv-x="1738" 
d="M375 -111l1231 1696h-189l-1224 -1696h182zM289 1018q70 26 129 26q86 0 133.5 -46.5t34.5 -118.5q-14 -80 -73 -128.5t-146 -48.5q-114 0 -193 95l-86 -82q55 -62 114 -91.5t146 -29.5q140 0 240 79t123 208q21 122 -50.5 195t-193.5 73q-53 0 -135 -29l63 232h361
l26 108h-467l-106 -397zM1460 449q28 15 43.5 25t47 35t51.5 59.5t28 76.5q20 103 -50 170.5t-189 67.5t-213 -66.5t-111 -167.5q-24 -138 102 -198q-182 -75 -208 -222q-20 -106 58 -179t212 -73q136 0 238 71t122 183q13 77 -21.5 132.5t-109.5 85.5zM1321 496
q-27 0 -51 6.5t-47 21t-33 44t-2 69.5q12 61 64 101t120 40q69 0 108 -39.5t29 -99.5q-10 -62 -64.5 -102.5t-123.5 -40.5zM1249 84q-29 0 -55 6t-54.5 21t-42.5 48t-7 81q11 67 71 111t144 44q82 0 126.5 -43.5t32.5 -111.5q-11 -67 -70.5 -111.5t-144.5 -44.5z" />
    <glyph glyph-name="seveneighths" unicode="&#x215e;" horiz-adv-x="1538" 
d="M139 -111l1231 1696h-188l-1225 -1696h182zM1262 449q28 15 43.5 25t47 35t51.5 59.5t28 76.5q20 103 -50.5 170.5t-189.5 67.5t-213 -66.5t-111 -167.5q-24 -138 103 -198q-184 -75 -209 -222q-20 -106 58 -179t212 -73q136 0 238.5 71t122.5 183q13 77 -21.5 132.5
t-109.5 85.5zM1122 496q-27 0 -51 6.5t-47 21t-33 44t-2 69.5q12 61 64.5 101t120.5 40q69 0 108 -39.5t29 -99.5q-10 -62 -65 -102.5t-124 -40.5zM1051 84q-29 0 -55.5 6t-55 21t-42.5 48t-7 81q11 67 71 111t144 44q82 0 127 -43.5t33 -111.5q-11 -67 -70.5 -111.5
t-144.5 -44.5zM236 598l544 756l21 108h-600l-21 -110h467l-549 -754h138z" />
    <glyph glyph-name="partialdiff" unicode="&#x2202;" horiz-adv-x="1044" 
d="M387 -23q108 0 200 45t161 128.5t119.5 193t84.5 246.5q35 138 46.5 265t-4 240.5t-59 197t-125.5 132t-196 48.5q-93 0 -173.5 -32t-166.5 -104l78 -110q108 94 240 94q70 0 121.5 -26.5t79 -72.5t43 -102.5t15.5 -123.5t-7 -128t-21 -123q-56 69 -124.5 103.5
t-161.5 34.5q-185 0 -317.5 -128.5t-164.5 -314.5q-22 -123 7.5 -227t114 -170t210.5 -66zM522 731q163 0 260 -164q-12 -56 -31.5 -112.5t-52 -117.5t-72 -107.5t-94.5 -76.5t-116 -30q-79 0 -129.5 48.5t-65 118t-0.5 146.5q21 122 103 208.5t198 86.5z" />
    <glyph glyph-name="uni2206" unicode="&#x2206;" horiz-adv-x="1478" 
d="M-45 0h1378l-334 1454h-206zM1077 180h-809l586 1049z" />
    <glyph glyph-name="product" unicode="&#x220f;" horiz-adv-x="1472" 
d="M958 -539h172l359 2036h-1170l-358 -2036h172l330 1876h825z" />
    <glyph glyph-name="summation" unicode="&#x2211;" horiz-adv-x="1212" 
d="M-154 -535h1139l29 160h-922l791 869l-455 847h864l29 160h-1090l-22 -133l467 -874l-805 -893z" />
    <glyph glyph-name="minus" unicode="&#x2212;" horiz-adv-x="1267" 
d="M1176 643l28 158h-1050l-29 -158h1051z" />
    <glyph glyph-name="radical" unicode="&#x221a;" horiz-adv-x="974" 
d="M532 -14l648 1691h-170l-547 -1441l-182 620l-254 -106l39 -138l98 43l205 -669h163z" />
    <glyph glyph-name="infinity" unicode="&#x221e;" horiz-adv-x="1466" 
d="M1090 416q149 0 239.5 85.5t110.5 221.5q21 133 -41 225t-187 92q-194 0 -430 -221q-171 219 -346 219q-128 0 -226 -92t-122 -223q-23 -132 45 -219.5t199 -87.5q55 0 109.5 16.5t111 51t94 62.5t96.5 75q40 -45 70.5 -74t75.5 -63t95.5 -51t105.5 -17zM1169 885
q57 0 93 -37.5t22 -122.5q-12 -70 -55.5 -112t-108.5 -42q-74 0 -134.5 40.5t-117.5 107.5q3 2 28.5 23t32 26t30.5 23.5t35 25t33 21t36.5 20t34 13.5t37 11t34.5 3zM410 883q48 0 98 -27.5t80 -56.5t71 -76q-179 -152 -299 -152q-70 0 -99 41.5t-17 112.5q13 69 57 113.5
t109 44.5z" />
    <glyph glyph-name="integral" unicode="&#x222b;" horiz-adv-x="698" 
d="M8 -471q49 0 91.5 21t72 51.5t56 79.5t42.5 90t31 99.5t21.5 91.5t15.5 81l205 1169q1 3 3.5 18t5 26t6.5 30t8 33l9 31.5t11 30t13 23.5t15 17t17 6q13 0 23 -11t16.5 -23.5t22 -23.5t38.5 -11q38 0 66 24t34 62q11 60 -36.5 89.5t-116.5 29.5q-247 0 -324 -439
l-217 -1233q-29 -162 -39 -191q-20 -45 -53 -46q-12 0 -24 17.5t-27.5 35t-38.5 17.5q-34 0 -59 -23t-31 -57q-9 -54 39.5 -84.5t103.5 -30.5z" />
    <glyph glyph-name="approxequal" unicode="&#x2248;" horiz-adv-x="1298" 
d="M1153 1053q-55 -162 -176 -162q-51 0 -118.5 23t-123.5 50.5t-128 50.5t-132 23q-67 0 -124 -26.5t-97.5 -73t-69.5 -100t-49 -117.5h129q26 73 73.5 117.5t117.5 44.5q46 0 110 -23t119 -51t125.5 -51t128.5 -23q130 0 220.5 94t123.5 224h-129zM1087 690
q-52 -162 -176 -162q-51 0 -118 23t-122.5 51t-127 51t-131.5 23q-67 0 -124 -26t-97.5 -72.5t-69.5 -100t-49 -117.5h129q57 162 190 162q46 0 110 -23t119 -50.5t125.5 -50.5t128.5 -23q89 0 162.5 47t117.5 116.5t63 151.5h-130z" />
    <glyph glyph-name="notequal" unicode="&#x2260;" horiz-adv-x="1234" 
d="M551 453h575l27 155h-487l159 234h373l29 157h-289l156 218l-125 77l-207 -295h-569l-29 -157h483l-160 -234h-368l-27 -155h285l-156 -217l127 -76z" />
    <glyph glyph-name="lessequal" unicode="&#x2264;" horiz-adv-x="1267" 
d="M1229 1106l35 197l-1067 -457l-31 -180l905 -457l33 194l-709 355zM1063 2l29 158h-1051l-29 -158h1051z" />
    <glyph glyph-name="greaterequal" unicode="&#x2265;" horiz-adv-x="1267" 
d="M297 1303l-35 -199l709 -348l-832 -348l-35 -197l1063 453l33 184zM1063 2l29 158h-1051l-29 -158h1051z" />
    <glyph glyph-name="lozenge" unicode="&#x25ca;" horiz-adv-x="960" 
d="M444 -72l490 799l-209 799h-152l-485 -799l205 -799h151zM614 1319l148 -590l-356 -594l-144 592z" />
    <glyph glyph-name="uni25CC" unicode="&#x25cc;" horiz-adv-x="1796" 
d="M1087 1526q-39 0 -66.5 -24t-33.5 -60q-6 -35 15.5 -59.5t56.5 -24.5t63.5 24.5t34.5 59.5q6 36 -14 60t-56 24zM1413 1427q-39 0 -66.5 -24t-33.5 -60q-6 -35 15 -59t56 -24t64 24t35 59q6 36 -14 60t-56 24zM1602 1169q-39 0 -67 -24t-34 -60q-6 -35 15.5 -59.5
t56.5 -24.5t63.5 24.5t34.5 59.5q6 37 -14 60.5t-55 23.5zM1663 834q-39 0 -66.5 -24t-33.5 -60q-6 -35 15 -59.5t56 -24.5t64 24.5t35 59.5q6 36 -14 60t-56 24zM1503 473q-39 0 -66.5 -24t-33.5 -60q-6 -35 15.5 -59.5t56.5 -24.5t63.5 24.5t34.5 59.5q6 36 -14 60t-56 24
zM1190 221q-39 0 -66.5 -24t-33.5 -60q-6 -35 15 -59.5t56 -24.5t64 24.5t35 59.5q6 36 -14 60t-56 24zM836 98q-39 0 -67 -24t-34 -60q-6 -35 15.5 -59.5t56.5 -24.5t63.5 24.5t34.5 59.5q6 37 -14 60.5t-55 23.5zM477 193q-39 0 -66.5 -24t-33.5 -60q-6 -35 15.5 -59.5
t56.5 -24.5t63.5 24.5t34.5 59.5q6 36 -14 60t-56 24zM240 459q-39 0 -67 -24t-34 -60q-6 -35 15.5 -59.5t56.5 -24.5t63.5 24.5t34.5 59.5q6 37 -14 60.5t-55 23.5zM236 834q-39 0 -67 -24t-34 -60q-6 -35 15.5 -59.5t56.5 -24.5t63.5 24.5t34.5 59.5q6 37 -14 60.5
t-55 23.5zM393 1180q-39 0 -66.5 -24t-33.5 -60q-6 -35 15.5 -59.5t56.5 -24.5t63.5 24.5t34.5 59.5q6 36 -14 60t-56 24zM692 1454q-39 0 -66.5 -24t-33.5 -60q-6 -35 15.5 -59.5t56.5 -24.5t63.5 24.5t34.5 59.5q6 36 -14 60t-56 24z" />
    <glyph glyph-name="caroncommaaccent" horiz-adv-x="1024" 
d="M645 1190l172 366h-184l-129 -366h141z" />
    <glyph glyph-name="commaaccentrotate" horiz-adv-x="403" 
d="M381 1577l-215 -410h209l164 410h-158z" />
    <glyph glyph-name="f_t" horiz-adv-x="1239" 
d="M860 1485q-58 22 -141 22q-329 0 -395 -368l-23 -129l-227 -172h196l-147 -838h199l147 838h248l31 168h-259l21 124q38 216 211 216q49 0 110 -23zM698 264q-21 -124 31.5 -204t175.5 -80q81 0 133 28l29 168q-48 -22 -94 -22q-48 0 -64 30.5t-8 79.5l100 574h261
l30 172h-260l60 342l-496 -514h203z" />
    <glyph glyph-name="w_w_w" horiz-adv-x="4704" 
d="M324 1008h-209l159 -1010h189l373 770l104 -770h195l516 1010h-211l-361 -746l-96 748h-197l-362 -750zM1876 1008h-209l160 -1010h188l373 770l104 -770h195l516 1010h-211l-360 -746l-97 748h-196l-363 -750zM3428 1008h-209l160 -1010h189l372 770l105 -770h194
l516 1010h-210l-361 -746l-96 748h-197l-362 -750z" />
    <glyph glyph-name="t_t" horiz-adv-x="1239" 
d="M668 262q-21 -125 31 -205t175 -80q80 0 134 29l28 168q-48 -22 -94 -22q-48 0 -64 30.5t-8 79.5l101 574h260l31 172h-261l60 342l-496 -514h203zM193 262q-21 -125 31 -205t175 -80q79 0 133 29l29 168q-48 -22 -94 -22q-48 0 -64 30.5t-8 79.5l101 574h260l30 172
h-260l60 342l-496 -514h203z" />
    <glyph glyph-name="Upsilondieresis_alt" horiz-adv-x="1345" 
d="M694 0l101 569l704 873h-235l-535 -678l-299 678h-246l400 -875l-101 -567h211zM721 1880q-29 0 -57 -9t-56.5 -40t-36.5 -80q-10 -56 20.5 -91.5t88.5 -37.5q58 -1 101.5 35.5t54.5 93.5q9 55 -24.5 92t-90.5 37zM1122 1880q-29 0 -57 -9t-56 -40t-36 -80
q-10 -56 20 -91.5t88 -37.5q58 -1 101.5 35.5t54.5 93.5q9 55 -24.5 92t-90.5 37z" />
    <glyph glyph-name=".null.1" horiz-adv-x="569" 
 />
    <glyph glyph-name="ogonek.1" horiz-adv-x="600" 
d="M324 -279q-55 -18 -99 -18q-52 0 -74 31t-14 78q6 36 35 77t90 107l-84 67q-97 -86 -145 -151t-60 -127q-15 -92 41.5 -147.5t157.5 -55.5q75 0 158 35z" />
    <glyph glyph-name="ogonek.2" horiz-adv-x="600" 
d="M324 -279q-55 -18 -99 -18q-49 0 -73.5 28t-16.5 76q23 112 254 283l-272 -90q-122 -103 -144 -221q-17 -91 39.5 -144t159.5 -53q75 0 158 35z" />
    <glyph glyph-name="periodcentered.loclCAT" horiz-adv-x="567" 
d="M365 868q-22 0 -45 -5.5t-49 -19.5t-46 -43.5t-26 -70.5q-9 -60 23.5 -100.5t92.5 -40.5q61 0 107 40t57 101q10 59 -23 99t-91 40z" />
    <glyph glyph-name="i.loclTRK" horiz-adv-x="499" 
d="M223 0l178 1008h-204l-179 -1008h205zM379 1454q-23 0 -47 -6t-49 -20t-43 -42t-23 -67q-9 -57 24.5 -96t90.5 -39q60 0 106.5 39t57.5 96q10 61 -23 98t-94 37z" />
    <glyph glyph-name="periodcentered.loclCAT.case" horiz-adv-x="567" 
d="M365 868q-22 0 -45 -5.5t-49 -19.5t-46 -43.5t-26 -70.5q-9 -60 23.5 -100.5t92.5 -40.5q61 0 107 40t57 101q10 59 -23 99t-91 40z" />
    <glyph glyph-name="uni004A0301" horiz-adv-x="790" 
d="M-88 51q99 -74 227 -74q195 0 324 120.5t168 346.5l176 998h-213l-176 -1002q-27 -147 -87.5 -210.5t-158.5 -63.5q-62 0 -112 22.5t-111 65.5zM874 1917l-245 -318h147l314 265z" />
    <glyph glyph-name="uni006A0301" horiz-adv-x="405" 
d="M502 1579l-246 -317h147l314 264zM-215 -373q58 -14 111 -14q78 0 135 24t92.5 71t56 103t33.5 134l188 1063h-202l-195 -1102q-10 -61 -38 -95t-85 -34q-33 0 -67 12z" />
    <glyph glyph-name="tonos.case" horiz-adv-x="874" 
d="M596 1663l-246 -317h146l378 317h-278z" />
    <glyph glyph-name="uni030C.alt" 
d="M856 1550h-168l-182 -168l-121 168h-170l184 -309h162z" />
    <glyph glyph-name="Delta" horiz-adv-x="1462" 
d="M1100 180h-862l608 1020zM-96 0h1464l-387 1444h-184z" />
    <glyph glyph-name="uni0394.1" horiz-adv-x="1478" 
d="M-45 0h1378l-334 1454h-206zM268 180l586 1049l223 -1049h-809z" />
    <glyph glyph-name="uni03BC.001" horiz-adv-x="1179" 
d="M184 -375h-204l243 1385h205l-102 -578q-24 -136 30 -205t146 -69q110 0 194.5 71t108.5 203l102 578h205l-178 -1010l-184 131q-54 -68 -129 -109.5t-154 -41.5q-71 0 -122.5 35.5t-74.5 105.5z" />
    </font>
</defs>
</svg>
