<?xml version="1.0" standalone="no"?>
<!DOCTYPE svg PUBLIC "-//W3C//DTD SVG 1.1//EN" "http://www.w3.org/Graphics/SVG/1.1/DTD/svg11.dtd" >
<svg xmlns="http://www.w3.org/2000/svg" xmlns:xlink="http://www.w3.org/1999/xlink" version="1.1">
<metadata>
Created by FontForge 20201107 at Thu Dec 18 19:34:32 2025
 By 
Copyright 2022 The Geom Project Authors (https://github.com/ThanosPoulakidas/Geom)
</metadata>
<defs>
<font id="Geom-BoldItalic" horiz-adv-x="0" >
  <font-face 
    font-family="Geom Bold"
    font-weight="700"
    font-style="italic"
    font-stretch="normal"
    units-per-em="2048"
    panose-1="0 0 0 0 0 0 0 0 0 0"
    ascent="1638"
    descent="-410"
    x-height="1067"
    cap-height="1438"
    bbox="-494 -561 5075 2107"
    underline-thickness="102"
    underline-position="-255"
    slope="-10"
    unicode-range="U+000D-FB02"
  />
<missing-glyph horiz-adv-x="1171" 
d="M209 1475l-260 -1475h1081l260 1475h-1081zM1063 1358l-420 -498l-248 498h668zM936 258l-238 479l408 482zM844 117h-668l424 499zM135 258l170 963l234 -484z" />
    <glyph glyph-name="fi" unicode="fi" horiz-adv-x="1380" 
d="M946 1481q-89 28 -194 28q-372 0 -439 -379l-14 -69l-223 -248h180l-143 -813h311l145 813h248l43 246h-293l13 67q12 70 65.5 109t124.5 39q66 0 137 -23zM1122 0l189 1067h-316l-186 -1067h313zM1235 1542q-25 0 -54 -7.5t-64 -24.5t-62.5 -54t-36.5 -88
q-15 -79 30 -125.5t126 -46.5q82 0 144 46t77 126q13 82 -32.5 128t-127.5 46z" />
    <glyph glyph-name="fl" unicode="fl" horiz-adv-x="1339" 
d="M946 1481q-89 28 -194 28q-372 0 -439 -379l-14 -69l-223 -248h180l-143 -813h311l145 813h248l43 246h-293l13 67q12 70 65.5 109t124.5 39q66 0 137 -23zM1112 0l264 1497h-315l-264 -1497h315z" />
    <glyph glyph-name="f_f_i" unicode="ffi" horiz-adv-x="2160" 
d="M1903 0l188 1067h-315l-187 -1067h314zM2015 1542q-25 0 -54 -7.5t-64 -24.5t-62.5 -54t-36.5 -88q-15 -79 30 -125.5t126 -46.5q82 0 144 46t77 126q13 82 -32.5 128t-127.5 46zM1726 1481q-89 28 -194 28q-371 0 -438 -379l-15 -69l-223 -248h180l-143 -813h311
l146 813h247l43 246h-292l12 67q12 70 65.5 109t124.5 39q67 0 138 -23zM946 1481q-89 28 -194 28q-372 0 -439 -379l-14 -69l-223 -248h180l-143 -813h311l145 813h248l43 246h-293l13 67q12 70 65.5 109t124.5 39q66 0 137 -23z" />
    <glyph glyph-name="f_f_l" unicode="ffl" horiz-adv-x="1990" 
d="M946 1481q-89 28 -194 28q-372 0 -439 -379l-14 -69l-223 -248h180l-143 -813h311l145 813h248l43 246h-293l13 67q12 70 65.5 109t124.5 39q66 0 137 -23zM1645 1481q-89 28 -195 28q-371 0 -438 -379l-15 -69l-223 -248h180l-143 -813h311l146 813h248l43 246h-293
l12 67q12 70 65.5 109t124.5 39q67 0 138 -23zM1810 0l265 1497h-316l-264 -1497h315z" />
    <glyph glyph-name="f_f" unicode="ff" horiz-adv-x="1519" 
d="M1640 1481q-89 28 -194 28q-371 0 -438 -379l-15 -69l-223 -248h180l-143 -813h311l146 813h247l43 246h-292l12 67q12 70 65.5 109t124.5 39q67 0 138 -23zM946 1481q-89 28 -194 28q-372 0 -439 -379l-14 -69l-223 -248h180l-143 -813h311l145 813h248l43 246h-293
l13 67q12 70 65.5 109t124.5 39q66 0 137 -23z" />
    <glyph glyph-name=".notdef" horiz-adv-x="1171" 
d="M209 1475l-260 -1475h1081l260 1475h-1081zM1063 1358l-420 -498l-248 498h668zM936 258l-238 479l408 482zM844 117h-668l424 499zM135 258l170 963l234 -484z" />
    <glyph glyph-name=".null" 
 />
    <glyph glyph-name="nonmarkingreturn" horiz-adv-x="682" 
 />
    <glyph glyph-name="CR" unicode="&#xd;" horiz-adv-x="417" 
 />
    <glyph glyph-name="space" unicode=" " horiz-adv-x="573" 
 />
    <glyph glyph-name="exclam" unicode="!" horiz-adv-x="663" 
d="M670 1438h-361l-28 -174l-52 -813h174l234 813zM293 319q-32 0 -63.5 -8t-63.5 -26t-56 -53t-34 -82q-14 -82 30.5 -128.5t124.5 -46.5q83 0 145 46.5t75 128.5q13 80 -31.5 124.5t-126.5 44.5z" />
    <glyph glyph-name="quotedbl" unicode="&#x22;" horiz-adv-x="1200" 
d="M231 768h172l320 631l14 39v2h-340zM870 1440l-168 -672h175l319 631l14 39v2h-340z" />
    <glyph glyph-name="numbersign" unicode="#" horiz-adv-x="1386" 
d="M203 317l-109 -317h248l107 317h284l-108 -317h247l109 317h242l49 269h-199l94 276h222l45 268h-174l102 308h-248l-102 -308h-285l104 308h-247l-103 -308h-248l-45 -268h201l-94 -276h-223l-47 -269h178zM633 866h293l-99 -286h-295z" />
    <glyph glyph-name="dollar" unicode="$" horiz-adv-x="1267" 
d="M426 -199h186l35 197q211 21 357 133t176 289q30 169 -63.5 268t-323.5 164l59 342q144 -22 211 -133l199 182q-54 79 -145 131.5t-214 63.5l23 127h-187l-20 -123q-215 -17 -358.5 -129.5t-174.5 -284.5q-20 -118 19.5 -202.5t128.5 -138t239 -95.5l-61 -350
q-90 9 -169 57.5t-132 122.5l-217 -199q85 -107 206 -165t261 -58zM739 555q163 -56 144 -162q-9 -59 -58.5 -98t-138.5 -51zM629 891q-29 10 -51 20.5t-48 30t-37.5 48.5t-5.5 65q9 57 58 94.5t135 44.5z" />
    <glyph glyph-name="percent" unicode="%" horiz-adv-x="1806" 
d="M469 700q92 0 169 33t128.5 88.5t84 122.5t44.5 141q25 160 -54.5 268.5t-236.5 108.5q-158 0 -279 -109.5t-149 -269.5q-28 -161 53.5 -272t239.5 -111zM569 1272q60 0 94 -52t21 -139q-14 -81 -63 -134.5t-117 -53.5q-65 0 -97.5 54t-17.5 138q14 81 64 134t116 53z
M1266 -20q89 0 166 33t129.5 87.5t86.5 121t46 138.5q25 162 -54.5 270.5t-236.5 108.5q-159 0 -279.5 -110t-148.5 -271q-28 -159 52.5 -268.5t238.5 -109.5zM1366 547q63 0 98 -49t17 -140q-15 -81 -64 -134.5t-114 -53.5q-64 0 -97 53t-18 137q14 84 62.5 135.5
t115.5 51.5zM395 -2l1321 1452h-237l-1321 -1452h237z" />
    <glyph glyph-name="ampersand" unicode="&#x26;" horiz-adv-x="1488" 
d="M811 322q-131 -105 -242 -105q-92 0 -140.5 54.5t-33.5 136.5q24 135 191 213zM1221 778q-102 -149 -193 -256l-172 228q320 135 361 370q25 152 -67.5 252.5t-270.5 100.5q-188 0 -323 -105.5t-163 -261.5q-25 -143 58 -299q-331 -130 -383 -414q-33 -191 85.5 -304.5
t333.5 -113.5q234 0 461 168l119 -153l313 65l-211 289q121 140 271 358zM670 1096q11 62 57 105.5t109 43.5q61 0 92.5 -37t19.5 -100q-20 -124 -219 -205q-72 113 -59 193z" />
    <glyph glyph-name="quotesingle" unicode="'" horiz-adv-x="733" 
d="M432 1440l-166 -672h178l320 631l16 39v2h-348z" />
    <glyph glyph-name="parenleft" unicode="(" horiz-adv-x="917" 
d="M721 -109q-130 118 -195.5 229.5t-75.5 223t13 242.5q38 210 159 376.5t345 321.5l-127 182q-141 -84 -250.5 -172.5t-200 -196t-150 -235.5t-85.5 -276q-52 -293 44.5 -507.5t327.5 -367.5z" />
    <glyph glyph-name="parenright" unicode=")" horiz-adv-x="919" 
d="M209 1284q133 -117 198.5 -227.5t75 -223t-13.5 -247.5q-35 -208 -156.5 -375.5t-347.5 -319.5l133 -180q287 157 458 370.5t222 504.5q51 289 -45 501t-330 379z" />
    <glyph glyph-name="asterisk" unicode="*" horiz-adv-x="811" 
d="M281 1376l114 -205l-256 -84l23 -141l254 82l-45 -264h153l45 260l224 -78l71 141l-221 80l182 211l-110 86l-183 -202l-112 202z" />
    <glyph glyph-name="plus" unicode="+" horiz-adv-x="1318" 
d="M860 856l66 377h-291l-66 -377h-370l-52 -281h373l-67 -376h290l66 376h373l49 281h-371z" />
    <glyph glyph-name="comma" unicode="," horiz-adv-x="555" 
d="M129 -319l309 669h-301l-233 -669h225z" />
    <glyph glyph-name="hyphen" unicode="-" horiz-adv-x="733" 
d="M662 418l49 280h-633l-49 -280h633z" />
    <glyph glyph-name="period" unicode="." horiz-adv-x="675" 
d="M305 356q-86 0 -149.5 -50t-77.5 -140q-15 -88 30 -139.5t130 -51.5t148.5 51.5t80.5 139.5q15 88 -31.5 139t-130.5 51z" />
    <glyph glyph-name="slash" unicode="/" horiz-adv-x="1155" 
d="M117 -227l1226 1851h-262l-1224 -1851h260z" />
    <glyph glyph-name="zero" unicode="0" horiz-adv-x="1409" 
d="M438 725q23 131 70.5 230.5t126.5 162t180 62.5q135 0 195 -128.5t24 -332.5q-38 -204 -140 -332.5t-237 -128.5q-138 0 -197 129t-22 338zM1360 721q61 346 -67 545.5t-425 199.5q-190 0 -351.5 -100.5t-265 -269t-140.5 -377.5q-20 -128 -15 -240t43 -205.5t100 -160.5
t155 -104.5t208 -37.5q144 0 273.5 58.5t226 160.5t163.5 238.5t95 292.5z" />
    <glyph glyph-name="one" unicode="1" horiz-adv-x="804" 
d="M532 0l254 1446h-604l-53 -301h287l-203 -1145h319z" />
    <glyph glyph-name="two" unicode="2" horiz-adv-x="1210" 
d="M1180 1028q19 97 0 170t-58 123.5t-102 81.5t-130.5 45t-144.5 14q-110 0 -209.5 -31.5t-182.5 -91.5t-143.5 -155t-88.5 -215h305q24 100 97 155.5t165 55.5t134 -47.5t28 -122.5q-22 -137 -242 -351l-671 -659h1081l47 268h-471l237 244q173 179 251.5 290.5
t97.5 225.5z" />
    <glyph glyph-name="three" unicode="3" horiz-adv-x="1292" 
d="M1264 1206l43 240h-973l-45 -266h573l-426 -353l17 -170q61 7 159 7q131 0 196.5 -52.5t47.5 -152.5q-17 -95 -91.5 -152t-180.5 -57q-192 0 -289 190l-264 -184q69 -134 199.5 -209.5t318.5 -75.5q238 0 411.5 136t210.5 348q32 183 -59.5 287.5t-265.5 129.5z" />
    <glyph glyph-name="four" unicode="4" horiz-adv-x="1372" 
d="M1288 1448h-354l-893 -918l12 -239h719l-51 -291h313l49 291h191l43 248h-189zM913 1090l-98 -551h-428z" />
    <glyph glyph-name="five" unicode="5" horiz-adv-x="1251" 
d="M375 623q125 61 229 61q116 0 179 -59t44 -156q-18 -100 -96 -160.5t-196 -60.5q-170 0 -322 158l-225 -218q97 -107 216 -162t288 -55q254 0 433.5 137t221.5 367q19 110 -6 198t-84 143t-141.5 84.5t-182.5 29.5q-110 0 -233 -47l71 284h633l53 271h-892l-175 -707z
" />
    <glyph glyph-name="six" unicode="6" horiz-adv-x="1288" 
d="M1114 1446h-342l-366 -438q-177 -210 -250 -325.5t-93 -225.5q-37 -218 99 -352t395 -134q237 0 417.5 139.5t219.5 364.5q36 207 -60 325t-288 118q-142 0 -264 -80zM594 227q-118 0 -171 61.5t-32 168.5q18 97 94.5 161t186.5 64q109 0 164.5 -63t37.5 -160
q-18 -101 -94.5 -166.5t-185.5 -65.5z" />
    <glyph glyph-name="seven" unicode="7" horiz-adv-x="1112" 
d="M365 0l864 1186l43 252h-1063l-47 -275h708l-860 -1163h355z" />
    <glyph glyph-name="eight" unicode="8" horiz-adv-x="1335" 
d="M1008 748q102 48 172 128t92 189q22 113 -28.5 204t-159.5 142t-255 51q-221 0 -385.5 -112t-195.5 -283q-37 -210 149 -319q-277 -108 -319 -353q-32 -184 106 -302t383 -118q161 0 298 52t227 149t112 223q21 118 -31.5 207t-164.5 142zM719 844q-99 0 -146 52t-30 136
q14 78 82 130t161 52t143 -52t36 -130q-14 -79 -84.5 -133.5t-161.5 -54.5zM610 223q-114 0 -171 55.5t-40 147.5q15 86 94.5 141.5t186.5 55.5q109 0 169.5 -55.5t45.5 -141.5q-16 -85 -94.5 -144t-190.5 -59z" />
    <glyph glyph-name="nine" unicode="9" horiz-adv-x="1286" 
d="M233 -2h340l457 549q118 143 177 243.5t77 196.5q38 219 -97 353.5t-401 134.5q-150 0 -284 -61.5t-227 -177t-119 -263.5q-36 -207 60.5 -328t287.5 -121q138 0 262 84zM754 1219q115 0 168.5 -64.5t35.5 -163.5q-19 -98 -96.5 -162.5t-185.5 -64.5t-163.5 65t-37.5 162
q18 98 94.5 163t184.5 65z" />
    <glyph glyph-name="colon" unicode=":" horiz-adv-x="675" 
d="M305 356q-86 0 -149.5 -50t-77.5 -140q-15 -88 30 -139.5t130 -51.5t148.5 51.5t80.5 139.5q15 88 -31.5 139t-130.5 51zM434 1090q-84 0 -147 -50.5t-80 -140.5q-15 -89 31 -140.5t131 -51.5q84 0 147 51.5t80 140.5q17 88 -30 139.5t-132 51.5z" />
    <glyph glyph-name="semicolon" unicode=";" horiz-adv-x="579" 
d="M379 1090q-84 0 -147 -50.5t-80 -140.5q-15 -89 30.5 -140.5t130.5 -51.5q84 0 147.5 51.5t80.5 140.5q17 88 -30 139.5t-132 51.5zM111 -319l309 669h-303l-232 -669h226z" />
    <glyph glyph-name="less" unicode="&#x3c;" horiz-adv-x="1314" 
d="M1239 989l51 295l-1079 -426l-51 -289l930 -426l53 297l-664 275z" />
    <glyph glyph-name="equal" unicode="=" horiz-adv-x="1280" 
d="M1241 1128h-995l-49 -278h993zM1147 596h-995l-50 -279h996z" />
    <glyph glyph-name="greater" unicode="&#x3e;" horiz-adv-x="1314" 
d="M285 1284l-52 -297l662 -274l-758 -273l-53 -297l1079 424l51 293z" />
    <glyph glyph-name="question" unicode="?" horiz-adv-x="1017" 
d="M168 997q204 187 377 187q75 0 120 -38.5t35 -98.5q-8 -50 -47 -93.5t-104 -91.5q-47 -35 -77.5 -61t-68.5 -68t-62 -93t-34 -112l-18 -100h293l12 64q13 72 43.5 113t103.5 93q60 43 99.5 76.5t80 79t65.5 98t36 115.5q31 180 -77.5 285.5t-297.5 105.5
q-125 0 -236 -44.5t-194 -133.5zM430 319q-77 0 -138.5 -40.5t-78.5 -128.5q-13 -82 31.5 -128.5t124.5 -46.5q83 0 144.5 46.5t76.5 128.5q13 79 -33 124t-127 45z" />
    <glyph glyph-name="at" unicode="@" horiz-adv-x="1912" 
d="M729 575q21 119 99 191t176 72q79 0 117.5 -50.5t23.5 -134.5q-19 -108 -100.5 -188t-176.5 -80q-79 0 -116.5 50.5t-22.5 139.5zM1378 -57q-125 -69 -249 -99t-273 -30q-236 0 -400 101t-230 276.5t-27 396.5q39 219 169.5 397.5t327.5 281.5t420 103q164 0 295.5 -53.5
t213 -145.5t114 -219.5t6.5 -271.5q-33 -189 -114.5 -297.5t-182.5 -108.5q-72 0 -94.5 60t4.5 137l180 533l-254 36l-43 -127q-73 154 -248 154q-182 0 -341.5 -150t-196.5 -360q-32 -179 53.5 -290t245.5 -111q172 0 329 157q50 -161 258 -161q84 0 164.5 34.5t150 100
t121.5 169t74 232.5q28 158 -12.5 301.5t-135 248.5t-243 166.5t-327.5 61.5q-246 0 -471 -118.5t-376 -320t-194 -441.5q-23 -121 -10.5 -233t49.5 -208.5t104.5 -176t155 -135.5t200.5 -87t240 -31q301 0 580 160z" />
    <glyph glyph-name="A" unicode="A" horiz-adv-x="1509" 
d="M412 305h596l71 -305h348l-364 1444h-303l-871 -1444h340zM555 563l289 500l110 -500h-399z" />
    <glyph glyph-name="B" unicode="B" horiz-adv-x="1415" 
d="M291 1438l-254 -1438h647q270 0 432.5 108.5t194.5 290.5q26 138 -36 227.5t-204 123.5q110 41 181 123.5t91 201.5q22 118 -27.5 201t-152.5 122.5t-248 39.5h-624zM502 846l59 328h256q107 0 157.5 -40.5t37.5 -121.5q-14 -77 -80.5 -121.5t-177.5 -44.5h-252zM401 264
l60 344h287q143 0 202 -44t45 -126q-14 -84 -85 -129t-197 -45h-312z" />
    <glyph glyph-name="C" unicode="C" horiz-adv-x="1390" 
d="M1274 459q-120 -96 -231 -144.5t-234 -48.5q-200 0 -298 129.5t-62 325.5q33 191 177.5 320.5t342.5 129.5q252 0 383 -176l59 334q-163 137 -412 137q-160 0 -310.5 -58.5t-267 -158.5t-198 -238.5t-108.5 -293.5q-28 -157 5.5 -296t115 -237.5t208.5 -155.5t279 -57
q255 0 494 156z" />
    <glyph glyph-name="D" unicode="D" horiz-adv-x="1536" 
d="M291 1438l-254 -1438h514q245 0 445 94.5t324 258t161 372.5q38 210 -30.5 371.5t-234 251.5t-405.5 90h-520zM412 287l151 862h230q195 0 291 -122t63 -308q-35 -199 -180 -315.5t-359 -116.5h-196z" />
    <glyph glyph-name="E" unicode="E" horiz-adv-x="1343" 
d="M408 276l55 320h696l45 260h-694l53 303h762l49 279h-1083l-254 -1438h1098l49 276h-776z" />
    <glyph glyph-name="F" unicode="F" horiz-adv-x="1302" 
d="M360 -2l99 557h684l47 272h-684l57 326h754l51 285h-1077l-254 -1440h323z" />
    <glyph glyph-name="G" unicode="G" horiz-adv-x="1603" 
d="M1219 584q-28 -156 -152.5 -244t-271.5 -88q-183 0 -285 132t-66 333q21 125 100.5 231t197.5 168t247 62q229 0 371 -152l61 344q-151 96 -399 96q-216 0 -412 -99t-327 -270.5t-168 -377.5q-28 -158 5.5 -297.5t115.5 -238.5t209.5 -156.5t281.5 -57.5q146 0 277 46.5
t242.5 139.5t192 247.5t115.5 355.5l13 73h-637l-45 -247h334z" />
    <glyph glyph-name="H" unicode="H" horiz-adv-x="1513" 
d="M291 1438l-254 -1438h323l103 582h600l-102 -582h321l254 1438h-322l-100 -568h-602l100 568h-321z" />
    <glyph glyph-name="I" unicode="I" horiz-adv-x="589" 
d="M360 0l254 1438h-323l-254 -1438h323z" />
    <glyph glyph-name="J" unicode="J" horiz-adv-x="899" 
d="M-84 72q125 -97 277 -97q235 0 384 137.5t191 379.5l166 946h-322l-166 -946q-21 -116 -81 -173t-148 -57q-51 0 -98.5 20.5t-76 43.5t-71.5 65z" />
    <glyph glyph-name="K" unicode="K" horiz-adv-x="1376" 
d="M508 848l104 590h-321l-254 -1438h323l127 727l412 -727h391l-459 801l680 637h-387z" />
    <glyph glyph-name="L" unicode="L" horiz-adv-x="1187" 
d="M412 285l202 1153h-323l-254 -1438h1022l51 285h-698z" />
    <glyph glyph-name="M" unicode="M" horiz-adv-x="1591" 
d="M430 932l315 -653l549 655l-164 -934h320l252 1434h-336l-528 -658l-303 658h-336l-252 -1434h317z" />
    <glyph glyph-name="N" unicode="N" horiz-adv-x="1570" 
d="M1116 537l-522 897h-305l-252 -1434h319l162 918l533 -918h288l254 1438h-317z" />
    <glyph glyph-name="O" unicode="O" horiz-adv-x="1699" 
d="M748 -29q147 0 279 39.5t233 109t180.5 163t129 202t70.5 226.5q29 155 -4 294.5t-115.5 240.5t-214.5 160.5t-294 59.5q-215 0 -408.5 -100.5t-322.5 -272t-166 -376.5q-27 -153 6.5 -290.5t116.5 -237.5t215.5 -159t294.5 -59zM958 1174q87 0 155 -24.5t110.5 -67
t68.5 -100t29 -125t-8 -140.5q-35 -189 -180.5 -322t-333.5 -133q-125 0 -214.5 63t-125 168t-13.5 230q21 123 93 225.5t182.5 164t236.5 61.5z" />
    <glyph glyph-name="P" unicode="P" horiz-adv-x="1318" 
d="M291 1438l-254 -1440h323l82 465h224q170 0 311 56.5t238 169.5t124 269q39 225 -91.5 352.5t-391.5 127.5h-565zM489 723l76 440h217q131 0 191 -55.5t41 -163.5q-19 -103 -100.5 -162t-208.5 -59h-216z" />
    <glyph glyph-name="Q" unicode="Q" horiz-adv-x="1771" 
d="M1546 -256l60 348l-176 201q168 179 212 426q27 153 -6.5 291t-116 238t-214.5 159t-293 59q-162 0 -315.5 -59t-271.5 -160t-200.5 -239t-109.5 -291q-37 -205 31 -375.5t225.5 -270.5t373.5 -100q125 0 249 36t216 97zM958 1174q87 0 156 -25t110.5 -68.5t67.5 -102
t28 -124.5t-9 -137q-35 -190 -179.5 -322.5t-332.5 -132.5q-125 0 -214.5 62.5t-125.5 166.5t-15 228q34 191 179 323t335 132z" />
    <glyph glyph-name="R" unicode="R" horiz-adv-x="1349" 
d="M37 0h325l87 494h178l254 -494h376l-288 541q162 48 268 159t135 273q39 213 -86.5 339t-394.5 126h-600zM496 748l71 407h256q124 0 181.5 -50t39.5 -151q-17 -99 -98.5 -152.5t-206.5 -53.5h-243z" />
    <glyph glyph-name="S" unicode="S" horiz-adv-x="1263" 
d="M842 385q-8 -42 -35.5 -71.5t-66.5 -43t-75 -19t-75 -5.5q-151 0 -299 66t-254 180l-53 -302q99 -110 243.5 -162.5t315.5 -52.5q230 0 398.5 102t219.5 292q24 103 8 181.5t-59.5 130.5t-106 91.5t-131 64.5t-135 49.5t-118.5 46.5t-80.5 56t-20.5 78q11 59 73 95
t165 36q122 0 243.5 -57.5t206.5 -155.5l56 311q-175 166 -482 166q-102 0 -199 -26.5t-179 -77t-139 -132t-75 -182.5q-14 -80 0.5 -145t51.5 -109.5t88 -80.5t110.5 -61t119.5 -46.5t114 -42.5t94.5 -44.5t61.5 -56t14 -73.5z" />
    <glyph glyph-name="T" unicode="T" horiz-adv-x="1224" 
d="M676 0l203 1153h430l51 285h-1182l-51 -285h430l-203 -1153h322z" />
    <glyph glyph-name="U" unicode="U" horiz-adv-x="1513" 
d="M131 612q-19 -119 -16 -212.5t33 -165t76 -121.5t113 -81.5t145 -46t171 -14.5q324 0 508.5 161.5t243.5 490.5l143 815h-325l-146 -826q-32 -175 -126.5 -261.5t-243.5 -86.5q-164 0 -222.5 87.5t-25.5 269.5l143 817h-326z" />
    <glyph glyph-name="V" unicode="V" horiz-adv-x="1441" 
d="M504 1438h-361l324 -1444h313l830 1444h-355l-555 -1026z" />
    <glyph glyph-name="W" unicode="W" horiz-adv-x="2154" 
d="M627 489l-129 949h-342l227 -1444h287l475 946l147 -946h287l733 1444h-336l-458 -949l-138 951h-282z" />
    <glyph glyph-name="X" unicode="X" horiz-adv-x="1396" 
d="M557 1438h-373l357 -705l-631 -733h366l410 489l238 -489h370l-370 737l600 701h-363l-381 -461z" />
    <glyph glyph-name="Y" unicode="Y" horiz-adv-x="1396" 
d="M764 0l98 553l703 885h-361l-448 -586l-240 586h-371l392 -889l-97 -549h324z" />
    <glyph glyph-name="Z" unicode="Z" horiz-adv-x="1290" 
d="M397 274l979 920l41 244h-1220l-50 -277h785l-981 -919l-43 -242h1243l47 274h-801z" />
    <glyph glyph-name="bracketleft" unicode="[" horiz-adv-x="884" 
d="M903 1231l37 221h-635l-307 -1737h637l39 222h-350l227 1294h352z" />
    <glyph glyph-name="backslash" unicode="\" horiz-adv-x="1114" 
d="M184 1587l545 -1841l252 37l-547 1839z" />
    <glyph glyph-name="bracketright" unicode="]" horiz-adv-x="886" 
d="M-2 -63l-39 -224h637l305 1739h-637l-39 -223h353l-228 -1292h-352z" />
    <glyph glyph-name="asciicircum" unicode="^" horiz-adv-x="966" 
d="M528 1436l-403 -478h229l250 285l150 -285h233l-235 478h-224z" />
    <glyph glyph-name="underscore" unicode="_" horiz-adv-x="1208" 
d="M-117 -117l-37 -202h1209l35 202h-1207z" />
    <glyph glyph-name="grave" unicode="`" horiz-adv-x="528" 
d="M164 1524l242 -262h227l-146 354z" />
    <glyph glyph-name="a" unicode="a" horiz-adv-x="1208" 
d="M733 272q-111 -88 -235 -88q-80 0 -127.5 43t-34.5 115q12 73 81 116.5t163 43.5q107 0 184 -45zM1104 635q38 221 -74 335.5t-364 114.5q-203 0 -439 -86l-39 -235q181 76 363 76q139 0 203.5 -46.5t44.5 -146.5l-6 -24q-109 51 -275 51q-92 0 -172.5 -20t-147.5 -60.5
t-112.5 -107.5t-60.5 -154q-15 -83 4.5 -151.5t65.5 -112.5t112 -68.5t145 -24.5q193 0 348 136l289 -127z" />
    <glyph glyph-name="b" unicode="b" horiz-adv-x="1335" 
d="M367 139q57 -89 141.5 -125.5t173.5 -36.5q134 0 256.5 67t212.5 196t119 295q23 128 2 231t-74.5 175.5t-135.5 111.5t-181 39q-207 0 -383 -183l102 588h-315l-267 -1513zM741 825q135 0 187.5 -82t29.5 -208q-23 -129 -113.5 -211t-205.5 -82q-111 0 -174 82.5
t-41 207.5q23 127 114 210t203 83z" />
    <glyph glyph-name="c" unicode="c" horiz-adv-x="966" 
d="M963 1042q-86 48 -238 48q-164 0 -308 -77t-237 -204t-119 -277q-27 -153 23.5 -280.5t166 -202t271.5 -74.5q144 0 273 58l53 303q-119 -94 -246 -94q-119 0 -186 86.5t-45 208.5q22 124 114 205t213 81q127 0 209 -94z" />
    <glyph glyph-name="d" unicode="d" horiz-adv-x="1335" 
d="M1118 -16l266 1513h-315l-102 -577q-106 172 -322 172q-98 0 -193.5 -39.5t-175 -110.5t-137.5 -177.5t-80 -232.5q-22 -128 -0.5 -231t76 -175t137 -110.5t181.5 -38.5q114 0 201 45.5t171 129.5zM584 242q-67 0 -115.5 24t-71.5 64.5t-30.5 93.5t6.5 111
q26 128 115.5 210t197.5 82q112 0 176 -83t43 -207q-23 -128 -116 -211.5t-205 -83.5z" />
    <glyph glyph-name="e" unicode="e" horiz-adv-x="1196" 
d="M995 350q-91 -75 -209.5 -110t-218.5 -35q-157 0 -215 117l774 188q10 92 4.5 176.5t-38.5 157.5t-83 126.5t-128.5 84t-175.5 30.5q-238 0 -419.5 -158t-224.5 -397q-43 -245 86 -403t373 -158q104 0 218 29.5t210 89.5zM365 545q10 116 88.5 208.5t193.5 92.5
q87 0 137.5 -52.5t55.5 -142.5l-473 -116z" />
    <glyph glyph-name="f" unicode="f" horiz-adv-x="763" 
d="M934 1481q-89 28 -195 28q-371 0 -438 -379l-14 -69l-224 -248h181l-144 -813h312l145 813h248l43 246h-293l12 67q11 70 65.5 109t125.5 39q66 0 137 -23z" />
    <glyph glyph-name="g" unicode="g" horiz-adv-x="1345" 
d="M614 328q-128 0 -184 73.5t-35 182.5q19 114 104.5 186t202.5 72q116 0 180 -72t44 -184t-109 -185t-203 -73zM854 186q-53 -305 -393 -305q-119 0 -232 42.5t-196 105.5l-49 -267q104 -58 205.5 -87t232.5 -29q192 0 346.5 62t262 192.5t140.5 316.5l150 850l-346 -135
q-57 77 -131.5 118.5t-186.5 41.5q-204 0 -369.5 -140.5t-207.5 -367.5q-19 -112 3 -207.5t76 -160.5t136 -101.5t182 -36.5q210 0 391 178z" />
    <glyph glyph-name="h" unicode="h" horiz-adv-x="1236" 
d="M1155 690q35 198 -47.5 300t-249.5 102q-200 0 -366 -170l102 575h-311l-265 -1497h316l104 592q18 101 87.5 157t156.5 56q83 0 121 -54.5t20 -158.5l-104 -592h315z" />
    <glyph glyph-name="i" unicode="i" horiz-adv-x="552" 
d="M336 0l188 1067h-315l-186 -1067h313zM449 1542q-19 0 -41.5 -4t-51 -16t-53 -30t-44.5 -50.5t-28 -73.5q-15 -79 30 -125.5t126 -46.5q82 0 144 46t77 126q13 82 -32 128t-127 46z" />
    <glyph glyph-name="j" unicode="j" horiz-adv-x="686" 
d="M-68 -340q68 -14 138 -14q177 0 275 88t130 274l187 1059h-316l-186 -1065q-24 -129 -115 -129q-37 0 -72 14zM584 1542q-25 0 -54 -7.5t-64 -24.5t-62.5 -54t-36.5 -88q-15 -79 29.5 -125.5t125.5 -46.5q82 0 144 46t77 126q13 82 -32 128t-127 46z" />
    <glyph glyph-name="k" unicode="k" horiz-adv-x="1134" 
d="M455 684l143 813h-315l-265 -1497h316l94 535l256 -535h354l-309 616l485 451h-366z" />
    <glyph glyph-name="l" unicode="l" horiz-adv-x="548" 
d="M334 0l264 1497h-315l-265 -1497h316z" />
    <glyph glyph-name="m" unicode="m" horiz-adv-x="1896" 
d="M1380 0h316l123 692q19 112 -6.5 201.5t-100 144t-188.5 54.5q-224 0 -396 -181q-25 90 -99 135.5t-177 45.5q-195 0 -356 -164l-289 139l-189 -1067h316l104 592q19 100 81.5 159.5t148.5 59.5q85 0 119 -58t16 -161l-105 -592h316l104 592q16 92 78 155.5t152 63.5
q82 0 118.5 -54.5t18.5 -164.5z" />
    <glyph glyph-name="n" unicode="n" horiz-adv-x="1236" 
d="M1155 690q33 185 -45.5 293.5t-253.5 108.5q-192 0 -358 -170l-291 145l-189 -1067h316l104 592q20 108 90 163.5t150 55.5q78 0 121 -55t24 -164l-104 -592h315z" />
    <glyph glyph-name="o" unicode="o" horiz-adv-x="1296" 
d="M545 -25q186 0 333.5 73.5t236 199t116.5 289.5q25 152 -27.5 279t-174 201.5t-286.5 74.5t-313 -75.5t-245 -203.5t-124 -281q-27 -152 24.5 -279.5t173 -202.5t286.5 -75zM694 825q92 0 150 -40.5t76 -105.5t2 -147q-24 -120 -116.5 -205t-211.5 -85q-117 0 -181 86
t-42 209q21 121 111 204.5t212 83.5z" />
    <glyph glyph-name="p" unicode="p" horiz-adv-x="1335" 
d="M362 147q104 -170 322 -170q130 0 252.5 66.5t214 196t121.5 295.5q22 129 0.5 232t-76 175.5t-136.5 111t-181 38.5q-114 0 -202 -45.5t-171 -128.5l-297 149l-250 -1413h315zM741 825q124 0 183.5 -83.5t36.5 -204.5q-24 -131 -115.5 -213t-204.5 -82q-112 0 -176 83
t-41 207q21 127 113 210t204 83z" />
    <glyph glyph-name="q" unicode="q" horiz-adv-x="1335" 
d="M743 -346h316l250 1413l-346 -139q-54 77 -127 120.5t-187 43.5q-99 0 -195 -39.5t-176 -110.5t-138.5 -177.5t-80.5 -232.5q-23 -126 -1 -229t76 -175.5t137 -112.5t182 -40q205 0 381 183zM586 242q-90 0 -144.5 43.5t-69 108t0.5 143.5q25 128 114.5 209t202.5 81
q110 0 174 -83t43 -207q-23 -126 -116.5 -210.5t-204.5 -84.5z" />
    <glyph glyph-name="r" unicode="r" horiz-adv-x="802" 
d="M891 1083q-12 2 -41 2q-215 0 -358 -202l-285 184l-189 -1067h316l74 414q20 118 76 198.5t131 116t167 35.5q40 0 52 -6z" />
    <glyph glyph-name="s" unicode="s" horiz-adv-x="942" 
d="M547 297q-6 -37 -38 -59t-62 -27.5t-62 -5.5q-86 0 -184.5 42.5t-175.5 106.5l-48 -270q104 -53 191 -80t194 -27q189 0 318.5 92t157.5 246q13 73 -7 131t-61.5 93.5t-95 63t-108 47.5t-99 38.5t-70 43.5t-20.5 56q6 32 39.5 53t85.5 21q70 0 161.5 -36t161.5 -87
l47 271q-82 42 -157 61t-172 19q-180 0 -305.5 -87t-151.5 -237q-11 -65 3 -118t46.5 -86.5t76.5 -61t92 -44.5t93.5 -35t81 -33t54.5 -38.5t14 -52.5z" />
    <glyph glyph-name="t" unicode="t" horiz-adv-x="831" 
d="M193 311q-29 -164 41.5 -249t224.5 -85q123 0 223 50l43 249q-78 -30 -129 -30q-100 0 -82 110l80 455h258l45 256h-258l61 342l-630 -598h209z" />
    <glyph glyph-name="u" unicode="u" horiz-adv-x="1226" 
d="M80 387q-9 -50 -9 -97t8.5 -94t31 -85.5t57 -69t88 -47.5t121.5 -17q211 0 354 150l291 -143l190 1085h-315l-102 -592q-19 -109 -87 -165t-151 -56q-82 0 -123.5 53.5t-21.5 167.5l102 592h-315z" />
    <glyph glyph-name="v" unicode="v" horiz-adv-x="1138" 
d="M614 -6l623 1073h-328l-370 -698l-125 698h-334l244 -1073h290z" />
    <glyph glyph-name="w" unicode="w" horiz-adv-x="1613" 
d="M389 1067h-313l149 -1073h277l319 653l90 -653h279l530 1073h-309l-293 -635l-82 639h-272l-307 -637z" />
    <glyph glyph-name="x" unicode="x" horiz-adv-x="1122" 
d="M387 543l-477 -543h336l272 322l158 -322h342l-283 545l457 522h-336l-254 -301l-147 301h-344z" />
    <glyph glyph-name="y" unicode="y" horiz-adv-x="1138" 
d="M80 1067l270 -1075l-176 -338h272l793 1413h-326l-370 -733l-131 733h-332z" />
    <glyph glyph-name="z" unicode="z" horiz-adv-x="1075" 
d="M387 254l698 596l39 217h-977l-45 -252h568l-699 -598l-39 -217h1000l45 254h-590z" />
    <glyph glyph-name="braceleft" unicode="{" horiz-adv-x="909" 
d="M63 477q143 0 191 -63.5t18 -206.5q-20 -100 -24.5 -170.5t10.5 -124.5t43.5 -88.5t84.5 -59t123 -38.5t169 -25l43 201q-97 17 -138.5 59.5t-38.5 107.5t21 156q28 142 -5 230t-148 135q51 17 90.5 38t66.5 42t48 52t32.5 55t21 64t13.5 66.5t11 75.5t12 78
q10 56 31 94.5t57 62t73 36.5t95 24l28 199q-125 -11 -217 -38.5t-168 -79t-123.5 -135t-68.5 -202.5q-25 -142 -36 -175q-28 -87 -97 -119q-61 -28 -177 -28z" />
    <glyph glyph-name="bar" unicode="|" horiz-adv-x="1325" 
d="M975 1614h-248l-336 -1903h248z" />
    <glyph glyph-name="braceright" unicode="}" horiz-adv-x="909" 
d="M862 700q-51 -1 -90 4.5t-64 18t-41.5 26.5t-23 38.5t-8 45.5t3.5 55t10.5 60t14.5 68t14 71q5 58 7.5 103.5t-16 82.5t-36.5 64.5t-53.5 49t-68 36t-79.5 25.5t-88 17t-94 12l-45 -199q98 -18 140 -60.5t38.5 -107.5t-21.5 -156q-17 -91 -12 -160.5t45.5 -120.5
t120.5 -83q-133 -47 -195.5 -135t-84.5 -230q-9 -62 -18.5 -101t-28 -80.5t-46 -66t-72.5 -45t-108 -30.5l-26 -201q130 11 222 38t167 80.5t121 140t69 212.5q25 138 40 177q29 77 101 105q59 23 166 23z" />
    <glyph glyph-name="asciitilde" unicode="~" horiz-adv-x="1036" 
d="M834 799q-62 -103 -140 -103q-38 0 -88 22.5t-108 45t-115 22.5q-94 0 -163 -60.5t-130 -197.5l141 -71q34 56 64 80t74 24q45 0 148.5 -45t168.5 -45q178 0 287 254z" />
    <glyph glyph-name="uni00A0" unicode="&#xa0;" horiz-adv-x="573" 
 />
    <glyph glyph-name="exclamdown" unicode="&#xa1;" horiz-adv-x="663" 
d="M-12 -367h362l33 203l49 785h-174l-229 -785zM367 750q83 0 143.5 46t75.5 128q13 79 -32 124.5t-126 45.5q-73 0 -136.5 -40t-80.5 -130q-17 -82 28.5 -128t127.5 -46z" />
    <glyph glyph-name="cent" unicode="&#xa2;" horiz-adv-x="1015" 
d="M483 463q-137 82 -100 278q22 129 100 210.5t191 95.5zM1053 1210q-55 43 -113 58l55 178h-200l-47 -152q-161 -3 -300 -76.5t-230 -199.5t-118 -281q-32 -182 47.5 -325.5t239.5 -196.5l-65 -199h200l56 170q177 6 315 93l49 284q-142 -131 -297 -131l199 604
q96 -15 157 -106z" />
    <glyph glyph-name="sterling" unicode="&#xa3;" horiz-adv-x="1187" 
d="M993 567l41 232h-465l25 139q19 107 82.5 171.5t161.5 64.5q67 0 114 -27.5t88 -85.5l250 196q-137 205 -418 205q-239 0 -399 -141.5t-203 -380.5l-24 -141h-148l-41 -232h150l-101 -567h947l45 258h-625l55 309h465z" />
    <glyph glyph-name="currency" unicode="&#xa4;" horiz-adv-x="1454" 
d="M1466 1157l-118 141l-222 -184q-122 88 -282 88q-166 0 -316 -90l-159 186l-166 -141l155 -188q-111 -128 -139 -295q-29 -171 39 -299l-227 -195l114 -141l234 194q122 -88 278 -88q157 0 310 86l161 -192l166 141l-155 189q114 135 147 305q26 151 -39 297zM444 674
q27 156 122 237.5t243 81.5q135 0 204.5 -92t45.5 -229q-25 -135 -128 -227.5t-237 -92.5q-136 0 -205.5 93t-44.5 229z" />
    <glyph glyph-name="yen" unicode="&#xa5;" horiz-adv-x="1341" 
d="M494 436h-379l-37 -209h377l-39 -227h317l39 227h377l39 209h-377l41 129h356l39 211h-289l547 662h-360l-410 -543l-221 543h-367l316 -662h-287l-39 -211h359z" />
    <glyph glyph-name="brokenbar" unicode="&#xa6;" horiz-adv-x="1355" 
d="M967 1376h-281l-125 -714h279zM786 354l-280 2l-127 -710h280z" />
    <glyph glyph-name="section" unicode="&#xa7;" horiz-adv-x="1189" 
d="M1063 1386q-129 80 -313 80q-206 0 -339.5 -86.5t-156.5 -218.5q-22 -126 88 -229q-113 -20 -180.5 -81t-81.5 -144q-11 -61 10 -110.5t74 -88t123.5 -68t171.5 -57.5q120 -35 170 -67.5t43 -75.5q-16 -95 -160 -95q-178 0 -315 131l-47 -268q130 -84 319 -84
q206 0 339 91t157 231q25 134 -86 217q109 20 177 80.5t83 146.5q21 115 -76 190t-307 132q-123 34 -168.5 67t-40.5 78q6 41 48.5 63.5t113.5 22.5q163 0 307 -125zM494 846q33 -3 76 -10t104 -23t108 -36.5t77 -54.5t22 -73q-9 -43 -52 -71.5t-104 -28.5q-62 6 -129 21
t-129 38.5t-99 58.5t-30 74q7 45 49.5 72.5t106.5 32.5z" />
    <glyph glyph-name="dieresis" unicode="&#xa8;" horiz-adv-x="788" 
d="M360 1599q-27 0 -53.5 -7t-55 -23t-50 -48.5t-29.5 -76.5q-13 -72 25.5 -115t107.5 -43q70 0 123.5 43t65.5 115q13 71 -26 113t-108 42zM799 1599q-27 0 -53.5 -7t-55.5 -23t-50.5 -48.5t-29.5 -76.5q-15 -71 24 -114.5t109 -43.5q68 0 122 43t67 115q12 71 -26.5 113
t-106.5 42z" />
    <glyph glyph-name="copyright" unicode="&#xa9;" horiz-adv-x="1632" 
d="M88 727q-32 -184 0 -331t117.5 -242.5t214.5 -146t293 -50.5q169 0 324 61.5t271 166t195 245t107 297.5q19 126 4 239.5t-70 209.5t-134.5 165.5t-189.5 108.5t-235 39q-208 0 -402 -104t-326 -279.5t-169 -378.5zM1507 727q-23 -127 -80.5 -237t-136 -188.5
t-173 -134.5t-192.5 -83t-194 -27q-104 0 -192 24t-151.5 67.5t-110.5 104.5t-69.5 135.5t-29 159.5t11.5 177q23 134 96 256t176.5 211t236 141.5t268.5 52.5q183 0 319 -89t195 -240t26 -330zM1069 592q-113 -86 -223 -86q-92 0 -141.5 66t-32.5 163q15 95 89 159t167 64
q114 0 186 -86l41 232q-81 57 -201 57q-190 0 -339 -124.5t-179 -301.5q-32 -179 72 -305.5t285 -126.5q123 0 235 66z" />
    <glyph glyph-name="ordfeminine" unicode="&#xaa;" horiz-adv-x="702" 
d="M139 1042q-17 -95 36 -141.5t140 -46.5q110 0 201 84l-14 -72h178l61 351q46 260 -239 260q-125 0 -244 -50l16 -131q85 39 177 39q135 0 114 -114l-2 -11q-70 25 -145 25q-114 0 -187.5 -48.5t-91.5 -144.5zM78 735l-25 -137h588l25 137h-588zM543 1087
q-21 -114 -150 -114q-42 0 -64 22t-16 60q8 39 43 62.5t90 23.5q46 0 103 -21z" />
    <glyph glyph-name="guillemotleft" unicode="&#xab;" horiz-adv-x="1261" 
d="M590 182l-203 357l330 358l-221 100l-422 -460l260 -457zM1108 182l-203 357l330 358l-221 100l-422 -460l260 -457z" />
    <glyph glyph-name="logicalnot" unicode="&#xac;" horiz-adv-x="1339" 
d="M1155 258l105 590h-1072l-41 -238h822l-62 -352h248z" />
    <glyph glyph-name="uni00AD" unicode="&#xad;" horiz-adv-x="733" 
d="M662 418l49 280h-633l-49 -280h633z" />
    <glyph glyph-name="registered" unicode="&#xae;" horiz-adv-x="1560" 
d="M946 1468q-167 0 -317.5 -56.5t-263.5 -154.5t-190 -234.5t-103 -293.5q-25 -152 4.5 -287.5t106 -236t205.5 -159t292 -58.5q151 0 299 59.5t264.5 159.5t199 236.5t109.5 285.5q27 150 -7 286.5t-114.5 235.5t-207 158t-277.5 59zM698 84q-107 0 -195 24t-148.5 67
t-104.5 102.5t-63 131t-25 151.5t10 165q19 122 80.5 237t157 207t231.5 147.5t289 55.5q131 0 240 -51t178 -137t98 -204.5t6 -248.5q-31 -175 -141 -323.5t-273 -236t-340 -87.5zM582 1151l-144 -817h195l49 282h74l153 -282h226l-174 311q87 29 148 93t75 153
q22 117 -48 188.5t-214 71.5h-340zM711 774l37 209h131q62 0 91.5 -29.5t20.5 -74.5q-8 -46 -49.5 -75.5t-99.5 -29.5h-131z" />
    <glyph glyph-name="macron" unicode="&#xaf;" horiz-adv-x="860" 
d="M903 1208l37 199h-713l-34 -199h710z" />
    <glyph glyph-name="degree" unicode="&#xb0;" horiz-adv-x="833" 
d="M467 831q165 0 276 98t134 245q23 146 -62 244t-227 98q-149 0 -267 -100t-145 -242q-23 -141 62.5 -242t228.5 -101zM559 1352q27 0 53 -7.5t51.5 -25.5t37.5 -55.5t4 -89.5q-12 -76 -73 -128.5t-136 -52.5t-117.5 53t-28.5 128q12 74 72 126t137 52z" />
    <glyph glyph-name="plusminus" unicode="&#xb1;" horiz-adv-x="1271" 
d="M205 897l-39 -225h381l-55 -312h229l53 312h377l41 225h-379l55 307h-227l-55 -307h-381zM90 248l-39 -225h985l41 225h-987z" />
    <glyph glyph-name="uni00B2" unicode="&#xb2;" horiz-adv-x="815" 
d="M39 584h698l54 176l-330 -10l106 81q136 104 205 184t88 177q21 123 -59.5 200.5t-216.5 77.5q-138 0 -226 -63t-143 -193l197 -32q26 54 57 85t78 31q49 0 73.5 -32t16.5 -80q-2 -14 -8.5 -29.5t-13 -29t-20 -31t-23 -29.5t-28.5 -32t-29 -30.5t-33.5 -32.5t-33.5 -31
t-36 -32.5t-35 -31.5z" />
    <glyph glyph-name="uni00B3" unicode="&#xb3;" horiz-adv-x="743" 
d="M78 877q-22 -149 66 -227.5t239 -78.5q96 0 181 31t146 95.5t76 152.5q13 72 -15.5 127t-94.5 86q121 65 139 180q21 111 -57.5 173.5t-206.5 62.5t-230.5 -65.5t-134.5 -196.5h213q8 44 40.5 73t80.5 29q42 0 64 -26t16 -64q-9 -47 -49 -76t-92 -29h-29l-24 -139
q7 0 24 1t23 1q70 0 100 -33.5t20 -87.5q-11 -59 -56 -97t-105 -38q-59 0 -94.5 37t-22.5 109h-217z" />
    <glyph glyph-name="acute" unicode="&#xb4;" horiz-adv-x="526" 
d="M414 1616l-267 -354h224l334 262z" />
    <glyph glyph-name="uni00B5" unicode="&#xb5;" horiz-adv-x="1251" 
d="M272 -346h-315l250 1415h315l-104 -592q-19 -107 23 -164t122 -57q87 0 152.5 58t85.5 163l104 592h316l-189 -1069l-291 143q-104 -166 -237 -166q-57 0 -97.5 30.5t-58.5 84.5z" />
    <glyph glyph-name="paragraph" unicode="&#xb6;" horiz-adv-x="1306" 
d="M317 -225h207l262 1476h150l-262 -1476h207l262 1476h102l31 195h-590q-213 0 -348.5 -105t-167.5 -292q-29 -165 57 -261.5t248 -119.5z" />
    <glyph glyph-name="periodcentered" unicode="&#xb7;" horiz-adv-x="673" 
d="M408 946q-30 0 -61 -7.5t-66.5 -26t-63 -58.5t-37.5 -96q-17 -89 29 -141t131 -52t148.5 52t80.5 141q15 88 -31 138t-130 50z" />
    <glyph glyph-name="cedilla" unicode="&#xb8;" horiz-adv-x="694" 
d="M262 -141l111 141h-140l-174 -211l45 -43q49 18 89 18q37 0 55 -14.5t14 -40.5q-4 -25 -28 -42t-50 -23t-51 -6q-62 0 -125 28l-63 -104q93 -49 196 -49q45 0 89 10t86.5 31t72.5 59.5t39 89.5q12 77 -35 116.5t-117 39.5h-14z" />
    <glyph glyph-name="uni00B9" unicode="&#xb9;" horiz-adv-x="622" 
d="M213 584h221l156 870l-162 -2q-16 -5 -67 -19t-81.5 -23t-50.5 -17l-32 -187q21 5 133 41z" />
    <glyph glyph-name="ordmasculine" unicode="&#xba;" horiz-adv-x="735" 
d="M156 1167q-26 -148 52 -230.5t212 -82.5q143 0 250 92t131 225q22 128 -54 220t-212 92q-138 0 -247.5 -93t-131.5 -223zM106 739l-24 -137h590l24 137h-590zM623 1167q-11 -64 -57.5 -110.5t-114.5 -46.5q-64 0 -97.5 46.5t-21.5 114.5q11 65 58.5 110.5t113.5 45.5
q64 0 97.5 -46t21.5 -114z" />
    <glyph glyph-name="guillemotright" unicode="&#xbb;" horiz-adv-x="1263" 
d="M348 539l-328 -357l224 -102l420 457l-261 460l-258 -100zM868 539l-327 -357l221 -102l420 457l-260 460l-258 -100z" />
    <glyph glyph-name="onequarter" unicode="&#xbc;" horiz-adv-x="1591" 
d="M1001 315q33 41 125 148t123 149h4l-2 -12q-11 -38 -55 -283q-63 0 -98 -2q-74 0 -94 -2zM743 156q148 0 426 4l-30 -158h211l24 158q66 -4 90 -4l43 163l-102 -2l98 560h-221l-516 -596zM276 -170l1237 1815h-266l-1233 -1815h262zM168 584h221l156 870l-162 -2
q-16 -5 -67 -19t-81.5 -23t-50.5 -17l-32 -187q21 5 133 41z" />
    <glyph glyph-name="onehalf" unicode="&#xbd;" horiz-adv-x="1697" 
d="M207 -170l1237 1815h-266l-1233 -1815h262zM215 584h221l156 870l-162 -2q-16 -5 -67 -19t-81.5 -23t-50.5 -17l-32 -187q21 5 133 41zM774 -2h699l53 176l-330 -10l107 82q136 104 204.5 183.5t87.5 176.5q21 123 -60 201t-216 78q-138 0 -226 -63t-143 -193l197 -33
q26 54 57.5 85.5t77.5 31.5q48 0 73 -32.5t17 -80.5q-2 -14 -8.5 -29.5t-13 -29t-20 -31t-23 -29.5t-28.5 -32t-29 -30.5t-33.5 -32.5t-33.5 -31t-36 -32.5t-35 -31.5z" />
    <glyph glyph-name="threequarters" unicode="&#xbe;" horiz-adv-x="1878" 
d="M92 877q-22 -149 66 -227.5t239 -78.5q96 0 181 31t146.5 95.5t76.5 152.5q13 72 -16 127t-95 86q121 65 139 180q21 111 -57.5 173.5t-206.5 62.5t-230 -65.5t-134 -196.5h213q8 44 40.5 73t80.5 29q42 0 63.5 -26t15.5 -64q-9 -47 -49 -76t-92 -29h-29l-24 -139
q7 0 24 1t23 1q70 0 100.5 -33.5t20.5 -87.5q-11 -59 -56.5 -97t-105.5 -38q-59 0 -94.5 37t-22.5 109h-217zM455 -170l1237 1815h-267l-1232 -1815h262zM1182 315q33 41 125 148t123 149h4l-2 -12q-14 -47 -56 -283q-63 0 -98 -2q-74 0 -94 -2zM924 156q148 0 426 4
l-31 -158h211l24 158q66 -4 91 -4l43 163l-103 -2l98 560h-221l-516 -596z" />
    <glyph glyph-name="questiondown" unicode="&#xbf;" horiz-adv-x="1013" 
d="M844 68q-207 -187 -377 -187q-75 0 -121.5 39.5t-36.5 99.5q16 84 154 185q37 27 61.5 47t57 53t54.5 64.5t41 75.5t28 92l18 102h-293l-12 -66q-13 -70 -44 -111t-104 -95q-123 -85 -191 -166.5t-89 -202.5q-31 -179 78 -284t297 -105q125 0 236 44.5t194 133.5z
M582 745q76 0 138 42.5t79 130.5q13 82 -31.5 127t-124.5 45q-83 0 -145 -45t-76 -127q-13 -80 32.5 -126.5t127.5 -46.5z" />
    <glyph glyph-name="Agrave" unicode="&#xc0;" horiz-adv-x="1509" 
d="M412 305h596l71 -305h348l-364 1444h-303l-871 -1444h340zM555 563l289 500l110 -500h-399zM573 1862l242 -263h227l-145 355z" />
    <glyph glyph-name="Aacute" unicode="&#xc1;" horiz-adv-x="1509" 
d="M412 305h596l71 -305h348l-364 1444h-303l-871 -1444h340zM555 563l289 500l110 -500h-399zM1128 1954l-266 -355h223l334 263z" />
    <glyph glyph-name="Acircumflex" unicode="&#xc2;" horiz-adv-x="1509" 
d="M412 305h596l71 -305h348l-364 1444h-303l-871 -1444h340zM555 563l289 500l110 -500h-399zM1292 1602l-200 350h-185l-325 -350h223l158 139l108 -139h221z" />
    <glyph glyph-name="Atilde" unicode="&#xc3;" horiz-adv-x="1509" 
d="M412 305h596l71 -305h348l-364 1444h-303l-871 -1444h340zM555 563l289 500l110 -500h-399zM737 1556q26 53 50.5 75t54.5 22q28 0 102 -37t125 -37q161 0 285 268l-170 33q-23 -50 -44.5 -71t-47.5 -21q-25 0 -102.5 37t-131.5 37q-170 0 -293 -273z" />
    <glyph glyph-name="Adieresis" unicode="&#xc4;" horiz-adv-x="1509" 
d="M412 305h596l71 -305h348l-364 1444h-303l-871 -1444h340zM555 563l289 500l110 -500h-399zM782 1937q-27 0 -53.5 -7t-55 -23t-50 -48.5t-29.5 -76.5q-13 -72 25.5 -115t107.5 -43t122.5 43t65.5 115q13 71 -25.5 113t-107.5 42zM1221 1937q-27 0 -53.5 -7t-55.5 -23
t-50.5 -48.5t-29.5 -76.5q-15 -71 24 -114.5t109 -43.5q68 0 122 43t67 115q12 71 -26.5 113t-106.5 42z" />
    <glyph glyph-name="Aring" unicode="&#xc5;" horiz-adv-x="1509" 
d="M412 305h596l71 -305h348l-364 1444h-303l-871 -1444h340zM555 563l289 500l110 -500h-399zM903 1372q103 0 180.5 65.5t96.5 166.5q17 96 -41.5 164.5t-157.5 68.5q-96 0 -179 -68t-100 -165t42.5 -164.5t158.5 -67.5zM954 1675q27 0 46 -18t12 -53q-6 -31 -28.5 -50.5
t-55.5 -19.5q-30 0 -47 19.5t-11 52.5q5 28 29.5 48.5t54.5 20.5z" />
    <glyph glyph-name="AE" unicode="&#xc6;" horiz-adv-x="2007" 
d="M846 1438l-957 -1438h340l217 305h431l-56 -305h1100l49 276h-778l55 320h699l45 260h-697l54 303h763l50 279h-1315zM922 563h-320l432 643z" />
    <glyph glyph-name="Ccedilla" unicode="&#xc7;" horiz-adv-x="1390" 
d="M1274 459q-120 -96 -231 -144.5t-234 -48.5q-200 0 -298 129.5t-62 325.5q33 191 177.5 320.5t342.5 129.5q252 0 383 -176l59 334q-163 137 -412 137q-160 0 -310.5 -58.5t-267 -158.5t-198 -238.5t-108.5 -293.5q-28 -157 5.5 -296t115 -237.5t208.5 -155.5t279 -57
q255 0 494 156zM662 -141l110 141h-139l-174 -211l45 -43q49 18 88 18q37 0 55.5 -14.5t14.5 -40.5q-4 -25 -28 -42t-50.5 -23t-51.5 -6q-61 0 -124 28l-64 -104q93 -49 197 -49q45 0 89 10t86 31t72 59.5t39 89.5q12 77 -34.5 116.5t-116.5 39.5h-14z" />
    <glyph glyph-name="Egrave" unicode="&#xc8;" horiz-adv-x="1343" 
d="M408 276l55 320h696l45 260h-694l53 303h762l49 279h-1083l-254 -1438h1098l49 276h-776zM557 1862l242 -263h227l-145 355z" />
    <glyph glyph-name="Eacute" unicode="&#xc9;" horiz-adv-x="1343" 
d="M408 276l55 320h696l45 260h-694l53 303h762l49 279h-1083l-254 -1438h1098l49 276h-776zM971 1954l-266 -355h223l334 263z" />
    <glyph glyph-name="Ecircumflex" unicode="&#xca;" horiz-adv-x="1343" 
d="M408 276l55 320h696l45 260h-694l53 303h762l49 279h-1083l-254 -1438h1098l49 276h-776zM1227 1602l-201 350h-184l-326 -350h223l158 139l109 -139h221z" />
    <glyph glyph-name="Edieresis" unicode="&#xcb;" horiz-adv-x="1343" 
d="M408 276l55 320h696l45 260h-694l53 303h762l49 279h-1083l-254 -1438h1098l49 276h-776zM698 1937q-27 0 -53.5 -7t-55 -23t-50 -48.5t-29.5 -76.5q-13 -72 25.5 -115t107.5 -43t122.5 43t65.5 115q13 71 -25.5 113t-107.5 42zM1137 1937q-27 0 -53.5 -7t-55.5 -23
t-50.5 -48.5t-29.5 -76.5q-15 -71 24 -114.5t109 -43.5q68 0 122 43t67 115q12 71 -26.5 113t-106.5 42z" />
    <glyph glyph-name="Igrave" unicode="&#xcc;" horiz-adv-x="589" 
d="M360 0l254 1438h-323l-254 -1438h323zM125 1862l242 -263h227l-145 355z" />
    <glyph glyph-name="Iacute" unicode="&#xcd;" horiz-adv-x="589" 
d="M360 0l254 1438h-323l-254 -1438h323zM612 1954l-266 -355h223l334 263z" />
    <glyph glyph-name="Icircumflex" unicode="&#xce;" horiz-adv-x="589" 
d="M360 0l254 1438h-323l-254 -1438h323zM844 1602l-201 350h-184l-326 -350h223l158 139l109 -139h221z" />
    <glyph glyph-name="Idieresis" unicode="&#xcf;" horiz-adv-x="589" 
d="M360 0l254 1438h-323l-254 -1438h323zM324 1937q-27 0 -53.5 -7t-55.5 -23t-50.5 -48.5t-29.5 -76.5q-13 -72 25.5 -115t107.5 -43q70 0 123.5 43t65.5 115q13 71 -25.5 113t-107.5 42zM762 1937q-27 0 -53.5 -7t-55.5 -23t-50.5 -48.5t-29.5 -76.5q-15 -71 24.5 -114.5
t109.5 -43.5q68 0 121.5 43t66.5 115q12 71 -26.5 113t-106.5 42z" />
    <glyph glyph-name="Eth" unicode="&#xd0;" horiz-adv-x="1589" 
d="M344 1438l-254 -1438h514q245 0 445 94.5t324 258t161 372.5q37 210 -31.5 371.5t-234 251.5t-406.5 90h-518zM463 287l153 862h230q195 0 291 -122t63 -308q-35 -199 -179.5 -315.5t-358.5 -116.5h-199zM655 557l50 281h-633l-49 -281h632z" />
    <glyph glyph-name="Ntilde" unicode="&#xd1;" horiz-adv-x="1570" 
d="M1116 537l-522 897h-305l-252 -1434h319l162 918l533 -918h288l254 1438h-317zM764 1556q26 53 50 75t54 22q28 0 102.5 -37t125.5 -37q160 0 284 268l-170 33q-23 -50 -44.5 -71t-47.5 -21q-25 0 -102 37t-131 37q-170 0 -293 -273z" />
    <glyph glyph-name="Ograve" unicode="&#xd2;" horiz-adv-x="1699" 
d="M748 -29q147 0 279 39.5t233 109t180.5 163t129 202t70.5 226.5q29 155 -4 294.5t-115.5 240.5t-214.5 160.5t-294 59.5q-215 0 -408.5 -100.5t-322.5 -272t-166 -376.5q-27 -153 6.5 -290.5t116.5 -237.5t215.5 -159t294.5 -59zM958 1174q87 0 155 -24.5t110.5 -67
t68.5 -100t29 -125t-8 -140.5q-35 -189 -180.5 -322t-333.5 -133q-125 0 -214.5 63t-125 168t-13.5 230q21 123 93 225.5t182.5 164t236.5 61.5zM672 1862l241 -263h228l-146 355z" />
    <glyph glyph-name="Oacute" unicode="&#xd3;" horiz-adv-x="1699" 
d="M748 -29q147 0 279 39.5t233 109t180.5 163t129 202t70.5 226.5q29 155 -4 294.5t-115.5 240.5t-214.5 160.5t-294 59.5q-215 0 -408.5 -100.5t-322.5 -272t-166 -376.5q-27 -153 6.5 -290.5t116.5 -237.5t215.5 -159t294.5 -59zM958 1174q87 0 155 -24.5t110.5 -67
t68.5 -100t29 -125t-8 -140.5q-35 -189 -180.5 -322t-333.5 -133q-125 0 -214.5 63t-125 168t-13.5 230q21 123 93 225.5t182.5 164t236.5 61.5zM1282 1954l-266 -355h223l334 263z" />
    <glyph glyph-name="Ocircumflex" unicode="&#xd4;" horiz-adv-x="1699" 
d="M748 -29q147 0 279 39.5t233 109t180.5 163t129 202t70.5 226.5q29 155 -4 294.5t-115.5 240.5t-214.5 160.5t-294 59.5q-215 0 -408.5 -100.5t-322.5 -272t-166 -376.5q-27 -153 6.5 -290.5t116.5 -237.5t215.5 -159t294.5 -59zM958 1174q87 0 155 -24.5t110.5 -67
t68.5 -100t29 -125t-8 -140.5q-35 -189 -180.5 -322t-333.5 -133q-125 0 -214.5 63t-125 168t-13.5 230q21 123 93 225.5t182.5 164t236.5 61.5zM1454 1602l-201 350h-184l-326 -350h224l157 139l109 -139h221z" />
    <glyph glyph-name="Otilde" unicode="&#xd5;" horiz-adv-x="1699" 
d="M748 -29q147 0 279 39.5t233 109t180.5 163t129 202t70.5 226.5q29 155 -4 294.5t-115.5 240.5t-214.5 160.5t-294 59.5q-215 0 -408.5 -100.5t-322.5 -272t-166 -376.5q-27 -153 6.5 -290.5t116.5 -237.5t215.5 -159t294.5 -59zM958 1174q87 0 155 -24.5t110.5 -67
t68.5 -100t29 -125t-8 -140.5q-35 -189 -180.5 -322t-333.5 -133q-125 0 -214.5 63t-125 168t-13.5 230q21 123 93 225.5t182.5 164t236.5 61.5zM926 1556q26 53 50 75t54 22q28 0 102 -37t125 -37q161 0 285 268l-170 33q-23 -50 -44.5 -71t-47.5 -21q-25 0 -102 37
t-131 37q-170 0 -293 -273z" />
    <glyph glyph-name="Odieresis" unicode="&#xd6;" horiz-adv-x="1699" 
d="M748 -29q147 0 279 39.5t233 109t180.5 163t129 202t70.5 226.5q29 155 -4 294.5t-115.5 240.5t-214.5 160.5t-294 59.5q-215 0 -408.5 -100.5t-322.5 -272t-166 -376.5q-27 -153 6.5 -290.5t116.5 -237.5t215.5 -159t294.5 -59zM958 1174q87 0 155 -24.5t110.5 -67
t68.5 -100t29 -125t-8 -140.5q-35 -189 -180.5 -322t-333.5 -133q-125 0 -214.5 63t-125 168t-13.5 230q21 123 93 225.5t182.5 164t236.5 61.5zM961 1937q-27 0 -53.5 -7t-55.5 -23t-50.5 -48.5t-29.5 -76.5q-13 -72 25.5 -115t107.5 -43q70 0 123.5 43t65.5 115
q13 71 -25.5 113t-107.5 42zM1399 1937q-27 0 -53.5 -7t-55.5 -23t-50.5 -48.5t-29.5 -76.5q-15 -71 24 -114.5t109 -43.5q68 0 122 43t67 115q12 71 -26.5 113t-106.5 42z" />
    <glyph glyph-name="multiply" unicode="&#xd7;" horiz-adv-x="1390" 
d="M551 717l-399 -336l149 -178l393 338l277 -338l209 178l-275 336l393 336l-145 178l-395 -338l-277 338l-209 -178z" />
    <glyph glyph-name="Oslash" unicode="&#xd8;" horiz-adv-x="1685" 
d="M135 -55l166 -123l170 219q120 -70 270 -70q160 0 313 59.5t271.5 161t201 240t109.5 291.5q31 169 -13 314.5t-155 248.5l136 170l-166 123l-150 -186q-130 73 -282 73q-162 0 -315.5 -59t-271.5 -160t-200.5 -239t-109.5 -291q-32 -176 15 -324.5t163 -251.5zM489 420
q-80 124 -49 299q20 123 92 226.5t181 165.5t231 63q86 0 150 -46zM1262 1001q70 -119 43 -284q-32 -175 -164 -306.5t-307 -144.5q-99 -3 -166 41z" />
    <glyph glyph-name="Ugrave" unicode="&#xd9;" horiz-adv-x="1513" 
d="M131 612q-19 -119 -16 -212.5t33 -165t76 -121.5t113 -81.5t145 -46t171 -14.5q324 0 508.5 161.5t243.5 490.5l143 815h-325l-146 -826q-32 -175 -126.5 -261.5t-243.5 -86.5q-164 0 -222.5 87.5t-25.5 269.5l143 817h-326zM606 1862l242 -263h227l-145 355z" />
    <glyph glyph-name="Uacute" unicode="&#xda;" horiz-adv-x="1513" 
d="M131 612q-19 -119 -16 -212.5t33 -165t76 -121.5t113 -81.5t145 -46t171 -14.5q324 0 508.5 161.5t243.5 490.5l143 815h-325l-146 -826q-32 -175 -126.5 -261.5t-243.5 -86.5q-164 0 -222.5 87.5t-25.5 269.5l143 817h-326zM1077 1954l-266 -355h223l334 263z" />
    <glyph glyph-name="Ucircumflex" unicode="&#xdb;" horiz-adv-x="1513" 
d="M131 612q-19 -119 -16 -212.5t33 -165t76 -121.5t113 -81.5t145 -46t171 -14.5q324 0 508.5 161.5t243.5 490.5l143 815h-325l-146 -826q-32 -175 -126.5 -261.5t-243.5 -86.5q-164 0 -222.5 87.5t-25.5 269.5l143 817h-326zM1298 1602l-200 350h-185l-325 -350h223
l158 139l108 -139h221z" />
    <glyph glyph-name="Udieresis" unicode="&#xdc;" horiz-adv-x="1513" 
d="M131 612q-19 -119 -16 -212.5t33 -165t76 -121.5t113 -81.5t145 -46t171 -14.5q324 0 508.5 161.5t243.5 490.5l143 815h-325l-146 -826q-32 -175 -126.5 -261.5t-243.5 -86.5q-164 0 -222.5 87.5t-25.5 269.5l143 817h-326zM778 1937q-27 0 -53.5 -7t-55 -23t-50 -48.5
t-29.5 -76.5q-13 -72 25.5 -115t107.5 -43t122.5 43t65.5 115q13 71 -25.5 113t-107.5 42zM1217 1937q-27 0 -53.5 -7t-55.5 -23t-50.5 -48.5t-29.5 -76.5q-15 -71 24 -114.5t109 -43.5q68 0 122 43t67 115q12 71 -26.5 113t-106.5 42z" />
    <glyph glyph-name="Yacute" unicode="&#xdd;" horiz-adv-x="1396" 
d="M764 0l98 553l703 885h-361l-448 -586l-240 586h-371l392 -889l-97 -549h324zM1022 1954l-266 -355h223l334 263z" />
    <glyph glyph-name="Thorn" unicode="&#xde;" horiz-adv-x="1150" 
d="M291 1446l-254 -1446h317l54 305h176q218 0 366 115t187 332q22 123 -3 214.5t-89.5 145.5t-155.5 79.5t-209 25.5h-113l41 229h-317zM453 555l69 401h53q27 0 47.5 -1t45 -3t42 -6.5t37.5 -12t31.5 -18t24.5 -25t16 -33.5t6.5 -43t-4.5 -54q-11 -62 -38 -103.5
t-68.5 -63t-86.5 -30t-104 -8.5h-71z" />
    <glyph glyph-name="germandbls" unicode="&#xdf;" horiz-adv-x="1163" 
d="M412 1014q19 108 85.5 174.5t161.5 66.5q80 0 120.5 -48t27.5 -132q-16 -87 -82.5 -144.5t-171.5 -99.5l-31 -180q132 -14 197 -67t47 -150q-18 -99 -106 -153.5t-222 -57.5l-41 -229q87 -6 174.5 6t172 44t152 80t116 121.5t63.5 162.5q25 141 -48 235.5t-196 126.5
q113 47 190.5 134t98.5 210q31 177 -80 293.5t-327 116.5q-253 0 -413.5 -141.5t-201.5 -372.5l-176 -1010h311z" />
    <glyph glyph-name="agrave" unicode="&#xe0;" horiz-adv-x="1208" 
d="M733 272q-111 -88 -235 -88q-80 0 -127.5 43t-34.5 115q12 73 81 116.5t163 43.5q107 0 184 -45zM1104 635q38 221 -74 335.5t-364 114.5q-203 0 -439 -86l-39 -235q181 76 363 76q139 0 203.5 -46.5t44.5 -146.5l-6 -24q-109 51 -275 51q-92 0 -172.5 -20t-147.5 -60.5
t-112.5 -107.5t-60.5 -154q-15 -83 4.5 -151.5t65.5 -112.5t112 -68.5t145 -24.5q193 0 348 136l289 -127zM379 1524l242 -262h227l-146 354z" />
    <glyph glyph-name="aacute" unicode="&#xe1;" horiz-adv-x="1208" 
d="M733 272q-111 -88 -235 -88q-80 0 -127.5 43t-34.5 115q12 73 81 116.5t163 43.5q107 0 184 -45zM1104 635q38 221 -74 335.5t-364 114.5q-203 0 -439 -86l-39 -235q181 76 363 76q139 0 203.5 -46.5t44.5 -146.5l-6 -24q-109 51 -275 51q-92 0 -172.5 -20t-147.5 -60.5
t-112.5 -107.5t-60.5 -154q-15 -83 4.5 -151.5t65.5 -112.5t112 -68.5t145 -24.5q193 0 348 136l289 -127zM891 1616l-266 -354h223l334 262z" />
    <glyph glyph-name="acircumflex" unicode="&#xe2;" horiz-adv-x="1208" 
d="M733 272q-111 -88 -235 -88q-80 0 -127.5 43t-34.5 115q12 73 81 116.5t163 43.5q107 0 184 -45zM1104 635q38 221 -74 335.5t-364 114.5q-203 0 -439 -86l-39 -235q181 76 363 76q139 0 203.5 -46.5t44.5 -146.5l-6 -24q-109 51 -275 51q-92 0 -172.5 -20t-147.5 -60.5
t-112.5 -107.5t-60.5 -154q-15 -83 4.5 -151.5t65.5 -112.5t112 -68.5t145 -24.5q193 0 348 136l289 -127zM1081 1264l-200 350h-185l-325 -350h223l158 139l108 -139h221z" />
    <glyph glyph-name="atilde" unicode="&#xe3;" horiz-adv-x="1208" 
d="M733 272q-111 -88 -235 -88q-80 0 -127.5 43t-34.5 115q12 73 81 116.5t163 43.5q107 0 184 -45zM1104 635q38 221 -74 335.5t-364 114.5q-203 0 -439 -86l-39 -235q181 76 363 76q139 0 203.5 -46.5t44.5 -146.5l-6 -24q-109 51 -275 51q-92 0 -172.5 -20t-147.5 -60.5
t-112.5 -107.5t-60.5 -154q-15 -83 4.5 -151.5t65.5 -112.5t112 -68.5t145 -24.5q193 0 348 136l289 -127zM545 1219q44 96 102 96q29 0 103.5 -37t126.5 -37q158 0 282 268l-170 33q-24 -50 -44 -71t-46 -21t-102.5 37t-130.5 37q-170 0 -293 -273z" />
    <glyph glyph-name="adieresis" unicode="&#xe4;" horiz-adv-x="1208" 
d="M733 272q-111 -88 -235 -88q-80 0 -127.5 43t-34.5 115q12 73 81 116.5t163 43.5q107 0 184 -45zM1104 635q38 221 -74 335.5t-364 114.5q-203 0 -439 -86l-39 -235q181 76 363 76q139 0 203.5 -46.5t44.5 -146.5l-6 -24q-109 51 -275 51q-92 0 -172.5 -20t-147.5 -60.5
t-112.5 -107.5t-60.5 -154q-15 -83 4.5 -151.5t65.5 -112.5t112 -68.5t145 -24.5q193 0 348 136l289 -127zM590 1593q-68 0 -120 -42.5t-62 -110.5q-12 -71 24 -112.5t105 -41.5q66 0 118.5 42t65.5 112q12 69 -25 111t-106 42zM1022 1593q-67 0 -119.5 -42.5t-62.5 -110.5
q-12 -71 24 -112.5t105 -41.5q67 0 119.5 42t64.5 112q12 69 -25 111t-106 42z" />
    <glyph glyph-name="aring" unicode="&#xe5;" horiz-adv-x="1208" 
d="M733 272q-111 -88 -235 -88q-80 0 -127.5 43t-34.5 115q12 73 81 116.5t163 43.5q107 0 184 -45zM1104 635q38 221 -74 335.5t-364 114.5q-203 0 -439 -86l-39 -235q181 76 363 76q139 0 203.5 -46.5t44.5 -146.5l-6 -24q-109 51 -275 51q-92 0 -172.5 -20t-147.5 -60.5
t-112.5 -107.5t-60.5 -154q-15 -83 4.5 -151.5t65.5 -112.5t112 -68.5t145 -24.5q193 0 348 136l289 -127zM719 1190q112 0 187.5 64t94.5 167q15 97 -42.5 165.5t-155.5 68.5q-97 0 -179.5 -68t-99.5 -166q-17 -97 41.5 -164t153.5 -67zM776 1493q28 0 46 -17.5t12 -54.5
q-5 -31 -27.5 -50t-56.5 -19q-30 0 -47 19t-11 52q5 28 29.5 49t54.5 21z" />
    <glyph glyph-name="ae" unicode="&#xe6;" horiz-adv-x="1925" 
d="M1722 350q-177 -145 -428 -145q-156 0 -215 117l774 188q10 92 4.5 176.5t-38.5 157.5t-83 126.5t-128.5 84t-175.5 30.5q-220 0 -390 -141q-107 141 -376 141q-219 0 -445 -86l-41 -235q182 76 365 76q138 0 202.5 -46.5t43.5 -146.5l-5 -24q-109 51 -274 51
q-87 0 -164 -18t-145.5 -56.5t-116.5 -106t-66 -157.5q-23 -110 25.5 -193.5t144 -125.5t218.5 -42q249 0 475 146q125 -152 368 -152q231 0 424 119zM725 272q-108 -88 -233 -88q-80 0 -128.5 43t-35.5 115q13 73 82 116.5t163 43.5q108 0 185 -45zM1092 541
q10 76 45 143.5t97.5 114.5t139.5 47q87 0 138 -52.5t57 -142.5z" />
    <glyph glyph-name="ccedilla" unicode="&#xe7;" horiz-adv-x="966" 
d="M963 1042q-86 48 -238 48q-164 0 -308 -77t-237 -204t-119 -277q-27 -153 23.5 -280.5t166 -202t271.5 -74.5q144 0 273 58l53 303q-119 -94 -246 -94q-119 0 -186 86.5t-45 208.5q22 124 114 205t213 81q127 0 209 -94zM444 -141l111 141h-139l-174 -211l45 -43
q49 18 88 18q37 0 55 -14.5t14 -40.5q-4 -25 -28 -42t-50 -23t-51 -6q-62 0 -125 28l-63 -104q93 -49 197 -49q45 0 89 10t86 31t72 59.5t39 89.5q12 77 -34.5 116.5t-116.5 39.5h-15z" />
    <glyph glyph-name="egrave" unicode="&#xe8;" horiz-adv-x="1196" 
d="M995 350q-91 -75 -209.5 -110t-218.5 -35q-157 0 -215 117l774 188q10 92 4.5 176.5t-38.5 157.5t-83 126.5t-128.5 84t-175.5 30.5q-238 0 -419.5 -158t-224.5 -397q-43 -245 86 -403t373 -158q104 0 218 29.5t210 89.5zM365 545q10 116 88.5 208.5t193.5 92.5
q87 0 137.5 -52.5t55.5 -142.5l-473 -116zM297 1524l242 -262h227l-145 354z" />
    <glyph glyph-name="eacute" unicode="&#xe9;" horiz-adv-x="1196" 
d="M995 350q-91 -75 -209.5 -110t-218.5 -35q-157 0 -215 117l774 188q10 92 4.5 176.5t-38.5 157.5t-83 126.5t-128.5 84t-175.5 30.5q-238 0 -419.5 -158t-224.5 -397q-43 -245 86 -403t373 -158q104 0 218 29.5t210 89.5zM365 545q10 116 88.5 208.5t193.5 92.5
q87 0 137.5 -52.5t55.5 -142.5l-473 -116zM907 1616l-266 -354h223l334 262z" />
    <glyph glyph-name="ecircumflex" unicode="&#xea;" horiz-adv-x="1196" 
d="M995 350q-91 -75 -209.5 -110t-218.5 -35q-157 0 -215 117l774 188q10 92 4.5 176.5t-38.5 157.5t-83 126.5t-128.5 84t-175.5 30.5q-238 0 -419.5 -158t-224.5 -397q-43 -245 86 -403t373 -158q104 0 218 29.5t210 89.5zM365 545q10 116 88.5 208.5t193.5 92.5
q87 0 137.5 -52.5t55.5 -142.5l-473 -116zM1096 1264l-201 350h-184l-326 -350h223l158 139l108 -139h222z" />
    <glyph glyph-name="edieresis" unicode="&#xeb;" horiz-adv-x="1196" 
d="M995 350q-91 -75 -209.5 -110t-218.5 -35q-157 0 -215 117l774 188q10 92 4.5 176.5t-38.5 157.5t-83 126.5t-128.5 84t-175.5 30.5q-238 0 -419.5 -158t-224.5 -397q-43 -245 86 -403t373 -158q104 0 218 29.5t210 89.5zM365 545q10 116 88.5 208.5t193.5 92.5
q87 0 137.5 -52.5t55.5 -142.5l-473 -116zM565 1593q-68 0 -120 -42.5t-62 -110.5q-12 -71 24 -112.5t105 -41.5q66 0 118.5 42t65.5 112q12 69 -25 111t-106 42zM997 1593q-67 0 -119.5 -42.5t-62.5 -110.5q-12 -71 24 -112.5t105 -41.5q67 0 119.5 42t64.5 112
q12 69 -25 111t-106 42z" />
    <glyph glyph-name="igrave" unicode="&#xec;" horiz-adv-x="561" 
d="M342 0l188 1067h-315l-188 -1067h315zM72 1524l241 -262h228l-146 354z" />
    <glyph glyph-name="iacute" unicode="&#xed;" horiz-adv-x="585" 
d="M326 0l188 1067h-315l-189 -1067h316zM526 1616l-266 -354h223l334 262z" />
    <glyph glyph-name="icircumflex" unicode="&#xee;" horiz-adv-x="548" 
d="M334 0l188 1067h-315l-189 -1067h316zM752 1264l-201 350h-184l-326 -350h223l158 139l108 -139h222z" />
    <glyph glyph-name="idieresis" unicode="&#xef;" horiz-adv-x="569" 
d="M344 0l188 1067h-315l-188 -1067h315zM256 1593q-68 0 -120 -42.5t-62 -110.5q-12 -71 24 -112.5t105 -41.5q66 0 118.5 42t65.5 112q12 69 -25 111t-106 42zM688 1593q-67 0 -119.5 -42.5t-62.5 -110.5q-12 -71 24 -112.5t105 -41.5q67 0 119.5 42t64.5 112
q12 69 -25 111t-106 42z" />
    <glyph glyph-name="eth" unicode="&#xf0;" horiz-adv-x="1185" 
d="M365 1468q116 -89 174 -149l-260 -141l86 -107l268 148q131 -147 186 -312q-1 0 -10.5 6t-12.5 8t-13.5 8t-16.5 8t-17.5 7t-20.5 7.5t-22 6t-25 5t-27.5 3t-30.5 1.5q-131 0 -252.5 -61t-208 -174t-111.5 -255q-20 -116 8 -212.5t92 -159t152 -96.5t189 -34
q74 0 149.5 18.5t153 61.5t141 105t112.5 158t70 212q20 102 14 201t-26 183t-57.5 163.5t-80.5 143t-96 122.5l256 144l-81 104l-269 -147q-57 57 -97 91t-97 71zM442 365q-44 64 -26.5 134t84.5 115q65 44 125 36t98 -62t20.5 -128.5t-77.5 -117.5q-62 -45 -123.5 -37.5
t-100.5 60.5z" />
    <glyph glyph-name="ntilde" unicode="&#xf1;" horiz-adv-x="1236" 
d="M1155 690q33 185 -45.5 293.5t-253.5 108.5q-192 0 -358 -170l-291 145l-189 -1067h316l104 592q20 108 90 163.5t150 55.5q78 0 121 -55t24 -164l-104 -592h315zM575 1219q44 96 103 96q29 0 103 -37t126 -37q159 0 283 268l-170 33q-24 -50 -44 -71t-46 -21t-103 37
t-131 37q-170 0 -293 -273z" />
    <glyph glyph-name="ograve" unicode="&#xf2;" horiz-adv-x="1296" 
d="M545 -25q186 0 333.5 73.5t236 199t116.5 289.5q25 152 -27.5 279t-174 201.5t-286.5 74.5t-313 -75.5t-245 -203.5t-124 -281q-27 -152 24.5 -279.5t173 -202.5t286.5 -75zM694 825q92 0 150 -40.5t76 -105.5t2 -147q-24 -120 -116.5 -205t-211.5 -85q-117 0 -181 86
t-42 209q21 121 111 204.5t212 83.5zM403 1524l242 -262h227l-145 354z" />
    <glyph glyph-name="oacute" unicode="&#xf3;" horiz-adv-x="1296" 
d="M545 -25q186 0 333.5 73.5t236 199t116.5 289.5q25 152 -27.5 279t-174 201.5t-286.5 74.5t-313 -75.5t-245 -203.5t-124 -281q-27 -152 24.5 -279.5t173 -202.5t286.5 -75zM694 825q92 0 150 -40.5t76 -105.5t2 -147q-24 -120 -116.5 -205t-211.5 -85q-117 0 -181 86
t-42 209q21 121 111 204.5t212 83.5zM956 1616l-266 -354h223l334 262z" />
    <glyph glyph-name="ocircumflex" unicode="&#xf4;" horiz-adv-x="1296" 
d="M545 -25q186 0 333.5 73.5t236 199t116.5 289.5q25 152 -27.5 279t-174 201.5t-286.5 74.5t-313 -75.5t-245 -203.5t-124 -281q-27 -152 24.5 -279.5t173 -202.5t286.5 -75zM694 825q92 0 150 -40.5t76 -105.5t2 -147q-24 -120 -116.5 -205t-211.5 -85q-117 0 -181 86
t-42 209q21 121 111 204.5t212 83.5zM1143 1264l-201 350h-184l-326 -350h223l158 139l109 -139h221z" />
    <glyph glyph-name="otilde" unicode="&#xf5;" horiz-adv-x="1296" 
d="M545 -25q186 0 333.5 73.5t236 199t116.5 289.5q25 152 -27.5 279t-174 201.5t-286.5 74.5t-313 -75.5t-245 -203.5t-124 -281q-27 -152 24.5 -279.5t173 -202.5t286.5 -75zM694 825q92 0 150 -40.5t76 -105.5t2 -147q-24 -120 -116.5 -205t-211.5 -85q-117 0 -181 86
t-42 209q21 121 111 204.5t212 83.5zM604 1219q44 96 103 96q29 0 103 -37t126 -37q159 0 283 268l-170 33q-23 -50 -44 -71t-47 -21t-102.5 37t-130.5 37q-170 0 -293 -273z" />
    <glyph glyph-name="odieresis" unicode="&#xf6;" horiz-adv-x="1296" 
d="M545 -25q186 0 333.5 73.5t236 199t116.5 289.5q25 152 -27.5 279t-174 201.5t-286.5 74.5t-313 -75.5t-245 -203.5t-124 -281q-27 -152 24.5 -279.5t173 -202.5t286.5 -75zM694 825q92 0 150 -40.5t76 -105.5t2 -147q-24 -120 -116.5 -205t-211.5 -85q-117 0 -181 86
t-42 209q21 121 111 204.5t212 83.5zM698 1593q-68 0 -120 -42.5t-62 -110.5q-12 -71 24 -112.5t105 -41.5q66 0 118.5 42t65.5 112q12 69 -25 111t-106 42zM1130 1593q-67 0 -119.5 -42.5t-62.5 -110.5q-12 -71 24 -112.5t105 -41.5q67 0 120 42t65 112q12 69 -25.5 111
t-106.5 42z" />
    <glyph glyph-name="divide" unicode="&#xf7;" horiz-adv-x="1347" 
d="M1221 631l32 182h-1063l-32 -182h1063zM737 901q62 0 109 39.5t57 101.5q9 58 -24 97t-95 39t-109.5 -39t-56.5 -97t24 -99.5t95 -41.5zM625 268q64 0 110.5 39t55.5 101q11 59 -21.5 97t-95.5 38t-109 -38t-57 -97q-9 -58 24 -99t93 -41z" />
    <glyph glyph-name="oslash" unicode="&#xf8;" horiz-adv-x="1312" 
d="M942 674q21 -66 10 -144q-24 -129 -118 -216t-222 -87q-72 0 -125 35zM391 385q-23 63 -6 145q22 127 115.5 214t218.5 87q82 0 127 -36zM-45 -2l111 -117l204 180q120 -88 297 -88q249 0 444 161.5t238 395.5q36 208 -69 361l166 156l-109 116l-174 -164
q-114 86 -299 86q-123 0 -239.5 -44t-205 -118.5t-150 -176.5t-81.5 -216q-37 -209 68 -360z" />
    <glyph glyph-name="ugrave" unicode="&#xf9;" horiz-adv-x="1226" 
d="M80 387q-9 -50 -9 -97t8.5 -94t31 -85.5t57 -69t88 -47.5t121.5 -17q211 0 354 150l291 -143l190 1085h-315l-102 -592q-19 -109 -87 -165t-151 -56q-82 0 -123.5 53.5t-21.5 167.5l102 592h-315zM406 1524l241 -262h227l-145 354z" />
    <glyph glyph-name="uacute" unicode="&#xfa;" horiz-adv-x="1226" 
d="M80 387q-9 -50 -9 -97t8.5 -94t31 -85.5t57 -69t88 -47.5t121.5 -17q211 0 354 150l291 -143l190 1085h-315l-102 -592q-19 -109 -87 -165t-151 -56q-82 0 -123.5 53.5t-21.5 167.5l102 592h-315zM899 1616l-266 -354h223l334 262z" />
    <glyph glyph-name="ucircumflex" unicode="&#xfb;" horiz-adv-x="1226" 
d="M80 387q-9 -50 -9 -97t8.5 -94t31 -85.5t57 -69t88 -47.5t121.5 -17q211 0 354 150l291 -143l190 1085h-315l-102 -592q-19 -109 -87 -165t-151 -56q-82 0 -123.5 53.5t-21.5 167.5l102 592h-315zM1096 1264l-201 350h-184l-326 -350h223l158 139l108 -139h222z" />
    <glyph glyph-name="udieresis" unicode="&#xfc;" horiz-adv-x="1226" 
d="M80 387q-9 -50 -9 -97t8.5 -94t31 -85.5t57 -69t88 -47.5t121.5 -17q211 0 354 150l291 -143l190 1085h-315l-102 -592q-19 -109 -87 -165t-151 -56q-82 0 -123.5 53.5t-21.5 167.5l102 592h-315zM584 1593q-69 0 -121 -42.5t-62 -110.5q-12 -71 24 -112.5t105 -41.5
q67 0 119.5 42t65.5 112q12 69 -25 111t-106 42zM1016 1593q-67 0 -119.5 -42.5t-62.5 -110.5q-12 -71 24 -112.5t105 -41.5q67 0 119.5 42t64.5 112q12 69 -25 111t-106 42z" />
    <glyph glyph-name="yacute" unicode="&#xfd;" horiz-adv-x="1138" 
d="M80 1067l270 -1075l-176 -338h272l793 1413h-326l-370 -733l-131 733h-332zM854 1616l-266 -354h223l334 262z" />
    <glyph glyph-name="thorn" unicode="&#xfe;" horiz-adv-x="1204" 
d="M391 481q18 96 91 170t167 74q98 0 145 -72t29 -172q-42 -255 -260 -252q-96 0 -143 75.5t-29 176.5zM301 1587l-364 -2062h305l77 440l21 152h8q26 -54 83 -90t128 -45q52 -7 82 -5q125 8 231.5 84t171 186t86.5 234q11 74 8.5 143.5t-26.5 131.5t-61.5 110t-97.5 77.5
t-134 33.5q-43 3 -90 -6q-154 -29 -264 -144q11 69 31 158q16 101 36 180l74 422h-305z" />
    <glyph glyph-name="ydieresis" unicode="&#xff;" horiz-adv-x="1138" 
d="M80 1067l270 -1075l-176 -338h272l793 1413h-326l-370 -733l-131 733h-332zM551 1593q-68 0 -120 -42.5t-62 -110.5q-12 -71 24 -112.5t105 -41.5q66 0 118.5 42t65.5 112q12 69 -25 111t-106 42zM983 1593q-67 0 -119.5 -42.5t-62.5 -110.5q-12 -71 24 -112.5t105 -41.5
q67 0 119.5 42t64.5 112q12 69 -25 111t-106 42z" />
    <glyph glyph-name="Amacron" unicode="&#x100;" horiz-adv-x="1509" 
d="M412 305h596l71 -305h348l-364 1444h-303l-871 -1444h340zM555 563l289 500l110 -500h-399zM1284 1546l37 199h-713l-35 -199h711z" />
    <glyph glyph-name="amacron" unicode="&#x101;" horiz-adv-x="1208" 
d="M733 272q-111 -88 -235 -88q-80 0 -127.5 43t-34.5 115q12 73 81 116.5t163 43.5q107 0 184 -45zM1104 635q38 221 -74 335.5t-364 114.5q-203 0 -439 -86l-39 -235q181 76 363 76q139 0 203.5 -46.5t44.5 -146.5l-6 -24q-109 51 -275 51q-92 0 -172.5 -20t-147.5 -60.5
t-112.5 -107.5t-60.5 -154q-15 -83 4.5 -151.5t65.5 -112.5t112 -68.5t145 -24.5q193 0 348 136l289 -127zM1065 1208l37 199h-713l-35 -199h711z" />
    <glyph glyph-name="Abreve" unicode="&#x102;" horiz-adv-x="1509" 
d="M412 305h596l71 -305h348l-364 1444h-303l-871 -1444h340zM555 563l289 500l110 -500h-399zM1143 1878q-29 -68 -75 -104.5t-101 -36.5q-56 0 -91 37t-42 104h-181q-12 -154 63 -250t210 -96q137 0 247 96t148 250h-178z" />
    <glyph glyph-name="abreve" unicode="&#x103;" horiz-adv-x="1208" 
d="M733 272q-111 -88 -235 -88q-80 0 -127.5 43t-34.5 115q12 73 81 116.5t163 43.5q107 0 184 -45zM1104 635q38 221 -74 335.5t-364 114.5q-203 0 -439 -86l-39 -235q181 76 363 76q139 0 203.5 -46.5t44.5 -146.5l-6 -24q-109 51 -275 51q-92 0 -172.5 -20t-147.5 -60.5
t-112.5 -107.5t-60.5 -154q-15 -83 4.5 -151.5t65.5 -112.5t112 -68.5t145 -24.5q193 0 348 136l289 -127zM950 1540q-29 -68 -75 -104.5t-101 -36.5q-56 0 -91 37t-42 104h-180q-12 -154 63 -250t209 -96q137 0 247 96t148 250h-178z" />
    <glyph glyph-name="Aogonek" unicode="&#x104;" horiz-adv-x="1509" 
d="M412 305h596l71 -305h348l-364 1444h-303l-871 -1444h340zM555 563l289 500l110 -500h-399zM1315 -256q-74 -27 -111 -27q-35 0 -54 19.5t-13 52.5q10 63 155 211h-213q-66 -64 -109 -122.5t-55 -123.5q-17 -98 44 -155.5t171 -57.5q100 0 197 47z" />
    <glyph glyph-name="aogonek" unicode="&#x105;" horiz-adv-x="1208" 
d="M733 272q-111 -88 -235 -88q-80 0 -127.5 43t-34.5 115q12 73 81 116.5t163 43.5q107 0 184 -45zM1104 635q38 221 -74 335.5t-364 114.5q-203 0 -439 -86l-39 -235q181 76 363 76q139 0 203.5 -46.5t44.5 -146.5l-6 -24q-109 51 -275 51q-92 0 -172.5 -20t-147.5 -60.5
t-112.5 -107.5t-60.5 -154q-15 -83 4.5 -151.5t65.5 -112.5t112 -68.5t145 -24.5q193 0 348 136l289 -127zM1016 -256q-74 -27 -111 -27q-35 0 -53 20t-12 54q6 63 151 193l-147 77q-110 -100 -162.5 -168t-65.5 -137q-17 -98 44 -156.5t171 -58.5q100 0 197 47z" />
    <glyph glyph-name="Cacute" unicode="&#x106;" horiz-adv-x="1390" 
d="M1274 459q-120 -96 -231 -144.5t-234 -48.5q-200 0 -298 129.5t-62 325.5q33 191 177.5 320.5t342.5 129.5q252 0 383 -176l59 334q-163 137 -412 137q-160 0 -310.5 -58.5t-267 -158.5t-198 -238.5t-108.5 -293.5q-28 -157 5.5 -296t115 -237.5t208.5 -155.5t279 -57
q255 0 494 156zM1157 1954l-266 -355h223l334 263z" />
    <glyph glyph-name="cacute" unicode="&#x107;" horiz-adv-x="1028" 
d="M963 1042q-86 48 -238 48q-164 0 -308 -77t-237 -204t-119 -277q-27 -153 23.5 -280.5t166 -202t271.5 -74.5q144 0 273 58l53 303q-119 -94 -246 -94q-119 0 -186 86.5t-45 208.5q22 124 114 205t213 81q127 0 209 -94zM874 1616l-266 -354h223l334 262z" />
    <glyph glyph-name="Ccircumflex" unicode="&#x108;" horiz-adv-x="1390" 
d="M1274 459q-120 -96 -231 -144.5t-234 -48.5q-200 0 -298 129.5t-62 325.5q33 191 177.5 320.5t342.5 129.5q252 0 383 -176l59 334q-163 137 -412 137q-160 0 -310.5 -58.5t-267 -158.5t-198 -238.5t-108.5 -293.5q-28 -157 5.5 -296t115 -237.5t208.5 -155.5t279 -57
q255 0 494 156zM1374 1602l-200 350h-185l-325 -350h223l157 139l109 -139h221z" />
    <glyph glyph-name="ccircumflex" unicode="&#x109;" horiz-adv-x="966" 
d="M963 1042q-86 48 -238 48q-164 0 -308 -77t-237 -204t-119 -277q-27 -153 23.5 -280.5t166 -202t271.5 -74.5q144 0 273 58l53 303q-119 -94 -246 -94q-119 0 -186 86.5t-45 208.5q22 124 114 205t213 81q127 0 209 -94zM1059 1264l-201 350h-184l-326 -350h223l158 139
l109 -139h221z" />
    <glyph glyph-name="Cdotaccent" unicode="&#x10a;" horiz-adv-x="1390" 
d="M1274 459q-120 -96 -231 -144.5t-234 -48.5q-200 0 -298 129.5t-62 325.5q33 191 177.5 320.5t342.5 129.5q252 0 383 -176l59 334q-163 137 -412 137q-160 0 -310.5 -58.5t-267 -158.5t-198 -238.5t-108.5 -293.5q-28 -157 5.5 -296t115 -237.5t208.5 -155.5t279 -57
q255 0 494 156zM1069 1903q-28 0 -56 -6t-63.5 -22.5t-62 -53.5t-35.5 -90q-15 -79 30 -125.5t126 -46.5q82 0 144 46.5t75 125.5q14 82 -31 127t-127 45z" />
    <glyph glyph-name="cdotaccent" unicode="&#x10b;" horiz-adv-x="925" 
d="M961 1042q-86 48 -238 48q-164 0 -308 -77t-237 -204t-119 -277q-27 -153 23.5 -280.5t166 -202t271.5 -74.5q144 0 273 58l53 303q-119 -94 -246 -94q-119 0 -186 86.5t-45 208.5q22 124 114 205t213 81q127 0 209 -94zM811 1565q-28 0 -56 -6t-63.5 -22.5t-62 -53.5
t-35.5 -90q-15 -79 30 -125.5t126 -46.5q82 0 144 46.5t75 125.5q14 82 -31 127t-127 45z" />
    <glyph glyph-name="Ccaron" unicode="&#x10c;" horiz-adv-x="1390" 
d="M1274 459q-120 -96 -231 -144.5t-234 -48.5q-200 0 -298 129.5t-62 325.5q33 191 177.5 320.5t342.5 129.5q252 0 383 -176l59 334q-163 137 -412 137q-160 0 -310.5 -58.5t-267 -158.5t-198 -238.5t-108.5 -293.5q-28 -157 5.5 -296t115 -237.5t208.5 -155.5t279 -57
q255 0 494 156zM1458 1933h-235l-156 -145l-106 145h-240l213 -354h186z" />
    <glyph glyph-name="ccaron" unicode="&#x10d;" horiz-adv-x="966" 
d="M963 1042q-86 48 -238 48q-164 0 -308 -77t-237 -204t-119 -277q-27 -153 23.5 -280.5t166 -202t271.5 -74.5q144 0 273 58l53 303q-119 -94 -246 -94q-119 0 -186 86.5t-45 208.5q22 124 114 205t213 81q127 0 209 -94zM1161 1573h-235l-154 -146l-106 146h-240
l211 -354h188z" />
    <glyph glyph-name="Dcaron" unicode="&#x10e;" horiz-adv-x="1536" 
d="M291 1438l-254 -1438h514q245 0 445 94.5t324 258t161 372.5q38 210 -30.5 371.5t-234 251.5t-405.5 90h-520zM412 287l151 862h230q195 0 291 -122t63 -308q-35 -199 -180 -315.5t-359 -116.5h-196zM1339 1933h-235l-156 -145l-106 145h-240l213 -354h186z" />
    <glyph glyph-name="dcaron" unicode="&#x10f;" horiz-adv-x="1280" 
d="M1118 -16l266 1513h-315l-102 -577q-106 172 -322 172q-98 0 -193.5 -39.5t-175 -110.5t-137.5 -177.5t-80 -232.5q-22 -128 -0.5 -231t76 -175t137 -110.5t181.5 -38.5q114 0 201 45.5t171 129.5zM584 242q-67 0 -115.5 24t-71.5 64.5t-30.5 93.5t6.5 111
q26 128 115.5 210t197.5 82q112 0 176 -83t43 -207q-23 -128 -116 -211.5t-205 -83.5zM1581 1204l203 434h-228l-153 -434h178z" />
    <glyph glyph-name="Dcroat" unicode="&#x110;" horiz-adv-x="1589" 
d="M344 1438l-254 -1438h514q245 0 445 94.5t324 258t161 372.5q37 210 -31.5 371.5t-234 251.5t-406.5 90h-518zM463 287l153 862h230q195 0 291 -122t63 -308q-35 -199 -179.5 -315.5t-358.5 -116.5h-199zM655 557l50 281h-633l-49 -281h632z" />
    <glyph glyph-name="dcroat" unicode="&#x111;" horiz-adv-x="1327" 
d="M1118 -16l268 1513h-315l-102 -577q-109 172 -320 172q-98 0 -194 -39.5t-175.5 -110.5t-138 -177.5t-80.5 -232.5q-22 -128 -0.5 -231t75.5 -175t136.5 -110.5t182.5 -38.5q114 0 201 46t169 129zM586 242q-68 0 -115.5 24.5t-69 65.5t-29.5 94t3 109
q21 127 112.5 209.5t200.5 82.5q111 0 175.5 -83t43.5 -207q-23 -128 -116 -211.5t-205 -83.5zM1440 1139l49 280h-633l-49 -280h633z" />
    <glyph glyph-name="Emacron" unicode="&#x112;" horiz-adv-x="1343" 
d="M408 276l55 320h696l45 260h-694l53 303h762l49 279h-1083l-254 -1438h1098l49 276h-776zM1214 1546l37 199h-712l-35 -199h710z" />
    <glyph glyph-name="emacron" unicode="&#x113;" horiz-adv-x="1196" 
d="M995 350q-91 -75 -209.5 -110t-218.5 -35q-157 0 -215 117l774 188q10 92 4.5 176.5t-38.5 157.5t-83 126.5t-128.5 84t-175.5 30.5q-238 0 -419.5 -158t-224.5 -397q-43 -245 86 -403t373 -158q104 0 218 29.5t210 89.5zM365 545q10 116 88.5 208.5t193.5 92.5
q87 0 137.5 -52.5t55.5 -142.5l-473 -116zM1081 1208l37 199h-712l-35 -199h710z" />
    <glyph glyph-name="Ebreve" unicode="&#x114;" horiz-adv-x="1343" 
d="M408 276l55 320h696l45 260h-694l53 303h762l49 279h-1083l-254 -1438h1098l49 276h-776zM1081 1878q-29 -68 -75 -104.5t-101 -36.5q-56 0 -91 37t-42 104h-180q-12 -154 63 -250t209 -96q137 0 247.5 96.5t148.5 249.5h-179z" />
    <glyph glyph-name="ebreve" unicode="&#x115;" horiz-adv-x="1196" 
d="M995 350q-91 -75 -209.5 -110t-218.5 -35q-157 0 -215 117l774 188q10 92 4.5 176.5t-38.5 157.5t-83 126.5t-128.5 84t-175.5 30.5q-238 0 -419.5 -158t-224.5 -397q-43 -245 86 -403t373 -158q104 0 218 29.5t210 89.5zM365 545q10 116 88.5 208.5t193.5 92.5
q87 0 137.5 -52.5t55.5 -142.5l-473 -116zM963 1540q-29 -68 -75.5 -104.5t-101.5 -36.5q-56 0 -91 37t-42 104h-180q-12 -154 63 -250t209 -96q137 0 247.5 96.5t148.5 249.5h-178z" />
    <glyph glyph-name="Edotaccent" unicode="&#x116;" horiz-adv-x="1343" 
d="M408 276l55 320h696l45 260h-694l53 303h762l49 279h-1083l-254 -1438h1098l49 276h-776zM926 1903q-28 0 -56 -6t-63.5 -22.5t-62 -53.5t-35.5 -90q-15 -79 29.5 -125.5t125.5 -46.5q82 0 144 46.5t75 125.5q14 82 -30.5 127t-126.5 45z" />
    <glyph glyph-name="edotaccent" unicode="&#x117;" horiz-adv-x="1196" 
d="M995 350q-91 -75 -209.5 -110t-218.5 -35q-157 0 -215 117l774 188q10 92 4.5 176.5t-38.5 157.5t-83 126.5t-128.5 84t-175.5 30.5q-238 0 -419.5 -158t-224.5 -397q-43 -245 86 -403t373 -158q104 0 218 29.5t210 89.5zM365 545q10 116 88.5 208.5t193.5 92.5
q87 0 137.5 -52.5t55.5 -142.5l-473 -116zM817 1565q-28 0 -56 -6t-63.5 -22.5t-62 -53.5t-35.5 -90q-15 -79 30 -125.5t126 -46.5q82 0 144 46.5t75 125.5q14 82 -31 127t-127 45z" />
    <glyph glyph-name="Eogonek" unicode="&#x118;" horiz-adv-x="1343" 
d="M408 276l55 320h696l45 260h-694l53 303h762l49 279h-1083l-254 -1438h1098l49 276h-776zM1157 -256q-74 -27 -110 -27q-35 0 -54.5 19.5t-13.5 52.5q10 62 156 211h-213q-66 -64 -109 -122.5t-55 -123.5q-17 -98 44 -155.5t171 -57.5q99 0 196 47z" />
    <glyph glyph-name="eogonek" unicode="&#x119;" horiz-adv-x="1196" 
d="M995 350q-91 -75 -209.5 -110t-218.5 -35q-157 0 -215 117l774 188q10 92 4.5 176.5t-38.5 157.5t-83 126.5t-128.5 84t-175.5 30.5q-238 0 -419.5 -158t-224.5 -397q-43 -245 86 -403t373 -158q104 0 218 29.5t210 89.5zM365 545q10 116 88.5 208.5t193.5 92.5
q87 0 137.5 -52.5t55.5 -142.5l-473 -116zM874 -256q-74 -27 -110 -27q-35 0 -54.5 19.5t-13.5 56.5q21 105 254 295l-311 -88q-143 -131 -164 -246q-17 -98 44 -155.5t171 -57.5q100 0 197 47z" />
    <glyph glyph-name="Ecaron" unicode="&#x11a;" horiz-adv-x="1343" 
d="M408 276l55 320h696l45 260h-694l53 303h762l49 279h-1083l-254 -1438h1098l49 276h-776zM1292 1933h-235l-156 -145l-106 145h-240l213 -354h186z" />
    <glyph glyph-name="ecaron" unicode="&#x11b;" horiz-adv-x="1196" 
d="M995 350q-91 -75 -209.5 -110t-218.5 -35q-157 0 -215 117l774 188q10 92 4.5 176.5t-38.5 157.5t-83 126.5t-128.5 84t-175.5 30.5q-238 0 -419.5 -158t-224.5 -397q-43 -245 86 -403t373 -158q104 0 218 29.5t210 89.5zM365 545q10 116 88.5 208.5t193.5 92.5
q87 0 137.5 -52.5t55.5 -142.5l-473 -116zM1153 1573h-235l-154 -146l-107 146h-239l211 -354h188z" />
    <glyph glyph-name="Gcircumflex" unicode="&#x11c;" horiz-adv-x="1603" 
d="M1219 584q-28 -156 -152.5 -244t-271.5 -88q-183 0 -285 132t-66 333q21 125 100.5 231t197.5 168t247 62q229 0 371 -152l61 344q-151 96 -399 96q-216 0 -412 -99t-327 -270.5t-168 -377.5q-28 -158 5.5 -297.5t115.5 -238.5t209.5 -156.5t281.5 -57.5q146 0 277 46.5
t242.5 139.5t192 247.5t115.5 355.5l13 73h-637l-45 -247h334zM1405 1602l-201 350h-184l-326 -350h224l157 139l109 -139h221z" />
    <glyph glyph-name="gcircumflex" unicode="&#x11d;" horiz-adv-x="1345" 
d="M614 328q-128 0 -184 73.5t-35 182.5q19 114 104.5 186t202.5 72q116 0 180 -72t44 -184t-109 -185t-203 -73zM854 186q-53 -305 -393 -305q-119 0 -232 42.5t-196 105.5l-49 -267q104 -58 205.5 -87t232.5 -29q192 0 346.5 62t262 192.5t140.5 316.5l150 850l-346 -135
q-57 77 -131.5 118.5t-186.5 41.5q-204 0 -369.5 -140.5t-207.5 -367.5q-19 -112 3 -207.5t76 -160.5t136 -101.5t182 -36.5q210 0 391 178zM1139 1264l-201 350h-184l-326 -350h223l158 139l109 -139h221z" />
    <glyph glyph-name="Gbreve" unicode="&#x11e;" horiz-adv-x="1603" 
d="M1219 584q-28 -156 -152.5 -244t-271.5 -88q-183 0 -285 132t-66 333q21 125 100.5 231t197.5 168t247 62q229 0 371 -152l61 344q-151 96 -399 96q-216 0 -412 -99t-327 -270.5t-168 -377.5q-28 -158 5.5 -297.5t115.5 -238.5t209.5 -156.5t281.5 -57.5q146 0 277 46.5
t242.5 139.5t192 247.5t115.5 355.5l13 73h-637l-45 -247h334zM1247 1878q-29 -68 -75 -104.5t-101 -36.5q-56 0 -91 37t-42 104h-180q-12 -154 63 -250t209 -96q137 0 247 96t148 250h-178z" />
    <glyph glyph-name="gbreve" unicode="&#x11f;" horiz-adv-x="1345" 
d="M614 328q-128 0 -184 73.5t-35 182.5q19 114 104.5 186t202.5 72q116 0 180 -72t44 -184t-109 -185t-203 -73zM854 186q-53 -305 -393 -305q-119 0 -232 42.5t-196 105.5l-49 -267q104 -58 205.5 -87t232.5 -29q192 0 346.5 62t262 192.5t140.5 316.5l150 850l-346 -135
q-57 77 -131.5 118.5t-186.5 41.5q-204 0 -369.5 -140.5t-207.5 -367.5q-19 -112 3 -207.5t76 -160.5t136 -101.5t182 -36.5q210 0 391 178zM1040 1540q-29 -68 -75 -104.5t-101 -36.5q-56 0 -91 37t-42 104h-180q-12 -154 63 -250t209 -96q137 0 247.5 96.5t148.5 249.5
h-179z" />
    <glyph glyph-name="Gdotaccent" unicode="&#x120;" horiz-adv-x="1603" 
d="M1219 584q-28 -156 -152.5 -244t-271.5 -88q-183 0 -285 132t-66 333q21 125 100.5 231t197.5 168t247 62q229 0 371 -152l61 344q-151 96 -399 96q-216 0 -412 -99t-327 -270.5t-168 -377.5q-28 -158 5.5 -297.5t115.5 -238.5t209.5 -156.5t281.5 -57.5q146 0 277 46.5
t242.5 139.5t192 247.5t115.5 355.5l13 73h-637l-45 -247h334zM1042 1911q-28 0 -56 -6t-63.5 -22.5t-62 -53.5t-35.5 -90q-15 -79 30 -125.5t126 -46.5q82 0 144 46.5t75 125.5q14 82 -31 127t-127 45z" />
    <glyph glyph-name="gdotaccent" unicode="&#x121;" horiz-adv-x="1331" 
d="M610 328q-128 0 -184 73.5t-35 182.5q19 114 104.5 186t202.5 72q116 0 180 -72t44 -184t-109 -185t-203 -73zM850 186q-53 -305 -393 -305q-119 0 -232 42.5t-196 105.5l-49 -267q104 -58 205.5 -87t232.5 -29q192 0 346.5 62t262 192.5t140.5 316.5l150 850l-346 -135
q-57 77 -131.5 118.5t-186.5 41.5q-204 0 -369.5 -140.5t-207.5 -367.5q-19 -112 3 -207.5t76 -160.5t136 -101.5t182 -36.5q210 0 391 178zM848 1565q-28 0 -56 -6t-63.5 -22.5t-62 -53.5t-35.5 -90q-15 -79 29.5 -125.5t125.5 -46.5q82 0 144.5 46.5t75.5 125.5
q14 82 -31 127t-127 45z" />
    <glyph glyph-name="uni0122" unicode="&#x122;" horiz-adv-x="1603" 
d="M1219 584q-28 -156 -152.5 -244t-271.5 -88q-183 0 -285 132t-66 333q21 125 100.5 231t197.5 168t247 62q229 0 371 -152l61 344q-151 96 -399 96q-216 0 -412 -99t-327 -270.5t-168 -377.5q-28 -158 5.5 -297.5t115.5 -238.5t209.5 -156.5t281.5 -57.5q146 0 277 46.5
t242.5 139.5t192 247.5t115.5 355.5l13 73h-637l-45 -247h334zM567 -557l201 434h-227l-154 -434h180z" />
    <glyph glyph-name="uni0123" unicode="&#x123;" horiz-adv-x="1349" 
d="M614 328q-128 0 -184 73.5t-35 182.5q19 114 104.5 186t202.5 72q116 0 180 -72t44 -184t-109 -185t-203 -73zM854 186q-53 -305 -393 -305q-119 0 -232 42.5t-196 105.5l-49 -267q104 -58 205.5 -87t232.5 -29q192 0 346.5 62t262 192.5t140.5 316.5l150 850l-346 -135
q-57 77 -131.5 118.5t-186.5 41.5q-204 0 -369.5 -140.5t-207.5 -367.5q-19 -112 3 -207.5t76 -160.5t136 -101.5t182 -36.5q210 0 391 178zM926 1636l-273 -436h328l166 436h-221z" />
    <glyph glyph-name="Hcircumflex" unicode="&#x124;" horiz-adv-x="1513" 
d="M291 1438l-254 -1438h323l103 582h600l-102 -582h321l254 1438h-322l-100 -568h-602l100 568h-321zM1298 1602l-200 350h-185l-325 -350h223l158 139l108 -139h221z" />
    <glyph glyph-name="hcircumflex" unicode="&#x125;" horiz-adv-x="1472" 
d="M1247 690q35 198 -47.5 300t-249.5 102q-200 0 -366 -170l102 575h-311l-264 -1497h315l104 592q18 101 87.5 157t156.5 56q83 0 121 -54.5t20 -158.5l-104 -592h315zM905 1624l-200 350h-185l-325 -350h223l157 139l109 -139h221z" />
    <glyph glyph-name="Hbar" unicode="&#x126;" horiz-adv-x="1564" 
d="M317 1438l-254 -1438h324l102 582h601l-103 -582h322l254 1438h-322l-100 -568h-602l100 568h-322zM139 1059h1452l47 198h-1456z" />
    <glyph glyph-name="hbar" unicode="&#x127;" horiz-adv-x="1230" 
d="M1147 690q35 198 -47.5 300t-249.5 102q-201 0 -367 -170l103 575h-312l-264 -1497h316l104 592q18 101 87.5 157t156.5 56q83 0 121 -54.5t20 -158.5l-104 -592h315zM772 1208l37 199h-713l-35 -199h711z" />
    <glyph glyph-name="Itilde" unicode="&#x128;" horiz-adv-x="589" 
d="M360 0l254 1438h-323l-254 -1438h323zM285 1556q26 53 50 75t54 22q28 0 102 -37t125 -37q161 0 285 268l-170 33q-23 -50 -44.5 -71t-47.5 -21q-25 0 -102 37t-131 37q-170 0 -293 -273z" />
    <glyph glyph-name="itilde" unicode="&#x129;" horiz-adv-x="548" 
d="M334 0l188 1067h-315l-189 -1067h316zM184 1219q44 96 103 96q29 0 103 -37t126 -37q159 0 283 268l-170 33q-24 -50 -44 -71t-46 -21t-103 37t-131 37q-170 0 -293 -273z" />
    <glyph glyph-name="Imacron" unicode="&#x12a;" horiz-adv-x="589" 
d="M360 0l254 1438h-323l-254 -1438h323zM821 1546l37 199h-713l-34 -199h710z" />
    <glyph glyph-name="imacron" unicode="&#x12b;" horiz-adv-x="548" 
d="M334 0l188 1067h-315l-189 -1067h316zM745 1208l37 199h-712l-35 -199h710z" />
    <glyph glyph-name="Ibreve" unicode="&#x12c;" horiz-adv-x="589" 
d="M360 0l254 1438h-323l-254 -1438h323zM690 1880q-29 -68 -75 -104.5t-101 -36.5q-56 0 -91 37t-42 104h-180q-12 -154 63 -250t209 -96q137 0 247 96t148 250h-178z" />
    <glyph glyph-name="ibreve" unicode="&#x12d;" horiz-adv-x="548" 
d="M334 0l188 1067h-315l-189 -1067h316zM604 1540q-29 -68 -75 -104.5t-101 -36.5q-56 0 -91 37t-42 104h-180q-12 -154 63 -250t209 -96q137 0 247 96t148 250h-178z" />
    <glyph glyph-name="Iogonek" unicode="&#x12e;" horiz-adv-x="589" 
d="M360 0l254 1438h-323l-254 -1438h323zM383 -256q-74 -27 -111 -27q-35 0 -54 19.5t-13 52.5q10 63 155 211h-213q-66 -64 -108.5 -122.5t-54.5 -123.5q-17 -98 44 -155.5t171 -57.5q99 0 196 47z" />
    <glyph glyph-name="iogonek" unicode="&#x12f;" horiz-adv-x="552" 
d="M336 0l188 1067h-315l-186 -1067h313zM449 1542q-19 0 -41.5 -4t-51 -16t-53 -30t-44.5 -50.5t-28 -73.5q-15 -79 30 -125.5t126 -46.5q82 0 144 46t77 126q13 82 -32 128t-127 46zM358 -256q-74 -27 -110 -27q-35 0 -54.5 19.5t-13.5 52.5q10 62 156 211h-213
q-66 -64 -109 -122.5t-55 -123.5q-17 -98 44 -155.5t171 -57.5q100 0 197 47z" />
    <glyph glyph-name="Idotaccent" unicode="&#x130;" horiz-adv-x="589" 
d="M360 0l254 1438h-323l-254 -1438h323zM532 1903q-28 0 -56 -6t-63.5 -22.5t-62 -53.5t-35.5 -90q-15 -79 30 -125.5t126 -46.5q82 0 144 46.5t75 125.5q14 82 -31 127t-127 45z" />
    <glyph glyph-name="dotlessi" unicode="&#x131;" horiz-adv-x="548" 
d="M334 0l188 1067h-315l-189 -1067h316z" />
    <glyph glyph-name="IJ" unicode="&#x132;" horiz-adv-x="1490" 
d="M360 0l254 1438h-323l-254 -1438h323zM506 72q125 -97 276 -97q235 0 384.5 137.5t191.5 379.5l166 946h-322l-166 -946q-21 -116 -81 -173t-148 -57q-51 0 -98.5 20.5t-76 43.5t-71.5 65z" />
    <glyph glyph-name="ij" unicode="&#x133;" horiz-adv-x="1091" 
d="M336 0l188 1067h-315l-186 -1067h313zM449 1542q-19 0 -41.5 -4t-51 -16t-53 -30t-44.5 -50.5t-28 -73.5q-15 -79 30 -125.5t126 -46.5q82 0 144 46t77 126q13 82 -32 128t-127 46zM338 -340q68 -14 137 -14q178 0 276 88t130 274l186 1059h-315l-187 -1065
q-24 -129 -114 -129q-37 0 -72 14zM989 1542q-25 0 -54 -7.5t-64 -24.5t-62.5 -54t-36.5 -88q-15 -79 30 -125.5t126 -46.5q82 0 144 46t77 126q13 82 -32.5 128t-127.5 46z" />
    <glyph glyph-name="Jcircumflex" unicode="&#x134;" horiz-adv-x="899" 
d="M-84 72q125 -97 277 -97q235 0 384 137.5t191 379.5l166 946h-322l-166 -946q-21 -116 -81 -173t-148 -57q-51 0 -98.5 20.5t-76 43.5t-71.5 65zM1169 1602l-200 350h-185l-325 -350h223l158 139l108 -139h221z" />
    <glyph glyph-name="jcircumflex" unicode="&#x135;" horiz-adv-x="514" 
d="M-213 -340q72 -14 137 -14q178 0 276 88t130 274l186 1059h-313l-189 -1065q-21 -129 -114 -129q-37 0 -72 14zM743 1264l-200 350h-185l-325 -350h223l158 139l108 -139h221z" />
    <glyph glyph-name="uni0136" unicode="&#x136;" horiz-adv-x="1376" 
d="M508 848l104 590h-321l-254 -1438h323l127 727l412 -727h391l-459 801l680 637h-387zM451 -561l200 434h-227l-154 -434h181z" />
    <glyph glyph-name="uni0137" unicode="&#x137;" horiz-adv-x="1134" 
d="M455 684l143 813h-315l-265 -1497h316l94 535l256 -535h354l-309 616l485 451h-366zM330 -561l200 434h-227l-153 -434h180z" />
    <glyph glyph-name="kgreenlandic" unicode="&#x138;" horiz-adv-x="1140" 
d="M455 684l67 383h-315l-189 -1067h316l94 535l256 -535h354l-309 616l485 451h-366z" />
    <glyph glyph-name="Lacute" unicode="&#x139;" horiz-adv-x="1171" 
d="M395 285l203 1153h-324l-254 -1438h1022l52 285h-699zM629 1954l-267 -355h224l334 263z" />
    <glyph glyph-name="lacute" unicode="&#x13a;" horiz-adv-x="589" 
d="M360 0l254 1438h-323l-254 -1438h323zM610 1954l-266 -355h223l334 263z" />
    <glyph glyph-name="uni013B" unicode="&#x13b;" horiz-adv-x="1216" 
d="M422 285l203 1153h-324l-254 -1438h1022l51 285h-698zM397 -561l201 434h-227l-154 -434h180z" />
    <glyph glyph-name="uni013C" unicode="&#x13c;" horiz-adv-x="589" 
d="M360 0l254 1438h-323l-254 -1438h323zM25 -561l200 434h-227l-154 -434h181z" />
    <glyph glyph-name="Lcaron" unicode="&#x13d;" horiz-adv-x="1155" 
d="M412 285l202 1153h-323l-254 -1438h1022l51 285h-698zM1044 1204l203 434h-227l-154 -434h178z" />
    <glyph glyph-name="lcaron" unicode="&#x13e;" horiz-adv-x="548" 
d="M334 0l264 1497h-315l-265 -1497h316zM819 1204l203 434h-227l-154 -434h178z" />
    <glyph glyph-name="Ldot" unicode="&#x13f;" horiz-adv-x="1153" 
d="M412 285l202 1153h-323l-254 -1438h1022l51 285h-698zM975 940q-28 0 -56 -6t-63.5 -22.5t-62 -53.5t-35.5 -90q-15 -79 29.5 -125.5t125.5 -46.5q82 0 144.5 46.5t75.5 125.5q14 82 -31 127t-127 45z" />
    <glyph glyph-name="ldot" unicode="&#x140;" horiz-adv-x="823" 
d="M334 0l264 1497h-315l-265 -1497h316zM780 940q-28 0 -56 -6t-63.5 -22.5t-62 -53.5t-35.5 -90q-15 -79 30 -125.5t126 -46.5q82 0 144 46.5t75 125.5q14 82 -31 127t-127 45z" />
    <glyph glyph-name="Lslash" unicode="&#x141;" horiz-adv-x="1167" 
d="M408 285l202 1153h-323l-254 -1438h1022l51 285h-698zM897 420l49 274h-911l-49 -274h911z" />
    <glyph glyph-name="lslash" unicode="&#x142;" horiz-adv-x="724" 
d="M344 0l264 1497h-315l-264 -1497h315zM651 367l49 274h-682l-47 -274h680z" />
    <glyph glyph-name="Nacute" unicode="&#x143;" horiz-adv-x="1570" 
d="M1116 537l-522 897h-305l-252 -1434h319l162 918l533 -918h288l254 1438h-317zM1096 1954l-267 -355h224l333 263z" />
    <glyph glyph-name="nacute" unicode="&#x144;" horiz-adv-x="1236" 
d="M1155 690q33 185 -45.5 293.5t-253.5 108.5q-192 0 -358 -170l-291 145l-189 -1067h316l104 592q20 108 90 163.5t150 55.5q78 0 121 -55t24 -164l-104 -592h315zM936 1616l-266 -354h223l334 262z" />
    <glyph glyph-name="uni0145" unicode="&#x145;" horiz-adv-x="1589" 
d="M1126 537l-522 897h-305l-252 -1434h320l161 918l533 -918h289l254 1438h-318zM541 -561l200 434h-227l-154 -434h181z" />
    <glyph glyph-name="uni0146" unicode="&#x146;" horiz-adv-x="1263" 
d="M1167 690q33 185 -45.5 293.5t-253.5 108.5q-192 0 -358 -170l-291 145l-188 -1067h315l105 592q20 108 89.5 163.5t149.5 55.5q78 0 121.5 -55t24.5 -164l-105 -592h316zM358 -561l201 434h-227l-154 -434h180z" />
    <glyph glyph-name="Ncaron" unicode="&#x147;" horiz-adv-x="1570" 
d="M1116 537l-522 897h-305l-252 -1434h319l162 918l533 -918h288l254 1438h-317zM1397 1933h-236l-155 -145l-107 145h-240l213 -354h187z" />
    <glyph glyph-name="ncaron" unicode="&#x148;" horiz-adv-x="1236" 
d="M1155 690q33 185 -45.5 293.5t-253.5 108.5q-192 0 -358 -170l-291 145l-189 -1067h316l104 592q20 108 90 163.5t150 55.5q78 0 121 -55t24 -164l-104 -592h315zM1169 1573h-235l-154 -146l-106 146h-240l211 -354h189z" />
    <glyph glyph-name="Eng" unicode="&#x14a;" horiz-adv-x="1570" 
d="M289 1434l-252 -1434h319l162 918l514 -885l-8 -41q-21 -119 -113 -119q-35 0 -73 14l-41 -227q72 -14 139 -14q177 0 275 88t130 274l19 103l233 1327h-317l-160 -901l-522 897h-305z" />
    <glyph glyph-name="eng" unicode="&#x14b;" horiz-adv-x="1236" 
d="M207 1067l-189 -1067h316l104 592q20 108 90 163.5t150 55.5q78 0 121 -55t24 -164l-104 -590q-24 -129 -115 -129q-36 0 -74 14l-41 -227q72 -14 140 -14q177 0 275 88t130 274l121 682q33 187 -50 294.5t-249 107.5q-192 0 -358 -170z" />
    <glyph glyph-name="Omacron" unicode="&#x14c;" horiz-adv-x="1699" 
d="M748 -29q147 0 279 39.5t233 109t180.5 163t129 202t70.5 226.5q29 155 -4 294.5t-115.5 240.5t-214.5 160.5t-294 59.5q-215 0 -408.5 -100.5t-322.5 -272t-166 -376.5q-27 -153 6.5 -290.5t116.5 -237.5t215.5 -159t294.5 -59zM958 1174q87 0 155 -24.5t110.5 -67
t68.5 -100t29 -125t-8 -140.5q-35 -189 -180.5 -322t-333.5 -133q-125 0 -214.5 63t-125 168t-13.5 230q21 123 93 225.5t182.5 164t236.5 61.5zM1397 1546l37 199h-713l-35 -199h711z" />
    <glyph glyph-name="omacron" unicode="&#x14d;" horiz-adv-x="1296" 
d="M545 -25q186 0 333.5 73.5t236 199t116.5 289.5q25 152 -27.5 279t-174 201.5t-286.5 74.5t-313 -75.5t-245 -203.5t-124 -281q-27 -152 24.5 -279.5t173 -202.5t286.5 -75zM694 825q92 0 150 -40.5t76 -105.5t2 -147q-24 -120 -116.5 -205t-211.5 -85q-117 0 -181 86
t-42 209q21 121 111 204.5t212 83.5zM1124 1208l37 199h-712l-35 -199h710z" />
    <glyph glyph-name="Obreve" unicode="&#x14e;" horiz-adv-x="1699" 
d="M748 -29q147 0 279 39.5t233 109t180.5 163t129 202t70.5 226.5q29 155 -4 294.5t-115.5 240.5t-214.5 160.5t-294 59.5q-215 0 -408.5 -100.5t-322.5 -272t-166 -376.5q-27 -153 6.5 -290.5t116.5 -237.5t215.5 -159t294.5 -59zM958 1174q87 0 155 -24.5t110.5 -67
t68.5 -100t29 -125t-8 -140.5q-35 -189 -180.5 -322t-333.5 -133q-125 0 -214.5 63t-125 168t-13.5 230q21 123 93 225.5t182.5 164t236.5 61.5zM1317 1878q-29 -68 -75 -104.5t-101 -36.5q-56 0 -91 37t-42 104h-181q-12 -154 63 -250t210 -96q137 0 247 96t148 250h-178z
" />
    <glyph glyph-name="obreve" unicode="&#x14f;" horiz-adv-x="1296" 
d="M545 -25q186 0 333.5 73.5t236 199t116.5 289.5q25 152 -27.5 279t-174 201.5t-286.5 74.5t-313 -75.5t-245 -203.5t-124 -281q-27 -152 24.5 -279.5t173 -202.5t286.5 -75zM694 825q92 0 150 -40.5t76 -105.5t2 -147q-24 -120 -116.5 -205t-211.5 -85q-117 0 -181 86
t-42 209q21 121 111 204.5t212 83.5zM1034 1540q-29 -68 -75 -104.5t-101 -36.5q-56 0 -91 37t-42 104h-180q-12 -154 63 -250t209 -96q137 0 247 96t148 250h-178z" />
    <glyph glyph-name="Ohungarumlaut" unicode="&#x150;" horiz-adv-x="1699" 
d="M748 -29q147 0 279 39.5t233 109t180.5 163t129 202t70.5 226.5q29 155 -4 294.5t-115.5 240.5t-214.5 160.5t-294 59.5q-215 0 -408.5 -100.5t-322.5 -272t-166 -376.5q-27 -153 6.5 -290.5t116.5 -237.5t215.5 -159t294.5 -59zM958 1174q87 0 155 -24.5t110.5 -67
t68.5 -100t29 -125t-8 -140.5q-35 -189 -180.5 -322t-333.5 -133q-125 0 -214.5 63t-125 168t-13.5 230q21 123 93 225.5t182.5 164t236.5 61.5zM965 1571l356 319l-262 49l-316 -368h222zM1384 1571l359 319l-264 49l-314 -368h219z" />
    <glyph glyph-name="ohungarumlaut" unicode="&#x151;" horiz-adv-x="1327" 
d="M545 -25q186 0 333.5 73.5t236 199t116.5 289.5q25 152 -27.5 279t-174 201.5t-286.5 74.5t-313 -75.5t-245 -203.5t-124 -281q-27 -152 24.5 -279.5t173 -202.5t286.5 -75zM694 825q92 0 150 -40.5t76 -105.5t2 -147q-24 -120 -116.5 -205t-211.5 -85q-117 0 -181 86
t-42 209q21 121 111 204.5t212 83.5zM715 1233l356 319l-262 50l-315 -369h221zM1135 1233l358 319l-264 50l-314 -369h220z" />
    <glyph glyph-name="OE" unicode="&#x152;" horiz-adv-x="2254" 
d="M1147 1124q-83 50 -184 50q-192 0 -338 -130.5t-179 -320.5q-22 -121 14 -225.5t126 -169t215 -64.5q116 0 200 47zM1374 596l-57 -320h776l-49 -276h-1069q-113 -29 -219 -29q-161 0 -294.5 58t-218.5 157.5t-120 238t-8 292.5q37 205 166 376.5t322.5 272t408.5 100.5
q108 0 211 -28h1061l-50 -279h-761l-52 -303h693l-46 -260h-694z" />
    <glyph glyph-name="oe" unicode="&#x153;" horiz-adv-x="2082" 
d="M1880 350q-180 -145 -430 -145q-148 0 -207 117l766 188q11 92 5.5 176.5t-38.5 157.5t-83.5 126.5t-129 84t-176.5 30.5q-260 0 -434 -190q-61 93 -166 145t-242 52q-166 0 -314 -75.5t-245.5 -203.5t-124.5 -281q-27 -152 24.5 -279.5t173 -202.5t286.5 -75
q134 0 256 52t217 143q52 -97 149.5 -149t235.5 -52q104 0 219 29.5t211 89.5zM694 825q136 0 193.5 -83.5t34.5 -209.5q-22 -119 -115 -204.5t-213 -85.5q-117 0 -181 86t-42 209q21 121 111 204.5t212 83.5zM1253 543q8 57 28 109t52 96.5t80.5 71t106.5 26.5
q86 0 136 -52t56 -143z" />
    <glyph glyph-name="Racute" unicode="&#x154;" horiz-adv-x="1349" 
d="M37 0h325l87 494h178l254 -494h376l-288 541q162 48 268 159t135 273q39 213 -86.5 339t-394.5 126h-600zM496 748l71 407h256q124 0 181.5 -50t39.5 -151q-17 -99 -98.5 -152.5t-206.5 -53.5h-243zM1020 1954l-266 -355h223l334 263z" />
    <glyph glyph-name="racute" unicode="&#x155;" horiz-adv-x="851" 
d="M891 1083q-12 2 -41 2q-215 0 -358 -202l-285 184l-189 -1067h316l74 414q20 118 76 198.5t131 116t167 35.5q40 0 52 -6zM723 1616l-266 -354h223l334 262z" />
    <glyph glyph-name="uni0156" unicode="&#x156;" horiz-adv-x="1349" 
d="M37 0h325l87 494h178l254 -494h376l-288 541q162 48 268 159t135 273q39 213 -86.5 339t-394.5 126h-600zM496 748l71 407h256q124 0 181.5 -50t39.5 -151q-17 -99 -98.5 -152.5t-206.5 -53.5h-243zM446 -561l201 434h-227l-154 -434h180z" />
    <glyph glyph-name="uni0157" unicode="&#x157;" horiz-adv-x="802" 
d="M891 1083q-12 2 -41 2q-215 0 -358 -202l-285 184l-189 -1067h316l74 414q20 118 76 198.5t131 116t167 35.5q40 0 52 -6zM23 -561l200 434h-227l-154 -434h181z" />
    <glyph glyph-name="Rcaron" unicode="&#x158;" horiz-adv-x="1349" 
d="M37 0h325l87 494h178l254 -494h376l-288 541q162 48 268 159t135 273q39 213 -86.5 339t-394.5 126h-600zM496 748l71 407h256q124 0 181.5 -50t39.5 -151q-17 -99 -98.5 -152.5t-206.5 -53.5h-243zM1272 1933h-236l-155 -145l-107 145h-239l213 -354h186z" />
    <glyph glyph-name="rcaron" unicode="&#x159;" horiz-adv-x="802" 
d="M891 1083q-12 2 -41 2q-215 0 -358 -202l-285 184l-189 -1067h316l74 414q20 118 76 198.5t131 116t167 35.5q40 0 52 -6zM995 1573h-235l-154 -146l-106 146h-240l211 -354h188z" />
    <glyph glyph-name="Sacute" unicode="&#x15a;" horiz-adv-x="1263" 
d="M842 385q-8 -42 -35.5 -71.5t-66.5 -43t-75 -19t-75 -5.5q-151 0 -299 66t-254 180l-53 -302q99 -110 243.5 -162.5t315.5 -52.5q230 0 398.5 102t219.5 292q24 103 8 181.5t-59.5 130.5t-106 91.5t-131 64.5t-135 49.5t-118.5 46.5t-80.5 56t-20.5 78q11 59 73 95
t165 36q122 0 243.5 -57.5t206.5 -155.5l56 311q-175 166 -482 166q-102 0 -199 -26.5t-179 -77t-139 -132t-75 -182.5q-14 -80 0.5 -145t51.5 -109.5t88 -80.5t110.5 -61t119.5 -46.5t114 -42.5t94.5 -44.5t61.5 -56t14 -73.5zM993 1954l-266 -355h223l334 263z" />
    <glyph glyph-name="sacute" unicode="&#x15b;" horiz-adv-x="942" 
d="M547 297q-6 -37 -38 -59t-62 -27.5t-62 -5.5q-86 0 -184.5 42.5t-175.5 106.5l-48 -270q104 -53 191 -80t194 -27q189 0 318.5 92t157.5 246q13 73 -7 131t-61.5 93.5t-95 63t-108 47.5t-99 38.5t-70 43.5t-20.5 56q6 32 39.5 53t85.5 21q70 0 161.5 -36t161.5 -87
l47 271q-82 42 -157 61t-172 19q-180 0 -305.5 -87t-151.5 -237q-11 -65 3 -118t46.5 -86.5t76.5 -61t92 -44.5t93.5 -35t81 -33t54.5 -38.5t14 -52.5zM737 1616l-266 -354h223l334 262z" />
    <glyph glyph-name="Scircumflex" unicode="&#x15c;" horiz-adv-x="1263" 
d="M842 385q-8 -42 -35.5 -71.5t-66.5 -43t-75 -19t-75 -5.5q-151 0 -299 66t-254 180l-53 -302q99 -110 243.5 -162.5t315.5 -52.5q230 0 398.5 102t219.5 292q24 103 8 181.5t-59.5 130.5t-106 91.5t-131 64.5t-135 49.5t-118.5 46.5t-80.5 56t-20.5 78q11 59 73 95
t165 36q122 0 243.5 -57.5t206.5 -155.5l56 311q-175 166 -482 166q-102 0 -199 -26.5t-179 -77t-139 -132t-75 -182.5q-14 -80 0.5 -145t51.5 -109.5t88 -80.5t110.5 -61t119.5 -46.5t114 -42.5t94.5 -44.5t61.5 -56t14 -73.5zM1178 1602l-201 350h-184l-326 -350h223
l158 139l108 -139h222z" />
    <glyph glyph-name="scircumflex" unicode="&#x15d;" horiz-adv-x="937" 
d="M547 297q-6 -37 -38 -59t-62 -27.5t-62 -5.5q-86 0 -184.5 42.5t-175.5 106.5l-48 -270q104 -53 191 -80t194 -27q189 0 318.5 92t157.5 246q13 73 -7 131t-61.5 93.5t-95 63t-108 47.5t-99 38.5t-70 43.5t-20.5 56q6 32 39.5 53t85.5 21q70 0 161.5 -36t161.5 -87
l47 271q-82 42 -157 61t-172 19q-180 0 -305.5 -87t-151.5 -237q-11 -65 3 -118t46.5 -86.5t76.5 -61t92 -44.5t93.5 -35t81 -33t54.5 -38.5t14 -52.5zM928 1264l-201 350h-184l-326 -350h223l158 139l109 -139h221z" />
    <glyph glyph-name="Scedilla" unicode="&#x15e;" horiz-adv-x="1261" 
d="M842 385q-8 -42 -35.5 -71.5t-66.5 -43t-75 -19t-75 -5.5q-151 0 -299 66t-254 180l-53 -302q99 -110 243.5 -162.5t315.5 -52.5q230 0 398.5 102t219.5 292q24 103 8 181.5t-59.5 130.5t-106 91.5t-131 64.5t-135 49.5t-118.5 46.5t-80.5 56t-20.5 78q11 59 73 95
t165 36q122 0 243.5 -57.5t206.5 -155.5l56 311q-175 166 -482 166q-102 0 -199 -26.5t-179 -77t-139 -132t-75 -182.5q-14 -80 0.5 -145t51.5 -109.5t88 -80.5t110.5 -61t119.5 -46.5t114 -42.5t94.5 -44.5t61.5 -56t14 -73.5zM506 -141l110 141h-139l-174 -211l45 -43
q50 18 88 18q37 0 55.5 -14.5t14.5 -40.5q-4 -25 -28 -42t-50 -23t-51 -6q-62 0 -125 28l-64 -104q93 -49 197 -49q45 0 89 10t86.5 31t72.5 59.5t39 89.5q12 77 -35 116.5t-117 39.5h-14z" />
    <glyph glyph-name="scedilla" unicode="&#x15f;" horiz-adv-x="942" 
d="M547 297q-6 -37 -38 -59t-62 -27.5t-62 -5.5q-86 0 -184.5 42.5t-175.5 106.5l-48 -270q104 -53 191 -80t194 -27q189 0 318.5 92t157.5 246q13 73 -7 131t-61.5 93.5t-95 63t-108 47.5t-99 38.5t-70 43.5t-20.5 56q6 32 39.5 53t85.5 21q70 0 161.5 -36t161.5 -87
l47 271q-82 42 -157 61t-172 19q-180 0 -305.5 -87t-151.5 -237q-11 -65 3 -118t46.5 -86.5t76.5 -61t92 -44.5t93.5 -35t81 -33t54.5 -38.5t14 -52.5zM348 -141l111 141h-140l-174 -211l45 -43q50 18 89 18q37 0 55 -14.5t14 -40.5q-4 -25 -28 -42t-50 -23t-51 -6
q-62 0 -125 28l-63 -104q93 -49 196 -49q45 0 89 10t86.5 31t72.5 59.5t39 89.5q12 77 -35 116.5t-117 39.5h-14z" />
    <glyph glyph-name="Scaron" unicode="&#x160;" horiz-adv-x="1263" 
d="M842 385q-8 -42 -35.5 -71.5t-66.5 -43t-75 -19t-75 -5.5q-151 0 -299 66t-254 180l-53 -302q99 -110 243.5 -162.5t315.5 -52.5q230 0 398.5 102t219.5 292q24 103 8 181.5t-59.5 130.5t-106 91.5t-131 64.5t-135 49.5t-118.5 46.5t-80.5 56t-20.5 78q11 59 73 95
t165 36q122 0 243.5 -57.5t206.5 -155.5l56 311q-175 166 -482 166q-102 0 -199 -26.5t-179 -77t-139 -132t-75 -182.5q-14 -80 0.5 -145t51.5 -109.5t88 -80.5t110.5 -61t119.5 -46.5t114 -42.5t94.5 -44.5t61.5 -56t14 -73.5zM1245 1933h-235l-156 -145l-106 145h-240
l213 -354h186z" />
    <glyph glyph-name="scaron" unicode="&#x161;" horiz-adv-x="942" 
d="M547 297q-6 -37 -38 -59t-62 -27.5t-62 -5.5q-86 0 -184.5 42.5t-175.5 106.5l-48 -270q104 -53 191 -80t194 -27q189 0 318.5 92t157.5 246q13 73 -7 131t-61.5 93.5t-95 63t-108 47.5t-99 38.5t-70 43.5t-20.5 56q6 32 39.5 53t85.5 21q70 0 161.5 -36t161.5 -87
l47 271q-82 42 -157 61t-172 19q-180 0 -305.5 -87t-151.5 -237q-11 -65 3 -118t46.5 -86.5t76.5 -61t92 -44.5t93.5 -35t81 -33t54.5 -38.5t14 -52.5zM1024 1595h-236l-155 -145l-107 145h-239l213 -354h186z" />
    <glyph glyph-name="uni0162" unicode="&#x162;" horiz-adv-x="1224" 
d="M676 0l203 1153h430l51 285h-1182l-51 -285h430l-203 -1153h322zM487 -141l111 141h-139l-174 -211l45 -43q50 18 88 18q37 0 55 -14.5t14 -40.5q-4 -25 -28 -42t-50 -23t-51 -6q-62 0 -125 28l-63 -104q93 -49 197 -49q45 0 89 10t86 31t72 59.5t39 89.5
q12 77 -34.5 116.5t-116.5 39.5h-15z" />
    <glyph glyph-name="uni0163" unicode="&#x163;" horiz-adv-x="831" 
d="M193 311q-29 -164 41.5 -249t224.5 -85q123 0 223 50l43 249q-78 -30 -129 -30q-100 0 -82 110l80 455h258l45 256h-258l61 342l-630 -598h209zM414 -141l110 141h-139l-174 -211l45 -43q50 18 88 18q37 0 55.5 -14.5t14.5 -40.5q-4 -25 -28 -42t-50 -23t-51 -6
q-62 0 -125 28l-64 -104q93 -49 197 -49q45 0 89 10t86.5 31t72.5 59.5t39 89.5q12 77 -35 116.5t-117 39.5h-14z" />
    <glyph glyph-name="Tcaron" unicode="&#x164;" horiz-adv-x="1224" 
d="M676 0l203 1153h430l51 285h-1182l-51 -285h430l-203 -1153h322zM1223 1933h-236l-156 -145l-106 145h-240l213 -354h187z" />
    <glyph glyph-name="tcaron" unicode="&#x165;" horiz-adv-x="831" 
d="M193 311q-29 -164 41.5 -249t224.5 -85q123 0 223 50l43 249q-78 -30 -129 -30q-100 0 -82 110l80 455h258l45 256h-258l61 342l-630 -598h209zM920 1204l202 434h-227l-154 -434h179z" />
    <glyph glyph-name="Tbar" unicode="&#x166;" horiz-adv-x="1224" 
d="M676 0l203 1153h430l51 285h-1182l-51 -285h430l-203 -1153h322zM987 655l37 199h-713l-35 -199h711z" />
    <glyph glyph-name="tbar" unicode="&#x167;" horiz-adv-x="831" 
d="M193 311q-29 -164 41.5 -249t224.5 -85q123 0 223 50l43 249q-78 -30 -129 -30q-100 0 -82 110l80 455h258l45 256h-258l61 342l-630 -598h209zM766 483l37 199h-719l-35 -199h717z" />
    <glyph glyph-name="Utilde" unicode="&#x168;" horiz-adv-x="1513" 
d="M131 612q-19 -119 -16 -212.5t33 -165t76 -121.5t113 -81.5t145 -46t171 -14.5q324 0 508.5 161.5t243.5 490.5l143 815h-325l-146 -826q-32 -175 -126.5 -261.5t-243.5 -86.5q-164 0 -222.5 87.5t-25.5 269.5l143 817h-326zM756 1556q26 53 50 75t54 22q28 0 102 -37
t125 -37q161 0 285 268l-170 33q-23 -50 -44.5 -71t-47.5 -21q-25 0 -102 37t-131 37q-170 0 -293 -273z" />
    <glyph glyph-name="utilde" unicode="&#x169;" horiz-adv-x="1226" 
d="M80 387q-9 -50 -9 -97t8.5 -94t31 -85.5t57 -69t88 -47.5t121.5 -17q211 0 354 150l291 -143l190 1085h-315l-102 -592q-19 -109 -87 -165t-151 -56q-82 0 -123.5 53.5t-21.5 167.5l102 592h-315zM549 1219q44 96 102 96q29 0 103.5 -37t126.5 -37q158 0 282 268l-170 33
q-24 -50 -44 -71t-46 -21t-102.5 37t-130.5 37q-170 0 -293 -273z" />
    <glyph glyph-name="Umacron" unicode="&#x16a;" horiz-adv-x="1513" 
d="M131 612q-19 -119 -16 -212.5t33 -165t76 -121.5t113 -81.5t145 -46t171 -14.5q324 0 508.5 161.5t243.5 490.5l143 815h-325l-146 -826q-32 -175 -126.5 -261.5t-243.5 -86.5q-164 0 -222.5 87.5t-25.5 269.5l143 817h-326zM1290 1546l37 199h-713l-34 -199h710z" />
    <glyph glyph-name="umacron" unicode="&#x16b;" horiz-adv-x="1226" 
d="M80 387q-9 -50 -9 -97t8.5 -94t31 -85.5t57 -69t88 -47.5t121.5 -17q211 0 354 150l291 -143l190 1085h-315l-102 -592q-19 -109 -87 -165t-151 -56q-82 0 -123.5 53.5t-21.5 167.5l102 592h-315zM1096 1208l37 199h-713l-35 -199h711z" />
    <glyph glyph-name="Ubreve" unicode="&#x16c;" horiz-adv-x="1513" 
d="M131 612q-19 -119 -16 -212.5t33 -165t76 -121.5t113 -81.5t145 -46t171 -14.5q324 0 508.5 161.5t243.5 490.5l143 815h-325l-146 -826q-32 -175 -126.5 -261.5t-243.5 -86.5q-164 0 -222.5 87.5t-25.5 269.5l143 817h-326zM1147 1878q-29 -68 -75 -104.5t-101 -36.5
q-56 0 -91 37t-42 104h-181q-12 -154 63 -250t210 -96q137 0 247 96t148 250h-178z" />
    <glyph glyph-name="ubreve" unicode="&#x16d;" horiz-adv-x="1226" 
d="M80 387q-9 -50 -9 -97t8.5 -94t31 -85.5t57 -69t88 -47.5t121.5 -17q211 0 354 150l291 -143l190 1085h-315l-102 -592q-19 -109 -87 -165t-151 -56q-82 0 -123.5 53.5t-21.5 167.5l102 592h-315zM942 1540q-29 -68 -75 -104.5t-101 -36.5q-56 0 -91 37t-42 104h-180
q-12 -154 63 -250t209 -96q137 0 247 96t148 250h-178z" />
    <glyph glyph-name="Uring" unicode="&#x16e;" horiz-adv-x="1513" 
d="M131 612q-19 -119 -16 -212.5t33 -165t76 -121.5t113 -81.5t145 -46t171 -14.5q324 0 508.5 161.5t243.5 490.5l143 815h-325l-146 -826q-32 -175 -126.5 -261.5t-243.5 -86.5q-164 0 -222.5 87.5t-25.5 269.5l143 817h-326zM942 1563q103 0 180.5 65t96.5 166
q17 96 -41.5 165t-157.5 69q-96 0 -179 -68.5t-100 -165.5t42.5 -164t158.5 -67zM993 1866q27 0 46 -18.5t12 -53.5q-6 -31 -28.5 -50.5t-55.5 -19.5q-30 0 -47 19.5t-11 52.5q5 28 29.5 49t54.5 21z" />
    <glyph glyph-name="uring" unicode="&#x16f;" horiz-adv-x="1226" 
d="M80 387q-9 -50 -9 -97t8.5 -94t31 -85.5t57 -69t88 -47.5t121.5 -17q211 0 354 150l291 -143l190 1085h-315l-102 -592q-19 -109 -87 -165t-151 -56q-82 0 -123.5 53.5t-21.5 167.5l102 592h-315zM725 1190q112 0 188 64t95 167q15 97 -43 165.5t-156 68.5
q-97 0 -179.5 -68t-99.5 -166q-17 -97 41.5 -164t153.5 -67zM782 1493q28 0 46 -17.5t12 -54.5q-5 -31 -27.5 -50t-56.5 -19q-30 0 -47 19t-11 52q5 28 29.5 49t54.5 21z" />
    <glyph glyph-name="Uhungarumlaut" unicode="&#x170;" horiz-adv-x="1513" 
d="M131 612q-19 -119 -16 -212.5t33 -165t76 -121.5t113 -81.5t145 -46t171 -14.5q324 0 508.5 161.5t243.5 490.5l143 815h-325l-146 -826q-32 -175 -126.5 -261.5t-243.5 -86.5q-164 0 -222.5 87.5t-25.5 269.5l143 817h-326zM805 1571l356 319l-262 49l-315 -368h221z
M1225 1571l358 319l-264 49l-313 -368h219z" />
    <glyph glyph-name="uhungarumlaut" unicode="&#x171;" horiz-adv-x="1327" 
d="M80 387q-9 -50 -9 -97t8.5 -94t31 -85.5t57 -69t88 -47.5t121.5 -17q211 0 354 150l291 -143l190 1085h-315l-102 -592q-19 -109 -87 -165t-151 -56q-82 0 -123.5 53.5t-21.5 167.5l102 592h-315zM621 1233l356 319l-262 50l-316 -369h222zM1040 1233l359 319l-264 50
l-314 -369h219z" />
    <glyph glyph-name="Uogonek" unicode="&#x172;" horiz-adv-x="1513" 
d="M131 612q-19 -119 -16 -212.5t33 -165t76 -121.5t113 -81.5t145 -46t171 -14.5q324 0 508.5 161.5t243.5 490.5l143 815h-325l-146 -826q-32 -175 -126.5 -261.5t-243.5 -86.5q-164 0 -222.5 87.5t-25.5 269.5l143 817h-326zM801 -256q-74 -27 -111 -27q-35 0 -54 19.5
t-13 52.5q10 63 155 211h-213q-66 -64 -109 -122.5t-55 -123.5q-17 -98 44 -155.5t171 -57.5q100 0 197 47z" />
    <glyph glyph-name="uogonek" unicode="&#x173;" horiz-adv-x="1226" 
d="M80 387q-9 -50 -9 -97t8.5 -94t31 -85.5t57 -69t88 -47.5t121.5 -17q211 0 354 150l291 -143l190 1085h-315l-102 -592q-19 -109 -87 -165t-151 -56q-82 0 -123.5 53.5t-21.5 167.5l102 592h-315zM1049 -256q-74 -27 -111 -27q-35 0 -53.5 20t-12.5 54q6 62 152 193
l-147 77q-110 -100 -162.5 -168t-65.5 -137q-17 -98 44 -156.5t171 -58.5q100 0 197 47z" />
    <glyph glyph-name="Wcircumflex" unicode="&#x174;" horiz-adv-x="2154" 
d="M627 489l-129 949h-342l227 -1444h287l475 946l147 -946h287l733 1444h-336l-458 -949l-138 951h-282zM1616 1602l-201 350h-184l-326 -350h223l158 139l109 -139h221z" />
    <glyph glyph-name="wcircumflex" unicode="&#x175;" horiz-adv-x="1613" 
d="M389 1067h-313l149 -1073h277l319 653l90 -653h279l530 1073h-309l-293 -635l-82 639h-272l-307 -637zM1286 1264l-201 350h-184l-326 -350h224l157 139l109 -139h221z" />
    <glyph glyph-name="Ycircumflex" unicode="&#x176;" horiz-adv-x="1396" 
d="M764 0l98 553l703 885h-361l-448 -586l-240 586h-371l392 -889l-97 -549h324zM1245 1602l-201 350h-184l-325 -350h223l157 139l109 -139h221z" />
    <glyph glyph-name="ycircumflex" unicode="&#x177;" horiz-adv-x="1138" 
d="M80 1067l270 -1075l-176 -338h272l793 1413h-326l-370 -733l-131 733h-332zM1061 1264l-201 350h-184l-326 -350h223l158 139l109 -139h221z" />
    <glyph glyph-name="Ydieresis" unicode="&#x178;" horiz-adv-x="1396" 
d="M764 0l98 553l703 885h-361l-448 -586l-240 586h-371l392 -889l-97 -549h324zM727 1937q-27 0 -53.5 -7t-55 -23t-50 -48.5t-29.5 -76.5q-13 -72 25.5 -115t107.5 -43t122.5 43t65.5 115q13 71 -25.5 113t-107.5 42zM1165 1937q-27 0 -53.5 -7t-55 -23t-50 -48.5
t-29.5 -76.5q-15 -71 24 -114.5t109 -43.5q68 0 121.5 43t66.5 115q12 71 -26.5 113t-106.5 42z" />
    <glyph glyph-name="Zacute" unicode="&#x179;" horiz-adv-x="1290" 
d="M397 274l979 920l41 244h-1220l-50 -277h785l-981 -919l-43 -242h1243l47 274h-801zM944 1954l-266 -355h223l334 263z" />
    <glyph glyph-name="zacute" unicode="&#x17a;" horiz-adv-x="1075" 
d="M387 254l698 596l39 217h-977l-45 -252h568l-699 -598l-39 -217h1000l45 254h-590zM815 1616l-266 -354h223l334 262z" />
    <glyph glyph-name="Zdotaccent" unicode="&#x17b;" horiz-adv-x="1290" 
d="M397 274l979 920l41 244h-1220l-50 -277h785l-981 -919l-43 -242h1243l47 274h-801zM913 1903q-28 0 -56 -6t-63.5 -22.5t-62 -53.5t-35.5 -90q-15 -79 30 -125.5t126 -46.5q82 0 144 46.5t75 125.5q14 82 -31 127t-127 45z" />
    <glyph glyph-name="zdotaccent" unicode="&#x17c;" horiz-adv-x="1075" 
d="M387 254l698 596l39 217h-977l-45 -252h568l-699 -598l-39 -217h1000l45 254h-590zM725 1565q-28 0 -56 -6t-63.5 -22.5t-62 -53.5t-35.5 -90q-15 -79 30 -125.5t126 -46.5q82 0 144 46.5t75 125.5q14 82 -31 127t-127 45z" />
    <glyph glyph-name="Zcaron" unicode="&#x17d;" horiz-adv-x="1290" 
d="M397 274l979 920l41 244h-1220l-50 -277h785l-981 -919l-43 -242h1243l47 274h-801zM1251 1933h-235l-156 -145l-106 145h-240l213 -354h186z" />
    <glyph glyph-name="zcaron" unicode="&#x17e;" horiz-adv-x="1075" 
d="M387 254l698 596l39 217h-977l-45 -252h568l-699 -598l-39 -217h1000l45 254h-590zM1090 1573h-236l-154 -146l-106 146h-240l211 -354h189z" />
    <glyph glyph-name="florin" unicode="&#x192;" horiz-adv-x="892" 
d="M188 702l-370 -995h313l375 995h219l90 244h-223l51 127q38 99 88.5 140.5t128.5 41.5q44 0 78 -10l86 234q-77 22 -184 22q-172 0 -292.5 -85.5t-193.5 -272.5l-80 -197h-133l-92 -244h139z" />
    <glyph glyph-name="uni01CD" unicode="&#x1cd;" horiz-adv-x="1509" 
d="M412 305h596l71 -305h348l-364 1444h-303l-871 -1444h340zM555 563l289 500l110 -500h-399zM1368 1942h-235l-156 -146l-107 146h-239l213 -355h186z" />
    <glyph glyph-name="uni01CE" unicode="&#x1ce;" horiz-adv-x="1208" 
d="M733 272q-111 -88 -235 -88q-80 0 -127.5 43t-34.5 115q12 73 81 116.5t163 43.5q107 0 184 -45zM1104 635q38 221 -74 335.5t-364 114.5q-203 0 -439 -86l-39 -235q181 76 363 76q139 0 203.5 -46.5t44.5 -146.5l-6 -24q-109 51 -275 51q-92 0 -172.5 -20t-147.5 -60.5
t-112.5 -107.5t-60.5 -154q-15 -83 4.5 -151.5t65.5 -112.5t112 -68.5t145 -24.5q193 0 348 136l289 -127zM1161 1573h-235l-154 -146l-106 146h-240l211 -354h188z" />
    <glyph glyph-name="Aringacute" unicode="&#x1fa;" horiz-adv-x="1495" 
d="M903 1403q-28 0 -46.5 18.5t-12.5 53.5q5 30 29 49.5t57 19.5q30 0 46.5 -20.5t10.5 -50.5q-4 -30 -28.5 -50t-55.5 -20zM-111 0h340l148 244h629l61 -244h346l-371 1307q92 68 109 166q17 96 -41.5 164.5t-157.5 68.5q-95 0 -178 -68t-100 -165t49 -166zM940 502h-408
l289 475zM1116 2107l-266 -354h223l334 262z" />
    <glyph glyph-name="Aringacute" unicode="&#x1fb;" horiz-adv-x="1495" 
d="M903 1403q-28 0 -46.5 18.5t-12.5 53.5q5 30 29 49.5t57 19.5q30 0 46.5 -20.5t10.5 -50.5q-4 -30 -28.5 -50t-55.5 -20zM-111 0h340l148 244h629l61 -244h346l-371 1307q92 68 109 166q17 96 -41.5 164.5t-157.5 68.5q-95 0 -178 -68t-100 -165t49 -166zM940 502h-408
l289 475zM1116 2107l-266 -354h223l334 262z" />
    <glyph glyph-name="AEacute" unicode="&#x1fc;" horiz-adv-x="2007" 
d="M846 1438l-957 -1438h340l217 305h431l-56 -305h1100l49 276h-778l55 320h699l45 260h-697l54 303h763l50 279h-1315zM922 563h-320l432 643zM1497 1954l-266 -355h223l334 263z" />
    <glyph glyph-name="aeacute" unicode="&#x1fd;" horiz-adv-x="1925" 
d="M1722 350q-177 -145 -428 -145q-156 0 -215 117l774 188q10 92 4.5 176.5t-38.5 157.5t-83 126.5t-128.5 84t-175.5 30.5q-220 0 -390 -141q-107 141 -376 141q-219 0 -445 -86l-41 -235q182 76 365 76q138 0 202.5 -46.5t43.5 -146.5l-5 -24q-109 51 -274 51
q-87 0 -164 -18t-145.5 -56.5t-116.5 -106t-66 -157.5q-23 -110 25.5 -193.5t144 -125.5t218.5 -42q249 0 475 146q125 -152 368 -152q231 0 424 119zM725 272q-108 -88 -233 -88q-80 0 -128.5 43t-35.5 115q13 73 82 116.5t163 43.5q108 0 185 -45zM1092 541
q10 76 45 143.5t97.5 114.5t139.5 47q87 0 138 -52.5t57 -142.5zM1251 1616l-266 -354h223l334 262z" />
    <glyph glyph-name="Oslashacute" unicode="&#x1fe;" horiz-adv-x="1685" 
d="M135 -55l166 -123l170 219q120 -70 270 -70q160 0 313 59.5t271.5 161t201 240t109.5 291.5q31 169 -13 314.5t-155 248.5l136 170l-166 123l-150 -186q-130 73 -282 73q-162 0 -315.5 -59t-271.5 -160t-200.5 -239t-109.5 -291q-32 -176 15 -324.5t163 -251.5zM489 420
q-80 124 -49 299q20 123 92 226.5t181 165.5t231 63q86 0 150 -46zM1262 1001q70 -119 43 -284q-32 -175 -164 -306.5t-307 -144.5q-99 -3 -166 41zM1198 1954l-266 -355h223l334 263z" />
    <glyph glyph-name="oslashacute" unicode="&#x1ff;" horiz-adv-x="1312" 
d="M942 674q21 -66 10 -144q-24 -129 -118 -216t-222 -87q-72 0 -125 35zM391 385q-23 63 -6 145q22 127 115.5 214t218.5 87q82 0 127 -36zM-45 -2l111 -117l204 180q120 -88 297 -88q249 0 444 161.5t238 395.5q36 208 -69 361l166 156l-109 116l-174 -164
q-114 86 -299 86q-123 0 -239.5 -44t-205 -118.5t-150 -176.5t-81.5 -216q-37 -209 68 -360zM934 1616l-266 -354h223l334 262z" />
    <glyph glyph-name="uni0218" unicode="&#x218;" horiz-adv-x="1318" 
d="M901 385q-8 -42 -35.5 -71.5t-66.5 -43t-75 -19t-75 -5.5q-151 0 -299 66t-254 180l-53 -302q99 -110 243.5 -162.5t315.5 -52.5q230 0 399 102t220 292q24 103 8 181.5t-59.5 130.5t-106 91.5t-131 64.5t-135 49.5t-118.5 46.5t-80.5 56t-20.5 78q11 59 72.5 95
t164.5 36q122 0 244.5 -57.5t206.5 -155.5l55 311q-175 166 -481 166q-102 0 -199 -26.5t-179 -77t-139 -132t-75 -182.5q-14 -80 0.5 -145t51 -109.5t88 -80.5t111 -61t119 -46.5t113.5 -42.5t94.5 -44.5t61.5 -56t14 -73.5zM399 -561l201 434h-227l-154 -434h180z" />
    <glyph glyph-name="uni0219" unicode="&#x219;" horiz-adv-x="978" 
d="M602 297q-6 -37 -38 -59t-62 -27.5t-62 -5.5q-86 0 -184.5 42.5t-175.5 106.5l-47 -270q104 -53 191 -80t194 -27q189 0 318 92t157 246q13 73 -7 131t-61.5 93.5t-95 63t-108 47.5t-99 38.5t-70 43.5t-20.5 56q6 32 39.5 53t85.5 21q70 0 162 -36t162 -87l47 271
q-82 42 -157.5 61t-172.5 19q-180 0 -305.5 -87t-151.5 -237q-11 -65 3 -118t46.5 -86.5t76.5 -61t92 -44.5t93.5 -35t81 -33t54.5 -38.5t14 -52.5zM229 -561l201 434h-227l-154 -434h180z" />
    <glyph glyph-name="uni021A" unicode="&#x21a;" horiz-adv-x="1224" 
d="M676 0l203 1153h430l51 285h-1182l-51 -285h430l-203 -1153h322zM356 -561l201 434h-227l-154 -434h180z" />
    <glyph glyph-name="uni021B" unicode="&#x21b;" horiz-adv-x="831" 
d="M193 311q-29 -164 41.5 -249t224.5 -85q123 0 223 50l43 249q-78 -30 -129 -30q-100 0 -82 110l80 455h258l45 256h-258l61 342l-630 -598h209zM252 -561l201 434h-228l-153 -434h180z" />
    <glyph glyph-name="uni0237" unicode="&#x237;" horiz-adv-x="514" 
d="M-213 -340q72 -14 137 -14q178 0 276 88t130 274l186 1059h-313l-189 -1065q-21 -129 -114 -129q-37 0 -72 14z" />
    <glyph glyph-name="circumflex" unicode="&#x2c6;" horiz-adv-x="737" 
d="M850 1264l-201 350h-184l-326 -350h223l158 139l109 -139h221z" />
    <glyph glyph-name="caron" unicode="&#x2c7;" horiz-adv-x="745" 
d="M926 1595h-236l-155 -145l-107 145h-240l213 -354h187z" />
    <glyph glyph-name="uni02C9" unicode="&#x2c9;" horiz-adv-x="860" 
d="M903 1208l37 199h-713l-34 -199h710z" />
    <glyph glyph-name="breve" unicode="&#x2d8;" horiz-adv-x="696" 
d="M678 1540q-29 -68 -75 -104.5t-101 -36.5q-56 0 -91 37t-42 104h-181q-12 -154 63 -250t210 -96q137 0 247 96t148 250h-178z" />
    <glyph glyph-name="dotaccent" unicode="&#x2d9;" horiz-adv-x="466" 
d="M412 1565q-28 0 -56 -6t-63.5 -22.5t-62 -53.5t-35.5 -90q-15 -79 29.5 -125.5t125.5 -46.5q82 0 144 46.5t75 125.5q14 82 -30.5 127t-126.5 45z" />
    <glyph glyph-name="ring" unicode="&#x2da;" horiz-adv-x="581" 
d="M414 1225q103 0 180 65t96 166q17 97 -41.5 165.5t-156.5 68.5q-96 0 -179 -68.5t-100 -165.5t42.5 -164t158.5 -67zM465 1528q27 0 45.5 -18.5t11.5 -53.5q-6 -31 -28.5 -50.5t-55.5 -19.5q-30 0 -46.5 19.5t-10.5 52.5q5 28 29.5 49t54.5 21z" />
    <glyph glyph-name="ogonek" unicode="&#x2db;" horiz-adv-x="798" 
d="M434 -256q-74 -27 -110 -27q-35 0 -54.5 19.5t-13.5 52.5q10 62 156 211h-213q-66 -64 -109 -122.5t-55 -123.5q-17 -98 44 -155.5t171 -57.5q99 0 196 47z" />
    <glyph glyph-name="tilde" unicode="&#x2dc;" horiz-adv-x="768" 
d="M307 1219q26 53 50.5 74.5t54.5 21.5q28 0 102 -37t125 -37q161 0 285 268l-170 33q-23 -50 -44.5 -71t-47.5 -21q-25 0 -102.5 37t-131.5 37q-170 0 -293 -273z" />
    <glyph glyph-name="hungarumlaut" unicode="&#x2dd;" horiz-adv-x="905" 
d="M332 1233l356 319l-262 50l-315 -369h221zM752 1233l358 319l-264 50l-314 -369h220z" />
    <glyph glyph-name="gravecomb" unicode="&#x300;" 
d="M166 1524l242 -262h227l-146 354z" />
    <glyph glyph-name="acutecomb" unicode="&#x301;" 
d="M414 1616l-267 -354h224l334 262z" />
    <glyph glyph-name="uni0302" unicode="&#x302;" 
d="M850 1264l-201 350h-184l-326 -350h223l158 139l109 -139h221z" />
    <glyph glyph-name="tildecomb" unicode="&#x303;" 
d="M309 1219q44 96 103 96q29 0 103 -37t126 -37q159 0 283 268l-170 33q-24 -50 -44 -71t-46 -21t-103 37t-131 37q-170 0 -293 -273z" />
    <glyph glyph-name="uni0304" unicode="&#x304;" 
d="M903 1208l37 199h-713l-34 -199h710z" />
    <glyph glyph-name="uni0306" unicode="&#x306;" 
d="M678 1540q-29 -68 -75 -104.5t-101 -36.5q-56 0 -91 37t-42 104h-181q-12 -154 63 -250t210 -96q137 0 247 96t148 250h-178z" />
    <glyph glyph-name="uni0307" unicode="&#x307;" 
d="M412 1565q-28 0 -56 -6t-63.5 -22.5t-62 -53.5t-35.5 -90q-15 -79 29.5 -125.5t125.5 -46.5q82 0 144 46.5t75 125.5q14 82 -30.5 127t-126.5 45z" />
    <glyph glyph-name="uni0308" unicode="&#x308;" 
d="M360 1593q-68 0 -120 -42.5t-62 -110.5q-12 -71 24 -112.5t105 -41.5q67 0 119.5 42t65.5 112q12 69 -25.5 111t-106.5 42zM793 1593q-67 0 -120 -42.5t-63 -110.5q-12 -71 24 -112.5t105 -41.5q67 0 120 42t65 112q12 69 -25 111t-106 42z" />
    <glyph glyph-name="uni030A" unicode="&#x30a;" 
d="M408 1225q112 0 187.5 64t94.5 167q15 97 -42.5 165.5t-155.5 68.5q-97 0 -179.5 -68t-99.5 -166q-17 -97 41.5 -164t153.5 -67zM465 1528q28 0 45.5 -17.5t11.5 -54.5q-5 -31 -28 -50.5t-56 -19.5q-30 0 -46.5 19.5t-10.5 52.5q5 28 29.5 49t54.5 21z" />
    <glyph glyph-name="uni030B" unicode="&#x30b;" 
d="M332 1233l356 319l-262 50l-315 -369h221zM752 1233l358 319l-264 50l-314 -369h220z" />
    <glyph glyph-name="uni030C" unicode="&#x30c;" 
d="M922 1573h-236l-154 -146l-106 146h-240l211 -354h189z" />
    <glyph glyph-name="uni030F" unicode="&#x30f;" 
d="M205 1524l244 -262h225l-146 354zM635 1524l244 -262h225l-146 354z" />
    <glyph glyph-name="uni0311" unicode="&#x311;" 
d="M307 1192q29 68 75 104.5t101 36.5q56 0 91 -37t42 -104h181q12 154 -63 250t-210 96q-137 0 -247 -96t-148 -250h178z" />
    <glyph glyph-name="uni0312" unicode="&#x312;" 
d="M508 1812l-311 -669h301l233 669h-223z" />
    <glyph glyph-name="uni0326" unicode="&#x326;" 
d="M123 -520l201 434h-228l-153 -434h180z" />
    <glyph glyph-name="uni0327" unicode="&#x327;" 
d="M262 -141l111 141h-140l-174 -211l45 -43q49 18 89 18q37 0 55 -14.5t14 -40.5q-4 -25 -28 -42t-50 -23t-51 -6q-62 0 -125 28l-63 -104q93 -49 196 -49q45 0 89 10t86.5 31t72.5 59.5t39 89.5q12 77 -35 116.5t-117 39.5h-14z" />
    <glyph glyph-name="uni0328" unicode="&#x328;" 
d="M434 -256q-74 -27 -110 -27q-35 0 -54.5 19.5t-13.5 52.5q10 62 156 211h-213q-66 -64 -109 -122.5t-55 -123.5q-17 -98 44 -155.5t171 -57.5q99 0 196 47z" />
    <glyph glyph-name="uni0374" unicode="&#x374;" horiz-adv-x="956" 
d="M590 1700l-289 -479h223l469 479h-403z" />
    <glyph glyph-name="uni0375" unicode="&#x375;" horiz-adv-x="956" 
d="M395 -420l289 479h-223l-467 -479h401z" />
    <glyph glyph-name="uni037E" unicode="&#x37e;" horiz-adv-x="579" 
d="M375 1090q-84 0 -147.5 -50.5t-80.5 -140.5q-15 -89 31 -140.5t131 -51.5q84 0 148.5 52t79.5 140q17 88 -29.5 139.5t-132.5 51.5zM106 -319l310 669h-303l-232 -669h225z" />
    <glyph glyph-name="tonos" unicode="&#x384;" horiz-adv-x="956" 
d="M590 1700l-266 -354h223l446 354h-403z" />
    <glyph glyph-name="dieresistonos" unicode="&#x385;" horiz-adv-x="1191" 
d="M422 1624q-60 0 -108.5 -44t-57.5 -101q-10 -57 18 -101.5t97 -44.5q64 0 112.5 43t59.5 103q9 58 -24 101.5t-97 43.5zM729 1688l-207 -355h205l365 355h-363zM981 1479q-10 -57 18 -101.5t97 -44.5q64 0 112.5 43t59.5 103q9 58 -24 101.5t-97 43.5q-60 0 -108.5 -44
t-57.5 -101z" />
    <glyph glyph-name="Alphatonos" unicode="&#x386;" horiz-adv-x="1605" 
d="M508 305h596l72 -305h348l-365 1444h-303l-870 -1444h340zM651 563l289 500l111 -500h-400zM332 1597l-266 -354h223l446 354h-403z" />
    <glyph glyph-name="anoteleia" unicode="&#x387;" horiz-adv-x="675" 
d="M401 909q-30 0 -61 -7.5t-66.5 -26t-62.5 -58.5t-37 -96q-17 -89 29 -141t131 -52t148.5 52t80.5 141q15 88 -31 138t-131 50z" />
    <glyph glyph-name="Epsilontonos" unicode="&#x388;" horiz-adv-x="1492" 
d="M557 276l55 320h697l45 260h-695l54 303h762l49 279h-1084l-254 -1438h1098l49 276h-776zM80 1597l-266 -354h223l446 354h-403z" />
    <glyph glyph-name="Etatonos" unicode="&#x389;" horiz-adv-x="1675" 
d="M453 1438l-254 -1438h323l103 582h600l-103 -582h322l254 1438h-322l-100 -568h-602l100 568h-321zM80 1597l-266 -354h223l446 354h-403z" />
    <glyph glyph-name="Iotatonos" unicode="&#x38a;" horiz-adv-x="589" 
d="M360 0l254 1438h-323l-254 -1438h323zM-33 1597l-266 -354h223l447 354h-404z" />
    <glyph glyph-name="Omicrontonos" unicode="&#x38c;" horiz-adv-x="1724" 
d="M772 -29q183 0 341 60.5t269 164t183.5 235.5t99.5 280q29 155 -4 294.5t-115.5 240.5t-215 160.5t-294.5 59.5q-215 0 -408.5 -100.5t-322.5 -272t-166 -376.5q-27 -153 6.5 -290.5t116.5 -237.5t215.5 -159t294.5 -59zM983 1174q87 0 155 -24.5t110 -67t68.5 -100
t29 -125t-8.5 -140.5q-35 -189 -180.5 -322t-333.5 -133q-125 0 -214 63t-124.5 168t-13.5 230q21 123 93 225.5t182.5 164t236.5 61.5zM203 1597l-266 -354h223l446 354h-403z" />
    <glyph glyph-name="Upsilontonos" unicode="&#x38e;" horiz-adv-x="1626" 
d="M987 0l98 553l703 885h-361l-448 -586l-240 586h-370l391 -889l-96 -549h323zM6 1597l-266 -354h223l447 354h-404z" />
    <glyph glyph-name="Omegatonos" unicode="&#x38f;" horiz-adv-x="1769" 
d="M879 2h680l49 279h-344q148 69 253 217.5t134 308.5q27 154 -6.5 279.5t-116.5 208t-205.5 127t-273.5 44.5q-149 0 -287 -44.5t-251 -126.5t-192 -207.5t-106 -278.5q-27 -158 26 -308t173 -220h-344l-50 -279h684l52 291q-131 66 -189 186.5t-30 276.5
q32 185 155 301.5t303 116.5q184 0 267 -115.5t51 -302.5q-54 -310 -381 -463zM217 1597l-266 -354h223l447 354h-404z" />
    <glyph glyph-name="iotadieresistonos" unicode="&#x390;" horiz-adv-x="825" 
d="M440 0l189 1067h-316l-188 -1067h315zM236 1624q-60 0 -108.5 -44t-57.5 -101q-10 -57 17.5 -101.5t96.5 -44.5q64 0 112.5 43t59.5 103q9 58 -23.5 101.5t-96.5 43.5zM543 1688l-207 -355h205l364 355h-362zM795 1479q-10 -57 17.5 -101.5t96.5 -44.5q64 0 112.5 43
t59.5 103q9 58 -23.5 101.5t-96.5 43.5q-60 0 -108.5 -44t-57.5 -101z" />
    <glyph glyph-name="Alpha" unicode="&#x391;" horiz-adv-x="1509" 
d="M412 305h596l71 -305h348l-364 1444h-303l-871 -1444h340zM555 563l289 500l110 -500h-399z" />
    <glyph glyph-name="Beta" unicode="&#x392;" horiz-adv-x="1415" 
d="M291 1438l-254 -1438h647q270 0 432.5 108.5t194.5 290.5q26 138 -36 227.5t-204 123.5q110 41 181 123.5t91 201.5q22 118 -27.5 201t-152.5 122.5t-248 39.5h-624zM502 846l59 328h256q107 0 157.5 -40.5t37.5 -121.5q-14 -77 -80.5 -121.5t-177.5 -44.5h-252zM401 264
l60 344h287q143 0 202 -44t45 -126q-14 -84 -85 -129t-197 -45h-312z" />
    <glyph glyph-name="Gamma" unicode="&#x393;" horiz-adv-x="1232" 
d="M360 0l203 1153h754l51 285h-1077l-254 -1438h323z" />
    <glyph glyph-name="Epsilon" unicode="&#x395;" horiz-adv-x="1343" 
d="M408 276l55 320h696l45 260h-694l53 303h762l49 279h-1083l-254 -1438h1098l49 276h-776z" />
    <glyph glyph-name="Zeta" unicode="&#x396;" horiz-adv-x="1290" 
d="M397 274l979 920l41 244h-1220l-50 -277h787l-983 -919l-43 -242h1243l47 274h-801z" />
    <glyph glyph-name="Eta" unicode="&#x397;" horiz-adv-x="1513" 
d="M291 1438l-254 -1438h323l103 582h600l-102 -582h321l254 1438h-322l-100 -568h-602l100 568h-321z" />
    <glyph glyph-name="Theta" unicode="&#x398;" horiz-adv-x="1699" 
d="M748 -29q147 0 279 39.5t233 109t180.5 163t129 202t70.5 226.5q29 155 -4 294.5t-115.5 240.5t-214.5 160.5t-294 59.5q-215 0 -408.5 -100.5t-322.5 -272t-166 -376.5q-27 -153 6.5 -290.5t116.5 -237.5t215.5 -159t294.5 -59zM958 1174q87 0 155 -24.5t110.5 -67
t68.5 -100t29 -125t-8 -140.5q-35 -189 -180.5 -322t-333.5 -133q-125 0 -214.5 63t-125 168t-13.5 230q21 123 93 225.5t182.5 164t236.5 61.5zM588 592h538l50 278h-541z" />
    <glyph glyph-name="Iota" unicode="&#x399;" horiz-adv-x="589" 
d="M360 0l254 1438h-323l-254 -1438h323z" />
    <glyph glyph-name="Kappa" unicode="&#x39a;" horiz-adv-x="1376" 
d="M508 848l104 590h-321l-254 -1438h323l127 727l412 -727h391l-459 801l680 637h-387z" />
    <glyph glyph-name="Lambda" unicode="&#x39b;" horiz-adv-x="1482" 
d="M1053 0l-224 1063l-600 -1063h-340l859 1444h303l350 -1444h-348z" />
    <glyph glyph-name="Mu" unicode="&#x39c;" horiz-adv-x="1591" 
d="M430 932l315 -653l549 655l-164 -934h320l252 1434h-336l-528 -658l-303 658h-336l-252 -1434h317z" />
    <glyph glyph-name="Nu" unicode="&#x39d;" horiz-adv-x="1570" 
d="M1116 537l-522 897h-305l-252 -1434h319l162 918l533 -918h288l254 1438h-317z" />
    <glyph glyph-name="Xi" unicode="&#x39e;" horiz-adv-x="1323" 
d="M231 1139h1069l52 299h-1069zM16 0h1098l53 297h-1097zM201 586h934l51 280h-934z" />
    <glyph glyph-name="Omicron" unicode="&#x39f;" horiz-adv-x="1699" 
d="M745 -29q184 0 342 60.5t269 164t184 235.5t100 280q29 155 -4 294.5t-116 240.5t-215 160.5t-293 59.5q-162 0 -315.5 -59t-271.5 -160t-200.5 -239t-109.5 -291t6 -290.5t115.5 -237.5t214.5 -159t294 -59zM956 1174q109 0 188 -37.5t118.5 -100.5t54 -145.5
t-5.5 -173.5q-33 -188 -179.5 -321.5t-334.5 -133.5q-125 0 -214.5 63t-125 168t-13.5 230q34 189 179 320t333 131z" />
    <glyph glyph-name="Pi" unicode="&#x3a0;" horiz-adv-x="1484" 
d="M291 1438l-254 -1438h323l203 1149h574l-203 -1149h321l254 1444z" />
    <glyph glyph-name="Rho" unicode="&#x3a1;" horiz-adv-x="1318" 
d="M291 1438l-254 -1440h323l82 465h224q170 0 311 56.5t238 169.5t124 269q39 225 -91.5 352.5t-391.5 127.5h-565zM489 723l76 440h217q131 0 191 -55.5t41 -163.5q-19 -103 -100.5 -162t-208.5 -59h-216z" />
    <glyph glyph-name="Sigma" unicode="&#x3a3;" horiz-adv-x="1269" 
d="M141 1194l328 -473l-518 -479l-43 -242h1188l49 274h-748l480 447l-306 440h711l47 277h-1145z" />
    <glyph glyph-name="Tau" unicode="&#x3a4;" horiz-adv-x="1224" 
d="M676 0l203 1153h430l51 285h-1182l-51 -285h430l-203 -1153h322z" />
    <glyph glyph-name="Upsilon" unicode="&#x3a5;" horiz-adv-x="1396" 
d="M764 0l98 553l703 885h-361l-448 -586l-240 586h-371l392 -889l-97 -549h324z" />
    <glyph glyph-name="Phi" unicode="&#x3a6;" horiz-adv-x="1908" 
d="M1270 1448h-307l-19 -105q-17 0 -53 -4q-159 -7 -296 -57t-235.5 -132.5t-163 -191.5t-85.5 -235q-46 -256 103 -427.5t460 -186.5q9 -1 25.5 -2.5t25.5 -2.5l-20 -114h309l20 114q9 1 26.5 2.5t26.5 2.5q316 17 523 187.5t252 430.5q30 167 -23 301.5t-190.5 218
t-343.5 92.5q-32 4 -52 4zM1204 1063q174 -6 264 -100t64 -242q-26 -147 -150 -239.5t-299 -100.5zM774 381q-176 8 -269.5 99.5t-66.5 244.5q27 151 153 242t304 96z" />
    <glyph glyph-name="Chi" unicode="&#x3a7;" horiz-adv-x="1396" 
d="M557 1438h-373l357 -705l-631 -733h366l410 489l238 -489h370l-370 737l600 701h-363l-381 -461z" />
    <glyph glyph-name="Psi" unicode="&#x3a8;" horiz-adv-x="1839" 
d="M1460 915q-64 -358 -379 -358l154 881h-322l-155 -881q-311 0 -250 358l92 523h-324l-92 -525q-56 -314 84 -480.5t437 -166.5l-48 -266h324l47 266q306 0 501 166t253 488l92 518h-324z" />
    <glyph glyph-name="uni03A9" unicode="&#x3a9;" horiz-adv-x="1769" 
d="M879 2h680l49 279h-344q148 69 253 217.5t134 308.5q27 154 -6.5 279.5t-116.5 208t-205.5 127t-273.5 44.5q-149 0 -287 -44.5t-251 -126.5t-192 -207.5t-106 -278.5q-27 -158 26 -308t173 -220h-344l-50 -279h684l52 291q-131 66 -189 186.5t-30 276.5
q32 185 155 301.5t303 116.5q184 0 267 -115.5t51 -302.5q-54 -310 -381 -463z" />
    <glyph glyph-name="Iotadieresis" unicode="&#x3aa;" horiz-adv-x="595" 
d="M360 0l254 1438h-323l-254 -1438h323zM317 1937q-27 0 -53.5 -7t-55 -23t-50 -48.5t-29.5 -76.5q-13 -72 25.5 -115t107.5 -43q70 0 123.5 43t65.5 115q13 71 -26 113t-108 42zM756 1937q-27 0 -53.5 -7t-55.5 -23t-50.5 -48.5t-29.5 -76.5q-15 -71 24 -114.5t109 -43.5
q68 0 122 43t67 115q12 71 -26.5 113t-106.5 42z" />
    <glyph glyph-name="Upsilondieresis" unicode="&#x3ab;" horiz-adv-x="1396" 
d="M764 0l98 553l703 885h-361l-448 -586l-240 586h-371l392 -889l-97 -549h324zM727 1937q-24 0 -49.5 -6.5t-54.5 -21.5t-51 -48t-31 -79q-13 -72 24.5 -114t108.5 -44q69 0 122 43t66 115q12 72 -26.5 113.5t-108.5 41.5zM1165 1937q-24 0 -49.5 -6.5t-54.5 -21.5
t-51 -48t-31 -79q-13 -72 24.5 -114t108.5 -44q69 0 122 43t66 115q12 72 -26.5 113.5t-108.5 41.5z" />
    <glyph glyph-name="alphatonos" unicode="&#x3ac;" horiz-adv-x="1337" 
d="M375 553q23 127 106 200.5t205 73.5q121 0 182.5 -85.5t40.5 -204.5q-22 -119 -117.5 -207t-216.5 -88q-115 0 -168.5 89.5t-31.5 221.5zM1120 0l189 1067h-316l-26 -156q-106 181 -318 181q-150 0 -277.5 -80t-206 -206t-104.5 -274q-13 -87 -8.5 -168t35.5 -152
t79 -123.5t122 -83t164 -30.5q116 0 202.5 45t178.5 138zM952 1700l-266 -354h223l447 354h-404z" />
    <glyph glyph-name="epsilontonos" unicode="&#x3ad;" horiz-adv-x="1083" 
d="M338 334q-5 -27 10 -46t44 -28.5t58.5 -13.5t61.5 -4q145 0 328 82l12 -258q-210 -91 -414 -91q-126 0 -226 37.5t-154.5 112.5t-37.5 174q17 93 89 160t188 96q-85 35 -121.5 97.5t-21.5 144.5q17 97 88.5 165t172 99t222.5 31q201 0 360 -101l-125 -250
q-118 84 -256 84q-66 0 -110.5 -20t-50.5 -57q-9 -43 38 -63.5t132 -20.5h104l-41 -234h-137q-101 0 -154 -26.5t-59 -69.5zM805 1700l-266 -354h223l446 354h-403z" />
    <glyph glyph-name="etatonos" unicode="&#x3ae;" horiz-adv-x="1263" 
d="M1155 690q17 102 1.5 177.5t-59.5 125.5t-105 74.5t-136 24.5q-192 0 -358 -170l-291 145l-189 -1067h316l104 592q20 108 90 163.5t150 55.5q78 0 121 -55t24 -164l-104 -592h315zM956 1700l-266 -354h223l447 354h-404z" />
    <glyph glyph-name="iotatonos" unicode="&#x3af;" horiz-adv-x="538" 
d="M334 0l188 1067h-315l-189 -1067h316zM561 1700l-266 -354h223l447 354h-404z" />
    <glyph glyph-name="upsilondieresistonos" unicode="&#x3b0;" horiz-adv-x="1226" 
d="M1212 1069h-315l-104 -602q-16 -95 -79 -158t-155 -63q-96 0 -131.5 59t-17.5 162l104 602h-315l-105 -596q-44 -246 65 -372t355 -126q244 0 397.5 125t196.5 379zM457 1624q-60 0 -108.5 -44t-57.5 -101q-10 -57 18 -101.5t97 -44.5q64 0 112.5 43t59.5 103
q9 58 -24 101.5t-97 43.5zM764 1688l-207 -355h205l364 355h-362zM1016 1479q-10 -57 17.5 -101.5t96.5 -44.5q64 0 113 43t60 103q9 58 -24 101.5t-97 43.5q-60 0 -108.5 -44t-57.5 -101z" />
    <glyph glyph-name="alpha" unicode="&#x3b1;" horiz-adv-x="1337" 
d="M375 553q23 127 106 200.5t205 73.5q121 0 182.5 -85.5t40.5 -204.5q-22 -119 -117.5 -207t-216.5 -88q-115 0 -168.5 89.5t-31.5 221.5zM1120 0l189 1067h-316l-26 -156q-106 181 -318 181q-150 0 -277.5 -80t-206 -206t-104.5 -274q-13 -87 -8.5 -168t35.5 -152
t79 -123.5t122 -83t164 -30.5q116 0 202.5 45t178.5 138z" />
    <glyph glyph-name="beta" unicode="&#x3b2;" horiz-adv-x="1306" 
d="M428 532q-12 -68 2 -124t48.5 -91t82 -54t103.5 -19q93 0 164.5 59.5t86.5 149.5q18 97 -43.5 156t-207.5 63l30 180q111 7 174 65t78 138q16 90 -33.5 137t-134.5 47q-101 0 -174 -67.5t-94 -174.5zM1221 412q-25 -142 -105.5 -242.5t-188.5 -146.5t-233 -46
q-222 0 -334 177l-86 -500h-315l236 1341q41 229 210 371.5t424 142.5q232 0 349 -114.5t86 -292.5q-38 -220 -285 -314q139 -30 204 -127t38 -249z" />
    <glyph glyph-name="gamma" unicode="&#x3b3;" horiz-adv-x="1136" 
d="M569 -346l66 373l602 1040h-328l-370 -698l-125 698h-334l239 -1044l-65 -369h315z" />
    <glyph glyph-name="delta" unicode="&#x3b4;" horiz-adv-x="1290" 
d="M688 774q131 0 187.5 -74.5t35.5 -189.5q-21 -108 -110.5 -188t-208.5 -80q-120 0 -182 80t-41 192q19 108 108 184t211 76zM766 1251h420l45 254h-885l-45 -254l361 -260q-131 13 -260 -43.5t-223 -172.5t-120 -263t25.5 -269.5t172.5 -195t286 -72.5q253 0 444.5 153.5
t233.5 385.5q29 169 -31 297t-193 236z" />
    <glyph glyph-name="epsilon" unicode="&#x3b5;" horiz-adv-x="1013" 
d="M338 334q-5 -27 10 -46t44 -28.5t58.5 -13.5t61.5 -4q145 0 328 82l12 -258q-210 -91 -414 -91q-126 0 -226 37.5t-154.5 112.5t-37.5 174q17 93 89 160t188 96q-85 35 -121.5 97.5t-21.5 144.5q17 97 88.5 165t172 99t222.5 31q201 0 360 -101l-125 -250
q-118 84 -256 84q-66 0 -110.5 -20t-50.5 -57q-9 -43 38 -63.5t132 -20.5h104l-41 -234h-137q-101 0 -154 -26.5t-59 -69.5z" />
    <glyph glyph-name="zeta" unicode="&#x3b6;" horiz-adv-x="929" 
d="M1057 1257q-282 -157 -472 -363t-225 -400q-19 -108 32 -175.5t183 -99.5q281 -66 240 -303q-20 -106 -115 -258l-268 23q72 103 82 167q10 50 -15 84.5t-104 53.5q-411 97 -344 487q35 205 198 405.5t437 374.5h-401l45 252h770z" />
    <glyph glyph-name="eta" unicode="&#x3b7;" horiz-adv-x="1236" 
d="M1155 690q17 102 1.5 177.5t-59.5 125.5t-105 74.5t-136 24.5q-192 0 -358 -170l-291 145l-189 -1067h316l104 592q20 108 90 163.5t150 55.5q78 0 121 -55t24 -164l-104 -592h315z" />
    <glyph glyph-name="theta" unicode="&#x3b8;" horiz-adv-x="1271" 
d="M1237 752q21 131 22 245.5t-28.5 208.5t-82.5 161.5t-140 104.5t-201 37q-112 0 -212 -39.5t-179 -110t-142 -168t-105.5 -212.5t-64.5 -244q-16 -91 -18.5 -179t9 -174.5t44.5 -159t83.5 -128.5t130.5 -87.5t182 -31.5q124 0 231.5 47t183.5 123t136 179.5t95.5 209
t55.5 218.5zM449 883q16 59 40 115t61.5 114t91.5 93.5t116 35.5t104 -35.5t59 -93.5t22 -114t1 -115h-495zM899 631q-14 -61 -39 -122.5t-63.5 -124.5t-95.5 -102.5t-123 -39.5q-56 0 -95.5 33t-57.5 87.5t-25.5 124.5t1.5 144h498z" />
    <glyph glyph-name="iota" unicode="&#x3b9;" horiz-adv-x="538" 
d="M334 0l188 1067h-315l-189 -1067h316z" />
    <glyph glyph-name="kappa" unicode="&#x3ba;" horiz-adv-x="1140" 
d="M455 684l67 383h-315l-189 -1067h316l94 535l256 -535h354l-309 616l485 451h-366z" />
    <glyph glyph-name="lambda" unicode="&#x3bb;" horiz-adv-x="1150" 
d="M514 1071l-612 -1071h334l374 725l125 -725h326l-246 1135q-33 158 -65 223q-69 141 -225 150q-12 1 -25 1q-129 0 -287 -69l23 -244q114 64 172 64q35 0 61 -36.5t36 -77.5t9 -73v-2z" />
    <glyph glyph-name="uni03BC" unicode="&#x3bc;" horiz-adv-x="1251" 
d="M272 -346h-315l250 1415h315l-104 -592q-19 -107 23 -164t122 -57q87 0 152.5 58t85.5 163l104 592h316l-189 -1069l-291 143q-104 -166 -237 -166q-57 0 -97.5 30.5t-58.5 84.5z" />
    <glyph glyph-name="nu" unicode="&#x3bd;" horiz-adv-x="1144" 
d="M717 -6l622 1073h-329l-369 -698l-125 698h-334l242 -1073h293z" />
    <glyph glyph-name="xi" unicode="&#x3be;" horiz-adv-x="925" 
d="M37 391q-17 -92 0.5 -163.5t65.5 -118t106.5 -75.5t138.5 -50q51 -14 83 -34t42.5 -38t14.5 -37t-1 -33q-12 -66 -79 -161l266 -23q94 151 112 256q11 44 4.5 91t-26.5 87t-73.5 74.5t-135.5 52.5q-231 50 -205 213q11 61 47.5 102.5t97.5 64.5t134.5 32.5t171.5 9.5
l45 256q-163 0 -231.5 45t-55.5 119q10 56 51 93t109.5 54.5t138.5 24t166 6.5l49 266h-776l-45 -254h211q-88 -33 -146 -91t-71 -134q-14 -85 37.5 -148t152.5 -104q-159 -37 -267.5 -141t-131.5 -242z" />
    <glyph glyph-name="omicron" unicode="&#x3bf;" horiz-adv-x="1296" 
d="M545 -25q186 0 333.5 73.5t236 199t116.5 289.5q25 152 -27.5 279t-174 201.5t-286.5 74.5t-313 -75.5t-245 -203.5t-124 -281q-27 -152 24.5 -279.5t173 -202.5t286.5 -75zM694 825q92 0 150 -40.5t76 -105.5t2 -147q-24 -120 -116.5 -205t-211.5 -85q-117 0 -181 86
t-42 209q21 121 111 204.5t212 83.5z" />
    <glyph glyph-name="pi" unicode="&#x3c0;" horiz-adv-x="1216" 
d="M1202 1067h-995l-189 -1067h316l143 815h365l-144 -815h316z" />
    <glyph glyph-name="rho" unicode="&#x3c1;" horiz-adv-x="1325" 
d="M631 242q136 0 216.5 83t102.5 212q19 122 -40.5 205t-178.5 83q-114 0 -205 -84t-114 -213q-21 -122 40.5 -204t178.5 -82zM104 535q44 251 235 404t443 153q122 0 221 -40t163.5 -111.5t91 -176.5t4.5 -229q-26 -146 -105 -271.5t-207.5 -206t-279.5 -80.5
q-212 0 -318 170l-88 -493h-315z" />
    <glyph glyph-name="uni03C2" unicode="&#x3c2;" horiz-adv-x="1089" 
d="M684 -342q104 119 123 233q19 116 -36.5 189.5t-180.5 136.5q-30 14 -54 28t-49.5 32.5t-43 37.5t-34 45t-22.5 54t-9 64t7 75q18 110 98 190t187 80q63 0 116.5 -24.5t87.5 -67.5l177 215q-60 72 -152 108t-201 36q-117 0 -224.5 -44.5t-188 -120.5t-136.5 -179
t-77 -218q-66 -388 272 -538q39 -17 63.5 -29.5t49.5 -31.5t35 -42t6 -51q-15 -74 -99 -155z" />
    <glyph glyph-name="sigma" unicode="&#x3c3;" horiz-adv-x="1380" 
d="M1106 811q74 -50 106 -130.5t13 -180.5q-41 -232 -235.5 -378.5t-444.5 -146.5q-166 0 -287.5 73.5t-173 197.5t-25.5 274q19 112 79.5 211.5t150.5 174t211.5 118t255.5 43.5h692l-45 -256h-297zM594 242q123 0 212 78.5t114 199.5q25 125 -38.5 203t-189.5 78
q-124 0 -212.5 -77.5t-110.5 -199.5q-21 -112 43 -197t182 -85z" />
    <glyph glyph-name="tau" unicode="&#x3c4;" horiz-adv-x="884" 
d="M115 1067h837l-45 -256h-264l-78 -446q-11 -61 9 -90t75 -29q59 0 127 33l-43 -252q-106 -50 -223 -50q-156 0 -226.5 83t-39.5 251l86 500h-260z" />
    <glyph glyph-name="upsilon" unicode="&#x3c5;" horiz-adv-x="1226" 
d="M1212 1069h-315l-104 -602q-16 -95 -79 -158t-155 -63q-96 0 -131.5 59t-17.5 162l104 602h-315l-105 -596q-44 -246 65 -372t355 -126q244 0 397.5 125t196.5 379z" />
    <glyph glyph-name="phi" unicode="&#x3c6;" horiz-adv-x="1691" 
d="M940 238q161 6 256 86t135 243q11 47 12 91t-9.5 85t-42.5 66t-83 25q-155 0 -209 -256zM590 -10q-130 9 -234 53t-175 119t-98.5 186.5t-2.5 247.5q47 274 309 504h307q-147 -139 -220 -255.5t-97 -238.5q-15 -73 -6.5 -139t34.5 -116t84 -80.5t142 -32.5l49 276
q18 99 43 179.5t69.5 158.5t102.5 131t145 85t195 32q154 0 255 -66.5t136.5 -178.5t9.5 -255q-28 -161 -131 -297t-263.5 -220t-346.5 -93l-59 -334h-308z" />
    <glyph glyph-name="chi" unicode="&#x3c7;" horiz-adv-x="1120" 
d="M854 1067l-268 -393l-131 393h-344l251 -680l-514 -733h334l295 436l135 -436h344l-256 741l492 672h-338z" />
    <glyph glyph-name="psi" unicode="&#x3c8;" horiz-adv-x="1705" 
d="M539 -346h315l55 323q122 0 231 30t202.5 89.5t158.5 160.5t88 232l103 580h-316l-102 -582q-22 -121 -109.5 -181t-208.5 -60l222 1251h-316l-221 -1251q-126 0 -188.5 57.5t-40.5 185.5l102 580h-315l-103 -588q-22 -126 7 -224t100 -158.5t170 -91t221 -30.5z" />
    <glyph glyph-name="omega" unicode="&#x3c9;" horiz-adv-x="1771" 
d="M1092 838h-316l-57 -322q-21 -117 -76 -197.5t-139 -80.5q-86 0 -120.5 87.5t-8.5 229.5q23 132 98.5 256t243.5 289h-324q-277 -250 -330 -557q-28 -160 4.5 -287t130 -204t248.5 -77q113 0 202.5 41.5t166.5 128.5q88 -170 307 -170q226 0 383.5 156.5t202.5 411.5
q27 155 -5 290.5t-130 266.5h-324q109 -165 142 -289.5t10 -255.5q-26 -144 -92 -230.5t-152 -86.5q-77 0 -112 69.5t-9 208.5z" />
    <glyph glyph-name="iotadieresis" unicode="&#x3ca;" horiz-adv-x="614" 
d="M360 0l189 1067h-316l-188 -1067h315zM266 1593q-68 0 -120 -42.5t-62 -110.5q-12 -71 24 -112.5t105 -41.5q66 0 118.5 42t65.5 112q12 69 -25 111t-106 42zM698 1593q-67 0 -119.5 -42.5t-62.5 -110.5q-12 -71 24 -112.5t105 -41.5q67 0 119.5 42t64.5 112
q12 69 -25 111t-106 42z" />
    <glyph glyph-name="upsilondieresis" unicode="&#x3cb;" horiz-adv-x="1226" 
d="M588 1593q-68 0 -120 -42.5t-62 -110.5q-12 -71 24 -112.5t105 -41.5q66 0 118.5 42t65.5 112q12 69 -25 111t-106 42zM1020 1593q-67 0 -119.5 -42.5t-62.5 -110.5q-12 -71 24 -112.5t105 -41.5q67 0 119.5 42t64.5 112q12 69 -25 111t-106 42zM1212 1069h-315
l-104 -602q-16 -95 -79 -158t-155 -63q-96 0 -131.5 59t-17.5 162l104 602h-315l-105 -596q-44 -246 65 -372t355 -126q244 0 397.5 125t196.5 379z" />
    <glyph glyph-name="omicrontonos" unicode="&#x3cc;" horiz-adv-x="1296" 
d="M545 -25q186 0 333.5 73.5t236 199t116.5 289.5q25 152 -27.5 279t-174 201.5t-286.5 74.5t-313 -75.5t-245 -203.5t-124 -281q-27 -152 24.5 -279.5t173 -202.5t286.5 -75zM694 825q92 0 150 -40.5t76 -105.5t2 -147q-24 -120 -116.5 -205t-211.5 -85q-117 0 -181 86
t-42 209q21 121 111 204.5t212 83.5zM1008 1700l-267 -354h224l446 354h-403z" />
    <glyph glyph-name="upsilontonos" unicode="&#x3cd;" horiz-adv-x="1226" 
d="M1212 1069h-315l-104 -602q-16 -95 -79 -158t-155 -63q-96 0 -131.5 59t-17.5 162l104 602h-315l-105 -596q-44 -246 65 -372t355 -126q244 0 397.5 125t196.5 379zM893 1700l-266 -354h223l446 354h-403z" />
    <glyph glyph-name="omegatonos" unicode="&#x3ce;" horiz-adv-x="1771" 
d="M1092 838h-316l-57 -322q-21 -117 -76 -197.5t-139 -80.5q-86 0 -120.5 87.5t-8.5 229.5q23 132 98.5 256t243.5 289h-324q-277 -250 -330 -557q-28 -160 4.5 -287t130 -204t248.5 -77q113 0 202.5 41.5t166.5 128.5q88 -170 307 -170q226 0 383.5 156.5t202.5 411.5
q27 155 -5 290.5t-130 266.5h-324q109 -165 142 -289.5t10 -255.5q-26 -144 -92 -230.5t-152 -86.5q-77 0 -112 69.5t-9 208.5zM1176 1700l-267 -354h224l446 354h-403z" />
    <glyph glyph-name="uni03CF" unicode="&#x3cf;" horiz-adv-x="1376" 
d="M84 -100q86 -59 218 -103.5t245 -44.5q95 0 184.5 29.5t143.5 71t61 81.5l-449 793l-127 -727h-323l254 1438h321l-104 -590l616 590h387l-680 -637l459 -801q-22 -127 -137.5 -238.5t-288.5 -178t-356 -66.5q-250 0 -471 116z" />
    <glyph glyph-name="uni03D7" unicode="&#x3d7;" horiz-adv-x="1140" 
d="M428 535l-94 -535h-316l189 1067h315l-67 -383l393 383h366l-485 -451l309 -616q-22 -127 -115.5 -228.5t-233.5 -157.5t-298 -56q-111 0 -202 26.5t-199 83.5l47 266q79 -61 181.5 -101t211.5 -40q110 0 190 46.5t89 109.5z" />
    <glyph glyph-name="Wgrave" unicode="&#x1e80;" horiz-adv-x="2154" 
d="M627 489l-129 949h-342l227 -1444h287l475 946l147 -946h287l733 1444h-336l-458 -949l-138 951h-282zM909 1862l242 -263h227l-145 355z" />
    <glyph glyph-name="wgrave" unicode="&#x1e81;" horiz-adv-x="1613" 
d="M389 1067h-313l149 -1073h277l319 653l90 -653h279l530 1073h-309l-293 -635l-82 639h-272l-307 -637zM573 1524l242 -262h227l-145 354z" />
    <glyph glyph-name="Wacute" unicode="&#x1e82;" horiz-adv-x="2154" 
d="M627 489l-129 949h-342l227 -1444h287l475 946l147 -946h287l733 1444h-336l-458 -949l-138 951h-282zM1421 1954l-266 -355h223l334 263z" />
    <glyph glyph-name="wacute" unicode="&#x1e83;" horiz-adv-x="1613" 
d="M389 1067h-313l149 -1073h277l319 653l90 -653h279l530 1073h-309l-293 -635l-82 639h-272l-307 -637zM1094 1616l-267 -354h224l333 262z" />
    <glyph glyph-name="Wdieresis" unicode="&#x1e84;" horiz-adv-x="2154" 
d="M627 489l-129 949h-342l227 -1444h287l475 946l147 -946h287l733 1444h-336l-458 -949l-138 951h-282zM1102 1937q-27 0 -53.5 -7t-55.5 -23t-50.5 -48.5t-29.5 -76.5q-13 -72 25.5 -115t108.5 -43q69 0 122.5 43t65.5 115q13 71 -25.5 113t-107.5 42zM1540 1937
q-27 0 -53.5 -7t-55 -23t-50 -48.5t-29.5 -76.5q-15 -71 24 -114.5t109 -43.5q68 0 121.5 43t66.5 115q12 71 -26.5 113t-106.5 42z" />
    <glyph glyph-name="wdieresis" unicode="&#x1e85;" horiz-adv-x="1613" 
d="M389 1067h-313l149 -1073h277l319 653l90 -653h279l530 1073h-309l-293 -635l-82 639h-272l-307 -637zM772 1593q-68 0 -120 -42.5t-62 -110.5q-12 -71 24 -112.5t105 -41.5q66 0 118.5 42t65.5 112q12 69 -25 111t-106 42zM1204 1593q-67 0 -119.5 -42.5t-62.5 -110.5
q-12 -71 24 -112.5t105 -41.5q67 0 119.5 42t64.5 112q12 69 -25 111t-106 42z" />
    <glyph glyph-name="uni1E9E" unicode="&#x1e9e;" horiz-adv-x="1286" 
d="M645 659q133 -9 198 -63.5t48 -153.5q-39 -213 -395 -219l-41 -229q135 -7 257 14.5t225.5 71.5t173.5 139t91 209q27 156 -51 257t-231 120l317 270q35 204 -91.5 326.5t-371.5 122.5q-288 0 -462 -145.5t-218 -397.5l-172 -981h311l173 973q23 135 106 208.5t209 73.5
q107 0 164.5 -48t44.5 -132l-252 -235z" />
    <glyph glyph-name="Ygrave" unicode="&#x1ef2;" horiz-adv-x="1396" 
d="M764 0l98 553l703 885h-361l-448 -586l-240 586h-371l392 -889l-97 -549h324zM553 1903l242 -263h227l-145 355z" />
    <glyph glyph-name="ygrave" unicode="&#x1ef3;" horiz-adv-x="1138" 
d="M80 1067l270 -1075l-176 -338h272l793 1413h-326l-370 -733l-131 733h-332zM346 1524l242 -262h227l-145 354z" />
    <glyph glyph-name="endash" unicode="&#x2013;" horiz-adv-x="905" 
d="M887 430l49 275h-911l-50 -275h912z" />
    <glyph glyph-name="emdash" unicode="&#x2014;" horiz-adv-x="1579" 
d="M1567 469l47 274h-1583l-47 -274h1583z" />
    <glyph glyph-name="uni2015" unicode="&#x2015;" horiz-adv-x="1710" 
d="M1671 469l47 274h-1583l-47 -274h1583z" />
    <glyph glyph-name="quoteleft" unicode="&#x2018;" horiz-adv-x="606" 
d="M465 1589l-318 -663h326l215 663h-223z" />
    <glyph glyph-name="quoteright" unicode="&#x2019;" horiz-adv-x="608" 
d="M393 926l320 663h-326l-215 -663h221z" />
    <glyph glyph-name="quotesinglbase" unicode="&#x201a;" horiz-adv-x="661" 
d="M176 -375l318 664h-326l-213 -664h221z" />
    <glyph glyph-name="quotereversed" unicode="&#x201b;" horiz-adv-x="608" 
d="M592 1589h-328l86 -663h221z" />
    <glyph glyph-name="quotedblleft" unicode="&#x201c;" horiz-adv-x="1085" 
d="M936 1540l-320 -663h326l213 663h-219zM457 1540l-318 -663h324l215 663h-221z" />
    <glyph glyph-name="quotedblright" unicode="&#x201d;" horiz-adv-x="1087" 
d="M385 877l320 663h-326l-215 -663h221zM864 877l318 663h-326l-213 -663h221z" />
    <glyph glyph-name="quotedblbase" unicode="&#x201e;" horiz-adv-x="1138" 
d="M172 -403l320 663h-326l-215 -663h221zM651 -403l318 663h-326l-213 -663h221z" />
    <glyph glyph-name="dagger" unicode="&#x2020;" horiz-adv-x="944" 
d="M651 1149l82 324h-201l-32 -324l-262 20l-33 -184l272 23l-170 -856h187l131 856l266 -23l33 184z" />
    <glyph glyph-name="daggerdbl" unicode="&#x2021;" horiz-adv-x="937" 
d="M346 291l-74 -301h199l29 301l262 -21l33 187l-273 -23q58 268 119 670l264 -23l33 187l-270 -21l82 318h-199l-35 -318l-262 21l-33 -187l273 23q-13 -68 -35.5 -195.5t-49 -279.5t-34.5 -195l-264 23l-33 -187z" />
    <glyph glyph-name="bullet" unicode="&#x2022;" horiz-adv-x="948" 
d="M567 1075q-159 0 -263 -95t-128 -239q-22 -136 58 -232.5t215 -96.5q136 0 250.5 96t140.5 233q23 138 -57.5 236t-215.5 98z" />
    <glyph glyph-name="ellipsis" unicode="&#x2026;" horiz-adv-x="1787" 
d="M305 356q-86 0 -149.5 -50t-77.5 -140q-15 -88 30 -139.5t130 -51.5t148.5 51.5t80.5 139.5q15 88 -31.5 139t-130.5 51zM862 356q-86 0 -149.5 -50t-77.5 -140q-15 -88 30 -139.5t130 -51.5t148.5 51.5t80.5 139.5q15 88 -31.5 139t-130.5 51zM1421 356
q-86 0 -149.5 -50t-77.5 -140q-15 -88 30 -139.5t130 -51.5t148.5 51.5t80.5 139.5q15 88 -31.5 139t-130.5 51z" />
    <glyph glyph-name="perthousand" unicode="&#x2030;" horiz-adv-x="2568" 
d="M465 698q87 0 162 31t127.5 84t87 121t47.5 145q27 158 -53.5 266.5t-235.5 108.5q-157 0 -277 -109.5t-147 -267.5q-28 -159 51.5 -269t237.5 -110zM563 1264q64 0 96 -52.5t17 -134.5q-14 -81 -62.5 -134.5t-113.5 -53.5q-62 0 -94 54t-19 136q14 81 62.5 133t113.5 52
zM1235 -20q172 0 284 108t140 270q27 158 -53.5 266.5t-235.5 108.5q-157 0 -277 -109.5t-147 -267.5q-28 -158 51.5 -267t237.5 -109zM1331 543q65 0 97.5 -52.5t17.5 -134.5q-14 -81 -63 -134.5t-113 -53.5q-62 0 -94 54t-19 136q14 83 61.5 134t112.5 51zM2030 -20
q172 0 284 108t140 270q27 158 -53.5 266.5t-235.5 108.5q-157 0 -276.5 -109.5t-147.5 -267.5q-28 -157 52 -266.5t237 -109.5zM2128 543q65 0 97.5 -52.5t17.5 -134.5q-14 -80 -63.5 -134t-113.5 -54q-63 0 -95.5 54t-18.5 136t62 133.5t114 51.5zM1462 1434l-1321 -1434
h242l1321 1434h-242z" />
    <glyph glyph-name="minute" unicode="&#x2032;" horiz-adv-x="610" 
d="M342 1440l-166 -672h178l320 631l16 39v2h-348z" />
    <glyph glyph-name="second" unicode="&#x2033;" horiz-adv-x="1077" 
d="M119 768h172l319 631l15 39v2h-340zM758 1440l-168 -672h174l319 631l15 39v2h-340z" />
    <glyph glyph-name="guilsinglleft" unicode="&#x2039;" horiz-adv-x="743" 
d="M586 154l-203 354l330 360l-224 99l-421 -461l260 -457z" />
    <glyph glyph-name="guilsinglright" unicode="&#x203a;" horiz-adv-x="745" 
d="M348 508l-325 -354l219 -105l420 457l-259 461l-258 -99z" />
    <glyph glyph-name="exclamdbl" unicode="&#x203c;" horiz-adv-x="1179" 
d="M670 1438h-361l-28 -174l-52 -813h174l234 813zM293 319q-32 0 -63.5 -8t-63.5 -26t-56 -53t-34 -82q-14 -82 30.5 -128.5t124.5 -46.5q83 0 145 46.5t75 128.5q13 80 -31.5 124.5t-126.5 44.5zM1186 1438h-361l-28 -174l-52 -813h175l233 813zM809 319q-32 0 -63.5 -8
t-63.5 -26t-56 -53t-34 -82q-14 -82 31 -128.5t125 -46.5q83 0 144.5 46.5t74.5 128.5q13 80 -31.5 124.5t-126.5 44.5z" />
    <glyph glyph-name="fraction" unicode="&#x2044;" horiz-adv-x="440" 
d="M-231 -170l1237 1815h-267l-1233 -1815h263z" />
    <glyph glyph-name="uni2070" unicode="&#x2070;" horiz-adv-x="710" 
d="M272 1024q24 125 79 203t145 78q83 0 116 -77.5t11 -207.5q-24 -128 -83.5 -205.5t-140.5 -77.5q-85 0 -118 77t-9 210zM825 1022q37 209 -42.5 331t-254.5 122q-174 0 -299 -127t-161 -326q-35 -201 44.5 -328t252.5 -127q175 0 300 128.5t160 326.5z" />
    <glyph glyph-name="uni2074" unicode="&#x2074;" horiz-adv-x="710" 
d="M262 901q33 41 125 148t123 149h4l-2 -12q-11 -38 -55 -283q-64 0 -99 -2q-74 0 -94 -2zM4 741q148 0 426 4l-31 -157h211l25 157q66 -4 90 -4l43 164l-102 -2l98 559h-221l-516 -596z" />
    <glyph glyph-name="uni2075" unicode="&#x2075;" horiz-adv-x="710" 
d="M254 963q70 36 139 36t106.5 -35.5t26.5 -91.5q-11 -62 -57.5 -97.5t-116.5 -35.5q-102 0 -194 95l-133 -129q60 -65 129.5 -97.5t171.5 -32.5q150 0 258 81.5t133 217.5q22 129 -50.5 200t-195.5 71q-58 0 -145 -37l49 178h377l32 162h-534l-105 -420z" />
    <glyph glyph-name="uni2076" unicode="&#x2076;" horiz-adv-x="710" 
d="M705 1450h-207l-219 -262q-104 -123 -147.5 -193.5t-55.5 -138.5q-23 -128 57.5 -206.5t235.5 -78.5q141 0 249 82.5t132 216.5q21 123 -37 195t-170 72q-73 0 -160 -50zM393 723q-21 0 -41.5 5t-43.5 18t-34 42.5t-4 71.5q11 59 56.5 97t111.5 38t99 -38.5t22 -96.5
q-11 -61 -56.5 -99t-109.5 -38z" />
    <glyph glyph-name="uni2077" unicode="&#x2077;" horiz-adv-x="710" 
d="M358 584l521 714l26 152h-639l-28 -164h426l-519 -702h213z" />
    <glyph glyph-name="uni2078" unicode="&#x2078;" horiz-adv-x="710" 
d="M666 1040q139 64 165 193q20 104 -56.5 173t-213.5 69q-135 0 -234 -68t-116 -172q-22 -131 98 -195q-177 -70 -203 -215q-20 -110 64.5 -183t230.5 -73q151 0 260.5 72t131.5 186q12 72 -23 127.5t-104 85.5zM496 1100q-53 0 -85.5 28t-21.5 84q7 51 48.5 82t99.5 31
t88 -32t22 -79q-9 -48 -52 -81t-99 -33zM430 721q-18 0 -35.5 2.5t-37.5 11t-34 21.5t-20.5 35.5t-1.5 52.5q9 53 57 86t115 33q66 0 102.5 -33t28.5 -86q-9 -53 -56.5 -88t-117.5 -35z" />
    <glyph glyph-name="uni2079" unicode="&#x2079;" horiz-adv-x="710" 
d="M223 580h205l281 333q71 86 107 147.5t46 119.5q23 133 -59 215t-242 82q-141 0 -251 -84.5t-134 -221.5q-23 -125 36 -198.5t175 -73.5q83 0 160 51zM541 1319q24 0 45 -5.5t43 -19t32 -42.5t3 -70q-11 -58 -58 -98t-112 -40q-67 0 -100.5 39t-24.5 99q11 61 58 99
t114 38z" />
    <glyph glyph-name="uni207F" unicode="&#x207f;" horiz-adv-x="806" 
d="M905 1274q3 34 4.5 71t-11.5 73.5t-34.5 66t-64 47.5t-99.5 18q-135 0 -247 -116l-197 100l-129 -733h215l72 407q13 74 60.5 112t103.5 38q54 0 83.5 -37.5t16.5 -112.5l-72 -407h215z" />
    <glyph glyph-name="Euro" unicode="&#x20ac;" horiz-adv-x="1218" 
d="M440 791q42 183 154.5 291t247.5 108q145 0 221 -119l254 178q-135 219 -426 219q-129 0 -244 -42t-202 -113.5t-155.5 -168.5t-112 -205.5t-64.5 -225.5q-59 -342 80 -543t421 -201q306 0 523 230l-189 172q-126 -123 -268 -123q-73 0 -126.5 31t-82 84t-40.5 114
t-9 129h397l33 185h-412z" />
    <glyph glyph-name="uni2113" unicode="&#x2113;" horiz-adv-x="1064" 
d="M500 -27q76 0 154 30t182 103l-74 156q-130 -98 -203 -98q-83 0 -65 117l47 260q364 344 424 610q32 138 -19.5 225.5t-177.5 87.5q-146 0 -235.5 -106.5t-118.5 -270.5l-88 -487l-205 -172l82 -139l80 67l-13 -77q-23 -140 30.5 -223t199.5 -83zM733 1282q56 0 29 -121
q-16 -81 -61.5 -181.5t-114.5 -178.5l53 309q33 172 94 172z" />
    <glyph glyph-name="trademark" unicode="&#x2122;" horiz-adv-x="1824" 
d="M862 1247l35 199h-727l-35 -199h258l-114 -649h213l114 649h256zM1780 598l149 848h-258l-295 -479l-127 479h-260l-149 -848h213l80 444l108 -444h135l269 444l-80 -444h215z" />
    <glyph glyph-name="uni2126" unicode="&#x2126;" horiz-adv-x="1681" 
d="M793 2h680l49 279h-344q148 69 253 217.5t134 308.5q27 154 -6.5 279.5t-116.5 208t-205.5 127t-273.5 44.5q-149 0 -287 -44.5t-251 -126.5t-192 -207.5t-106 -278.5q-27 -158 26 -308t173 -220h-344l-50 -279h684l52 291q-131 66 -189 186.5t-30 276.5
q32 185 155 301.5t303 116.5q184 0 267 -115.5t51 -302.5q-54 -310 -381 -463z" />
    <glyph glyph-name="estimated" unicode="&#x212e;" horiz-adv-x="1394" 
d="M1231 494q50 275 -70.5 447.5t-363.5 172.5q-161 0 -299 -76.5t-226.5 -205.5t-117.5 -289q-29 -161 14 -291.5t154 -207.5t272 -77q162 0 293 76t272 248l-143 92q-101 -133 -194.5 -191.5t-196.5 -58.5q-130 0 -213 86l47 275h772zM944 659h-455l37 209q109 82 240 82
t215 -84z" />
    <glyph glyph-name="oneeighth" unicode="&#x215b;" horiz-adv-x="1656" 
d="M254 -170l1237 1815h-266l-1233 -1815h262zM168 584h221l156 870l-162 -2q-16 -5 -67 -19t-81.5 -23t-50.5 -17l-32 -187q21 5 133 41zM1393 451q140 65 166 192q20 104 -57 173t-214 69q-135 0 -234 -68t-116 -172q-22 -130 98 -194q-176 -69 -202 -215
q-20 -110 64 -183t230 -73q151 0 260.5 72t131.5 186q12 72 -23 127.5t-104 85.5zM1223 510q-53 0 -85.5 28.5t-21.5 84.5q7 50 48.5 81t99.5 31t88 -31.5t22 -78.5q-9 -48 -52 -81.5t-99 -33.5zM1157 131q-18 0 -35.5 2.5t-37.5 11t-34 21.5t-20.5 35.5t-1.5 52.5
q9 53 57 86t115 33q66 0 102.5 -33t28.5 -86q-9 -53 -56.5 -88t-117.5 -35z" />
    <glyph glyph-name="threeeighths" unicode="&#x215c;" horiz-adv-x="1912" 
d="M514 -170l1237 1815h-266l-1233 -1815h262zM1651 451q140 65 166 192q20 104 -57 173t-214 69q-135 0 -234 -68t-116 -172q-22 -130 98 -194q-176 -69 -202 -215q-20 -110 64 -183t230 -73q151 0 260.5 72t131.5 186q12 72 -23 127.5t-104 85.5zM1481 510
q-53 0 -85.5 28.5t-21.5 84.5q7 50 48.5 81t99.5 31t88 -31.5t22 -78.5q-9 -48 -52 -81.5t-99 -33.5zM1415 131q-18 0 -35.5 2.5t-37.5 11t-34 21.5t-20.5 35.5t-1.5 52.5q9 53 57 86t115 33q66 0 102.5 -33t28.5 -86q-9 -53 -56.5 -88t-117.5 -35zM125 877
q-22 -149 66 -227.5t239 -78.5q96 0 181 31t146.5 95.5t76.5 152.5q13 72 -16 127t-95 86q121 65 139 180q21 111 -57.5 173.5t-206.5 62.5t-230.5 -65.5t-134.5 -196.5h213q8 44 40.5 73t80.5 29q42 0 64 -26t16 -64q-9 -47 -49 -76t-92 -29h-29l-24 -139q7 0 24 1t23 1
q70 0 100.5 -33.5t20.5 -87.5q-11 -59 -56.5 -97t-105.5 -38q-59 0 -94.5 37t-22.5 109h-217z" />
    <glyph glyph-name="fiveeighths" unicode="&#x215d;" horiz-adv-x="1871" 
d="M477 -170l1237 1815h-266l-1233 -1815h262zM317 969q72 37 140 37q69 0 106.5 -35.5t26.5 -91.5q-11 -62 -57.5 -98t-116.5 -36q-103 0 -195 95l-133 -129q60 -64 129.5 -96.5t171.5 -32.5q150 0 258 81.5t133 217.5q22 129 -50 199.5t-195 70.5q-59 0 -146 -37l49 178
h377l33 162h-535l-104 -420zM1608 451q140 65 166 192q20 104 -57 173t-214 69q-135 0 -234 -68t-116 -172q-22 -130 98 -194q-176 -69 -202 -215q-20 -110 64 -183t230 -73q151 0 260.5 72t131.5 186q12 72 -23 127.5t-104 85.5zM1438 510q-53 0 -85.5 28.5t-21.5 84.5
q7 50 48.5 81t99.5 31t88 -31.5t22 -78.5q-9 -48 -52 -81.5t-99 -33.5zM1372 131q-18 0 -35.5 2.5t-37.5 11t-34 21.5t-20.5 35.5t-1.5 52.5q9 53 57 86t115 33q66 0 102.5 -33t28.5 -86q-9 -53 -56.5 -88t-117.5 -35z" />
    <glyph glyph-name="seveneighths" unicode="&#x215e;" horiz-adv-x="1669" 
d="M248 -170l1237 1815h-266l-1233 -1815h262zM1407 451q140 65 166 192q20 104 -56.5 173t-213.5 69q-135 0 -234.5 -68t-116.5 -172q-22 -130 99 -194q-177 -70 -203 -215q-20 -110 64.5 -183t230.5 -73q151 0 260 72t131 186q12 72 -23 127.5t-104 85.5zM1237 510
q-53 0 -85.5 28.5t-21.5 84.5q7 50 48.5 81t99.5 31q59 0 89 -31.5t22 -78.5q-9 -48 -52.5 -81.5t-99.5 -33.5zM1171 131q-18 0 -35.5 2.5t-37.5 11t-34 21.5t-20.5 35.5t-1.5 52.5q9 53 57 86t115 33q66 0 103 -33t29 -86q-9 -53 -57 -88t-118 -35zM297 596l520 715l27 151
h-639l-29 -164h426l-518 -702h213z" />
    <glyph glyph-name="partialdiff" unicode="&#x2202;" horiz-adv-x="1085" 
d="M414 -23q218 0 363 167.5t220 467.5q20 82 32 163t14 167t-8 162t-38.5 144t-73 116.5t-115 77t-161.5 28.5q-203 0 -379 -157l105 -150q117 105 235 105q66 0 112.5 -29.5t69.5 -75.5t33 -109.5t8 -122.5t-12 -122q-103 96 -252 96q-192 0 -328 -130.5t-169 -323.5
q-19 -92 -2.5 -177.5t57 -151.5t116 -105.5t173.5 -39.5zM545 702q135 0 221 -139q-18 -67 -42.5 -128t-62.5 -123.5t-92.5 -100t-117.5 -37.5q-49 0 -86 24.5t-54.5 63.5t-24 87.5t4.5 96.5q18 107 87 181.5t167 74.5z" />
    <glyph glyph-name="uni2206" unicode="&#x2206;" horiz-adv-x="1579" 
d="M-59 0h1501l-340 1454h-314zM1042 274h-612l447 807z" />
    <glyph glyph-name="product" unicode="&#x220f;" horiz-adv-x="1445" 
d="M899 -537h227l359 2036h-1186l-358 -2036h227l321 1823h732z" />
    <glyph glyph-name="summation" unicode="&#x2211;" horiz-adv-x="1220" 
d="M-162 -535h1163l37 213h-862l735 818l-419 792h808l37 213h-1114l-28 -168l442 -835l-768 -865z" />
    <glyph glyph-name="minus" unicode="&#x2212;" horiz-adv-x="1355" 
d="M1225 614l37 209h-1069l-39 -209h1071z" />
    <glyph glyph-name="radical" unicode="&#x221a;" horiz-adv-x="1013" 
d="M573 -16l660 1732h-227l-514 -1366l-160 537l-305 -127l55 -187l94 43l191 -632h206z" />
    <glyph glyph-name="infinity" unicode="&#x221e;" horiz-adv-x="1474" 
d="M1079 393q157 0 251.5 90.5t117.5 235.5q22 143 -48 237.5t-210 94.5q-106 0 -201 -53t-198 -146q-154 197 -332 197q-138 0 -242 -97t-131 -237q-24 -138 49.5 -230t212.5 -92q44 0 88.5 11.5t78.5 25.5t79 43t71 48.5t74 56.5q38 -40 68.5 -67t74.5 -57t93.5 -45.5
t103.5 -15.5zM1149 844q42 0 69.5 -29t16.5 -98q-9 -54 -42 -85.5t-83 -31.5q-96 0 -199 115q2 1 40 30.5t51.5 38t44.5 27.5t55 26t47 7zM424 842q38 0 78 -22t63.5 -45t57.5 -60q-146 -115 -238 -115q-52 0 -74.5 31.5t-13.5 85.5q11 55 44 90t83 35z" />
    <glyph glyph-name="integral" unicode="&#x222b;" horiz-adv-x="724" 
d="M20 -471q72 0 130 38.5t90 80.5t61.5 130t37.5 124.5t24 126.5q1 5 2 8l202 1161q24 154 62 154q13 0 37 -22.5t49 -22.5q45 0 83.5 32t47.5 80q12 72 -41 108t-131 36q-64 0 -118.5 -28t-90.5 -71t-65 -102.5t-45 -113t-27 -111.5l-205 -1162q-33 -186 -39 -207
q-11 -36 -31 -36q-10 0 -33.5 21.5t-50.5 21.5q-45 0 -77.5 -31t-41.5 -78q-6 -35 8.5 -62.5t41.5 -43t58 -23.5t62 -8z" />
    <glyph glyph-name="approxequal" unicode="&#x2248;" horiz-adv-x="1298" 
d="M1118 1092q-27 -76 -62.5 -115t-90.5 -39q-47 0 -109.5 22t-115.5 48.5t-122.5 48.5t-128.5 22q-58 0 -109.5 -21t-90 -55t-71.5 -82.5t-56 -98.5t-41 -107h186q55 153 164 153q41 0 100 -22t111.5 -48.5t122.5 -48.5t131 -22q60 0 113 21.5t91.5 56.5t70.5 84t52.5 98
t36.5 105h-182zM1047 686q-27 -76 -63 -116t-91 -40q-47 0 -109 22t-115 49t-122 49t-127 22t-109.5 -20.5t-90.5 -55t-72.5 -82.5t-56.5 -98t-40 -107h185q26 71 63.5 112.5t99.5 41.5q40 0 99.5 -22t112.5 -48.5t123.5 -48.5t131.5 -22q75 0 137.5 31.5t105.5 86t72 115
t48 131.5h-182z" />
    <glyph glyph-name="notequal" unicode="&#x2260;" horiz-adv-x="1339" 
d="M610 426h566l36 207h-450l125 182h370l37 211h-256l129 182l-170 105l-202 -287h-555l-37 -211h442l-125 -182h-362l-37 -207h252l-129 -182l170 -101z" />
    <glyph glyph-name="lessequal" unicode="&#x2264;" horiz-adv-x="1355" 
d="M1286 1133l51 294l-1079 -426l-51 -288l930 -426l53 297l-664 274zM1116 2l37 209h-1069l-39 -209h1071z" />
    <glyph glyph-name="greaterequal" unicode="&#x2265;" horiz-adv-x="1355" 
d="M350 1425l-51 -297l662 -274l-758 -272l-53 -297l1079 424l51 292zM1116 2l37 209h-1069l-39 -209h1071z" />
    <glyph glyph-name="lozenge" unicode="&#x25ca;" horiz-adv-x="993" 
d="M477 -70l490 797l-209 799h-189l-481 -799l201 -797h188zM610 1217l123 -490l-295 -491l-119 493z" />
    <glyph glyph-name="uni25CC" unicode="&#x25cc;" horiz-adv-x="1830" 
d="M1110 1561q-48 0 -80.5 -28.5t-38.5 -68.5q-7 -45 16.5 -71.5t67.5 -26.5t77 26.5t40 71.5q9 44 -15.5 70.5t-66.5 26.5zM1450 1470q-46 0 -78.5 -28t-38.5 -68q-9 -45 14.5 -71.5t67.5 -26.5t77 26.5t42 71.5q7 46 -17 71t-67 25zM1636 1186q-48 0 -80 -28t-38 -68
q-7 -45 16.5 -72t67.5 -27t76.5 27t39.5 72q9 45 -15.5 70.5t-66.5 25.5zM1698 846q-48 0 -80.5 -28t-38.5 -68q-7 -45 16.5 -72t67.5 -27t77 27t40 72q9 45 -15.5 70.5t-66.5 25.5zM1534 475q-46 0 -78.5 -28t-38.5 -68q-9 -45 14.5 -71.5t67.5 -26.5t77 26.5t42 71.5
q7 46 -17 71t-67 25zM1225 223q-45 0 -78 -28.5t-39 -67.5q-7 -46 16.5 -73t65.5 -27q44 0 78 27t41 73q7 44 -17 70t-67 26zM852 100q-48 0 -80.5 -28t-38.5 -68q-7 -45 16.5 -71.5t67.5 -26.5t77 26.5t40 71.5q9 45 -15.5 70.5t-66.5 25.5zM479 211q-48 0 -80.5 -28
t-38.5 -68q-7 -45 16.5 -72t67.5 -27q43 0 76.5 27t40.5 72t-16.5 70.5t-65.5 25.5zM244 469q-48 0 -80.5 -28t-38.5 -68q-7 -45 16.5 -72t67.5 -27t77 27t40 72q9 45 -15.5 70.5t-66.5 25.5zM238 846q-46 0 -78.5 -28t-38.5 -68q-7 -45 16 -72t66 -27q44 0 78 27t41 72
q7 46 -17 71t-67 25zM393 1190q-46 0 -78.5 -28t-38.5 -68q-9 -45 14.5 -72t67.5 -27t77 27t42 72q7 46 -17 71t-67 25zM700 1481q-47 0 -79.5 -28.5t-38.5 -68.5q-7 -45 16.5 -71.5t67.5 -26.5q43 0 76 26.5t40 71.5t-16.5 71t-65.5 26z" />
    <glyph glyph-name="caroncommaaccent" horiz-adv-x="1024" 
d="M641 1122l203 434h-228l-153 -434h178z" />
    <glyph glyph-name="commaaccentrotate" horiz-adv-x="403" 
d="M383 1595l-272 -436h327l166 436h-221z" />
    <glyph glyph-name="f_t" horiz-adv-x="1409" 
d="M934 1481q-89 28 -195 28q-371 0 -438 -379l-14 -69l-224 -248h181l-144 -813h312l145 813h248l43 246h-293l12 67q11 70 65.5 109t125.5 39q66 0 137 -23zM772 311q-29 -164 41.5 -249t224.5 -85q124 0 224 50l43 249q-78 -30 -129 -30q-100 0 -82 110l80 455h258
l45 256h-258l61 342l-631 -598h209z" />
    <glyph glyph-name="w_w_w" horiz-adv-x="5005" 
d="M428 1067h-313l149 -1073h277l319 653l90 -653h279l530 1073h-309l-293 -635l-82 639h-272l-307 -637zM2085 1067h-313l149 -1073h277l319 653l90 -653h279l530 1073h-309l-293 -635l-82 639h-272l-308 -637zM3744 1067h-314l150 -1073h276l320 653l90 -653h279l530 1073
h-309l-293 -635l-82 639h-272l-308 -637z" />
    <glyph glyph-name="t_t" horiz-adv-x="1507" 
d="M834 311q-29 -164 41.5 -249t224.5 -85q123 0 223 50l43 249q-78 -30 -129 -30q-100 0 -82 110l80 455h258l45 256h-258l61 342l-630 -598h209zM205 311q-29 -164 41.5 -249t224.5 -85q123 0 223 50l43 249q-78 -30 -129 -30q-100 0 -82 110l80 455h258l45 256h-258
l62 342l-631 -598h209z" />
    <glyph glyph-name="Upsilondieresis_alt" horiz-adv-x="1452" 
d="M813 0l98 553l703 885h-361l-448 -586l-240 586h-370l391 -889l-97 -549h324zM776 1937q-24 0 -49.5 -6.5t-54.5 -21.5t-51 -48t-31 -79q-13 -72 24.5 -114t108.5 -44q69 0 122 43t66 115q12 72 -26.5 113.5t-108.5 41.5zM1214 1937q-24 0 -49.5 -6.5t-54.5 -21.5
t-51 -48t-31 -79q-13 -72 24.5 -114t108.5 -44q69 0 122.5 43t66.5 115q12 72 -27 113.5t-109 41.5z" />
    <glyph glyph-name=".null.1" horiz-adv-x="569" 
 />
    <glyph glyph-name="ogonek.1" horiz-adv-x="481" 
d="M285 -256q-74 -27 -111 -27q-35 0 -53 20t-12 54q6 63 151 193l-147 77q-110 -100 -162.5 -168t-65.5 -137q-17 -98 44 -156.5t171 -58.5q100 0 197 47z" />
    <glyph glyph-name="ogonek.2" horiz-adv-x="481" 
d="M285 -256q-74 -27 -111 -27q-35 0 -54.5 19.5t-13.5 56.5q21 105 254 295l-311 -88q-143 -131 -164 -246q-17 -98 44 -155.5t171 -57.5q100 0 197 47z" />
    <glyph glyph-name="periodcentered.loclCAT" horiz-adv-x="622" 
d="M408 946q-30 0 -61 -7.5t-66.5 -26t-63 -58.5t-37.5 -96q-17 -89 29 -141t131 -52t148.5 52t80.5 141q15 88 -31 138t-130 50z" />
    <glyph glyph-name="i.loclTRK" horiz-adv-x="557" 
d="M315 0l189 1067h-316l-188 -1067h315zM430 1546q-28 0 -56 -6t-63.5 -22.5t-62 -53.5t-35.5 -90q-15 -79 30 -125.5t126 -46.5q82 0 144 46.5t75 125.5q14 82 -31 127t-127 45z" />
    <glyph glyph-name="periodcentered.loclCAT.case" horiz-adv-x="622" 
d="M408 946q-30 0 -61 -7.5t-66.5 -26t-63 -58.5t-37.5 -96q-17 -89 29 -141t131 -52t148.5 52t80.5 141q15 88 -31 138t-130 50z" />
    <glyph glyph-name="uni004A0301" horiz-adv-x="899" 
d="M-84 72q125 -97 277 -97q235 0 384 137.5t191 379.5l166 946h-322l-166 -946q-21 -116 -81 -173t-148 -57q-51 0 -98.5 20.5t-76 43.5t-71.5 65zM899 1954l-266 -355h223l334 263z" />
    <glyph glyph-name="uni006A0301" horiz-adv-x="514" 
d="M543 1616l-267 -354h224l334 262zM-213 -340q72 -14 137 -14q178 0 276 88t130 274l186 1059h-313l-189 -1065q-21 -129 -114 -129q-37 0 -72 14z" />
    <glyph glyph-name="tonos.case" horiz-adv-x="956" 
d="M590 1700l-266 -354h223l446 354h-403z" />
    <glyph glyph-name="uni030C.alt" 
d="M926 1595h-236l-155 -145l-107 145h-240l213 -354h187z" />
    <glyph glyph-name="Delta" horiz-adv-x="1562" 
d="M1069 258h-680l483 817zM-100 0h1570l-380 1444h-304z" />
    <glyph glyph-name="uni0394.1" horiz-adv-x="1579" 
d="M-59 0h1501l-340 1454h-314zM430 274l447 807l165 -807h-612z" />
    <glyph glyph-name="uni03BC.001" horiz-adv-x="1251" 
d="M272 -346h-315l250 1415h315l-104 -592q-19 -107 23 -164t122 -57q87 0 152.5 58t85.5 163l104 592h316l-189 -1069l-291 143q-104 -166 -237 -166q-57 0 -97.5 30.5t-58.5 84.5z" />
    </font>
</defs>
</svg>
